<svg id="图层_1" data-name="图层 1" xmlns="http://www.w3.org/2000/svg" xmlns:xlink="http://www.w3.org/1999/xlink" viewBox="0 0 300 300"><defs><style>.cls-1{fill:url(#新建渐变色板_1);}</style><linearGradient id="新建渐变色板_1" x1="150" y1="306.35" x2="150" y2="6.11" gradientUnits="userSpaceOnUse"><stop offset="0" stop-color="#fff"/><stop offset="1" stop-color="#818181"/></linearGradient></defs><title>主站</title><path class="cls-1" d="M82.2,136.8a355.42,355.42,0,0,0,21.9-73.5h-69q-8.1,0-12.6,2.1L17.1,52.5a65.31,65.31,0,0,0,15,1.5h70.8L111,43.2q2.4-3,3.75-3t10.65,6q9.29,6,14.85,9.9t5.55,6.3q0,2.4-5.4,3.3-9.9,1.5-13.5,12.6Q111.6,126,96.6,154.2q23.1,28.2,30.9,42.15t7.8,23.4a33.9,33.9,0,0,1-5.25,18q-5.25,8.55-9.9,8.55t-6.6-3.3a41.69,41.69,0,0,1-3.75-10.2q-6.6-27.29-24.3-58.8Q62.4,212.1,9.9,261.9l-4.5-4.2q45.29-54.9,69-103.5Q60.9,130.8,33,88.2l4.2-3.3Q69,120.9,82.2,136.8ZM242.7,87.3h8.7l13.2-16.5q2.4-3,4.8-3t8.55,6q6.15,6,11.4,11.85T294.6,95q0,3.45-8.7,3.45H242.7V248.1q0,15-5.55,22.35T221,283.2q-10.65,5.4-14.55,5.4t-4.5-4.8q-1.8-14.1-9-20.4T162.6,249l1.5-8.1q30.6,6.59,38.7,6.6t10.65-1.35q2.54-1.35,2.55-5V98.4H147.9A48.66,48.66,0,0,0,135,99.9l-5.1-14.1a65.29,65.29,0,0,0,15,1.5H216V43.2q0-17.1-.6-31.8,7.8,2.1,21.45,6.45t17.4,6.45Q258,26.4,258,28.5q0,4.2-15.3,8.7V87.3ZM141.9,129.6q27,18.3,36.3,29.25t9.3,20.1q0,9.15-5.1,15.15t-11.1,6q-3.3,0-5.1-6.3-5.7-19.8-11.7-32.55a262.93,262.93,0,0,0-15.9-28.35Z"/></svg>