<svg id="图层_1" data-name="图层 1" xmlns="http://www.w3.org/2000/svg" xmlns:xlink="http://www.w3.org/1999/xlink" viewBox="0 0 300 300"><defs><style>.cls-1{fill:url(#新建渐变色板_1);}</style><linearGradient id="新建渐变色板_1" x1="150" y1="306.35" x2="150" y2="6.11" gradientUnits="userSpaceOnUse"><stop offset="0" stop-color="#fff"/><stop offset="1" stop-color="#818181"/></linearGradient></defs><title>主站</title><path class="cls-1" d="M185.85,123.15v114.6q0,9.3,5.4,12t18.6,2.7a195.22,195.22,0,0,0,23.1-1.2q9.9-1.2,13.5-2.7t6.45-12q2.85-10.5,7-49.8h7.8q-0.3,20.7.9,31.65t3.9,16a27.58,27.58,0,0,0,7.8,9q5.1,3.9,5.1,6.3t-4.2,9a47.57,47.57,0,0,1-9.15,10.8q-4.95,4.2-21.45,5.4t-32.1,1.2q-24.91,0-39-2t-16.8-7.2q-2.7-5.25-2.7-22.65V123.15h-15.3q-6.6,53.4-20.1,79.95a119.37,119.37,0,0,1-37,43.5q-23.55,16.95-71,39.75l-2.1-5.4q63.9-42,81.75-73t21.75-84.75H33.45q-8.1,0-12.6,2.1l-5.4-14.1a65.31,65.31,0,0,0,15,1.5h88.5q2.7-28.8,2.7-67.5h-66q-8.1,0-12.6,2.1l-6-13.2a65.3,65.3,0,0,0,15,1.5h159.3l14.7-18.3q3-3.6,4.8-3.6t4.35,2.1q2.55,2.1,10.65,10.35t11.25,12q3.15,3.76,3.15,5.4t-9.6,1.65h-99q-1.8,38.1-5.4,67.5h85.5l14.1-18.3q3-3.9,6.15-3.9t16.65,14.1q13.5,14.1,13.5,16.35t-6.9,2.25h-89.4Z"/></svg>