<svg id="图层_1" data-name="图层 1" xmlns="http://www.w3.org/2000/svg" viewBox="0 0 200 1338.12"><defs><style>.cls-1{opacity:0.05;}.cls-2{fill:#fff;}</style></defs><title>主站</title><g class="cls-1"><path class="cls-2" d="M107.92,762.83c-4.18.33-8.09,3-12.25,1.71,0.73-4.83,3.46-8.93,2.6-13.81-0.68-3.87-5.7-2.87-7-5.9,2.27-5.25,6.25-8.92,9.27-13.28,3.29-4.76,2.66-6.6-2.37-9.26-3.71-2-7.54-1.77-11.56-1.15,4-7.69,4-7.76,10.12-10,3.41-1.23,7-1.94,10.38-3.32,1.95-.8,4.65-1.77,4-4.74a6,6,0,0,0-4.34-4.75c-8.51-3.09-15.05-1.47-22.29,8-4.06,5.3-8.92,8.36-15.1,10.61l-6.66-11.73c-3.33,16.4-3.33,16.4,6.61,22.31-3.17,7.74-7.51,14.3-14.82,19.13-6.37,4.21-12.54,9-17.44,15.78,6.73,2.49,11.48-.67,16.85-2.1,0.24,7.69-5.48,12.79-5.77,20.84,9.09-9.14,14.7-19.34,20.3-30.5,2.57,7.25,4.2,8.31,9.1,5.92,3.47-1.69,6.62-4.05,10.91-5.05,1.25,7.07-3.2,11.49-6.27,16.39a2.64,2.64,0,0,1-3.52.87c-3.32-1.57-5-.68-5,3.11,0,4.59,2.7,4.37,6.09,3.7a101.45,101.45,0,0,0,14.36-3.92c4.68-1.67,9.35-3.6,14.2-4.48,8.8-1.61,11.68,1.67,9.92,10.44a23.7,23.7,0,0,1-1.25,3.76c-3,7.73-9,13-14.84,18.45-6.74,6.22-14.58,6.43-24.29,3.73,8.42,7,16.05,7.25,24.5,4.2,12.19-4.4,18-14,21.65-25.43C128.57,768,123,761.63,107.92,762.83Z"/><path class="cls-2" d="M98.1,788.24c-1.39-8.17-2.49-9.24-9.64-9-5.75.21-10.79,2.71-15.82,5.19-3.84,1.9-7.61,4-11.57,5.59-2.52,1-5.34,2.72-6.71-2.19-0.58-2.09-3.51-1.06-4.28,1.15a8,8,0,0,0,1.78,8.27c2.63,3,5.86,3,9,1.63a135.28,135.28,0,0,1,36.36-10.14A2.6,2.6,0,0,0,98.1,788.24Z"/><path class="cls-2" d="M129.46,615.14c-2.63-1.26-3.62-2.46-3.12-5.13a50.47,50.47,0,0,1,1.1-5.85c3.54-11.26-1.25-18.91-10.65-25.21,4.31,14.38,3.94,18.46-2.77,32.33-2.86,5.92-2.09,7.6,4,10.62,2.56,1.26,7.27.77,6,6a1.39,1.39,0,0,0,1.72,1.69c4-1.6,8.59,1.32,12.37-1.55C136,618.64,136.12,618.35,129.46,615.14Z"/><path class="cls-2" d="M56.51,611c-5.79-2.23-9.88,4.79-15.74,4.15-0.32,0-1.19,1.63-1.19,2.49,0,4.69,3.48,7.31,7,8.77,4.08,1.68,4.57-2.53,5.61-5.13a4.18,4.18,0,0,1,2.82-2.61,49.91,49.91,0,0,0,4,4.28c3.93,3.34,9.28,2.72,10.33-2,1.16-5.14,5.3-9.35,4.23-17C69,611.36,63.92,613.82,56.51,611Z"/><path class="cls-2" d="M75,234c-1.82-1.43-3.29-3.29-5.94-4.15-7.63,17.69-18,33.78-23.32,53.5,7.06-4.67,12-9.21,16-16.45,1.19,8-.92,13.6-2.53,19.36s-3.88,11.42-2.3,17.49c0.54,2.06,1,4.26,4.16,4.8,3.42,0.58,4.75-1.22,6.32-3.41,1-1.43.91-3.17,1.5-4.63,4.47-11.05.67-21.74-2.39-32-1.7-5.67-1.13-9.55,2.43-13.21,3.33-3.43,5.28-7.6,7.55-11.6C78.46,240.28,78.69,236.86,75,234Z"/><path class="cls-2" d="M138.5,249.56c-8.23-1.66-14.42,2.75-21.75,7.11,4.54,0.82,7.7,0,11-.62,4.38-.88,10.65-3.47,12.74.93s-2.48,9.17-6.06,12.68c-2,1.95-3.62,5-7.47,4.13-0.48-2.57-.66-5.25-1.55-7.67-0.66-1.8-2.74-1.82-4.31-1.07-2.14,1,.2,1.81.29,2.73,0.85,8.52,2.38,17,2.22,25.6-0.23,12,0,12-13,10.55,3.94,3.71,6.94,6.35,9.72,9.19,2.22,2.26,3.56,6.68,7.53,5,3.78-1.56,2.23-5.8,2.23-9,0-1.63-.75-3.25-0.9-4.89-0.83-8.82-1.57-17.64-2.39-26.92,8.92,0.08,15.81-2.34,20-9.93C151.48,258.7,148.3,251.54,138.5,249.56Z"/><path class="cls-2" d="M105.44,268.71c-4.38,2.37-6.46,7.45-11.24,9.36-0.85-9.1,2.48-19.44-11-25.13,4.8,9.81,2.92,18.27,2.26,26.67-0.23,2.94-1.15,5.83-1.43,8.77-0.27,2.78.62,5.53,3.3,6.62,2.4,1,4.85-.86,6-2.56,4.28-6.21,10.26-11.3,12.7-18.73C106.62,272.06,107.89,270.18,105.44,268.71Z"/><path class="cls-2" d="M110.05,240.7c-2.56-2.86-5.76-4.57-9.62-2.64s-7.57,4.16-11.41,6.29c2,2.24,4.7.38,6.46,1.86,0.45,2.1-2.29,2.35-2.25,4.85,5.08,0.45,9.46-1.24,13.92-2C112.29,248.13,113.44,244.49,110.05,240.7Z"/><path class="cls-2" d="M89.1,37.87c-9.36-6-17.63-3.33-25.82,4.65C62.93,37,61.05,33.6,58.45,29.66c8.62-1.6,13.79-8.12,20.37-12.46,3-2,4.53-5,2.5-8.6s-4.88-4.13-8.46-2.27c-2.48,1.29-5.65,1.35-7.31,4.15,2,1.37,4.7,2.61,2.45,5.38-5.22,6.41-9.23,15.08-21.17,10.91,1.34,2.48,1.78,3.73,2.58,4.68C58,41.68,57.69,51.18,48.16,61.18a2.14,2.14,0,0,0-.89,2.16c0.59,5.5,3.53,7.12,8,4,5.11-3.52,5.84-9.34,7.6-14.64,0.9-2.7,1.31-6,5.62-5.67s4.43,3.61,4.85,6.38a77.07,77.07,0,0,1,.37,18.88C73.47,75,74,78,77.5,78.16c2.95,0.11,3-3.17,4.07-5a5.87,5.87,0,0,0,.33-3.87c-1.86-8.15-1.5-17-8.07-23.7C79.3,42.33,86.71,45.39,89.1,37.87Z"/><path class="cls-2" d="M121.65,23.09c1-7.07-5.78-10.57-11.95-6.94-2.22,1.3-4,3.45-6.76,3.84-0.4-13.2-1.37-15.29-9.23-20,3,9.58,2.55,15.68-2.13,24.61-0.93,1.77-2.05,3.28-2,5.43,0,2.45,1.63,3.71,3.4,4.46,2.41,1,3.45-.66,4.17-2.8,0.83-2.44,1.17-5.89,4.12-6.31,5.07-.72,8.6-4.56,13.69-6.5,1.33,8.7-1.52,15.64-5.45,22.12-4.2,6.95-5.3,6.93-11.55.93,0.58,7,.76,13.56-0.29,20-1.11,6.76-3.92,12.68-10.36,16.69,7.15,2.59,10.3-1,12.21-6.1a44.7,44.7,0,0,0,2.59-15.63c0-3.41,1.21-5.18,4.35-6.59C118.14,45.07,120.18,33.9,121.65,23.09Z"/><path class="cls-2" d="M127.59,67.36a11.9,11.9,0,0,0-5.12-5.85c-4.18-2.37-8.52-4.46-12.79-6.67,3.5,5.92,8.08,10.57,10.93,16.67,0.87,1.87,2.24,4.93,4.91,3.63C128.53,73.67,128.82,70.37,127.59,67.36Z"/><path class="cls-2" d="M87.12,1004.36c4.69-2.51,9-5.91,14.66-6.66-0.69,4.75-5.34,7-5.71,13,7-7.71,13.14-14,22-17,3.31-1.11,3.26-4,.12-5.73s-6.07-3.5-9.76-.08c-4,3.75-9.5,5.07-15.54,7.36,7.14-12,5.89-14.28-8.48-15.45,5.87,3.7,3.81,8,1.27,12.17-1.36,2.25-3.2,4.22-4.54,6.47a4.92,4.92,0,0,0,.71,6.39C83.65,1006.67,85.37,1005.3,87.12,1004.36Z"/><path class="cls-2" d="M57.84,1047c0,0.13,0,.24.06,0.35l0.16-.13Z"/><path class="cls-2" d="M133.82,1044.44c-4.28.51-8.62,0.63-12.83,1.47a244.06,244.06,0,0,1-56.32,4.57c-2.69-.09-6.09,1.07-6.77-3.09-1.22,1-2.32,2-4.13,2.1-1.25,0-3.71-3.61-3.74.91a2.9,2.9,0,0,0,3.2,3c4.64,0,9.32-.3,13.93.09a318.19,318.19,0,0,0,63.92-.48c3.4-.39,7.11-0.41,9.92-2.77C139.93,1046.19,137.94,1043.95,133.82,1044.44Z"/><path class="cls-2" d="M61.25,1045.87c8.1-10.13,7.7-28.93-1-38.65-2.64-3-6.66-5.26-2.46-10.38-5.9,2.27-5.62,5.57-3.82,10.14,5.11,12.93,9,26.13,4.12,40.12A2.84,2.84,0,0,0,61.25,1045.87Z"/><path class="cls-2" d="M57.84,1047l0.21,0.23,0-.15Z"/><path class="cls-2" d="M109.77,1022.5c-3.35,3.56-6.53.43-11.2,0.16,6.21,10.32,7,10.57,12.29,2.84,2.37-3.44,4.43-3.9,8.22-2.77,4,1.21,8.09,4.15,13.34,1.49-2.87-4.05-5.27-7.2-10.36-7.25C116.28,1016.92,115,1016.92,109.77,1022.5Z"/><path class="cls-2" d="M93.69,1023.19c-4,2.23-8.61-.76-12,2.32-4.83,4.39-4.8,5.08-1.84,11.51C86.15,1034.33,87.2,1026.24,93.69,1023.19Z"/><path class="cls-2" d="M140.06,423.85a4.74,4.74,0,0,0-2.57-2.76c-4.43-1.39-9.1-2.74-13.66-1.7-7.82,1.79-15-.35-22.3-2.42q-13.39-3.8-26.9-7.15c-3.14-.78-6.38-2.05-9.71-0.56h0c-1.54-6.13,4.32-4.25,6.42-5.05,16.4-6.27,32.85-12.34,47.7-21.93,2.08-1.35,5.57-1.54,5.44-5.06-0.14-3.93-4.17-3.78-6.46-5.34-2.64-1.8-5.6-1.2-8.48.17-11.51,5.45-24,7.52-36.3,10.27-4.18.94-8.36,0.82-12.1-2.6,0.14,11.06,2,12.19,11.34,9.88s17.91-6.13,27.36-8c-12.31,8.32-25,15.77-37.78,23.19-1.87,1.09-3.9.38-5.86,0.37-2.46-2.6-5.08-3.38-7.4,0-1.18,1.7-1.32,4.83.49,5.28,4.25,1.05,7.83,5.74,12.91,2.78l2-.1c12.6,4.07,25.54,7.27,37.58,12.83,9.19,4.24,18.67,3.9,28.26,3.78a14.9,14.9,0,0,0,7.61-2C139.14,426.71,140.67,425.72,140.06,423.85Z"/><path class="cls-2" d="M85.29,364.35c1.7,1.45,3.44,2,5.2.25,2-2,2.12-4.34-.16-5.94-2.93-2.07-6.24-3.61-9.9-5.67C80.44,357.72,81.84,361.42,85.29,364.35Z"/><path class="cls-2" d="M124.35,1254.14c-5.3-2.28-5.31-2.36-9.55-1.37a367.55,367.55,0,0,0-58.43,19c-5.7,2.39-11.35,4.83-18.36,3.63,2.38,6.08,5.86,8.53,11.78,7.2,6.49-1.46,12.43-3.18,17.57-8.28,5.6-5.56,13.42-8.25,20.87-10.91,5.1-1.82,6.47,1.18,6,5.69-3.55,4.5-4.55,12-13.27,10.28-2.47-.49-12.12,6.92-16.07,9.8,6,0.43,15.91-7.2,18.86-4.18-10.56,15.62-24.61,28.39-35.41,43.75,16.94-9.24,28.47-24.2,41.76-38.66,4.73,8.24,6.16,16.06,6.41,24.5,0.26,8.67-4.9,15.1-9.51,23.51,14.26-8.14,19.15-17.43,17.49-31.08-0.68-5.62-1.7-11.37-4.69-16.11-4-6.37-3.48-11.5,2-16.31,2.85-2.49,3.65-5.39,2.18-8.87-1.54-3.65-4.82-2.75-7.7-2.86,3-2.05,5.85-2.4,9.85-1.93C112.63,1261.73,119.55,1260.29,124.35,1254.14Z"/><path class="cls-2" d="M152.32,1303.74c-0.78-4.52-4.88-5.26-8.51-5.08-9.06.43-18.1,1.56-27.52,1.51,3.2,1.48,7,2.29,9.45,4.59,4.07,3.84,13.27-1.56,13.8,7.93,4,1,7.68-.07,11.19-2C153.81,1309,152.7,1305.94,152.32,1303.74Z"/><path class="cls-2" d="M63.16,849.31c-3.31,2.16-6.16,5-9.36,7.36s-6.32,5.52-11.25,4.39c0.62,2.47,1.67,4.65,1.64,6.82-0.3,22.93,3.84,45.49,5.36,68.27,0.29,4.39,1,8.52,5.92,10.66,3.62-7.92,3.86-15.56-.64-22.91-1.1-1.8-1.29-3.67-1.95-5.49-5.4-15-4.78-30.68-4.72-46.25,0-7.19.13-7.19,8.15-6.18-0.12,3.37-3.52,5.62-3,9.32,0.28,2-2.4,4.54,1,5.93,2.47,1,4.43.27,5.8-2.18,1.55-2.76,3.1-1.7,4.28.33a10.46,10.46,0,0,1-.73,12.18c-2.48,3.22-6,1.51-9.13.21a9.22,9.22,0,0,0-2.58,0,10.53,10.53,0,0,0,9,6.41c1.23,0.15,2.16.67,3.37-.6,6.31-6.62,6.65-15.83,0-22.48-2.61-2.6-2-4.35-.63-6.85,2.27-4,4.41-8.12,6.57-12.21,1.18-2.24,1.41-4.57-.55-6.42A5.16,5.16,0,0,0,63.16,849.31Z"/><path class="cls-2" d="M150.78,927.29c-3.65-7.24-5.65-8.95-12-10.2-7.76-1.54-15.51-3.2-23.34-4.32-5.06-.72-7.43-2.64-7.63-8.13-0.21-5.73,3.12-6.57,7.29-7.08,2.3-.29,4.62-0.41,6.93-0.69,1.71-.2,3.48-0.88,3.72-2.64a4.72,4.72,0,0,0-1.81-4.39c-1.22-.92-3.29,0-4.33-2.16,3.94-3.8,7.08-8.57,11.86-11.71,3.07-2,2.87-4.21.62-6.53-3.7-3.8-7-7.34-13.65-5.19-4,1.28-8.46,4.21-13,2-1.06-6.19,1.95-9.89,8.49-12.64-6-2.76-9.49-5.61-5.44-11,0.85-1.13.06-2.35-.8-3.52-5.61-7.7-11.21-8.43-20-2.2a44.51,44.51,0,0,1,5.74,4c5.23,5,3.36,12.35-3.5,14.39-2.15.64-5.12-.84-6.54,1.85,1.2,2.42,3.35,1.48,4.61,2.51,2.94,3.29,6-1,9.41.08,0.48,3.81,2.27,8.65-.67,11a33.59,33.59,0,0,1-14.06,6.76c-3.14.64-1.54-4.25-4.44-4.14-0.45,9.78,0,19.37,6,27.76,3,1.09,1.13,7,6.07,6.17,2.77,0.47,4.84-3.69,8-1.53-4.5,11.36-13.7,18.71-21.71,27.58,11.76,5.12,16.85-4.84,24.1-9.58,1.18,9.58,1.18,9.58-6,12.15,0.94,3.11,3.93,4.4,5.9,6.58,1.26,1.39,2.39,3.46,4.82,2.84,3.06-.78,2.73-3.5,2.76-5.7,0.12-7.87,0-15.74,0-24.86C122.61,922.13,134.69,931.2,150.78,927.29Zm-58.21-27.1c1-9-9-12-10-20,5.12-2.13,10.43.64,14.57-2.77,4.21,6.3-1,8.32-4.65,10.88,2.43,2,6.74-1.1,7.37,3.88S96.78,898.12,92.57,900.19ZM107,886.64c1.28-1.79,3.4-3,5.18-4.45-1.78-2.44-7.49.28-6.68-5.37,0.61-4.25,2.83-5.3,12.42-5.11-2,6-3.89,11.76-5.91,17.52-0.71,2-2.46,3.83-4.42,2.79S105.88,888.23,107,886.64Z"/><path class="cls-2" d="M72.09,162.13a77.81,77.81,0,0,1,.29-9.88c0.53-4.47-2-5.82-5.87-6.45-0.73,17.89-.57,35.71-0.73,54.34,10.74-5.9,11.18-6,8.44-15.43C72,177.21,72.16,169.71,72.09,162.13Z"/><path class="cls-2" d="M67.47,117.66c-5.18,2.09.84,3.55,0.41,5.31a29.38,29.38,0,0,1-2,5.59c-3.33,7.1-6.75,14.15-10.14,21.22l1,0.69c3-3.35,6.26-6.55,9-10.1,3.26-4.18,6-8.72,9.2-13,1.75-2.36,2.81-4.65.53-7.12C73.34,118,70.68,116.36,67.47,117.66Z"/><path class="cls-2" d="M164.14,180.55c-2-4.82-5.52-8.13-10.09-11.39-0.23,1.89-.41,2.86-0.45,3.83-0.43,9.68-.43,9.72-9.92,9.87-4.65.07-9.33,0.29-13.95-.08-8.22-.66-9.77-2.56-8.83-10.78,0.71-6.23,2.51-12.39,2.69-18.61,0.11-4.1.93-6.76,4.47-8.87,3.1-1.85,8.92-3.84.91-7.44-1.76-.79-0.21-2.3.49-3.16,1.64-2,4.31-3.8,3.92-6.56-0.35-2.43,2-5.31-1.12-7.35-2.86-1.89-5.63-1.69-8.4,0-1.41.88-2.66,2-4.09,2.83-6.61,3.75-10.77,10.32-17.48,15.38,0.4-5.74,2-9.52,6.56-12.24a81,81,0,0,0,10.22-8c3.57-3,6.72-6.5,8.48-10.92,0.83-2.09,1.7-4.32-.57-6.37-1.94-1.75-3.73-.71-5.56-0.17-5.19,1.55-9.36,5-14,7.9-3.35-1.85-6.19-5-11.06-6.06,3.57,6.41,1.27,10.86-2.45,15.15-2.82,3.24-4.51,7.1-.71,10.56,4.29,3.91,5.83-1.73,8.65-3-0.62,6.35-4.62,11.09-7.82,16.22-3.56,5.71-3.44,11.19.33,15.58,1.59,1.85,3.38,3.38,6,2.21,2.35-1.05,2.15-3.43,1.7-5.21-2.47-9.75,3.43-14.4,11.71-19.78-0.64,12-5.68,21.18-8.65,30.84-3.11,10.13-10.87,18.09-13.91,28.39,14.61-10.3,18.93-26.79,25.67-42.07,0.52,2.16,1,4.4.43,6.33-1.63,5.56-1,11.24-1.25,16.85-0.31,8.37,1.93,11.82,9.83,14,11.44,3.11,23.08.88,34.57-.35C164.5,187.63,165.75,184.46,164.14,180.55ZM102.1,125l-0.2-.22,0.21,0c0.12-3.51,2.63-5.48,6.14-8.34-1.31,4.39-1.79,7.74-6.14,8.34C102.11,124.83,102.1,124.92,102.1,125Zm16,17.36c1.65-7.09-1-15.15,8.64-17.39C126.51,131.81,125.6,133.7,118.12,142.36Z"/><path class="cls-2" d="M83.06,1104.76c-1-1.1-2.21-.77-3.6-0.61-3.55.4-5.89,0.62-5.64,5.68,0.15,2.92-3.31,6-5.29,9.28-4.24-6.89-7-7.75-12.15-3.18-6,5.33-12.67,9.49-21.21,14.37,11.84,1.27,19.41-3.16,25.18-11.55,2.87,4.83,2.08,8.35-1.05,11.4-4,3.94-8.28,7.68-12.29,11.65-2.37,2.35-6,3.59-7.53,7.76,10.46-1.62,16.09-9.46,23.18-14.79,1.81,2.43,1.09,4.13.2,6a79.76,79.76,0,0,1-15.11,22.06c-4.3,4.43-5.22,9.22-2.55,14.15,2.9,5.34,8.31,5.79,11.82.7,3-4.32,5.48-9,8.87-14.58-0.83,13.51-6.09,24.69-8.63,37.63,6.26-4.26,8.45-9,10.24-14.59,5.38-16.61,4.69-33.34,1.56-50.06-1.15-6.15-.4-10.83,4-15.33,3.46-3.54,6.26-7.74,9.33-11.65C83.47,1107.8,84.49,1106.38,83.06,1104.76Z"/><path class="cls-2" d="M133.41,1161.62c-2.57-6.93-5-14.55-14.31-16.24-4.06-.74-4.56-9.18-0.9-12.06,1.54-1.21,3.52-1.85,5.29-2.77,2.15-1.11,4.21-2.52,3.55-5.27-0.56-2.34-2.94-2.24-4.86-2.67-1-.21-2.56.68-2.89-1.22,2.94-5.33,6-10.62,6.49-16.65,0.27-3.41,2.11-8.11-3.51-9.56l0.13,0.07-0.29-.12c1.22,6.56-.36,12.51-4,18-3.15,4.81-3.14-.06-4.84-1.31L112.4,1113c-0.25,7.06-1.17,14.13-9.44,17.37-3.06-5.72,4.28-9.11,3-14.71-1.07-4.81.39-9.83,2.39-14.46h0l-0.31.11,0.11-.16c-2.11-.55-2.95,1.23-3.28,2.55-1.59,6.28-4.88,2.41-8,.28,0.35,2.47.91,3.83,0.65,5-1.43,6.52-2.75,12.73,2.2,18.77,1.87,2.28.85,5.64-2.55,7.46A57.27,57.27,0,0,1,87,1139.1c-4,1.24-5.41,4.52-4,8.8,1.5,4.46,4.51,4.1,8,2.85,1.61-.58,2.63-2.6,5.37-2.08-4.26,8.88-5.14,18-4.65,27.35,0.34,6.5,1.64,12.66,9.51,14.16,1.73-2-.89-6,2.89-6.67,3.34-.6,4.31,2.47,5.61,4.74,0.17,0.29.28,0.61,0.47,0.88,3.56,5.13,4.88,5.48,10.7,2.85C131.29,1187.31,137.61,1172.95,133.41,1161.62Zm-26.31-21.45c1.31-1.32,2.7-2.81,5.87-2.63-0.15,2.22-.39,3.79-0.33,5.35,0.09,2.65-1.11,4.41-3.54,5.08a2.79,2.79,0,0,1-2.24-1.44C106,1144.44,105.2,1142.08,107.1,1140.17Zm-1.22,19.95c-1.17,2.84-3.7,3.23-7.38,3a6,6,0,0,1,.53-1.61c1.56-1.59,2-4.94,5.33-3.74C105.09,1158,106.09,1159.59,105.88,1160.12ZM101,1147.58a4,4,0,0,1,1.94,1.7c1.44,3.51-1.25,4.47-4,5.86a8.73,8.73,0,0,1-.66-1.62A6.57,6.57,0,0,1,101,1147.58Zm4.05,33.53c-3.85,1-5.08-1.78-6.5-5.63,3.16,0.5,6.68-2.79,7.68,2.31C106.47,1179.09,106.43,1180.73,105,1181.11Zm7.67,2.6c3.44-2.36,7.22-2.86,11.46-2.46C119.12,1190.8,118.48,1190.92,112.69,1183.71Zm13.45-8.92c-3.43,2.88-9,3.3-13.67,4.54-1.83.48-3.18-.86-3.79-2.53-0.72-2,.5-3,2.16-3.78,3-1.34,6-2.82,9.11-4,1.89-.73,2.61-1.83,1.89-4.94a45,45,0,0,0-11.9,5.54c-2.19,1.45-4.62,3-7.12,3.38-2.24.38-5.68,1.16-6.27-2.86s1.86-3.86,4.88-4.12c5.66-.48,10.71-3.32,16-5.31,1.68-.64,3-2.17,2.32-3.84-0.91-2.13-2.63-.85-4.1-0.15a21.09,21.09,0,0,1-3.93.78c1.67-3.52,1.29-7.54,5.61-7.72,3.62-.16,6,2.47,7.16,5.94,0.71,2.21,1.35,4.45,1.84,6.71C127.22,1166.61,129.43,1172,126.15,1174.78Z"/><path class="cls-2" d="M133.05,524c-3.38-21.34-4.6-42.84-1.46-64.35,0.35-2.4.08-3.44-1.72-4.83-5.66-4.39-10.08-5-16.28-.58-4.11,2.9-7.09,4-12.14,1.07-5.34-3.09-11.84-3.68-17,1.56,7.54-.8,7.66-0.69,9.63,6.77,0.62,2.33,1.38,4.57,3.39,5.89,3.34,2.19,7.5,4.94,11,3.27,4.69-2.26-1.17-6.12-.15-10.24,3.91,1.7,9.53-.4,10.15,6.53q2.55,28.2,5.12,56.4c0.39,4.26-1.11,6.94-6.47,6.68,4.83,5.35,6.48,12.82,14.12,14.76C135.35,535.31,134.86,535.38,133.05,524Z"/><path class="cls-2" d="M84.18,457.11l0.24-.23-0.4,0Z"/><path class="cls-2" d="M58.34,485.29a78.47,78.47,0,0,1-7-3.87c1.28,16.74,2.08,33.17-1.22,49.4-1,4.82,2.4,6.48,4.53,9.11s4.5,2.7,5.81-.94a22.57,22.57,0,0,0,1.46-5.74c1-12.2,1.93-24.4,2.65-36.62C64.85,491.75,63.46,487.49,58.34,485.29Z"/><path class="cls-2" d="M84,457.05l0.14,0.05L84,456.92Z"/><path class="cls-2" d="M64.75,456.43c2.12,1.19,4.15,2.19,6,3.41,4.2,2.69,4.08,4.05.36,7.27-3.24,2.8-5.8,1.64-8.13-1.34-2.56,6.75,1.23,10.83,5.27,13.35,7.67,4.76,7.77,10.75,6.59,18.72-1.3,8.79-2.85,17.7-2.49,26.72,0.15,3.65.11,7.26,4,8.93,8.1-6.76,8.15-15.69,7.52-26.18,4,3.61,7.08,6.41,10.9,8.33,4.54,2.29,4.25,8.78-.56,11.05-2.29,1.08-2.09,2-1.64,3.46,1.32,4.31,2.46,8.81,7.35,10.56,4-2.82,4.82-6.81,4.64-10.79-0.71-15.55-1.72-31.09-2.61-46.64-0.29-5.09-3.25-6.56-8-6.67-5.39-.12-8.16,3.93-11.92,6.44,1.52,3.45,4.24,2.18,6.64,1.55,1.55-.4,2.94-1.68,4.47-1.82,1.82-.16,2.92,1.17,2.88,3.15,0,1.77-.33,3.57-2.66,2.86a13.24,13.24,0,0,0-7.61-.27c-6.31,1.59-7.24.14-6.05-7.95,3.88-7.4,6.32-15.06,4.29-23.53C76,453.82,72.86,453.7,64.75,456.43ZM95.14,500c3-.73,3,1.13,3,2.71,0,1.21,0,2.75-1.93,2.65s-4.41-.07-4.78-2.4C91,500.18,94.19,501,95.14,500Zm-11.41-8.5c0.42-.23,2,0.61,2.21,1.25,1.05,2.8-1.12,3.8-3.12,4.89C81.28,495.29,80.89,493.07,83.73,491.52Z"/></g></svg>