<svg id="图层_1" data-name="图层 1" xmlns="http://www.w3.org/2000/svg" viewBox="0 0 200 1352.91"><defs><style>.cls-1{opacity:0.05;}.cls-2{fill:#fff;}</style></defs><title>主站</title><g class="cls-1"><path class="cls-2" d="M86.28,1084.42c-4.83,7.13-7.81,15.33-13.16,22.2a20.12,20.12,0,0,1-10.25,7.47c-2.65.8-4.47,0.14-5.36-2.68-0.38-1.2-1.35-2.72.69-2.85,8.72-.55,8.93-8.93,12.57-13.9,4.05-5.55,5.94-12.34,6.91-20.07-6.62.42-11.74,3.6-17.16,5.52-4.83,1.71-9.25,2.91-13.83-.56-1.49-1.13-3.56-1.5-7-2.87,14.17-.79,24.5-7.9,36-11.67,3-1,4.27-2.76,4.08-5.86-0.38-6.29.17-12.56-.76-18.9-1-6.51-3.28-11.23-12-13.07,9.77-3.05,15.91,1,22.15,4.2,2.7,1.4,2.61,4.31,3,7,1.07,6.55.1,13.18,0.57,20,8.91-2,17.34-3.63,26-.88,6.88,2.18,7,1.92,7.36,10.31-6.21,2.07-12.49.6-18.74,0.37q-4.49-.16-9-0.06c-5.39.12-9.81,1.43-10.31,8-0.14,1.93-1.09,3.8-1.67,5.7A1.47,1.47,0,0,1,86.28,1084.42Z"/><path class="cls-2" d="M90.42,848.28c3.14-.32,1.3-4.47,4-4,3.17,0.54,6.75,0,9.42,2.19,1.49,1.25,1,3.06-.29,4.38-1.85,1.91-3.56,4.16-5.79,5.45-6.66,3.85-9,9.41-7.3,17.41,0.89,1.64,3.2.52,5,1,6.52,1.9,7.39,5.23,3.22,10.71-3.4,4.45-6.51,9.14-9.57,13.83-0.67,1-.6,2.54-0.93,4.16,3.19,1.07,6.39,1.79,9.26,3.19,3.92,1.9,3,5.71,2.17,8.78-1,3.39-3.61,2.86-6.5,1.92-5.35-1.73-10.87-3.35-16.56-2-3,.71-4.46-0.7-5.32-3.06-0.92-2.54-1.49-5.24,1-7.34a36.56,36.56,0,0,1,4-2.89c5.82-3.65,7.7-8.66,5.37-15.73C77,888.93,71,889.45,71.25,897.09c-2.5-6.42-.61-10.81,4.55-14,2-1.22,4.21-2.19,5.81-3.8C84.84,876,83.93,871.53,83,868s-4.53-1.12-6.93-.86c-2.63.28-5.44,0.54-7.74,1.68s-4.47,2.22-5.71-.67c-1.16-2.71-4-6,.6-8.49,4.31-2.3,4.23-6.21,4.2-10.63,5.92-.8,8.28,3.15,9.35,8.46,4.89-.78,7.33-3,7-8-0.21-3.63.42-7.29,0.55-10.95,0.06-1.62.49-3.6-1-4.68-2.19-1.57-5-2.63-1.93-5.84s6.68-2.94,10.05-1.14c2.75,1.47,2.49,4.07,1.52,7C91.58,838.2,90.21,842.67,90.42,848.28Z"/><path class="cls-2" d="M148.06,576.71c-15.6-2.45-30.27-7.27-43.34-16.28-8.35-5.76-17.3-8.16-27.54-5.3,12.5,3.12,22.85,10.15,33,17.42a85.79,85.79,0,0,0,40.4,15.37c7.31,0.89,7.85.59,11.8-7.29C157.58,579.28,152.91,577.47,148.06,576.71Z"/><path class="cls-2" d="M92.79,522.15c5.12-5.35,3.94-9-2.9-12-2.3-1-4.7-2.82-7.45-.28,3.65,2.69,2.12,5.78.75,8.89C77.56,531.52,71.08,543.81,62.72,555q-7.28,9.79-14.52,19.59c12.56-9.13,23.77-19.33,31.21-33C83.16,534.72,87.22,528,92.79,522.15Z"/><path class="cls-2" d="M86.28,1084.42l0.2-2.59c19.43,1,34.9,9.61,47.35,24.22,1.9,2.23,4.22,4.2,3.7,7.56-11.91,1.21-19.53-5.16-26.5-13.73C104.67,1092.07,96.76,1086,86.28,1084.42Z"/><path class="cls-2" d="M81,179.29c-0.62-4.73-1.62-10,1.92-14.43a4.22,4.22,0,0,0,.34-4.61c-2.49-5.73-2.09-11.64,0-17.39,1.73-4.7-.87-7.15-4.6-8.32-5.28-1.66-9.9-.53-12.66,5.46,2.47,1.1,6.63.93,6.17,4.87-0.63,5.36,3.84,12.29-4.32,15.59a1.38,1.38,0,0,0-.6,2.35c4,3.32.3,4.13-1.72,4.95-8.44,3.41-16.81,7.15-26.71,7.27C48,183.5,51,183.9,60.42,179.54c3.29-1.53,6.15-4.4,11.94-5.13C65.41,187.56,63,201,53.27,210.76c-3.61,3.63-1.89,7.48-.77,11.17,1.07,3.54,3.88,3.73,6,1.24a34.52,34.52,0,0,0,6.51-12.23,72.2,72.2,0,0,1,8.23-18.25c1.5,9.32,1.35,17.1,1,25.72l-6.58-4.36c1.43,7.46,2.47,13.82,6.68,19.09,1.46,1.83,3.48,3.34,6,2.13,2.14-1,3.91-2.55,3.77-5.31-0.08-1.66.06-3.35-.18-5C81.78,209.83,83,194.47,81,179.29Z"/><path class="cls-2" d="M123.88,156.39c-3.95-.48-6.79,2.37-10.78,3.26-0.86-5,.5-9.16.91-13.43,0.75-7.8-.28-9-9.92-11.51,3.39,6.1,3,12,.07,17.8-4.53,8.92-6.26,17.57,3.6,24.69,4-3.43,9.6-5.46,14.79-8.18a10.77,10.77,0,0,0,5.46-6.56C129.28,158.85,127.74,156.86,123.88,156.39Z"/><path class="cls-2" d="M122.75,218.15a69.61,69.61,0,0,1-7.22-3.31c-7-4.08-7.23-6.71-1.1-11.62,1.3-1,2.77-1.85,4.05-2.9,3.26-2.67,3.76-5.49-.08-8-3.11-2-6.41-3.76-9.62-5.62,3.23,5.22,2.52,9.91.94,14.78-1.35,4.15-2.66,8.91-.21,12.55,3.39,5,4.06,9.22-1.92,14.4,3.66-.93,5.55-1.62,7.48-1.83s4,0.25,6,.05c2.46-.25,4.5-1.49,5-4.13C126.38,220.15,124.69,219,122.75,218.15Z"/><path class="cls-2" d="M109.83,417.76c-3.88,1.7-8.17,2.47-12.64,3.76-0.37-5.36-.52-10.27-1.09-15.13C94.76,395,92,392.64,79.69,392.75c1.82,3.42,2.83,7.37,5.35,9.63,5.13,4.61,5.07,10.34,5.52,16.28,0.34,4.54-1.72,6.71-5.82,7.72-13.86,3.39-27.31,8.7-42.36,8.2,6.42,8.54,9.25,9.73,18,7.07,9-2.74,18-5.85,28.25-9.24-2.16,5.53-1.72,10.4-5.75,13.62-0.64.51-1.49,0.67-1.35,2.07,0.67,6.35,5,10.12,11.85,10.13,1.35,0,3.08-1.59,4.36.92-2.73,3.23-5.62,6.38-8.19,9.78a6.52,6.52,0,0,0-.93,6.65c1.37,3,4,1,6.08,1.16,1,0.07,3.57-1.38,2.7.53-1.86,4.08,0,4.07,2.49,2.77,4.41-2.26,8.51-5.12,12.77-7.68,2.78-1.67,2.47-3.85.58-5.71-1.36-1.34-3.34-2-5.7-3.42a21.23,21.23,0,0,0,6.31-10.17c0.69-2.39,2.91-5.33.11-7.28-2.51-1.75-5.4-3.74-9.09-2.08-3.84,1.73-7.89,3-12.81,4.86,1.38-6.27,2.63-11.66,3.73-17.08,0.51-2.52,2.44-2.63,4.37-3.26a48.22,48.22,0,0,1,17.75-2c4,0.21,7.82.2,9.86-4.13C122.69,415.86,116.93,414.65,109.83,417.76Z"/><path class="cls-2" d="M74,470.5c-0.2,8.94,1.28,10.65,12.59,13.08-4.2-10.36-3-22.06-12.57-32.56C74,459,74.13,464.75,74,470.5Z"/><path class="cls-2" d="M78.42,978.2c5.24-3.43,10.78-3.71,16.64-4.38,4.81-.55,9.38-3.19,14.06-4.91,1.6-.59,3.18-1.35,3-3.41-0.25-2.32-1.88-3.41-4-3.68-2.74-.33-5.26.67-7.72,1.66-3.39,1.36-6.67,3-10.07,4.31-6.59,2.57-6.64,2.53-9.74-4-0.91-1.92-2-3.39-4.4-3.32-3.37,4.07-3.46,8.88-3.58,13.75C72.45,978,75.22,980.29,78.42,978.2Z"/><path class="cls-2" d="M129.24,998.22c-10.16.66-20.12,2.26-29.7,5.85h0c-4.64.18-9.33,0.41-13.85-.75-7.54-1.94-14.32.16-21.32,2.69-2.24.81-5.8,7.81-8.48-.21-0.6-1.79-1.34.48-1.56,1a12.86,12.86,0,0,1-4.6,5.13c-3.74,2.64-3.94,6.32-1.57,9.57s6.14,2.3,9.05.61c4.87-2.83,9.79-5.73,13.48-10.17,4.85-5.85,10.58-7.5,17.63-4.13,1.76,0.84,4,.76,5.69,1.64,4.09,2.09,6.14-.44,8.25-3.16,6.73-3.82,13.59-3.94,20.67-.93a21.47,21.47,0,0,0,5.72,1.4c2.89,0.36,6.07,1.17,6.17-3.68C134.89,998.91,132.71,998,129.24,998.22Z"/><path class="cls-2" d="M109.72,687.46a17.59,17.59,0,0,0-8.19-5.38c-2.83-.81-4.17,1-5.67,2.94a19.89,19.89,0,0,1-3.68,3c-4.15,0-7.69,3.82-13.11,1.9L92.3,674.47c3-3.52,6.45-6.77,9-10.63,3.46-5.32.5-10.24-5.82-9.82-3.23.22-6.45,1.42-9.57,2.49-9.36,3.21-18.33,7.72-28.55,8.19,12.76,10,15.87,10.5,26.79,3.4-6.4,9.2-11.28,18-20.86,22.88-3.79,1.92-4.75,7.35-2.77,11.37,1.9,3.85,5,3.28,8.44,2.52,9.62-2.13,17.54-6.75,23.3-14.85l4.54-1-9.33,16c4-1.53,6.65-3.14,9.41-3.44,6.66-.73,8.91-6.24,12.4-10.45C110.14,690,110.59,688.41,109.72,687.46Z"/><path class="cls-2" d="M89.11,631c1.33-2.11.25-3.81-.84-5.38a9.09,9.09,0,0,0-7.53-3.92,45.28,45.28,0,0,0-12.91,1.42c5.9,4.05,10.23,8.14,16.16,9.5C86,633.14,87.81,633.11,89.11,631Z"/><path class="cls-2" d="M125.32,277.69c-2.18.69-5.49,2.75-7-.65-4.06-9.14-11.39-7.77-18.65-6.07-3,.7-4.46,1.07-6.09-2.37-3.4-7.22-10-9.62-17.41-10.31-1.85,6.69,4.49,9,5.87,13.57-5.69,2.63-10.85-1.24-16.94-1a31.26,31.26,0,0,0,14.32,8.25c2.74,0.76,4.85,2,4.64,5.46-0.19,2.95-2,3.75-4.43,4.43-9.61,2.66-19.17,5.47-28.73,8.29-2.81.83-4.5,0.45-4.44-3,0-2.1-1.35-1.92-2.47-.94-2.59,2.25-2.63,5.32-1.82,8.27s3.37,2.4,5.69,2.68,3.74-.85,5.58-1.48c8.79-3,17.63-5.89,26.5-8.66,1.27-.4,3.26-2,4.09.55,0.66,2-1,2.93-2.58,3.56l-22.79,8.84c7,3.56,13.25,5.39,20.13,1.87,1.54-.79,4.19-1.75,5.14.68s-1.58,3.54-3.32,4.11c-9.09,2.94-17.51,8.09-28.17,7,3.33,5.85,8.72,4.62,13.47,6.9-7.13,6.59-3.82,13.62-3.56,21.06,0.32,9.27,5.73,13.51,11.16,19-7.8,2.56-14.7,7.89-23.48,3.15,2.83,7.84,3.1,8.24,8.89,6.73,7.36-1.92,14.59-4.32,21.89-6.46,10.21-3,20.41-5.9,31.24-3,2.19,0.59,4.65.11,7,.31s3.73-.72,4-3.2c0.21-2.22-.45-4.11-2.58-4.8-2.94-1-6.22-1-9.17-3.22,4.12-4.27,8.2-8.14,11.55-12.69,2.56-3.47,2.14-5.63-1.43-8.1a21,21,0,0,0-15-3.88c-9.56,7.27-20.81,11.11-31.76,15.5-1.59.64-4.2,1.28-5.28-1s1.27-3.4,2.66-4.68c0.67-.62,1.42-1.15,2.14-1.71h0c0-.08.1-0.15,0.15-0.23-3.19-5.09-2.76-7.58,1.6-8,2.11-.18,4.67-0.5,6.27,1.82-0.6,4.57-5.8,3.21-7.75,5.95l0.23,0.34c9.89-1.32,19.59-3.23,28.1-9,1-.68,2.41-0.78,3.63-1.15a18.51,18.51,0,0,1,2.33-1.8c5.36-3,7.06-6.53,5.07-10.81-1.77-3.78-7.09-5.23-12-3.37-1.65.63-2.85,2.72-5.06,1.71-0.64-2,.15-3.05,2-3.75,4.68-1.73,9.3-3.64,14.34-4.1,1.69-.15,3.43-0.36,3.53-2.57,0.11-2.47-1.74-3.27-3.65-4.08-2.92-1.23-5.86,1.42-8.74-.16,1.58-2.18,5.64-1.62,6-5,1-10,7.66-12,16.16-11.87,3,0,6-.55,8.94.12,3.52,0.8,6.35-.13,8.79-3.37C138.26,276.75,132.27,275.48,125.32,277.69ZM92.75,345.88c2.23-1.63,4.09-3.92,7.16-4l0.1-.31v0l0.14,0.23a17.94,17.94,0,0,1,1.06-1.57c1.1-1.34,2.68-2.44,4.24-1.72,1.82,0.84,1.25,2.75.59,4.26s-1.51,2.89-2.45,4.65l-3.43-5.62,0,0H99.91a32,32,0,0,1-8.61,14.56C87.46,349.74,87.46,349.74,92.75,345.88Zm-11.59,6.88c2.18,0.08,2.56.51,2.59,1.32,0.13,3.42,3,8.36-.16,9.88-3.68,1.8-3.65-5.15-7.18-6.23-0.74-.23-1.17-1.45-2.11-2.69ZM81,324.34c-1.57,0-3.27.71-4.78-.68,0.45-2.87,2.1-3.39,3.62-3.95,1.69-.62,3.87-2.29,4.58.92C85,323.1,83.29,324.27,81,324.34ZM95.38,291a3,3,0,0,1,2.93-2.12c1.22,0,1.55.84,1.52,1.91a2.45,2.45,0,0,1-2.9,1.88C96,292.6,94.9,292.33,95.38,291Zm4.77,13c-0.78,1.42-2.13,2.31-3.84,1.65a2.61,2.61,0,0,1-.76-2.44,2.58,2.58,0,0,1,3.27-1.37C99.68,302.16,100.73,302.52,100.15,304Zm-4.77-19.71a1.64,1.64,0,0,1-.84-2.43c2.22-3.08,5-1.91,7.84-1.26C101.47,285.39,98.28,284.8,95.38,284.32Z"/><path class="cls-2" d="M74.14,340.45l0.08-.06-0.19.14,0.33,0-0.15-.25,0,0.07,0.05,0.09Z"/><path class="cls-2" d="M89.29,82c0.48-4.19,1.67-8.32.5-14.14-2,4.53-1.6,8.37-5.13,10.35V55a72,72,0,0,1-.1-17.14h0a0.73,0.73,0,0,0,0-1c-0.75-3-1.29-6,1.41-8.49h0l0.52-3.68c1.34-1.61,1.44-3.62,2-5.54,2.42-8.77.53-13.46-6.85-18.06-3.46-2.16-5.43-.84-7.47,1.77,6.33,2,6.42,2,6.22,8.17-0.14,4.3-.57,8.59-0.87,12.89-4.76-.61-8.53,2.7-13,3.81-0.78-14.58-.78-14.58-11.81-12.66C62,27,60.49,32.41,48.18,37.79c-2.94,1.29-6,2.28-9.43,3.56,6.5,2.24,12.29,4.88,18.5,3.05,4.5,9.55-3.26,18.69.73,27.66,0.17,0.38-1,1.56-1.8,2.12-1.76,1.29-.25,1.27.4,2.28,5,7.73,4.05,11.19-4,15.06C48,93.7,43.2,95.38,37.61,97.66c9.19,5.78,15.25-3,23.21-3.51-0.44,5.53-3.76,8.94-6.25,12.55-2.61,3.78-2.66,7.3-.73,11.17,0.79,1.58,1.93,2.82,3.79,2.57,1.41-.19,2.16-1.36,2.47-2.77,0.72-3.24,1.3-6.52,2.26-9.69C65.12,98.88,69,90.41,76.14,83.25c2.42,3.93,5.16,6.72,3.3,10.69-0.42.9-4,.7-0.85,2.65,2.93,1.81,3.07,4.91,4.07,7.67a27.12,27.12,0,0,0,3,6.27c1.55,2.24,4.09,2.21,6.17.93,1.76-1.07,1.1-3.15.17-4.42C86.18,99.18,88.31,90.52,89.29,82ZM74,35.84c3.88-2.5,6.08-1.34,6,2.42,0.2,3.1-1.68,4.54-4.28,3.85-3.24-.87-7.2,4.34-8.65.62C65.39,38.44,71.21,37.63,74,35.84ZM77.57,72c-5,.4-5.22,3.44-5.49,7.29-0.14,2-2.17,3.2-4.53,2.7-3.19-11.91,1.13-12.69,6.89-15.64,1.42-.73,3.4-1,4,1.17C78.89,69.12,78.91,71.94,77.57,72Zm1.87-11.66L68,57.84a40.2,40.2,0,0,1,4.53-3.24c1.94-1,3.81-3.68,6.11-2.06C81.26,54.37,79.64,57.27,79.44,60.39Z"/><path class="cls-2" d="M133.75,105.06c-0.54-3.26-1.62-6.42-2.32-9.66-0.56-2.59-.75-5.27-1.42-7.82-0.93-3.51,2.19-4.86,3.23-7.21,1.28-2.9-4.26-4.21-3.55-8.41,1.16-6.84.1-13.9,1.77-20.82a61.45,61.45,0,0,0,1.3-13.84c0-5.11-3.31-8.61-7.43-10.81-3.81-2-6.88.3-9.52,3.23A18.52,18.52,0,0,1,112,32.38c-3.16-1-4.06-4.76-8-5,2.79,6.71-2.38,12.4-.85,19.82,2.52,12.17.53,25.12-.81,37.68a9.81,9.81,0,0,1-1.15,2.66c-5.29-3.23-3.37,1.49-3.39,3.3,0,5.41,2.22,10.33,4.25,15.16,1.59,3.77,4.75,3.72,6.37,0,2.4-5.49,4-11.24,3.48-17.38-0.58-1.14-1.58-2.26-1.65-3.43-0.16-2.75-1.33-6.27,3.21-6.87,4.87-.65,8.77,2,9.53,6,0.87,4.58-1.93,8.12-2.89,12.17,1,3.83,1.71,7.79,3.14,11.46,1.31,3.37.76,8.77,6.61,8.37C132.85,116.12,134.67,110.65,133.75,105.06ZM121.3,40.27c0.85,13.72,3.67,18.26-9.71,18C109.8,45.78,110.43,44.51,121.3,40.27Zm0.92,33.17c-2.45,3-6.22,2-9.23,2.19s-2-3.37-2.17-5.51a5.72,5.72,0,0,1-.21-1c-0.47-10.38,0-10.69,10-6.37-1.12,4.24-5,5.62-8.05,7.86,2.67,2.21,4.95-1,7.49-.54,0.94,0.18,2.07.18,2.27,1.44A2.81,2.81,0,0,1,122.22,73.43Z"/><path class="cls-2" d="M91.92,757l-0.15,0c0,0.09-.05.17-0.07,0.26l0-.06,0,0.06H92c0-.1-0.05-0.21-0.09-0.32Z"/><path class="cls-2" d="M144.64,790c-0.57-3.81-3.36-5.74-6.52-6.9-5.26-1.93-1.73,3.4-3.64,4.75-8.23,5.85-16.74,11.14-27.07,11.62-9,.42-13.06-4.28-12.33-13.72a84.29,84.29,0,0,1,4.25-21.22c2-5.77-.13-7.59-7.3-7.24,1,3.19.48,6.47-.34,9.51-1.84,6.86-1.45,13.89-1.75,20.8C89.39,800.18,96.47,807,109,806.21A74.09,74.09,0,0,0,140.23,797C143.09,795.42,145.17,793.6,144.64,790Z"/><path class="cls-2" d="M108.93,774.73c2.84,3.12,6.06,4.56,9.23-.27,0.59-.89,4.19.77,4-2.45-0.11-2.36-2.26-3.31-4.14-3.66-5.59-1-11.24-.78-18-0.16C103,771.26,106.6,772.18,108.93,774.73Z"/><path class="cls-2" d="M105.92,739.44c-6.77-7.76-7.66-8.2-15.87-4.42-6.63,3.05-12.91,6.88-19.48,10.07-6.84,3.32-13.08,8.31-21.9,7.66,9.69,9,10,9,20.25,3.47,5.59-3,10.69-7,18.26-9.48a70.44,70.44,0,0,1-20.49,17.8c-3.06,1.8-6.72,3.23-8.14,7-0.59,1.57-.89,3.24.61,4.57a3.08,3.08,0,0,0,3.67.25l8.12-3.83c4-1.9,5.91-1,6.74,3.15,0.48,2.42-.36,4.58-1.51,6.65l0.22-.1-0.06.17c1.84,0.69,2.15,2.28,1.64,3.82-1.67,5-2.32,10.62-8.8,15.88l7.16-19.69-0.16-.07h0c-4.62,2.06-7.21,7.23-12.32,8.93-2.25-3.7,1-7.86-2.83-10.84-3.2,5.13-6.05,9.88-3.62,16.47,1.91,5.18,5.69,6.65,12,6.24-4.58,4.13-6.91,7.91-11.21,9.25-1.76.55-4.17,0-2.78,3.29,1,2.43,2.53,2.81,4.67,1.84a32.28,32.28,0,0,0,5.32-2.63C78,806.15,84.35,786.49,79.16,771.7c-0.79-2.24-.78-3.68.73-5.28,3.51-3.7,6.54-8,11.89-9.37C93.74,749,101.93,745.86,105.92,739.44Z"/><path class="cls-2" d="M87.19,1261.59c5.16-1.13,6-6.4,8.88-9.81,1.41-1.68,2.93-4.29,5.65-2.63s1.13,4.17.06,6a77.26,77.26,0,0,1-13.5,17.21c-4.75,2.89-8.39,6.79-11.91,10.82l1.48,1.52,12.42-10.33c6.65-2.7,11.39-7.91,16.3-12.79,3.24-3.21,3.13-10,.56-13.91-3.12-4.73-6.65-3.12-10.1-.64-2.67,1.92-4,1.09-5.2-1.67-0.53-1.24-1-3.24-3.81-2.5C89,1249.14,81.5,1254.78,87.19,1261.59Z"/><path class="cls-2" d="M84.59,1264.11c-8.62,1.84-13.46,9-21.8,9.59,0.61-8.18,4.26-15.21,3.19-23.31-3.28,7-6.43,14-9.89,20.92-2.05,4.09-1.53,8.07,1.51,10.73,2.73,2.39,6.34.58,9.14-1.31A69.46,69.46,0,0,0,84.59,1264.11Z"/><path class="cls-2" d="M75.28,1296.18c5.48-.67,11-0.93,16-4.18,4.09-2.68,8.32-5.32,13.72-5.26,2.84,0,5.57-1.62,8.76-4.06-5.21-4.61-9.56-4.08-14.23-1.36-6.29,3.67-12.3,7.94-19.39,10-2.55.73-5.49,2.88-8-.49-0.27-.37-0.15-2.63-1.59-0.79a3.22,3.22,0,0,0-.58,1.85C70,1295.43,72.43,1296.53,75.28,1296.18Z"/><path class="cls-2" d="M119.27,1338.8a36.43,36.43,0,0,0-9.86.64c-5.32,1-10.51,3.43-17.19,2.36l9.75-9.29c2-1.91,4.08-4.31,2.09-6.86s-1.85-4.41.17-6.76c1.36-1.59,1.92-3.78-.17-5.25-3.08-2.18-2.48-3.94-.08-6.21s3.38-5.31.77-7.88a6.84,6.84,0,0,0-8.13-1.52c-4,1.76-7.86,3.6-11.13,6.45-3.58,3.11-2.38-2.24-4.29-2.21-3.82,4.5-6.41,9.87-9.15,15.11-1.8,3.44.27,6,3.27,7,2.78,0.88,5.2-.37,5.31-4,0-1.41-.34-3.28,1.76-3.62a12.19,12.19,0,0,0-.08,7.61c6.33,0.16,7.91-7.31,14.67-8.86-2.68,6.78-7.34,10.19-12.63,13-1.3,1.47-4,2.94-3.35,4.61,2.13,5.13-.46,8.22-3.55,11.56-1.92,2.08-2.73,5.11-.75,7.2,2.31,2.45,4.65.12,6.92-1.26a44.2,44.2,0,0,1,30.6-5.82c1.31,0.2,2.67.1,4,.38,2.56,0.56,5.28.12,5.76-2.37C124.46,1340,121.59,1339,119.27,1338.8Zm-36.53-22.48c0,0.12,0,.23,0,0.35l-0.26-.2,0.3-.16c0.6-8.1,8.22-9.66,13.28-15C95,1308.7,92.67,1311.21,82.74,1316.32Z"/><path class="cls-2" d="M133.77,1213.12a30.47,30.47,0,0,0-11.4-7.73c-7.76-2.92-15.6-5.62-23.41-8.41,6.29,5.61,12,11.55,19.25,15.7,6.35,3.65,6.22,3.86,2.15,10.4-0.51.82-.94,1.7-2,3.73,5.25-1.55,9-2.63,12.73-3.78C137.2,1221.13,138.21,1217.83,133.77,1213.12Z"/><path class="cls-2" d="M106.37,1177.33c-3.52-1.26-7.54-.85-10.61-4.71a36.66,36.66,0,0,0,3.91-3c1.24-1.21,1.91-2.85.79-4.47-1.33-1.92-3.37-2-5.31-1.23-1.23.48-2.1,3.44-3.61,0.9-1.06-1.78-.28-3.73,1.93-4.87a25.28,25.28,0,0,0,8.61-6.69,14.56,14.56,0,0,0,2.29-14.16c-1.39-4-5.05-4.55-9.15-4.11,4.52,7.9,4.52,7.9-2.93,9.61a4.21,4.21,0,0,0-.67.77c-4.13,4.54-9.51,6.88-16.13,9.1,4-6.17,7.27-11.14,10.41-16.2,3.94-6.33,3.79-6.57-4.3-9.22-2.47,9.33-5.88,18.18-13.17,24.92-3,2.81-2,5.56,0,7.82,2.15,2.47,4.27.2,5.91-1.27,4.72-4.22,10.25-7,15.94-9.59,1.57-.71,3.16-1.22,3.63,1.29-3.73,3.59-9.79,3.26-13.25,7.61,5.73,2.34,5.55,2.36,5.88,5.35,0.4,3.54-1.25,5.55-4.19,7.07a56.51,56.51,0,0,1-20.89,6.45c8.58,7.59,15.26,1.66,22.39-2,0,4.39-5.5,3.91-5.38,7.19,2.42,1.92,3.81-2.28,5.21-.55,1.81,2.25.05,4.29-1.89,5.84a2.38,2.38,0,0,1-.86.49c-6.09,1.46-11,7-18.25,4.82-2.68-.79-5.35,1.1-4.69,4.66,0.58,3.08,2.81,2.87,5.42,2.43,6.16-1,11.26-5,17.57-6.73-0.57,6.54-3.6,11.26-6.62,15.95-1.65,2.55-3.84,4.7-7.25,4.38-1.21-.11-2.58-1.28-3,0.82-0.35,1.75.18,3.49,1.88,4.19,3.43,1.43,6.36.45,9.07-2.1,5.05-4.76,7.75-10.92,9.35-17.3,1.86-7.42,5.49-12.32,12.86-14.91C101.1,1184.61,105.28,1182.67,106.37,1177.33Zm-15,6.59a1.77,1.77,0,0,1-1.73-.11c-1.93-2.6-.09-4.34,1.5-6.65C93,1179.75,93.7,1181.85,91.33,1183.93Z"/></g></svg>