<svg id="图层_1" data-name="图层 1" xmlns="http://www.w3.org/2000/svg" viewBox="0 0 200 1340.3"><defs><style>.cls-1{opacity:0.05;}.cls-2{fill:#fff;}</style></defs><title>主站</title><g class="cls-1"><path class="cls-2" d="M153.9,93.95c3.39-5.9,9.39-9.89,12.32-16,2.77-5.75,7.23-10.8,7.34-17.75C178,70.47,170.32,83.89,153.9,93.95Z"/><path class="cls-2" d="M152.23,101.25c6.57-1.48,9.22-5.32,13.34-6.59,2.27-.7,4.88-0.76,5.81,2.12,1.1,3.41-1.6,3.84-3.92,4.06C163.21,101.25,159.09,103.19,152.23,101.25Z"/><path class="cls-2" d="M151,78.54c-3.88,5.15-6.41,8.87-8.17,13.26-2.55,6.35-5.66,8.27-9.07,6.83-4.9-2.08-6.63-6.05-4.8-12,2.12-6.9,4.52-13.71,6.94-21,10.17,5.79,2.34,12.92,2.15,20.62,7.32-8,16.85-12.71,17.17-24.7,0.09-3.54,3.62-4.18,7-3.16,4,1.2,4.45,3.88,2.68,6.92A119.27,119.27,0,0,0,155,87a2,2,0,0,1-2,1.68,1.82,1.82,0,0,1-1.92-1.79C151,84.58,151,82.28,151,78.54Z"/><path class="cls-2" d="M31.85,158.88c4.91,4.18,4.91,4.18,4.42,16.43,6.46-.72,8.65-4.61,7.92-10.67,6.52-2.43,3.09-8.5,4.14-12.7,1.24-5-1.53-10.06-5-15.55,8.69,3.21,10.1,8.68,10.15,15.93,0,4-5.12,8.86,1.11,12.45,0.62,0.36-5.69,11.15-6.44,10.82-4.68-2.07-6.43,2.07-9.18,4.05-4.31,3.11-8.59,6.28-12.93,9.35-1.57,1.11-3.27,2.66-5,.2a4.53,4.53,0,0,1-.23-5.55,2.25,2.25,0,0,1,.58-0.79C31,177.67,31.37,168.31,31.85,158.88Z"/><path class="cls-2" d="M81,795.73c4.27-12.14,3.14-15.25-7.53-19.51,2.94,5.1.33,9.39-.8,13.76-1.69,6.53-4.6,11.85-13,10.46-3.1-.51-5.74,1.23-8.31,2.86-1.79,1.13-3.41,3.35-6.12,1.59,0.41-1,.79-1.87,1.2-2.77,1.52-3.37,6.72-6,3.3-10.39-3.21-4.07-7.83-1.46-11-1.14-1,12.46-10.37,19.56-16.55,29.1,5.28-.23,8.83-3.43,12.84-5.47,2.84-1.44,5.29-5.47,8.57-3.8,4,2,1.58,6.61,1.86,10,0.32,4-.32,8,2.24,11.5,1,1.4,2.42,2.42,4.23,2a3.73,3.73,0,0,0,3-3.52,130.62,130.62,0,0,0,.87-13.92c-0.09-4.72,1-7.84,6.44-7.8,1.91,0,3.91.1,5.25-2,4.17-6.36,10.33-7.61,17.44-6.82,3.59,0.4,7.29-.21,10.91.08,4.86,0.4,6.4-2.28,6.82-6.11C94.89,787.92,88.53,798.32,81,795.73Z"/><path class="cls-2" d="M83.63,808.82c4,5.77,4.16,11.79,2.06,17.92-1.5,4.38-.53,7.68,3.24,10.29,3.52,2.44,6.42,1.22,6.66-3.19,0.2-3.59-.33-7.22-0.42-10.83C94.92,812.87,94.42,812.16,83.63,808.82Z"/><path class="cls-2" d="M58.24,144.59c9.09,2.7,10.54,7.75,8.91,14.31-1.2,4.82-1.85,9.61-.2,14.52a3.24,3.24,0,0,1-2,4.05c-2,.81-2.82-1.06-3.68-2.3-4-5.7-2.57-12-1.5-18.07C60.48,153.22,61.5,149.58,58.24,144.59Z"/><path class="cls-2" d="M133.72,171.83c-5-1.88-6.68-5-6.29-9.5,0.37-4.25.24-4.37,5.78-4.17,3.28,0.12,4.94-3.05,9.26-3.8C137.86,160,139.53,167.31,133.72,171.83Z"/><path class="cls-2" d="M115.46,137a6.78,6.78,0,0,0-7.87-4.55,28.72,28.72,0,0,1-4,0c-0.43.5-1.3,1.08-1.22,1.49,1.7,8.92-4.49,10.58-12.52,12.59l11.35-18.45c-1.24-6.53-3.13-8.87-7.33-8.08-4.66.89,0.1,4.18-1.21,6.29-1.2,1.91-1.29,4.49-2.35,6.52-2.61,5-5.63,9.93-10.28,13.23-4.27,3-4,6.83-2.41,10.53s5,3.67,8.44,2c0.75-.37,1.88,0,2.85.08-0.3,4.88-7,5.61-7.15,11.31,2.38-1.51,3.93-2.92,5.75-3.58,11.16-4.05,18.46-12.53,25.53-21.47C115.06,142.37,116.64,140,115.46,137Z"/><path class="cls-2" d="M109.85,1222.24c-11.22.93-13.77-.51-18.26-10.75A74.72,74.72,0,0,1,89,1204c-1.39-4.39-3.17-8.55,1.12-12.81,2.13-2.11-.57-3.32-2.61-3.55-3.13-.35-4.73,2-6.39,4.08a38.56,38.56,0,0,1-12.24,10.18c2.8-5.52,5-10.23,7.54-14.79,2.63-4.8,6.72-8.09,11.53-10.64a2.15,2.15,0,0,0,.48-3.43c-1.15-1-3-2.29-4.24-2-1.78.4-3.22,2.17-4.89,3.21-5.57,3.46-10.51,8.48-17.43,8.75-2,.08-2.92-0.28-3.07,1.85s0.4,3.8,3.08,4.09c3.43,0.37,5.9-3.11,9.9-2.12-3.5,7.05-7.55,13.5-13.05,18.75-3.06,2.92-3.16,5.43-1.41,8.69,2.71,2.16,7.09,3.52,3.81,8.47a4.44,4.44,0,0,0-.22,2.9c0.22,1.27.63,2.6,2.21,2.93,2.21,0.46,3-1.07,3.26-2.7,0.52-3.85-.76-7.83.79-11.62,1.69-2.13,2.29-5.37,6-6.33-0.15,3.3-.46,5.94-0.34,8.55s1.33,4.81,4.29,4.16c2.77-.61,1.87-3,1.31-4.85a54.56,54.56,0,0,0-2.23-6.6c-1.43-3.2-1.17-5.65,2.08-7.61,2.19-1.32,4.14-3.05,6.74-5,0.38,4.31.61,7.91,1,11.49,0.59,4.93,1.46,9.78,4.1,14.16,7.51,12.45,17.39,12.57,26.17.16C114.22,1220.82,112,1222.06,109.85,1222.24Z"/><path class="cls-2" d="M32.24,1219c-1.25-3.26.1-6.44,1.49-8.67,3.23-5.22,1.42-8.67-2.51-12,0.19-2.11.8-3.83,3.29-4.21s5.24-.14,6.49-3.06c-4.79-4.5-4.79-4.5-14.67-4.25,3.65,4.55,3.65,4.55,2.9,11.46,1.14,6.83-1.27,13.18-2.93,19.55a21.71,21.71,0,0,0,.6,12.72c1.41,4.23,4.63,4.92,7.28,1.21,5.42-7.61,10.08-15.7,13-26.11C41.16,1210.38,38.93,1217.15,32.24,1219Z"/><path class="cls-2" d="M101,931.73c-8.25-2.77-15.33-7.92-22.76-12.21-4.8-2.78-12.9-3.49-13.46-9.54-0.52-5.56,4.76-10.61,8.28-15.47,3.29-4.54,6.39-9.22,9.29-14,1.34-2.23,2.47-4.82-1-6.73-2.39-1.31-4.57-3.07-7.15-.67-5.67,5.28-12.91,7.86-19.48,11.59-4.22,2.4-9.13,4.12-11.54,9.1,9.14,0.21,16.87-4,26.21-8.39-3.78,7.26-6.71,12.76-9.51,18.31-1.92,3.79-4.27,4.92-8.78,3.68-6.43-1.77-13.1-3.32-21.62-2.64,6.41,4,11.29,7.28,16.39,10.18,4.13,2.35,3.61,5,.93,7.84-5,5.32-10.1,10.53-15.17,15.78h0a8.12,8.12,0,0,0-1.69.81c-1.36,1.09-3.73,2.15-2.2,4.2,1.17,1.55,2.8-.26,4-1a8.07,8.07,0,0,0,1.65-2.18h0c7.63-3.14,12.69-9.52,18.14-15.18,3.15-3.27,5.37-2.87,8.56-1A135.65,135.65,0,0,1,83.45,941c8.82,8.12,17.91,9,28.23,3.3,2.53-1.4,5.71-1.66,8.62-2.3,1.81-.4,4.14.21,4.28-2.76C116.72,936.76,108.83,934.35,101,931.73Z"/><path class="cls-2" d="M109.76,677.36c-2-1.45-4.54-.57-6.8-0.91-3-.45-5.65,2.28-9,0.7-0.5-1.5.28-2.94,0.7-4.47,1.08-4,5.69-2.88,7.75-5.54,1.14-1.47,3.68-2.18,2.67-4.64-0.93-2.24-3.3-2.33-5.18-1.92a97.82,97.82,0,0,0-13.37,3.7c-3.68,1.38-6.7,2.56-9.5-1.6-0.9-1.35-3.06-2.33-5.76-1.77,1.34,4.05-1.73,6.59-3.44,9.75-1.46,2.71-2,6.13.33,8.39s4.9,0.3,7.1-1.3c1.34-1,2.76-1.81,4.09-2.8a2,2,0,0,1,2.64,0,3,3,0,0,1,1,3.55,6.07,6.07,0,0,1-3.93,4c-8.05,2.77-16,5.9-23.88,8.87-1.93-2.84.34-4.9,0.06-7.16-0.22-1.8-.85-4.09-2.34-3.85-5.69.91-5.68-4.37-8.2-6.86-2.07-2-4-4.37-8.17-4,1.28,4.73-1,8.37-3.35,11.93-3.71,5.51-7.53,10.94-11.22,16.46A32.47,32.47,0,0,0,18,704.8c-0.89,2.5-1.14,5.72,1.75,7.07,2.57,1.2,4.12-1.53,5.51-3.19,2.63-3.13,3-8,8.73-10.06-1.24,10.26-2,20.09-3.79,29.72-0.88,4.62.16,8.49,1.37,12.59,0.51,1.71,1.48,3,3.48,2.86s2.26-2,2.9-3.47c1.33-3.18,1.3-6.46,1.21-9.78-3.77-9.59-.75-18.79,2.22-27.72,1.78-5.36,1.54-9-4.47-10.93,1.68-2.67,3.11-4.79,4.38-7,0.92-1.61,2.13-2.53,4-2,2.05,0.53,2.24,2.57,2.11,4-0.93,10.13-1,20.48-4.7,30.1-1.48,3.85-2.33,7.44-1.72,11.44,2.42,3.06,2.88,7.63,7.24,9.22,6.16-3.34,5.22-8.35,3-13.55-1.31-3.11-1.09-5.17,2.89-5.28,5.25-.14,9.3-2.67,13-6.14,2.31-2.14,5-3.86,8.12-6.23-0.83,7.48-1.35,14.07-4.28,20.19s-1.85,11.27,3.25,15.67c4.31-3.17,3.24-7.73,4-12.91,3,5.08,5.39,9.1,9.05,12,3,2.39,6.09,6.64,10.2,4.43,3.3-1.78,2.51-6.74,2.25-10.06C98.81,724,99.7,712.52,101,701c0.77-7.05-3.35-11.6-10-12.25-1.12-.11-2.65,2.81-3.59-1.07,6.42-2.56,12.7-5,19.79-2.14,2.43,1,4.84.64,6-1.84C114.63,680.41,111.86,678.86,109.76,677.36ZM51.3,717c0-3.91-.11-6.72,0-9.52,0.55-11.49,1-11.85,12.13-13.08,3.55-.39,7-1.43,12.5-2.59C69.42,702.94,62.65,711.08,51.3,717ZM92.39,731.6c-1.21,1.69-3,1.22-4.42.35A20.71,20.71,0,0,1,79.2,721c3.66-1.85,6.31-.7,8.83-0.28C92.34,721.45,94.9,728.1,92.39,731.6ZM93,711.14c0.06-.12-0.17,1-1.54.59-1-.31-1.85-0.85-1.54-2.08a1.81,1.81,0,0,1,2.16-1.47C93.07,708.34,94,708.82,93,711.14ZM89.28,697c1.24-.77,2.71-0.71,3.35.6A6.43,6.43,0,0,1,93,701.3c-0.33,1.8-1.83,1.22-3.07,1.07a19.93,19.93,0,0,0-8.42.52C83.21,699,86.65,698.6,89.28,697Z"/><path class="cls-2" d="M64.54,979.89c-1.52-8.9-3.29-11.56-8.65-12-5.09-.46-10.25.25-15.39-1.18,0.64,3.22,3.12,4,4.81,5.53,6.61,6,5.46,12.79-3,15.71-6.22,2.14-12.67,3.6-19.32,5.44,6.51,3.31,13.23,3.1,20.61,3.65-4.92,14.66-12,27.93-20.24,41.49C36.69,1038.4,40,1027.23,47.2,1019c0.58,10,.3,18.51-1.73,26.89-1.31,5.39,0,9.87,4.22,13.45,1.48,1.25,3,2.93,5.17,1.85a4.57,4.57,0,0,0,2.54-5L56,1046c6.18,2.73,9,7,12.62,10.3,2.47,2.22,4.82,4.58,7.33,6.75a6.51,6.51,0,0,0,7.46.93c2.55-1.22,2.58-3.76,2.33-6.07a59.14,59.14,0,0,0-1.59-8.79,99.73,99.73,0,0,1-2.45-36.62c0.31-2.92,1-5.81.5-8.9-1.45-8.36-8.67-12.83-16.72-10-1.78.62-3.52,1.36-5.37,2.07-1.74-4.72,1.42-6,4.75-6.88a83.73,83.73,0,0,1,21.73-2.57c6.68,0.06,10.59-2.56,12.39-9C86.9,971.15,75.84,978.4,64.54,979.89Zm-8.72,42.9a3.3,3.3,0,0,1-.28-3.75c0.94-1.88,2.56-3.66,4.61-1.93,1.88,1.59-.19,2.81-1.42,3.76C57.82,1021.57,57.5,1023.24,55.82,1022.79Zm17.54,25.1c-4.49.21-8.23-1.22-14-2.63l13.55-11C74.06,1039.14,73.72,1043.13,73.36,1047.88ZM73,1020.54c0.24,1.73-1.17,2.13-2.36,2.2-0.82,0-2.41-.65-2.4-1,0.08-1.84,1.58-2.46,3.14-2.85S72.92,1019.71,73,1020.54Zm-2.71-20c1.74,2.62,2.65,5.47-.42,5.9-4.85.67-8.88,4.06-15.36,4.31C59.23,1004.42,65.88,1004.32,70.32,1000.54Z"/><path class="cls-2" d="M180.08,210.18c-0.72-9.19-4.51-13.34-13.65-15.05,1,2.4,2.86,4.68,2.83,6.94-0.05,4,3.25,8,.73,11.56-1.77,2.49-6.27-.64-8.64,2.33l-0.75-.6c1.12-17.43.34-19.08-11.45-24-1.31,2-.35,4.11.68,5.6,4.18,6,2.63,12.84,3.11,19.37,0.12,1.62.37,3.54-1.88,3.88-4.48.69-7.94,5.12-13.07,3.68,3.09-8.49,3.09-8.49-3.91-12.39-0.24,2.18-.36,4.48-0.8,6.72a11.38,11.38,0,0,1-1.55,3.64c-2.9,4.74-5.55,5.64-10.52,3.12-4.13-2.09-8.08-4.57-12-7-3.23-2-3.33-4-1-7.25,3.73-5.07,6.73-10.67,10.08-16,4.59-7.37-.53-12.09-5.8-14-2-.71-4.44-0.11-7.71-0.11,2.16-3.72,3.77-6.91,5.8-9.81,1.27-1.82,4.23-3.11,2.75-5.7-1.36-2.39-4.38-3-7-3.25-3.54-.3-6.15,1.58-8.62,4.15A103.64,103.64,0,0,1,76,183.41c-5.07,3-5.58,2.51-5.51-4.33-6.62,6.44-6.49,6.81.51,10.64,4.59,2.51,8.66,2.76,12.93-.46,2.72-2.05,5.67-3.8,9.69-6.46a61.56,61.56,0,0,1-10.22,15.78c-2.35,2.76-5,2.65-8,1.88-6.5-.83-12.91-1.15-20.32,3.86,7.07,0.12,12.62-2.51,17.8.3l0.38-.34-0.33.38-0.36.43,0.22,0.52a28.51,28.51,0,0,0-14.32,10.12c-2.12,2.83-.86,5.37,2.65,5.2,4.52-.22,9.36-0.15,12.5-4.49,3.27-.41,5-3.09,7.27-5,1.25-1,2.36-2.57,4.24-1.8,3.4,1.38,7.18,3.08,8.67,6.24,1.27,2.69-1.52,5.48-3.59,7.6-7.39,7.57-14.54,15.44-26,20.2,12.6-.16,12.6-0.16,37-21.67,4.68,3.48,9.54,6.9,14.18,10.6,5,4,10.73,6.76,15.6,10.63,3.06,2.44,6.11,2.59,9,2.48,6.05-.23,12.06-1.47,19.57-2.5-6.67-5.44-14.2-5.63-19.78-10,5.28-3.35,11.24-4.33,16.72-6.52,4.31-1.72,8.13-3.37,13.64-.9,7,3.13,9.94-.07,9.81-7.74C180,215.49,180.29,212.82,180.08,210.18Zm-108.79,4c-2.79.58-4.48,4-8.62,2.88,2.15-5.33,7.9-6.49,11-10.24l2,1.56Zm27.27-3.65c-3.6-2-7.46-3.08-9.93-6.26,4-8.76,10.37-14.25,20.27-16.37C107.8,196.56,103,203.32,98.56,210.54Z"/><path class="cls-2" d="M114.09,606.48c-11.52-4.85-20.69-13.2-30.71-20.29-2.26-1.6-2.48-3.84-2.12-6.21,0.39-2.61,2.88-2.31,4.63-2.93a9.62,9.62,0,0,1,3-.3c2.47,0,4.95-.31,4.79-3.55-0.14-2.91-1.74-4.83-4.82-5.5-2.45-.53-5.69,2.14-7.26-1.08-1.35-2.76.18-5.87,0.67-8.79,0.21-1.29.89-2.5,1.23-3.79,0.8-3-.62-4.21-3.57-4.34-4.5-.2-6.66,2-7.23,6.3-0.53,4.05.62,7.92,1.42,11.75,0.54,2.62.91,4.86-1.8,5.83-7.85,2.82-14.27,8.34-22,11.49-0.94-3.58-.71-6.77,1.69-9.56l-1.09-15.1c-0.79-.57-1.52-1.49-2.38-1.64-2.25-.4-4.79-1-6.7.59-2.54,2.07-1.12,5.09-.68,7.48,1.56,8.3,1.61,9-5.76,11.51-6.44,2.23-12.71,5.06-19.62,6,6.55,8.65,6.55,8.65,25.44-.23-1.51,4.71-4.25,7.24-6.23,10.26-2.9,4.45-6.26,8.66-8.61,13.39-2.84,5.72,1.82,15,7.58,14,4.43-.8,3.89,1.14,4.89,3.14,0.8,1.6-.71,4.23,2.56,5,7-1.62,5.94-11.15,13.09-13.62,6-2.07,11.19-6.58,17.2-10.29,1,4.88,2.08,9.62,3.06,14.37,0.33,1.57.14,3.49,2.52,3.52,1.88,0,3-1.19,3.9-2.65,3.21-5.22,2.41-10.91,1.61-16.47-0.53-3.71-1.84-7.31-.91-12.28a204.43,204.43,0,0,0,24,21c7.81,5.77,16.11,6.41,26.37,1.3C125.37,611.62,119.8,608.89,114.09,606.48ZM73.34,587.93a18.62,18.62,0,0,1-1.74,3.54,97.78,97.78,0,0,1-23,24.89c-2.18-6.12,1.23-11-.44-15.87a3.6,3.6,0,0,1,1.15-3.6c5.37-5.83,10.83-11.58,18.53-14.43,1.56-.58,3.17-1.2,4.64,0C74.29,584,74,586,73.34,587.93Z"/><path class="cls-2" d="M113.23,0.48a17.3,17.3,0,0,0-5.89-.41c-5.21.35-9.74,6-15.52,2C87.55,9.52,83.18,4.35,77.19.88c3.45,7.3,0,8.57-5,9.51-12,2.24-23.9,4.76-38.5,4C41.73,20,47.4,24.22,56.06,21.3c5.29-1.78,11.21-1.68,17.29-2.48C68.63,31.69,60.05,41,51.14,51.56c9.45-.25,13.71-7.54,19.79-10.67,4.52,6.64-.47,11.75-1.52,17.34-3.6,4-4,7.95.18,11.83,2.58,3-.4,5.63-0.53,8.44C68.74,85,68,91.68,73.86,96c6.71-3.61,2.14-9.84,3.91-15,6.85,4.26,11.1,10.12,15.65,15.74,1.61,2,3.9,4.32,6.79,2.6,2.44-1.45,3.12-4.18,2.42-7-0.23-1-.5-1.93-0.78-2.89-2.33-8-2.32-16.19-2.15-24.54,0.21-10.33,1.07-20.54,2-30.81,0.83-9.46-3.53-12-12.1-7.65-3.12,1.6-6.17,3.36-10,5.48,0-5,3.22-7.27,5-10.28,3.1-5.36,7.25-8,13.75-7.72,4.89,0.19,9.9-.86,14.75-1.86,3.11-.65,7.56-1.14,7.82-5C121.1,2.73,116.72,1.5,113.23.48ZM92.81,80.36c-2.26-.66-4.18-1.12-6-1.79-9.71-3.52-9.94-3.76-8.61-14,0.41-3.18-1.61-6.35.63-10.21,2.2,5.24,3.56,11.52,8.57,13.14C94.3,69.71,94.65,73.6,92.81,80.36Zm0.44-19.95c0-.06,0-0.12,0-0.18a1,1,0,0,1-1.22.22c-0.94-.37-1-1.5-0.7-2.41a3,3,0,0,1,1-1.32c0.84,0.43,1.26,1.2.87,3.51A0.36,0.36,0,0,1,93.25,60.41Zm-5-23.32c5-1.62,5.25-.86,4.81,6.48-3.45-1.39-6-4.14-10.73-2.21-6,2.41-3.66-4.75-8-7.78C80.66,34.41,83.27,38.7,88.26,37.09Z"/><path class="cls-2" d="M30.08,1326.59c0.64-6.48,1.25-12.69,1.86-18.9,1-9.83,1-9.83-10.56-13,1.69,3.75,4.25,5.62,4.13,9-0.28,7.91.74,15.9-1.92,23.63A30.88,30.88,0,0,0,22,1334c-0.22,2.11,1.09,3.65,2.82,4.89,2,1.45,4.53,1,5.42-.43,3.63-5.69,9.06-10.75,8.51-18.56C34.68,1321.08,34.73,1326.56,30.08,1326.59Z"/><path class="cls-2" d="M37.23,1278.49c-3.79-2.72-8.31-3.61-12.52-5.25l-1.16,1.7c3.54,2.84,7,5.74,10.64,8.48a2.83,2.83,0,0,0,4.31-.77C39.68,1280.91,38.63,1279.5,37.23,1278.49Z"/><path class="cls-2" d="M104.71,1317.73c-1.91-1.44-5.51-2.43-4-5.9,4.07-9.06,2.62-21.93,16.41-24.43,2.16-.39,2.64-1.74,2.52-3.53s-1.23-2.87-3-3.48c-2.53-.87-4.44.32-6.56,1.33-4,1.91-7.66,4.71-12.08,5.38-1.1-2.35.44-3.56,1.07-5a46.34,46.34,0,0,1,2.86-5.24c0.93-1.52,1.29-2.91.22-4.58-2.57-4-6.65-5.06-12.52-2.95,3.4,0.67,6.76,1.26,4.49,6.05-2.52,5.33-3.67,11.48-9.5,14.73-3.26,1.82-3.63,4.54-1.55,7.56,2,2.86,3.93.91,6,0,3.68-1.62,7.24-3.78,11.89-4-1.92,6.13-3.16,11.6-6.48,15.8-2.91-1.3-5.64-2.45-8.32-3.73-4.21-2-10.94-1.72-12.24-6s1.31-9.62,2.29-14.49a27.1,27.1,0,0,1,1.15-2.75c2.46-7.61,1.23-10.51-6.43-13.76-1.79-.76-3.69-0.38-4.11-3.17-0.33-2.24-1.43-4.2-4.7-3.86-3.61.38-6.42,3.35-5.94,5.35,1.05,4.43-3.17,6.13-3.49,9.49-1.71.29-3.66-1.18-5.27,0.71,4.24,7,6.88,14.29,3.92,22.67a14.93,14.93,0,0,0-.29,6.9c0.44,2.93-.49,4.43-3.33,4.92-1.92.33-3.83,0.75-6.19,1.22,6.17,4.83,11.78,5.78,18.45,1-1.34,9-5.46,14.62-10.82,19.45,6.66,4.63,11.4,2.72,14.91-4.29,2.48,9.1,2.62,9.17,9,5.81,1.45-.77,2.84-2.08,4.35-2.23a23.77,23.77,0,0,0,18.92-11.9c2.1-.15,2.92,1,3.94,1.83,6.31,4.84,12.4,10,19,14.48,8.28,5.65,20.56,3.45,26.17-4.44C130.31,1331.57,116.69,1326.76,104.71,1317.73ZM60.85,1302c-1,1.51-.76,3.87-2.92,4.65-1.2-6.37-1.2-6.37,5.75-8.18C64.1,1300.77,61.65,1300.8,60.85,1302Zm7.06-24c-0.22,1.74,0,3.7-3.08,4-5.17.52-8.73-1.54-11.69-5.29l-0.48,0,0.3-.25,0.18,0.22c3.81-.25,7.62-0.57,11.43-0.7C66,1276,68.26,1275.25,67.91,1278Zm22.32,40.27a49.77,49.77,0,0,1-15.87,12.83c-1.63-3.89-2.81-7-4.2-9.95-2.6-5.56-.65-10.35,2.46-14.9,1.6-2.34,2.26-.92,3,0.84a1.7,1.7,0,0,0,2.47.83c6.89-4.89,8.76,2.91,12.7,5.16C92.91,1314.33,91.55,1316.74,90.23,1318.26Z"/><path class="cls-2" d="M32.85,1149.83c-0.37-7.34-.83-13.89-1-20.45-0.07-3.17-.55-5.68-3.52-7.59-2.73-1.76-5-4.22-8.65-7.36a82.82,82.82,0,0,1,3.11,26.43c-0.13,5,.71,9.85.4,14.85s3.45,8.1,7.32,9.79c4.17,1.82,6.55-2.08,8.49-5.07,4.83-7.41,9.22-15.06,10.64-25.64C43.76,1140.56,40.87,1147.73,32.85,1149.83Z"/><path class="cls-2" d="M36.1,1100.83a5.85,5.85,0,0,0,7.38-.15c1.44-1,2.57-1.88,1.87-3.93-2.43-7-8-9.92-15.42-7.83-1.59.45-3.19,0.86-5.28,1.43,2.75,3.37,2.42,6.49-.64,9.7C28.67,1098.41,32.42,1098.29,36.1,1100.83Z"/><path class="cls-2" d="M105.11,1096.41c-1.23-.41-2.66-0.16-3.92-0.52-3.14-.89-9.34,3.09-8.11-5.11,0.17-1.1-2.12-.95-3.39-1.13-2.06-.3-4.4,1.12-6.26-0.44,0.15-3.79,3.35-3.2,5.07-4.38,2.43-1.66,6.18-2.72,4.84-6.41-1.41-3.89-5-1.68-7.78-1.36-0.75.09-1.26,0.39-1.66-.22-2.21-10.93-3.82-11.93-15.42-8.09,7.15,1.27,7.4,6.16,6,10.08-2.21,6.42-9.56,5.7-14.53,8.38,4.18,3.41,9.79,3,15.46,5.13-7.1,6.36-15.05,8.61-23.24,10.57,7.34,3.37,14.34,3.4,21.37-.61l0.66,2.26-24.89,13.76c-0.89-.24-2.32-0.22-2.59-0.77-3.14-6.27-4-1.89-5.12,1-2.11,3.43-2.85,7.41,1.26,9.14,3.24,1.37,7.08,2.72,11.08-.84,3.48-3.09,5.63-8.37,11.32-8.67h0c1.5-3.13,3.7-5.36,7.46-5.77,2.72,5.59-3.09,5.26-5.11,7.49,1.73,1.14,3.36,2.63,2.88,4.79-2.31,10.25-.83,21.27-6.33,30.88-2.15,3.77.84,6.45,3,8.38,2.36,2.15,3.64-1.48,5.51-2.42,4.92-2.47,1-7.36,3.79-11.3,3.34,4.36,6.57,8.4,9.6,12.58,2,2.7,4.67,4.51,7.6,3.31s3.1-4.42,2.51-7.65A185.65,185.65,0,0,1,93.13,1122c0.11-5.6.77-11-7.61-10.59-2.56.12-1.79-2.4-.75-3.56,0.78-.87,2.5-0.81,3.55-1.53,5.27-3.61,11,.69,16.35-1.14,2-.7,5.52.45,5.83-2.49C110.83,1099.4,108.11,1097.4,105.11,1096.41Zm-29.66,48c-3.64-1.69-1.77-5.71-1.83-8.77,0-1.4,1.06-2.19,2.78-2.28,1.63,2,4.87,3.51,4.11,6.73C80,1142.26,78.63,1145.88,75.45,1144.4Zm13,8.82c-5.16-1.13-5.16-1.13-9.57-6.07C89.47,1143,89.47,1143,88.49,1153.22ZM83.81,1120c2.62-.62,3.43,1.26,3.63,3.43,0.18,2-.51,3.35-2.72,2.59-4-1.39-6.67,2.11-12,2.9C75.54,1123.31,79.3,1121.09,83.81,1120Zm2.31-19c-1.76.74-3.51,2.1-5.93,0.35,0.53-3.21,2.52-4.34,4.88-4.84,1.61-.34,3.5-0.4,4.07,1.68C89.83,1100.73,87.43,1100.44,86.11,1101Z"/><path class="cls-2" d="M174.65,147.41a17.84,17.84,0,0,0-12.66-1c4.48,6.63,4.39,7.27-2,11.88-0.2-2.83.35-5.76-.7-7.91-2.71-5.58.16-7.86,4.62-9.79a21.25,21.25,0,0,1,7.65-2.05c3.31-.13,4.48-2.33,4.91-5.1-5-4.41-10.86-2-16.06-1.49,9.22-11,23-14.82,34.27-22.59-7.15-10.29-7.27-10.56-17.54-6.16-7.64,3.28-14.95,4.78-22.85.93a15.77,15.77,0,0,0-13.08-.61c3.6,8.59,2.51,10.5-6,9.79-2-.16-4.12,1.13-6.36-1.24-2-2.15-6.8.79-6.84,1.8-0.2,5.61-3.43,10.91-1.69,16.69,0.83,2.74.11,6.9,4.05,7,4.4,0.15,2.92-4.2,3.65-6.76a4.3,4.3,0,0,0,.12-2c-1.19-5.66,2-7.85,6.85-8.65,2.22-.37,4.32-1.91,6.7-0.82,3.68,11.53,3.68,11.53-7.57,14.41,3.67,4.2,8.82,1.21,13.45,2.62-2.88,8.17-10.53,6.06-16.95,8.92,3.64,1.69,5.75,3.93,8.49,3.52,6.06-.89,6.18,2.45,6.24,7,0,3.57,1.25,7.18,2.3,10.66,0.63,2.1,1.87,5.4,4.6,3.44,2.42-1.75,6.75,1.76,7.75-3.81,1.3-7.25,2.63-7.57,9.69-5.47,4.83,1.43,8.74,0,9.8-3.57C180.68,153.14,178.84,149.35,174.65,147.41ZM163,113.86c1.19-2.21,3.67-3,5.75-3.43,3.15-.7,6.27-1.48,9.65-2.33-2.07,5.34-5.82,8.92-9.8,12.28-1.94,1.63-4.34,2.2-6.33.48C159.48,118.45,161.78,116.06,163,113.86Z"/><path class="cls-2" d="M68.09,289.42c0,0.13.11,0.24,0.16,0.36l0.14-.11,0,0c0-.09.1-0.16,0.14-0.24H68.05Z"/><path class="cls-2" d="M125.48,370.65c-2.68-4.94-7.92-3.92-12.11-4.87-0.69-4.09,2-7.07,1.43-11a146.9,146.9,0,0,1,.94-44.52c1.38-8.27,1.11-8.24-5.87-12.25-3.19-1.83-6.3-1.08-10.51-1.38,1.43-3.84,1-7.36-1.92-9.42,4.85-4.26,10.82-.95,15.54-3.9-6-9.26-8.82-10.37-17.76-7.23-5.64,2-11.28,3.92-16.89,6-4,1.46-7.74,3.34-9.84,7.34,7.4,0.07,14.43-5.18,22.26-2.39-0.53,4.86-2.55,8.35-4.07,12a6.06,6.06,0,0,1-3.15,3.55c-5.38,2.45-8.8,8.91-5.84,13.25,2.65,3.88,1.77,7.31,2,11.13,0.4,6.22-1.93,12.15-1.33,18.4,0.31,3.24-1.27,3.26-3.11.83s-3.17.13-3.5,1c-1.08,2.88-.52,5.24,3.28,5.53,3.46,0.27,7.33-2.08,10.3,1.53-2,7.58-8.23,12.66-13.16,20.61,10.56-3.74,13.4-11.52,16.89-18.74,2.5-2,2.08-6.46,7.59-7.74-2,10.13,6.5,14.23,11,20.84,3.68,5.38,9.16,6.05,14.69,7.06,1.36,0.25,2.57.21,3.5-1.07C127.08,373.52,126.3,372.16,125.48,370.65ZM90.12,344.42c-2,.22-3.06-0.7-2.79-3,0.14-1.62,1-3.15,2.89-3.06a3.2,3.2,0,0,1,3.17,3.17C93.44,343.57,91.82,344.24,90.12,344.42ZM104.9,337c-0.78,3.93-4.53,3.09-6.94,4.29-1.71-.66-3.66-1.53-2.87-3.42,1.24-3,4.22-3.92,7.24-4.09C104.36,333.68,105.29,335.06,104.9,337Zm-0.28-13.57c-0.06,2-1.33,2.69-3,3.33a56.09,56.09,0,0,0-8,3.66c-1.69,1-3.57,3-4.83.51-1.12-2.24-.71-5.74,2.08-6.59a51.34,51.34,0,0,0,9-3.86c1.67-.88,4-1.55,2.65-4.23-1-2.1-3-2.48-5.09-1.84-2.45.77-4.82,1.82-7.33,2.78-0.68-3.08-1.91-6.71,1.41-8.09,3.51-1.46,7.39-2.85,11.43-2.4,1.59,0.18,2.07,1.54,2,2.9C104.94,314.22,104.76,318.84,104.62,323.45Z"/><path class="cls-2" d="M51,333c-4.53,3.37-9,6.88-13.43,10.34-3.52,2.73-6.84,3-10.19-2.52,2.15,10.41,5.77,12.65,13,9,4-2,7.69-4.85,11.51-7.31-1,4.19-.57,9.76-5.15,10.79-4,.9-3.48,2.42-3.35,5.19a23.23,23.23,0,0,1-1,7.85c-2.12,6.73.36,11.48,5.56,15.42,2.54-2.08,3.21-4.22,2.4-7.24-1.86-6.93.59-13,4.34-18.75,3.08-4.72,6-9.52,9.1-14.24,2-3.09,1.17-5.42-1.32-7.88C58.75,330,55,330.12,51,333Z"/><path class="cls-2" d="M53.12,280.09c-4-2.7-9.13-6.57-14.4-.26,4.61,2,5.07,5.09,3.61,9.63-6.53,20.3-16.26,38.59-32,53.29-1.71,1.6-3.29,3.34-4.94,5,11.82-3.37,20.79-10.39,28.29-19.4,3.72-4.48,3.61-4.52,9.83-2.19a5.78,5.78,0,0,0,2.87,0c2.93-.53,5.84-1.16,8.75-1.77,1.71-.36,3.61-1.21,3.58-2.93a5.47,5.47,0,0,0-3-4.86c-2.28-1.11-4.37-.65-6.64.47s-4.79,3.5-8.2,1.43c2.42-5.67,4.2-11.24,10.06-13.86,0,0,0,.08,0,0.12a41.18,41.18,0,0,1,15.51-2c2.63,0.22,5.69.58,6.3-2.95,0.47-2.69,1.66-6-2.11-7.65a4.45,4.45,0,0,1-2.4-2.38c-4.26,3.75-9.86,4-14.88,6.16C52,290.16,59.66,284.51,53.12,280.09Zm-2.48,23.81L50.75,304s0,0,0,.05S50.55,304.39,50.64,303.89Z"/><path class="cls-2" d="M74.36,436.62c8.49-3.8,14.17-10.66,18.27-18.8,2.31-4.58,2.25-9.21-1.85-15.53-1.62,11.4-6.86,18.49-13.64,24.82-7.06,6.6-16.07,10.23-22.81,17.31C61,441.84,67.84,439.54,74.36,436.62Z"/><path class="cls-2" d="M49.92,437.38c4.16,1.23,5.72-2.17,7.89-4.6,2.69-3,1.51-7.77,4.94-10.54-9.5,4.53-10.54,5.37-12.2,3.31-4.77-5.92-4.86-.39-5.51,2.05C43.93,431.76,46.4,436.34,49.92,437.38Z"/><path class="cls-2" d="M129,532.3c-5.76-6.24-10.8-13.15-16.14-19.78-1.28-3-2.32-6.09-5.38-7.84,0.28,3.73,1,7.15,3.71,9.71-0.77,2.67,3.21,4.4,1.34,7.57A62.34,62.34,0,0,1,98.3,507.06c-1.56-2.23-1.81-4.13,0-7.05,4.37-7.17,6.79-15.11,5.06-23.75a2.16,2.16,0,0,1-.44-0.45c-1.31-1.44-1.43-3.37-1.86-5.17-3.53,1.28-1.74,4.34-2,6.6-0.69,6.55-1.4,13-6.43,18.63-2.84-4-4.06-8.27-5.49-12.46-0.94-2.77-2.77-5.59-2.61-8.29,0.18-3,4.14-2.62,6.31-4,2.73-1.71,2.45-4.38,2.77-6.92h0c-0.1-.65-0.5-1.42-0.27-1.92,4-8.65,4-8.64-5.67-10.64a8.83,8.83,0,0,1-1.57-.64c-0.53-1.24.37-1.75,1-2.52,4.23-5.15,3.51-8-2.46-9.61-3-.8-6-0.94-8.53,1.19-6.71,5.58-15.05,8.27-22.42,12.67a37.58,37.58,0,0,1-11.07,4.33c-1.91.43-3.26,0.39-3.29-2,0-1.21.5-2.83-1.39-2.77-0.75,0-1.71,1.12-2.15,2-3.14,6,.42,11.72,7.11,11.27a25.17,25.17,0,0,0,5.77-1.5c0.93-.3,1.72-1.08,2.65-1.32,3.18-.81,1,1.53,1.44,2.34,0.67,1.23,1.57.24,2.24-.46,3.65-3.78,6.61-2.92,9.56,1.06,1.51,2,4.19,3.17,4.89,5.93-6.49,4.76-6.49,4.81-16.65,5-2.15.05-2.84,1.43-3.18,3-1.22,5.67,2.92,9.28,8.92,8.06s10.09-6.3,15.75-8c2.42,1.84,2.61,4.67,3.76,7,1.3,2.68,2.86,5.25,4.37,7.83,5.06,8.63,4.47,10.33-5,14.19-1.15.47-2.74-.32-3.49,1.22,3.91,0.6,8,1.7,11.66-.06,4.39-2.11,6.48-.34,8.7,3.14,6.84,10.74,15.57,19.6,25.69,27.45,4.82,3.74,8.74,4.68,14.08,2.83A19,19,0,0,0,129,532.3Zm-56.1-76c8.84-5.88,8.84-5.88,12.51,3.13C80.28,460.69,75.85,461.26,72.88,456.25Z"/><path class="cls-2" d="M39.74,477.39c-2.07,5.82-.44,11,1.35,16,1.7,4.74,1.18,8.9-2,12.76h0c-3.75,2.35-6,6-8.18,9.66-1.14,1.89-2.66,4.28-.44,6.3,2,1.8,4.4.86,6.56-.12,3.81-1.72,6.7-4.4,7.8-8.54,2.66-10,6.06-20.18-2.48-29.23C40.6,482.34,42,479.25,39.74,477.39Z"/></g></svg>