<svg id="图层_1" data-name="图层 1" xmlns="http://www.w3.org/2000/svg" viewBox="0 0 200 1389.66"><defs><style>.cls-1{opacity:0.05;}.cls-2{fill:#fff;}</style></defs><title>主站</title><g class="cls-1"><path class="cls-2" d="M108.68,420.76c4.22-2.84,8.64-5.65,12.88-8.7,4.64-3.33,6.23-8.59,3.83-11.83-2.15-2.88-6.62-3.08-11.79-.42-1.6.82-2.86,2.35-5.39,2.34,1.44-4.89,3.31-9.42,4.14-14.27,0.73-4.26.73-8.42-3.36-10.36s-8.76-2.12-12.41,2.26c7.2,3.12,7.7,3.7,6.1,10.1-1.21,4.82-3.31,9.41-4.44,14.24-1.48,6.33,1.34,11.53,7.39,11.24C112.65,415,106.06,419.83,108.68,420.76Z"/><path class="cls-2" d="M118.4,455.67c-4.71-1.92-4.11-4.27-2.72-7.61,0.63-1.53,1.31-3,1.9-4.58,3.82-9.86,3.8-9.82-5.78-13.69a54.65,54.65,0,0,1-5.51-3,3,3,0,0,0-.51,1.12c0.22,0.94.26,2.23,0.89,2.71,7.1,5.46,5.59,12.6,2.36,18.71-3.11,5.89-1.12,9.27,2.85,12.87,3.18,2.89,6.47,5.62,11.59,6.38C123.88,459.2,124,457.94,118.4,455.67Z"/><path class="cls-2" d="M85.12,399.69c-2.12-.92-2.84.27-3.33,2.11s-1.85,1.44-3.26,1A66.23,66.23,0,0,1,79.37,387c1.47-9,.31-10.35-9-14.33,2,10.68.54,21.54,1,32.33,0.13,2.85-1.36,3.94-3.7,5-10.25,4.81-20,10.81-32,11.86C43.53,432,45.22,432,56,427.71c4.25-1.7,7.77-5.76,13.24-5.54-4.2,14.06-7.77,19.75-16.85,28.19-4.17,3.87-7.09,8.47-6.54,14.63,7.15,0.88,9.07-5.64,13.58-8l10.79-16.25c3.25,13.25,2.63,15-6.5,18.53,1.08,2,2.08,4.08,3.24,6,2,3.29,2.93,8.42,8,7.43,5.52-1.07,5.21-6.48,5.17-10.57-0.14-13.3-.35-26.63-1.43-39.87-0.4-4.91.43-8.32,4-11.4,2.26-1.94,4.6-4,4.75-7.31A3.77,3.77,0,0,0,85.12,399.69Z"/><path class="cls-2" d="M105.79,335.69c-4.29-.77-8.69-0.87-13.07-1.27,1.15-3.09,3.06-4.5,4.49-6.29,4.14-5.16,8.7-10.06,11.63-16.07,2.82-5.77,1.85-8-3.6-11.27a12,12,0,0,0-9.54-1.39c-5.14,1.25-10.33,2.4-15.33,4.08-3.44,1.15-6.27.77-9.78-2.33-0.52,2.53-.79,3.82-1,5.11a9.14,9.14,0,0,0,3.74,9.66c3.38,2.4,6.91,1.3,10.11-1,1.89-1.33,3.84-2.58,5.69-4,2.39-1.78,4.68-3.7,7.08-5.48,1.08-.79,2.39-1.35,3.59-0.28s0.59,2.51,0,3.61a21.78,21.78,0,0,1-3.34,4.91c-4.47,4.44-8.81,9.1-13.78,12.91-4.47,3.43-3.6,7.58-2.72,11.67s3.94,5.9,8.23,5.46c3-.31,5.85.84,8.77,1.3,7.09,1.12,3.16,4.8,1.31,8.2,5.53-.55,9.79-2.91,14.56-2.35,2.46,0.29,3.23-1.52,3.58-3.76C117.24,341.22,113.75,337.12,105.79,335.69Z"/><path class="cls-2" d="M88.91,290.29c2.39,1,4.47,1.35,6-1.22,1.25-2.16-.16-3.83-1.46-5.25C89.93,280,84.79,279.7,79.13,277,80.18,284.68,83.73,288.09,88.91,290.29Z"/><path class="cls-2" d="M76.91,1002.33c7.16-10.22,13.85-20.22,23.91-27.17,2.92-2,4.17-4.24,3.17-7.49s-3.62-4.54-6.85-4.9a18.3,18.3,0,0,0-14,4.15c-5.48,4.32-11.16,8.4-16.75,12.58-2.82,2.11-5.53,4.6-10.76,1.07,4.31,8.93,10,10.17,17.93,8.27-3.41,6.58-4.69,12.59-9.86,16.49-2.66,2-3.41,5-.73,7.74s5.17,2.17,7.34-.89c0.68-1,1.25-2.47,3.41-1.58,0.94,6.41.81,13.4-1.24,19.32-2.87,8.3-3.1,18.81-13.66,22.85-2.3.88-1.53,3.47-1.34,5.35,0.24,2.39,2,3.1,4.25,3.29a14.12,14.12,0,0,0,13.56-8.27,94.26,94.26,0,0,0,7.62-33.6C83.3,1012.51,83.82,1006.47,76.91,1002.33Z"/><path class="cls-2" d="M66.26,1038.32c3.39-.89,1.06-4.52,1.47-6.9,0.16-.92-0.14-1.93-0.41-4.72-4.54,4.51-8.71,1.25-12.83.15-0.5,3.71,1.09,5.79,2.43,8C59.13,1038.45,62.91,1039.2,66.26,1038.32Z"/><path class="cls-2" d="M133.51,1021.33c-0.1-.06-0.18-0.14-0.27-0.2l-1.39.12a4.74,4.74,0,0,1-2-4l0-.06c-4.24,0-2.12,2.89-2.06,4.71,0.29,8.56-.91,10.58-8.91,13-4.42,1.34-8.83,2.75-13.63,2.7s-7.43-1-7.4-6.66a127.72,127.72,0,0,1,1.7-20.76c0.82-4.88,3.34-5.19,7-4,4.4,1.45,8.62,3.53,13.09,4.72,4.65,1.24,5.38-1.16,4.64-4.49-0.09-.37-0.18-0.74-0.3-1.15-4.59-7.74-6-8.16-14.79-6.08-2.33.55-4.38,2.91-7.12,1.7-0.15-11.46-.15-11.46-10.75-12.33,3.55,4,3.08,8.65,2.61,13.08-0.8,7.53-1.84,15.07-3.3,22.5C89.3,1030.67,90,1036.63,94,1042c4.48,5.91,18.48,8.72,21.11,3.57,3-5.83,8.09-6.15,12.63-8.35,3.13-1,6.81-.77,8.91-4C138.59,1028.41,136.41,1024.77,133.51,1021.33Z"/><path class="cls-2" d="M131.85,81.25c-3.32-3.57-6.83-4.78-11.55-2.48-3.14,1.53-6.49,3.39-10.43,2.15-0.21-1.12-.42-2.06-0.56-3-1.52-10.34-1.52-10.34,8.91-12.49,0.32-.07.67,0,1-0.11,4.07-.93,7.6-2.56,8.06-7.33,0.45-4.58-3.33-5.11-6.38-6.14-3.78-1.28-3.24-3.21-1.5-6a132.17,132.17,0,0,0,7.69-13.93c3-6.55,2.82-6.64-5.43-10.43,0.81,7.32-3.51,12.47-7,17.94-1,1.56-1.71,4.22-4.13,3.35-2-.71-2.65-3.13-2-5.15,1.94-6.46,0-12.82-.39-19.18-0.5-7.35-1.14-7.5-9.45-5.32,1.51,1.62,5.19,1.19,4.69,4.49-1.35,8.93.29,18.82-7.9,25.66,1.94,0.9,5.2-.74,4.65,4.2C98.92,57.69,96.9,60.68,86.91,62.33c0-5.06,3.83-8.07,6-11.9a4.71,4.71,0,0,0,.76-2A8.52,8.52,0,0,0,91.75,47c-2.43,4.79-6.68,7.88-10.88,12.76-2.21-8.61,2.47-18.69-9-22.32C77,34,81.75,31.24,84.43,26.5c1.64-2.91,2.66-6.64-.71-8.94-2.89-2-5.43-.29-7.61,2.36A69.93,69.93,0,0,1,59.88,34.19c0.64-7,5-11.61,6.39-17.33C68.22,8.95,68.46,8.42,64,0c-5.91,17.77-17,31.88-27.59,46.33-3.23,4.43-3.11,8.6-.44,12.88,3.16,5.06,5.94,5.41,10.41,1.28,2.9-2.68,5.29-5.91,9.68-8.4-1.48,5.1-2.62,9.52-4.05,13.85C49.64,73,48.61,80.09,50,87.53s3.3,9.2,11.77,9.53A2.23,2.23,0,0,1,64,98.3c1.7,3.31,6,4.42,7,8.27s3.87,4.58,6.91,3.94a6.82,6.82,0,0,0,5.68-7.11,61,61,0,0,0-.44-8.94c-0.72-4.91-2.18-9.73-2.6-14.65-0.35-4.21-1.37-8.92,2.41-12.5,2.92,1.8,2.76,6.79,6.43,6.16,5.31-.92,5.6,1.87,6.53,5.81,2.64,11.23,9.8,15.08,20.36,11.64,1-.33,2.25-1.7,3.59.65A177.16,177.16,0,0,1,110,113.29c9.47-4.69,17-11,22-20.28C134.26,88.89,135.52,85.2,131.85,81.25ZM66.91,45.87c2.18-2.59.74-5.75,2.19-8.44-0.12,3.15,2.06,5.4,2.81,8.08s0.49,5.78.67,8.75A9.44,9.44,0,0,1,64,54.11C63.62,50.79,65,48.12,66.91,45.87ZM72.4,66.19c0.12,6.86-4.47,7.8-7.66,9.72C65.07,71.24,68.66,69.76,72.4,66.19ZM73.14,91c-4.39,1.2-6.61-1.7-9.29-4.5,2.74-3.07,5.22-6,9.63-6.71C73.22,83.8,74.69,87.4,73.14,91Z"/><path class="cls-2" d="M130.72,626.88c-11.3-8.35-23.22-11.08-36.3-3.81-6.19,3.44-12.65,6.38-19.29,9.71,3.34,0.42,6.32.55,9.2-.53,1.94-.73,3.23.2,4.28,1.53,2.42,3.06,1,13.12-2.35,15.3-3.19,2.08-6.16,4.54-10.09.08-3.55-4-8.56-6.6-14.81-9.09,0,18.76,0,36.39,0,54,0,2.74,5,10.81,7.2,11.29,3.51,0.78,5.13-2.15,7.21-4.09,0.7-4.24-1.41-8.5.15-12.76,2.84-.2,2.18,2.73,3.46,3.94,3.2,3,1.21,4.87-1.42,6.69-0.21.15,0.21,1.22,0.33,1.86,7.61,0.24,15.27,1.12,22.82.55,7.72-.58,14,0.09,19.47,6.66,4.33,5.2,8.62,3.44,10-3.69a92.54,92.54,0,0,0,1.55-23.8A191.1,191.1,0,0,1,134.75,637C135.59,632,134,629.3,130.72,626.88ZM97.24,693.36c-4.12-1-8.45,4.4-14.2-1.31,5.52-1.29,9.32-2.25,13.16-3,1.3-.26,2.76.13,3.1,1.66S98.53,693.66,97.24,693.36Zm-15.8-6.7c-0.35-9.53-6.17-16.23-3.37-24.47a22.12,22.12,0,0,1,1.29-3.7c0.95-1.7,2.71-1.64,4.38-1.51,2.22,0.17,2.48,1.75,2.47,3.5,0,3.83.67,8-4.54,9.39,5.89,6.5,11.27,2.56,17.83-.3C95.89,678.17,88.61,680.7,81.44,686.66Zm36.65-6.3c0,3.62.22,7.28-1.42,10.83-4.71.12-9.28,1-13.65-.51-0.81-2.93,1-2.88,2.66-3,1.81-.11,4.23-1.45,3.71-2.48-3.24-6.31,3.46-9.08,4.44-13.78s-1.26-8.23-6.08-9.87c-3.82-1.3-7.7-.3-11.21.15-3.37-8.54,3.36-11.29,7.78-15.23-2.26-2.83-8.28-.32-7.22-6.41,0.6-3.43-1-8.28,2.18-9.93,4.65-2.44,10.37-1.63,15.55-.56,2.17,0.45,2,3.24,2.25,5.11a109.64,109.64,0,0,1,1,19.83C117.83,663.14,118.08,671.75,118.08,680.36Z"/><path class="cls-2" d="M117.69,192.72c0.77,6,3.7,10.91,4.47,16.39,1.66,11.76,3.41,23.48,3.17,35.4-0.08,3.92-.69,8.28,5.45,9.65C136.44,235.47,129.45,201.81,117.69,192.72Z"/><path class="cls-2" d="M106.68,226.22c-1,4.18,1.09,8.42,6.55,9.19,4.11-14.26,2.23-33.6-4.86-42.79C107.27,204.57,109.21,215.43,106.68,226.22Z"/><path class="cls-2" d="M51.46,187.59c2.14-5.8,5.19-11.48,4.07-18.1-3,0-2.08,4.77-5.2,4.42-2.73-2.49-1.2-6.42-3.5-9.73-1.47,5.18-2.62,9.82-4.13,14.35-1.39,4.17.82,7.11,3.18,9.79C47.64,190.32,50.38,190.52,51.46,187.59Z"/><path class="cls-2" d="M153,174.54c-22.62-2.17-41.38-12.9-59-25.87,0.65-2.33,2.37-2.69,3.83-3.43,2-1,3.09-2.7,2.2-4.86S97,138.65,95,138.44c-6.78-.72-9.29,5-12.45,8.71-5.46,6.48-10.78,12.09-20.6,10A19.3,19.3,0,0,1,59.25,170c-2.25,4-1.73,7.58.57,11.21,6.61,3.26,8.22-1.88,9.6-6.2,1.55-4.86,2.54-9.86,6.87-13.6-4.21,7.13-7.06,14.53-9.95,21.92-6.06,12.87-15.55,23.51-23,35.48-3.59,3.47-7.13,7-8.77,12A32.69,32.69,0,0,0,46,221.5c9.57-7.48,15.27-18.23,22.85-27.35,2.16,1.72,4,4.43,6.28,4.77,5.07,0.78,4.65,3.89,4,7.14-1.59,7.43-3.46,14.81-5.24,22.2-0.93,3.86-2.06,7.83-1.3,11.69,0.36,1.86.9,4.78,3.7,5.36,3.3,0.68,3.4-2.36,4.58-4.17s0-4.53,3-6.13c3,5.47,8.33,7.88,12.2,11.89,1.4,1.45,2.7,3.45,4.88,2.66,2.53-.92,2.79-3.48,2.63-5.86-0.13-2-.56-3.9-0.79-5.86-1.45-12.46-2.61-25-1.54-37.49,0.38-4.45-.63-7.48-4.27-10.46a13.5,13.5,0,0,0,7.87-2.63c2.58-1.91,6.75-3.6,6.15-7.13-0.71-4.11-5.34-2.84-8.38-3.28-2.12-.3-4.35.22-6.54,0.43a2.72,2.72,0,0,1,.89-1.23c3.1-1.41,6.85-2.85,4.37-7.07-2.1-3.57-5.71-4.15-9.53-1.85-2.93,1.77-6,3.3-10.64,5.81l10.18-20.09c8.94,6.44,17.73,11.91,25.49,18.58,10.05,8.63,21.52,12.8,34.39,14.24,6,0.67,14.65-1.57,14.84-4.22C166.25,178.46,160.47,175.25,153,174.54ZM82.73,218c-1.52-2.91-1-4.75,1.16-6.21,0.71-.47,1.24-0.5,1.57.29C86.54,214.62,84.81,216.05,82.73,218Zm2.6-16c2.76-4,3.9-6.67,7.1-6.24a2.73,2.73,0,0,1,1.44,2.23C93.24,202.38,89.5,200.13,85.33,201.93Zm10,11.64c0.81,4.91-1.57,6.61-5.35,8.36C90,218.06,91.51,215.85,95.36,213.56Zm-1.17,21.38c-2.17,2.14-5.3-.9-9.56-2.15L95,223.06C95.65,228.09,96.88,232.29,94.19,234.94Zm-10.73-57c0.71,2.11-2.29,2.54-3,4.47l0.09,0.08c5.69,0.29,9.37-5.59,15-5l0.11-.21,0.21,0.23-0.32,0c-4.68,9.37-14.85,10.69-23.09,16.81-1.22-8.31,4.44-12.41,6.75-17.75C79.38,176.21,82.9,176.27,83.46,177.95Z"/><path class="cls-2" d="M83.77,551.36c-5.71,4.55-5.05,12.69-10.59,17.83a183.32,183.32,0,0,1-.83-21.74c0-3.14,2.1-3.85,4.69-3.68,4.87,0.32,6.29-2.6,6.71-6.75,0.3-3,.86-5.9,1.38-8.84,1.47-8.28,1.29-8.32-6.78-11.37-2.19-.83-5.72.78-6.53-2.8a26.13,26.13,0,0,1-.78-7.87c0.22-2.59,1.36-5.09,2-7.65,1.19-4.43-2.1-6.12-5.14-7.15-3.52-1.19-4.37,2-5.27,4.53-0.8,2.21-1.56,4.74-.61,6.84,3.7,8.27,1.16,17.06,2.42,25.52,0.49,3.3.21,7.11-4,8.54-3.76-3.3-3-9.28-7.8-11.22a23.48,23.48,0,0,0-3.42,14.51c0.44,7.33,4.11,13.18,8.6,18.65,9.85-.89,5.59,6.54,6,10.75a85.56,85.56,0,0,1-.15,14.93,10.7,10.7,0,0,0,2.89,8.2c4,4.49,7.53,3.83,9.21-2,2.85-9.87,5.36-19.84,7.73-29.84C84.33,557.74,85.56,554.5,83.77,551.36Z"/><path class="cls-2" d="M83.63,551.1l0.15,0.26,0.07-.06Z"/><path class="cls-2" d="M163.5,567.11c-3.34-8.51-12.49-9.36-18.27-14.71,3.11-8.59,6.83-16.87,3.33-28.42-0.65,9.82-2.4,17.1-7.21,23.23-1.75,4.56-3.7,2.14-5.63.22-3.39.52-3.67,0.84-2.47,1.89,2.7,2.36,3.23,4.77,1.18,7.72-4,5.75-8.94,10.2-16.21,12.41-0.85-9.31.82-16.94,7.41-23a55.07,55.07,0,0,0,4.26-5c1.83-6.08,1.83-6.08-5.92-7.35,0.38-3.88,7.56-3.58,5.67-8.21-1.3-3.18.13-4.11,1.95-5.58,2.07-1.67,4-3.47,6.12-5.11,2.85-2.24,3.13-5.13,1.63-8a6.6,6.6,0,0,0-7.59-3.52c-2.21.47-4.26,1.76-6.37,2.7-4.13,1.84-7.77,5-13.14,4.95-0.18-5-1.08-9.48,6.25-9.55,3.16,0,6.33-1.8,9.44-2.94,1.94-.72,3.61-2,3.45-4.34s-2.05-3.43-3.87-4.15c-1.47-.58-3.22-0.45-4.85-0.62-8.49-.88-8.5-0.87-8.33-9.74,0-1,.37-1.94.48-2.92,0.34-3-1.78-4-4-5-3-1.36-4.13.68-5.25,2.88-2.32,4.57-3.74,8.94-1.27,14.18,2.61,5.53,1.78,6.79-4.16,7.81-3.62.63-7.36,0.55-11.9,0.84,4.31,4,8.88,4.77,13.31,6,4.13,1.13,5,4,2.24,7.2a15.82,15.82,0,0,1-3.94,2.94c-6,3.63-7.42,7.4-4.58,13.62,1,2.08,3.57,3.84,3.63,5.8,0.17,6,2.76,7.13,8.1,6,1.82-.38,4.91-1.1,6,2s-0.86,5-2.9,6.82a43.94,43.94,0,0,1-18.68,10c7.05,4.37,12.63.54,19.85-1.11-8,14-19.08,23.69-27.5,37.14,14.14-6.83,20.08-19.51,29-29.77,2.82,9.49-7.71,18.51,1.21,27.21,11.9-9.36,17.58-23.49,28.25-33.67,8.48,7.16,13.86,17,23.73,24.39C165.77,576,165.27,571.61,163.5,567.11Zm-57.73-36.42c-1.86.85-2.48-.62-2.39-1.88,0.22-2.87-2.94-5.54-.37-8.67,3.7,1.28,3.66,5.11,5,7.84C108.66,529.19,106.93,530.16,105.77,530.69ZM123,518.86c1.25-2.85,1.14-6.75,5.48-7.17a1.81,1.81,0,0,1,1.46,1c0.55,3.76-2.24,5.91-4.34,8.31-0.49.56-1.65,0.52-2.34,0.71C122.15,520.62,122.66,519.74,123,518.86Zm-10.61,5.76c-2.56-6.68-2.56-6.68,6.86-8.71C118,520.36,115.82,522.94,112.43,524.62Zm10.43,51.22a10.07,10.07,0,0,1-6.06,4.38c-1.21-2.73-.62-4.92.19-7.15,1-2.77,2.84-2.29,4.7-1.2C123.21,572.75,124.27,574,122.86,575.84Z"/><path class="cls-2" d="M91,1308.4c1.39-.85,2.63-2.55,2.09-4.16a4.43,4.43,0,0,0-3.81-2.76,13.55,13.55,0,0,0-7.67,1.44c-5.3,2.55-10.59,5.14-17.67,8.59C75.15,1316.06,83.23,1313.12,91,1308.4Z"/><path class="cls-2" d="M46.06,1343.46c0,9.87-6.33,17.54-10.08,27.8,3.43-2.78,5.67-4.45,7.75-6.31a31.66,31.66,0,0,0,4-4.32c4.83-6.32,5.62-14,2.09-19.39C48,1341,47.31,1342.7,46.06,1343.46Z"/><path class="cls-2" d="M95.59,1332.35c2.85,6,6.73,6.06,11,3.47,5.63-3.38,9-8.75,11.7-14.5,2.33-4.94,1.32-7.47-3.72-9.28-3.08-1.11-6.3-1.77-9.65,0-3.84,2-8,3.34-11.89,5.16s-7.52,5-12.43.73c-1.89-1.64-6.17-1.06-9,.15-1,4.06,4,2.09,3.59,5.56-6.5,3-13.95,3.15-21.81,4.4,3.88,5.32,7.16,7.52,13,4,2.84-1.71,6.91-3.55,11.67-.93-6,6.62-12.42,10.34-21.86,11.09l12.6,3.27c-1.38,1.76-2.28,3-3.29,4.17-2.7,3.07-4.27,5.14,1.91,6,5.45,0.74,5.91,2.9,3.12,7.39-2,3.21-5.73,5.23-7.2,10,6.07-2.15,7.68-8.92,13.35-10,2,3.33,1.18,6.37,1.22,9.27,0.14,11-2.11,13-13.21,12.36-1.21-.08-2.24-1.47-3.6-0.53,2.37,5.1,4.76,6.51,11.18,4.84,13.21-3.44,26.28-7.17,40.21-5.3,4,0.53,4.18-2.26,3.11-5.24-0.94-2.62-3-2.89-5.55-3.14-4.49-.45-8.63,2-13.52,1.84a33.65,33.65,0,0,0,3.86-8.88c0.78-3.38-.37-8.38,6.05-7.92,1.59,0.11,1.88-2.47,1.54-4.15s-1.77-1.38-3.07-1.64c-8.63-1.74-14.46,3-20.09,8.3-1.58-.15-3.46,1.15-4.62-0.21a4.08,4.08,0,0,1-.13-4.73,37.91,37.91,0,0,1,9-9.17c1.52-1,4.29-2.88,2.26-4.48-3.38-2.65-2.29-4.11-.55-7.08,2.63-4.49,2-5.16-4.11-6.43-1.25-.26-2.72.21-2.94-1.65s0-3.16,2-3.93c6.41-2.46,12.5-6,20.28-6.28C105.58,1326.29,102.24,1330.7,95.59,1332.35Zm-10.88,30.72H84.66l0.3-.2-0.25.21c3.49,1,6.39-1.25,9.59-1.83,2.62-.47,3.51.81,3.52,3.31,0,5.43-3.5,8-8,8.59-2.94.4-6.32,3.79-9.18,0.14C78.64,1370.71,80.47,1366.5,84.71,1363.08Z"/><path class="cls-2" d="M74.2,1200.06c0.3-1.52,1.31-2.9,2-4.34,1.05-2.51-.84-3.32-2.48-4.28-0.94-2.71-1.8-5.5-5.6-5.56a22.64,22.64,0,0,1-2.7,11.41c-1.48,2.85-1.92,5.47.35,8.07C70.28,1206.3,73.24,1204.94,74.2,1200.06Z"/><path class="cls-2" d="M113.1,1226.21c-3.61-.07-7.24.33-10.86,0.51q1.82-2.94,3.64-5.88c4.37-7,4.37-7-2.2-12.4,0.36-2.17,2.67-2.75,3.62-4.41,1.09-1.9,3.77-3.41,2.35-6-1.62-3-4.61-3.31-7.77-3.26-3.45.05-6.08,3-10.5,3.27,4.61-9.51,5.15-20.95,18.69-21.13,1.77,0,2.57-1.95,2.92-3.6s-1.23-2-2.31-2.65a34.1,34.1,0,0,0-5.24-2.82c-3.89-1.37-7-1.45-7.64,4.12-0.6,5-4.43,8.29-8.17,11.36-2.53,11.76-10.12,19.77-19.56,26.4-4.51,4.72-12.75,4.21-17,12.17,9.91-1.73,17.23-5.84,26.51-11.15C73,1225,67.41,1237.18,61.69,1249.34c-1.61,3.44-4.51,4.91-8.17,3.5-1.93-.74-3.79-2.08-5,0.47-1.31,2.76-.44,5.21,2.28,6.76,3.31,1.89,6.82,3.37,9.56-.68,3.68-5.43,8-3.73,12.07-1.08,3.87,2.52,7.2,5.85,10.94,8.59,13.35,9.79,28.95,6.61,37.61-7.34,2.68-4.32,4.08-9,5.24-13.81,0.12-.4.24-0.79,0.33-1.18C130,1232.24,125.76,1226.45,113.1,1226.21Zm-14.86-24.46a59.48,59.48,0,0,1-16.85,17.19C83.37,1208.8,88.82,1203.43,98.25,1201.75Zm22.9,48.07c-4.67,10.75-14.71,16.75-26.36,15.49a43,43,0,0,1-14.33-4.14c5.59-8.12,11.92-12.84,21.77-8,1.6,0.79,3.33.73,3.77-1.5a3.23,3.23,0,0,0-2.51-3.77c-5.44-1.71-10.54.13-15.43,2.16-7.23,3-14.51,4.58-22.29,2.67-0.75-.18-1.3-0.28-1.7-2.36,3.88-7.37,10.25-14.63,13.11-23.7a1.17,1.17,0,0,1,.61-0.75c9.86,0.5,15.1-9.14,23.93-10.84a4.21,4.21,0,0,1,1.32.83c-1.71,6-5.93,10.5-10,15.2s-10.73,5.48-15.16,11a4.16,4.16,0,0,0,.2.51c10.72,1.47,15.56-6.25,21.7-11.43,3.54-.33,6.77-1.89,10.43-2,11.21-.46,12.72.7,13.72,12.13C123,1244.16,122.33,1247.09,121.14,1249.82Z"/><path class="cls-2" d="M77.63,1137c0,0.09,0,.19.07,0.29l0.2-.09Z"/><path class="cls-2" d="M77.92,1137.24v0.07l0,0Z"/><path class="cls-2" d="M107.84,1137.69a11.08,11.08,0,0,0-4.42-2.07c-7.24-1.55-6.73-1.52-7.29-8.48-0.38-4.7,2.61-6.33,5.16-8.74s3.79-5.59-.58-6.7c-4.82-1.22-5.32-3.9-5.15-8,0.18-4.25,1.85-6.87,6.06-7.9,2.11-.52,5.29-0.78,4-4.12-1.21-3.13-3.69-1.67-5.84-.64-1.15.55-2.47,0.93-3.7-.45a19.94,19.94,0,0,1,.12-10.66c1.17-3.47.58-5.82-2.56-7.52s-5.82.42-8.2,2c-2.92,1.88-1.63,3.83-.17,6.57,1.8,3.38,1.92,7.66,2.72,11.56,0.72,3.54-1.06,5.67-4.13,7-2.59-1.23-6.58,4.94-7.9-.87-1.63-7.17-6.25-8.21-13.46-8.12,5.25,3.75,3.65,7.77,2.33,11.81-0.8,2.44-2.16,5.28.91,7a5,5,0,0,0,6.34-1.28c3-4.17,8.07-4.21,11.76-6.85,2.19,0.52,5.26-1,5.53,3.41,0.41,6.87-.09,8.21-6.94,10.72-5.51,2-11.6,3.38-10.35,11.45h0c2.83,0.16,1.3-3.63,3.58-4,4.62-1.56,4.62-1.56,11.9-.86,3.45,2.36-6.49,6.82,1.35,8.72,0.61,0.15-.46,2.34-1.45,3.23-3.82,3.42-2.85-3.5-5.53-2.58-1.74,1.68-5,2.31-4.3,5.67,0.09,0.09.2,0.16,0.3,0.25h0l0.07,0.05c3.26-2,5.14.66,7.31,2.4-6.9,3.5-6.94,3.51-7.37-2.37l-0.2.12s0-.07,0-0.11a3.33,3.33,0,0,1-1.7.31c-2.22,2.78-3.42,5.52-.94,8.94s5.32,1.2,8,.65c7.19-1.46,14.39-2.62,21.78-1.75,2.23,0.26,5,1.11,5.93-2C111.61,1140.9,109.64,1139.11,107.84,1137.69Z"/><path class="cls-2" d="M136,791.37c0.92-3.05.49-5.87-2.6-7.81-2.92-1.83-6.56-3.93-9.08-1.22-4.94,5.31-11.77,5.5-17.65,8.12,3.62,5.74,9.74,1.88,14.49,3.49a16.23,16.23,0,0,1-3.24,8.46c-2.47,3.14-2.22,9.87-7.9,8.75-4.56-.9-2.56-6.57-3.6-10-1.52-5-2.34-10.25-9.83-13.89,3,5.25,2.8,9.62,3.71,13.65,1,4.44-.06,8.47-0.19,12.69-0.21,6.49,2.62,11.14,8.81,13.54a11.19,11.19,0,0,0,1.37-2.1c2.73-8.59,3.12-8.8,11.87-6.05a25.14,25.14,0,0,1,2.79,1.07c3.78,1.71,4.68-.81,5.17-3.64,0.35-2,.37-4.23-1.33-5.56-3.55-2.77-1.56-5.08.22-7.56C131.73,799.55,134.65,795.87,136,791.37Z"/><path class="cls-2" d="M63.93,769.2c-0.75,3.19-1.8,6.31-2.68,9.47-1,3.43,1.5,5.74,3.3,7.81,1.47,1.69,3.47-.5,5.18-1.22,2.42-1,4.89-1.92,7.24-3.07,3.25-1.58,6.49-3.21,9.57-5.08,1.68-1,3.25-2.72,2.91-4.83-0.44-2.71-3.19-2.87-5.23-3.88-3.84-1.89-6.15,3-9.73,2.13,2.22-12.61,1.24-13.69-13.88-13.11C67.23,760.91,64.88,765.16,63.93,769.2Z"/><path class="cls-2" d="M78.11,811.53c2.09,6.3,2.82,12.71,4,19,0.52,2.73,1.18,5.77,4.32,7.32s5.82,0.48,5.19-2.82C89.86,825.82,86.14,817.46,78.11,811.53Z"/><path class="cls-2" d="M83.43,801c2.88-2,6-4.21,6.56-8.16-2.11-3-12.91-6.85-14.67-1.89S72.8,801.49,68,804.61a86.38,86.38,0,0,1-20.52,10c-1.8.57-4.34,2.06-5.39-.1-1.52-3.14-2.4-2.79-2.87.09-0.88,5.43,1.7,7.77,6.7,6,4.05-1.41,7.81-3.63,11.79-5.27,2.19-.9,4.39-3,7.22-0.71-4,5.65-5.22,13.12-12.28,16.42-1.54.72-1.05,2.17-.3,3.33,2.47,3.84,12.47,4,15.05.27,3.63-5.27,6.33-11.21,6.62-17.42C74.35,809.8,77.58,805,83.43,801Z"/></g><path class="cls-2" d="M47.77,906.25c15.64-5.7,30.69-12.49,46.77-16.29,5.46-1.29,10.79-3.48,16.55-2.94,7.5,0.7,11.18,6.17,9.17,13.33-0.79,2.81-2.87,3.57-5.34,3.35-15.66-1.37-30.06,3-44.29,8.95C61.77,916.37,54.68,911.34,47.77,906.25Z"/></svg>