<svg id="图层_1" data-name="图层 1" xmlns="http://www.w3.org/2000/svg" viewBox="0 0 200 1118.57"><defs><style>.cls-1{opacity:0.05;}.cls-2{fill:#fff;}</style></defs><title>主站</title><g class="cls-1"><path class="cls-2" d="M81.92,183.21l-9.07,19.2c4.85,0,9.33,0,13.81,0,2.23,0,4.3,1.45,4.52,3.27,0.23,2-2,3.82-4,3.47-5.15-.9-10.52,3.27-15.57-1.14-2.19-1.91-3.35.9-4.32,2.43C61.27,220,54.83,229.28,46,236.6c-7.56,6.26-9.32,6.8-20,5.43,15.72-11.25,25.29-26.59,34.55-42.17a59.77,59.77,0,0,0,5.8-12.64c1.16-3.72,2.34-6.85.21-11.23-2.89-6,.32-11.8,7.09-16.52,0.42,3.54-.09,7.45,5.09,8.17,1.67,0.23,4.47,2.51,4.36,3.63-0.76,8.29,6,8.88,10.9,11.51a22.94,22.94,0,0,1,4.59,3.76,52.13,52.13,0,0,0,29.2,13.85c5.31,0.73,10,3.35,15.38,3.6,3.4,0.16,5.3,2.46,6.93,5.06,3.11,5,2,7.63-3.7,7.53-13.53-.23-26.28-3.61-37.41-11.63-5.92-4.26-11.69-8.74-16.58-14.26C89.83,187.71,87,184.8,81.92,183.21Z"/><path class="cls-2" d="M86.49,340.43c4.94,0,9.25-.09,13.56,0a41.54,41.54,0,0,1,6.93.79c4.83,1,5.75,5.58,6.78,9,0.95,3.17-3.18,4.8-5.53,6a22.29,22.29,0,0,1-13.38,2.49l5.58-9a49.88,49.88,0,0,0-14.2-.6,22,22,0,0,1-7.89-.65c-6.26-2-8.19-9-4.19-14.26,4.77-6.32,9.59-12.6,15.79-20.72-8.37,1.75-13.57,4.52-18.26,8.58-2.15,1.87-3.89,5.23-7.42,4-4.67-1.64-10-2.94-13.41-6.13-2.89-2.7-1.39-7.49,2.07-11.2,4.81,5.34,10.11,5.53,16.77,2.9,8.91-3.52,18.4-5.59,27.65-8.25,3.93-1.13,7.55-1.48,11.32,1.29,7.5,5.52,10,9.5.74,15.5-6.4,4.13-12.27,9.1-18.32,13.75C89,335.58,86.63,336.93,86.49,340.43Z"/><path class="cls-2" d="M125.8,51.66c-4.19-2.78-8.65-3-13.35-2a118.07,118.07,0,0,1-30.6,2.62,60.13,60.13,0,0,0-30.56,7c-2.66,1.37-5.17,2.9-9.72,2.15,9.09,9.82,10.37,10,18.84,3.54,1.83-1.4,3.26-3.41,5.22-4.56,5.94-3.5,12.18-6.71,19.13-2.93,8.1,4.4,16,8,24.72,1.31,1.69-1.3,5-1.77,3.15,2.68-0.47,1.12.7,1.67,1.65,1.71,3,0.14,6,.25,8.93.18s4.81-2.05,5.37-4.88A6.14,6.14,0,0,0,125.8,51.66Z"/><path class="cls-2" d="M72,34c3.79-1.19,7.63-2.19,11.46-3.23,6.66-1.8,13.84-1.27,20.28-4.26-4.12-9.64-5.05-10.17-13.91-7.33-3.66,1.17-7.24,2.64-10.79,3.95-2.61-5.33,2.25-8.14,3.44-12C84.63,3.87,85,4,76.63,0c-1,10.09-2.78,19.06-10.24,25.74-2.39,2.14-2.2,4.62-.55,7.16S69.65,34.72,72,34Z"/><path class="cls-2" d="M82.08,231c10.13,5,11.43,7.12,10.07,17.18-0.7,5.22-2.23,10.37-.23,15.66a3,3,0,0,1-.89,2.63c-1.15.85-2.49,0.34-3.54-.62a9.17,9.17,0,0,1-3.12-9c2.16-9-.5-17.42-2.08-26Z"/><path class="cls-2" d="M70.75,290.22c6.22-1.52,12-2.14,17.13,2.87,2.76,2.72,4.23,5.41,1.54,8.39s-5.38.79-7.32-1.57A48.86,48.86,0,0,0,70.75,290.22Z"/><path class="cls-2" d="M122.83,1102.43c0.07-19.92-2.68-39.72-2.32-59.68,0.12-6.85-.76-13.86-1.42-20.77-0.59-6.2-5.34-6.2-8.57-8.08s-7.42-1.88-10.7,2.87c9.83,1.46,11.28,8.39,11.91,16,0.57,6.92,1.67,13.81,2,20.74,1,19.81,4.57,39.49,3.21,59.44-0.13,1.91,1,3.8,3.71,5.64C123.7,1112.87,122.82,1107.59,122.83,1102.43Z"/><path class="cls-2" d="M69.61,1055.87l0.61,0-0.37-.26,0,0H69.57C69.59,1055.72,69.6,1055.79,69.61,1055.87Z"/><path class="cls-2" d="M73.93,1044.47c3.24-5,6.89-9.77,9.87-14.92,1.33-2.31,3.94-5.05,1.08-8.11-3.3-3.53-6.12-.33-8.88.93-2.07.94-3.71,2.77-5.66,4-3.9,2.47-7.14,6-11.92,7-1.84.39-4.16,0.49-3.75,3.25,5.75,3.85,11.13-2.21,17.33-.7-8,13.66-15.34,27.18-26.41,37.8-3.4,3.26-3.52,5.42-2.46,9.08,2.74,0.07,4.42-1.51,6-3.2a101.41,101.41,0,0,0,12-15.85c2.07-3.29,3.11-8.21,8.49-8.15C68.59,1051,71.72,1047.88,73.93,1044.47Z"/><path class="cls-2" d="M74.28,1070.25c-2.18,7.4-6.26,8.65-13.6,4.19-2.44,5.9-2.34,11.31,2.56,14.81-1.61,9.11-13.66,10.92-12.39,21.28,14.57-11.36,25.67-25,28.81-43.91,1.42-8.51-.3-10.48-9.45-10.73C77.08,1060.63,77.06,1060.83,74.28,1070.25Z"/><path class="cls-2" d="M85.11,1057.2c10.73-2.54,8.48,11,17,11.72,1.81-6.75-.65-13.35-1.48-21.29C100,1059.16,89.58,1051.6,85.11,1057.2Z"/><path class="cls-2" d="M82.29,230.86c-3.64-3.77-7.33,1.35-11.84-.17,5.73-4.29,11-8.23,16.25-12.12a5.54,5.54,0,0,1,2.62-1.3c2.38-.13,5.54-2.62,6.94.77,1.22,3-2.28,3.47-4.07,4.61-3.74,2.38-9.07,2.77-10.12,8.38Z"/><path class="cls-2" d="M124.53,858.21c0.91-2.91,3.32-2.69,5-3.6,5.53-3,5.68-4,.83-8.08-3.65-3.05-7.41-6-11.39-9.14a16.91,16.91,0,0,0,.19,7.67c0.5,2.22,1.41,4.79-.94,6.39-2.53,1.72-4.26-.58-6-2-2.77-2.28-5.42-4.72-8.35-7.3,1.7-1.63,3.17-3,4.56-4.37,5.14-5.23,8.79-12.76,18.23-11.22,1.48,0.24,3.07-1.21,3.25-3.16,0.26-2.68-1.09-5-3.45-5.4a36.47,36.47,0,0,1-13.74-5.46c-2-1.3-3.88-.47-5.66.37-2.66,1.25-5.22,2.69-7.94,4.1-0.49-9.08-.31-8.75,6.58-12.54,3.6-2,8-3.47,10-8.26-4.29-3.4-7.66-8.22-14.22-7.47a3.2,3.2,0,0,1-3.18-1.68c-6.2-8.93-7.77-9.45-18.78-7,0.87,1.41,2.47.77,3.55,1.34a9.84,9.84,0,0,1,3.06,2.34C90.07,788.62,89,792,83,793.47c-5.63,1.35-10.74,4.35-18,4.48,5.56,4.21,9.8,8,15.29,9.55,8,2.31,7.71,2.17,7.54,9.73-0.12,5.78-2.34,9.35-7.72,11.38-3.4,1.28-6.58,3.17-9.86,4.79h0c-2.33.72-3.85,0-5.24-2.57-2.3,2.77-1.16,8.56-7.11,8.1-3.56,1.8-8,1.81-12.27,6C56.73,846.52,63,852.56,67.28,861a5.26,5.26,0,0,0,2.15,2c3.19,1.71,2.91,3.91,1.34,6.62-3.16,5.44-6.14,11-9.28,16.44-1.49,2.57-2.83,5.75-6,6.29-3,.49-3.68-3.8-7-5.27,0.76,6.31,1.35,11.51,2,16.71,0.42,3.23.77,8.15,3.68,8.34,3.82,0.25,8.75,0,11.76-3.87,1.22-1.57,2.17-3.35,3.35-5,6.13-8.37,10.36-17.93,14.44-27.23,3.52-8,8-10.77,16.07-11.45,3.74-.32,6.15,0,8.78,2.54a115.79,115.79,0,0,0,10.69,8.91c9.29,6.93,18.24,14.39,28.86,19.32,2,0.93,4.06,2.89,6.25.46,6.75-7.49,15.2-10.54,25.43-9.75C162.09,875.07,141.41,870.2,124.53,858.21Zm-48.91,1.41c-3.53.58-4.89-2-6.23-4-4-6.14-3.47-7.9,3.16-11.1,3.13-1.51,6.12-3.84,10.57-2.67C81,848.11,78.94,854.16,75.62,859.62Zm17.4,1.3a1.51,1.51,0,0,1-1.79-1.71c0.37-2.31,1.39-4.59,3.94-4.69,1.3-.05,2.66,1.51,3.55,2.07C97.43,860.56,95.11,860.66,93,860.92Zm9.09-26.71c-0.82,1.25-1.56,2.92-3.43,2.85-0.84,0-1.9-.34-1.43-1.78a5.15,5.15,0,0,1,4.13-3.5A1.89,1.89,0,0,1,102.11,834.21Z"/><path class="cls-2" d="M43.05,407.09c-1.54,3.57-.09,4.28,2.94,3,2.43-1,4.27-.22,6.55.6,3,1.08,8.2-3.21,9.08-7.12,1-4.39-2.58-4.84-5.4-5.46-7.19-1.58-12.77-5.33-17.13-12.76-2.53,9.68-2.41,10.82,2.17,17.6C42.16,404.25,43.88,405.18,43.05,407.09Z"/><path class="cls-2" d="M66.23,432.93h0c3-4.47,7.4-8,8.39-13.63-4.95,0-5.29,5.7-9.13,7.7,1-5-1.69-5.92-5.26-6h0c-4.21-3-7.1-2.07-11.07,1.58-8.05,7.41-16.19,15.54-29,14.6,1.81,5.06,6.75,5.46,10,8l5.84-.63c3.45-1.91,5.89-5.49,10.11-6.14,0.3-1.88,1.76-3,3.18-2.22,1.12,0.62.1,2.35-.73,3.34a16.73,16.73,0,0,1-2.08,1.83c-1.82,1.89-3.32,4.45-5.53,5.53-6.14,3-5.86,9.71-9,14.39a4.08,4.08,0,0,0,1.14,5.4c1.41,1,3.16.34,4.77-.21,3.36-1.14,5.46-4.68,10.19-5-1.1,3.41-1.77,6.59-3.12,9.46-2.59,5.5-.29,9.53,3.49,13.14,2.43,2.32,4.57,2.07,6.22-1.22a34.61,34.61,0,0,0,4.07-18.2C58,453.34,57.95,442.13,66.23,432.93Z"/><path class="cls-2" d="M141.1,466.48c-1.73-4.53-4-8.86-8.6-11.79L131.71,458c-2.66,11.22-3,11.51-14.18,12.78-1,.11-2,0.26-3,0.32-15.67.93-17.2-.66-16-16.42,0.08-1.09.15-1.27,1-.48,0.83,4.92,1.66,9.9,7.54,11.72,2-3.19,3.37-6.23,2.47-10.21-1.62-7.16-1.3-14.53-1.63-21.84-0.4-9,1.51-17.86,1.92-26.79,0.36-7.82-7.4-12.22-14.23-8.55-1.71.92-3,2.78-5.26,2.41,2.12,5,5.57.32,9,1.33,2.28,5.95.59,12.54,1.5,20.21-7.38-4.15-9.66,3.8-14.88,5,0.12-7.15.12-7.15,9.83-12.07-1.3-4.4-5-1-7.35-2.3-1.14-3.24.26-7.18-2.23-10.22l-10.56.68c3.57,2.92,2.53,6.23,2.57,9.35L78,412.76a11.57,11.57,0,0,1,1.24,9.54c-1.83,7.11-2.32,14.44-3.63,21.61-1.33,7.32-.4,12.87,7.74,16-6.25,6.4-9.13,14.6-17.46,17.74-3,1.13-2.58,4-1.63,5.86,1.57,3.09,3.83,1.43,5.63-.2a47.67,47.67,0,0,0,4.16-4.22c5.09-5.93,10.11-11.9,15.4-18.14,4.69,14.43,10.51,19.6,21.78,18.11a224,224,0,0,1,22.8-1.75C140.44,477.11,143.37,472.44,141.1,466.48Zm-56.18-9.23c-1.22-3.39-2.78-6-2.33-9.32,2.55-1.7,5.51-1,9.07-1.51C90.57,451.08,87.56,453.78,84.92,457.25Zm-1-11.67c-1.29-10.11-1-10.75,5.11-14,3.49-1.88,6.92-3.85,12-6.68C100.27,437.55,89.64,438.56,83.9,445.58Z"/><path class="cls-2" d="M112.62,92.68c-4.32-4.18-9.55-4.12-14.89-3-3.05.64-6,1.72-9,2.61-2.59-14-5.87-17.33-14.94-16a15.67,15.67,0,0,1,4.53,8.65c1.57,9.11.54,11-7.75,15.39-4.05,2.13-8,4.54-11.92,6.82-0.78,2.4-6.8.87-4.31,5.74,5.35,7.47,5.37,16.91,9.15,25,1.33,2.84,2.34,6,5.58,6.11,2.65,0.05,2.85-3,3.13-5.36a2,2,0,0,1,1-1.47c6.84-.61,13.4-5.65,19.94-3.69,5.68,1.71,7.26-.47,8.81-4.4a186.15,186.15,0,0,1,12.5-25.81C116.93,98.94,115.81,95.77,112.62,92.68Zm-34.71,24.4c-1.07.76-2.36,1.19-3.5,1.86-1.3.77-4.66-2-3.91,1.78,0.38,1.9.44,5.83,4.69,4.55,2.55-.77,3.64.37,3.66,2.93,0,3-2.25,3.77-4.43,4.5-1.86.63-3.35-.15-3.69-2.08-1.36-7.79-7.07-13.15-11.86-20.73,5.83-1.21,10.54-.35,14.85-2.19,2-.87,4.88-1.91,5.8,1.26C80.32,111.7,80.94,114.93,77.91,117.08Zm18,2.18c-3,1.61-4.84,4.21-6.54,7.18-1.48-7.44-.77-8.73,4.37-10.3,1-.3,1.93-0.59,2.31.41C96.36,117.36,96.35,119,95.92,119.26Zm3.46-13.33c-1.37,5.5-6.09,2-9.05,3.24-1.76.76-2.11-.87-2.32-2.13-0.56-3.39.59-5.57,4.16-6.53a67.13,67.13,0,0,0,7.66-3.09C101.2,101,100,103.46,99.38,105.93Z"/><path class="cls-2" d="M149.69,987.58c-7.05-5.51-13-12.49-21.07-16.6-4.9-2.51-4.59-5.17-3.05-9.61,1.38-4,3.71-8.16,2.75-12.51-1.35-6.11.77-8.52,6.84-8.55,2.25,0,4.66-.83,4.77-4,0.12-3.44-2.15-4.84-4.9-5.2-4.28-.57-8.48-0.42-12.45,2.08-3.69,2.33-7.33,5.19-12.18,5.55-0.37-8.79,2.21-17.32-3.7-25.5a46.76,46.76,0,0,1-3.84,15.62c-1.74,4-3.21,8-5.25,11.83-2.41,4.48-.41,7.78,2.46,10.7,3.41,3.47,6,.42,8.45-1.72a23.87,23.87,0,0,1,12.31-5.77c-0.61,5.72-.63,10.67-2.86,15.3-3.23,6.72-3.17,6.75-11.36,4.83-0.93-.22-1.32,0-1.14.55,1.54,2.4,5,3.06,5.83,6.48-7.28,9.28-12.92,20.31-26.77,22.68,9,5.58,19.25,3.94,25.18-3.63,3.26-4.16,6.13-8.63,9.47-13.39,6.22,5.71,12.53,10.42,19.83,13.74,2,0.92,3.46,3.08,5.32,4.46,3.05,2.26,1.39,4.54.09,7.08,4-.3,8.57.8,10-4.3C155.7,993.28,153,990.19,149.69,987.58Z"/><path class="cls-2" d="M95.88,958.09c-3.92-3.62-7.19-4.14-11.28-1C81,959.83,77.51,962.81,73,966.5c0.76-3.94,1.61-6.43,1.66-8.94,0.14-6.9,1.49-13,7.93-17,2.25-1.41,2.87-4,2.62-6.82-1.79-.27-3.29-1-4.34-0.58-5.36,2.12-6.36-.44-6.15-5.08a95.72,95.72,0,0,0-.11-13c-0.37-4.06-3.81-4.33-6.8-3.83-3.31.56-4,3.24-3.09,6.13,0.49,1.54,2,2.77,2.43,4.3A31.34,31.34,0,0,1,68,938.45c-1.08,4.31-6.54,5-9.84,7.57-5.12,4-10.25,3.39-15.8.81C49,955.67,57,959.41,68.65,953.4c-2.26,5.41-4.07,9-5.22,12.7-1.47,4.76-4.32,5.05-8.27,2.85,0.41,7.81,3.45,14.44,5.59,21.26,2.28,7.26,3.95,7.28,10.56,3.58,11.24-6.28,17.49-16.85,24.38-26.94C97.62,964,99.29,961.24,95.88,958.09ZM69.37,989.7c-1.34-3.11-2.47-5.67-3.55-8.24-2.49-5.92-.24-11.29,6.09-12.23,4.22-.63,8-1.95,12.42-3.1C80.94,975,77.29,983.31,69.37,989.7Z"/><path class="cls-2" d="M111.43,538.66c-7.94,2.62-15.76,5.86-24.61,5.93,1.35-3.73,2.5-6.84,3.61-10s3.69-5.48,5.89-8c0.89-1,1.89-2.67.68-3.4-5.88-3.57-2.23-9.07-2.87-13.6-0.84-5.89-3-9.27-8.72-10.34a17.7,17.7,0,0,0-10.06.49c1.2,6.21,9.91,8.4,7.69,17.14-1.75,6.9-.79,14-10.13,15.56-3.5-3.5-1.37-9.14-4.72-12.78-4.17-4.53-8.86-2.16-13.47-2.16-0.31,3.71,1.64,5,3.71,6.08C61,525,62.1,527.32,62.9,530c1.58,5.22.69,6.61-4.58,7.27-3.93.49-7.66-.86-12.77-2,4.49,5.74,8.87,8.34,14.63,8.11,3.71-.14,4.79,1.46,5.66,5.12,1.09,4.55-.72,6.06-4.26,7.21-9.21,3-17.56,7.92-26.21,12.1-8.91,4.3-8.7,4.73-13.28,4.93-0.8,0-1,.58-0.7,1.43,9.86,7.43,9.66,7.14,19.06.58,15.82-11,32.82-19.7,52.45-23.84-2.32,3.77-7.31,3.77-8.47,7.82,13.83-6.28,29.45-7.46,43.45-14.22C121.22,536,120.25,535.76,111.43,538.66Zm-36,9.75C72,542.3,72,542.3,77.73,539.48,79.17,543.06,76.58,545.52,75.39,548.41Z"/><path class="cls-2" d="M90,564c-4.21,1.62-8.79,2.88-11.93,6.58h0c-2.34-1.09-1.12-2.25-.32-3.76,1.61-3,5.77-4,6.35-7.75-6,.86-9.07,5-11.38,10.11h0c-9,13.06-6.86,27-2.72,40.82,1.92,6.4,2.72,6.24,11.3,3.39a3.31,3.31,0,0,1,1.89,0c4,1.21,8.33,1.78,11.42-.88,2.48-2.13.78-5.23,0.47-8.17,0.34,0.61.85,1.16,1.16,1.68,1.5,2.48,3.19,5.61,6.64,4.93,4.24-.84,3.62-4.69,4-8,1-9.41-.62-19,2.47-28.28,0.69-2.07-.51-3.84-1.71-5.41A15.29,15.29,0,0,0,90,564ZM95,596c-3,3.18-3,3.17.25,5.74h0c-0.93.33-2,1.11-2.77,0.92-3.37-.78-6.13-2.49-9,2-2.21,3.44-5.83,2.1-7.64-1.62-1-2.1-1-3.88,1.19-5,5-2.45,10.11-4.78,15.2-7.11,1.27-.58,3-0.65,3.61.47A4,4,0,0,1,95,596Zm0.89-10.66c-8.63-9.71-14.9,1.1-22.33,1.86-1-8.12-.9-8,5.64-10.78,3.9-1.68,7.51-4.05,11.29-6,5.34-2.78,6.85-1.82,7.08,4.36A31,31,0,0,1,95.9,585.38Z"/><path class="cls-2" d="M133.53,731.27c-4.32-1.56-9.48-3.33-10.22-9.35,3.33-2.59,7.46-3,11.13-4.48,2.33-1,4.3-2,4.08-4.87a6.09,6.09,0,0,0-3.84-5.35,17.73,17.73,0,0,0-7.64-1.79c-6.46-.1-12.4,1.83-18.35,4-1.25.45-3.12,2.2-4.08-.22-0.84-2.13-.09-3.82,2.48-4.4a45.1,45.1,0,0,0,5.67-1.81c5.28-2,10.57-3.9,15.78-6,1.82-.74,3.69-1.86,3.27-4.37-0.39-2.33-2.16-3.25-4.24-3.55-3.68-.53-7.25-0.65-10.22,2.36-1.85,1.88-3.86,3.7-6.68,4.15-1.35.21-2.84,0.36-3.63-.87a3.37,3.37,0,0,1,.34-3.74c2.93-4.11,7-7.09,10.63-10.48,5.37-5,5.24-5.91-1.22-10.81,0.16-2.1,2.24-2.2,3.43-3.22,2-1.7,1.74-3.31,0-5-2.82-2.86-5.83-3.88-9.71-1.84-2.2,1.16-3.69,4-6.79,3.32-2.52-12.32-3.83-13.54-13.33-11.42,6.17,0,4.51,4.95,4.85,7.46,2,14.55,1.11,29.25,1,43.89a6.38,6.38,0,0,1-2.19,4.36c-6.61,2.23-11.72,6.71-16.86,11.15-1.89,1.63-3.61,3.89-6.66,2.43-2.56-3.23-.91-6.65,2-6.49,6.43,0.35,6.31-3.4,6.05-7.47-0.6-9.45.52-18.48,5-27,0.85-1.65,2-3.94-.44-5.63-2,2.68-2,6.7-5.46,9.13-3.46-22.44-3.46-22.44-11.58-24.2-0.74.43-.63,0.95-0.46,1.72,2.06,9.91,2,9.83-6.72,13.89-2.91,1.35-6.23,2-8.63,4.36h0a33.34,33.34,0,0,1,5.71.81c2.26,0.71,3.19,2.06.59,3.71,2.14,2.9,4.07,0,6-.31,6.65-1,7.14-.66,8.28,6.79,0.13,0.86,1,1.75-.57,3.15a32.44,32.44,0,0,0-12.75-1.48c-3,.28-3.66-2.14-5.09-3.74-0.26,3.12.34,5.85,3.33,7.56a4.29,4.29,0,0,1,1.74,6c-5,8.72.33,13.27,6.57,17.61-3.32,3-4.61,7.07-6.3,11-2.85,6.7-1.69,14.31-5.44,20.9-1.6,2.82,1.29,5.82,4.17,6.74,3.73,1.18,4.22-2.32,4.74-4.75,1.09-5.09.38-10.57,3.29-15.28,2.93-2.36,3.7-6.55,7.16-8.61l6.27,4.28a62.09,62.09,0,0,0,17.87,14.13c12.75,6.53,25.1,2.83,37.43-2.23,4-1.64,4.67-4,4.65-7.61C138,734.43,137.22,732.61,133.53,731.27Zm-63.12-4c-3.62.45-3.72,5.85-7.85,5.59l1.73-11.36,5.84,2L70,723.36A2.66,2.66,0,0,1,70.41,727.3Zm33.75-56.21c7,4.16,7,4.16.67,13.3C102.95,679.86,104,675.7,104.17,671.08Zm9.1,67.14C108,740.3,102.6,741.87,97,739c-5-2.56-10-5.07-15.06-7.6-7.78-7.12-7.81-7.83,1.38-13.67,4.09-2.6,7.93-5.83,13-6.64a3.79,3.79,0,0,1-1.61,3.35c-3.22,2.56-6.32,5.51-2.4,9.64,4.58,4.83,9.34,4.88,13.59,0a24.75,24.75,0,0,1,7.39-6.3c2.49,3.58-2.36,5-2.13,7.85,1.86,0.47,5.2-2,5.19,2.14C116.33,731.46,118.33,736.2,113.26,738.22Z"/></g></svg>