<svg id="图层_1" data-name="图层 1" xmlns="http://www.w3.org/2000/svg" viewBox="0 0 200 1393.01"><defs><style>.cls-1{opacity:0.05;}.cls-2{fill:#fff;}</style></defs><title>主站</title><g class="cls-1"><path class="cls-2" d="M113.21,84c-8.91,0-16.91,2.84-25.67.87,0.48,5.68,5.14,8.39,6.34,12.85,0.51,1.89,1.87,3.54,2.55,5.4,1.19,3.25.29,6.16-2.84,7.57-2.71,1.21-5.38.12-6.82-2.54-2.21-4.08-4.13-8.32-6.31-12.79-3.39-.7-4.53,4.51-9.24,3.4,5.33-7.89,8.58-16.48,13-25.5-11.39,2.71-20.81,12-34.4,6.47C61,74.12,71.26,69,81.54,63.87,83,63.13,84.85,63,86.13,62c2.56-1.91,3.46-3.7-.37-5.79-6.29-3.45-6.62-5-2.91-10.44C85.27,42.22,88.11,39,91,35.29c-2.14-2.13-5.14-2.79-7.06-2-3.64,1.46-6.67,2.72-10-.45a14.08,14.08,0,0,1-4.33-11.72c0.31-3.51.47-6.46-2.64-8.86,4.26-2.37,8.68-.62,11.71,1.33,4.68,3,8,2.55,11.63-1.59,0.7,4.81-3.72,7.66-2.71,11.86C99.7,18.63,105.91,11.37,108.06,0c7.8,2.25,8.47,3.2,6.48,9.6a17.59,17.59,0,0,1-1.61,3.63c-4.08,7-10.61,12.94-8,22.51,0.42,1.54-1.71,4.47-3.41,5.77-5.35,4.1-5.14,8.57-1.5,14,7.08-3,14.32-6.27,22.34-6.72,4.1-.23,8.08.2,11.17,3.22a5.92,5.92,0,0,1,1.63,6.43c-0.79,2.09-2.84,2.57-5,2.53-4-.08-8,0-12-0.19-6.9-.26-13.12,2.3-19.12,5.07-5.85,2.7-5,9.74-8.92,14.95,8.6,0.69,14.64-3.76,20.77-7,5.75-3,10.14-1.66,14.54,1.85s4.72,6.18,1.64,11.08a36.73,36.73,0,0,1-3.55,4.8c-2.64,3-3.53,5.21-.24,9s1.27,6.72-3.73,7.11a90.4,90.4,0,0,0-10.85,1.13c-3.44.69-5.32-2.26-6.72-4.94s0.55-4.12,2.69-5.42C110.05,95.23,109.85,88.74,113.21,84Z"/><path class="cls-2" d="M145.6,960.88c-6.79,9.36-17.2,10.5-25.62,14.89-2.21-2.79,2.29-4.21.16-6.7-4,1.8-8.27,3.4-12.21,5.55-4.71,2.57-8.07-.3-10.28-3.18s-1.26-6.59,1.74-9.76c4.48-4.75,10.42-8.15,13.71-14.07-10-6.76-10-8.08-1.27-21.49-10.77-2.61-12.21-5.24-8.77-15.81,0.71-2.18,2.91-4.37,1.92-6.5-1.39-3-1.41-4.84,2-5.77,3.23-.88,6.6-1.51,9.48.85,1.86,1.52,1,3.64.48,5.56-0.78,3.12-3.22,5.72-3,9.5a15.6,15.6,0,0,0,8.29-4.75c2.53-2.65,5.25-2.42,8.21-1.41,5.79,2,6.65,5.19,2.18,9.32-2.91,2.69-6.31,4.86-9.45,7.3a59.12,59.12,0,0,0-4.54,3.8c-1.9,1.81-4.19,3.32-5.11,6.53,4.14,1.62,6.86-.49,9-3.43,2.39-3.26,5.26-3.65,8.73-2.28,4.29,1.69,5.62,4.91,2.71,8.52-3.28,4.07-6.38,8.27-11.2,11.11-7.11,4.19-13.7,9.27-20.46,14a4.42,4.42,0,0,0-2,4.62c3.85,0.7,6.75-1.94,10-3.21,4-1.59,7.81-3.6,11.79-5.24C133.47,954.15,133.49,954.19,145.6,960.88Z"/><path class="cls-2" d="M159.53,855.26a15,15,0,0,1-1.91,0c-12.06-2.51-20.1-10.5-27.36-19.74C127.47,832,124,829,119,824c12,3.22,22,4.89,31.3,9.18,5.85,2.7,9.95,6.48,8.77,13.84C158.71,849.52,159.35,852.23,159.53,855.26Z"/><path class="cls-2" d="M106,427.3c8.77,1.61,17.45.92,25.55,4.19,3.11,1.25,6.81,2.41,7.47,5.91,0.83,4.44,1.33,9.3.36,13.61-1,4.47-8.19,5.27-11.13.84C122.17,442.64,113,436.41,106,427.3Z"/><path class="cls-2" d="M167.34,198.06c-3.71-1.45-7.32-3.58-11.16-4.15-13.41-2-24-8.49-33.68-17.74-7-6.7-14.82-13.06-24.82-15.38,2.85-11.78,2.39-12.77-8.57-17.46a15.08,15.08,0,0,1-1.22,10.74c-12,23.67-23.54,47.66-42.38,67-1.6,1.64-2.88,3.6-5,6.34,12.76-3.1,20.23-10.83,27.3-19.26,5.55-6.62,9-14.74,15.26-20.83l0.13-.21-0.13.2c1,3,4.73,2.2,6.17,4.32,3.33,4.93,8.13,3.43,12.58,3,1.85-.17,4.1-1,4.72-3.08,0.75-2.52-1.07-4.4-2.61-6.09a6.07,6.07,0,0,0-6.39-1.88c-4.7,1.52-9.94.73-14.32,3.45,1.91-7.14,6.67-12.84,9.91-19.32s4.7-6.56,10.41-2.06a139.91,139.91,0,0,1,23,22.11c10,12.53,24,15.88,38.25,19,2,0.45,4.74,1.07,5.55-2.33C170.94,201.55,170.4,199.26,167.34,198.06Z"/><path class="cls-2" d="M121.1,200.07a19.71,19.71,0,0,0-14.4-1.54c-9.34,2.55-16.87,8.63-26.42,11.54,6.41,5,12,4.65,18.09.88,4.46-2.74,8.4-7.06,15.09-7.23-5.32,8.39-10.1,15.95-18.86,19.73-1.39.6-1.72,1.89-1.75,3.27h0c-1.21.17-2.84,1.19-3.42-.58C86.59,217.43,79.08,214.36,71.7,211a2.73,2.73,0,0,0-.29,1.08c0.55,1.91,1.15,3.8,1.75,5.69,3.84,12,8.27,14.7,19.7,12.06,3,3.15,6.88,2.91,10.09,1.32a21.88,21.88,0,0,1,9.48-2.16c4.85-.15,9.22-1,5.6-7.59-1.11-2,.8-2.88,1.8-4,1.53-1.73,3.4-3.23,4.63-5.15C127.88,206.9,126.7,202.74,121.1,200.07Z"/><path class="cls-2" d="M125,1195.84c2.41-2.84,2.89-5.85,1.11-9.18-1.69-3.16-4.07-5.36-7.85-5.12-2.47.16-4.91,0.76-7.88,1.25,2.77-5.73,7.25-9.35,10.7-13.75,4.48-5.71,4.61-5.62-2-9.91-0.84-.54-1.71-1-1.24-2.38,1.12-1.46,2.39-3,3.53-4.61,1.64-2.35,4.57-4.62,1.7-7.78-2.41-2.65-5.45-3.31-9.09-2.28-2.79.79-4.52,4-8.06,3.32-0.94-4.36.94-6.64,5-8.26s8.16-2.72,11.71-5.41c2.64-2,3.68-5.79,1.92-6.68-6.7-3.42-2-6.88-.67-10.2,2-5.16-2.33-14.45-7.69-15.63a3.17,3.17,0,0,0-3.37,1.56,31.85,31.85,0,0,1-3.11,3.89c-8.74,9.38-10.09,9.58-20.08,3.07,2.08,7.5-1.26,16.69,8.4,21.46-2.44,1.7-4.17,2.69-5.65,4a23.17,23.17,0,0,0-4.76,5c-1.42,2.33-1.78,5.14.27,7.43,1.82,2,4.25,1.72,6.44.66,1.76-.85,3.22-2.37,5.41-2.1,1.44,6.46,1.44,6.46-8.31,14.62,1.9,2.57,4.93-.73,7.51,1.64a146.91,146.91,0,0,1-18.81,20.38c-2.59,2.29-4.85,5.11-1.77,8.53,3.23,3.57,5.49-.26,7.4-1.8,3.69-3,7-6.3,12.09-7-10.55,13.19-17.19,29.31-31.44,39.38-2,1.41-2.59,3.87-2.88,6.18s-0.76,4.94,1.74,6.28c2.19,1.17,3.7-.92,5-2.13,7.67-7,13.63-15.4,19.54-23.87,7.21-10.34,7.29-10.29,18.45-8.07a4.27,4.27,0,0,1,.65,1.44c-1.74,3.23-4.78,5.84-7.68,8.36s-2.84,5.06-1.68,8,3.39,3.71,6.46,3.27,6-.32,9-0.58c2.42-.21,5.9,1.48,6.63-2.35,0.54-2.85.26-5.9-2.28-8.3-1.29-1.22-4.23.47-4.34-2.65A61,61,0,0,0,125,1195.84Z"/><path class="cls-2" d="M73.66,1146.22c3-5.75,8.06-10.46,9.17-17.86-4.83,4.3-4.85,4.34-9.6,1.54-7-4.11-13.67-6.07-20.84.14a27,27,0,0,1-12.61,5.63c3.35,2.31,7.4,2.3,11.15,3.23,2.06,0.51,3.85,1,4.44,3.2a3.42,3.42,0,0,1-.77,3.66,2.7,2.7,0,0,1-2.58-.08c-4.78-4-11.1-3.82-16.43-6.26,2,3.9,2.72,8.17,3.23,12.42,0.92,7.67,4,13.41,11,17.53s9.21,4.45,13.41-2.73C67.12,1160.07,70.14,1153,73.66,1146.22Z"/><path class="cls-2" d="M143,1083a27.87,27.87,0,0,0-11.36-3.46c-13-.7-25.08-4.63-37.19-10.25,6.26-8.87,10.74-17.87,8.51-28.83-0.47-2.32-.18-4.89,3.27-4.82,6.42,0.13,9.23-4.65,12.86-8.72-8-4.23-12.8-4.54-20.12-1.19-3.92,1.79-7.69,3.92-11.52,5.9-2.08,3.72-6.26,4.45-10.91,8,2.09-5.68,4.91-8.35,8.41-10.5,1.35-1.46,2.62-3,4.07-4.36,2.11-2,3.38-4.2,1.92-7s-7.74-5.53-10.35-4.11-6.57,2.55-3.91,7.14c1,1.74-.32,3.06-1.28,4.42-3.84,5.43-7.62,10.91-12.71,15.3-1.26,1.09-2.62,2.07-3.77,3.25-3.06,3.14-2.79,6.49-.48,9.94s5.62,1.79,8,.68c4.49-2.07,8.59-5,12.89-7.5,5-2.89,9.94-5.88,16-7.41,0.9,8.35-3.23,14.18-5.87,20.52-2,4.88-5.4,6.26-10.21,5.46-5.07-.85-10.14-1.41-16.46,1.06,6.52,2.12,13.29-.09,17.55,5.55-9.22,10.24-18.61,19.91-34.51,23.63,5.89,1.86,9.21,1.42,12.6-.1,9.43-4.21,18.82-8.55,25.63-16.64,3.2-3.8,6-4.09,10.22-1.63,7.42,4.36,15.27,8,22.74,12.26,7.66,4.38,16,3.87,24.22,3.86,3.61,0,5.16-3,5.93-5.8C148,1084.69,144.93,1084.07,143,1083Z"/><path class="cls-2" d="M123.36,1373c-2.68-4.89-6.32-8.32-11.62-10.06-7.59-2.5-15.24-3-25.3-.36,9.73,2.47,17.35,5.13,21.8,11.15,2.59,3.5,4.92,5.58,8.72,6.69,2.08,0.61,4.45,2.76,6.09,0A7,7,0,0,0,123.36,1373Z"/><path class="cls-2" d="M84,1367.26c-2.85-10.2,2-17.85,8-25.18,2-2.44,4.63-4.31,7.63-4.18,6,0.27,9.13-3.93,13.4-6.88-3.47-5.23-8.15-6.05-13.32-5.3-4.3.63-8.13,2.71-12.14,4.24-11.73,4.49-23.38,9.47-36.35,9-1.08.49-2.14,1-2.3,2.4,8.89,8.22,18.6,3,28.08.94,0.36,7.93-4.88,7.05-12,6.8,6.75,2.85,6.87,5.83,4.07,9.29-1.46,1.8-2.82,3.69-4.35,5.44-6.7,7.69-13.45,15.34-21,23.94,12.23-.86,20.79-6,27.19-14.5,2.16-2.87,3.95-4.68,7.73-4.42,0,6.35,1.5,12.48-3.88,17.15-1.87,1.63-1.15,3.36,0,5.29,1.88,3.24,3.77,1,5.85.48,3.1-.76,4.47-2.45,4.25-5.64C84.44,1379.85,85.73,1373.46,84,1367.26Z"/><path class="cls-2" d="M104.75,559.6c-1.2-10.8,1.45-19.47,11.4-25a6,6,0,0,0,2.23-1.95c1.51-2.54,1.92-4.93-1.33-6.67a10.29,10.29,0,0,0-6.72-1.42c-2.76.55-.6,3.48-1.69,5-0.78,1.12-1.57,2.13-3.78,1.6,0-3.79,0-7.73,0-11.67,0.06-5.49-1.26-11.21,5.16-14.86a3.35,3.35,0,0,0-.93-6.24c-4.05-.92-3.87-3.39-4.59-6.34-2-8.13-4.55-9.51-13-7.75-1.94.41-3.83,1.11-6.35,1.85,8.24,4.42,11.72,9.32,9.91,13.55-1.49,3.49-5.29,3.65-8.22,5-3.62,1.69-5.92-2.55-9.66-3.06,5.51,13.76,6.69,14.54,19.85,13.17,0,5,.06,10,0,14.91-0.13,8.4-6.15,13.16-14.34,11.31a47.9,47.9,0,0,1-5.5-1.94c-1.08-2.12-3.85-4.6-4.91-3.48-2.13,2.28.57,4.28,2.54,5.81,4.86,8.07,10.33,14.9,21.62,9.82,0,5.67.19,10.63,0,15.56-0.37,7.77-.49,7.74-8.7,7.94-2.16.05-4.32,0.25-6.48,0.39l9.95,8.6c2.47,2.13,4.92,5.62,8.49,3.58,3.37-1.93,5.85-5,5.44-9.78C104.61,571.61,105.42,565.53,104.75,559.6Z"/><path class="cls-2" d="M132.52,561.11c-7.21-3.42-15-1.33-22.78-3.89,2.3,3.71,7.31,3.66,8.13,6.3,2.45,7.81,9.83,6.43,14.93,9.12,2.59,1.37,4.29-.18,4.67-3.1C138,565.4,136.51,563,132.52,561.11Z"/><path class="cls-2" d="M72.71,571.56c-4.45.41-3.61-5.69-7.41-6.8a16.19,16.19,0,0,0-.69,4c0.47,4.89.36,10.83,5.48,12.88s7.46-3.72,10.76-6.55l1.39-8.81C78.21,566.88,76.48,571.22,72.71,571.56Z"/><path class="cls-2" d="M80.85,575.13v0.05h0l0.4,0L81,575Z"/><path class="cls-2" d="M149.71,399.63a28.66,28.66,0,0,0-6.93.38c-7.79,1.13-15.56,2.39-23.55,3.63,0.4-4,2.85-6.41,4.48-9.23q7.73-13.34,15.41-26.72c1.35-2.34,2.48-4.52.85-7.41-3.67-6.5-10-9.49-17.38-7.82-7.76,1.77-15.45,4.09-24,2.32a27,27,0,0,0,7.65,10.13c4.55,3.8,3.93,8-1.52,9.75-2.17.72-4.59,0.71-6.89,1a32.37,32.37,0,0,0,3.53,1.36c1.24,0.33,2.59.35,3.5,2-2.49,3.64-4.12,9.47-10.41,4.42-2.78-2.24-4.6,2-7,.43-1.09-2.88-.29-5.79-0.19-8.69-0.72-4.4-1.32-8.73,4.14-10.78a5,5,0,0,0,1.49-1.31c1.41-1.41,3-2.81,2.48-5.1-0.59-2.6-2.79-2.66-4.74-2.44-3.4.4-3.9-1.48-3.73-4.13,0.11-1.66.23-3.31,0.28-5,0.1-2.88-2.14-4-4.18-5s-3.94.18-5.36,1.59c-3.17,3.16-3.44,6.67-1.84,10.94,2.5,6.62,1.28,8.88-5.18,10.8-2.29.68-4.82,0.54-8.14,0.87,4.22,4.8,7.88,8.48,14,7.94,1.48-.13,2.63.13,2.82,1.83a3,3,0,0,1-1.69,3.29c-5.3,2.4-10.64,4.71-16.92,5,2.34,3.35,5.67,4.34,8.28,6.3,3.1,2.33,6.81-.18,11.53,1-7.66,9.24-14.89,16.76-26,19.31,7.94,7.47,10.6,7.6,18.09.44,4.57-4.37,8.74-9.17,13.42-13.41,2-1.76,3.77-4.87,7.41-3.52,0,1.65-2.82,2.4-1,4.31,9-1.7,11.31.16,13.11,11-3-1-5.67-2.36-8.5-2.89-3.84-.72-7.84-2.2-11.66-0.32-1.21.59-4.37,1.82-1.35,4,3.94,2.83,1.93,4-1.09,5.12-9.9,3.83-19.78,7.71-29.7,11.5-2.11.81-4.55,2.48-6.58,0.93-3.41-2.61-3.53-.47-4,2.09-1.06,5.6,1,8.24,6.56,7.89a19.48,19.48,0,0,0,10.83-4.32,61.55,61.55,0,0,1,26-11.68c-7.32,9.5-6,23.72-20.17,26.21,4.16,5.5,4.2,5.6,8.83,3.74,11.29-4.54,18.35-14,21.9-24.45,3.42-10.09,10.32-11.89,18.47-13.47a48.41,48.41,0,0,1,9-.41c9,0,18,0,27,0,1.59,0,3.35.36,4.47-1.34C158.33,407.1,155.21,400.19,149.71,399.63Zm-40.89-.41c-2.08,1.37-4.64,1.21-5.91-1.26-1-1.86.77-3,2.29-3.67,2.28-1,4.64-1.94,8.5-3.52C111.92,395,111.08,397.74,108.83,399.22Zm8.36-22a3.22,3.22,0,0,1-2.25-2.89c0-2.78.79-5.42,0.74-8.34-0.07-3.77,4.78-2.84,9.41-2.86-1.83,4.7-3.24,8.63-4.93,12.44C119.74,376.54,118.93,378,117.19,377.23Z"/><path class="cls-2" d="M60.59,676c-1.67-.32-2.81-3.38-4.73-5.89-3.61,8.4-3.58,15.57-1.45,22.56,2.35,7.69,4.25,7.65,9.86,2.22,3.49-3.38,4.34-5.84,3.18-10.92C66.37,679.31,65.46,677,60.59,676Z"/><path class="cls-2" d="M150.27,652.93c-6.44-1.79-12.9-3.32-19.64-1.17-4.41,1.41-8.93,2.46-13.41,3.68-2.31,2.2-5,2.27-8.32,2.06,1.35-3.16,3.64-3.87,6.12-4.3h0c3.22-2.87,6.55-5.64,9.65-8.63,3.87-3.73,3.68-7.24-1-9.21-5.45-2.31-11.24-4.42-17.14-.84-1,.6-1.87,2.57-3.22,1.22-6.7-6.68-15.79-3.62-24.74-6.54,3.06,3.28,5.53,5.49,7.48,8.09,4.39,5.84,2.82,9.71-4.33,11.45-2.36.57-4.49,0.79-6.5-1.08s-4.12-3.27-6.79-2.57a21.72,21.72,0,0,1-1.78,3.77c-3.68,5-1.88,9.6,1.21,13.73,2.93,3.92,7,2.6,10.92,1.34,2.93-.92,6.09-1.84,11.07.7-8.16,1-13.58,4.65-20.36,4.6,2.57,5.87,6.1,5.32,10.26,3.75,9.63-3.64,19.28-7.25,29.05-10.48,9.13-3,18.45-5.36,28.42-4.68a104,104,0,0,1-12.85,12.65c-1.62,1.37-3,2.4-5.61-.12-5.27-5.14-7.38-4.8-13.92-1-4.76,2.77-9.24,6.17-15,6.55,5.34,4.66,10.82,4.31,18-1.16-3.07,7.79-8.48,8.5-12.5,10.52-3.61,1.82-4.07-3.46-6.66-4.6-1.08-.48-1.92-1.78-3.31-0.58,0.16,5.49-1.38,11.42,4.15,15.52,1,0.72.74,1.78,0.21,2.64-0.86,1.39-2.17,1-3.52.83-6.81-.78-8.65,1.64-5.81,7.83,0.76,1.65,3.29,2.5,2.09,5.13-2.32,1-4.77,2-7.16,3.16-2.2,1-5,1.05-6.65,3.39,3.95,1.08,7.47.23,10.92-1.13,4.11-1.62,5.37.55,5.65,4.15s-0.54,7.45,1.47,10.77c1.87,3.08,3.4,8.37,7.88,2.08a2,2,0,0,1,1.66-.78c5.23,2.42,11.2.42,16.45,2.9,6.2,2.92,8,2.26,9.74-4.21a92.83,92.83,0,0,0,3.07-22.65c0.07-4.81-.43-9.39,6.59-9.22a3.3,3.3,0,0,0,3-3.42,3,3,0,0,0-3.31-3c-5.47.42-8.82-5-13.6-5.06-6.93-.08-3.47-5.29-4-7.75s2.32-4.48,5.63-3.79c16.15,3.36,24.22-7.59,32.3-18.39C154.11,656.5,153.81,653.92,150.27,652.93Zm-47.33-3.51c0.53-5.83,4.94-7.33,7.62-9.91C109.93,643.92,106.91,646.22,102.94,649.42ZM94,725.09c-2.16.51-2.66-1.41-2.75-3.09-0.14-2.76,1.66-3.26,3.86-2.86a15.51,15.51,0,0,1,2.85,1C97.48,723.33,95.89,724.66,94,725.09Zm20,1.4c-6.85-4.3-11.11,4.12-17.06,2.94A7,7,0,0,1,95.13,728c5-5.3,12-6,18.1-8.65,1.27-.56,2.48.43,2.35,2.14C115.44,723.39,115,727.09,114,726.49Zm1-13.41c-8.76-3.5-15.79.58-22.84,3.51-2.27-2.67-.45-3.95,1.32-4.81,4.44-2.16,8.93-4.24,13.51-6.07C115.14,702.49,115.17,702.58,115.09,713.09Zm-0.63-17.87a3,3,0,0,1-2,3.09c-6.66,2.88-13.32,5.71-19.76,9.09-2.63,1.38-3.27-1.06-3.07-3.22a3.86,3.86,0,0,1,1.11-2.56c5.34-3.86,10.65-7.8,16.24-11.28C110.12,688.37,114.44,691.44,114.45,695.22Z"/><path class="cls-2" d="M124.74,775.25c-17,4.33-34.34,7-51.22,11.65-8.83,2.43-17.44,3.84-26.7.32,9.34,19.41,15.37,19.42,38.6,9.54a127.74,127.74,0,0,0-9.21,39.76c-0.56,7.18-3.87,11.71-9.4,15.28-2.45,1.58-5.11,2.86-7.7,4.29,8.93,8,17.45,7.52,24-1.31a46.1,46.1,0,0,0,2.84-5.18Q91,840.44,96,831.29c1.29,8.14,1.31,15.77,1.28,23.4a12.26,12.26,0,0,1-1.52,6.7c-1.2,1.95-3.72,1.74-5.67,2.89,8.15,6.52,7.38,5.8,13.57-.78,9.39-10,11.73-20.57,8.28-33.66-1.31-5-1.26-10.5-2.95-15.51s-0.69-8.72,2.74-12.66,7.24-8,3.42-14.72c6.46,1.07,11.47-2.52,16.81-.71,7,2.37,11-1.29,14.94-6.29C140,774.19,132.08,773.38,124.74,775.25Zm-37,51.35c-1.48-8.39,2.16-13.09,4.71-19.11C95.63,815.24,90.25,819.42,87.72,826.6Zm13.18-30.16c-2.06.28-2.64-1.49-3-2.93s0.78-2.13,2.16-2.26c1.78-.12,3.25.28,3.09,2.44A2.73,2.73,0,0,1,100.9,796.44Z"/><path class="cls-2" d="M76.25,961c2.78-5.82,8.09-11,3-18.11-1-1.35.67-3.06,1.29-4.57,3.55-8.71,3.53-8.71-4.88-14a24.74,24.74,0,0,0,2.18-3.21c1.48-3.1,5.18-6.08,2.3-9.75s-7-4.62-11.63-2.66a97.31,97.31,0,0,1-12.25,4.11c-2.51.68-2.76,1.75-2.52,4.19a22.7,22.7,0,0,1-1.1,7.83c-2.74,10.24-4.77,20.61-6.62,31-1.57,8.9-.5,17.89-0.88,26.83-0.11,2.67.36,6.94,3.71,8.56,3.88,1.88,4.55-3,6.86-3.9a19,19,0,0,0,7.73-5.89c5.65-7,12.35-12.9,18.95-19,6.94-6.38,10-15.11,12.38-23.92C88.62,946.22,84.51,955.19,76.25,961ZM55.43,917.84c4.49,0.08,6.89,4.68,13.37,1.94L55.43,937.33V917.84ZM66.12,947c-1.13,1.14-2.91,1.64-4.05,2.78-2.14,2.14-4.4,4.8-1.82,7.71s4.51-.44,6.51-1.69c1.11-.69,2.12-1.56,3.18-2.35-3,9-6.91,17.46-14.5,25.47-0.7-9.86-1.49-18.24-1.8-26.64-0.17-4.64,1-8.46,6.18-10.9S68.14,933,75.19,931C74.29,938.15,70.38,942.71,66.12,947Z"/><path class="cls-2" d="M62.83,1258.07c-6.11-2.52-5-6.83-5.25-11.33-0.16-3.12,1.42-5.79,1.85-8.72,0.29-2,.16-3.95-1.93-5.22s-4.28-1.72-6.52-.26c-3.23,2.11-3.66,4.42-2.43,8.39,4.57,14.76,4.31,14.83-7.49,23.34-0.72.52-1.13,0.71-1.88-.31-2.52-1.54-.79-5.45-3.31-7.4-9.37,10-7.11,17.86-1.61,27,2,3.28,4.92,4.28,8.39,4.39,3.17,0.09,5.46-1.11,4.32-4.7-2.11-6.64.2-12.1,4.44-17.18a87.72,87.72,0,0,1,.44,25.66c-1.05,8.17-3.31,16.26-2.67,24.61,0.17,2.29.08,5,3.36,5.09,2.89,0.11,4.28-1.81,4.3-4.42,0-7.17,2.39-13.68,5.33-20.06a6.41,6.41,0,0,0,.32-0.93c1.27-4.45-2.56-.53-3.12-1.91a5.25,5.25,0,0,1-.45-1.89c0-8,0-16,0-24,0-1.48.59-2.11,2.05-2.73C66.88,1263.07,67.73,1260.09,62.83,1258.07Z"/><path class="cls-2" d="M129.27,1285.84c-0.52-3.51-3.67-3.3-6.34-3.07a30.7,30.7,0,0,0-13.13,4.23c-2.64,1.55-5.08,4.69-8.83,2.36-2.39.51-1.26,5.09-4.43,4.24s-3.8-4.22-5-6.73,1.71-3,3-4.1c1.47-1.27,3.18-2.28,4.64-3.57,3.9-3.44,6-.66,8,2.25,6.35-5.58,11.23-12.19,13.26-20.49,1.66-6.79-3.86-11.63-10.49-9.15-2.72,1-5,3.18-7.54,4.7-2.9,1.73-5.13,4.83-9.57,5.14,0.92-8.58,1.49-16.36,11.85-18,1.85-.29,3.53-1.73,5.27-2.69,1.39-.77,1.52-2.17,1.28-3.46-0.31-1.71-2-1-3-1.46-4.9-2.35-6.45,4.16-10.6,3.72-1.94-4.3-1.78-9-2.54-13.46-0.84-4.91-3.23-7.73-9.21-6.21,8.27,5.12,4.85,12.57,4.82,19.14,0,5-4.43,3.74-7.32,4.66,1.39,2.1,6.15,2,5.18,5-1.59,5-1,11.49-7.44,14-2-.29-2.79.55-2.51,2.5,1.68,3.33-2.46,4.26-2.86,6.79a3.53,3.53,0,0,0,1.45.77c3.72-.36,5.27,1.48,6,5,0.62,2.88,1.46,5.21-2.73,5.74-0.8.1-.76,1.09,0.46,1.25,7.07,0.92,7.48,7,10.09,11.37-4.81,4.73-11.37,4.33-16.14,8,10.94,7.94,16.7-5.19,26.51-5.67-1.49,5.36,1.15,10.23,0,15.7-0.8,3.83,5.9,10.89,8.17,9.51,3.68-2.23,2.46-6,2.23-9.67-0.45-7.07-5.24-12.73-6-20a86.54,86.54,0,0,1,8.78-2.3c2.92-.46,6-0.08,8.87-0.6S129.86,1289.8,129.27,1285.84Zm-42.07-11.6a20.91,20.91,0,0,0,13-1.15c1.16-2.53,6.56-3.54,4.23-6.73-2.15-2.93-5.25.14-7.54,2s-4.52,4-9.28,2.19c7-8.56,17.42-8.69,26-13.89-0.87,12.24-3.28,15.83-10.34,16.78a3.4,3.4,0,0,1-.52.29c-2.93,1.66-5.9,3.28-8.78,5C89.77,1281.39,88.38,1279,87.2,1274.24Z"/></g><path class="cls-2" d="M58.85,292.43c19.79-5.72,38.62-11.33,57.55-16.56,7.62-2.11,15.43-4,23.36-.83,2.15,0.87,4.27,1.47,5.56,3.76,3.18,5.68,1.7,8.59-4.74,8.9-2.32.11-4.67,0.31-6.85-.7-7.73-3.56-15.47-2.38-23.24-.19-9.83,2.76-20.08,4.42-29,9.8S66.16,297.85,58.85,292.43Z"/></svg>