<svg id="图层_1" data-name="图层 1" xmlns="http://www.w3.org/2000/svg" viewBox="0 0 200 1332.47"><defs><style>.cls-1{opacity:0.05;}.cls-2{fill:#fff;}</style></defs><title>主站</title><g class="cls-1"><path class="cls-2" d="M92.23,817.18c-6.7,7.25-13.17,14.23-19.63,21.23a25.07,25.07,0,0,1-1.93,2.28c-6.05,5.13-12.43,9-20.8,3.93,1.7-3.43,6.14-3.76,8.94-6.2A147.79,147.79,0,0,0,83.36,811c2-2.92,3.24-5.73-3.74-5.61,7.18-3.13,14.19-4.54,14.26-13.12-4.1-1.93-7.86.68-11.05,2.34-6.82,3.55-13,4.3-19.57-.18-1.28-.87-3.15-0.88-4.86-1.31,1.39-2.82,4.11-2.6,6.49-3.32,12.67-3.83,25.8-6,38.08-11.34,5.91-2.56,12.45-1.23,18.7-.18,4,0.67,4.06,3.75,3.89,6.87-0.23,4.42-3.28,3-5.8,2.86s-5.29-.38-7.94-0.38c-1.8,0-4-2-5.34.38-1.1,2,2.43,1.6,2.3,3.57-0.42,6.22-4.6,10-9.25,14.18,7.09,4,5.72,11.38,6.31,17.41s1,12.44,1,18.69c0.05,12.88-4.72,15.77-16.59,10.18-0.86-.41-1.77-0.72-2.71-1.09C95.55,842.54,97,832.41,92.23,817.18Z"/><path class="cls-2" d="M144.5,836.74c-6.65,3.2-12.9-.54-19.27-1-3.25-.22-0.54-1.34.18-2.46,1.21-1.89-.93-2.43-2.16-2.9-3.37-1.31-6.82-2.4-10.21-3.64a2.94,2.94,0,0,1-2.23-2.88,4.06,4.06,0,0,1,2.66-3.8c7.79-3.46,28.37,5.61,31.21,13.8C145,834.74,144.57,835.82,144.5,836.74Z"/><path class="cls-2" d="M86.71,1285.8c-1.36.82-2.14,2.55-3.45,3.5-4.24,3.1-7.58,7.52-12.92,9-4.91-7.73-2.49-13.26,4.52-18.14,4.33-3,8-6.94,11.87-10.62,1.61-1.55,3.64-3.28,2.37-6s-3.71-2.53-6-2.34c-2.11.18-5.38-.75-5.62,2.45-0.46,6-4.93,9.18-8.08,13.34-1.6,2.11-2.84,4.51-4.56,6.49-2.31,2.65-5.44-2-8.23.66,2,5.08,1.64,10.41,2,15.69,0.43,6.44-1.71,12.46-2.24,18.73-0.48,5.73.67,10.24,6.49,12.76,6.26-5.37,5.87-12.79,6.56-19.47,0.59-5.66,2.8-8.46,9.45-9.07,0.53,7.23-.17,14.07,3.57,20,1,1.55,1.48,4.25,4.15,2.61,1.79-1.09,2.38-2.9,1.25-5.12a108.46,108.46,0,0,1-5.44-11.7c-2.27-6.16-1.17-8.72,4.4-12.19,2-1.22,4.33-2.12,5.77-3.81,2-2.31,6.6-4.65,3.95-8S89.79,1284,86.71,1285.8Z"/><path class="cls-2" d="M121.37,1270.78c-1.9.48-3.72,1.25-5.61,1.9-1-6.54-1-6.54-5.2-10.86,1.83,8.86-2,15.41-6.62,21.56-2.33,3.06-2.09,5.86,1,7.57s3.7-1.74,4.83-3.5a30,30,0,0,0,2.58-5.37c1.72-4.44,5.5-6.52,9.43-8.41,2.51-1.21,5.11-1.69,7.41.54a6.59,6.59,0,0,1,1.43,7.42c-1.76,4.68-4,9.15-8.25,12.22-1.26.92-2.68,2.43-4.08,0.24s-3.34-2.84-5-1.47c-2.17,1.76-2,5.9-1.16,7.08,8.55,12-.07,19.51-6.57,27.65-1.24,1.55-4.13,1.77-4,4.65,3.89,1.25,6.65-.15,9.34-2.44,7.4-6.28,9.59-14.8,10.13-23.86,0.22-3.65,1-6,4.47-8,5.16-2.88,7.92-8,9.42-13.56C137.73,1273.6,132.08,1268.06,121.37,1270.78Z"/><path class="cls-2" d="M129.79,1312.53c6.32,3.24,8,9.38,12,13.76,3.69,4,8.79,4.5,11.15,2.64,5.73-4.54,8.44-1.26,11.93,3.47C163.16,1319.11,150.51,1312.11,129.79,1312.53Z"/><path class="cls-2" d="M107.12,930l-0.25-.16a2.91,2.91,0,0,0,0,.39l0.22-.19-0.22.2,0.37,0.2c0-.15-0.08-0.29-0.11-0.44h0Z"/><path class="cls-2" d="M134.27,939.75c-0.4-2.61-.42-5.28-0.58-7.92-0.93-15.54-1.12-31.08-.92-46.65,0.11-8.34-1.94-9.75-9.87-12.32-5.55-1.8-9.63,1.07-14.29,2.4-9.32,2.67-18.78,4.95-28.81,9.28,5.26,3.56,9.37,1.84,13.35.82,5.77-1.48,11.42-3.45,17.22-4.78,7.16-1.64,7.83-1.23,9.11,5.95,2.57,14.41,2.53,29,2.64,43.59,0,1.79.7,4.09-1.53,5.41-4.9-.5-9.11-2.85-13.36-5.08,1.42,6.09,7.52,9.43,9.06,15.8,0.9,3.73,10.51,5.69,14.31,3.75C134.81,947.83,134.91,943.9,134.27,939.75Z"/><path class="cls-2" d="M108.76,927c8.39-7.47,9.37-13.73,4.22-23.29-2-3.79-4.38-4.82-7.86-2.19-1.45,1.09-3.56,1.63-3.9,3.9,2.14,2.26,5.32-3,6.72.67,0.83,2.16-1.21,4.24-2.93,5.88a45.74,45.74,0,0,0-4.18,4.28c-2.74,3.41-2.21,6.94.57,9.9,1.46,1.56,3.59,2.48,5.47,3.65C106.94,928.58,107.83,927.85,108.76,927Z"/><path class="cls-2" d="M101.77,896.09c5.77-1,3.56-6.11,5.13-10.2-7.52.07-12.52,6.47-19.8,4.45C90.37,897.71,96.21,897.06,101.77,896.09Z"/><path class="cls-2" d="M97.51,910c-3.61,2.66-6,1-8.32-1.09-1.22,17.69-.88,18.55,8.7,19.23C93.53,922.12,94.82,916.19,97.51,910Z"/><path class="cls-2" d="M70.91,905a0.94,0.94,0,0,0-.7-0.22c-1.24.37-1.12,1.46-1.11,2.4,0.14,11.88.69,23.78-2.09,35.5-0.66,2.77.37,5.2,2,7.41,3.42-.86,2.21-3.55,2.14-5.66-0.48-12.9-.74-25.79.4-38.67A4.81,4.81,0,0,0,70.91,905Z"/><path class="cls-2" d="M73.71,933.64c-1.09,5.54-.68,10.79-0.58,16,3.29-.44,3.76-2.82,3.76-5.5C73.71,941.43,77.15,936.63,73.71,933.64Z"/><path class="cls-2" d="M76.68,929.42L77.07,910C72.76,916.39,74.67,922.9,76.68,929.42Z"/><path class="cls-2" d="M103.53,683.32l0.06-.08-0.25.22,0,0.08v0l0.2-.14s0-.1,0-0.15Z"/><path class="cls-2" d="M102.76,669.61l0.62,0.59c2-.67,2.64-1.81,1.1-3.55-2.51-2.83.69-3.29,1.94-4.06,1-.6,3.75-1.91,3.5.77-0.43,4.52,1.73,2.43,3,1.38,2.36-2,6.79-2,6.63-6.45a2,2,0,0,0-1.05-1.53c-5.71-.18-10.41-1.38-10.8-8.54,0-.26-5.44-0.81-8.76,1.25,1.62,2.77,1.19,5.62.38,8.53C98,662.53,99.55,666.35,102.76,669.61Z"/><path class="cls-2" d="M117.55,699.42c10.43,2.73,20.12,7,31.79,8.47C142.19,695.3,128.58,691.77,117.55,699.42Z"/><path class="cls-2" d="M138.67,720.44c-5.53-3.44-11.71-4.17-19.21-4.58,1.9,3.63,4.75,4.88,6.52,7.28,2.39,3.24,6.24,4.62,10.58,4.46,2.17-.08,4.07-0.11,4.79-2.41S140.39,721.51,138.67,720.44Z"/><path class="cls-2" d="M96.24,683.45c0.44-4,5.26-5.28,5.38-9.34,1.81-.75,1.9-2.28,1.76-3.91l-0.62-.59a4.91,4.91,0,0,0-3.87,4.26c-1.85,1.83-3.47,4-5.6,5.41-2.88,1.89-3.2,4.81-3.92,7.59A3.72,3.72,0,0,0,91,691.15c1.66,1,3.06.37,4.39-.82,2.61-2.32,5.26-4.59,7.9-6.87C101.21,677.34,98.38,686.33,96.24,683.45Z"/><path class="cls-2" d="M118.81,681.23a14,14,0,0,0-2.33,1.78c-0.75.86-2.86,1-2.23,2.39s2.31,0.88,3.54.34a7.39,7.39,0,0,0,1.5-1.18c3.53,0,6.16-2.29,8.8-4.06a6.67,6.67,0,0,0,1.14-10.27c-3.38-3.37-6.36-2.63-8.57,1.52-4.78,3.44-10.79,2.8-16,4.81-1.3,2.12,1.69,5-1.12,6.82,0,1.29-.54,3.07.08,3.63,4.75,4.3,2,8.7-.24,12.34-4.56,7.34-11,13.21-17.21,19.16-3,2.91-7.46,3.38-9.84.55a6.76,6.76,0,0,1,1.14-9.44c3.48-3.07,3.28-7.61,2-11.92-0.59-1.92.12-5.5-4-2.12-1.31,1.08-4.47-5.65-2.35-7.11,2.5-1.72,3.12-3.65,1.72-5.8-1.73-2.65-.23-4.37,1-6.29s2.85-3.74,3.84-5.82c2.19-4.58-1.08-11-5.72-11.71-3.48-.51-13.07,3.52-16.75,7,3.56,1.63,7.73-.52,11.34,1.52-1.28,4.86-4,8.5-6.93,12.23-3.26-2-4.09-8.79-10.12-5.11,1.68,2.41,3.4,4.67,3.84,7.8,0.73,5.24,3.68,9,9.15,9.81,3.56,0.53,3,3,3,5.17,0.22,8.3-1.8,16.57-.4,24.89a4.6,4.6,0,0,1-2.5,5c-2.74,1.69-5.18,4-9.24,4.5,0.78-8.33,8.84-17.3-1.9-24.75-0.2,9.14-1,17.68-7.17,24.63a4.75,4.75,0,0,0-.89,1.76c-1.27,4.22,1,7.09,4,9.37,4.12,3.11,3.81-1.95,5.32-3.32a15.23,15.23,0,0,1,5.78-3.69c6.63-2.06,13-4.64,20.32-4.3,2.66,0.12,9.8.93,5-6.38-1.74-2.62,1.12-3.3,2.82-3.93,4.73-1.77,9-4.06,12.48-7.93,1.77-2,3.26-4.71,7.47-5.73,0,6.24,0,11.49,0,16.75,0,2.66.11,5.37,1.52,7.73a3.52,3.52,0,0,0,3.31,1.8c1.82-.09,2.17-1.43,2.17-2.72,0-3,.15-6-0.5-8.91-2.9-12.74-3-25.71-3.38-38.65-0.16-5,1.49-5.95,8.64-5.69C118.58,678.37,118.87,679.87,118.81,681.23Z"/><path class="cls-2" d="M97.94,721.35c-3.06.76-3.19,2.9-2.2,5.38,1.26,3.14,3.05,6,6.82,5.81,1.06-.05,2-2.26,2.93-3.37-0.7-1.79-1.83-3.31-1.79-4.81C103.81,719.15,100.64,720.68,97.94,721.35Z"/><path class="cls-2" d="M107,543.92c0.37-1.49.29-3.21,2.05-4h0c3.05-4.72,6-9.51,9.19-14.13,1.88-2.71,4.25-5,5.57-8.19,1.48-3.54.29-7.11-2.75-7-6.41.19-10.08-2.62-13-7.65a1.58,1.58,0,0,0-2.54.05c-3.76,16.14-3.76,16.14,7.36,16.67-1.29,7.33-6.09,12.43-10.82,17.37-3.89,4.06-4.63,8.15-2.79,13.27C103.93,549.86,103.94,545.11,107,543.92Z"/><path class="cls-2" d="M139.92,531.62c-7.76.67-13.8,5.82-20.88,8.31h0c2.27,4.69,6.76-.2,10,2.7a31.46,31.46,0,0,1-.58,13.1c-0.32,1.38-.53,3.57-2.91,3.06a8.19,8.19,0,0,1-3.55-1.64c-1.82-1.58-.16-2.84.7-4.16,0.69-1.06,2.07-1.74,1.76-3.87-5.76,1-7.77-5.72-12.93-6.72,2.38,2.81.73,3.75-2.07,4.16-0.79,3,3.61,4,2.9,6.95s-3.81,3.37-6,4.61c-1.42.8-2,1.9-1.38,3.19a3.05,3.05,0,0,0,2.31,1.36c2.12,0.06,4.88-1.57,5.16,2.33,0.22,3,.29,5.88-3.33,7.47-4.49,2-8.77,4.4-13.16,6.64,2.26,3,4.73,1.81,7.36,1.34s4.48-3,7.88-1.82c0.7,11.44,2.35,23.1-10.39,30.24,9.18,4.43,15,2.21,17.73-6.58a32.1,32.1,0,0,0,1.05-6.88c0.49-6.28,1.1-12.57,1.21-18.86,0.08-4.93,3.07-8.55,6.95-8.14,7.56,0.8,7.74-4.49,9.32-8.89,2.54-7.08,2.71-14.84,7.6-21.31C147.42,534.56,144.7,531.21,139.92,531.62Z"/><path class="cls-2" d="M86.55,541.63a3.87,3.87,0,0,0,2-5.06c-0.8-2-2.72-2.83-4.79-3.12-2.48-.35-4.41.72-6.4,2.15-1.65,1.19-2.09,4.46-6.06,3.14,1.5-7.12,10.79-8.78,11.77-15.76-3-3.18-6.5-.75-9.15-1.4-5.18-8.16,6.56-9.24,6.62-14.8-3-2.75-5.08,2.36-7.88-.47a49.56,49.56,0,0,0-.34-20.25c-0.86,5.24-3.24,10-3.16,15.37,0.17,11.63-.09,11.64-10.91,15.81-1.12.43-2.65,0.28-2.73,2.19,4.12,1.12,8.26.27,12.08-.91,3,10.3-5.89,10.92-11.19,14.51,3.9,1.91,7-.54,10.75-0.49-0.41,2.12-.16,4.29-1.09,5.13-8.93,8-14.49,19.67-26.62,24.16-2.72,1-5.23,2.62-4,7.18,13.79-3.05,23.24-12.4,34.59-20.68-2,5.69-4.11,10.2-5,14.94-1.86,9.75-5,19.31-4.61,29.43,0.14,3.29.11,6.52,5.19,7.16,2.46-11.13.94-22.56,4.55-33.4,1.35,4.37-.55,9.29,2.42,13.34,1.95,2.66,4.42,3,6.1.13,1.07-1.81.36-4.77,4.66-5.18-1,3.16-3.6,6.1-2.27,9,1.23,2.69,2.24,5.22-.56,6.88-2.47,1.47-4.87-.38-7.1-1.82-1.1-.71-2-2.64-4.48-1,3.47,4.52,6.8,9,10.28,13.29,1,1.23,2.22,2.69,4.13,2.34,2.38-.44,2.52-2.79,3.37-4.47a5.41,5.41,0,0,0,.19-2c0.84-12.55,1.31-25.11.35-37.67-0.23-2.95-.27-6.62-2-8.59C81.76,546.7,81.69,544.18,86.55,541.63Zm-8,20c-2.19-2.38-6.74-2.75-4.36-7.39,0.41-.79,1.85-1.94,2.16-1.77C79.94,554.49,79.4,557.75,78.54,561.6Z"/><path class="cls-2" d="M113.91,309c-4.44-2.42-8.92-1.92-13.54-.54-3.44,1-6.26,3.85-10.75,3.52,0.3-3.47-1.56-8.26,3.18-9.22,11.65-2.36,13.66-12.51,18-20.75,2-3.77-.53-6.23-4.1-7.55A10.74,10.74,0,0,0,98,275c-2.46,1.13-4.89,3.47-8.11,1.94,1.7-2.92,4.15-5.07,5.3-8.44,3-8.93,3.3-8.87,12.75-7.9,1.64,0.17,3.22.82,4.86,1,2,0.25,4.27.42,4.58-2.35,0.25-2.22-1.16-3.75-3.14-4.58a7.57,7.57,0,0,0-5.8.25c-2.74,1-5.56,1.82-9.07.92-0.24-4.78,2.63-9.05,2-13.68a2.76,2.76,0,0,0-3.68-2.32c-3.22.79-.31,1.88-0.14,3,0.27,1.8-.41,3.76-0.74,5.64-1.68,9.42-8.21,16.55-11.82,25.06-4.25-1.92,1.81-5.24-1-7.36-1.12.64-2.22,1.32-3.37,1.9a1.77,1.77,0,0,1-.89-0.32c-0.38-7.21,1.89-15.54-7.72-19-1,4.8,1.06,10.19-2.52,13.57s-9.21,1-14.2,1.48c2.63,5.84,6.2,8.83,12.49,8.39,5.21-.37,8.46,2.62,9.75,7.68-3.19,7.13-3.4,7.17-16.38,2.89,2.79,7,5.14,13.3,7.88,19.48,1.59,3.58,3.45,7,8.62,3.7,1.49-1,4.66-1.75,6.48.16,2.17,2.28.4,4.85-.21,7.36-0.65,2.68-2.66,3.58-4.72,4.6a0.24,0.24,0,0,0-.14.05c-3.32,1.24-7,2-9.84,3.91-3.8,2.53-6.7,2-9.75-.78,0.73,4.46-1.42,7.33-5.1,9.44-0.25.15,0,1.12,0,1.73,2.46,1,3.84-2.31,6-1.7,2.22,3.25,2.41,6.92,3.28,10.41a3.17,3.17,0,0,0,3.63,2.63,4.14,4.14,0,0,0,3.6-2.95c0.91-2.72-.13-5.17-1.35-7.56-1.11-2.18-4.22-3.34-3.45-6.44,4.07-3.05,9.44-3,13.22-6.34,3.07-.81,4.62.52,3.94,3.51-1.5,6.57,1.75,10.54,6.79,14.3,3.43-5.49,6.9-10.34,4.7-17-1.8,1.11-2.94,4-5,2.34-1.4-1.17-1-3.8-.05-5.63a4.51,4.51,0,0,1,2.33-1.66c3.07-1.15,6.14-2.33,9.3-3.2,7.33-2,9.15-.69,9.31,6.67A40.11,40.11,0,0,1,106,339.29L95.27,335.5a22.57,22.57,0,0,0,6.24,8.73c5.13,4.88,10.65,4.27,13.39-2.32,2.65-6.38,5.26-12.93,6-19.95C121.53,315.45,119.68,312.16,113.91,309Zm-19-27.85a5.79,5.79,0,0,1,5.78-.1c-0.34,1.29-.74,2.48-1,3.7-0.78,4.29-4,2-6.21,2.32-1.67.27-2.33-.52-2.37-2.12C91.08,282.36,93.16,281.95,94.9,281.16ZM92.73,292.8a2.92,2.92,0,0,1,3.72.09,14.67,14.67,0,0,1-1.95,2.94c-0.82.77-2.07,1.89-3.17,0.61C89.81,294.65,91.49,293.69,92.73,292.8Zm-14.8,1.8c1.43,3.11,4.62.71,6.58,3.08-1.81,3.5-5.09,4.07-8.43,4.35-1.22-1.23-1.07-2.55-1.26-3.85-1.5-10.38-1.53-10.37,9.8-13.52C87.46,291.28,83.67,293.69,77.93,294.6Z"/><path class="cls-2" d="M134.11,1218.51a42.06,42.06,0,0,0-6.77-1.22c-4.84-.5-9.7-0.84-15.77-1.34,9.21,9.47,12.48,10.66,22.05,8.55,1.55-.34,3.49-0.19,3.47-2.52A3.61,3.61,0,0,0,134.11,1218.51Z"/><path class="cls-2" d="M139.93,1191.92c-0.45-.82-1.19-1.91-2-2-2.26-.41-4.6-0.38-6.91-0.59-5-.46-8.9,3.67-15.3,4.27,0-11,0-21.28,0-31.53,0-3.66-.37-7.26,3.66-9.5,1.68-.94,1.79-3.4-0.26-3.75-5.64-1-3.86-5.1-4.13-8.38-0.63-7.6-2.47-8.89-11.08-7.67,7.91,3.05,6.25,11.1,5.77,16-0.64,6.51-9.2,6.82-14.15,10.46-3-8.19-3-8.19-8.12-11.79,0.65,1.83,1.2,3.32,1.69,4.83,3,9.16,3,9.13-6,13.32-2,.93-4.6,1-5.6,3.79,4.47,1.51,8.36-2.49,12.84-1.12,2.28,9.73-1,19.5-.18,29.37,0.8,9.53.18,9.6-8.44,13-5.53,2.18-11.07,4.31-16.74,6.51,2.41,3.85,4.75,2.83,7.33,1.57,5.06-2.47,10.22-4.73,15.32-7.12,1.56-.73,3.14-1.4,4.43.27,1,1.25.21,2.48-.53,3.59a66.55,66.55,0,0,0-4.83,7.49c-0.66,1.37-2.87,3.34.83,5.49a42.1,42.1,0,0,0,8.64-14.8c1.45-4.31,3.12-8.55,6.67-11.69,7.09-3,8.35,3.57,11,7.26,3-1.41,3-3.61,3.19-6.06,0.36-6.31,1.3-7.1,7.61-7.07,2.32,0,4.64.43,7,.55s4.73,0.24,6.44-1.81C138.84,1193.88,141,1193.8,139.93,1191.92Zm-30.51,2.48c0.73,5-5.15,4.15-6.5,7.28l0.14,0.06-0.25.18c0-.09.07-0.16,0.11-0.24-2.28-1-5.9,3.1-7.16-1.88-1.67-6.59-.47-10.47,3.82-12.65,2.7-1.37,8.4-1.59,6.79-5.28-2-4.6-6.19-.07-9.42.69-0.32.08-.66,0.11-1,0.16-0.57-4.1-2.46-8.71,4.37-9.58a2.77,2.77,0,0,0,2.37-3.69c-0.47-1.36-2.06-1.24-3.43-1.29s-3,2.42-4-.13a3,3,0,0,1,1.67-4.16c4.21-1.65,7.38-5.52,11.69-6.2,2.56,1.89,1.78,4,1.88,5.93C111.06,1173.89,107.93,1184.07,109.42,1194.4Z"/><path class="cls-2" d="M99.84,1056.68a4.56,4.56,0,0,0-.89,6.23c1.5,2.11,3.41.44,5.22-.23,6.27-2.31,9.15-8,13.09-12.66,2.95-3.49,1.86-6-1.56-8s-6.68-2.64-10.16-.19-7.21,4.86-10.82,7.29c3,3.83,6.41,3.25,10,3.36C103.69,1055.51,101.24,1055.42,99.84,1056.68Z"/><path class="cls-2" d="M61.2,1051.74c0.3,10.08,1.5,11,12.62,8.59-6.39-7.69-1.18-18.94-9.44-27.1C61,1039.85,61,1045.79,61.2,1051.74Z"/><path class="cls-2" d="M148.31,1019.92c-1.74-3.18-4.25-7.13-9.39-5.28-2.51.9-5.05,1.68-7.78,1.09-8.77,3.67-18.15,4.35-27.39,5.79,7.84-7.55,17.3-8.69,27.4-7.34,2.6-7.93,1.11-13-4.82-15.72-2-.91-3.52-1.58-5.22,1.72-3.33,6.49-9.88,9.53-16.31,12.44-1.51-3,1.5-5.61,1.21-5.72-5-1.84-8.12-8-14.81-6.85,0.93,2.32,1.18,4.66,2.48,5.87,4.46,4.16,2.59,6.29-1.71,8.92-5.3,3.24-10.62,6-18,5.73,3,3.55,5,6.6,9,7.19,3.92-4.19,7.47-8.79,13.08-11.12-1.82,6-6.58,9.36-11.33,12.74-4,3.06-8.15,5.74-13.77,5.58,5.42,8.72,6.14,9.23,11.81,3.52s12.4-9.09,19.36-11.82a65.65,65.65,0,0,1,33.21-4c-2.58,6.41-7.26,9.92-11.55,14.7,8.43-.86,14.15-5.85,20.86-8.39C148.1,1027.69,150.33,1023.6,148.31,1019.92Z"/><path class="cls-2" d="M123.65,1063.9c-3.13.71-6,2.76-8.9,4.26-6,3.1-11.08,8.21-19.08,9.33,0-4.1.06-8,0-11.83s0.62-7.88-2.85-12.42c-0.92,1.77-1.6,2.54-1.73,3.4-2.22,13.82-2.84,27.61.4,41.42,1.91,8.12,4,9.21,11.2,5.06,2.88-1.66,5.79-3.25,8.66-4.91,3.35-1.93,5.68-1.81,8.14,2,3.14,4.8,5.92,4.67,10.07.81,2-1.89,2.69-4.47,3.79-6.88,2.7-5.93,1.65-12.42,3.24-18.5C139.68,1063.74,131.63,1062.09,123.65,1063.9Zm-23,17.62c2.82-.47,5.17-6.47,8-2.12,2.6,3.94-2.93,4.95-5.15,7-1.44,1.31-3.36,2.08-5.38,3.28C95,1084.91,95.47,1082.38,100.61,1081.52Zm0,15.84c-1.38-.48-2.43-4.9-1.2-5.51a67.77,67.77,0,0,1,8.94-3.74c1.34-.44,2.41.57,2.37,2.21C110.63,1093.64,103.72,1098.45,100.57,1097.36Zm27.57-11.54c-1,2.18-1.41,2.31-11.23,3.73,0-2.72-.05-4.73,1.45-6.33,1.1-1.16,2.8-1.87,2.86-4-0.88-2.74-3.24-.75-4.87-1.1a6.89,6.89,0,0,1-4.14-2.47c0.21-2,1.94-2.54,3.32-3,3.81-1.26,7-5.6,11.66-2.91C128.92,1070.69,129.47,1083,128.14,1085.82Z"/><path class="cls-2" d="M148.64,96.24c-3,3.9-6.6,3.12-10.14,3.43-7.69.68-14-3.45-20.94-5.11-15.91-3.8-31.22-9.89-48-11.43,2.3-6.21,6.1-10.51,8-15.84,1.06-2.95,2.68-7,.92-8.44-5.14-4.25-1.25-7,.44-10.49,2.79-5.67,5.54-11.35,9.71-16.2,1-1.21,2.19-2.54.92-4.36-1.07-1.54-2.66-1.78-4.33-2-2.92-.46-4.14,1.51-5.34,3.57-1.46,2.5-2.27,5.68-6,5.91-1.07-8,.06-15.28,7-20.46-2.59-2.14-4.59-.53-7-1,0.24-2.14.51-4.37,0.74-6.6,0.31-3-1.32-5.05-3.59-6.63a3,3,0,0,0-3.71.23c-1.56,1.42-.22,2,0.62,3.46,4.61,8,2.39,14.26-5.51,18.41-1.52.8-4.16-.08-4.58,2.66,3.56,1.11,7.08.29,11-.18,0.51,4.13.59,8-2,11.39-0.59.76-2,1.89-1.94,2,4.32,6-1.9,6.16-4.48,8.2-4.54,3.59-10,5.48-16.38,7.92,6.84,4.56,11.13.44,15.27-2.23,5.85-3.77,11.32-8.14,17-12.25-2.89,8.71-7.06,16.14-14.6,21-3.41,2.18-3.74,4.71-2.24,8.08,3.06-.61,4.12-3,5.93-4.32,2.06-1.55,3.58-4,6.53-4.17,1.77,9.16-2.38,17.2-10.86,21.6-3.6,1.87-8.63,2.65-7.51,10.47,9.68-8,19.12-6.55,29.59-3.34,13.34,4.09,26.13,9.68,39.56,13.44a86.32,86.32,0,0,0,18.52,3.45C148.1,106.72,149,105.54,148.64,96.24Z"/><path class="cls-2" d="M116.77,53.07c0,1,0,3.4,1.89,2.17,5.74-3.68,6.36,1.9,8.85,4.39s4.76,8.1,7.81,5.89c4.21-3,.06-6.87-2.83-9.5-3.12-2.84-3.33-5.24-1.33-9.35,4.48-9.16,3-18.2-3.13-26.93-0.48,1.2-1,1.86-.88,2.32,3.11,10.74,2.25,20.2-8.24,26.76A4.77,4.77,0,0,0,116.77,53.07Z"/><path class="cls-2" d="M93.55,30.73a12.41,12.41,0,0,0-.83,6.79c1.16,8.84-4.4,12.83-11.1,16.16a3.66,3.66,0,0,0-.7,1.16c2.23,3.64,5.44,5.95,10,5.87-0.1,3.19-2.48,5.41-1.35,8.2,0.86,2.12,1.4,4.57,4.1,5.19,3,0.7,4-1.54,5.06-3.66,0.86-1.79,1.6-3.64,2.41-5.46,0.91-2,1.32-5,4.38-4.3,2.48,0.58,1.68,3.26,1.73,5.09,0.14,4.65,0,9.3.06,13.95a48,48,0,0,0,.17,6c0.27,2.07,1.27,4,3.69,3.83,2.94-.24,2.24-2.68,2.11-4.55-1.27-18.15-2.31-36.32-4-54.43-0.56-6-.44-10.63,5.53-13.82,1.83-1,2.93-3.52,3.37-6-6.65-5.37-12.67-1.26-18.27,1.85-3.53,2-6.66,4.35-11.25,4.18C94.93,20.13,96.68,24.45,93.55,30.73Zm2.64,5c-2.25-2.55,1-4.73.69-7.27-0.23-2,.93-4.29,3-4.54,2.9-.35,4.72,1.64,5.79,4.34C107.6,33,107.16,38,106.8,42.9c-0.15,2.11-1.62,3.13-3.29,2.68-2.68-.71-5.8.35-8.35-1.86,1.57-4.84,7.65-3.64,9.83-7.87C102.07,32.2,99.06,37.1,96.18,35.74Z"/><path class="cls-2" d="M151.16,431.86c-7-3.88-14.76-5.71-22.3-8.12-2.62-.83-4-1.85-4-4.69,0.14-10.38-1.49-11.86,9.41-13.8,2.42-.43,4.7-1.66,7.19-2.58-5.21-6.81-5.53-6.91-13.36-4.54-5.49,1.66-5.89,1.08-5.89-4.27,0-4.56,3.23-7.55,4.89-11.23-6.79-3.39-7.44-4.16-5.14-9.66,1.58-3.78,3.47-7.12-.13-10.79-10.28,4.38-5.16,14.34-7.86,24.06-4.22-6.56-8.94-9.34-13.42-12.26,0,4-.06,7.86,0,11.67a31.44,31.44,0,0,0,.6,5,8.27,8.27,0,0,0,4.38,6.31c3.34,1.64,3.49-2.12,5.11-3.34s3-2.61,5.17-1c4,3.06,3.62,10.45-1,12.25-8.37,3.27-16.35,7.83-26,7.87,3.94,11.67,11.58,3.62,17.38,4.15,0,1.48-2.21,2.56-.53,4.57,3.75-2,6.15-6.41,12-7.66C111.27,429.72,99,439.1,87.7,449.43c6.57-.42,11.76-3.61,16.76-7.23s7.95-10,14.14-14c0,3.86,0,6.5,0,9.14,0,11.74-1,12.89-12.44,14.94-1.59.28-3.06,1.11-4.82,0.28s-2.32.41-2.41,1.89c-0.11,1.69-.09,3.43,2.26,3.5,6.3,0.19,12.61.56,18.91,0.43,5.4-.11,6.77-2.62,6.22-8.61-0.62-6.79-.77-13.62-1.19-21.83l19.76,12.16c3.47,4.4,8.53,5.88,13.81,7.48C155.82,442.35,155.54,436.14,151.16,431.86Z"/><path class="cls-2" d="M78.45,405.11c-5.23-4.65,2.28-8.87,2.36-13.66a10.31,10.31,0,0,1,2.65-6.3c1.35-1.68,1.8-3.65.44-5.48-1.8-2.41-4-1.26-6.25-.53-9.15,2.91-16.07,9.44-25.29,14.42,4.27,1.64,7.35,2.79,10.39,4,3.87,1.55,6.08-3,9.94-2.81A101.88,101.88,0,0,1,60.75,421a52.48,52.48,0,0,0-3.27,4.94c-1.9,4,0,7.47,3.14,9.48s4.45-1.5,6.06-3.46c2.07-2.52,3.75-5.58,8.41-5.41,0.25,8.3-1.35,15.72-7.93,21.36-1.82,1.56-2.36,3.32-1.07,5.13s3.55,1.65,5.4.65a10.85,10.85,0,0,0,5.89-8.71c0.31-3,0-6,.38-8.94,0.86-6.77.4-14.11,8.46-19.09C79.23,415.21,82.46,408.68,78.45,405.11Zm-11.2,19,6.46-16.32C78.22,418.13,78.08,418.47,67.25,424.07Z"/><path class="cls-2" d="M154.22,167.1c-19-3.2-35.55-12.65-52.89-20.15-3.27-1.41-4.35-3-3.73-6.78,1.4-8.54.46-9.34-9.55-11,0.18,3.24.31,6.4-.92,9.5-1.73,4.36-6.63,1.52-9,4.32,1.77,1.83,4.86-.39,6.39,2.57-9.4,21.53-22,41.22-39.46,58.07,5.22,1.53,8-1,11.11-3.74,9.75-8.58,17.44-18.91,25.63-30.59,1.43,5.32,4.08,7.68,8,9.34,4.13,1.74,4,3.72.1,6.27A37.5,37.5,0,0,1,83.71,188c-1.23.51-3,.53-2.91-1.24,0.2-3.93-1.59-3.3-2.79-1.07-3.55,6.59-1.34,9.74,6.79,10.36-4.53,8.67-3.08,17.23.59,25.7,1.52,3.52,4.71,4.53,7.13,2,4.57-4.74,10.56-4.62,16.12-6.19,4-1.12,8.77-.17,11.74-4.19-4.87-6.09-5-6.14-3.89-9.47,1.21-3.54,2.51-7.22-.43-10.23-3.45-3.54-7.46-1.34-11.1.08a64.83,64.83,0,0,0-7,3.72l-11.84,6.42c-2.09-3.28,1-5.45.57-8,6.17-6.59,14.23-9.69,22.67-11.82,2.9-.73,4.83-1.35,5.24-4.72s-2.25-4.83-4.08-6.3c-3.48-2.79-5.23,2.87-8.49,2.47,2.92-6.76,2-7.13-.09-16-1.66-7.07-5.31-4-8.86-3.55-1,3-6.64,5.25-.89,9.3,1.52,1.07-.92,3.46-2.59,4.39-1.27.71-2.91,2.21-4.32,0.66-1.23-1.35-2.76-3.2-1.07-5.17,2.47-2.88,2.5-7.46,6.52-9.22h0c0.39-2.72,1.74-5,3.67-7.36,8.8,4.49,18.15,8,26.36,13.65a72.51,72.51,0,0,0,20.48,10.12c6.84,2,13.76,4.78,21.19,2.68C162.91,168.66,158.68,167.85,154.22,167.1Zm-65,40.17c7.3-1.72,13.1-6.94,21.63-10.3-2.21,9.54-4.78,16-13.72,17.76-4.52.91-7.59-.28-9.1-4.34C87.46,208.87,87.82,207.6,89.21,207.27Z"/></g></svg>