<svg id="图层_1" data-name="图层 1" xmlns="http://www.w3.org/2000/svg" viewBox="0 0 200 1349.48"><defs><style>.cls-1{opacity:0.05;}.cls-2{fill:#fff;}</style></defs><title>主站</title><g class="cls-1"><path class="cls-2" d="M131.74,704.79c-2-1.09-4.52-1.56-6.28-3-2.5-2-6.73-3.34-6.35-7.07,0.4-3.9,4.89-3.77,7.8-5a15.89,15.89,0,0,1,4.9-.75c2.31-.16,4.89.21,5.13-3.18,0.29-4-2.61-5.41-5.62-5.63-4.17-.3-8.23,1-12.76,3.62,1.31-3.18,2.39-5.15,2.93-7.27,1.19-4.61-1.18-7.09-8.59-10-4.68-1.82-5.79.87-6.41,4.53-5.27,1.64-7.15,7.65-12.85,9.85a22.39,22.39,0,0,0-4.11-8.75c11.08-6.3,21.93-10.9,34.27-10.43,3.44,0.13,4.6-1.66,4.64-4.92s-1.44-5.11-4.58-5.24c-3.95-.16-7.93-0.76-11.81.81-8.89,3.62-17.83,7.14-26.75,10.69-12.44,5-24.72,10.37-38,12.91,12.24,8.71,24.41,3.63,36.37-1.31,2.41,14.74,1.47,17.84-7.09,24.53C74.29,695,73.93,689.61,69,686.5l-1.36,13.35c-2.83-6.6-7.4-8.22-14.25-9.17,3.08,5.58,3,10.52,3.67,15.33,0.77,5.33,1.83,10.39-1.73,15.21-1.06,1.43-.06,3.36.84,4.68,2.77,4.09,5.39,8.52,11.58,8.48,2.49-7.85,3.91-15.82,1.4-24.65,2.45,1.51,4.3,2.75,6.24,3.83,7.23,4,10.95,2.73,14.42-4.59a17.15,17.15,0,0,0,1.36-6.75,33.76,33.76,0,0,1,10.34-22.88c2.14-2.15,5.58-4,5.25-8l-0.16-.16,0.16,0.16c1.53,0.33,4.56-1.49,3.78,2.24-0.7,3.34-3.1,5.84-5.37,8.26s-4.29,5-4.53,8.61c-0.33,5,2.56,8.65,7.13,8.78,7.88,0.23,7.89.22,9.1,7a40.12,40.12,0,0,1,.93,10.79c-0.57,6.46,2.07,11.53,9.11,13.78,2.52-4.84,4.87-9.41,8.27-13.52C139.58,712,138.2,708.22,131.74,704.79Z"/><path class="cls-2" d="M158.67,324.83c-19.5-2.77-36.37-12-53.4-21-5.31-2.81-10.07-6.76-16-8.42h0c-4.77-2.36-1.61-5.52-.28-8,3.5-6.39,7.28-12.62,10.8-19,1.86-3.36.81-6.43-1.59-9.15s-5.37-2.22-8.19-.85c-2.07,1-4,2.37-6.57,4,7,2,5.09,6,2.89,10C74.64,294,62.42,315.31,44.15,333c9,1.54,13.61-4.46,18-9.45C69,315.89,75,307.5,81.08,299.21c2.08-2.83,4.06-5.26,8-2h0c0.4,0.32.91,0.58,1.29,0.9,15.74,13.36,32.31,25.6,51.19,34.1,9,4,18.93,4.91,28.84,5.51C170.86,328.41,165.34,325.78,158.67,324.83Z"/><path class="cls-2" d="M134.65,1156a82.17,82.17,0,0,1-9.27-3.61c-2.14-1.11-5.36-1.15-5.84-4.44,2.07-5,9-4.42,11.4-10.35-3.38-.82-5.95-1.41-8.5-2.06-1.57-.4-3.54-0.42-3.9-2.47s1.54-2.45,2.95-3.25c3-1.74,6.89-2.5,8.53-6.19-3.19-6-8-4.32-12.65-2.63-1.35-3.86-.56-7,0.54-10.23a10.91,10.91,0,0,0-.86-8.7c-1-2.06-2.75-2.67-4.9-2.72-2.73-.06-2.78,1.81-3.43,3.82a24.27,24.27,0,0,0,.28,17.23c0.74,1.83,2,3.69-.78,4.94-3.45-7.6-4.17-8-13.77-7.33,4.72,3.91,6.35,7.71,1.2,12.23-2.06,1.81-.15,4.59,1.15,6.28,1.7,2.2,3.45,0,5.14-.78,2.71-1.25,5.46-2.38,8.15-3.55,1.56,3.58,4,7,2.16,11.11-1.41,3.16-15.89,10.92-18.83,9.43-2.17-1.1-3.15-2.57-3,.89,0.35,6,5.39,8.83,10.55,6.07,2.35-1.26,4.38-3.13,8.15-5.89-5.73,11.45-12.81,19.27-19.47,29.12,12.63-4.35,16.34-16.45,25.68-22.79,1.89,19.48,1.89,19.48-9.13,24.58,12.63,1.14,14.74-.82,15-12.88,0.1-5.87-1.63-11.74-.19-18.34a98.56,98.56,0,0,1,18.48,15.18c3.47,3.68,7.49,5.86,12.81,5C150,1163.7,143,1159.13,134.65,1156Z"/><path class="cls-2" d="M83.07,1113c-2.13.41-3.21,2.27-4.76,3.47-6,4.67-10.87,10.76-18.5,14.2,8,3,12.63-3.82,20.1-5.32l-13.17,20.48c-1.26,2-2.88,3.76-3.69,5.89-1.86,4.84.63,7.94,5.81,7.11,3.85-.62,7.59-1.92,12.42-3.2-2.39,13.25-.42,27.09-12.21,36.74-0.5.41-.37,1.93-0.14,2.82,0.3,1.15,1.23.83,2.24,0.67,5.56-.88,8.76-3.88,10.13-9.46,3.8-15.5,7.59-30.95,3.23-47h0c-0.89.17-2.54,0.26-2.57,0.53-1,9.1-1,9.1-11.76,12.1,2.71-7.21,6.84-12.91,10.42-18.88,2.44-5.08,4.9-10.15,7.31-15.24a3.19,3.19,0,0,0-.25-3.71A4.76,4.76,0,0,0,83.07,1113Z"/><path class="cls-2" d="M143.92,848.3c-7.84,1.36-15.84,1.86-23.69,3.17-14.18,2.35-28.31,3-42.47,0-2.12-.44-5.36.52-5.11-3,0.23-3.26-1.31-7.76,3.88-8.95,2.26-.52,4.63-0.62,6.53-2.19h0c3.88,1.53,5.9-2.15,9-3.24,1.78,3.55,3.77,6.89,4.25,11,0.59,5.1,5.45,5.81,9,6.23,3.39,0.4,4.48-3.38,5.07-6.38,1-5.11,2.68-10,1.36-15.55-1.08-4.54-.22-9.55-0.22-15.31,3.53,3.93,6.23,7.77,9.76,10.56,2.23,1.77,4.71,6.62,8.05,3.47,2.49-2.35.77-6.81-.3-10.15-0.45-1.41-2.11-2.47-3.33-3.57a17.72,17.72,0,0,0-10.79-4.76c-4.47-.23-5.52-2.36-5.84-6.24-0.43-5.27.53-9.18,6.57-10.26a18.07,18.07,0,0,0,5.52-2.24c3.44-1.95,6.86-10.76,5.32-14.06-2.31-5-6.24-1.71-9.55-1.56-1.33.06-2.66,0.15-4,.22h0a11.07,11.07,0,0,1-1.24,1.51c-1.54,1.33.05,5.62-3.52,4.61s-1.48-4.25-1.3-6.62c-0.71-5.55-2.09-11-1.84-16.68,0.14-3.11-1.65-4.31-4.34-5.66-7.56-3.81-11.46,1.36-18.23,6.68,8.86-1.29,10,3,11,8.23,1.14,5.91.17,11.86,1.28,17.73,0.58,3-1.31,4.75-4.08,5.92-6.06,2.58-12,5.4-18,8.13h0c-2.18-.66-4.89,3.42-6.82-1.92C63.7,791.64,57.76,790,52,792.29c-3.72,1.48-7.15,3.69-11.29,5.87,9,4.08,16.84,8.55,26.17,4.37,1-.44,2.52.38,3.81,0.61h0c6.4,6.64,14.11,3.08,21.94,2.1a27.72,27.72,0,0,1-3.74,11.64c-3.34,6.08-6.9,12-10.36,18-2.56.74-4.54,4.67-7.85,1.28-2-2.08-6.94-1.77-5.32-6.86,0.75-2.38-.86-3.7-3.08-4-2.81-.35-5.71-1.53-9.1.8,3.78,2.24,4.62,6.48,7.72,9.09,4.31,3.63,3.64,8,2,12.76s-5.15,5.64-9.46,5.34c-1.92-.13-4.28-0.95-4.33,2.16,0,2.31,1.67,3.52,3.83,3.85,2.64,0.4,5.46.78,7.71-1,4.88-3.76,9.9-2.65,15.14-1.08,17,5.13,34.69,5.63,52.25,5.62,10.49,0,20.19-3.36,26.77-13.33C151,848.75,147.77,847.64,143.92,848.3Z"/><path class="cls-2" d="M139.74,459.42c-2.06-.13-4.37,2.57-6.25-0.57,1.14-6.61,4-13.69-6-20,4.27,7.8,1,13.14-1.13,18.41a58.75,58.75,0,0,0-3.43,9.22c-0.77,3.43,1.12,5.75,3.6,7.59,3.19,2.37,4.68-.73,6.56-2.33,2.19-1.87,3.67-5,7.29-4.33,2.47,0.46,5.3.68,5.26-2.47S143.29,459.65,139.74,459.42Z"/><path class="cls-2" d="M74.26,408.5c-2.31,1.8-4.94,3.25-6.74,6.14,6.67-1,13.14-1.79,18.63-5.75,1.76-1.27,4.57-2.25,3.48-5.14-0.93-2.44-2.64-4.6-5.64-5-4.08-.48-7.82.39-11.94,3.42C76.64,403.29,78.38,405.3,74.26,408.5Z"/><path class="cls-2" d="M58.66,424.77h0l0,0-0.13.19c1.89-7.82,6.66-14.28,10.16-21.33,1.83-3.68,5.7-7.89,2.56-11.21-3.41-3.61-7.93.35-11.82,1.89-1.81.72-4.09,1.06-1.77,3.77s0.18,5.07-.69,7.39c-3.72,9.93-7.92,19.65-13.74,28.58-4.25,6.52-8.45,13.08-13.67,21.15,9-3.53,13.91-9.21,18.52-14.94,3.86-4.8,7-10.17,10.45-15.3h0.18c0-.08,0-0.15,0-0.24h0Z"/><path class="cls-2" d="M118.8,461.07c0-4.23-3.5-8.94-.26-12.5,4.19-4.62-3.12-4.89-2.36-8.82,1.19-6.15.92-7.11,7.36-8a47.11,47.11,0,0,0,6.8-1.4c3.1-.94,5.61-2.45,4.09-6.44s-4.75-3.18-7.47-2.15c-2.39.9-4.5,2.53-7.2,2.44-2-7.22-2.18-13.86,4.47-17.71,0.49-2.32-.61-2.73-1.46-3.09-1.82-.77-4.06-1.14-3.71-3.84s2.42-2.63,4.48-2.69c1.57,0,3.35.26,4.85-2-1-3.07-2.88-5-6.8-5.34-6.23-.53-11.53,1.88-19.16,9.61a34.79,34.79,0,0,1,4.31,0c2.08,0.28,5-1.16,5.81,2.1,0.63,2.48-.6,4.5-2.54,6.1-0.77.64-1.45,1.37-2.16,2.08-4,4.05-4.79,9-5.18,14.57-0.36,5.22,5.46,4.51,6.13,8.45-1.39,3-4.51,4.49-7.12,6.36-5.31,3.8-10.1,10.64-17.88,3.75-1.25-1.11-3.73,1.59-5.56-.32,0.45-3,3.13-4.08,4.81-6,3.12-3.56,2.81-4.49-1.85-5.39a35.38,35.38,0,0,0-3.76-.33c0.24-.95.2-1.82,0.59-2.13,2.59-2.06,4.49-4.47,2-7.53-2.17-2.62-4.91-1-7.25.18-4.43,2.26-8.9,4.28-14,4,0.23,3,3.31,2.45,5,3.6,5.87,4.06,6,6.39,1,11.24-3.86,3.74-8.61,5.86-13.9,8,6.16,3.39,11.72,4.58,18.85.8-4.09,6.7-9.06,9.5-14.48,11.8,4.16,2.83,8.64,3,14.4,1.47-3.36,6.54-6.52,11.32-11.1,15.31-4.43,3.85-4.23,5.72-.67,9.89,3.16,3.7,6.26,3.12,9.37.19,2.15-2,4.5-3.79,6.29-6.29,3.36-4.69,8.2-7.7,13.27-10.29,1.75-.9,4.21-2.38,5.44-0.57,2.76,4.05,8.11,4.32,10.83,8.51a30.49,30.49,0,0,0,7.84,7.55c4.86,3.52,9.28,1.55,9.95-4.41a41.75,41.75,0,0,0-.47-8.92C119.83,469,118.78,465,118.8,461.07ZM105.63,422.5c-0.81-6.43-.81-6.43,6.86-10.68-0.76,4.27-2.95,6.44-4.46,9C107.58,421.53,106.5,421.9,105.63,422.5Zm3.09,2.42c0.39-.81.85-1.79,2.15-1.43a1.67,1.67,0,0,1,1.46,1.91,2,2,0,0,1-2.66,1.81A1.62,1.62,0,0,1,108.72,424.92Zm-8,22.7c2.7,7-3.86,10-6.52,14.66a28.52,28.52,0,0,1-2.23,2.86c-2.83-2.85-6.46-3.55-10.83-2.78,1-5.33,4.85-8.06,6-12.23a4.15,4.15,0,0,1,4.64-2.88c3.65,0.61,5.87-2.67,9-3.59,3-3.06,6.43-5.52,10.13-6.53,2.36,0.84,2,2.34,2,3.55,0.62,11.9.6,11.9-10.25,6.42ZM112,478c-3.21,1.38-6.18-1.1-9.24-3.58,4.55-5.15,5-12.26,10.41-18,1.79,4.55,1.72,8.59,1.55,12.62C114.62,472.26,115.59,476.43,112,478Z"/><path class="cls-2" d="M62.35,145.88c-2.28.54-4.46,1.5-6.77,2.29,2.5,3.7,8.7,2.87,9,7.64,0.32,5.41.36,11-2.32,16.33-2.61-16.61-2.61-16.61-13-20.27a16.89,16.89,0,0,1,6,15.15c-1,11.1,1.29,22.55-4.26,33.24-2.6,5,.06,11.35,4.4,14.14,1.74,1.12,3.77,1.54,5.62.31a3.73,3.73,0,0,0,1.32-4.46c-1.44-4.42-1.15-8.92-1.36-14a42.4,42.4,0,0,0,4,3.6c2.56,1.75,5,.87,5.14-2,0.24-6.15,3-11.53,4.27-17.34a7.31,7.31,0,0,0,.05-3.94c-2.49-6.36-2.54-6.33-2.14-8.14,0.87-3.89,2-7.75,2.52-11.68C76,147.72,71.39,143.72,62.35,145.88Z"/><path class="cls-2" d="M134.78,164.33c-1.83.7-3.31-.36-3.86-2.07-0.78-2.38,1.35-2.51,2.81-3.08,4.52-1.77,9.58-2.64,12.32-7.38-5.22-7.81-8-8.73-16.29-5.68-5.43,2-10.23,5.73-16.09,6.59-2-5.95-2-10,4.93-11.9,6.14-1.68,8.55-8.06,12.14-12.72,1-1.29.5-4-2.74-3.52a13.43,13.43,0,0,0-6.5,2.2c-2.73,2-5.07,4.77-8.73,5.72-1.16-8.6.85-16.54,0.31-24.5-0.16-2.38,1.17-6-2.8-6.29-3.5-.24-3.69,3.29-4.45,5.71a16.94,16.94,0,0,0-.92,5.82c0.17,3,3.52-2.74,3.56,1.06,0,5-.7,10-0.18,14.93,0.66,6.14-1.67,9.33-7.57,10.27h0c-4.06.07-7.75-2.68-13.09-1.87,3.8,3.3,7,5.24,11.07,5.52h0c9.26,1.3,10.72,2.86,9,9.64a6.31,6.31,0,0,1-4.36,4.89c-5,1.65-9.89,3.57-14.87,5.27-4.33,1.48-6.69-.13-6.12-6.14-4.25,4.34-3.77,7.38-1.3,10.71,3.58,4.82,8.4,4.53,13.46,3.62,1.49-1.45,5.06-1.88,5-1.64-0.61,5.43,6.65,3.09,7,7.31,0.09,1,.36,2-0.57,2.58-4,2.35-8.1,4.56-12.93,4.09-2.5-.25-1.79-2-1.19-3.62,1.45-4-1.6-2.16-3.09-2.35-2.13,11.05,1.27,14.41,11.91,11.43a107.06,107.06,0,0,0,11.12-4.27c3-1.21,5.64-3.41,9.89-3.06,1.41,8.59.95,17.09,0,25.56a10.41,10.41,0,0,1-2.43,5.35c-1.75,2-4,3.91-6.34.32-4.44-6.88-12.36-7.25-19.81-11.53A68.38,68.38,0,0,0,105.9,216c-1.35,2.07-3.62.61-4.38,2.54,4.29,3.15,8.58,5.89,14.1,6.92,12.13,2.25,17.29-1.44,17.46-14.07,0.12-9-.55-17.93-0.67-26.89-0.12-8.58,0-8.59,8.32-11.18,3.91-1.22,4.85-4.3,2.18-7.29C140.65,163.52,138,163.11,134.78,164.33Zm-17.49,8.78c-2.67.23-2.62-2.23-2.57-4.14,0-1.61.31-3.51,2.41-3.43,2.56,0.11.93,2.47,1.64,3.38C118.59,170.67,119.23,172.94,117.29,173.11Z"/><path class="cls-2" d="M69.69,617c-2.26-2.62.1-6.75-4.23-9.89a27.47,27.47,0,0,0-.88,4.12c-0.27,6.48,2,11.41,5.73,12.52C75.86,625.4,79,622,81.58,618c1-1.47,3.57-2,2.73-4.8C79,612.77,75.17,618.24,69.69,617Z"/><path class="cls-2" d="M111.12,599.4c-5.52-2-5.15-6.1-4.81-10.48,0.37-4.73,4.36-3,6.86-3.79,1.24-.41,3,0.09,3.85-0.63,1.88-1.68,4.17-3.61,3.75-6.44s-3.35-1.11-5-1.95c-2.95-1.53-6.68.66-9-1.51-2-10.34-1.61-20.34-2.22-30.27-0.19-3-1.38-6.81,2.46-8.8,4.33-2.24,3.46-4.32-.21-6-2.46-1.11-2.26-2.93-2.13-4.93,0.14-2.32.44-4.65,0.41-7-0.07-6.33-3.15-8.17-8.81-5.14-1.71.91-3.06,2.49-4.84,4,5.86,1.43,5.48,6.06,4.88,10.24-0.92,6.4-7.2,4.29-10.87,6.77-2-12.05-2.5-12.49-13.64-11.91a12.55,12.55,0,0,1,4.16,7.22c1.58,6.51,1.83,9-5.63,11.09-5.31,1.46-10.36,3.9-15.86,6,7.78,5.28,15.39,4.19,23.71,1-1.29,8.55,4.21,16.6-2.88,23.68-1.27,1.26.48,3.38,1.53,5.19,4.36,7.5,1.51,14.7-6.66,17.41-5.63,1.87-11.4,3.34-17.44,5.09,5.32,2.45,10.66,5,15.7,2.37,6.08-3.19,11.44-3.16,16.57.65,1.77-1.92,1.66-3.62,1.62-5.27-0.05-2.82,1.48-4.34,4.07-4.8s3,1.61,3.87,3.48c1.07,2.39,2.12,5.37,4.11,6.66,6.37,4.13,3.69,7.83.23,11.85a27,27,0,0,0-2,3.27A82.06,82.06,0,0,0,116,613.15c5.11-1.45,6.19-5.08,2.47-8.7A21.7,21.7,0,0,0,111.12,599.4ZM87.58,541.58L96,538.22A7.5,7.5,0,0,1,97.22,544c-0.13,1.88.73,4.57-1.36,5.31a27.72,27.72,0,0,1-8.68,1.1c-1.44,0-2-1.53-2-2.93C85.12,545.15,84.76,542.7,87.58,541.58ZM85.85,559.8a2.11,2.11,0,0,1,1.91-2.72,2,2,0,0,1,2.46,2c-0.46,1.89-1.39,3.24-3.21,3.22C86.61,562.27,86,560.71,85.85,559.8Zm10,21.4c-2.18,1.93-4.57,3.95-8.52,3.64-0.43-8.87,1-10.76,6.61-9.5C97.15,576,98.29,579.1,95.9,581.21ZM96,567.27a1.5,1.5,0,0,1-1.91-1.5,3.08,3.08,0,0,1,2.5-2.69c1.2-.26,1.66.56,1.85,1.59A2.62,2.62,0,0,1,96,567.27Z"/><path class="cls-2" d="M137.73,1269.88c-3.16-3.29-6.32-4.82-10.45-2-3.51,2.44-7.06,4.79-11.19,5.75-1.84-2.39-2.34-5.84-1-6.72,4.44-3,4.55-8.24,7.07-11.5,4-5.19,2-7.45-1.22-10.67-0.75-1.42-2.25-2.08-3.32-3.27,2.38-.68,4.78,1.81,7.07-0.14,4-2.89,9.06-1.53,13.45-2.84,0.67-3.69-.92-5.69-4-7.25-7.86-4-13.58,3.18-21.1,4.07,0-2.62.14-4.87,0-7.09s-1.57-3.44-4-3.43c-7.24,0-11.22,5.72-8.6,12.42a29.49,29.49,0,0,0,1.91,3.48,362.34,362.34,0,0,0-40.54,17.33c9.65,2.22,10.37,2.53,16.36-1.61,7.66-5.3,15.92-9.3,24.37-13,2.31,3.22,3.52,6.17-.19,9.52-4.65,4.21-6.79,5.23-11.53,3.54-1-.36-1.48-0.56-2.27.26-3.84,4-4.34,12.21-.93,16.59,1.33,1.71,3.12,2.63,5.22,2,2.44-.71,2.25-3,2.26-4.94,0.06-8.18,2.19-10.56,11.54-12.55,0.66,7.15-7.89,6-9.85,10.63,1.77,1.15,3.55.22,5.06,0.66,2.72,0.8,5.83,1.25,6.32,5.13s-1.89,5.29-4.81,6.46l-8.79,3.56c5.2,3.74,9.58-2,14.59-.58-1.12,4.54-5.05,4.43-7.82,5.73a96.06,96.06,0,0,1-10.26,3.76c-3.07,1-5.44-1-8.56-3.95,2.69,9.3,5.55,11.19,12.39,9.47,4.86-1.22,9.21-4.3,15.71-4.57-6.41,6.93-13.68,10.23-20.22,14.14,6.89,6,13.15-1.76,20.32-1.94,0.13,7.14.13,13.73-.35,20.38-0.57,7.72-3,14.2-9.3,18.95-2.56,1.07-5.6,1.16-7.55,3.68,4.52-.23,9.19,1.1,13.11-2.17,5.55-2.69,8-6.9,8.83-13.25,0.92-7,.68-13.94,1.05-20.9,0.28-5.23-.3-10.75,7-12.1,1.25-.23,3.1-2.36,3.06-3.55-0.19-5.68,4.92-7.53,7.58-11.05,1.55-2,3.85-3.55,5.31-5.84C142.09,1276.38,140.89,1273.18,137.73,1269.88Zm-20.79,13.85c-2.73-1.09-2.58-3-.62-4.25,2.31-1.5,5.1-2.26,8-3.5C123.2,1284.68,122,1285.76,116.94,1283.73Z"/><path class="cls-2" d="M130.78,1029a11.11,11.11,0,0,0-2.93-.54c-3.53-.66-8.07-0.21-10.33-2.27-3-2.73-.4-7.58-0.78-11.5a3.63,3.63,0,0,1,0-1c0.94-5.06-1.64-7.52-6.29-8.15-2.36-.32-4.92-1.75-7.52.85,4.12,0.75,6,3.27,5.83,7-0.24,5.23,1.39,10.75-1.62,15.59-1.34,2.16-4,2.25-6.33,2s-2.08-2.45-2.11-3.92c-0.12-6.45-3.83-9.65-9.62-10.87-3.11-.66-6.32-0.83-9.75-1.25,1.37,4,4.06,5.36,7.26,6.81,3.67,1.66,4.18,5.78,4.08,9.48s-3.6,3.11-5.88,4.14c-8,3.62-16,3.23-24.07.66-0.74-.24-1.22-0.52-1.82.26-1.24,2.27,2.31,3.83,1.09,6.21-2.23,2.2-4.31-.7-6.48-0.25-2.44,5-1.44,9.87,1.72,14,3.82,5,8.44-1.54,12.86.16a69,69,0,0,0,.91,8c0.8,3.51,1.17,7.33,4.44,9.74s4.49-1.83,6.93-2a8.35,8.35,0,0,1,1.93.35c11,1.79,21.7-1.28,32.58-1.4a13.13,13.13,0,0,0,5.6-1.82c3.16-1.66,3.31-4,.53-6.17a22.16,22.16,0,0,0-4.44-2.12h0c-9.58-1.22-18.1,3.48-27.22,4.94-11.79,1.89-14.84-.73-13-12.76,0.26-1.71.71-3.23,2.54-3.87,3.69-1.28,6.79-4.26,11.12-3.87,1.54,3.63-.3,7.29.35,10.86,0.55,3,1.67,6.55,4.75,6.73,2.89,0.17,3.67-3.25,3.91-6a14.18,14.18,0,0,1,.78-2.39c3.51,3.75,7.25,7.2,10.64.35,0.31-1.61.25-3.42,1-4.8,2-3.78.71-9.48,4.49-11.66,3.62-2.09,8.34-.37,12.62.42,3.18,0.59,7.2.41,8.27-3.55C138.1,1030.64,133.53,1030.39,130.78,1029Zm-24.35,13.7c-0.28,3.46.29,7.66-4.22,8.74-3.18.76-3.86-1.6-3.32-3.67-0.14-6.46,1.22-8.43,5-8.3C106.22,1039.55,106.57,1040.95,106.43,1042.69Z"/><path class="cls-2" d="M134.59,959.11c-3.32-.08-6.85-1.54-10,0.28-0.87.5-1.22,1.13-2,.05-2-2.76-1.52-8,1.24-9.82,1.94-1.25,4.3-1.84,6.26-3.05,2.34-1.45,2-4.17-.65-5.16a10.69,10.69,0,0,0-3.89-.54c-1.52,0-3.52,1.31-4.12-1s1.19-3.57,3.22-4.26c0.94-.32,2-0.45,2.88-0.82,1.57-.63,3.12-1.45,2.71-3.54a4.44,4.44,0,0,0-3.4-3.3,8.61,8.61,0,0,0-3.9-.17A3.17,3.17,0,0,1,119,925.5c-0.72-1.83.45-3.08,1.91-4.09,2.72-1.89,5.41-3.85,8.14-5.73a2.69,2.69,0,0,0,1.08-3.44,3.15,3.15,0,0,0-3.12-2c-3.11,0-5.74,1.46-8.16,3.35-4.89,3.82-9.81,7.59-15.63,12.08,1.45-12.29,8-20.53,14.93-28.57,1.8-2.1,3.85-4.18,2.41-7-1.57-3.05-4.89-3.06-7.91-3.21-3.19-.17-4.8,2.74-7.25,4.22-2.68-9.69-4.22-11-12.77-10.55,4.24,3.87,4.24,8.15,2,12.76a51.74,51.74,0,0,0-3.37,8.26c-1.62,5.8-.12,9.44,5.83,12,2.55,1.09,1.76,2.42,1.49,3.62a93.09,93.09,0,0,0-2.34,17.74c-0.39,13.66,2.42,27.12,2.16,40.76-0.06,3.14,1.47,5.83,3.33,8.18,1.68,2.12,3.89,4,6.79,2.12,2.4-1.59,1.77-3.84.85-6.23-1.17-3-3.93-5.46-3.39-10.06,5.94,0.7,11.49-1.72,17.36-2.47,3.59-.46,7.1-1,10.84-0.47,2.28,0.34,5.92-.33,6.1-3.42S136.91,959.17,134.59,959.11Zm-27.71-29.72c2.52-.66,4.52-0.46,5.71,2.13,1,2.21,0,3.82-1.78,4.94s-3.91,2.14-7.71,4.18C103.66,935.34,100.81,931,106.88,929.39Zm2,12.17c1.89-.22,4.31-1.36,5.13,1.11,0.67,2,1.15,4.75-1.4,6.21s-5.17,2.56-8.61,4.23C103.29,947.1,102.13,942.35,108.89,941.56Zm4,23.43c-2.43.8-4.74,2.25-8.51,1.81,0-1.93,0-3.18,0-4.44,0.19-5.92,3.35-8.11,8.74-6.13a2.73,2.73,0,0,1,1.85,3C115,961.38,115.81,964,112.9,965Z"/><path class="cls-2" d="M76.53,949.43l-0.07,0v0.09Z"/><path class="cls-2" d="M76.5,949.14l0.11,0.1Z"/><path class="cls-2" d="M76.73,949.21h0v0Z"/><path class="cls-2" d="M80.83,926.83c-2.11-1.82-4.26-1.29-6.5-.28-1.46.66-2.78,3.37-4.64,0.43-1.55-2.46-1.35-4.12,1.6-5.43s5.49-4.45,2.27-6.74c-3.63-2.58-2.9-3.81-.77-6.55,1.59-2,2.4-4.71,3.44-7.15,0.92-2.14,1.9-4.33-.4-6.34a6,6,0,0,0-6.57-.88c-2.67,1.14-5,3-7.48,4.58,7.75,2.62,7.76,2.63,4.51,9.48-0.43.9-1.08,1.7-1.45,2.61-1.77,4.31-4,6.75-9,3.67-2.78-1.69-5.2.39-8.23,2.25,2.9,1.72,5.29,2.51,6.73,4.14,2.46,2.78,10.36,2.29,6.08,9.41,0.46,0.26.9,0.54,1.37,0.76,4.27,2,4.69,2.67,2,6.29-3,3.95-5.93,8-10.25,10.75-2.4-2.46,3.38-4.27.08-7.08a91.4,91.4,0,0,1-10.84,12.54c-4.39,4.23-2.78,9.95-1.81,15.11,0.36,1.91,2.32,3.1,4.54,3.25,2.57,0.17,3.28-1.62,4.09-3.53,1.53-3.61,2.78-7.43,6.45-10.27,0.36,2.42.1,6,1.07,6.34,7.74,3,3.4,8.5,3.09,13.1-0.11,1.63-1.08,3.23-1.09,4.84A6.93,6.93,0,0,0,65,989.19c4.54,0.92,3.07-3.15,3.48-5.37a16.86,16.86,0,0,1,3.22-7.23c5.29-6.92,7.07-14.84,7.1-23.32-0.66-1.29-.11-3.26-1.83-4-0.18.22-.36,0.44-0.54,0.66-0.73,6.58-3.49,12.23-8.7,17.77-0.52-8.61,1.95-14.53,8.76-18.26,0-.11,0-0.22,0-0.33l0.18,0.06c-0.43-2.33-.25-4.46,2-5.95,1.2-3.08,2.37-6.17,3.62-9.22C83.38,931.28,83.2,928.87,80.83,926.83ZM63.79,957a2.65,2.65,0,0,1-2.89,2.12c-2-.29-2.68-1.7-2.7-3.52,0-4.14,3.68-5.88,5.84-10.82C65.25,950.57,64.72,953.82,63.79,957Zm5.27-6.87c0.6-8.28.2-14.91,7.57-19.84C78.14,938.58,73.45,943.27,69.05,950.11Z"/><path class="cls-2" d="M164.7,97.12c-10.38-7.65-20.78-15.26-32.59-20.76-10.54-4.91-10.3-5.41-7.16-16.43,2.06-7.25,6.27-14.45,1.58-22.59,2.85-.19,4.83-0.2,6.78-0.49,1.53-.23,2.07-1.34,1.76-2.87-1.24-6.24-7.89-10.86-13.25-8.36-8.46,3.95-16.55,8.66-24.81,13.06,1.92,3.56,5.42,3.92,7.29,6.22,0.93,1.15.4,2.39-1.12,3.07L106,48.43c0.75-5.25,5.55-6.07,9.11-8.09,3.3-1.87,4.95-.28,5.05,3.26a48.61,48.61,0,0,1-4.11,21.32c-4.37.48-6.7-3.68-11-2.74,1.65,1.57,2.67,3,4.07,3.78,5.26,2.84,5.86,6.47,2.72,11.38C109,81.81,107.09,87,103.71,91c-4.44,5.21-7.66,13.28-17.92,9.52,6.39,9.31,10.57,9.74,16.69,2.6a40.15,40.15,0,0,0,4-5.73c4.38-7.4,9.29-14.48,12.9-22.77l6.85,4.49c11.41,7.45,22.3,15.62,33.06,24,1.56,1.21,3,3.73,5.95,1.68C168.51,102.41,168.76,100.11,164.7,97.12Z"/><path class="cls-2" d="M88.24,86.68c-0.45-4.26-1.67-8.43-.77-13,3.31-.21,8,4.25,9.71-2,1.42-5.14,4.26-9.62,6.06-14.54,1.1-3,.15-9,0.15-9S97.61,60.95,91.31,64.22c2.83-9.55,2.75-9.72-6.62-13.69-1.2-.51-2.43-1-3.65-1.43,2.91-1.33,5.82-2.68,8.74-4,3.3-1.47,1.83-3.48.66-5.47-1.65-.13-3.41-1.54-4.89.29,0,0.1,0,.19,0,0.29l0,0-0.13-.11C77.51,42.89,72.11,50.76,62,51.84c1.86-8.46,5.77-15.37,9.8-21.63,2.3-3.58,8.71-3.08,13.77-2.24-0.9,5.34-5.69,7.78-7.21,12.23,2.37,1.91,4.71-2.25,7.06-.12h0l0.12-.14a4.82,4.82,0,0,1,0-1.28l-0.21.09-0.07,0,0.28-.17c0.43-2.33,2.82-2.87,4.87-3.73,1-1.26,2.07-2.55,3.15-3.78,1.53-1.76,2.28-3.38-.6-4.53,1.26-2.28,3.81-.79,5.47-1.88,1.29-.85,1.44-2,0.94-3.42-1.68-4.72-5.3-6.16-10.09-3.82s-9,6.31-15,7c0.16-8.16,7-16.07-1.85-24.48a168,168,0,0,1-9.57,32.17c-5.87,14.75-10.8,30-21.76,42.17a10.24,10.24,0,0,0-2.42,4.27c-0.55,2.39-2,5.58,1.34,6.85A5.32,5.32,0,0,0,47,83.1c1.13-2,2.36-4,3.28-6.1,2.8-6.37,5.32-12.88,8.3-19.17,1-2.12,1.77-5.63,5.47-4.53,5.19,1.54,9.71-1.13,14.54-1.83-4.61,5.63-9,11.46-13.91,16.81-2.77,3-3.51,6.64-1,8.79,4.41,3.74,2.55,6.66.48,10.19-1.58,2.69-2.48,5.54,0,8.24,2,2.19,4,4.64,7.46,4.22,4.23-.51,4.44-4.77,5.71-7.6,3.59,1.42,5,6.3,9,3.77C89.71,93.71,88.57,89.78,88.24,86.68ZM71,67.3c1.83-3.52,4.38-5.39,8.4-8.36C78.46,65.48,76.37,67.82,71,67.3Z"/></g></svg>