<svg id="图层_1" data-name="图层 1" xmlns="http://www.w3.org/2000/svg" viewBox="0 0 200 1391.32"><defs><style>.cls-1{opacity:0.05;}.cls-2{fill:#fff;}</style></defs><title>主站</title><g class="cls-1"><path class="cls-2" d="M117.42,677.18c-0.06-4.57-2.52-6.33-6.21-6.95-4.12-.69-7.57.48-11.06,2.85-2.45,1.66-5.35,1.62-4.79-2.91,0.53-4.29,1.24-8.56,1.5-12.87,0.2-3.28,1.5-4.74,4.83-4.91a66.34,66.34,0,0,0,9.85-1.37c1.56-.32,3.24-1.07,3.18-3.22a3.64,3.64,0,0,0-3-3.44c-4.14-1.15-8.37-.44-12.77-0.24a10.74,10.74,0,0,1-.63-2.83A44.33,44.33,0,0,1,99,635.4c1.78-9.22,1.8-9.21-8.49-9.46-0.93,5.8-.71,5.76,1.83,11.56,2.31,5.25,0,9.21-5.65,11-3.49,1.08-7.33.48-10.6,2.49a22.29,22.29,0,0,1,2.71,1.23c4.05,2.5,10.79-.79,12.92,4.8,1.8,4.71-1.73,9.67-1.85,14.64-0.08,3.49-2.41,4.24-5,5.13-4.58,1.54-9.39.38-15.4,1,5.5,4.47,10.18,7,17.83,5.31C83,699.42,73.77,711.13,66,724.2c4.41,0.24,6.39-2.47,8.47-4.92,6.92-8.15,13.38-16.62,15.83-27.29,1.83-8,5.69-12.74,14.73-12.45C109.15,679.67,113.3,678,117.42,677.18Z"/><path class="cls-2" d="M167.53,727.9a54.47,54.47,0,0,0-5.55-2.18c-17.42-5.91-32.62-15.88-47.69-26.07-4.28-2.9-8.12-6.59-13.93-7a172.45,172.45,0,0,0,39.29,31.52,77.72,77.72,0,0,0,25.89,9.67c1.66,0.3,3.58.73,4.32-1.08C170.72,730.61,169.55,728.84,167.53,727.9Z"/><path class="cls-2" d="M111,1105.24a12,12,0,0,1,8.79,3.78c3.47,3.71,7.35,8.61,5.45,13-2.09,4.86-8.33,2.68-12.58,1.69-4.53-1-9.07-1.74-13.82-2.69a54.83,54.83,0,0,0,13.07-4.12c5.42-2.52,5.56-3.16,1.94-7.71C112.93,1108,111.24,1107.36,111,1105.24Z"/><path class="cls-2" d="M154.49,263.43c-3.79-1.17-7.52-2.57-11.63-1.47-7.33,2-14.73,3.63-22,5.74-17.12,5-34.18,10.16-51.24,15.25,1.39,3.34,3.77,3.91,7.18,2.7,5.93-2.1,12-3.69,17.94-5.84,16.51-6,32.94-12.11,51.1-9.57,2.82,0.39,5.89-.57,8.77-1.22a2.78,2.78,0,0,0,2.22-2.88C156.77,264.55,155.87,263.85,154.49,263.43Z"/><path class="cls-2" d="M124.86,274.15c4.21,4.38,3.71,4.1.55,9.77-1.5,2.7-.69,6.68-0.92,10.08-4.84,1.14-7,6.52-12.8,7.74,2-6.28,9.78-8.89,9-16-3.22-2.47-6.88-3.24-10.07-.64C104.81,289.85,98.07,293,92,297.3c4.75-.59,9.33-1.79,15-0.85-3.51,4.41-5.81,8.72-9.82,11-4.44,2.5-3.7,5.15-1.85,10,6.35-6,13.48-8.59,20.52-11.36,5.45-2.15,8.75-5.84,8.73-12,0.71-.6,1.35-1.58,2.15-1.75,2.8-.56,1.69,1.95,1.68,2.86-0.07,10.59-.45,21.18-0.52,31.77-0.06,8.83-4,15.85-9.72,22.14-1.23,1.35-3.33,2.09-3.3,4.42,15.25-2.18,21.19-8.67,21.31-23,0.13-15.56-.52-31.12,1.89-46.62C139.5,275,133.57,270.9,124.86,274.15Z"/><path class="cls-2" d="M83.39,313c0.49,1.55,1.06,3.25,3.22,3a3.58,3.58,0,0,0,3.32-3.13c1.07-6.44.37-12.47-5.29-18.14C82.56,301.34,81.51,307.07,83.39,313Z"/><path class="cls-2" d="M104.9,896.05c-3.91-.71-8.38.38-12-2.9,11.48-8,24.4-12.54,35.93-19.78-3.71-7-10.46-6.92-17.14-9,1.45,4.11-.63,6.18-3.3,8.39-7.17,5.94-14.35,11.81-22.77,15.92-3.71,1.81-3.94,4.88-3.71,8.36,0.24,3.67,2.45,5.12,5.73,5.71,2.6,0.47,5.15,1.26,7.77,1.61,2.22,0.3,3,1.26,1.74,3.1-1,1.42-1.15,2.16.66,2.64,3.21,0.84,18-.5,21.13-2,2.52-1.2,2.15-3.18.74-4.81C115.84,898.78,110.59,897.08,104.9,896.05Z"/><path class="cls-2" d="M94.06,868.58c-3.07.63-5.9,1.15-8.7,1.8-9.32,2.17-9.31,2.19-11.78-7.85-3.48,4.75-4.07,9.17-2.28,13.76,1.37,3.5,4.53,6,7.66,3.49C83.75,875.88,90.67,874.93,94.06,868.58Z"/><path class="cls-2" d="M79.91,859.24c2.43,0.65,5,1.21,7.53,1.92,2.3,0.65,3.94-.17,4.77-2.22,0.89-2.2-.45-3.82-2.15-5-4-2.75-8.55-2.41-15.49-2.18C79.51,854.07,77.52,858.59,79.91,859.24Z"/><path class="cls-2" d="M114.68,161.54c9.65-2.11,19.16-4.82,28.75-7.21,1.71-.43,3.22-0.9,3.28-3,0.08-2.56-1.73-3.44-3.8-3.59-6-.42-11.63,1.58-17.35,3.1-9.13,2.43-18.06,6.62-29.59,2.47C102.12,159.92,107.67,163.08,114.68,161.54Z"/><path class="cls-2" d="M87.49,137.48c-1.71.27-5.39-.11-4.51,2.2,2.79,7.32-3.14,10.16-6.5,14.06a129.16,129.16,0,0,0-21.3,33.34c5.41-2.21,7-5.73,8.77-8.65,7.85-12.8,17.52-24.06,28.06-34.65,1.09-1.09,3.06-2,2.3-4C93,136.5,90.07,137.07,87.49,137.48Z"/><path class="cls-2" d="M79.52,196.41c-0.49-9.05,2.94-18,2-27.27-5.05,13.71-4.1,28.62-8.69,42.48a3.72,3.72,0,0,0,3.82,4.73c2.72,0,5.84-.59,5.59-4.16-0.41-5.95,1-11.65,2.35-17.76C82.08,194.4,81.69,197.09,79.52,196.41Z"/><path class="cls-2" d="M143.38,192.43c-3.28-1.08-6.38-.26-9.45,1.46-5.44,3.06-10.84,6.42-17.48,6.2,5,5.38,10.92,2.85,16.73,1.47,0.48,12.14-11,8.64-16.49,13.46-1.24-5.76-.26-11.62-2.87-16.8l-3.39-.32h0c-2.37-2.48-3-4.69,1.33-5.3,7.6-1.07,14.7-3.68,21.65-6.77a3.8,3.8,0,0,0,2.18-5c-0.64-1.57-2.72-1.72-4.38-1.39-4,.81-7.19,3.2-10.62,5.2-5.4,3.15-10.91,6.47-17.89,2.76,3.61,3.82,2.82,9,5.53,12.83h0c-0.85,3.65,0,7.3.64,10.79,1.34,7.26,7.12,10.58,14.13,9,2.47-.55,5.59-3,7.27,1.34,6.57-.12,10.23-3,7.88-6.38-2.67-3.87-1.42-5.45,1.21-8,2.07-2,3.5-4.65,5.8-6.65C148.42,197.58,147.49,193.78,143.38,192.43Z"/><path class="cls-2" d="M122.13,167.89a34.55,34.55,0,0,1-12,2.6c2.85,4.56,5.74,5.69,9.28,5,4.5-.93,9-2,13.43-3.1,1.73-.42,3.25-1.63,3.17-3.32-0.1-2.4-2.17-2.84-4.28-3A19.37,19.37,0,0,0,122.13,167.89Z"/><path class="cls-2" d="M128.66,144.6c2.08-.21,4-0.67,4.07-3.24,0-1.78-.84-3.38-2.64-3.63a11.55,11.55,0,0,1-9-5.66C120.16,142,122.41,145.24,128.66,144.6Z"/><path class="cls-2" d="M117.67,1175.63c2.12-.56,5.42-2.47,3.53-5.59-1.73-2.85-4.66-4.65-8.51-2.8a10.35,10.35,0,0,0-3.76,3c-10.6,13.21-25.14,17-41.21,16.94,8.55,9.64,17.34,3.27,25.82-.34,0.75,2.27-.48,3.09-1.19,4.08-6.58,9.15-13.35,18.17-19.7,27.48-2.64,3.87-6.2,7.88-4,13.27,3,0.45,4-1.6,4.85-3.23,5.67-10.83,12.94-20.56,20.13-30.37C100.26,1189.08,105.54,1178.86,117.67,1175.63Z"/><path class="cls-2" d="M142.26,1193.75c-2.59-.41-5.28-0.13-7.91-0.28-4.67-.27-9.29-0.33-10.71-6.46-0.57-2.45-2.8-3.55-5.49-1.75-2,1.37-2.09,2.65-1.14,4.93,3.42,8.24,3.27,8.28-3.95,14.13a3.34,3.34,0,0,0-.55,1.62c2.76,1.4,4.74-3.73,7.68-1.09,0,8.31.24,16.58-.09,24.84-0.2,5-2.3,6-7.11,5.35-3.67-.51-5.46-4.08-8.87-4.73-0.85,7.41,5.13,9.52,10.06,11.41,7.23,2.77,11.44-.61,12.87-8.36,1.54-8.34-.83-16.46-0.75-24.69,0.07-7.09,2.42-9.54,9.49-9.5a43.45,43.45,0,0,1,5.83.89c2,0.29,4.35.41,4.9-2C147.24,1194.83,144.47,1194.1,142.26,1193.75Z"/><path class="cls-2" d="M52.2,1166.76c-4.38,9.52-11.35,17.15-18.36,24.71-2.61,2.82-4.82,5.55-3.69,9.67,0.52,1.89.69,4.18,3,4.69,1.76,0.38,3.21-.71,4.21-2.14,7.43-10.57,16-20.55,20.52-32.79,1.68-4.52,4.47-10.07-.93-15C55.38,1159.59,53.84,1163.2,52.2,1166.76Z"/><path class="cls-2" d="M44.5,1233c-1.06,4.5-1.66,9.19.81,13.52,0.75,1.32,1.62,3.14,3.68,2.42,1.53-.53,3.1-1.38,3.24-3.29a49.12,49.12,0,0,0,.05-5.94,115.05,115.05,0,0,1,1.5-24.64c0.91-5.41.68-10.82,0-17.38C49,1209.81,47.21,1221.52,44.5,1233Z"/><path class="cls-2" d="M105.11,1210.24c-3.32,3-6.53,6.19-11.29,10.72v-15.59c-1.05,9.14-4.3,17.54-6.32,26.15-0.72,3-.08,4.78,2.15,5.53,2.87,1,4-1.46,4.54-3.87,2-9.13,7.33-16.12,14-22.34,1.49-1.38,4.21-2,4.08-4.83C108.81,1205.5,107.2,1208.34,105.11,1210.24Z"/><path class="cls-2" d="M112.3,1206l0.2,0h0l0-.1c-0.07,0-.15-0.06-0.22-0.11S112.3,1205.95,112.3,1206Z"/><path class="cls-2" d="M114.29,1155c-7.08-5.91-13-.37-21.87,1C101.4,1160.45,108,1161.79,114.29,1155Z"/><path class="cls-2" d="M104,1229.94l-0.12.31h0l0.21,0c0-.07,0-0.13,0-0.2Z"/><path class="cls-2" d="M112.18,1229.32c1.6,0.62,3.36.8,4.23-1.11s0.88-4-1.12-5.29a7,7,0,0,0-7.55-.08c-2.35,1.53-6.64,2.7-3.7,7.1C106.18,1224.41,109.29,1228.2,112.18,1229.32Z"/><path class="cls-2" d="M86.44,792.49c24,15.52,48.38,29.74,77.33,32.65C141.32,806.11,113.76,799.3,86.44,792.49Z"/><path class="cls-2" d="M101.58,759.12c1.42-2.36,2.08-5.13-.9-7-4.17-2.6-11,.24-10.39,4.92,0.8,6.61-2.89,10.65-6.09,15.11-5.2,7.26-10.72,14.29-16.1,21.41a43,43,0,0,0-11.27,13.69c5.16-3.09,10.4-6,13.92-11,8.87-7.07,15.62-16.08,22.64-24.82A110.46,110.46,0,0,0,101.58,759.12Z"/><path class="cls-2" d="M136,1306.2c-0.12-5.5-4.18-8.3-8.41-8a34.66,34.66,0,0,0-20,8.05c5.12,0.51,9.59-1.2,14.12-3.18,7.11-3.11,10.47-.92,11.13,7,0.22,2.64,0,5.31,0,8-2.41,5.56-4.3,11.62-11.67,13a86,86,0,0,0-1.77-9.22,2.61,2.61,0,0,0-4-1.65c-1.4.82-2.1,1.79-1,3.85,2.27,4.13,2,8.84,2,13.46a268.63,268.63,0,0,1-3.58,49.43c-0.29,1.68-.61,3.67,1.27,4.23,2.56,0.76,3.36-1.67,3.84-3.44a31,31,0,0,0,.86-6.87c0.56-12.89,1.18-25.78,1.45-38.68,0.08-3.69.62-6.2,4.7-7.11,5-1.12,7.38-5,9.46-9.35C137.52,1319.33,136.44,1312.77,136,1306.2Z"/><path class="cls-2" d="M65.29,1278c0.13,5.23-2.12,9.35-4.37,13.64A169.73,169.73,0,0,1,32.41,1331c-2.57,2.66-3.24,5.6-.9,7.68,2,1.76,4.31-.81,5.68-2.62,4.77-6.32,9.35-12.77,14-19.16a212.12,212.12,0,0,0,17.29-28C70.69,1284.73,71.12,1280.75,65.29,1278Z"/><path class="cls-2" d="M105.14,1318.13a2.71,2.71,0,0,0-3.64.12c-1.48,1.3-2.65,3-4.23,4.13-5.22,3.73-9.93,8.51-17.62,9.41l4.63-29.72c-1.78.31-2.47,1.85-3.22,3.18-4.92,8.75-2.82,18.81-5.07,28.11-0.86,3.54,3.46,5.91,6.66,4,7.64-4.6,14.18-10.82,22.11-15A2.46,2.46,0,0,0,105.14,1318.13Z"/><path class="cls-2" d="M53.38,1326.39c-1,.75-1.86,1.09-1.93,1.55a213.38,213.38,0,0,1-7.06,29.67c-1,3.11-.23,5.89,3.05,7.85,2.68-3.83,2.61-8.7,5.08-12.68,3.81-6.14,3.43-6.36,2-17C54.08,1332.86,55,1329.81,53.38,1326.39Z"/><path class="cls-2" d="M88.43,1297.83c5-.62,9-2.81,12.7-7.5-7.56-1.79-12.1,2.79-17.64,4.15C84.57,1297.43,87.6,1295.75,88.43,1297.83Z"/><path class="cls-2" d="M123.9,1081.53c0.33-9.91,3.57-18.81,7.46-27.53,2.86-6.42,2.43-9.43-2.37-14.18-4.47-4.42-9.56-7.15-16.11-5.7,0.11,1.73,1.6,1.71,2.73,2.25,8.76,4.19,9,4.9,6.09,15.26a36.14,36.14,0,0,0-6.21-1.87c-2.84-.34-4.71.35-5.21,4.11-0.45,3.43-2.64,6.63-4.07,9.94a67.3,67.3,0,0,0,1.06,7.76c0.91,3.62-1.48,4.43-4.93,6,0.45-6.48-1.36-12.39,1.69-18.1,0.13-2.6,2.2-6.31-3.27-5.7,0.26-4.45-1.65-9.46,1.89-13.11,3.13-3.23,4.08-7.21,5.57-11.08a1.12,1.12,0,0,1,0-1.24c-1.85-1.76-1.56-4.14-1.85-6.36-2.33-1.67-4.09-5.19-7.54-3.66-3,1.33-1.72,4.64-1.94,7.19-0.28,3.31-1.17,6.67-.84,9.92,1,10.11-5.67,16.52-10.5,23.92,0.17-5.78-.59-11.34-1-16.91a3.5,3.5,0,0,0-3.3-3.19c-1.8-.17-3.09,1-4.11,2.42s-0.76,2.6.6,3.32c2.13,1.14,2.43,2.91,2.33,5-0.35,6.95.75,14-1.39,20.82-2.36,7.53-3.13,15,.77,22.41-4.51,1.51-8.12,3.4-12.74,2.46a110.52,110.52,0,0,1,1.17-20.59c0.47-2.92,2.86-6.94-.15-9.15-3.56-2.62-1.62-5.09-1.37-7.86,0.32-3.45,2.72-6.64,1.34-10.39-6.14,8.27-10.87,16.39-6.08,27.37,2.2,5,.68,11-0.74,16.68-1.59,6.33-4.5,10.17-11.47,9.69-0.28-2.81,2.6-4.18,3.2-6.87-5.14,2-8.77,6.05-13.36,8.29-5.45,2.65-5.94,6.29-4.39,11.86,10-2.36,18.59-9,30.45-8.23-7.77,8.31-13.37,16.24-6.27,27.36,6.34-6,8.17-14.12,13.29-20,0,0-2-1-1.92-1.41,0.52-5.15,5.14-10.3,10.08-11.45,8.36-2,16.79-3.67,25.07-5.92,2.94-.8,4,0.32,5.67,2.29,4.64,5.57,5.52,5.37,9.41-1.18,0.88-1.48.51-4.42,3.49-3.51,6.47,2,11.53-2.32,17.67-3.36C139.28,1078.6,130.69,1082.54,123.9,1081.53Zm-34.83,10.58c-1.84.22-4.26,1-4.83-1.79-0.39-1.9-.19-4,2.51-4.48,2.92-.56,4.27,1.11,5.28,3.43C92.51,1091.7,90.62,1091.92,89.07,1092.11Zm4.62-23.33c-3,4-6,7.86-4.64,13.42,0.49,1.95-1.48,2-2.61,2-1.54,0-2.21-1-1.94-2.61,1.49-8.68,2.86-17.39,8.28-25.81C97.23,1060.42,96.78,1064.62,93.68,1068.78Zm8.75,19.84c-1.06.55-2.05,1.52-4.59,0.51,0.81-1.47,1.33-2.6,2-3.62,1.32-2,3.16-1.89,5-1a2,2,0,0,1,.94,1.46C105.84,1088.25,103.71,1088,102.43,1088.62Zm11.38-2.88c-1.35.23-2.59-.12-2.89-1.61s1-2.17,2.22-2.44,2.47,0,2.93,1.55A2.52,2.52,0,0,1,113.82,1085.74ZM119,1068a1.76,1.76,0,0,1-1.66-.39c-2.19-2.94.91-4.4,1.55-8.34,1.27,2.12,1.58,2.4,1.58,2.67C120.49,1064,121.11,1066.38,119,1068Z"/><path class="cls-2" d="M166,85.39a20.22,20.22,0,0,0-5.68-3.95,117.69,117.69,0,0,0-13.66-6c-1.7-.57-4.28-0.85-4.23-3.44s0.41-5.37,3.48-6.58c2.16-.85,4.32-1.73,6.4-2.75a86.42,86.42,0,0,0,7.89-4.2,5.19,5.19,0,0,0,2.48-5.13c-0.28-2.4-2.42-2.85-4.25-3.62-2.34-1-5.36,1.07-7.38-1.74a32.83,32.83,0,0,0,1.18-5.68c0.1-2.84-1.69-3.94-4.43-4.22-1.58-.16-2.85,2.64-4.61.44,4.9-4.27,11-6.62,12.21-14.7,0.62-4.26,4.47-8.72,6.8-13.11,1.59-3,3.26-6.29.17-9.15-2.78-2.56-5.8-1.6-9.11-.07-6.09,2.81-12,6.52-19.55,5.42,4,7.91,10.85,4.18,15.92,5.12-0.27,9.87-6.42,13.06-14.72,14.14A64.59,64.59,0,0,0,132,19a6.35,6.35,0,0,0-6.64-3.51c-1.35.16-4-.17-1.9,2.55a3.84,3.84,0,0,1,.89,3.69c-2.05,5.54-7.79,6.86-11.74,10.23-2.83,2.42-4.66,1.15-6.82-.4-3-2.14-5.81-1.11-8.34.59-3,2-3.23,4.52-.58,7.36,1.18,1.27-.24,2.35-1.39,3-2,1.13-4.11,2.16-8.14,4.26,5-10.29,8.89-18.59,13-26.83,3.46-7,2.81-8.42-5.36-11.09C93.59,21,87.2,31.14,82,41.87,77.83,50.3,72.72,56.82,63.84,60.1c-0.31.12-.31,1.1-0.46,1.75,2.66,0,5.31-.11,7.95,0,3.51,0.19,6.44-1.52,9.48-2.77s5.42,0,7,2.09c1.45,1.92-.52,3.67-1.66,5.24C79,76.3,71.42,85.8,59.73,91c7,2.2,7.08,2.26,12-.6C80.26,85.5,87.11,78.75,93.33,71.3c1-1.19,1.21-3.44,3.42-3s3,2.39,3.51,4.32c2.55,8.94,5,9.76,13.45,4.23-1.61-4.89-4.92-8.58-9-11.5-3.8-2.72-4.13-5.41-2.93-10.08,3.15-12.3,10.8-19.82,22.31-24.52,0.83,2.9,1,6,4.58,7.19,5.59,1.86,4-6.42,9.73-6.1-4,6.58-7.62,12.66-13.53,15.9-5.07,2.78-5.59,5.55-3.85,10.4,6.8-1.1,10.61-7.78,17-8.86,1.12,3.43-4.36,4.86-.45,8.48,2.82,2.62.45,5.15-3,6.52-4.29,1.71-8.88,1.48-13.58,2.3,4.21,5.29,9.94,3.23,15,3.84-4,11.79-4,11.79-13.07,11.9C124.8,85.92,125.22,91,130,91c4.31,0,6.31-4.1,8.21-7.82,1.23-2.42,1.15-6,4.89-7.12,5.63,5.17,11.79,9.72,16.47,15.87,1.76,2.32,3.41,5.23,7,4.14C168.59,95.43,168.19,87.6,166,85.39ZM147.3,51.75c2.26,1.89,4.24,3.71,1.4,6.44-0.9.87-2.55,1.94-3.27,0.47C144.19,56.13,145.67,53.87,147.3,51.75ZM92.41,57c-1.18.88-2.38,0.31-3.43-.56-1.26-1-1.23-2.12,0-3.08,1.73-1.33,3.53-2.57,6.67-4.84C95.25,53.06,94.53,55.4,92.41,57Z"/><path class="cls-2" d="M72,433.26c2.18,0.76,3.49-1.21,4.92-2.59,3.13-3,3.71-8,8.13-11.6,1.36,10.18-3.65,16.44-8.38,22.71-2,2.63-4.71,4.7-4.78,8.4-0.06,2.79.36,5.06,3.36,6.49,2.77,1.31,4.59.25,6-1.63,4.71-6.09,9.24-12.32,13.84-18.5-5.59.23-7.64,5.67-12.83,6.24,2.15-6.7,5.62-12.75,7-19.55,0.39-1.94,2-4.76.65-5.65-6.76-4.57-1.77-9.08-.46-13.64a17.86,17.86,0,0,0,.76-3.85c0.22-3.8-2.54-4.14-5.3-4.28-3.1-.16-2.56,2-2.56,4,0,7.33-3.88,13.18-7.82,18.85-1.92,2.76-3.85,5.46-4.53,8.71C69.58,429.47,69.15,432.28,72,433.26Z"/><path class="cls-2" d="M141.78,468.62c-4.12-2.32-8.5-3.54-13.17-1.61a16.06,16.06,0,0,0-2.35,1.49l3.91,3.53c-0.13,4.26-5,4.08-5,7.55,5.45,1.74,10.13-2.17,15.41-2.08,2,0,3.4-1.92,3.81-4A4.52,4.52,0,0,0,141.78,468.62Z"/><path class="cls-2" d="M153.76,447.14c-1.66-3.49-4.21-3.49-7.45-2.84-8.78,1.75-17.59,3.3-26.41,4.88-1.73.31-3.69,1-4.82-.85,0.47-1.59,1.46-1.64,2.4-1.92a70.82,70.82,0,0,0,30.34-18.07c3.35-3.37,2.64-5.64-2.1-6.5a85.94,85.94,0,0,0-9.66-.68c7.22-17,7.23-17,6.88-29.87-0.05-2-.12-4.24-2.54-4.76-2-.43-4.46.47-5.21,2-1.27,2.63,2.18.81,2.86,2.22,1,2.09.27,3.74-.56,5.58-2.91,6.45-8.64,9.89-15.09,14.2-0.38-7.52-6.25-8.31-12.22-9.28,1.95-3.46,3.63-6,4.8-8.66,1.39-3.22-.95-7.42-4.6-8.32s-4.14,1.19-4.5,4.43c-0.31,2.8-2.05,5.56-3.62,8.06s-2.75,4.94-2.23,7.46c1.8,8.76-1,17.13-1.65,25.67h0c-0.93,1.17-2.92,2-1.89,3.89,0.74,1.37,2.41.47,3.63,0.8,0.93,3.72,2,7.06,5.75,1.83,1.75-2.41,4.23-3.37,9-4.35-4.47,4.69-1.09,9.15-3.16,13-3.74-.79-7.23-1.24-9.5,2.62,0.21,2,4.08,4.26-.31,6.07a1.44,1.44,0,0,0-1.49.39h0c-4.14-.1-7.6,1.93-11.24,3.48-10.08,4.3-20.17,8.6-30.34,12.68-3.61,1.45-7.55,4.42-11-.51-1.33-1.9-2.31.2-2.66,0.71-1.37,2-1.82,4.37,0,6.43,2.24,2.61,4.78,1.18,7.32.39C69.27,472,84.51,463.23,100.4,455.9c2.45,0.35,5.54-.19,5.43,3.8-0.08,3.24.18,6.54-.36,9.7-1.31,7.54-2.65,8.4-11.06,8.4,0.41-3.22-.76-4.22-4-3.21s-6.66,3.38-9.69.44c-1.14-1.11-1.23-2.91-3.37-1.68a4.51,4.51,0,0,0-2.55,4.91,7.7,7.7,0,0,0,4.68,6c2.34,1,4.53-.38,6.09-2.28,2.44-3,4.79-5.92,8.78-2,0.18,1.91,1.89,2.57,3,3.71,6.08,6.16,8.2,5.88,11.46-2.13,2.65-6.51,3.3-13.44,3.35-20.45,0.06-9.42,1.19-10,10.39-8.28s18.42,2.53,27.7,1.2C154.87,453.34,155.67,451.14,153.76,447.14Zm-32.89-17.9c0.23-1.19,1-1.16,1.89-.91v-0.1h0l0.14-.11c-1.82-5.14-2.89-9.43,4.73-11.61,3.61-1,3.91-7.27,8.61-9.86-1.54,9.58-6.54,16.08-13.34,21.47l0.1,0.29-0.24-.07c-0.39,3-.52,5.86,2.87,7.94,4-3.34,6.86-8.6,12.84-9.84-2.77,7.82-9,12.88-21.91,17.26C119.68,438.7,120,433.91,120.87,429.24Zm-13.15-12.53a2,2,0,0,1,1.7.67c2,3.16-.42,4.53-2.5,6.08C105.52,421,105.09,418.59,107.72,416.71Zm-1.6,13.11,7.49-8.24C115.15,427.67,111.88,428.88,106.12,429.82Zm4.41-15.7c-2-.11-4.08-0.13-3.83-3.15,0.21-2.54,3.82-5.76,6.14-5.06,2.73,0.83,3.07,3.47,3,5.66C115.66,415.16,112.65,414,110.53,414.12Z"/><path class="cls-2" d="M161.74,564.12c-3.12,2.67-6.28,5-9,7.75A22,22,0,0,1,138,579c-16,1.05-31.78-1.27-47.56-3.34-2.58-.34-5.13-2-5.39-5.13-0.35-4.37-.46-9.6,3.63-11.61,3.39-1.67,5.92-5.13,10-5.44,0.48,7.28.83,7.75-3.56,11.07-2.79,2.11-3.55,4-1.76,6.37s4,1.63,5.69-.71c1.54-2.18,3.33-2.48,6-1.77,7.53,2,9.06,1.35,12.5-5.17,4-7.66,6.66-15.9,9.36-24.11,1-3,1.15-5.24-1.79-6.68-2.42-1.18-4.84-1.75-6.93,1.19-2.6,3.66-6.9,5-11.06,7-2.64-5.19-5.95-9.47-12.62-8.68-0.73,2.55.22,4.62,1.31,6.66,3.56,6.67,3.57,6.7-2.9,10a23.9,23.9,0,0,1-3.69,1.18c-0.45-2.6-.5-5-1.32-7.11-1.55-4-4.81-4.36-7.57-1-1.66,2-3.06,4-1.11,7.09,3,4.7.39,7.15-4.16,8.77-6.11,2.17-12,5.26-18.87,5.09,7.41,6.93,15.59,3.88,23.93,1.06,0.2,2,.34,3.29.46,4.58,1,11.08,3.72,14.27,14.58,16.91,7.71,1.87,15.41,3.77,23.17,5.4,10.24,2.15,20.44,2.08,30.33-1.82C159.26,584.65,163.67,576.4,161.74,564.12Zm-41.43-25.75c-0.24,13.34-5.54,21.53-16,24.67C105.46,548.72,105.46,548.72,120.31,538.38Z"/><path class="cls-2" d="M114,937.58c-1.54.58-3,1.27-4.54,2-2.75,1.28-5,2.14-8.15-.18-2.85-2.1-7.78-3.56-3.84,3.48,0.49,0.88-.44,1.81-1.3,2.32-1.41.84-4.81,1.28-.37,2.93,3,1.13,2.33,3.92,1.77,5.95-1.26,4.53-1.45,9.11-1.86,13.72-0.47,5.2-.47,11.08-3,15.3-2.83,4.76-.46,7.29,1.26,10.67,1.56,3.07,4,4.2,5.85,1,1.71-3,3.2-2.34,5.57-1.53,4.21,1.45,7.87,3.57,10.27,7.4s5.59,2.11,8.73,1.33c3.71-.91,2-3.51,1.88-5.57-0.33-5.32.43-10.55,1.08-15.81,1.29-10.48,1.32-21.08,3-29C130.83,936.24,126.16,933,114,937.58ZM102.13,987c-1.94-1.88-1.14-4.32-1.32-6.56-0.23-2.7.44-4.26,3.7-4.39,3.59-.15,7.14-1.05,11.33-1.73C117.21,985.69,117.21,985.69,102.13,987Zm14.7-20.72c-4.24,1.76-8.51,3.67-13,4.57-2.41.49-2.81-2-2-4.21,1.24-3.38,12.18-7.49,15.21-5.56a3.86,3.86,0,0,1,.83,1.59C118.16,964.17,118.06,965.82,116.83,966.33Zm-0.77-11.22c-4.13,1.77-7.62,5.39-12.6,5.07-0.4-11.62.55-13.4,8.5-15.55,2.08-.57,5-2.27,5.84.89S120.31,953.29,116.06,955.11Z"/><path class="cls-2" d="M78.1,952.92c1.15-2.77,4-1.39,6.17-1.11,1.49-2.44,4.6-5.53-1.24-6.08-4-.37-4.36-2.86-3.89-5.45,0.95-5.2,1.26-10.48,2.94-15.6,2.18-6.63,1.73-6.85-7.6-6,2.07,4.36,2.05,8.82,1.47,13.39-2.31,18,.86,14.62-16.45,19.24-6.64,1.77-13.32,6-21.14,1.31,3.32,9.68,5.36,11.11,12.93,9.53a81.11,81.11,0,0,0,19.41-6.75,67.64,67.64,0,0,1-9.85,13.85A15.5,15.5,0,0,0,57.14,985c0.47,1.57.83,4.16,3.36,4.29,1.75,0.08,3-1,4-2.52,1.8-2.8,3.41-5.84,8.14-7.56a38.23,38.23,0,0,0-2.79,16.75c0.19,3.07-.94,7.68,3.58,8,5.25,0.37,5-4.07,4.72-7.87-0.25-3.64-.57-7.28-0.54-10.92,0.06-8.55-.89-17.28,3.63-25.2C77.38,958.86,76.89,955.85,78.1,952.92Zm-9,20.12c-1.39-3.73.39-5.5,3-7.62C73,969.53,70.88,970.87,69.07,973Z"/></g></svg>