<svg id="图层_1" data-name="图层 1" xmlns="http://www.w3.org/2000/svg" viewBox="0 0 200 1383.99"><defs><style>.cls-1{opacity:0.05;}.cls-2{fill:#fff;}</style></defs><title>主站</title><g class="cls-1"><path class="cls-2" d="M123.33,519.15c-1.58.06-3.53,0.29-4.65,1.23-3.57,3-7.91,4.29-12.26,5.74,3.26,5.33,7,6.82,12.28,3.57,1.89-1.17,4.42-1.27,6.48-2.23,2.46-1.15,6.61-1.31,5.62-5.44C129.89,518.2,126.18,519,123.33,519.15Z"/><path class="cls-2" d="M91,99.68c14.34-14.25,21.23-29.31,17.1-48.4-6.4,1.23-13.84-1.77-18.65,5.56-0.69,1-2.43.34-3.73,0-4.82-1.31-9.1-3.47-14.53-8.77,13.58,2,23.14-4.67,33.87-6.82,3.48-.7,5.29-2.35,3.83-6.32-0.66-1.81-.48-3.94-0.59-5.93-0.15-2.57-1.14-5.62,2.57-6.54,3.93-1,8.68.57,9,3.81,0.63,6.36,4.82,6.09,8.83,7,1.94,0.43,4,.56,5.87,1.07,3.67,1,4.14,3.82,3.9,7.05s-2.1,4.26-5.17,4.8c-4,.7-8.79-3-12,1.92-2.65,4-.26,8.45-0.71,12.68-0.83,7.92-1.21,15.88-1.92,23.81C118,91.81,112.95,95.76,106.91,98A34.3,34.3,0,0,1,91,99.68Z"/><path class="cls-2" d="M79.12,431.9C87,436.7,85,443.33,83.2,449.59a8.86,8.86,0,0,0,2.43.61c15.6-2.12,16.69-3.29,17.37-18.55,0.06-1.33,0-2.67,0-4,0-8.31.18-16.72-8.31-22.23,11.84-3.41,16.81-.34,18.14,10.44,0.83,6.7-.11,13.24-1.31,19.81-0.48,2.62,1.77,7.09,2.84,5.49,3.65-5.48,7.26-.12,10.6-1.18,1.45-.46,3.26.51,5.12-1-0.5-3-.91-6.23-1.59-9.39-0.48-2.22-1.31-4.37-2-6.53,9.79,1,11.11,2,13.55,10.41,0.83,2.86,1.9,5.65,2.91,8.45,2.06,5.67,1.63,6.52-4.67,7.6-2.5.43-5.14,2.16-7.62,0.11-5.86-4.84-11.88-2.36-17.82-.41C106,451.5,99.1,454,92.21,456.44c-1.24.43-2.55,1.14-3.77,1-3.94-.34-8.21,1.65-11.76-0.66-4.8-3.13.25-7.23-.41-10.94C75.42,441.15,77.74,436.83,79.12,431.9Z"/><path class="cls-2" d="M72.89,669.9c-0.39-3.55,4.61-2.27,4.69-5.59-2.8-1-6.15-1.06-8.76-3.29-2.41-2.06-3.23-4.06-1.41-6.86,2.48-3.81,3.13.7,4.7,0.95,5.06,0.81,10-.87,14.69-2,9.3-2.18,18.75-4.38,27.11-9.55,6.27-3.88,12.71-2.83,19,.2,1.58,0.76,2.12,2.49,1.85,4.29-0.18,1.21-1.25,1.46-2.16,1.55-16.28,1.64-29.84,10.81-44.83,16-4.86,1.68-9.3,5.48-15,4.08Z"/><path class="cls-2" d="M72.68,669.69c0.34,1.58-1,3.68,2.45,3.93a204.21,204.21,0,0,1,36,6.25,55.69,55.69,0,0,0,19.64,1.58c6.75-.67,13.71-0.79,20.85,1.47a36.51,36.51,0,0,1-35.27,7c-10.06-3.29-20.26-6-30.45-8.73-7.06-1.93-14.53-.9-21.45-3.5-1.55-.58-3.45-0.63-3.21-2.84,0.19-1.71,1.29-3.42,3.1-3.34,3,0.14,5.39-2.87,8.54-1.56Z"/><path class="cls-2" d="M62.68,1031.31c8.76,5.43,8.79,5.44,6.39,12.15a41,41,0,0,1-3.59,7c-2.63,4.45-4.52,9.41-3,14.93a10.65,10.65,0,0,1,.15,4.95c-2.9,12.86-4.92,25.82-3.69,39.66-7.8-4.1-8.69-5.67-6.55-11.46a116.06,116.06,0,0,0,6.08-25c0.21-1.55.88-3.28-1.6-4.83-5,1.61-4.74,9.36-11.39,10.51-1.16-4.67.05-8.52,3.11-12.23s5.68-7.35,8.28-11.2C61.66,1048.67,66.56,1041.54,62.68,1031.31Z"/><path class="cls-2" d="M108.41,12.55c-3.94-.37-7.88-0.85-11.83-1.09S91,8.3,88.79,5.91a1.87,1.87,0,0,1-.17-2.63c0.62-.6,1.9-1.28,2.48-1,7.6,3.41,14.86.13,22.22-1,2.6-.39,5.17-1.23,7.77-1.27,3.77-.07,8,0.94,8.75,4.92,0.85,4.44-4,4.38-6.79,5.69C118.39,12.79,113.43,12.8,108.41,12.55Z"/><path class="cls-2" d="M70.09,1050.39c4.91,1.46,7.41,2.78,6.78,7.86-1.58,12.79-2.38,25.67-3.58,38.5-0.2,2.18-.08,5.25-3.58,4.6a5.25,5.25,0,0,1-4.59-5.68A104.52,104.52,0,0,1,67,1082.91C69.14,1072.5,70.83,1062.06,70.09,1050.39Z"/><path class="cls-2" d="M84.84,755.78c-0.32-1.09.28-1.79,0.95-2.55,12.51-14.44,14.46-21.32,10.85-39.44,6.15,0.57,8.56,5.08,9.62,9.54,2.59,10.86-8,28.56-18.8,32.46-0.81.29-1.89-.14-2.85-0.24Z"/><path class="cls-2" d="M82.16,749.64c-3.78-4.24-7.45-5.87-12.16-2.63-3.19,2.19-6,.8-8.87-1.12,4.82-2.17,10.1-3.45,13.44-7.2,3.68-4.14-1.15-9.13-.43-13.72,2.08-.62,4.29.06,4.57,1.3C80.42,733.76,83.48,741.08,82.16,749.64Z"/><path class="cls-2" d="M58,938.46c9.51,8.86,10.08,12.91,4.83,21.52-1.19,2-2.61,3.2-4.71,2.71-2.67-.63-3.52-2.89-3.22-5.43a8.87,8.87,0,0,1,1.32-3.7C59,949.41,60.7,945.06,58,938.46Z"/><path class="cls-2" d="M83.76,631.5c5.19,0.58,10.38,1.18,15.58,1.73a4.55,4.55,0,0,1,4.38,4.52c0.21,3-1.92,3.8-4.47,3.82-4,0-8.5,1.22-11.66-.36C85.28,640.06,85.29,635,83.76,631.5Z"/><path class="cls-2" d="M132,561.38c-1.89.1-3.93,0.48-4.53-1.36s0.26-3.76,2.19-4.89A13.37,13.37,0,0,1,141,553.72c1.63,0.53,3.15,1.39,2.83,3.36-0.28,1.74-1.59,2.7-3.4,3.07C137.58,560.72,134.46,559.65,132,561.38Z"/><path class="cls-2" d="M106.88,736.6c4.59-3.54,9.63-5,14.29-7a3.38,3.38,0,0,1,4.72,2.37c0.5,1.9-1.19,2.87-2.61,3.64A17.94,17.94,0,0,1,106.88,736.6Z"/><path class="cls-2" d="M96.15,903.45c0-.06-0.08-0.12,0,0h0Z"/><path class="cls-2" d="M145,295.05a19.78,19.78,0,0,0-2.53-1.5c-4-1.93-4.12-4.49-1.29-7.54a46.65,46.65,0,0,1,3.5-3.54c3.15-2.74,2.23-4.91-.6-7.26-2.61-2.18-5.22-2.72-8.23-1.14-2.8,1.47-5.52,3.26-9.6,2.85,1.29-7.34-1.46-12.43-7.58-14.87-3.87-1.54-5.7,2-7.41,4.93,7.22,2.8,7.68,3.85,5.8,12.77-0.92,4.37-5,6.64-7.41,3.42-2.75-3.6-2.84-1.78-3.9.36-1.47,3-.23,4.73,2.34,6.58,6.23,4.52,6.33,5.08,2.79,11.4a66.25,66.25,0,0,1-6.75,9.79,8.94,8.94,0,0,1-9.43,3.37c-4.1-.78-3.85-2.1-2.66-5.09s4.77-3.19,6.57-5.9c1.37-2.05,2.33-4,.28-4.45-6-1.42-6.05-7.44-10.76-11.12,4.25-.5,7.3-0.91,9.28-3.47,1.13-1.46,1.62-3.52-.23-4.22-4.27-1.64-9.8-4-13.2-1.29-4.79,3.81-10.47,6.91-14.35,12a11.1,11.1,0,0,0,5.13-.57c3.86-1.37,6.87,0,8,3.56s1.35,7.54-2.83,9.62a273.18,273.18,0,0,1-29.14,12.83c-5.27,1.89-2.54-3.32-4.82-3.93a15.11,15.11,0,0,0-2.37,3c-1.22,2.76-2.51,6-.39,8.51s5.39,1.29,8.32.42c3.25-1,5.89-3,8.82-4.47,7.14-3.64,13.2-9.43,22.54-12.19-5.94,15.81-12.88,29-26.33,39,11.74,0.94,17.33-7,24.34-13.65,0.48,5.63-1.59,9.88-2.23,14.36A28.11,28.11,0,0,0,80,362.37c1.13,2.84,2.52,6,6.24,5.21s2.33-4.2,2.35-6.66c0.07-11,0-21.93.07-32.9a12,12,0,0,1,.53-2.54c2.87-1.21,4.69,2.9,7.32,1.17,1.88-2.89-.93-5.16-0.65-7.84,2.7-.16,5.91-2.4,7.25,2.27,0.63,2.22,2.67,3,4.71,3,3.6,0.14,3.66,2.26,2.68,4.7-2.6,6.44-1.56,13.13-1.34,19.71,0.12,3.73,1.49,8.35,5.72,8.07,6.49-.43,12.21,1.69,18.25,2.95,4.36,0.9,9.52-2.47,8.38-5.44-2.47-6.45-1.3-12.9-1.51-19.42-0.31-9.83-8.18-13.83-17.41-9.72-1,.46-1.85,2.14-3.32.87-1.22-2.45,0-3.91,2.09-4.63,3.75-1.3,7.59-2.36,11.39-3.52h0a3.08,3.08,0,0,1,3.77-2,14,14,0,0,0,.09-1.81c-0.3-.38-0.59-0.72-0.89-1.07-3.33-3.49-8.4-3.08-12.47-4-4.23-1-5.61,6.61-11.34,6.34,8.4-6.45,8.49-17.84,15-26,1,1.46,1.43,1.76,1.4,2-2,14.53-2,14.53,12.24,18.37a45,45,0,0,0,5.08-2.93C150.86,302.6,150.61,298.94,145,295.05ZM122.13,335c1.64-.86,2.74-3.63,4.89-2.47,2.69,1.46,2.15,4.26,1.64,6.92-3.6-.34-7,1.69-11,0.06C118.58,336.63,120.46,335.86,122.13,335Zm-6.21,7.18c4.89,2.15,10.13,3,14.89,6.48C116.62,353.27,114.73,352.46,115.91,342.17Z"/><path class="cls-2" d="M127.94,1184.89c0.9-9.14,4.5-16.93,8.85-24.25,2.23-3.74,1-6.39-1-8.92s-4.91-1.58-7.09.11c-5.17,4-11.55,4.54-17.47,6.39l0.27,0.23-0.27-.12c-0.23,2.56,2.84,1.72,3.54,3.33,2.4-.17,3.77,1,3.75,3.34,0,2-1.49,2.66-3.32,2.65-3.44,0-6.22-.16-1.2,3.31,1.39,1-1.29,2.57-1.52,4.37l0.19,0.25c0,0.06,0,.12,0,0.18l-0.25-.23s0,0.09,0,.14l0.25,0.15-0.2.19a1.71,1.71,0,0,1-.05-0.34,11.29,11.29,0,0,0-2.27-1.27c-2.68-.88-6.48-0.84-3.61-5.49,0.2-.32-1.52-1.82-2.35-2.77-4.42-2.8-5.13-4.79-2.15-6.52,2.77-1.61,5.85-2.7,9.14-1.28,0,0,0-.07,0-0.11h0a25.51,25.51,0,0,1-3.33-3c-2.73-3.38-9.11-4.13-7.21-11,0.62-2.23-2.42-2.51-4.43-2.23-4.75.67-5.22,3.82-5,7.92,0.18,3.66-1.49,6.38-5.4,8-3.26,1.33-6.09.25-9.09,0,0.56-1.4,2.41-2.48,1.42-4.21-2.43-4.25-11.87-5.67-15.53-2.47l-14.13,12.35c-2.91,1.88-6.3,3.34-6.59,7.6,2.91-2.12,6.93-1.91,9.15-5,2.36-1.21,4.67-2.5,7.08-3.61,1.47-.68,3.36-1.53,4.46.24,1.63,2.64-1,3.44-2.55,4.3-12,6.71-24,13.32-36.24,20.06,7,3.94,13,4.16,19.7-.7,5.69-4.1,11.67-8.38,19.88-10.7-5.05,15.63-13.13,27.89-25.77,37.23,8.32,3.72,13.31-1.53,18.6-5.85,4.55,7.86,5.1,17.95,13.69,26.1,0.73-9.21,3.12-16,2.67-23.24-3.86-7.36-1.1-14.5.94-22.67,2.29,2.69,5.88,3.93,2.47,8-2.16,2.56-1.12,5.69-1.43,8.58h0c2.54,3.35,5.12,1.93,7.74.08,4.3-3,8.83-5.43,14.81-5.54-2.52,10.67-8.71,17.66-17.82,22.83,11.21,2.85,23.3-4.94,25.36-15.71a3.92,3.92,0,0,0,.53-0.5c1.65-1.46,3.23-1.84,5.34.17,2.83,2.68,3.87,6.22,5.19,9.55,2.05,5.21,5.83,7.74,11,8.93,1.54,0.35,3.52-.59,3.38-0.81-2.95-4.61,3.19-9.72-1.27-14.57-3-3.24-6-4.42-10.09-5.28s-9.82.63-11.94-5.23a7.63,7.63,0,0,1,8.15-4.29c4.6,0.46,9.36.14,13.78,1.24,4.77,1.19,6.94-1,9.29-3.89C135,1186.86,130.34,1187.21,127.94,1184.89ZM62.7,1208.56c-2.65.72-4.22-1.29-6.24-1.64l-0.15.15-0.16-.19,0.31,0c2.63-2.55,2.54-7.46,7.58-8.36C64.53,1202.11,63.56,1205.35,62.7,1208.56Zm11.09-31c-1.4-1.5-1.56-4.13.13-5.31,2.39-1.68,3.21.69,4,2.53a6.94,6.94,0,0,0,.86,1.36l0.17,0c-0.56-5.7-.36-11.5-4.54-16.39-1.27-1.49.19-2.86,2.3-1.73l-0.17-.17,0.25,0.21-0.08,0c3.2,3.14,6.38,6.27,11.49,5.65,1.92-.23,4.48-3.37,5.64.33,1.07,3.4,1.29,7.36-2.91,9.27-2.33,1.06-4.64,2.35-7.41,2.28a26.86,26.86,0,0,0-4.57.59l0,0.3c4.53,5.94,9.25-.48,13.86-0.05-1.44,6.46-8,9.51-12.82,6A42.69,42.69,0,0,1,73.79,1177.58ZM81.53,1195c2-7.12,5.82-10.69,11.84-11.31,4.11-.42,3.93,3.39,6.54,6.46Zm28.68-7.73c-2.47-1.64-3.58-5.44-7.91-5.45,3.61-2.52,7.59-3,10.27-5.75h0l0.2-.19-0.19.19,0.25,0.06s0,0,0-.07l0,0.07a1.19,1.19,0,0,1,.65.26c2.35,2.72,4.67,5.47,7.52,8.83C117.37,1187.38,113.38,1189.33,110.21,1187.22Zm11.18-9.14c-4.1-1.94,2.62-2.33,1.31-4.92-2.06-4.05-1.08-8.24,1.5-11.83,0.62-.87,2.32-1.29,3.52-1.3a1.68,1.68,0,0,1,1.38,1.49,30.88,30.88,0,0,1-3.52,12.15C124.57,1175.55,123.91,1179.27,121.39,1178.08Z"/><path class="cls-2" d="M68.55,805.78c-0.19-.4-0.35-0.76-0.5-1.11A5.37,5.37,0,0,0,68.55,805.78Z"/><path class="cls-2" d="M84.62,755.54l0.05,0.26,0.17,0Z"/><path class="cls-2" d="M138.53,849.31c-0.1-1-.59-1.91-0.76-2.89a360.87,360.87,0,0,1-3.35-91.22c0.21-2.38-.58-3.59-2.23-5-7.12-6-12-6-18.84.37-3.66,3.45-6.93,6.24-12.73,6a8,8,0,0,0-8.37,6.56c-4.9,0-6.79-3.1-7.58-7.34A10,10,0,0,0,77.75,759c-3.63,4.13-8.31,5.43-13.6,5.57,2.5,7.21,8.77,5,15.81,6.55l-11,2.86c6.74,4.21,1.31,14.05,9.57,16.9-2,1.85-4.77-.09-5.63,3h19.7c-6.93,5-13.18,5.23-19.17,6.27,5,4.11,10.66,3.64,17.77,1.53-2.71,6.63-7.88,5.39-12.32,7.14,3.33,1.63,6.31,1.31,9.22,1.17,1.39-.07,2.65-0.1,2.89,1.62s0.21,3.2-1.53,4.23c-4.82,2.84-8.94,1.94-12.46-3-2.09-2.92-3.59-6.38-6.07-8.88s-1.56,1.17-2.34,1.88c2.26,7.17,8,13.56,4.31,22.05-1.23,2.82.9,5,3.37,6.43A3.38,3.38,0,0,0,80,834c1.4-.94,1.11-2.23.64-3.48-1.21-3.23-5.29-5.44-3.44-9.76,6.44-1.61,12.24-1.89,13.78,6.76,0.15,0.85,1.2,1.55,1.86,2.3,1.33,1.53,2.79,3.08,5,2,1.77-.83,1.58-2.71,1.51-4.33-0.06-1.32-.54-2.63-0.51-3.93,0.05-2.74-1.77-6.76,2.2-7.55s2.81,3.27,3.43,5.6c1,3.86,4.63,4.24,7.73,5.15a4.84,4.84,0,0,0,5.9-2.42c1.5-2.78-.11-5.54-2.12-7.08-6.32-4.84-3.9-9.69-.67-14.77,0.89-1.4,1.6-2.91,2.48-4.31,1.73-2.76,2.4-5.48-.09-8.15-2.85-3-5.8-2.5-8.76-.15-3.41,2.88-7.42,2.61-11.5,2.53,2.45-3.11,5.66-4.26,9.1-5,1.21-1,3.62-2.53,3.45-2.92-2.09-4.71,1.69-5.12,4.33-6.55,2.19-1.19,5-1.48,6.46-4-0.85-3.51-4.74-2.09-6.68-3.18,1.59-4,6.85-3.6,6.33-8.13-3.07-1.71-5.7-.39-8.45.89a2.82,2.82,0,0,1-2.55-.91,2.17,2.17,0,0,1,.84-3.35c3.91-1.78,7.89-3.38,12.87-5.49,2,27.32,1.15,54.21,4.9,80.69-4,1-5.85-3.8-10.13-2.18,3.76,6.6,7.86,12.63,10.69,19.21,1.43,3.34,2.7,5.25,6.19,4.66C138.67,855.57,138.85,852.45,138.53,849.31ZM98.32,807.59a2.09,2.09,0,0,1-.15-0.22l0.32,0,5.9-4.61c0.07-3.54-4.24-1.57-4.65-4.29l11.51-4.72c-3.25,5.8-2.55,15.27-12.75,13.63l-0.1.08-0.13-.08,0.15,0.09-0.08.08c0.8,1.06,2.66,1.82,1,3.54a1.75,1.75,0,0,1-1.61-.37C96.81,809.55,97.35,808.49,98.32,807.59Zm3.08-32.8a8.29,8.29,0,0,1,.68,5.74c-0.51,1.63-1.85,3.25-3.34,1.23-2.92-3.94-7.53-1.32-11.31-3.46,1-5.25.74-10.88,5.07-15.15l-0.31.33c4.61-3,4.61-3,10.27-3.16C98.45,765.09,99.38,770,101.4,774.79Z"/><path class="cls-2" d="M74.57,546.08l0-.06Z"/><path class="cls-2" d="M167.54,528.49c-4.15.52-6.9-1.57-10.3-2.45-13.2-3.41-22.75-13.62-35.11-18.54-1.32-.53-2.79-1.48-2.36-2.76,1.77-5.25-1.65-5.28-5.15-5.73-4.31-.55-5.67,1.49-6.28,5.44-0.42,2.69-3,4.25-5.52,5.35h0c-0.44,1.27,1.2,3.18-1.18,3.85-6,7.83-11.28,16.35-20.18,21.82a5.81,5.81,0,0,1-.7-1.7c0.89-3.83,4.4-5.54,6.79-8.11,3.59-3.84,2.33-7.32-.27-10.64-2.9-3.72-8.27-4.79-11.46-1.87-4.86,4.44-10.42,7.93-15.33,12.2-2.24,1.95,1.06,2,2.21,2.59h0a34.67,34.67,0,0,0,5.84,0c4.66-.75,6,0.81,6.3,5.71,0.46,8,1,9.72-.21,12.27h0l0.05,0a12,12,0,0,1,2.17-1.69c1.15-.58,2.49-1,3.51.27a2.15,2.15,0,0,1,.22,2.69c-1,1.39-2.47.66-3.64,0.35A7.64,7.64,0,0,1,74.71,546l-0.17.15,0.09-.19c-6.39-2.21-6.12-2-2.51-7.59,1.56-2.4,2-5.81-2.77-6.05h0c-0.31.94-.53,2.66-0.93,2.7-5.67.58-9.13,2.06-4.53,8.31a5,5,0,0,1,.37,3.88c-2.57,8-1.36,16.43-2.27,24.62-0.7,6.27-3.11,12.82-.95,19.28,0.66,2,.75,5.12,4.07,4.49,2.46-.47,2.22-2.75,2.27-4.8,0.23-9,4.6-17.68.35-27.22-1.71-3.83.82-9.55,1.42-14.46,2.68,0.31,3.72,2.74,5.65,3.88,2.81,1.65,5.58,4.46,9,1.93,3-2.22,3.37-5.61,2-9s-0.12-5.75,2.46-7.82c3.45-2.76,6.16-6.57,11.2-8.3,1.81,10.7.66,21,2.92,31,0.48,2.12-1.35,2.59-3,3.12-6.09,2-12.24,3.52-19.66,2,4.14,4.54,4.14,4.54,21.07,4,0.1,3.38-3.3,4.81-4.22,7.64-1.64,5.06,1.09,10.41,5.56,10.61,7.57,0.33,16.35-6.71,18.75-14.89,1.24,3,2.3,6,3.77,8.9,2.09,4.05,7.75,5.67,12.1,3.37s3.1-6.87,1.55-9.57c-2.59-4.54-5.24-10-12.42-9.07-2.22.27-4.66-1.14-6.9-1.76,0.2-2.58,3.93-2.46,3.1-5s-3-1.36-4.88-1.36c-2.24,0-4.37.48-6.54,0.56-1.68.06-1.83-1.65-1.89-3-0.05-1.1,1.05-2.29,1.68-1.92,4.1,2.37,7.46-1.95,11.34-1.05,2.45,0.56,3.43-1,4.28-3,1.65-3.87-3.5-4.42-3.33-5.48,0.39-2.42,3.75-4.16,2.24-7.45-0.9-2-2.81-1.68-4.31-1.54-2.65.24-5,1.6-7.28,2.9s-5,2.37-6.71-1.1c-0.66-2.62,1.93-6.06-2-7.86-1.76-1.93-7.18-2.67-.61-6.51,3-1.76,5.89-5.83,8.58-9.08,3-3.62,6.65-3.76,10.7-1.53a82.5,82.5,0,0,1,10.67,7.3c9.16,7.1,17.58,15.44,28.9,19.24,7.79,2.61,7.84,2.45,13.15-4.83C174,531.32,170.81,528.08,167.54,528.49Zm-52.22,14.39c-1.74,5.8-4.12,5.52-7.62,5.06C109.59,545,112.16,545.17,115.32,542.88Zm-2.4,24.44c1.46-1.49,2.92-.94,4.21.37,1.54,1.57,3.53,2.85,3.71,5.33l0.22-.18-0.2.35c0-.06,0-0.11,0-0.17-4.43,3.72-9.27,6.59-16.25,7.41C105.24,574,109.43,570.86,112.92,567.31Z"/><path class="cls-2" d="M122.87,1267.9a7.9,7.9,0,0,0-7.59.54c-4.53,2.77-9.53,4.1-14.63,5.22-2.74-9.77-5.26-10.62-20.82-7.12a20.12,20.12,0,0,1,6.69,10.76c-11.26,4-22.59,7.73-33.73,12-4.42,1.7-8.55,3.26-13.69.44,1.61,6.54,5.51,7.19,10.14,6.78,3.48-.31,6.29-2.22,9-3.92,8-4.94,16.73-7.67,25.68-10.26,4.44-1.28,4.88,1.74,6.72,3.62-0.06,1.65,0,3.35-1.9,4.16-5,2.13-9.91,4.92-15.57,2.93-2.23,4.09.67,8.59-1.33,12.82-7-3.1-3.67-8.87-3.74-15.43-5.46,8.71-4.13,15.93-2.9,23,0.47,2.68,2.73,4.29,5.95,4.2,2.64-.07,3.42-1.26,3.49-3.6,0-1.22,0-2.87,2-2.53,4,0.69,6.79-2.27,10.2-3.36,1.82-.58,4.2-1.57,5.14.92s0,4.26-2.79,5.36c-6.74,2.67-13.34,5.68-20,8.53,6.75,4.47,14.06,1.37,23.25.61-8.91,6.23-17.16,8.57-25.61,10.76,8.68,7.56,16.72,1.3,25.16.54-6.13,7.33-14.74,10.06-23.18,13.1-2.49-.2-5-1-7.55.57,1.15,2.72,3.28,3.08,5.7,2.87,7.32,2.53,13.53-.22,19.79-3.75,3.94-2.22,5.52-1,5.08,3.32-0.59,5.93-1.48,11.84-2.22,17.76-0.84,6.69-4.32,10.4-12.59,9.35,2.61,1.6,4,2.43,5.38,3.3,6.56,4.12,9,3.56,12.45-3.14a25.15,25.15,0,0,0,2.14-6.58c1.19-6.19,2.28-12.4,3.19-18.63,0.57-3.92-.69-8.86,1.87-11.57,3.45-3.65,7.91,1,12.05.93,0.61,0,1.23.43,1.83,0.4,3.92-.22,7.08-3.73,5.8-6.09-2.86-5.29.54-8.15,2.51-11.71,4.72-8.55,1.28-14.78-8.57-14.92-3.94-.05-7.89.71-11.83,1.11-2,.2-3-0.74-3.59-2.56-0.78-2.24.56-2.9,2.18-3.58,2.68-1.13,10.39-7.88,12-9.77,2.79-3.2,2.24-6-.37-8.79-2.05-2.22-4.25-4.23-7.37-4.84-2.25,1.23-4.24,3.05-7,3.27-1.16-8.5-1.08-8.57,8.8-8.57,0.74,1.89-3,1.38-1.85,3.51h0c5.43-1.32,10.86-2.66,16.29-4,2-.49,4.12-1.6,4.34-3.5C127.77,1269.56,124.88,1268.8,122.87,1267.9ZM88.8,1301.35c-2.81,1.74-5.56,3.59-8.42,5.25-1.64.95-3.73,2.47-5.26,0.45s-0.79-4.7.94-6.31a25.15,25.15,0,0,1,9.56-5c1.5-.49,3.05-0.82,4.63-1.24C91.64,1297.22,91.67,1299.57,88.8,1301.35Zm25.57,13.93c1.2,5.44-2.12,9.48-3.5,13.91-0.6,1.93-2,2.46-3.78,1.56-1.51-.75-3.07-1.71-1.93-3.68,2.77-4.78.47-6.38-4.67-6.92C104.81,1316.3,109.2,1315.73,114.36,1315.28Zm-12.16-26.49c1.27-.37,2,0.41,1.88,1.28-0.29,2.17-.71,4.58-3.12,5.42-1.45.51-2.2-.72-2.46-2.1C98.08,1290.52,99.85,1289.47,102.2,1288.79Z"/><path class="cls-2" d="M133.75,1042.77c-4.14-1.94-8.38-1.47-12.64-.17-4,1.21-7.69,3.58-12,3.09-1.39-5.07-1-8.44,4.59-9a19.2,19.2,0,0,0,6.77-1.56c3.62-1.87,8.14-3.41,7.25-9.42-8.76-1.38-16.17,3.9-24.37,5.29-0.11-17.9-1.09-18.89-15.92-16.89,6.31,5.77,8.2,10.59,6.82,16.81-1.29,5.79-7.17,3.21-10.29,5.7,2.46,2.06,6.15-.5,8.27,2.42a5.35,5.35,0,0,1-2,4.39c-1.08.91-2.13,2-1,3.21a5.46,5.46,0,0,0,3.59,1.23,6.69,6.69,0,0,0,6.32-4,29.41,29.41,0,0,1,1.33-2.68c0.49-.75.2-2.72,2.26-1.6,0.24,11.81-10.72,9.78-17.5,13.53,4.18,1.83,7.64-.45,11.62,0-4.93,9.06-12.23,16.12-18.17,24.88,7.07,0.66,10-5.62,15.47-7.26,0.88,8.06-.65,15.73-2.44,23.34-0.9,3.84-.7,7.06,2.14,10.12,2.51,2.72,4.35,2.78,6-.59a27.5,27.5,0,0,0,1.21-3.78h0V1090c10,0.78,10,.78,9.43,10.38-2.46.72-4.11-1.45-6.24-1.83,0.57,7.44,6.31,12.22,9.62,18.22,1.46,2.64,5.08,1.68,6-1.53,1.22-4.19.87-8.48,0-12.8-2.51-13-5-26.08-1.83-39.39,1.06-4.41-1.36-6.49-5.07-8.39-2.75-1.41-5,1.44-7.47.06,2.82-4.66,2.79-4.83,4.83-5.15,5.91-.91,11.85-2,17.84-1,1.63,0.27,3.18,1.06,4.8.33,1.47-.66,3.16-1.24,3.21-3.32C136.22,1043.95,134.82,1043.27,133.75,1042.77Zm-32.15,34.42c-1.16-3-1.41-5.19.31-7.15a1.93,1.93,0,0,1,1.75.37C105.82,1073.14,104.74,1075.16,101.59,1077.19Zm5.51,4.72c-1.06.07-2.17-.38-2.06-1.31a3.35,3.35,0,0,1,3.33-2.92,1.73,1.73,0,0,1,2,1.7C110.52,1081.68,108.77,1081.8,107.1,1081.91Zm0.84-19.35c1.74-.2,1.12,3.28,3.2,6.93-5.51-2.43-9.31-.33-12.85-3.06C100.66,1062.24,104.81,1062.92,107.94,1062.56Z"/><path class="cls-2" d="M167.2,171.81c-3.89-1.87-7.76-4.36-11.89-5.06-23.8-4.06-37.48-22.27-54.07-37.57-6.16,14.91-12.6,29.9-21.38,43.77s-21.4,24.39-34.45,36.58c21.13-4.36,30.07-11,37.71-26.8h0c2.43-1,3.93.32,4.63,2.31,1.42,4.06,2.74,8.13,2.61,12.61-0.08,2.74-1.22,5.94,1.34,8.24,2.38,0.6,4-.79,5.93-1.26s3.91-.67,5.84-1c0.83,2.36-3.6,3.12-1.63,5.7,3.54-.1,7.3-1.32,9-3.55,3.12-4.19,5.22-6.45,11-3.82,3.33,1.52,10.55-4.83,9.34-7.11-2.64-5,.46-8,2.69-11.57,1.27-2.06,4.07-4.14,2.14-7-2.19-3.27-4.36-6.76-8.76-7.64-3.58-.72-5.32,1.24-7,4a5.87,5.87,0,0,1-4.28,2.19c-4.87.11-8.76,3-13.18,4.14-5.13,1.32-10.79,4.57-15.56-1.13h0l5.58-14.22c9.3,2.61,17.83,1,27-4.4-5.19-3-9-2.55-13.11-.73a45.7,45.7,0,0,1-9.28,3c-3.08.63-2.66-1.86-2.58-3.78,4.8-5.5,5.39-13,9.21-19.16,9.15,6.4,15.88,15.2,23.92,22.6,11.36,10.46,25.67,15,39.75,20,2.67,0.95,3.41-.88,3.61-3.17C171.56,174.83,169.7,173,167.2,171.81Zm-48.5,19.92c-0.6,1.29-1.44,2.13-3,1.57-0.91-.33-1-0.78-0.35-1.53,0.78-1,1.34-2.29,3-1.69A1,1,0,0,1,118.71,191.73Zm-5-12.25c3.4-1.46,6.39-4.79,10.91-2.94-0.57,1.88-1,3.45-1.51,5-0.58,1.86-1,4.26-3.73,3.25-2.06-.75-4.78-0.21-6.06-2.74C112.77,181.09,112.81,179.85,113.66,179.48Zm-7.94,4.86c-6.07,7.13-8.69,7.27-12.34.13C98,183.47,101.81,182.7,105.72,184.35Z"/><path class="cls-2" d="M127.91,212c-6-6-14.39-6.06-23,.53-4.19,3.22-7.56,4.73-12.55.38,7.83,8.42.29,19.18,6.18,26.79-1.74,2.68-5.45.53-6.42,3.25,6.25,3.45,11.67-.32,17.32-1.9,4.33-1.21,8.33-3.1,9.8,3.77,0.77,3.59,4,3.64,6,1,6.79-9.34,4.44-20.42,5.13-30.88C130.46,214,128.83,212.91,127.91,212Zm-7.52,17.4a4.71,4.71,0,0,1-3.69,5.13c-4.4,1.28-8.45,3.72-13.2,3.87-1.55-2-.8-4.46-1.21-6.68a47,47,0,0,1-.68-5.13c5.75,1.16,9.51,1,13.2-.83,2-1,5-1.6,3.41-4.61-1.17-2.18-4-2.25-6.17-1.18-3,1.47-5.87,3.25-10.5,5.9-0.32-7.46,3-10,12.64-12.45,4-1,5.77.54,6,4.09C120.57,221.45,120.31,225.44,120.4,229.4Z"/><path class="cls-2" d="M133.7,924.57c-3.15-2.26-6.07-1.85-9.43-1.15-5.06,1.06-9.74,3.83-15.47,3.84,0-5.75.06-11.05,0-16.35-0.08-5.45,3.17-10.78-.12-16.21,5.35,0,10,0,14.59,0,1.33,0,2.74-.14,3.39-1.52,0.89-1.9-.31-3.21-1.66-4.17a12.21,12.21,0,0,0-13.17-1c-3.52,1.72-6.87,3.69-11,3.54,1.7-6.72-.58-10.88-7.16-11.56-5.42-.56-11-0.11-18.86-0.11,4.85,2.1,4,6.91,7.2,7.62,5.08,1.14,9.13,4.3,13.91,5.87-1.59-.13-2.38,1.23-3.35,2.26A29,29,0,0,0,81,897.83c-8,3-16,6.11-24.19,8.67-5.8,1.81-12.13,1.68-18.83,5.18,7.63,4.82,14.08,4.86,20.86.55,4.41-2.8,8.65-5.79,14.34-6.18,4-.27,5.67.89,5.73,4.55,0.15,8.91,1.07,17.87-1.25,26.67-0.45,1.71-2.53,3.5,0,5.13,2.23,1.44,4.43,1.29,6.11-.93,1.16-1.53,3.73-1.18,4.36-3.33,1.6-.07,3.34.19,4.71-0.41,5.67-2.46,8.5-.18,9.71,5.29-8.13,5.11-15.94,10.77-25.62,14,6.17,2.49,6.17,2.49,10.69,1.12,4.88-1.48,7.4-.32,8.53,4.29,0.46,1.89.17,4,.34,5.94,0.7,8.2-3.7,14.68-9.46,22.63,10.59-2.78,15.53-8.61,17.63-15.92,2.35-8.18-.28-15.65-8.08-20.61,1-.7,1.78-1.58,2.68-1.75,6.18-1.24,13.45-.18,15.84-8.73,0.33-1.19,3.41-1.71,5.29-2.35,4.07-1.39,8.23-2.54,12.26-4,2.74-1,5.94-1.79,6.38-5.49C139.46,928.06,136.49,926.57,133.7,924.57ZM88,937.9L88.13,938l-0.26.16c0-.08.1-0.15,0.15-0.23-2.85-1.85-1.67-4.75-1.42-7.12,0.49-4.53,4.38-6.05,7.64-3,1.38,1.27,2.09,3.27,3,4.72C94.91,936,90.09,934.52,88,937.9Zm16.39-27.32h0c-1.81,4.06-1.92,8.37-1.92,12.72,0,1.8,1,4.36-2,4.57-1,.07-2.33-1.13-3.19-2-2-2.18.91-2.42,1.6-3.51,0.51-.81,1.62-1.31,1.95-2.16a3.79,3.79,0,0,0-.19-2.76,1.94,1.94,0,0,0-2.57-.76c-2.71,1.17-5.39,2.44-8.23,3.73-5.15-8.75,7.77-7.6,7-14.45-2.88-1.76-5.92.25-8.95,0.49a3,3,0,0,1-3-2.15c-0.55-1.68.49-2.34,1.78-2.91,2.72-1.2,5.42-2.43,8.13-3.65A4.48,4.48,0,0,0,99.24,896l2.86,0h0C107.31,900.18,104.26,905.63,104.41,910.58Zm4.46,33.12c-0.53-12-.53-12,15.49-14.63C119.09,935.48,114.89,940.26,108.87,943.7Z"/><path class="cls-2" d="M57.84,772.49c3.48,5.26,5.83,9.81,5.56,16.29-0.56,13.55-1.12,27.1-2.21,40.62a106.69,106.69,0,0,1-2.05,12.72c-0.39,1.9-1.35,4-3.65,4-2.55,0-2.47-2.6-3.38-4.27-2.52-4.61-3-10.05-1.2-14.21,6.48-15.26,4.92-31.19,5.42-47C56.4,778.2,55.45,775.5,57.84,772.49Z"/></g></svg>