<svg id="图层_1" data-name="图层 1" xmlns="http://www.w3.org/2000/svg" viewBox="0 0 200 1348.18"><defs><style>.cls-1{opacity:0.05;}.cls-2{fill:#fff;}</style></defs><title>主站</title><g class="cls-1"><path class="cls-2" d="M119.2,205.62c1.86-2.38,3.67-4.62,1.55-6.64-3.56-3.39-.3-4.23,1.94-5.22,2.78-1.23,5,.23,5,2.86a34.92,34.92,0,0,1-1.39,11.81c-2.74,8-.49,14.23,5.43,19.64,2.38-1,0-3.91,2.38-4.93,5.12,3.89,4.78,11,9,15.66,1.81,2,.58,5.15-2.1,6.79s-4.7-.12-6.07-1.79c-4.19-5.12-9.17-9.65-12.73-16.83-2.73,4.78-4.75,9.06-7.43,12.88-5.19,7.41-13.34,14.16-21.5,10.63a26.33,26.33,0,0,1-3.49-2.58c13.05-3.77,18.19-14.08,23.73-24.11,2.41-4.37,2.92-8.33.42-13-4.36-8.19-8.11-16.7-12.09-25.09-0.56-1.18-.79-2.58-2.15-3.15-2.38-1-13.84,5.28-13.68,8,0.69,12-6.26,20.6-13.07,30.08,5.95,0.12,9.9-3.33,14.14-5.44,4.06-2,2.79-6.21,1.68-9.71-0.4-1.26-1.37-2.43-.06-3.52s3-.88,4.6,0c7.15,3.93,8,17.71,1.23,21.91-1,.64-2.89,1.16-3.76.67-7.2-4.08-11.68,2.12-17.11,4.45-1.34.58-1.13,3.75-4.12,2.2-2.25-1.17-3.78-2.37-4.16-5-0.77-5.49,2.58-9.49,4.9-13.79,1.88-3.48,4.64-6.47,6.67-9.89,2.16-3.65,4.26-7.43,4.31-11.86-9.74-2.43-9.74-2.43-15.21-7.17,9.47-.4,17.07-5.26,24.94-9.21,4.82-2.42,4.83-5.16,0-7.51-2.37-1.15-2.75-1.52-2.14-4,0.78-3.16,1.83-5.87,5.34-6.27a4.13,4.13,0,0,1,4.63,3c0.63,2.6,1.18,5.16,3.15,7.6,3,0.85,4.74-2.81,7.84-2.75,3.62,0.07,5.08,1.56,3.6,4.84-0.54,1.18-1.19,2.7-2.22,3.21-6.23,3.07-5.21,7.08-2.42,12.13C112.6,191.35,115.77,198.56,119.2,205.62Z"/><path class="cls-2" d="M84.57,1315.23c-4,8.88-9.84,15.43-18.22,19.88-1.47-3-1.29-4.55,1.59-6.62,6.83-4.92,11.3-11.73,13.44-21.87-4.82,3.22-8.55,5.51-12,8.1-5.11,3.78-7.85,8.68-7.6,15.36,0.15,4,1.48,10.77-3.91,10.44-4.63-.28-3.24-7.2-2.91-11.2,0.79-9.57,2.85-19,2.87-28.69,6.55,1.43,6.55,1.43,6.4,12.46a143.47,143.47,0,0,1,16.12-11.9c4.66-2.86,4.26-10.36-.4-13.13-0.69-.41-1.88.09-1.21-1.53,1.14-2.75,3.16-4.53,6-4.58,2.61,0,4.21,2,4.4,4.54,0.22,2.94.05,5.91,0.05,10,4.9-1.14,9.1-2.93,13.64-2.47,7.34,0.74,12.78,4,12.52,12.31s0.44,16.61.41,24.92a24.69,24.69,0,0,1-2,10.68c-2.91,6.16-7.63,7.91-13.62,4.7-3.75-2-6.7-4.86-10.08-10.18,3.67,1.89,5.52,3,7.46,3.81,6,2.6,8.55,1.42,9.65-5.05a71.45,71.45,0,0,0-1-30.53c-2.11-8-2.16-8-9.62-4.7-7.15,3.16-7.15,3.16-9.61,10.12,3.41,1.16,7.39.82,10.24,3.36,1.37,1.22,3.38,2.87,1.73,5-1.4,1.78-3.46,3.53-6,1.67A30.43,30.43,0,0,0,84.57,1315.23Z"/><path class="cls-2" d="M128.32,300.24c2.4-2.5,4.41-3.67,6.79-3.82a7.44,7.44,0,0,1,8.06,8.78,34.16,34.16,0,0,1-6.85,16.26c-2.45,3.09-4.72,6.33-7.24,9.74,4.72,3.54,10,5.62,14,9.5a19.37,19.37,0,0,1,5.53,8.1c1.06,3.38-.62,6.05-3,7.74s-4.13-1-5.77-2.48a29.58,29.58,0,0,1-3.35-3.67c-4.89-6.16-9.3-12.93-19.07-10.6-1.6.38-3.65-1.16-5.57-1.85,1.14-3,1.6-6.27,4.66-7.62,10.45-4.62,14.22-14.23,17.81-23.86C136.25,301.14,135.93,301,128.32,300.24Z"/><path class="cls-2" d="M60.43,239c17.28-.69,35.76-9.46,46.88-22.51-1.2,8.62-5.14,14.12-10.83,18.66-7.86,6.27-17.43,7.59-26.87,9.08C66.1,244.78,63.36,242.89,60.43,239Z"/><path class="cls-2" d="M112.2,146.82c2.9,1.67,5.29,3.31,7.9,4.49,5.28,2.4,4.63,7.61,5.29,11.81,0.42,2.64-2.59,2.64-4.29,1.3C115.69,160.2,112.17,154.82,112.2,146.82Z"/><path class="cls-2" d="M95,987.57c-6.58,3.69-12.84,8-19.35,12.06,4.37,2.56,8.05-1.5,13,.07a28.5,28.5,0,0,1-2.72,2.35,6.19,6.19,0,0,0-2.45,7.86c1.06,2.8,4,1.18,6.19,1.18,3.32,0,6.63,0,9.95,0,2,0,1.88-1.69,2.71-2.73,2.92-3.66-1.69-5-1.49-7.31,0.26-3,4.66-3.78,5.09-7a7.46,7.46,0,0,0-.69-3.84C103.53,986.55,99.25,985.17,95,987.57Z"/><path class="cls-2" d="M117.17,941.12c-3.82-2-7.51-3.62-12.27-2.24C94,942,83.1,944.92,72,947.17c-9.93,2-19.5,6.73-31.4,4.43,7.24,8.26,7.44,8,15.82,5.5,5.71-1.69,10.51-5.58,16.7-6.1,3.93-.33,7.79-1.58,11.65-2.57s7.33-3.65,11.4-2.71c5.27,1.21,5.78,1.39,7.78,1.18,3.85-.42,7.5-3.08,11.63-0.86,1.21,0.65,2.57-.15,3.09-1.61A2.68,2.68,0,0,0,117.17,941.12Z"/><path class="cls-2" d="M97.41,959.52c-9.61-3.13-16.82,2.75-25.38,6.14C89.85,971.33,94.17,970.25,97.41,959.52Z"/><path class="cls-2" d="M77.85,982.66c6.36,0.84,12.45,0,17.94-3.88a3.89,3.89,0,0,0,1.85-4.11c-0.26-2.09-1.83-2.45-3.61-2.5a16.8,16.8,0,0,0-6.79,1.1c-5.76,2.25-11.61,4.25-18.22,6.63C72.43,981,75.08,982.3,77.85,982.66Z"/><path class="cls-2" d="M75.23,1007c-3.2-2.85-3.52-7-6-11.7-2.56,6.67-4.07,11.6.52,16.79,3,3.43,5.48,6.85,10.55,4C81,1011.65,77.9,1009.34,75.23,1007Z"/><path class="cls-2" d="M86.73,932.88c2.24,0.15,5,.83,5.8-1.86S91,926.47,89,925.78c-3.95-1.35-8.15-1.94-13.4-3.09C77.71,928.67,80.71,932.48,86.73,932.88Z"/><path class="cls-2" d="M89.89,1244.18c-7.78,2.45-15.12,8-24.14,4.58-0.91-.34-2.42.84-3.62,1.39-2,.93-3.23,2.56-2.47,4.74,0.9,2.58,2.9,2.1,4.79,1.05,2.77-1.54,5.78-1.45,8.72-1.07,13.55,1.77,25.74-2.21,38.45-9.07C103.95,1241,97.16,1241.89,89.89,1244.18Z"/><path class="cls-2" d="M112.79,1218.47a10.32,10.32,0,0,0-7.54-7.19c-0.77-.2-9.77,6.67-9.45,7,6.14,6-1.5,7.52-3.65,10.26-5.67,7.21-13.41,12.24-21.17,17.4a4.2,4.2,0,0,0,1.31.86c14.42-5.46,26-15.47,38.5-24C112.16,1221.81,113.33,1220.14,112.79,1218.47Z"/><path class="cls-2" d="M80.87,1217.06c2.36,1.49,4.11,1,5.74-1.24,2.26-3.1.43-4.92-1.93-6.35a11.26,11.26,0,0,0-12.87.24C74.26,1212.91,77.57,1215,80.87,1217.06Z"/><path class="cls-2" d="M71.77,1229.76c1.35-2.32,3.89-3.76,5.35-6.91-5.94.5-10.83,2.86-15.75,0.77-1.1,2.62,0,4.4.94,6.08C65.22,1234.7,68.75,1234.94,71.77,1229.76Z"/><path class="cls-2" d="M86.62,423c-3.94,1.73-7.86,3.56-11.61,5.65-8.59,4.8-16.79,10.65-28.87,8.09,10,8.89,12.2,9.34,21.53,4.83a57.36,57.36,0,0,0,7.72-4.47c6.92-4.79,14.12-8.34,22.91-8.11,3.35,0.09,7.42.41,9.37-3.65C97.73,418.12,97.67,418.09,86.62,423Z"/><path class="cls-2" d="M93,417.69c-2.76-14.07-13.32-11.85-22.3-14.67C74.86,413.7,82.82,416.07,93,417.69Z"/><path class="cls-2" d="M146.6,424.45c-2.06-.19-4.82,1.39-5.39-2.29-0.46-3-2-5.38-5.2-4.43-2.76.83-6.34,0.61-7,5.55-0.51,3.81-2.3,8.45-8.43,9.22,0.56-5.12,0-9.8,4.65-13.47,3.36-2.65,4.05-6.21-1.16-8.08-2.61-.94-2.69-2.92-2.21-4.78a28.24,28.24,0,0,0,1.08-8.85c-0.15-2.49.73-6.16-3.21-5.91-3.05.19-6.92,1.06-6.33,5.86,0.4,3.27,1.06,6.51,1.27,9.78,0.54,8.1-1.27,9.3-9,6-1.15-.49-1.59-0.56-2.28,1.06,1.6,3.8,4.69,6.61,8.33,9.06,1.51,1,.59,2.54-0.31,3.34-1.61,1.43-3.4,2.2-3.6-1.19v-0.24h0l-0.11.21,0.08,0.06c-0.36,4,2.12,7.28,3.76,10.67-12.68,4.74-12.68,4.74-15.66-3.71-1,7.33-5.74,9.42-11.35,11.09-4.59,1.37-8.62,4.39-14,5.22,6.22,5.52,13.58,6.8,19.95,1.44,5.75-4.83,11.67-5.42,18.2-5.26,3,0.07,5.64-1.4,9.59-1.89L93.83,472.78c-1.33-3,1-5.82-1-8a17,17,0,0,1,2.27-3.26c1.55-1.4,3-2.7,1.91-5s-3.13-2.42-5.1-2.2a23.6,23.6,0,0,0-6.74,1.56c-5.66,2.45-11.19,5.21-17.3,8.09,3.9,1.8,4.05,4.46,2.93,7.06a19.48,19.48,0,0,0-1.4,9.72h0c-0.22,2.27-.51,4.54-0.63,6.82-0.21,4,1.4,7.41,5,9,2.89,1.26,4.44-2.12,6.45-3.59,2.36-1.73,5.5-3.42,6.44-5.85,2.77-7.18,8.42-10.92,14.59-14.37,1.9-1,2.84-7.25,6.05-1.11h0c2.05-1,2.66-3.85,5.29-4a2.22,2.22,0,0,1,.57.67c0.83,3.43-.68,6.51-1.46,9.71s0.28,5.93,1.92,8.52c2,3.13,4.11-.67,6,0,3.46,1.26,8.87-1.68,9.77,5.46,0.43,3.43,5,3.56,6.6.38a20.28,20.28,0,0,0,1.72-6.68c1.1-8.87,1.61-17.8,3.15-26.64,1.63-9.33-.69-11.71-10.31-12.07a22.38,22.38,0,0,1-3.06-.59c4.6-7.38,8.67-14.65,18.83-14,2.36,0.15,3.59-1.37,3.58-3.75C149.84,426.41,149.11,424.68,146.6,424.45ZM77.31,486.57c-1.14-.48-1.93-0.55-2.11-0.92-1.82-3.78-.48-5.85,3.47-6.66C80.31,482.33,77,483.86,77.31,486.57Zm-3.53-8.13c-0.31-2.24-.79-4.47-0.88-6.72-0.15-3.32.84-5.65,5-5.46,3.95,0.17,7.57-1.41,11.13-3a1.75,1.75,0,0,1,2.56.88,4.63,4.63,0,0,1,.28.65C83.94,466.88,79.29,473.22,73.78,478.44ZM119,480.37l11.42-9.94C130.68,480.31,130.07,480.84,119,480.37Zm10.67-25c1.53,1,1.7,2.75,1.51,4.46-0.23,2.08-1.34,2.9-3.36,2.15-1.53-.57-3-1.38-4.74-0.39-0.13,3.67,1.51,7.8-3.31,11.46-1.37-4.78-.49-9.12,0-13.31C120.09,457.32,127.65,454.11,129.66,455.39Z"/><path class="cls-2" d="M134.36,92.58c7.94,1.25,13-2.72,17.28-9.13-5.46-2.43-10.53-4.81-16.37-4.4-2.42.17-3.09-.82-3.82-3.18-2.57-8.35-8-10.47-18-7.1,2,5.3,10.59,6.1,7.74,13.1-1.65,4-6.14,3.24-9.62,4.7-1.18-13.76-1.32-13.87-17.21-14.48,0.23,0.62.51,1.23,0.69,1.87,0.66,2.43,2.84,3.53,4.33,5.25,4.36,5,2.68,10.29-3.94,11.94-3.27.81-6.17,4.83-10.55,0.1-2-2.13-2.62,6.08-7.9,5.57-4.81-.47-9.75,1.83-15.29.94,4.68,9.86,13.17,8.71,21,8.78-0.11,5.4-2.27,9.64-3.07,14.16-1.71,9.54,3.33,14.28,12.76,12.52,11.67-2.17,23.17-6.1,35.36-3.13a8.21,8.21,0,0,0,5.74-1.19c3-2,6.18-4.9,5.65-8.62-0.43-3-4-3.71-7.15-4.28-2.1-.39-4.62,1.16-6.72-1.47,1.18-5.56,2.87-11.31,3.48-17.17C129.17,93.35,130.86,92,134.36,92.58ZM97.09,122.11c-2.57-.32-5.09-1-8.14-1.62-1.08-5.83,1.83-11.31,2.67-16.93,0.57-3.83,5.37-2.54,9.39-3,0.68,6.37-1,12,.55,17.44C102.68,122,100,122.47,97.09,122.11Zm23.74-24.33c-0.3,2.25-.29,4.86-3.41,5.27a33.16,33.16,0,0,1-4.08,0c0.11,5.36,4.77,8.65,5.8,14.34l-11.78,3.83a101.72,101.72,0,0,0,2.26-20.3c0.12-4,5.81-7.45,9.42-6.26A2.58,2.58,0,0,1,120.82,97.79Z"/><path class="cls-2" d="M115.11,285.08c-8.26-4.88-17.45-3.88-24.14,3.54-3.72,4.12-7.9,7-13.05,7.85-7.47,1.3-14.72,4.17-24.55,2.31,10.56,8,20,4.29,31.12,3-7.24,12.9-10.37,25.93-13.69,38.91,6.27,3.43,8.46,3.46,12-1.32,2.12-2.87,4.27-4.53,9.05-5.21-5,7.91-10,13.31-17.68,16.4-4.25,1.7-7.44,1.52-10.74-1.31,1.85,6.93,3.77,8.47,10.08,7,7.44-1.78,13.83-5.7,19.59-11.65C94,351,94,356.89,92.28,362c-2.36,6.85,0,11.34,4.45,15.75,4.31-1.5,8.07-3.17,6.69-9.07-3.84-16.47-1.54-33-.74-49.61,0.43-8.8,3.22-17.27,2.58-25.76,3.46-1,6.77-1.67,9.75-3C117.81,288.94,117.92,286.73,115.11,285.08Zm-27.69,37,7.38-4.45C94.53,323.47,94.53,323.47,87.42,322.07ZM96,308.28c-0.3,2.72-3.34,1.67-5,1.51-3-.3-2.18-2.73-1.41-4.45,1.19-2.66,2.72-5.17,4.54-8.55C98.76,300.64,96.35,304.72,96,308.28Z"/><path class="cls-2" d="M75,1110c2.28,0.57,4.85,1.8,6.68.12,6.25-5.77,14.23-4,21.47-5.47,0.9-.18,1.32.15,1.35-0.23-0.17,3.47-4.3,3.15-3.19,6.79,8.14-3,17-3.94,23.73-10.49-5.07-5.1-9.56-6.83-16.27-3.39-4.68,2.4-10.58,3.29-16.35,3.13,3-8.44,1.21-12.15-7.12-13.27-5.38-.72-10.94-0.14-18.23-0.14,4.18,3.95,7.19,6.43,9.75,9.31,3.27,3.67,2.32,6.37-2.46,7.83-1.58.48-3.35,0.49-4.82,1.17-7,3.24-13.93,5.74-20-3.23A97.13,97.13,0,0,1,45,1118.57c-0.92,2.71-2.44,5.63-.8,8.66,1.21,2.24,1.62,5.21,5.13,5.35,2.77,0.11,4.41-1.51,5.5-3.6,2-3.81,3.76-7.74,5.46-11.69C63.24,1110.42,67.59,1108.13,75,1110Z"/><path class="cls-2" d="M95.53,1144.67c3.09-1.45,8.15-1,8.12-5.85s-4.47-6-8.14-7.59c-0.42-.18-0.56-1-0.84-1.54,3.39-5.17,3.42-6.2,1.21-9.26-2.82-3.91-6.06-3.14-9.61-1.3a70.33,70.33,0,0,1-16.35,6.32c1.06,4.83,5.83,4.69,8.93,6.93-1.49,2.32-2.62,4.34-4,6.17-2.19,2.9-4.67,5.59-6.8,8.54a7.15,7.15,0,0,0,.52,9.2c1.87,2.23,4.25.14,6.3-.77,3.22-1.44,6.43-2.9,10-4.51,0.58,6,.89,10.86-5.4,13.77a12.14,12.14,0,0,0-6.52,8.44c-0.34,1.55-.48,3.3,1.84,3.48-0.44,3.18-1.19,6.36-1.15,9.53,0,2.42,1.93,5.17,4.47,3.75,7.32-4.1,15.54-5.67,23.11-9,2.51-1.1,3.11-2.91,1.19-4.43-4.09-3.24-8.91-5.66-6.48-12.41,0.41-1.15-2.12-2.24-3.14-3.37C87.72,1155.16,89.19,1147.64,95.53,1144.67Zm-20.4,31.77-0.16.27-0.13-.24,0.29,0c1.27-2.1,2.17-4.58,5.18-4.93C79.65,1175.87,79.62,1176,75.14,1176.45Zm15.12,0.44c0.49-.8.76-2,2-1.83a1.45,1.45,0,0,1,1.33,2c-0.36.94-.88,1.82-2.05,1.51C90.82,1178.35,89.29,1178.46,90.26,1176.88Zm-6.38-33.65c2.67-3.46,4.37-5.78,6.2-8,0.86-1,2-1.6,3.26-.42a2.74,2.74,0,0,1,.35,3.55C91.93,1141.47,88.82,1142.14,83.87,1143.23Z"/><path class="cls-2" d="M159.17,737.08c-4.64-5-5.64-11.76-9.42-17.81-0.88,4.26-2,7.79-2.26,11.39-0.47,5.67-3.73,7.73-8.84,9-7.26,1.76-14.55,1.49-21.83,1.18-4.87-.21-8.18-2.65-7.84-8.22,0.32-5.31-3.48-11.24-.65-15.6,3-4.57,9.51-5.12,14.92-6.57s5.45-1.82,2.71-8.2c-0.43-1-.78-1.94-0.32-2.78,3.62-6.48,1.16-16.17,10.43-19.73a6.22,6.22,0,0,0,2.72-2.85c1.51-2.8,5.7-5.13,3.76-8.6-2.28-4.08-6.91-4.94-11.41-4.26-2.25.34-4.37,1.52-6.58,2.18-6.25,1.86-11.8,5.7-18.66,6.93,6.76-16.7,8.88-15.87-.34-21-3.59,8.73-5.14,18.43-13,25.07-2.28,1.92-1.12,5.14.63,7.13,1.32,1.5,3.09,0,4.33-1,9.18-7.57,21.51-6.74,31.44-12.53-2.6,6.84-4.47,13.78-13,14.77-1.36.16-2.57,2-3.77,3.13a26.49,26.49,0,0,1-12.76,7.18c6,8.84,11.49,1.83,17.34.15-2.08,4.55-3.53,9.37-9.07,10.28-1.65.27-2,.54-2.29,2.1-0.73,4.23-1.68,8.43-2.65,12.62C98.79,738,109.54,746.72,124,748.88c11.33,1.68,21.66-2.13,32.26-4.54C160.29,743.43,161.78,739.89,159.17,737.08Z"/><path class="cls-2" d="M76.45,688.29c-3.68-6.36-1.86-12.73-.69-19.24,1-5.65-3-9.57-8.61-8.54-2.23.41-4.54,0.92-2.43,4.55,3.42,5.89,0,12.33.43,18.53,0.14,2.21-2.4,3-4.47,3.08-4.7.17-8.95,1.65-15.48,5,6.39,1,10.23,3,14.25,4.14,4.6,1.32,5,4,5.16,8.06,0.31,8.79-6.21,12.5-11.75,17-3.35,2.71-7,5-10.26,7.87-2,1.71-1.69,4.55-.73,6.52,1,2.16,3.58,1.63,5.24.49,4.62-3.18,6,.3,7.71,3.41,2.59,4.59,4.43,9.72,8.49,13.3,1.92,1.7,4.32,3.66,7.1,1.93a5.06,5.06,0,0,0,2.15-6.11c-1.49-4.88-.88-9.93-0.92-14.87-0.08-8.13-1.76-16.55,3.6-24,0.83-1.16,1.77-3.91-.39-5.21-6.14-3.69-2.69-7.81-.06-11C76.17,691.42,77.57,690.22,76.45,688.29Zm-15.1,51.17c-8-6.8-8-6.8.87-14.67A22.21,22.21,0,0,1,61.35,739.46Z"/><path class="cls-2" d="M54.09,574.47c-1.15.71-2.3-.77-2.66-2.15-0.57-2.18-.71-4.56-3.65-6.4-0.61,5.46-.95,10.68-1.83,15.81a10.11,10.11,0,0,0,3.47,9.64c2.63,2.45,6.39,1.12,6.13-2.34-0.31-4.13,1.3-7.7,1.8-11.56C57.64,575.33,59.3,571.24,54.09,574.47Z"/><path class="cls-2" d="M151.88,603c-5.74-2.28-11.42-4.72-16.95-7,0.17-3.38,2.78-4.1,4.33-5.71,3.48-3.6,6.7-7.43,8.13-12.28,0.74-2.51,1-5.71-3.1-5.74-2.54,0-6.78-1.51-5.22,4.07,0.51,1.83-.55,3.11-1.65,4.4a57.1,57.1,0,0,1-18.13,14.52c-0.17-.68-0.35-1.36-0.52-2l0.81-10.39c3.25-1.38,3.82-5.34,6.84-7,1.49-.84,2.46-2.58.91-4.15-3.89-3.94-.66-5.11,2.14-7.35,5.57-4.44,9-10.58,11.11-17.35,0.71-2.26.75-4.56-1.42-6.37s-4-1.72-6.41-.59c-5.53,2.59-11.19,4.92-16.92,7.4-1.71-5.86-.58-9.59,5.24-11.26a43.22,43.22,0,0,0,8.18-3.59c3.06-1.63,8.38-2.37,8-6.16-0.61-5.48-6.43-2.77-9.95-3.75-0.3-.08-0.82.64-1.22,1,1.62,5.29.57,6.11-9.57,7.52a5,5,0,0,1-.65-1.81c0.26-4,.68-7.92,1-11.89,0.71-10-.82-11.46-11.24-10.72-0.77.05-1.89-.32-2.32,1.63,5.47,1.07,6.58,5.54,7.06,10.24a80.71,80.71,0,0,1,.32,10c-0.12,5.82-2.42,7.3-8.11,6.29-2.25-.4-2.12-4.13-4.94-3.35-1,8.65-1,8.65,8.8,11-1.93,3.12-6.17.31-8.63,3.22,2.06,1.35,3.74,2.37,5.31,3.52C104,550,106.11,551,104.82,552c-5.48,4.19-.71,3.74,1.8,4.63,1.85,0.65,2.45,2.18,1.45,4-1.36,2.44.17,5.74-1.85,8.32-8.34-3.56-8.9-12.6-14.48-18-2.4,18,6,26.09,23.11,22.37C109.59,579,104,583.4,96.91,585.78c-2.24-2.32,1.92-4.44-1.12-7.17-2.9,2.3-5.71,4.82-6.82,8.77-0.52,1.87-.72,3.93.94,5.59s3.58,1.35,5.49.49l11.92-5.36c-5.59,7.77-10.92,13.95-18,18.2a17.44,17.44,0,0,0-7.45,8.9c-1.21,3,.33,4.49,3.2,4.56,3.16,0.08,6.08-1.1,7.64-3.89,2-3.5,5-6,7.1-9.53a39.41,39.41,0,0,1,12.35-13.66c-1,5.54-1.71,9.77-2.45,14-0.89,5.07-.48,10,2.23,14.44s8.64,5,10.55.68c2.76-6.3,8.66-11.11,8.88-18.57h0c1.68-1.34,2-5.24,5.82-1.84a60.49,60.49,0,0,0,23.36,13.14C160.55,607.56,156.72,605,151.88,603Zm-20.71-55.81c-2.18,6.36-6.26,10.36-10,14.63C121.12,555.09,121.57,548.5,131.17,547.24ZM113,564.1c-3.58-8.39-3.54-8.46,5.65-10.34C117,557.38,115.53,561,113,564.1Zm17.46,36.51c-4.62,4.44-7.34,11-14.81,13.15-0.87-6,2-11.12,1.79-16.55,3.28-1.68,6.79-1,10.22-.92,2.38,0.06,3.25,1.66,3.3,3.85h0l0.06,0.37C130.79,600.53,130.62,600.58,130.43,600.61Z"/><path class="cls-2" d="M71.95,548.86c-2.29-1-2.84-2.61-2.77-4.69,0.13-4.31-.33-8.79.73-12.88,1.31-5.06-.44-6.81-5-7a13.62,13.62,0,0,0-8.64,1.88c3.43,1.23,4.64,2.84,5.08,5.33,1.79,10.15,3.44,20.53,2.61,30.63-1.58,19.41,1.8,39.21-4.56,58.3-1,3-1.55,7.67,3,9.39,2.4,0.92,6.56-4,7.4-8.19,0.19-1,0-2,.15-3,1.27-8.19.7-16.39,0.41-24.61-0.29-8.38-2.21-16.79-.53-25.39,8.49,3.36,9.32,2.92,9.33-4.76C79.09,557.77,78.74,551.68,71.95,548.86Zm0.37,10.82c-5.12-1.95-2.5-5.76-3.19-10.18C74,553.5,73.57,556.49,72.32,559.68Z"/><path class="cls-2" d="M122,846.87c-5,1.65-9.17,5.44-14.68,5.93a19.59,19.59,0,0,0,2.49,2.38c0.49-.08,1-0.18,1.44-0.21,4.52-.25,8.46-3.32,13.28-2.89-2.23,10.32-8.65,15.57-18.78,17.57-4.34.86-5.49-.88-5.92-4.1-0.48-3.57-.43-7.21-0.61-10.82h0c-1.12-1.13-1.78-3.18-4-2.06-2.37,6-3.42,12.08-.47,18.28,1.25,2.63,3.1,4.84,6,3.5,6.5-3,13.47-3,20.28-4.07,2.19-.35,5.79-0.65,5.32-3.19-0.85-4.52,2.11-6.67,4.17-9.4,2.4-3.18,3.78-6.46,1.4-10C129.15,843.67,125.26,845.8,122,846.87Z"/><path class="cls-2" d="M55.1,824.86a3.18,3.18,0,0,0-.4-1.54c-3,0-2.89,4.57-6.22,4-1.63-3.51-2-7.76-6.91-10.32-0.91,7.47.38,14.08-1.84,20.68-1.64,4.9,3.36,10.6,8.68,11.49,3.56,0.6,6.52-1.87,5-5.13C50.3,837.06,53,831.1,55.1,824.86Z"/><path class="cls-2" d="M136,825.11c-2.31-.64-4.5.47-6.76,1-3.06.75-6,2.59-9.2,2.06-0.94-2.41.69-3.56,1.13-5.06,2.71-9.1,5.28-14.72-9.55-12.11,2.81-6.17,5.48-12.2,8.3-18.16,0.75-1.59,1.42-3,.09-4.54-1.62-1.85-3.75-1.39-5.5-.57-2.06,1-3.76,2.68-5.78,3.78-5.4,2.95-10.83,6-18.56,2.37,2.83,3.58,3.36,6.42,5.74,8.52,5.94,5.24,8.1,5.13,13.14-1.71,0.36-.49.82-2.09,1.75-0.27-1.93,4.51-3.53,9.23-5.89,13.53-2.78,5.09-8.43,5.17-13.65,6,0.4,2.92,1.38,6,3.39,6.19,6.56,0.67,3.17,3.94,2.15,6.6-0.91,2.35-2.82,3.46-5.23,4.13-4.1,1.15-8,2.22-12.49,1.39-3.47-.64-3.78,2.7-3.74,5.57,0,2.65,1.82,4.17,3.68,3.25,5.43-2.67,8.37,1.54,12.11,3.63h0l5.72-4.66c0.15-2.41,1.83-3.47,3.81-4.06,8.59-2.56,17.15-5.27,26.24-5.41a57.8,57.8,0,0,0,9.87-.95c3.86-.72,5.13-3.21,5.09-6.21C141.81,826.1,138.44,825.79,136,825.11Zm-32.14,8.48c2.08-8.11,3.3-16.64,13.86-20.09C116.43,823.18,111.36,829.26,103.85,833.6Z"/><path class="cls-2" d="M64.19,828.06c0.45-2.68.88-5.31,5.66-4,4.45,1.18,9.54-3.62,11-8.2,1.57-4.82-.52-8.29-4-11.35-3.86-3.35-7.35-.32-11.17.71,0-2,.07-3.61,0-5.26-0.12-2.38-.35-4.8-3.47-5.15a5.68,5.68,0,0,0-5.81,3.07c-1.38,2.42-1.91,5.58.27,7.28A6.21,6.21,0,0,1,59.32,811c-0.79,16.21-.55,32.58-3.78,48.49-1.89,9.3,1.93,14.29,9.33,19.81,3.78-13.08,5.81-25.6,8.38-40.15l-10,15.61C62.83,844.6,62.81,836.28,64.19,828.06Zm1.1-15.4c0.48-3.19,2.18-5.5,5.59-5.66,1.53-.07,2.11,1.62,1.75,2.89-0.89,3.15-2.06,6.25-5.88,6.85C64.44,815.92,65.06,814.13,65.28,812.66Z"/></g><path class="cls-2" d="M71.79,18.26c0.57-2.56,2.08-3,3.21-2.94,16.17,0.72,31-5.42,46.33-9a25.67,25.67,0,0,0,8.21-3.42C138.5-3,145.86,1,153,6.39c2.67,2,2.27,4.77-.73,6a8.56,8.56,0,0,1-3.9.66c-14.88-1.65-28.88,3.28-43,6.33C93.76,21.84,83,20.5,71.79,18.26Z"/><path class="cls-2" d="M51.86,1064c16.77-4.85,32.13-9.66,47.3-15.05a23.11,23.11,0,0,1,14.63-.57c3.74,1.12,4.46,3.11,4.06,6.53-0.42,3.61-2.48,4.41-5.51,3.72-12.47-2.83-24.1,2.08-36.06,3.89C68.64,1063.68,61.1,1065.68,51.86,1064Z"/></svg>