<svg id="图层_1" data-name="图层 1" xmlns="http://www.w3.org/2000/svg" viewBox="0 0 200 1341.19"><defs><style>.cls-1{opacity:0.05;}.cls-2{fill:#fff;}</style></defs><title>主站</title><g class="cls-1"><path class="cls-2" d="M72.53,1176.86c-1.68-3.21.45-7.38-1.45-9.64-4.34-5.18-1.58-9.76-.24-14.66,0.66-2.4,2.75-4.52,1.56-7.56-5.15,5-6.8,12.35-12.55,16.66a9.45,9.45,0,0,0-2.8,4c-1.1,2.74-2.53,5.88.62,8.16,3.38,2.45,4.3-1.62,6.32-2.81a14.9,14.9,0,0,1,2.72-.77,27.85,27.85,0,0,1,.21,4.55c-0.3,2.29-.81,4.55-1.33,6.81-1.41,6.14-1.47,6.26-8.11,4.09-3.37-1.1-7.08-.37-6.8,2.77,0.33,3.71-.83,9.16,4.71,10.95a6.46,6.46,0,0,0,1.29.37c-2.94,2.82-4.65,5.52-8.67,4.53L47.11,1193c-2.87,2.82-3.15,5.48-3.8,8-0.78,3.09-3.32,6.41.55,9,3.27,2.17,6.72,1.74,10.33.08A25.07,25.07,0,0,0,68,1195.22c2.29-6.74,6.18-12.39,9.85-18.27,1.31-2.09,4.07-3.69,2.89-6.58C77.08,1171.35,76.92,1176.58,72.53,1176.86Z"/><path class="cls-2" d="M98.49,1171c-0.13-7,1.52-13.75,1-20.71-0.68-8.8-2.77-9.85-11.67-4.45,5.71,1,5.16,5.22,5.2,9,0.1,10.65-.19,21.31.13,32,0.26,8.95-.15,17.95,1.59,26.83,0.56,2.86.24,6.88,4.23,6.48,3.15-.32,3.83-4.3,4.5-7.07,0.43-1.77-.48-3.88-0.82-5.83C100.53,1195.21,98.72,1183.28,98.49,1171Z"/><path class="cls-2" d="M142.44,1191.63c1.18-7.49-3.27-10.39-9.09-13.37-8.52-4.36-17.67-4-26.85-5.08,14,5.49,22.17,20.17,38.4,24.21C143.64,1194.56,142.23,1193,142.44,1191.63Z"/><path class="cls-2" d="M140,413.61c-4.32-2.36-8.3-.75-12.4.87-1.87.74-3.68,3.78-6,1.11-1.66-1.87-1.68-4.3-.82-6.6,0.7-1.86,1.74-3.59,2.4-5.46,1.64-4.64.58-7-3.92-8.38-2.86-.86-5.88-1.59-8.45.93,0,0,2.72,6.7,2.44,10.78-0.51,7.44,1.51,13.5,9.23,17,7.11,3.24,6.91,9.25.12,13.64-1.05.68-2.4,1.07-2.2,2.78a32.15,32.15,0,0,0,15.51,2.64c2.77-.22,4.26-1.83,3-4.81-0.92-2.13-2.11-4.17-2.88-6.35-2.27-6.46-2-6.94,4.32-11.36C143.54,418.17,143.44,415.47,140,413.61Z"/><path class="cls-2" d="M128.86,391.21c4.35,0.27,9.27.38,13-3.83-6.43-7.72-14.78-5.64-22.15-4.14a276.65,276.65,0,0,0-62.26,20.55c7.17,3.54,13.25,4.07,19.23.72C92.89,395.42,110,390,128.86,391.21Z"/><path class="cls-2" d="M100.08,411.54c-1-3,.12-6.86-3.75-8.64-1.59,2.23-.52,4.35.16,6.46,1.51,4.68.06,8.47-3.51,11.56-3.95,3.42-5-3.56-8.78-2.32C81.87,429,94.35,429,96.59,436c4-1.67,5.23-4.77,4.85-8.74-0.59-6.26,1.54-11.61,5.13-16.62a64,64,0,0,0,3.76-6.75C105.16,404.08,104.42,410.21,100.08,411.54Z"/><path class="cls-2" d="M84.6,437.1c0.57-10.58.72-10.56-8.78-14.67-1.49-.64-2.91-1.43-4.37-2.15,6.26,7.28,4.31,15.29,3.28,23-0.84,6.31.22,8.83,5.62,11.78,3.16,1.72,5,.66,4.54-3.12A79.28,79.28,0,0,1,84.6,437.1Z"/><path class="cls-2" d="M86.58,866.82C85.44,876,81.09,878.91,72.3,877c-1.79-.38-4.65-1.69-4.36,1.37,0.38,4.07-2.46,4-4.6,5.22-4.45,2.59-9.9,3-13.89,6.11,6.36,4.79,12.84,2.63,19.49-.3,0,3.54.39,6.27-.08,8.83a58.38,58.38,0,0,1-5,16.11c-1.12,2.2-.87,4.7,1.93,5.83s5.08,0.9,6.61-2.25a19,19,0,0,0,1.72-6.7c0.68-6.95,1.86-13.87,1.3-20.88-0.35-4.37,1.95-6.76,5.56-8.48,4.55-2.16,6.16-1.21,5.74,3.74-0.6,7-1.56,13.88-2,20.84-0.63,9.32.1,10.08,10,12.31,2.68-6.27,3.68-12.43,1.07-19.21-2.17-5.63-1.64-11.78-1.32-17.78,0.16-2.93.65-5.31,4.38-5.22,1.77,0,3.21-.72,4.26-2.9-4.29-3-9.49-4.87-13.49-8.56C88.54,864.2,86.94,864,86.58,866.82Z"/><path class="cls-2" d="M90.73,861.4c3.87-1.53,8.93-2.35,8.19-8.12-0.37-2.85-6.77-4.2-11.63-2C79,855.14,71,859.63,62.59,864,72.72,867.38,81.8,864.92,90.73,861.4Z"/><path class="cls-2" d="M122.52,896.59c1.09,9.47-6.94,13-11.47,20.85,5.61,0,10.14.12,14.66,0,4-.14,5.82-2.48,5.75-6.49C131.35,904.47,128.41,899.95,122.52,896.59Z"/><path class="cls-2" d="M124.57,889.36c3.83-3.47,4.59-7.37,3-11.59s-5.5-5.13-10.37-4.45c2.39,8.05-3.79,14-4.94,22.3A23.38,23.38,0,0,0,124.57,889.36Z"/><path class="cls-2" d="M127,858.28c1.2-1.54,2.87-2.84,1.65-5.09a7.08,7.08,0,0,0-8.2-3.79c-2.06.48-6.34,0.58-5.59,3.42,1.18,4.5-3.06,6.2-3.57,10.4C117.54,863.4,123.05,863.38,127,858.28Z"/><path class="cls-2" d="M157.81,547.21c-3.14-3.83-6.56-7.43-10.12-11.41-0.26,3.2-.29,5.87-0.73,8.47-0.4,2.35-1.55,4.83-3.74,5.62-6.88,2.46-14,4.38-21.36,2.37-4.33-1.18-6.6-3.85-6.41-8.72,0.25-6.78,1.68-13.22,5.1-19,2.58-4.38,7.73-4.62,12-6.08,0.63-.21,1.22-0.53,1.85-0.75,2.38-.85,4.41-2.11,3.34-5-0.9-2.46-3.46-2-5.13-1.55-3.88,1.15-6.92,2.06-10.36-1.87-2-2.24-5.43-.19-4.65,3.35,1.35,6.13-2,9.13-6.52,11.66-2.29,1.28-4.63,2.48-7.37,4,4.31,1.93,6.85-2.1,10.68-1.22-0.67,5.8-1.67,11.64-1.38,17.56,0.28,5.69,3.2,9.73,8.46,11a61.16,61.16,0,0,0,34.26-.87C160.2,553.28,160.71,550.77,157.81,547.21Z"/><path class="cls-2" d="M100.35,507.72c3.48,3.65,5.16,1.73,7.21.77,4.47-2.11,8.64-4.88,12.91-7.42a13,13,0,0,0,5.29-5.81c1.69-3.71-.38-7.12-4.32-6.41-3.26.58-7.65-.4-9.13,4.58-0.79,2.65-2.53,5-3.7,7.22-8.52-3-16.07-3.43-23.86,1.91A78,78,0,0,1,51,515.81c12,2.57,23-.8,33.59-5.87C89.87,507.4,97.09,504.3,100.35,507.72Z"/><path class="cls-2" d="M96.84,542.59c-9.05-1.36-13.28,6.06-20.15,11.11,5.38,0.66,8.6-2.42,12.7-2.58,0.66,6.77-6.88,9.77-5.56,15.88,3.16,2.36,5.41,2.81,8.19-1.57,5.12-8.07,7.14-17.32,11.81-25.66C100.78,539.88,100.14,543.08,96.84,542.59Z"/><path class="cls-2" d="M76.32,541.41c7.39-2.63,15.68-3.56,22.36-10.58-7.36-3.69-13.39-4.87-18.31.68-4.08,4.6-9.14,6.78-15.3,7.64C68.65,543.4,72.59,542.74,76.32,541.41Z"/><path class="cls-2" d="M91.6,515.52c-2.17-1-4.67-1.2-6.65.29-5.06,3.82-11.46,4.88-17.61,8.74,9.17,3.24,17.21,3.71,25-1.76,1.62-1.14,3.89-2.08,3-4.38C94.85,517.14,93,516.15,91.6,515.52Z"/><path class="cls-2" d="M72.84,490.55c8.24-1.45,14.6,2.47,21.43,4.46,0.4-5.16-1.46-7.71-5.52-9-6.16-2-12.25-4.15-18.3-6.22C69.43,484.11,79.71,484.42,72.84,490.55Z"/><path class="cls-2" d="M75.07,546.86c-5.88,10.78-4.84,19.29,2.54,24,1.61,1,3.31,2.67,5.33,1.37s0.07-3.55.61-5.31C74.66,563.24,76.23,554.65,75.07,546.86Z"/><path class="cls-2" d="M150.78,690.91c-4.32-2.45-8.62-5-13.12-7.08s-5.79-4.75-4-9.37c1.21-3.06,1.6-6.44,2.75-9.53,1.89-5.1,1.14-9.08-3.91-11.81-1.12-.6-2.4-1.27-2.22-3.08,4.77-3.2,10.2-3.65,15.79-3.45,3.39,0.12,4.59-2.83,5.44-5,1.18-3-2.12-3.7-4-4.63-3.86-1.87-7.68-.85-11.57.46-4.58,1.54-8.56,4.84-15.35,5.48,6.28-5.66,7.75-12.21,10.39-18.09,2.73-6.07.21-9.24-10.25-11.69,4.94,3.81,4.85,7,3.06,10.49-3.52,6.76-6.78,13.67-12.29,19.16A48.88,48.88,0,0,0,107,648.1c-1.93,2.57-1.2,4.95.77,7.19,2.11,2.41,4.49,2.61,7.07.91,1.1-.73,2-1.71,3.1-2.5,1.88-1.41,4.2-3.21,6.3-2,2.71,1.51,3.71,4.6,3.38,7.8-0.49,4.72-2.94,8.58-5.43,12.7-4.06-1.79-7.55-4.85-12-2.33,8.5,11.13,8.5,11.13-2.61,21-4.13,1.4-7.56,4.3-12.79,5.06,7.37,4.31,13.26,2.37,19-1,4.18-1.13,7.67-3.61,11.87-6.28,4.35,8.63,12.79,9.69,20.8,11.6,2.74,0.65,4.85,1,6.18-2.63C153.79,694.52,153.54,692.48,150.78,690.91Z"/><path class="cls-2" d="M103.37,640.84c2.26-.33,4.69-2.51,3.71-5-1.16-2.93-4-4.35-7.4-3a12.5,12.5,0,0,0-3.48,1.82c-11.56,9.7-26,13.47-39.39,19.34,6.07,3.34,11.88,5.44,18.12-.39,1.54-1.44,4.63-3.34,7.89-2.64-7.57,13.78-17,25.56-29.43,34.94,7.8,4,11.44,3.48,16-3.12,5.08-7.32,9.57-15,14.58-22.42C89.2,652.68,91.91,642.51,103.37,640.84Z"/><path class="cls-2" d="M87.92,657.53c-2,9.37,3.83,19.31-1.68,29a13.84,13.84,0,0,0-11.09-5.09c1.8,5.09,2.85,9.3,4.77,13.06,1.41,2.76,3.17,6.62,7.22,5.65a8.66,8.66,0,0,0,7.1-8.47c0.46-7.6,1.35-15.17,1.94-22.76C96.83,660.72,96.77,660.72,87.92,657.53Z"/><path class="cls-2" d="M83.7,631.86c3.17,1.79,5.74.61,8.15-1.36,2.72-2.22.64-4.43-.64-6-3.9-4.75-7.22-10.22-14-13.15C74.52,620.85,77.09,628.12,83.7,631.86Z"/><path class="cls-2" d="M112.09,1110.46c-3.17-2.73-6.44-2.55-10.19-1.11-9.21,3.54-18.45,7.13-28.89,7,0.38,4.46,1.4,7.07,6.17,5.18,8.66-3.42,17.82-3.87,27-4.45a20.18,20.18,0,0,0,4.91-.7C114.3,1115.29,114.67,1112.69,112.09,1110.46Z"/><path class="cls-2" d="M113,1078.77c-3.78-.86-8.32-2-7.59,4.9,0.22,2.12-2.19,3.17-3.34,4.75-5.18,7.05-12.82,11.38-18.12,18.11,5.94-3.51,12-6.88,17.8-10.58a112.29,112.29,0,0,0,12.92-9.26C118.58,1083.36,117.77,1079.85,113,1078.77Z"/><path class="cls-2" d="M83.51,1090.58c-7.15,0-13.38,7.73-19.48-.54-0.62,3.26-.93,6.12.55,8.9,0.87,1.64,2.56,2.92,3.94,1.93C73.18,1097.5,79.64,1096.53,83.51,1090.58Z"/><path class="cls-2" d="M83.38,1078.46c1.53,1.39,3.66,2.33,5.23.5s1.38-4.34-.71-6.11c-3-2.56-6.38-2.73-10.9-.88C79.36,1074.39,81.27,1076.54,83.38,1078.46Z"/><path class="cls-2" d="M120.4,325.87c-0.15-6.31,2-13.31-2.07-19.34-2.32-2.23-4.6-3.62-6.57.37-2.74,3.4,1.21,5.89,1.33,9,0.19,5-.31,8.47-6.85,8.37a35,35,0,0,0,1.92-3.26c1.81-4-2.19-4.87-3.88-7-1.21-1.52-3.25-2.18-4.28-.76-3.93,5.42-10.61,6.93-15.82,10.44,3.65,5.39,8-1,11.43,2.24-1.86,2.7-3.92,5.31-5.53,8.16a3.31,3.31,0,0,0,1.18,4.4c1.47,1,2.24-.4,3.29-1.13,5.84-4,11.41-8.57,19.19-10.75,0,6.14,0,11.47,0,16.79,0,2.72-.69,4.62-4,4-1.7-.3-3.35-0.38-3.66,2.59,2.07,2.89,5.87,4.73,8,8.2,1.19,2,3,3.88,5.73,2.57,2.11-1,2.16-3.24,2.24-5.19a48.69,48.69,0,0,0-.29-7C121,341.08,120.58,333.51,120.4,325.87Z"/><path class="cls-2" d="M126,295.34c-5.24,1.18-10.19,3.59-15.27,5.47,3.89,3.28,7.93,1,11.58,2.82s7.71,1.23,11.57,1.85c1.74,0.28,4,1.92,5.19-.6,1-2-.5-4-1.66-5.35C134.48,296.13,130.24,294.38,126,295.34Z"/><path class="cls-2" d="M91.58,308.84L91.71,309c5.68-.28,10.44-4,16.18-4.24,1.37-.05,4-2.07,2.45-3.08-3.88-2.55-.59-3.27.6-4.54,2-2.17,4.32-4.14,6.25-6.41,0.92-1.09,2.86-2.84.91-4.13-4.14-2.76-3.7-4.27.62-6.17,1.69-.74,1.18-3.07.21-4.42-1.87-2.59-.17-3.3,1.76-4.14,3.05-1.32,6-3,9.14-4,4.64-1.44,6.9-5,8.79-8.91,2.61-5.33-.5-10-6.53-10-4.07,0-7.72,1.8-11.45,3.12-4.62,1.64-9.11,3.7-14.06,4.1-3.14-9.49-6-11.34-18.92-12.59-0.91,8.46,9.72,9.09,11.54,16.37-6.56.44-11.89,3.36-17.3,5.69-4.67,2-8.22,1.17-11.9-1.62-1.37-1-1.63-3.92-4.5-2.7,0.94,6.71.34,13.23-3.21,19.19-2.1,3.53-2.12,6.94.5,10.09s6,2.38,7.26-1.54c1.27-4.11,2.41-8.26,3.49-12.42a9.18,9.18,0,0,1,6.18-6.85c16.05-6,33.4-7.84,49-15.36,0.14-.07.52,0.36,2.35,1.7-7.69,8-14.24,16.67-25.32,20.34l0.18-.21,0,0h0l-0.27.05c0,0.05,0,.09,0,0.15C97.69,283,89,288,77.54,286.69c1.92,4.68,5.5,3.85,8.65,4.07,1.1,0.08,2.69-.31,2.52,1.7a1.85,1.85,0,0,1-.77.59c0.58,1.85,2.21,1.75,3,.78,4.1-5.24,10.71-6.1,16.08-10.05-2.16,6-6.6,9.25-15.29,13.87-3.63,1.93-5.5-.54-8.18-1-2.37,7.33-1.82,8.31,4.84,7.95,2-.11,3.89-0.81,6.73-1.44-1.75,2.16-3.86,3-3.84,5.23h0L57.77,323.16c5.31,2.13,8.76,3.65,11.44,1.45,7.1-5.83,16-9,22.51-15.62Zm-0.21-.25-0.09-.11Z"/><path class="cls-2" d="M94.06,268.74c-4.06-.29-7.82-0.8-3.65,5,0.86,1.21-3,2.83-.4,5.46l15.67-3C104.56,269.62,99.4,269.13,94.06,268.74Z"/><path class="cls-2" d="M81.06,322.89c-6.47,8.59-5.53,15.34,1.27,18,1.66,0.64,3.36.65,4.51-.72,0.89-1.07.32-2.49-.34-3.63C84.24,332.56,81.32,328.94,81.06,322.89Z"/><path class="cls-2" d="M141.8,171.47c-3.8-1-4.51-2.28-3.62-6.19,2-8.7,2-17.77,4.86-26.34,1.75-5.3-.38-9-4.73-11.83a56.34,56.34,0,0,0-5.86-3.73c-9.32-4.54-18.47-8.23-29.47-4.57-9.48,3.15-18.65,7-27.86,10.7-4.47,1.82-8.14,2.24-11.71-1.49-1.1-1.15-2.7-1.82-4.47-3-2.9,3.38-3.34,6.63-4,9.92C51.3,152.37,53.8,169.93,53,187.37c-0.37,8,2.92,13.83,7.94,19.35,2.18,2.4,4.61,3.29,6.76.86,2.47-2.81,4.44-3.48,7.42-.89,3.37,2.92,7.6,2.32,11.47,1.68a98.69,98.69,0,0,0,17.4-4.08c3.23-1.17,5.9-1.42,8.33.52,4.18,3.34,9,3.22,13.85,3.59,3,0.23,4.12.26,5.54-3.21,3.46-8.44,6.9-16.73,6.18-25.85,6.83-.68,11.85,5,18.22,2.17C153.69,173.85,147.35,173,141.8,171.47ZM68,170.82c1-7.53,2.29-15,3.64-22.5a20.52,20.52,0,0,1,2-5.62,3.66,3.66,0,0,1,5-1.84c1.9,0.9,1.29,3.05.62,4.39a98.27,98.27,0,0,1-6,10.32c-2,3-2.53,6-1.36,9.17,2.39,0.8,3-.28,3.83-0.66,4.91-2.16,8.1-.35,6.69,4.45-1.8,6.13-1.78,13.29-8,18.31-1.66-5.85,2.75-10.22,2.4-15.34-3.73,1.16-4.69,5.17-8.14,7.82C67.1,176.39,67.7,173.42,68,170.82Zm27,23.05c-7.89,3.39-16.13,5.58-24.41,8.16-2.42-2.16-.9-5.48-4.07-9.08,8.07,4.25,8.5,4.16,11.25-1,3.23-6.08,3.2-6,9.88-3.68,3.15,1.09,6.38,1.86,8.26-2.41,0.64-1.46,2.34-2.19,4.07-2.38C101.43,191.46,101.31,191.18,95.05,193.87Zm0.71-44.44a140.59,140.59,0,0,1-15.46,8.82c2-5.72,7.36-10.13,5.54-17-0.63-2.37,2.25-3,4-3.5,3.39-1,6.89-1.69,10.31-2.5C103.16,144.51,103.11,144.74,95.77,149.43Zm19.47-18.57c1.69,5.42-.18,10.88.61,16.68-5.09,0-9.16,0-7.41-6.61,0.74-2.81-2.69-4.34-2.74-7.57C108.76,132.5,111.34,130.46,115.24,130.86Zm-7.12,37.29c-0.12-8.32-.12-8.32,7.36-10.55C116,167,116,167,108.12,168.15Zm3.54,22.32c-3.81.2-4.33-1.59-4.44-4.68-0.15-4.13-.1-7.82,4.35-10.08,1.54-.78,2.45-2.8,3.66-4.26l1.86,0.41c0,4.53-.15,9.06,0,13.58C117.31,189.52,115.23,190.28,111.66,190.47Z"/><path class="cls-2" d="M71.8,753.87c2,0.78,4.7,2.82,5.85-.29a6.18,6.18,0,0,0-1.74-7.15,12.74,12.74,0,0,0-2.7-1.2l-16.21-7C62.33,745.14,65.18,751.31,71.8,753.87Z"/><path class="cls-2" d="M115.3,762.6l0,0Z"/><path class="cls-2" d="M141.35,799.52c-9-3.43-16-11-27.2-11.22,8.68-5.26,18.29-5.6,25-11.9-2.13-4.25-6.21-4.07-9.45-5.45,1.29,3-1,4.14-2.93,5.37-7.25,4.51-14.5,9-21.91,13.61a5.24,5.24,0,0,0,1.38.54c3.57,0.19,8.43-1.08,9.75,3s-3.68,5.69-6.35,7.85-5.92,3.75-9.61,6c-1.5-11.4,2.87-20.92,2.14-30.8-0.11-1.54,1.65-2.82,2.55-2.43,8.74,3.74,15.93-2,23.78-3.59a2.47,2.47,0,0,1,1,.23h0c1.73-8.76,8.44-14.87,12.38-22.48,2.28-4.41,1.89-6.53-1.22-9.16a53.41,53.41,0,0,0-7.2-5.33c-2.49-1.48-5-1.55-6.19-5.7-1.67-5.91-8.71-7.61-14.71-5-4.75,2.1-9.34,4.54-13.47,6.56,3.12,5.75,8.9,2.32,13.39,3.71-0.71,6.33-5,7.72-9.9,9.3-0.49-7.47-5.82-9.35-11.79-12,0.81,6.39,1.55,11.9,2.21,17.42,0.82,6.83-.21,13-5.09,18.44-4.57,5.11-8.43,10.85-12.74,16.5,1.57-8.7,1.27-10.31-2.11-12.09-6.51-3.43-9.83-2.41-17.82,5.48,0.4,1.36,1.16,2.53,2.65,2.56,4.95,0.1,5,2.61,3.95,6.59-1.64,6-2.44,12.27-4.24,18.32-1.5,5.05.77,10,4.65,10.78,4.13,0.87,7.89-.07,9.9-4.55A56.05,56.05,0,0,1,75.16,805c5.88-10,10.66-20.67,17.54-30.42a19.64,19.64,0,0,1,1.82,11.55C93.41,794,93.34,802,91.86,809.81c-0.65,3.44,4.4,9.12,8.22,9.75s5.3-2.29,6.42-5c2.07-5,5.92-8.77,8.83-13.17,3.84-5.81,4.68-5.77,10.12-2a92.3,92.3,0,0,1,11.82,9.11c5.46,5.29,12,6.21,19.13,7,6.45,0.74,8.39-4.86,14.64-7C160.83,802.38,150.45,803,141.35,799.52Zm-32.79-51.21c4.86-.58,8.93-4.08,14-4.16,1.71,0,3.91-2.21,4.65,1,0.55,2.36-.47,5.5-2.8,5.49-7.48-.06-13.38,4.72-20.31,6.15C102.27,751.91,103,749,108.56,748.31Zm-4.94,10.91a33.25,33.25,0,0,1,11.6,3.36l-0.08-.14,0.16,0.16-0.15-.15h0.42c2-1.58,4.07-2.5,7.07-1.13-2.46,2.78-4.87,1.17-7.07,1.13l-0.24.19-0.11-.05c1.55,2.57,3.39,5.31-1.44,6.41-3.41.78-6.63,2.81-11,1.7Z"/><path class="cls-2" d="M105.53,1039.1a42.28,42.28,0,0,1-2.13-14.7c0-3.93,1.42-5.22,5.32-5,6.16,0.3,11.62-1.71,16.69-5.43,5.42-4,6.54-9.89,7.75-15.63,0.64-3-.92-5.65-5.13-5.52-6.09.2-1.74,2.78-1.31,4.61s-0.93,3.1-1.74,4.5c-4.65,8.08-11,13.72-21,15-1-4.73-.69-8.82,1.58-12.83,2.6-4.6,4.95-9.35,7.41-14,2.3-4.38,4.54-8.78,6.93-13.11,1.49-2.7,1.56-5.57-.93-7.11s-5.53-2.54-7.89.9c-4.29,6.26-11.33,9.09-17.17,13.41-3,2.22-6.23,3.94-10.18,2.67h0c3.27-5.24-1.36-5.48-4.44-6.51,0.6-3.5,5.89-4.84,4.07-8.57-2.41-4.94,0-8.89,1.31-13.26,1.11-3.77,2.1-7.7-1.23-11.14-1.51-1.56-3.08-2.93-5-1.14-3.61,3.39-6.91,7.09-11.75,8.86-0.84.31-.93,1.22-0.29,2.31,3.4,5.76-.51,9.87-3.17,14.3-3.94-1.79-4.45-7.49-9.51-7.67l-2,24.88c-5.63,3.31-9,8.6-12.13,14-2.91,3.17-6,6.17-8.67,9.55-3.49,4.47-2.26,8.85,2.79,11.33,4.8,2.35,9.35,1.64,11.59-3.47a57.46,57.46,0,0,1,19.07-23.4c0.89-.66,1-2.3,3.19-2-6,14.16-9,28.89-11.17,43.9a31.5,31.5,0,0,0,1,12.66,2.76,2.76,0,0,0,3,2,2.88,2.88,0,0,0,2.68-2.48c0.27-2,0-4,.45-5.93s-1.69-5.36,2.35-5.91c1.32,6.57,5.94,10,11.33,12.73,3.54-3.51,2.94-7.23,2.61-10.85-0.76-8.56-1.35-17.15-2.43-25.68-0.81-6.38-.09-13.27-5-18.59-1.54-1.67-.1-3,0.56-4.42,1.31-2.87,4.36-2.65,6.64-3.81,2.33,0.11,3,1.75,4.18,3.55,4.13,6.52,5.5,6.5,11.64,2,2.34-1.71,4-4.86,8.23-5.07-3.74,10.45-8.12,19.24-17.13,24.78-2.12,1.3-3.28,3.37-4.29,5.38s-1.41,4.72.31,6.6c2,2.15,4.17.64,6.32-.32,3.62-1.6,5.84-5.48,10.45-6.27,0,5.79-1.43,11.28-1.29,16.9,0.07,2.78-2.16,2.82-4,.83-0.8-.87-0.42-2.54-2-2.92-1.3,7.64-.05,6.25,5.29,16.38,1.33,2.52,2.52,4.53,6.07,3.4,3.73-1.18,4.4-3.78,3.94-7A40.44,40.44,0,0,0,105.53,1039.1Zm-51.78-41c-3.73,2.5-5.91,6.85-10.18,8.75,0.65-6.85,3.15-12.56,9.75-15.72C55,993.32,57.81,995.36,53.75,998.07Zm12-10.65A3.75,3.75,0,0,1,64,985.29c-0.9-2.68,1.37-3.23,3.06-4a3.26,3.26,0,0,1,3.63.46,3,3,0,0,1-1.25,3.37C68.22,985.86,67.89,988.27,65.8,987.43Zm5.74,18.25a1.09,1.09,0,0,1-1.59.91c-0.92-.31-1.76-0.82-1.45-2,0.24-1,.78-1.8,1.93-1.53C71.41,1003.27,72,1004,71.54,1005.68Zm0,13.57c0.12,4-2,6.19-4.35,8.47C67.26,1023.09,67.26,1023.09,71.57,1019.25Zm-8.35,2.45,3.71-14C68.19,1013.48,68.66,1017.24,63.22,1021.71Zm8.89,5.23c3.32,13,2.72,14.13-6.07,12,0,0.07,0,.14,0,0.21l-0.26-.27,0.22,0.05C64.75,1033.37,70.42,1031.74,72.1,1026.93Zm-2.27-55.22c0.88-5.13,2.66-8.49,1.26-12-0.95-2.33.61-2.72,2.28-2.93,1.51-.19,2.63.56,2.55,2.08C75.7,963.22,76.74,968.09,69.83,971.72Z"/><path class="cls-2" d="M135.76,1031.69c-0.63-.74-1.48-1.73-2.29-1.8-8.45-.75-15.85-6.56-26.87-5,9.34,5.17,17,9.32,24.24,14.38,2.52,1.77,6.64,5.61,9.28,2.08C143,1037.47,138.21,1034.54,135.76,1031.69Z"/><path class="cls-2" d="M109.53,966.83c2.64,0,5.91.22,6.45-2.9,0.7-4.09-3.6-3.83-6-5-1.73-.85-4-1.14-4.13,1.89-0.11,2.64-3.3,3-3.8,6C105,966.82,107.26,966.8,109.53,966.83Z"/><path class="cls-2" d="M68.94,1285.65a28.12,28.12,0,0,0-11.65,6.85c-1.66,1.62-3.58,3-5.17,4.65-1.86,2-3.53,3.2-5.43.15-3.37,4.82-9.5,7.15-11.79,12.91-1.1,2.78-.66,5.53,2.3,6.68s5.22,0.6,6.74-3.31c2.76-7.11,9.18-10.66,15.42-14.24-1.13,7.69-12.53,8.19-11.53,17.46,4.38,0.3,5.8-4.52,9.65-3.21,0.38,4.5-.63,8.65-1.58,12.87a29.29,29.29,0,0,0-.79,8.85c0.41,4.66,4.35,5.44,8,5.85,3.9,0.44,3.79-2.95,4.31-5.38a14.61,14.61,0,0,0,.18-3.42h0c1.86-7,5.35-8.66,5.06-14.64a92.46,92.46,0,0,1-5.78,8.15,18.74,18.74,0,0,0-3.66,5.83,3.67,3.67,0,0,1-3.42-.15,25.14,25.14,0,0,0,1.86-8.37c0.6-6.68-1-14.25,6.68-18.46a3,3,0,0,0,.92-2.64c-1.28-4.34,1.9-6.69,3.94-9.6,1-1.49,3.24-3.15,1.1-5.07C73,1286.2,71.29,1284.93,68.94,1285.65Z"/><path class="cls-2" d="M53.77,1285.71c3-1.77,4-4.7,7.53-5.24,7.12-1.09,2.51-9.46,7.07-12.62,1.57-1.09,1.9-3.28,1.5-5.43-0.53-2.88-2.2-3.84-4.87-3.48-0.83.11-2.28,0.13-1.45,1.53,3.51,5.95-2.13,8.58-4.45,12.34-1.56,2.53-3.45,3.61-6.24.72s-6.5-4.12-12.27-4.4C46.9,1274.11,49.69,1279.89,53.77,1285.71Z"/><path class="cls-2" d="M125.57,1322.12a3.68,3.68,0,0,0-2.7-.52c-3.91,1.5-5.32-.57-6.48-3.83-1.41-4,.94-5.46,3.85-6.74,1.55-.68,3.82-1.62,2.85-3.25-2.36-4,1-6,2.12-8.87,1.41-3.54-.11-5.36-4-6-2.52-.44-6.53,3.39-7.37-1.6-0.59-3.52,4-2.54,5.8-4.17,0.73-.65,1.76-0.94,2.54-1.53,1.05-.8,2.27-1.72,1.68-3.25a2.86,2.86,0,0,0-4.1-1.5c-4.93,2.39-9.71,5.09-16.15,6.9a37.69,37.69,0,0,1,8.08-7.57c7.48-5.12,7.76-6.23,4.5-14.7-2.35-6.12-4.8-6.79-10.37-3.3-2.54,1.59-4,5.29-7.76,4.85-2-6.32,2.61-14.93-7.53-18,3.71,8.87.09,15.72-4,22.61-3.89,6.63-3.58,8.45,1.26,13,2.91,2.71,5.16,2.85,6.42-1.51,2.16-7.47,7.1-12.84,13-18.07,1,3.5,0,5.82-1.3,8.24a61.94,61.94,0,0,0-7.18,29.23c0,7.6-1.49,15.18-1.23,22.87,0.23,6.82,3.49,10.82,9.58,12.83,3.15-3.61-1.36-4.89-1.31-8.29,6.92-.28,12.73-3.56,19.19-2.66,1.47,0.21,2.69-.32,2.76-1.95C127.82,1323.76,126.7,1322.78,125.57,1322.12Zm-19.94-30.24c2.69-.26,4,1.49,4.21,4.06,0.16,1.94-.64,3.14-2.6,3.24-2.41.12-3.44-1.22-3.35-3.54C103.95,1294.14,103.47,1292.09,105.63,1291.89Zm0.08,10.9c1.56-.13,3.26,0,4.12,1.79-0.06,2.38-1.84,3.32-3.55,4.15-1.38.67-2.71,0.21-2.8-1.45S102.73,1303,105.71,1302.78Zm1.3,23.7c-2.21.68-4,.07-4.42-2.39a71,71,0,0,1-.39-7.38,9.62,9.62,0,0,1,.42-2.36c0.47-1.5.8-3.37,3-3.28,1.65,0.07,3.6.4,4.26,2,1.23,3,2.59,6.11,2.8,9.26C112.87,1325.69,109.37,1325.75,107,1326.48Z"/><path class="cls-2" d="M152,89c-0.74-6.78-1-13.7-3.72-21.94-0.14,7.69-4.79,12.55-2.74,20-8.82-4.51-14.41-10.38-19.77-16.6-2.75-3.19-4.58-5.93-2.59-10.57,1.82-4.26,1.42-9.2.6-13.82-0.4-2.24-2.12-3.37-4.46-2.18-1.49.76-2.53,1.33-.94,3.56,2.42,3.38,1.54,7.25.28,11.12-3.56-1-4.73-3.56-6-5.67-6.13-9.85-6.29-21.58-9.9-32.25-0.71-2.08.75-3,2.42-3.59q5.67-1.89,11.39-3.63c1.9-.58,4.39-0.94,4.27-3.34A4.46,4.46,0,0,0,116,5.81c-4.44.61-8.37-1.75-12.65-1.44-0.43-1.29-1.75-1.62-2.74-2.26-5.31-3.46-6.8-2.85-7.56,3a7.82,7.82,0,0,0-.08,3c1.29,4.62-.89,6.73-5.11,7.76a68.67,68.67,0,0,0-15.81,6.27c6.2,4.13,11.78,6.21,18.55,1.46,4.94-3.47,5.71-3,7.1,2.88,2.65,11.17,8,21.11,13.66,30.88,5.41,9.33,5.6,10.8-1.26,19-2.12,2.55-4.67,4.74-6.88,7.23-1.58,1.78-2.87,3.78-.81,6.38,9.79-2.06,13.49-10.49,18.34-17.91,4.42,4.7,8.56,9.43,13.08,13.77,3.55,3.42,7.15,6.9,12.42,7.88C151.22,94.67,152.51,94.06,152,89Z"/><path class="cls-2" d="M66.24,78.19c3.46,3,6.11-.39,8.5-2.42a49.41,49.41,0,0,0,6.09-6.51c1.83-2.23,3.07-5.38,6.13-.94,1,1.46,3.21.49,4-1.24,0.91-2.1,1.24-4.44,2.14-6.54,3-7,1.44-9.64-7.7-11.4C87.79,59.91,80.91,64.32,72.21,68l1.85-8.63c4-4.06,5.29-9.72,8.49-14.27,2.41-3.43,1.23-6-3-7.87-1.41,3.74-3.42,7.27-4,11C75,52.31,72.34,54.44,69.88,57A37,37,0,0,0,63,67.7C61.25,72.14,63.26,75.61,66.24,78.19Z"/><path class="cls-2" d="M102.78,75.84c5.58-3.4,3.2-8.12,3.92-12.53C95.53,78.71,82.46,89.82,60.84,86.13c5.24,11.07,9.59,12.52,19,8.84,6.19-2.41,9.7-10.34,17.84-8.57a2.46,2.46,0,0,0,.57-1.55C96.49,80.21,100.32,77.34,102.78,75.84Z"/></g></svg>