<svg id="图层_1" data-name="图层 1" xmlns="http://www.w3.org/2000/svg" viewBox="0 0 200 1328.69"><defs><style>.cls-1{opacity:0.05;}.cls-2{fill:#fff;}</style></defs><title>主站</title><g class="cls-1"><path class="cls-2" d="M141.83,1179.66c-4.61-1.93-9-3.35-14.14-.56-6.25,3.38-13.19,3.91-20.29,2.42-4.54-1-5.47-3.82-5.87-7.86-0.36-3.67-1.62-6.77,3-9.16,7.24-3.72,12.16-10.18,16.69-16.79,1.42-2.08,3.7-4.1,1.59-7.09-1.92-2.71-4.62-4.13-7.7-3.23s-8.64,2.48-7.66,5c3.12,8.13-3.91,10.45-6.73,16.2-2.9-7.53-3.85-16-14.32-13.54-1,2.62.9,3.89,2.32,5.11,5.5,4.73,9,9.77,3.55,16.77-0.66.86-.79,2.12,0.19,2.48,5.27,2,3.85,7.19,5.23,10.9,2.64,7.08,6.22,10.76,13.5,10.86,10.31,0.15,20.35-2,30.31-4.51,1.79-.45,3-1.38,3.08-3.3S143.37,1180.31,141.83,1179.66Z"/><path class="cls-2" d="M72.49,1140.3c-3.33-1.81-7.4-3.76-10.91-.13-1.17,1.21-4.5,3.3-2.75,4.15,6.35,3.07,1.11,6.47.31,8.8-3,8.81-8,16.81-13.29,26.37,7.16-2.7,10.59-7.23,15.05-12,6.92,13.19-1.34,25.83,1.34,38.18,9.46-1.5,10.48-2.22,9.63-10.24-1-9.84-2.46-19.73-7.08-28.68-1.12-2.16-1.1-3.31.25-5.21,2.88-4,5.52-8.29,8-12.58C74.78,1146.06,76.48,1142.47,72.49,1140.3Z"/><path class="cls-2" d="M137.23,258.87c-1.35-.77-3.26-0.09-4.54-1.85,3-3.83,6.24-7.53,8.9-11.62,3.61-5.55,7.22-11.22,7.14-18.26-0.07-5.46-1.91-7.37-7.27-6.7-3.37.42-6.63,1.72-10.07,2.66,2,3.44,5.72,2.92,8.26,5.57a47.13,47.13,0,0,1-17.12,24.52c-2.12,1.63-4.34,3.15-5.67,5.53s-0.08,4.48,1.26,6.44c1.46,2.12,2.89.22,4.23-.15,3.18-.87,6.35-3.67,9.62.55-3.82,2.26-8.93.92-12.9,4.67,4,0.94,7.24,1.72,10.47,2.44a14.91,14.91,0,0,0,3.94.62c3.84-.21,8.36,1.13,10.79-3.18C145.52,267.84,141,261,137.23,258.87Z"/><path class="cls-2" d="M89.09,251.08c-0.16-1.54.7-3.43-1.76-3.88A4,4,0,0,0,82.68,250c-1,2.67,0,6.12-3.74,8.11,0.59-3.7.66-7.3,1.8-10.52,1.64-4.65-.72-6.57-4.27-8.24-3.24-1.52-6.31-1.43-10.87,1.64,3.89-.27,6.55-0.65,6.48,3.25-0.09,5.5-2.2,10.2-5.25,14.69-4.29,6.32-3.88,8.54,2,13.17a33.68,33.68,0,0,0,4.11,2.44c5.22-2.92,5-9.33,9-12.78a8.9,8.9,0,0,1,1.89.62c2,1.2,3.94,3.21,6.28,1.77,2.8-1.72.31-4.15,0.1-6.24C89.93,255.61,89.33,253.36,89.09,251.08Z"/><path class="cls-2" d="M116.41,143.27c0.61-3.92-1.93-4.36-4.85-4.35-2.18,0-5.71-2.31-4.38,3.17,0.88,3.63-1.56,4.7-4.79,3.66a11.88,11.88,0,0,0-7.79-.19c7.32,6.61,7.41,7.32,1.45,14.93a86.72,86.72,0,0,1-33,26c18.77,2.31,28.13-10.43,39.58-20.87,4.18,11.55.58,19.61-7.77,26.58,13.3,0.92,19.71-5.42,18.41-16.72-1.17-10.2-5.09-20.78,2.72-30.25A4.25,4.25,0,0,0,116.41,143.27Z"/><path class="cls-2" d="M76.62,146.84c16-4,30.4-14.21,48.15-11.37,4,0.64,8.38,0,12.53,1.14,0.69-9,.68-8.94-6.43-10.21a37.38,37.38,0,0,0-14.75.64c-9,2-18.09,4-27,6.31s-17.63,5.11-26.43,7.7C66.83,148.56,68.35,148.91,76.62,146.84Z"/><path class="cls-2" d="M144.93,174.67c-6.62-9.53-16.11-13.07-28.54-13.59,5.89,6,12.08,9.51,14.88,16.38,1.75,4.3,6.23,4.3,10.35,3.94,1.6-.14,3.59.39,4.48-1.28C147.12,178.18,146.14,176.41,144.93,174.67Z"/><path class="cls-2" d="M138.56,1277.55c-3.87-3.73-8.76-3.14-13.25-2.31a107.88,107.88,0,0,1-17.34,2.25c3.37-9.76,8.65-17.79,12.88-26.3,1.17-2.36,4.65-4.39.46-7.35-3.55-2.52-5.89-1.63-8.47,1.37a18.11,18.11,0,0,1-8.18,5.27c-0.77-3.68,1.92-6.36,2.38-9.6,0.28-2,1.15-3.84,1.39-5.8,0.26-2.15-.62-4.27-2.91-4.5s-1.9,2.23-2.21,3.65c-1.8,8.09-3.18,16.28-9.09,22.8-2.16,2.38-.18,4.72.89,7.42,7.28-4,11.61-10.68,19.61-15.72-3.44,8.3-6.42,15.19-9.16,22.16-2.33,5.92-5.8,9.65-12.8,8-0.45-.11-1.07.45-1.63,0.72,2.15,2,6.33-.26,7.6,3.85l-7,13L79.8,1314.77c6.84-3.83,11.16-9.44,14.23-16,2.68-4.2,5.56-8.29,8-12.66a7.59,7.59,0,0,1,6.26-4.26c6.3-.68,12.61-1.22,19.37-1.86-2.09,5.12-6.81,6.83-9.67,11.07,7.71,0,13.86-2.39,19.72-5.53C141.24,1283.57,141.49,1280.38,138.56,1277.55Z"/><path class="cls-2" d="M122.11,1318.58c-5.79-3.5-6.67-6.77-3.26-12.11,5-7.77,3.48-10.68-5.87-11.32-2-.14-4,0-6.93,0,4.17,5.36,4.77,7,5.83,15.46q1.9,15.11,18,17.55C128.81,1322.63,128.81,1322.63,122.11,1318.58Z"/><path class="cls-2" d="M68.18,1312.85l-7,6.38c3.59-11,8.23-19.06,11.92-27.51,1.65-3.78.24-6.2-3.72-6.73-2.35-.31-4.3,1.57-6.87,1.92,2.67-6.31,5-11.8,7.3-17.3,0.63-1.52,1.58-3.76-.14-4.5-6-2.59-2.72-6.3-1.61-9.82a43.08,43.08,0,0,0,1.69-5.73c0.54-3.29-1.18-5-4.4-5.24-2.8-.17-3.74,0-4.24,4-1,8.28-.78,17.53-7.9,24-2.51,2.27-1,4.43.62,5.95,2.2,2,3.3-.22,4.5-1.8,1.84-2.41,3.83-4.7,5.76-7-1.32,9.7-5.64,17.86-11.41,25-2.73,3.39-3.3,6.17-.15,8.34,4.12,2.84,5.71-1,7.12-4.09,1.27-2.77,2.49-5.53,5.53-6.76,0.94,1.7-.39,2.63-0.91,3.75-3.76,8.07-5.79,16.88-10.62,24.49-2.1,3.3-.1,6,2.08,7.75,2.43,2,4.1-.51,5.6-2.33,3-3.56,6-7.08,9-10.62,6.06-6.72,10.76-14.24,12.75-23.41Z"/><path class="cls-2" d="M99.53,356.28c-5.12,1.17-10.88,2.57-16.61-3.91,0.38,7.5,2.44,10.25,8.22,11,12.81,1.63,25.47,4.21,37.45,9.26,3,1.25,5.47,1.59,8-1.19C127.14,359,115.6,352.59,99.53,356.28Z"/><path class="cls-2" d="M118.46,328.52c-4.71,4.17-9.48,8.27-14.23,12.39-4.19,2-8.44,3.92-12.33,9.36,6.61-1.67,10.86-3.78,14.4-7.3a101.52,101.52,0,0,1,21.78-11.7,46.2,46.2,0,0,0,7.21-3.18c3-1.85,4.06-6.6,1.9-8.47-3.53-3.06-8-2.8-12.3-2.59-4.65.23-.55,3.5-1.61,5.24A26.31,26.31,0,0,1,118.46,328.52Z"/><path class="cls-2" d="M106.89,316.42c2.61,0.25,5.94,1.13,6.73-2.25s-1.78-5.58-4.8-6.57c-4-1.31-8.49-1.23-11.92-4.4-0.85-.79-2.52-0.29-3.57.77s-1,2.27-.5,3.6C95.35,314.43,98.5,316.43,106.89,316.42Z"/><path class="cls-2" d="M93.06,335.86c4.86-2.27,8.33-6.06,11.67-11.49-5.23,1.13-9.15,1.67-12.86,2.87-4.27,1.38-6.41.47-6.07-4.27,0.09-1.3.45-2.6-.62-3.71-1.6,1.31-2.1,3.26-2.67,5.1a14.37,14.37,0,0,0-.5,3.92C81.92,335.4,86.75,338.81,93.06,335.86Z"/><path class="cls-2" d="M70.33,773.32a20,20,0,0,0-5.45-8.18,7.54,7.54,0,0,0-9-1.51c6.24,5.68,6.47,5.84,1.8,12.47-6.06,8.63-12.54,17-18.83,25.43,11.7-6,21.15-14.53,30-23.83C70,776.44,70.89,775.14,70.33,773.32Z"/><path class="cls-2" d="M52.07,846.67c6.22,0.11,7.65-3.25,8.53-6.95,2.82-11.85,2.71-23.28-5.86-34.48Z"/><path class="cls-2" d="M136.92,774.5c-3,.05-6.28-0.1-8.82,1.12-7,3.37-10.73-.2-15.15-5.92,6.28-1,10.52-5.86,16.84-3.51,1.55,0.58,3.79-.66,5.71-1.1a3.64,3.64,0,0,0,3-3.53,3.74,3.74,0,0,0-2.63-3.86c-3.82-1.09-7.7-2-11.61.06-4.63,2.48-9.37,4.75-14.1,7.13-1.52-4.51,2.92-11.39-5.78-12.45-0.88,3-1.29,6-2.63,8.58a31.66,31.66,0,0,1-5.61,7,8.13,8.13,0,0,0-2.39,6.3c0.07,2.5,1.05,4.73,3.27,5.81,2,1,3.85-.42,5.32-1.79,2.66-2.47,5.23-5,9.13-5.48,0,7.78-1.1,10.1-7.13,12C97.6,787,91.08,789.19,86.51,795l-0.67,5.12,0,0.07a2.71,2.71,0,0,0,.33.36c4.82-6.71,10-9.53,16.91-8.69-4.11,10.38-11.65,18.72-22.76,25,1.59-8.54-1.81-16.73,1.48-24.74h0a42.53,42.53,0,0,1-.24-8.8c0.1-4.52-.76-9.28-7.44-10.63,0.16,23-2.53,45.39-4,68.14,7.53-.51,10-3.94,9.81-9.8-0.09-2.66,0-5.32,0-8,0-2.05.22-4.51,2.65-4.7,7.27-.56,12.16-5.89,18.58-9.59A51.41,51.41,0,0,1,99.09,829c-1.5,5.19-1.65,10.39,2.58,14.9,3.93,4.19,3.9,4.33,8.65-1.07-3.18-13.28-2.48-28.71,2.14-33.79-1.42,5-2.45,10,1.11,14.48,1.82,2.31-1.41,4.1-1.11,6.36,1.61,1.32,3.13.11,4.66-.18,2.27-.43,5.33-1.34,6.1,1.27,0.66,2.25-.34,5.17-1.16,7.62s-3.2,1.8-5.06,1.26c-1.38-.4-2.79-0.95-3.67-0.67a8.5,8.5,0,0,0-.65,3.42c2.12,2.69,5.37,3.73,8.11,5.5,3,2,6.14,1.82,9.13-.58s5.22-5.39,3.66-9.35c-4.18-10.63-3.8-22-5.29-33-1.25-9.24-1.47-9.69-11.83-10.06l-12,11.44c2-7.27,6.74-10,9.5-14,7.15-4.35,13.64-10.32,23.12-8.69,3.16,0.54,5.09-1.07,4.93-4.55C141.83,776.17,140,774.44,136.92,774.5Zm-12.87,40.95c-0.37,1.69.92,4.07-1.58,4.91-0.68.23-1.86-.38-2.55-0.93-2.81-2.25-.14-4,0.8-5.72,0.39-.73,1.45-1.11,3-2.21C123.92,813.55,124.26,814.56,124.06,815.45Zm-4.12-15.32c3.09,0.79,2,4.85,2.56,8.63l-9.11-2.88C114.42,802.33,116.67,799.29,119.94,800.12Z"/><path class="cls-2" d="M76.51,476.91c-0.35-4.58,3.29-6.12,4.26-9.36-5.67,3.51-11.3,6.85-15.62,11.92-3.26,3.83-4.91,7.88-2.49,12.69,2.64,5.24,7.61,3.2,11.51,2.92,3.75-.27,8.67-1.14,9.45-5.69a86.78,86.78,0,0,1,4.22-16.33C83.3,473.67,80.61,477.39,76.51,476.91Z"/><path class="cls-2" d="M135.51,476c-5.4-3.17-10.84-6.14-17.67-5,5.25,5.63,5.25,5.63-2,16.26,6.61-.52,12.23-0.78,17.79-1.47,2.26-.28,4.53-1.39,5-4.15S137.7,477.29,135.51,476Z"/><path class="cls-2" d="M130.74,448.44c-0.71-14.66-.34-29.13,2.2-43.56,1.3-7.38,1.12-7.41-7.69-7.42,4.18,8.35,4,9.26-4.47,17.77a3.11,3.11,0,0,0-.79,2.66c0.07,4.75-2.84,9.32-.12,14.36,1.23,2.28-1,4.27-3.77,4.55l-2.44,3.73c1.27,2.12,3.84-.12,6.11-0.1,1.78,0,4.2-1.79,5.22.83s-1.07,7.17-1.43,7c-4.62-2.09-8.75,5.46-13.19.55-1.61-2.14-.93-4.09.51-6,0.23-3.36-2.12-6.58-.57-10a71.68,71.68,0,0,1,.15-16.89c0.64-4.77,2.17-9.86-2.33-13.52-5.93-4.83-9.31,1.49-14.6,3.87,3.56,1,5.94,3.13,9.18,1.88,2.8-1.08,3.49.71,3.8,2.85,0.58,4-2.2,3.73-5,5-6.55,2.92-4-3-6.19-6.54l-3.44,13.25c1.41,9.51-.75,19,0,28.54,0.12,1.57.17,3.65-2.17,3.62s-2-2.22-2-3.71C88.1,441,86.38,430.6,90,420.65h0c0-3,.1-5.91,0-8.86s-1.1-5.11-4.14-6c-3.52-1-4.81,1.64-5.8,3.94s-2.63,4.35-2,7c-2.92-1.76-5.79-3.7-10.11-3.67,2.86,9.39,3,18.41,2.6,27.62-0.26,5.38-2.91,10.82-.35,16.32a2.4,2.4,0,0,1-1.43,3.25c-1.19.56-2.64,0.9-3.52-.39s-0.5-4.47-3.6-2.55c-1.91,1.19-2.24,3.12-1.9,5.25,0.79,4.93,3.76,6.75,9.46,5.15q10.5-3,20.8-6.57c6.91-2.44,14.14,0,21.16-2,4.54-1.29,10-2.42,11.37,5.27a2.64,2.64,0,0,0,5.13.68c2.65-7,7.61-7,13.52-5.93,1.74,0.3,4,.54,4.75-1.4C145.54,447.09,137.35,449.59,130.74,448.44Zm-47.18,4.94c0.83,1.73.41,3.18-1.71,3.65-2.32.51-4-.09-3.87-2.79,0.63-12.42-1.31-24.87.43-37.27l-0.19.2,0.19-.24v0c1.44-1.53,2.8-3.23,5.84-3.61,0.49,6.39-.3,12.53-1.1,18.62C82.21,439.16,80.16,446.28,83.55,453.38ZM96.33,426.8c0.1-2,.83-3.73,3.07-4.15a1.94,1.94,0,0,1,1.68.58c1,2.12-.93,3.34-1.72,4.92-0.42.85-.92,1.67-1.23,2.24C95.81,429.22,96.28,427.88,96.33,426.8Zm1.82,26.11c-1.8.15-2.1-1.2-2.16-2.55-0.08-1.61,0-3.22,0-4.89,3.1,0.07,3.26,2.33,3.91,3.94S100.54,452.71,98.15,452.91Zm5.85-6.54c-2.26.36-3.31-1.56-4.46-3.11s-1.26-3.5.51-4c2.79-.81,3.43-3.52,5.5-5.25,1.76,3,.24,5.77.3,8.48C105.88,444,106.13,446,104,446.37Z"/><path class="cls-2" d="M58.47,702.66c-2.23,1.93-3.85,4.66-6.87,5.56-3.38,1-3.58-4.51-6.87-3.77-2.19,6.41,2.3,10.27,5.3,14.4,2.35,3.24,8.69,2.76,10-1,2.86-8.31,7.63-16.1,8.22-27.81C64.55,695.81,62,699.63,58.47,702.66Z"/><path class="cls-2" d="M64.73,664.64a13.69,13.69,0,0,0-4.85-.48c-4.22.1-8.43,0.36-14.05,0.62,2.74,4.17,7.45,5.65,5.7,10.42,4-1.64,8.12-1.46,12.29-1.55,2.48-.05,6,0,5.91-3.57C69.66,667.51,67.25,665.54,64.73,664.64Z"/><path class="cls-2" d="M148.69,705.32c-4.83-.37-8.42-2.9-11.76-6.08-1.86,2.69,1.56,4.75-.35,7.26-5.73,1.34-11.52,0-17.35-1.33-7-1.54-7.93-2.67-4.76-9.08a78.23,78.23,0,0,0,6.87-18.52c0.43-2,1.08-4.42-1-5.32-3.77-1.6-4.07-3.41-3.53-7.5,0.46-3.5.9-6,3.63-8.27a20.43,20.43,0,0,0,3.94-4.44c3.37-5,2.54-5.55-3.64-13.73-3.22-4.27-5.94-.92-8.46.67-6.37,4-12.4,8.67-20.6,9.22l14.93,5.38c-2.17,5.26-4.74,9.92-9.72,13.21-3.61-13-3.61-13-11.59-13.69,3.52,3.87,2.56,8.25,3.23,12.36,1,6.37,1.5,13.41,9.6,15.42,1,3.6-1.49,6.08-2.81,9-4,8.69-9.76,16.33-15.43,25,6.09-.81,9.29-3.58,12.43-7.13,4.62-5.22,7.68-11.4,11.74-16.94l7.29-15.64c1.29,7.11-1.19,12.73-5,17.9-1.86,10.83-.93,13.25,5.45,16.68,10.49,5.64,21.89,6.62,33.45,7,4.66,0.14,5.56-2,6.06-6.62C151.64,706.75,151.06,705.5,148.69,705.32ZM98.24,680.75c0,0.06.06,0.12,0.1,0.19l-0.24-.19h0.15c-0.83-1.51-.43-2.68,1.21-3.34a2.9,2.9,0,0,1,1.41.54C100.34,679.23,100.29,681,98.24,680.75Z"/><path class="cls-2" d="M91.93,20c-10.7-5.18-11.3-5-18.12,4.27C73,16,73.41,7.75,69,0A88.56,88.56,0,0,0,66.2,11.73c-1.27,6.92-3.94,13.35-9.94,17.83a15.4,15.4,0,0,0-5.51,18.09c1,2.87,2.58,4.45,6,2.43,2.82-1.68,4.9-4.89,8.91-5.55C60,60,55.78,74.92,54.47,90.49c-0.36,4.24-.81,10,3.2,11.8,4.95,2.19,6.54-4,9.19-6.72,2.56,2.47,5.15,5,7.82,7.51,2.35,2.17,4.62,2.94,6-1,3-8.78,6.54-17.63,5.71-27-0.77-8.63.7-16.36,5.11-23.68A2.71,2.71,0,0,0,91.07,50c-2.57,1.45-2.71,5.53-6.47,5.8C83.35,51.06,83.93,45.5,80.12,42c-2.51-2.31-1.72-3.21-.2-5.35C83.71,31.29,89.89,27.69,91.93,20ZM72.76,46.69a1.74,1.74,0,0,1,2-1.48,1.65,1.65,0,0,1,1.41,2c-0.32.94-.77,1.76-2,1.37C73.36,48.31,72.34,48,72.76,46.69ZM69.37,53c2.15,3.39-.15,5.23-3.47,8.53C67.19,55.91,67.19,55.91,69.37,53Zm9.92,22.18c0.59,5.6-1.19,11-1.5,16.43-0.18,3.19-2.06,3.77-4.73,2.93-4-1.24-7.18-3.65-8.23-7.71-0.78-3-1.43-6.6,3.65-7.29C72.27,79,74.48,74.36,79.29,75.21Z"/><path class="cls-2" d="M125.54,60.52a122.64,122.64,0,0,1,14-5c1.84-.6,4.13-0.39,4.11-3.81-6.59-2.8-14.15-4.72-18.22-11.4,3.17-3.92,6.22-7.44,9-11.18,1.62-2.21,2.58-4.82.12-7.22-2.2-2.14-5.42-2.42-7.4-1-3.17,2.31,3.3,1.65,1.86,4.2a24.38,24.38,0,0,0-1.59,4.66c-1.58,5-6.51,6.37-10.36,9.85-0.85-7.36-1.62-14.21-2.42-21-0.4-3.39-2.53-4.53-5.63-3.91-3.62.73-4.11,3.56-2.7,6.12,5.15,9.35,4.73,19.74,6,29.8,1,8.3-.77,9.8-9.09,9.79a10.59,10.59,0,0,1-8.45-3.85c0.5,8.17,1,8.55,10.69,8.83,7.27,0.21,7.31.22,6.21,7.1-0.31,2-1,3.86-1.44,5.79-1.8,7.34-1.35,8.21,6.36,11-0.65,2.85-4.07,4.18-4.25,8.53,8.26-4.65,16-8.81,23.51-13.39,2.31-1.41,6.07-3.21,4.3-6.82-1.55-3.16-4-6.29-8.21-6.5a20.65,20.65,0,0,0-5.88.58c-2.12.52-3.67,2.95-6.29,2C118.25,64.21,118.15,64,125.54,60.52Zm-6.13,24.94a3.37,3.37,0,0,1-.88,1.58c-0.6.72-1.31,1.36-2,2a2.76,2.76,0,0,0,.25.27l-0.3-.22,0.05-.05c-1-1.15-.2-2.17.6-3C117.71,85.47,118.43,84.35,119.41,85.46ZM118,46.54a3.74,3.74,0,0,1,3-3.44c2-.52,2.74,1,3.42,2.64,2.11,5.05,1.31,6.79-5.41,10.4C118.61,52.81,118,49.68,118,46.54Z"/><path class="cls-2" d="M86.3,898.9c3.36-2.18,4.77-5,6.19-8-5.19-5.08-10.61-4-16-1.79C75.06,881.6,69.45,876.45,63.2,877c-1.36.12-7.13,0.52-1.66,4.46,1.29,0.93-.1,3.13-0.77,4.61-1.09,2.42-2.29,4.79-3.47,7.16a7.09,7.09,0,0,0,1,8.35c2.1,2.44,4.72,1.91,7.32.91a25.93,25.93,0,0,1,4.62-1.77c1.55-.27,3-2.27,5.24-0.47-7.15,7.77-12.65,16.63-23,20.45-4.53,1.67-2.93,6.26-2.25,9.64,0.77,3.79,3.7,2.89,6.36,2,0.84-.29,1.77-1.18,3.05.54-0.65,4.81-3.15,9.44-5.06,14.28a79.3,79.3,0,0,0-2.8,8.48c-0.33,1.21-.23,2.81,1.37,3.21a3.54,3.54,0,0,0,2.79-.5c3-2.62,6.2-5.12,7.92-8.84,2.78-6,6.5-11.58,8.43-18,0.84-2.8,1.62-5.91,5.38-6.36,2.14,5.47,4.17,11,6.48,16.38,0.91,2.12,2.51,4.11,5.3,3.27,3.46-1,3.43-4.45,2.37-6.47-2.71-5.19-4.78-11.17-11-13.59,5.25-7.28,5.25-7.28-2.29-10.51-3.5-1.5-3.18-4.07-1.25-6.33C80,904.59,82.81,901.17,86.3,898.9Z"/><path class="cls-2" d="M125.41,881.46c3.21-.16,3.87-4.18,3.44-7.3s-2.6-3.35-5.19-3c-2.21.26-4.31-.27-6.45,1.51-5,4.2-11.22,6.55-17.3,9.3C108.63,886.25,117,881.89,125.41,881.46Z"/><path class="cls-2" d="M121,936.93c-2.07,1.17-4.52,2.36-7.43.93a58,58,0,0,0,18.33-13.75c3.89-4.42,3-8.58-2.5-10.74-1.88-.74-4.12-0.55-6.32-0.8,1.32-3,6.21-3.33,5.43-5.41-1.54-4.11.77-5.9,2.62-8.56,3.56-5.09,2-8.71-4-9.9a10.81,10.81,0,0,0-9.35,2.19c-2.83,2.3-6.42,4-8.47,6.86-3.51,4.88-6.06,2.08-9.33-1.48,0.43,7.33.77,13.25,4.7,18.19,1.78,2.23.72,3.87-.12,6.22-2.26,6.3.11,8.89,7.64,9.37,2.36-3.34,4.08-7.3,9.85-9.75a21.32,21.32,0,0,1-10,12.37c-0.76.63-1.46,1.67-2.3,1.81-3.78.6-6.24,2.23-6,6.47,0.25,3.75,3.18,4.76,6.05,5.71,11.25,3.7,24.16,0,32.2-9.26C135.13,932.57,128.19,932.87,121,936.93Zm-7.14-28.71c-1.44,1.14-3.05,3.28-4.89.92-1.62-2.08-1.37-4.31,1.14-5.89,3.54-2.22,7-4.49,10.56-6.74C119,901.4,117.31,905.49,113.86,908.22Z"/><path class="cls-2" d="M85.42,1068.56a3.09,3.09,0,0,0,2.32-3.81c-0.42-2.08-2.32-2.07-3.86-2.37-3.54-.69-6.93.21-10.82,1.56,6,0.22,3.08,8.62,9,8.72C83.08,1071.26,83.08,1069.12,85.42,1068.56Z"/><path class="cls-2" d="M82,1072.65l-0.13.16h0l0.34,0.12-0.07-.28H82Z"/><path class="cls-2" d="M146.2,1093.13c-5.74-2.57-11.7-3.6-18.83-1.1,2.42-14.47.78-27.27-1-40.09-0.68-4.89-1.72-10.08-.76-14.76,1.07-5.19-1.75-6.37-5-8.08-2.8-1.46-5.79-.53-8.58-0.72-1.37-12,11.52-14.17,16.7-23.79-7.68,1-11.85-2.51-16.41-6.6-3.91-3.51-9.55-7.26-15.92-3.11a11.35,11.35,0,0,0,4.93,5.47c3.34,1.78,5.18,4.39,4.54,8-0.78,4.4-5.18,5.1-8.38,6-6.74,1.89-8,2.72-7.81,8.55,0.09,3.58,1.77,5.1,5,3.46,2.87-1.44,5.29-3.95,8.77-2.92-1.88,12.56-9.31,22.44-16.41,33.84,8.37-.79,11.77-6.7,17.54-12.72-2.41,8.94,0,15.79-1.1,22.78-0.63,3.83,0,8,.68,11.86,0.47,2.67,2.64,5.8,5.49,3.27,4-3.54,5.21-.21,6.85,1.86a100.66,100.66,0,0,1,5.46,8.5c-11.91-.17-23,3.05-34.79.68,0.51-2.06.89-3.6,1.29-5.14s1-3.18,1.26-4.8c1.16-6.62.22-8-7.49-10.64,0.48,1.81,1,3.63,1.42,5.45,1.15,4.59,2,9.5-.08,13.71-1.81,3.73-6.32,2.44-9.85,2.67a1.61,1.61,0,0,0-1.73,1.87c0.19,1.66,1.27,2.56,2.59,2a28.21,28.21,0,0,1,13.66-1.74q16.33,1.43,32.62,3.33c8.38,1,16.57,0,24.75-1.7a3,3,0,0,0,2.72-2.47C148.5,1094.66,147.52,1093.72,146.2,1093.13ZM109,1048.5c-1.17-9.93-.18-12.89,4.42-13.2,3.77-.26,4.76,2.38,5.35,5.6C119.53,1045.33,119.72,1045.29,109,1048.5Zm1,9.8c-0.42-5.28,4.25-3.85,6.81-4.82,2.18-.83,3.59,1,3.64,3.24,0.1,4.59-3.8,3.4-5.66,4.08C112,1061.25,110.18,1061,110,1058.3Zm10.17,19.87c-3.61.39-7.46,1.21-8.22-4.61-0.93-7.13,4.61-4.35,8.58-5.51,0,2.64-.07,4.24,0,5.82C120.59,1075.15,121.25,1076.41,120.13,1078.17Z"/><path class="cls-2" d="M80,1046.93c2.3-5.6-1.58-8.28-5.45-11.24-4.53-3.47-4.2-9.2.29-13,1.26-1.06,2.85-1.79,4-3,2.83-3,2.33-7.95-.32-11.73-2.81-4-5.93-2.18-8.57-.58-4.68,2.84-9,6.23-13.51,9.41l0,0h0l0,0.18c3.51,0.12,7.06-.88,11,0.34-3.67,7.45-5.18,14.87.78,21.9,1.29,1.52,2.73,3.26-.17,4.59-2.26,1-4.48,1.21-5.93-1.43a3.55,3.55,0,0,1-.32-0.93q-2.7-12.23-5.38-24.45H56.21l0.19-.17c-1.8.94-4-.58-6.35,1.43,3.58,6,2.13,13.07,2.79,19.84a362,362,0,0,1,1.65,40.48c-0.13,8-.27,16.35,4.15,23.91,8.06-5.94,8.15-6.25,6.8-15.17-2-13-3.89-26-3.35-39.74,1.84,0.66,3,1.12,4.26,1.51C70.75,1050.49,79,1049.4,80,1046.93Z"/><path class="cls-2" d="M153.46,597c-6.12-2-12.38-3.65-18.8-5.51,0.91,1.73,2,3,1.43,4.72,2.71,0.19,4.58,1.81,6.38,3.71a24.1,24.1,0,0,0,18.65,7.9C161.67,602,158.43,598.71,153.46,597Z"/><path class="cls-2" d="M142,571.41c-0.59,5.16-4.6,8.6-8.43,11.81-2.48,2.08-5.36,3.74-7,6.72,7.21-1.24,20.81-11.48,23.44-17.71,0.94-2.24.44-4-2.33-4C145.27,568.24,142.47,566.91,142,571.41Z"/><path class="cls-2" d="M120.13,611.82c-0.1-12.68,2.23-24.21,4.73-35.7a10.22,10.22,0,0,1,2.54-4.22c2.05-2.31,7.16-3.88,4.86-7.4-3.15-4.83-5.93-.1-8.66,2-2.22,1.69-3.74-.31-4.9-1.77-1.64-2.08.52-2.76,1.8-3.47,3.25-1.82,6.85-2.3,10.52-2.73,2.48-.3,6.27-0.74,6-3.75-0.33-3.7,2.38-4.22,4-6,3-3.32,3.11-6.47-.38-9.15-3.7-2.84-7.91-4.62-12.77-2.9h0a6.29,6.29,0,0,0-.07.89s0,0.09,0,.14c0.58,3.87,6.24-.9,6.25,3.51,0,3.55-2.85,5.81-4.85,8.34-1.15,1.45-2.53,3.06-5.44,3,0-4-.71-8,0.49-12.06-2.4,1-5.29.45-7.23,2.5-0.89-10.92,4.64-16,14.81-17.15a2.4,2.4,0,0,0,2.23-2.81,11,11,0,0,0-11.71-2.84c-6.2,2.34-6.73-1.14-7.57-5.26-0.26-1.3-.38-2.63-0.66-3.93-0.49-2.24-2.22-3.3-4.22-3.71-1.8-.37-3.05.9-4.16,2.2-2,2.32.3,3.32,1.34,4.86,5.22,7.79,3.24,12.06-6,14.84-6.06,1.83-12.24,1.7-19.92,2.32,8.65,5.81,16.41,9,25.82,5.58-0.31,1.94-.56,2.91-0.6,3.88a13,13,0,0,1-5.24,10.34c-2.75,1.95-4.7-3.28-7.91-2.3a17.47,17.47,0,0,0-1.94.89c1,3.42,1.84,6.92,2.95,10.34,2.64,8.15,3.41,8.68,11.9,8.36a17.83,17.83,0,0,0,5.83-.79c2.1-.84,4.08-3,5.57.47,1.11,2.61-1.35,3.44-2.85,4.43A97.55,97.55,0,0,1,90.6,584c8.77,4,14.57-2.36,21.54-4.05C105.71,590.65,95,597,86.6,607c10.87-.86,16.54-7.22,21.58-14.29a48.48,48.48,0,0,1,10.54-10.88c-0.94,8.73.4,16.07-2.2,23.21a21.83,21.83,0,0,0-.82,7.9c0.1,3.86,6.16,7.59,8.4,5.08,5.48-6.14,12.94-11.47,11.72-21.29C131,601.7,128.62,609.15,120.13,611.82Zm-19.55-47.28c1.21-3.38-4.41-8.18,2.09-10,3.74-1,5.47,1.32,5.83,4.77C109.08,565,104.75,564.24,100.58,564.54ZM116,557.86c-4.48-6.07-4.48-6.07,4.46-12.37C118.73,551.08,119.22,554.95,116,557.86Z"/><path class="cls-2" d="M135.77,596.21c0,0.17,0,.33.05,0.5l0.22-.23-0.05-.05,0.05,0.05c0-.08,0-0.15.06-0.22l-0.32,0h0Z"/><path class="cls-2" d="M68.74,554.78c-4.15-.94-3.94-3.55-4.14-6.66-0.34-5.43,1-10.52,2.4-15.65a4,4,0,0,0-2.2-5c-2.24-1-3.85.36-5,2.1A15,15,0,0,0,57.3,539c0.29,4.31.46,8.64,1,12.92,0.86,6.35-.92,11.13-7.09,13.6-2.7-1.84.67-5.55-2-7.75-11.92,17.86-8.64,28.62,9.87,34,2.7,10.23-3.33,21.79,5.95,33.37,8.08-20.1-1.51-38.84,1.65-57.06,3.24-.21,5,4.08,7.74,1.61s1.27-5.49,0-8.22S71.75,555.46,68.74,554.78ZM59.61,582c-6.79-7.21-6.79-7.21,0-19.85V582Z"/></g></svg>