<svg id="图层_1" data-name="图层 1" xmlns="http://www.w3.org/2000/svg" viewBox="0 0 200 1322.04"><defs><style>.cls-1{opacity:0.05;}.cls-2{fill:#fff;}</style></defs><title>主站</title><g class="cls-1"><path class="cls-2" d="M43.64,1313.77l0.13-.16-0.33,0Z"/><path class="cls-2" d="M98.18,1292.21a19.12,19.12,0,0,0-7.35,2.9c-6.36,4.25-13.44,7-22.44,9.88,8.32,1.39,14.89.74,21-2.31,3.87-1.93,4.55.4,5.39,3.16,1.86,6.19-2.56,8.53-7.36,10.65,1.58,1.42,2.61,2.26,3.55,3.2,1.74,1.73,3.69,3.13,6.16,1.87s2.3-3.81,2.28-6.16c-0.05-4.32,0-8.66-.24-13-0.11-1.74-.57-3.27,1.53-4,1.44-.5,3.65-0.33,2.86-2.86A4.55,4.55,0,0,0,98.18,1292.21Z"/><path class="cls-2" d="M146.86,1295.2c-11.87-4.81-24.4-8.16-35-15.8-7.71-7.72-17.07-13.6-24.41-21.74a30.31,30.31,0,0,1,3.89-3c3.51-1.95,1.53-3.93-.07-5.46-3.28-3.12-4.34.23-5.84,2.28-14.77,20.14-25.87,42.74-41.67,62.19,4.11,0.55,6.24-2.7,8.63-5a64.07,64.07,0,0,0,11.66-15.92c5.72-10.82,12.69-20.79,19.57-30.84,4.13-1.06,5.73,2.43,8.06,4.54,5.81,5.27,11.14,11.1,18,15.19,10.39,8.94,22.41,15,35.24,19.48,2.52,0.88,6.54,2.86,7.73-1S149.32,1296.19,146.86,1295.2Z"/><path class="cls-2" d="M77.3,1282c9.87,8.05,15.63.54,21.75-4.77C91.5,1277.35,85.4,1282.37,77.3,1282Z"/><path class="cls-2" d="M137.32,1129.29c-14.22-8.34-30.18-9.52-46-11.29-8.15-.92-16.4-0.57-24.54-2.23-2.84-.58-6.85-0.58-7.1,4.62s2.76,5.25,6.38,5.1a61.64,61.64,0,0,1,18.68,2c9.28,2.48,18.68,5.09,28.39,4.61s19.05-.52,28.71,1.42C141,1130.77,139,1130.29,137.32,1129.29Z"/><path class="cls-2" d="M114.22,1086.85c-10.25,8.24-22.42,13.33-32.16,22.28,15.19-3.52,28.1-13.06,43.49-16.12,2.78-.55,5.22-8.91,3.62-11.41-2.22-3.48-5.59-4.94-9.48-3.13-3.6,1.68-6.93,4-10.44,6C110.79,1086.26,113.51,1084.35,114.22,1086.85Z"/><path class="cls-2" d="M75.6,1099.89a34.12,34.12,0,0,0,4.32-4c3.87-3.37,11.82-3,10.18-11.66-2.37,6-8.59,5.94-12.84,8.89-5.88,3.37-11.52,1.33-17.44-2C62.33,1102.74,67.38,1105.22,75.6,1099.89Z"/><path class="cls-2" d="M87.77,1081.06c3,1.59,4.88-.17,6-2.93,1.34-3.19-.88-4.29-3.19-4.68-3.42-.57-6.95-1-10.72.5C81.52,1077.75,84.74,1079.44,87.77,1081.06Z"/><path class="cls-2" d="M131.19,209.74c-0.63-5.24-3.14-9.31-9.65-10.11,2.19,8.57,2.08,17,2.1,25.47,0,5.27-.75,5.61-5.85,3.47a33,33,0,0,1-3.85-2.39c-0.08,8.11,4.92,12.35,8.58,17.34,1.55,2.11,2.54,4.66,6,4.23,4-.5,4-3.86,4.95-6.52a9.66,9.66,0,0,0,.36-3.9C133,228.12,132.29,218.91,131.19,209.74Z"/><path class="cls-2" d="M131.52,187.69l0,0-0.16,0c0,0.08,0,.16,0,0.24h0l0.29-.11-0.12-.1Z"/><path class="cls-2" d="M166.7,196.1a89.49,89.49,0,0,1-26.83-6.6c-2.54-1-5.13-2.95-8.2-1.74,7,5.87,15,10.14,22.68,15a17.48,17.48,0,0,0,12.4,2.55c3.32-.54,7.75-1.59,7.8-4.91C174.62,196.5,169.74,196.34,166.7,196.1Z"/><path class="cls-2" d="M101.8,213.26a5.62,5.62,0,0,0-3.7,1.08c-3.54,3.13-8.19,3.9-12.62,5.82,8.68,4.91,9.53,5,18.53,2.27,3-.92,7.79-1,6.95-5.34S105.32,213.45,101.8,213.26Z"/><path class="cls-2" d="M125.6,175.53c-3.06,7.16-5.82,14.61-16.47,16.64,4.24-4.85,7.39-8.54,10.63-12.15,2.18-2.43,3.08-5,1.37-8-2.75-1.35-4.88-4.12-8.12-4.22,1.1,11-6.42,15.76-13,21.91-1.24-4.83.42-9.12-1.86-12.7s-0.45-5.6,2.38-7.16a24.49,24.49,0,0,0,12.13-17.49c1-5.95,2.86-5.71,6.29-4a19.53,19.53,0,0,0,16.15.9c-2.62-6.83-2.67-6.69-7.34-8.47-6.51-2.49-13.17-2.24-19.6-.49-5.68,1.55-10.71,3.5-12.44-4.72-0.16-.77-1.33-1.47-2.18-1.94-7.08-3.93-14.72-6.11-22.5-8.17,0.88,10.43,8.65,15.2,14.66,22-10.06,3.17-19.28,5.9-28.38,9-4.86,1.66-7.8.82-7.85-5.28-2.69,2.65-4.87,4.6-6.8,6.76-2.82,3.15-2.14,7-.82,10.3,1.19,3,4.6,1.82,7.16,2,3.18,0.28,5.78-1.25,8.46-2.57,4.95-2.43,9.84-5,16.07-6.51,0.32,9.76,9.66,12.05,14.46,18.82-9.08.48-17,2.67-27.13,1.73,6.07,3.73,5.46,7.7,4.3,11.44-1.56,5.06-3.57,10-7,14.18-8.65,10.47-16.87,21.38-29.25,27.92,21.53-3,32.08-18.11,39.75-36.37,3,0.82,4,4.49,7.62,4.43,2.57,0,3.24,2.16,2.72,4.3-2.19,9-.76,18.55-4.66,27.26-1.67,3.72-.36,7.1,2.11,10.06,5.91-1.27,8-4.9,7.5-10.77-0.48-5.59-.28-11.25-0.47-16.87-0.1-3.09-1.13-6.25.27-9.64,2.79,1.18,4.81,2.39,7,2.89,7.23,1.64,13.3-2.14,19.64-4.57,1.18-7.92,9.83-9,13.49-14.81a7,7,0,0,1,7.55-3.45C131.55,182.62,133.81,176.62,125.6,175.53ZM70.5,195.16c-3.27-2.5,1-5.56,1.3-8.86,2.74,1.71,5,2.87,6.63,5.13C76.66,194.85,73.33,197.32,70.5,195.16Zm16.56,9c-0.19,1.55-1.77,1.83-3,1.63-2.24-.37-3.18-2.06-2.91-4.21,0.22-1.78,1.8-2.44,3.32-3.11A5.67,5.67,0,0,1,87.06,204.16Zm5.32-36.56-2.67-12-0.16.17h0l-0.09-.12c-0.77.4-1.55,0.78-2.29,1.22-1.75,1.05-2.76,4.21-5.58,2.13a1.74,1.74,0,0,1,.08-2.63c2.42-1.58,4.86-5.14,7.79-.72l0.24-.12,0,0,0,0,0,0.07c2.53-2.69,4.82-5.82,9.92-5.18C100,156.81,95.25,160.79,92.37,167.6ZM105.87,199c-2.51-.69-5.09,2-7.66-0.37,1-3.25,4.09-3.89,6.64-4.89,1.84-.72,3,0.77,3.46,2.56C108.82,198.38,108.18,199.66,105.87,199Z"/><path class="cls-2" d="M64.61,996.22c2.53-5.27-.2-7.17-4.58-8.29a104.13,104.13,0,0,0-1.19,27.73c0.77,7.47,1.5,15.22-1.65,22.61-0.93,2.19-.15,4.45,1.57,6.41,2.79,3.18,5.24,3.27,6.64-.56,2.39-6.53,4.35-13.08.89-20.14C61.92,1015.08,60,1005.73,64.61,996.22Z"/><path class="cls-2" d="M61,953.65c-3.28.74-6.46,1.9-10.35,3.07,12.83,3.42,12.83,3.42,7.16,13.31,4.45-1.07,7.31-1.65,10.1-2.44,7-2,8.12-6.17,3.08-11.2A10.23,10.23,0,0,0,61,953.65Z"/><path class="cls-2" d="M141.88,1052.79a15.81,15.81,0,0,0-9.36-12.07c-5.59-2.65-11.14-5.38-16.69-8.07,1.27-4,3.92-6.11,5.83-8.77,3.12-4.34,5.77-8.9,7-14.17,1.34-5.62.19-8.21-5-10.06-1.89-.67-4-0.6-5.95-0.85,2.34-9.27,14.58-16.93,1.78-26.54,1.15-1.56,2.22-2.82,3.08-4.21,1.73-2.82,3.81-5.55,4.89-8.62,1.25-3.53,1-7.18-2.35-9.94s-5.89-1-8.71,1.24c-2,1.59-3.67,3.85-6.83,4.33,0.36-4.74,2.61-9,2.49-13.68-0.21-8.33-.46-8.77-9.89-8.9a15.85,15.85,0,0,1-.43,6.77c-3,8.78-5.62,17.68-8.68,26.42-1,2.91-2.75,6.57-.89,8.52,4.56,4.78,2.86,9.92,2.7,15.22-0.12,4,1.34,7.31,6.53,6.17,1-2.35,3-3.05,5.73-3.4a7.51,7.51,0,0,1-3.94,7.1c-5.72,7.68-11.16,15.59-18.35,22.06-3,2.72-3.81,5.89-1.86,9.79,2.18,4.36,3.38,4.77,7.12,1.29,2.54-2.37,5.24-4.64,6.8-7.87,0,0,0-.24,0-0.21l0.17,0.08c4.53-3.76,8-8.42,11.62-13.05,1.91-2.47,3.49-5.84,8.23-4.81-0.79,7.55-4.62,13.67-9,19.32-4,5.16-7.33.12-10.83-1.46l-0.15.13,0.13,0c6.17,8.33,6.1,8.41-1.88,16.66-0.68.7-1.26,1.49-1.88,2.24l-9.66,7.16c5.2,0.59,16.84-5.94,18.63-7.29,4.11-3.07,7.29-3.85,11.9.06,6.28,5.33,13.59,9.45,20.56,14,1.5,1,3.21,2.84,5.26,1A6,6,0,0,0,141.88,1052.79Z"/><path class="cls-2" d="M138.34,350.25c-2-2.36-5.13-3-7.63-4.57-2.88-1.82-6.37-1-9.36-3-3.31-2.19-4.66-3.3-2.4-7.6,4-7.65,3.45-9.14-3.46-15.13-3.09-2.68-3.36-4.68-1.38-8.27,2.19-4,1.59-8-1.81-11.85-5.46-6.18-5.34-6.51-.2-14.2,2.29-3.44,3.39-7.45.61-10-3.32-3-6.9-7.31-13.45-5.94,2.06,2.57,3.65,4.62,5.31,6.62,1.29,1.56,2.81,3.16,2.17,5.3-2.4,8-3.76,16,.08,24a1.58,1.58,0,0,1-.15,1c-2,6-.32,11.21,4.19,15.35,3,2.72,2,5.21.54,8-3.39,6.71-8.69,11-17.06,12.31,6.26,3.72,12.39-.6,18.91,3.06-12.8.18-23.94,3.56-35.35,4.63-0.54-2.27.61-3.49,1.53-4.87,3.28-4.93,9.75-9.09,4.09-16.34-0.31-.39.76-1.73,1-2.68,1.12-5.07,4.61-8.26,8.32-11.56,2.38-2.13,4.33-5.35,2.39-8.94s-7.54-5.36-11.43-3.57a26.71,26.71,0,0,0-5.64,3.94c-2.29,1.9-4.41,4-6.6,6h0c-1.86-.66-1.39-1.5-0.46-2.78a44.49,44.49,0,0,1,13.38-11.77c3.66-2.19,6.93-4.72,8.51-8.56-3.59-4.37-7.89.87-11.23-1.8,1.39-3.22,4.41-5.24,4.88-8.77,0.21-1.6,1.26-3.9-1-4-6.91-.22-5.75-4.81-5.58-9.12a26.47,26.47,0,0,0-.33-6c-0.66-3.46-3.05-4.2-5.58-1.75-3.17,3.07-3.48,6.45-1.25,10.4,4.65,8.21,3.72,10.09-4.92,13.9-3.26,1.44-7.82.92-9.79,5.13,5.11,2.86,10.47,2.49,15.89,2.87-0.46,1.6-.45,3.09-1,3.37-5.28,2.55-9.94,6.63-16.34,6.42-4.49-.15-3.64,2.83-2.58,5.3s3.48,2.64,5.89,2.89c2.76,0.28,5.17-2.3,8.44-1.27l-5.48,9c-4.92,3.12-5.62,8-5,13.12,0.38,3.35,2.31,4.6,5.61,2.81,1.19-.64,1.63-3.12,3.68-1.77,6.31,13.37,6.27,13.66-4.35,22.45a23.36,23.36,0,0,1-5.71,4c-3.9,1.58-5.17,4.07-3.34,7.73,1.65,3.29,4.58,1.93,7,1.15,8.83-2.83,17.46-6.4,26.44-8.61,15.28-3.76,30.82-9.63,45.85,1.4,1.39,1,4.63,2.35,6.26-.07S140.26,352.47,138.34,350.25ZM68.41,325.58c-2.38-6.06,2.18-7.1,5-9.22C74,320.54,71.62,322.87,68.41,325.58Z"/><path class="cls-2" d="M67.65,736.9a109,109,0,0,0,31.5-8.45c2.52-1.13,6.78-.12,6-4.7-0.75-4.35-4.75-3.84-8-4a6.65,6.65,0,0,0-5.39,2.17c-6.09,6.59-14.68,7.45-22.6,9.43-7.51,1.88-9.56-.38-8.32-8,0.29-1.78-1.32-3.91.82-5.47,1.95,0.12,3.93.38,5.91,0.33a57.78,57.78,0,0,0,6.93-.6c4-.58,7.91-1.4,11-4.2,1.26-1.14,2.22-2.62.58-4.2-2.7-2.6-8.74-1.44-11.07,2.06-1.91,2.87-8.4,5.31-11.58,4.14-4.38-1.6.27-5.23-1.73-7.83-5.92,3.88-6.06,9.82-6,15.78,0.09,5-1.61,7.68-7.06,8.84a71.06,71.06,0,0,0-19.45,7.32C33.69,748.73,63.24,737.43,67.65,736.9Z"/><path class="cls-2" d="M73.26,699.08c4.94-.87,10.23-2.37,14.15-6.24,2.39-2.35,1.5-4-1-5.27a6.52,6.52,0,0,0-6.59.37c-4.22,2.45-9,3.3-14.56,4.27C68.37,695,71.24,699.44,73.26,699.08Z"/><path class="cls-2" d="M113.19,778.6c-6.19-3.06-12.79-5.31-19.2-7.88,3.17-12.79,3.17-12.77,16.77-14.7a42.17,42.17,0,0,0,5.82-1.33c2.81-.82,5.11-2.67,4.48-5.66-0.53-2.5-3.54-2.86-5.76-3-5.33-.25-10,2.53-15,4-3.77-9.23-7.39-11.81-13.63-10-7,2.05-7,2-11.91,0a2.18,2.18,0,0,0-2.71.66c3.76,12.07-.38,20.38-12.23,24.19a106.37,106.37,0,0,1-10.63,2.6c-5.89,1.24-11.8,2.36-17.87,3.56,3.65,7.07,9.22,6.88,14.74,5,3.81-1.3,7.4-2.49,11.38-1.65,0.81,2.2-.82,4.7,1.32,6.83,5.73-.09,10.34-7,17.57-3.77-2.63,5.14-7.54,6.92-11,10.2s-8.22,4.76-12,7.8c7.19-.91,14.55-0.84,20.86-5,5.43-3.6,10.59-9.95,16.19-10.32,6.24-.42,12.79,4.67,19.3,7.11,3.35,1.26,7.94,2.94,9.71-1.08C121.38,781.58,116.11,780,113.19,778.6Zm-41.4-7.18c2.9-6.42,8.89-6.46,13.15-9.9C84.84,770.76,84.84,770.76,71.79,771.42Zm8.7-14c0.33-3.5.79-6.34,0.81-9.19,0-3.5,2.93-3.42,4.84-3.67,2.48-.32,2.79,2,3,4.06C89.91,754.66,86.71,757,80.49,757.43Z"/><path class="cls-2" d="M73.89,1164.64c2,0.89,4.24,1.19,4.75-1.42,0.42-2.17-1.76-3.15-3.56-4-6.24-2.92-12.12-1.22-18,1.17C61.66,1166.32,68.56,1162.24,73.89,1164.64Z"/><path class="cls-2" d="M83.54,1185c-3,2.09-5.19,5.32-9,6.58-1-3,.53-4.56,1.34-6.31s2.28-3.59.08-5.26c-1.75-1.33-3.84-1.08-5.67-.12a17.69,17.69,0,0,0-3.07,2.51,102.67,102.67,0,0,1-24.59,16.21c-3.37,1.54-7.49,1.54-10.77,4.46,16.2,4.35,25.9-6.33,36.56-14.12a2.06,2.06,0,0,1,.35,2.85c-3.76,7-6.1,14.79-11.71,20.74-2.68,2.84-2.9,5.86-.48,8.94,2.22,2.84,4.78,4.83,8.16,1.66,1.6-1.5,2.52-1.38,3.61.48,0.91,1.56,1,4.15,4,3.54,2.19-3.48,5.59-6.51,3.45-11.44-3.3-7.61-.83-14.15,4-20.25a50.44,50.44,0,0,0,3.57-5.95,49.63,49.63,0,0,0,9-12.17C87.26,1179,85.08,1181.65,83.54,1185Z"/><path class="cls-2" d="M146.17,1216.07c-0.33,6.42-4.4,8.86-9.79,9.64a51.51,51.51,0,0,1-8,.19c-10.72-.15-13.28-3.48-11.42-14.79,1,1.92,2.47,3.36,4.71,2.92,2.69-.53,2.31-3,2.15-4.84-1.28-14.62-1.1-29.14,2.61-43.45,0.5-1.94-.36-3-1.52-4.32-3.79-4.21-6.77-5-12.16-1s-9.71,4.66-14.57-.12c-0.23-.22-1.16.27-1.83,0.44,0.7,2.32,3.73,3.84,2.35,6.86-1.06,2.32-3.86,1.69-6.13,3.78,6.94,0.37,5.9,5.34,5.64,9.15-0.51,7.58-1.55,15.14-2.76,22.65-0.66,4.07-1.07,8.09,1.18,11.59,2.36,3.67.75,6.29-1.48,8.89a80.57,80.57,0,0,1-6.19,6.47c-3,2.77-4.9,5.86-4.85,11.6,12-5.61,17.67-16.06,26.39-24.81,3.36,11.66,6.63,15.61,15.11,16.86a48.12,48.12,0,0,0,13.89,0C148.59,1232.38,151.5,1224.54,146.17,1216.07Zm-41.34-45.57c3.36-2.58,6.63-5.52,12.14-6.44a38.21,38.21,0,0,1,.34,4.57c-0.12,2.22,1,5.36-1.65,6.26a15.06,15.06,0,0,1-10.74-.15C103.16,1174,103.56,1171.46,104.83,1170.5Zm12.79,13.28c-3.63,2.72-7.31,1.66-10.68,2-2.62.23-3.26-1.47-3.19-3.75s1.56-2.74,3.29-2.55C110.73,1179.85,114.71,1179.81,117.62,1183.78Zm-13.25,25.07c-1.35-2.42-2.34-4.83.28-6.9a2.8,2.8,0,0,1,2.63.65C108.64,1205.59,107,1207.47,104.36,1208.84Zm-0.14-11.32c-1-8-1-8,6-7.71,2,0.1,3.93.2,5.88,0.48,0.41,0.06.72,0.9,1.49,1.95Z"/><path class="cls-2" d="M115.22,598.24c-5.82-1.27-11.75-1.64-17.57.32,3.26,0.75,6.56.73,9.77,1.24,8.82,1.41,11.26,5.68,8.27,14.06-2.28,6.39-6.61,11.38-10.93,16.47-5.92,7-13.27,8-21.58,6.35-3.17-.61-5.81-3.22-9.48-2.58,1.27,3,3.63,4.95,5.91,6.63,7.18,5.29,14.7,7.31,22.9,1.72,11.48-7.82,19-18.24,21.22-32C124.83,603.57,122,599.72,115.22,598.24Z"/><path class="cls-2" d="M81.35,627.08c5.13-2.83,9.67-6.1,16.3-4,2.54,0.82,4.53-2.32,3-5.47-1.21-2.49-2.91-4-6.24-3.42-6.78,1.23-11.86,5.22-16.87,9.45-13.74-1.35-25,5.6-38.11,10.73,6.7,3,11.25.07,15.33-2.31a34.83,34.83,0,0,1,17-4.74C75,628.45,78.45,628.68,81.35,627.08Z"/><path class="cls-2" d="M75.31,566.84c-11.16,8.6-22.39,17.93-37.41,19.89a26.57,26.57,0,0,0,17.44-1.93c5.2-2.33,10.43-4.59,16.91-7.44-8.15,13.79-16,26.09-16.88,43.3,4.68-10.16,8.4-18.49,12.37-26.7,1.11-2.29,2.48-6.21,4.72-5.82,7.86,1.36,10.54-5,15-8.77h0c4.25,1.15,6.35,3.36,4,7.89-4.75,9.25-8.2,19.69-20.37,22.09a2.25,2.25,0,0,0-1.94,2.85c0.39,2.12,2,2.5,3.71,1.85A22.7,22.7,0,0,0,82,608.27c4.58-5.18,9.24-10.31,12.62-16.45,5.23-9.49,4.68-11.53-4.77-16,3.28-2,4.67-5.52,7-8.29,2.62-3.11,5.28-6.46,2.38-10.67-2.08-3-6.58-2.46-12.06,1.16-0.64.42-.9,0.36-1.06-0.66,6.17-17,6.1-17.1,14.31-22.89,2-1.42,4.05-2.45,3.42-5.28-0.58-2.6-3.16-1.88-4.86-2.56-1.49-.6-3-1.41-4.73-0.71-2.85,8.91-14.55,19.76-25.65,24-2-4.63,1.38-9.27.11-14.83-2.52,4.75-4.92,8.73-6.78,12.95s-3.57,9.64,1.33,12.49,7.3-2.38,10.25-5.36c3.68-3.73,6-9.06,12.84-11.47C82.49,552.38,81.77,561.86,75.31,566.84Zm13-2.9c-2.25,10.1-9.46,15-14.46,20.93C78.25,578.23,78,568.64,88.3,563.94Z"/><path class="cls-2" d="M56,831.83c-2.43,0-4.44,1-6.41,3.45,3.07,0.14,5.56.9,3.54,4.39-1.49,2.57-3.16,5-4.61,7.63-3.48,6.22-8.69,11.4-11,18.32-1,2.06,0,2.19,1.66,1.77,8.23-7.91,17-15.31,22.72-25.48C65.4,835.63,63.26,831.88,56,831.83Z"/><path class="cls-2" d="M51.71,880.85c2.58,12.23-.86,23.49-5.37,34.62A18.45,18.45,0,0,0,45,921.2c-0.09,1.5-.06,3.52,2.2,3.76,1.59,0.17,2.15-1.18,2.74-2.36,7.21-14.51,10-29.28,2.2-45.88C51.89,878.9,51.52,879.93,51.71,880.85Z"/><path class="cls-2" d="M115,848.76c2.11-.57,6.21-0.29,5.78-3.94C120.4,841.46,117,840.4,114,840a16.15,16.15,0,0,0-7.77,1.27c-2.77,1-4.71,3.76-8.2,3.74-1.68-3.9.41-7.76,0.1-11.61-0.58-7.11-1.6-8.22-11-9,5.54,6.43,4.15,13,2.25,19.79a22,22,0,0,1-4.56,8.66,5.49,5.49,0,0,0,.47,8.07c2.75,2.52,3.63-1.39,5.46-2.11s2.75-3.07,5.06-2.24a23.13,23.13,0,0,1,2,9.57c-0.09,9.29,0,18.59-1.6,27.79a20.38,20.38,0,0,0,4.06,16.15c4.81-.91,3.27-6.26,6.75-7.16,2.37,0.77,4.55,1.63,6.8,2.18,3.84,0.93,5.47-.75,5.58-4.67,0.1-3.57.29-6.55-4.61-7-3.17-.28-6.11,2.4-9.16.89-0.83-3.55,2.19-5.72,2-8.69,4.68-1,6.37-5.46,9-8.56,2.2-2.56,1.85-6.52-.11-9.39-2.08-3-5.24-1.87-8.14-.94-1.42.46-2.57,1.91-4.84,1.19,0.51-4.86-4.43-9.77-2-13.92S110.22,850.07,115,848.76ZM103.84,875.9c0.27-2.46,2.15-4,5.07-4.18,3.07,5-2.65,9.1-1.49,13.83l0.19-.09-0.15.26c0-.06,0-0.11,0-0.17-1,.57-2.22,2.38-3,0.93C102.56,883.21,103.45,879.42,103.84,875.9Z"/><path class="cls-2" d="M79.78,74.52c-0.43-3.84,9-9.2-1.56-11.58a1.32,1.32,0,0,1,0-.76c2.69-8.4-4.11-6.52-8-6.86a29.2,29.2,0,0,0-17.08,3.37c5.64,2.67,8.58,8.26,15.39,7.58C64.71,73.18,59.74,73.51,54,71c-4.09,5.7-1.43,11.43-.14,17.2s6.44,5.6,10.48,7.41c7.37,3.29,8.36,3,11.55-5.31,1.4-2,3.12-3.9,1.68-6.62C77.33,80.35,80.12,77.55,79.78,74.52Z"/><path class="cls-2" d="M156.7,82.43a39.15,39.15,0,0,0-8.9-.44c-16.16,1.12-32.25,2-48.3-6.65C113.84,92.89,132.56,95.4,152,96c1.57,0,3.15-1.1,4.77-1.24,3.82-.34,4.76-2.37,4.74-6S160.1,83,156.7,82.43Z"/><path class="cls-2" d="M66.24,34c2.24-4.74,7.09-5.57,11-7.92,5-3,10.87-1,16.61-2.72-4.58-8.06-10.94-4.69-16-3.1C60,25.94,42.3,32.11,25.45,41.15c10.42,7.19,20.59,3.57,30.76,0C59,38,64.27,38.21,66.24,34Z"/><path class="cls-2" d="M84.37,36.59c9.42,28.35,4,30.17-5.71,51.86,11.26-5.47,14-14.31,17-23.71C99.71,51.73,95,43.13,84.37,36.59Z"/><path class="cls-2" d="M78.94,17.44c-2.06-13.9-3.35-15-16.77-15.64-3-.14-6.07-0.62-9.65-1C59.63,9.2,66.19,17.42,78.94,17.44Z"/><path class="cls-2" d="M56,41.32c0.08-.08.15-0.15,0.24-0.23l0,0-0.1,0-0.2.21h0Z"/><path class="cls-2" d="M56.06,44.4c5.62,6.52,12.62,5.8,19.87,3.74,4.47-1.27,5.46-4.34,2.23-7.46-2.84-2.75-6-3.17-10-1.79S60.6,43.14,56,41.32A2,2,0,0,0,56.06,44.4Z"/><path class="cls-2" d="M101.6,43.27c-0.47,4.94-1.73,9.82-2,14.76-0.31,5.3,3.33,9.17,9.56,11.18,5.75,1.86,7.65,1.14,11.45-4.55q2.49-3.73,4.76-7.61c6.59-11.23,6.55-11.37-1.93-21.7-0.66-.8-2.15-1.63-0.67-3.28,1.84,0.47,3.73.93,5.61,1.44,2.78,0.76,5.48.81,6.88-2.18,1.52-3.26-1.82-4.56-3.21-6.58s-3.54-1.47-5.5-1.54c-3.18-.11-6.38,1.38-9.65,0,0.3-2.72,2.67-3.69,4.11-5.37s3.11-3.47,4.45-5.36c4.07-5.75,1.94-11.13-4.81-12.37-3.66-.67-12.12,3.23-14.1,6.34a1.9,1.9,0,0,0,.2,2.64c3.1,2.71.56,4.74-.75,6.86A45.31,45.31,0,0,1,93.61,28.78C102.42,33.68,102.52,33.69,101.6,43.27Zm15.61-6.71a40.63,40.63,0,0,1,1.85,6.72c1.29,8.61.13,10.62-8.92,15.84-4.46-8.76,1.38-19.26-6.65-26.44C113,26.53,114,26.8,117.21,36.56Z"/><path class="cls-2" d="M68.76,397.17a41,41,0,0,0-9.85,4.62c-6.64,4-13.9,6.64-21.18,9.39,5.81,7.94,8.55,8.78,16.43,6.17,2.95-1,5.32-3.34,8.56-3.48C57,425.49,52.11,437.86,43,447.45a16.38,16.38,0,0,0-3.21,4.95c-1.57,3.81.22,7.91,4.12,10,3.64,2,4.43-1.55,6-3.27,4.25-4.64,9.14-8.42,15.39-12.55-2.08,12.21-4.87,22.9-10.11,32.85-0.74,1.4-1.09,3.41-2.91,3.71-2.25.36-3.8,0.83-3.17,3.61,0.44,2,.66,4,2.31,5.36,3.6,2.88,5.38-.49,7.24-2.5,1.29-1.4,2-3.38,2.89-5.11,8.2-15.36,8.6-32.39,10.56-49.09,0.59-5-.09-9.1-5.76-10,0.09-2.9,2.16-3.89,3.12-5.58,2.66-4.66,2.41-5.37-3-6.27a10.8,10.8,0,0,0-3.43.11c1.46-3.88,4-4.42,8.09-4.51,4.59-.1,5.78-3,5-7.72C75.38,396.88,72.16,396.2,68.76,397.17ZM52.3,447.79c2.84-7.84,7.43-12.82,11.65-19.07C67.3,437.86,67.3,437.86,52.3,447.79Z"/><path class="cls-2" d="M131.1,455.47c-3.22-.44-6.52,1.61-9.64-0.36-1.52-9.4-1.52-9.4,3.71-17.17,0.56-.83,1.2-1.61,1.67-2.48,2.56-4.74,1.93-7.84-3.19-9.14-3.29-.83-4.59-1.66-4.29-4.86,0.62-6.59-.92-12.88-3.48-19,4.21-1.54,8.08-.7,11.41-2.48,1.19-.64,2.41-1.13,2.58-2.67,0.22-2-1.16-3.13-2.72-3.62a12.44,12.44,0,0,0-11.31,2,20,20,0,0,1-12.12,3.93c1.14-2.72,2-4.85,2.91-6.92,1.09-2.41,2.44-4.71,3.39-7.17,3.2-8.3,1.46-10.29-9.51-9.62,3.52,1.42,5.81,3.32,4.43,7.11-3,8.36-5.45,17.09-14,22-2.85,1.64-3.45,4.76-4.72,7.42A2.79,2.79,0,0,0,87,416a3.35,3.35,0,0,0,4.46.32c3-1.83,4.36-4.88,6.32-7.5s3.3-6,8.12-3.84a119.58,119.58,0,0,0-7.3,23.61c-0.47,2.51-.47,5.4-2.87,7.23,1.23,2.21,7.26,2.48,2.8,7-2.78,2.83-5.5,5.54-9,.87-3.68,5.29-11.31,9-6.86,18.63C92,456.1,99,447.62,108.26,442c2.59,2.85,2.87,5.46-.15,8.37-5.73,5.53-11,11.57-18.2,15.33a15.92,15.92,0,0,0-8.34,10.56c-0.52,1.95-1,4.16,1.24,5.24s3.74-.72,4.63-2.51c3.86-7.78,11.17-11.89,17.67-16.88,1.8,6-1.4,10.19-5.39,13.82-2.14,2-4.88,3.27-7.38,4.82-1.72,1.07-3.47,2.21-2.92,4.55s2.61,2.66,4.65,2.79l3,0.18c0.44,2.2.39,4.37,3.11,5.66,5.1,2.42,10.2,3.06,15.36.91,13.38-5.57,20.89-15.94,23.37-30C139.78,459.61,136.57,456.22,131.1,455.47ZM114,443.12c-0.44.25-2-.55-2.32-1.21-1.39-2.88-.23-4.85,2.93-6.1a4.26,4.26,0,0,1,.86,1.34C115,439.17,116.46,441.74,114,443.12Zm-7.62-6.79c-2.14-4-.76-6.7,2.45-9.48,7.45-6.45,7.3-6.69-2.06-9.78-0.34-3.89,1.93-6.74,3.95-11.16,5.46,7.86,4.46,15.88,4.43,23.29C115.16,433.36,110.2,434.91,106.4,436.33Zm26,32.68c-4,8.59-10.48,14.81-21.09,20.2,4.5-8.12,8.77-14.37,5.36-23.29a3,3,0,0,0-1.05,0c-1.09,8.66-4.91,14.35-9.82,19.57-2.43,2.59-4.73,3.38-7.86,1.84,0.29-.42.59-0.84,0.89-1.26h0c5.18-7.2,11.54-13.82,11.07-23.81-0.05-1.09,2.4-.85,3.25-2.14h0a1.65,1.65,0,0,0,.15-0.28c-2,.36-4.18.28-6.16,1l-0.37.13-0.31.13a6.86,6.86,0,0,0-.76.38c0.27-2.89,2.85-4,4.56-5.71,1.06-1.08,2.08-2.4,3.88-.74,2.06,1.89.54,3.14-.41,4.53,3.79-.6,7.57-1.59,11.36-1.61C132.69,457.85,135.59,462.24,132.45,469Z"/></g></svg>