<svg id="图层_1" data-name="图层 1" xmlns="http://www.w3.org/2000/svg" viewBox="0 0 200 1359.89"><defs><style>.cls-1{opacity:0.05;}.cls-2{fill:#fff;}</style></defs><title>主站</title><g class="cls-1"><path class="cls-2" d="M137.48,498.46c-3.64.21-7.29,0.41-10.92,0.75-16,1.5-39.3-2.13-53.58-8.45,8.73-2.54,16.92-6.1,25.49-8.76,12.73-3.95,24.13-10.89,34.22-19.75,1.49-1.31,3-2.59,2.07-5-1.41-3.6-7.26-6.57-11.25-5.57q-24.1,6.06-48.19,12.14c-4.17,1.06-8.12,1.51-10.63-3.16a6.91,6.91,0,0,0-1.36,5.26,13.82,13.82,0,0,0,.86,3.88c2,4.46,7.84,6.31,11.54,3.26,12.35-10.19,27.53-11.84,44.45-15.83a86.36,86.36,0,0,1-23.83,18c-12,6.13-23.4,13.9-37.51,14.93-3.37.25-6.53,4.73-5.36,7.08,1.8,3.61,4.62,2.67,7.59,1.26,4.75-2.25,9.63-1.76,14.59-.38,12.45,3.46,25.18,6.07,37.36,10.3,12,4.17,22.68.72,34.14-2.56C145.17,500,142,498.2,137.48,498.46Z"/><path class="cls-2" d="M98.08,444.93c2.22,0.19,4.87,1.33,5.84-1.88,0.78-2.59-.71-4-2.84-5.58-5.64-4.16-11.91-3.09-18.53-3.06C86,441.55,91.37,444.36,98.08,444.93Z"/><path class="cls-2" d="M97.23,1202.42c-4.3-.18-8.62-0.26-12.92,0-8.59.43-17.16,1.13-25.75,1.63-2.33.14-5.36,1.91-5.93-2.69-0.15-1.22-2.28-.62-2.89.59-2.3,4.57.15,8.82,5.11,8,13-2,25.65-1.53,38.15,2.65a19.61,19.61,0,0,0,3.93.48c5.18,0.06,11.19-2.72,10.61-5.14C106.26,1202.49,101.51,1202.6,97.23,1202.42Z"/><path class="cls-2" d="M87.67,1187.81c6.31-2.78,12.1-6.84,17.91-10.66,3.54-2.33,3.63-5.47.45-8A9.9,9.9,0,0,0,98.8,1167c2,5.32-1.68,8.13-5,11-8.07,6.8-17.08,12.29-27.83,18.41C75.61,1196.14,81.15,1190.68,87.67,1187.81Z"/><path class="cls-2" d="M56.4,1190.78c3.42,0.79,3.87.18,11.35-11.77-12,4.88-12,4.88-17.88,3.3C49.93,1187.76,52.6,1189.9,56.4,1190.78Z"/><path class="cls-2" d="M73.78,1167.24c1.36,1,2.77,3.79,4.77,1.25,1.85-2.36,1.77-5-1.25-6.7A13.37,13.37,0,0,0,67,1160.28C69,1163.85,71.44,1165.53,73.78,1167.24Z"/><path class="cls-2" d="M91.94,931.11c0.18-.27.12-0.7,0.32-0.94,2.64-3.08,3.67-6.74.85-9.79s-6.71-2.17-10.26-.62c-2.42,1.06-4.9,2-7.23,3.21-2.79,1.46-5.51,3-10,2,4.68,4,9.45,4.77,14.19,6-7,9.08-7,9.1-15.85,4.64-1.5-.76-2.89-1.66-5.09.15,4,4.72,1.79,11.95,6.74,16.59-0.39,6.13-7.72,7.12-10.21,13.91,5.65-4,10.9-5.52,14.51-9.72,1.39-.85,2.81-1.67,4.18-2.55,4.46-2.88,8.78-6,13.38-8.63C93.5,941.85,89.09,935.4,91.94,931.11Z"/><path class="cls-2" d="M119,962.84c-2.28-4-6.14-3.5-9.73-2.36s-7.22,2.82-11,4.32c1,4.19,5.25.69,5.61,3.56,0.45,3.56-3.1,3.63-5.33,4.71a11.75,11.75,0,0,1-2.17.53c-1.86-2-1.34-5.61-4.54-7.59-1.09,6.73-2.11,13.06-3.15,19.4-0.05.32-.25,0.62-0.34,0.93-1.08,4,1.31,6.55,4.12,8.22,3,1.76,3.79-1.53,4.86-3.36,1.78-3,5.2-2.74,7.81-3.74,3.47-1.32,6.29-3.21,6.34-6.66,0.07-4.37,2.88-6.45,5.34-9.05S121,966.24,119,962.84Z"/><path class="cls-2" d="M67.33,964.38c-5,2.9-8.68,11.14-16.71,5.83-0.21-.14-1.1.62-1.6,1-5.6,4.75-6.82,13.63-2.69,20,0.85,1.31,1.56,3.28,3.6,2.82,2.68-.6,2.27-3,2-4.84-0.76-4.72-4-9.2-1-15,5.64,6.19,10.82,2.76,15.94-1.3a8.64,8.64,0,0,1-2.27,8c-5.15,5-2,7.85,2,10.8,3.93-1.92,5.66-5.55,6.5-8.8,0.71-2.76,5.67-3.49,3-7.95-2.22-3.67,3.51-5.77,3.79-9.81C75.81,962.38,72.33,961.49,67.33,964.38Z"/><path class="cls-2" d="M140,601c-3.77-5.36-9.18-8.5-15-11.17-8.44-3.87-16.78-7.93-25.17-11.9-2.71-1.28-4-3.27-3.58-6.36s2.56-3.28,5-3.69c6.2-1.06,12.41-1.93,18.66-2.62,3.91-.43,8.36.44,12.59-2.5-10.74-14.23-23.89-3-35.49-4.89-0.85-5.19-2-10.36-2.45-15.59-0.45-5.74-4.36-7.94-8.81-9.41C82.3,531.74,78.58,531,75,533c0.1,3,.45,6.17,3.46,7.67,7.34,3.68,6.21,10.89,7.51,17.09,0.68,3.25-1.22,4.82-4,5.85-12.76,4.69-25.48,9.53-39.58,11.09,4.45,6.75,10.83,6.89,17.59,5.93,7-1,13.05-4.75,19.81-6.39l4.09,0C78.45,586.28,66.71,590,56.06,595.29c10.71,5.17,27.21-.89,38.78-14.19,4.5,3.91,9,7.88,13.52,11.72,9.6,8.06,19,16.71,33.21,13.51C142.58,604.14,141.09,602.58,140,601Z"/><path class="cls-2" d="M68.38,1082.11a10.14,10.14,0,0,0-7.21.85c5.39,2.75,6.87,7,8.29,11.39a37.89,37.89,0,0,0,3.28,8.17c1.32,2.16,3.63,1.62,4.78-.39C82.9,1092.71,79,1084.34,68.38,1082.11Z"/><path class="cls-2" d="M115.09,1120.45c-4.93-5.52-2.69-11.8-2.82-17.81-0.26-11.31,0-22.63-.58-33.93-0.54-11.48-5.19-14-15.62-9-1.05.5-1.67,2.12-3.2,1.22,1.75-2.32,5-4,4.8-7.1-0.12-1.69-2.57-3.22-3.8-4.64,4.17-1.37,8.18-3.07,12.36-4s5.1-4.74,5.35-7.44c0.34-3.59-3.82-3.72-6.56-4.29-6.07-1.27-10.87,1.48-15.27,5.26-3.64,3.13-6.73,7.27-12.53,6.84,0.89-2.35,1.78-4.36,2.4-6.45a2.5,2.5,0,0,0-1.48-3.23c-3.86-1.83-7.63-1.64-11.57-.11-4.35,1.69-.3,4.17-0.83,6.11a7.36,7.36,0,0,1-3.37,4.75c-2.14-11.26-2.58-11.68-14-13.25,5.85,6.66,5.21,14.78,4.7,22.71-0.22,3.48-3.43,4.08-6.23,4.53-2.05-3.32,2.21-5.5,1.06-8.5-12.46,4.61-12.46,4.61-15.28-3.33-4.9,8.15-3.42,14.81,3.48,20.35-1.82,2.27-3.62,3.34-6.28,2.76-4.17-.91-4.41,1.73-3.81,4.71,0.37,1.84.86,3.78,3.31,4.43,5.4-4.08,10.8-8.31,18.7-11.33-6.47,7.22-10.12,15.26-19.71,16.32-1.36.15-2.8,1.83-3.73,3.13-1.65,2.3-1.76,4.27,1.88,4.81a11.7,11.7,0,0,0,7.64-1.64l10.11-5.61C38,1097,31.29,1104,23.34,1111.84c6.89-1,9.58-6.16,14.35-7.64,3.21-5.42,8.87-8.41,12.63-13.49,2.45,1.95,1.2,3.69.53,5.24-1.79,4.2-5.06,7.68-6.51,12a5.44,5.44,0,0,1-.57,2.32c0,2.1-3.68,3.15-1.78,5.81,1.52,0.48,2.6-.31,3.65-1.09a25.89,25.89,0,0,0,7.21-8.07c1.79-3.15,4-3,6.11-.06,3.79,5.45,2,10.43-5.23,14.32-1.44.77-4.57-.47-3.63,2.9,0.78,2.8,2.76,4.67,5.92,3.9s6.27-2.41,9.51-2.86c3.53-.48,4.33-2.55,4.47-5.39,0.47-9.47-3-16.69-12-20.46,1.42-6,1.52-6.21-.53-13.22-1-3.39,1.78-5.38,2.64-8s3.34-.57,5.14-0.3a16,16,0,0,0,4,.23,6.75,6.75,0,0,0,5.91-5.68c0.55-3.23-2.66-4.06-5.38-4.54-2.51-.44-5.22.68-7.61-0.89,9.29-20.4,10.59-21.21,26.64-16.27-2.43,4.3-5.15,8.28-5.78,13.45-1.58,13-2.49,25.81,3.1,38.17,0.53,1.18,1.4,2.44-.05,3.5a3.49,3.49,0,0,1-3.72.31c-1.1-.5-0.29-2.69-2-2.22-0.36.1-.49,1.77-0.37,2.68,1,7.69,7.11,3.86,11.74,4.21l-11.11,13.78c12.58-.7,15-11.89,21.45-17.92,1.73,1.22,2.24,3.07,1.68,3.7-2.69,3.06-2,5.73.49,8.23,2.31,2.28,4,5.32,7.73,5.93S116.48,1122,115.09,1120.45Zm-23.63-29.33c-1.77-7.54-1.79-7.6,4.42-10.63,2.45-1.2,4.63-2.49,5.19-5.45-4.58-3.2-7.16,1.54-11.49,2.91-0.12-8.76,7.88-7.66,10.61-12.22,6.63,5.83,2,13.2,5.81,20.17C99.22,1084.88,95.92,1089.21,91.46,1091.13Zm0.74,11.68c-0.73-7.81,2.3-10.31,14-11.64C100.92,1095.29,96.1,1098,92.2,1102.81Z"/><path class="cls-2" d="M146.42,1347.62a83.85,83.85,0,0,0-5.76-22c-2.09,5.22-.61,10.67-4.41,14.82-10.93-4.86-18.8-13.52-27.52-21.11-3.47-3-4.32-5.73-2.73-10.32,3.83-11,0-20.43-7.5-28.69,1.73,8.66,3,17.19-.11,26.87-10.15-11.82-15.72-24.87-22.09-37.22,1.18-1.56,2.49-1.72,3.73-2.18,6.06-2.21,12.08-4.53,18.09-6.9,1.49-.59,3.21-1.2,3.1-3.35-0.13-2.57-2.14-3.22-4.07-3.62-5.33-1.12-10.48-.7-15.15,2.46-1.6,3.33-8.33-.49-8.07,5.73,0,0.26-2.68.45-2.46-1.5s-1.67-2.72-2-4.28c-2.94-4.22-6.76-5-11.34-3,1.2,5.24,8.63,6.45,8.09,13.49-9.91,3.64-18.09,12.52-30.27,9.89-0.66,1.89,3.68,3.94-.28,5.7-2.25,1-4.47,2.08-7.77,3.62,2.88,0.33,4.52.59,6.16,0.7,6.6,0.43,8.29,1.58,9,7.71,1.09,9.76-2.51,18.25-8,26.06-1.6,2.29-3.9,2.5-6.12,1a48.25,48.25,0,0,1-4.6-4c-1.19,5.85.28,12.06,4.56,14.41,5,2.72,8.44-3.62,12.29-6.5a14.67,14.67,0,0,0,1.94-2.18c1.24,3.29-1.22,5.86-1.24,8.87,0,4.76,1.47,8.47,5.82,10.69a3.94,3.94,0,0,0,2.75.48,2.32,2.32,0,0,0,1.24-3.28c-3.22-4.61-1.32-10.29-3.43-15.08h0c-0.89-4-5.06-7.37-1.66-12.29,2.22-3.22,1.88-8.09,8.62-5.15,3.91,1.71,7.86-3.83,13.64-4.86-3,5.35-4.88,11.07-9.26,13.75-4.14,2.54-6.38,7.37-11.34,8.56v0c5.84-1.45,7.6,1.15,7,6.71-0.24,2.41-1,6.16,2.73,6.33,3.32,0.16,3.34-3.51,3.93-6a8.58,8.58,0,0,0,.16-3.95c-1.82-7.12,2.86-8.35,8.28-9.55,2.24,6.44-2.17,11.08-3.71,16.22-1.76,5.88-5.42,10.45-12.18,11.53-5.47.87-10,4.95-16.11,4.24-3.22-.37-2.89,3-2.72,5.23,0.19,2.53,1.37,5,4.32,4,8-2.74,17-1.44,24.46-7.17,5.74-4.41,13.16-6.4,20.58-6.26,4.23,0.08,8.43,1.56,12.66,2.28,1.86,0.32,4.34,1.2,5.3-1,1.1-2.57-.86-4.52-3-5.59-3.22-1.63-6.65-2.83-10-4.22h0a4.78,4.78,0,0,0-1.71.7c-1.43,1.48-2.9,2.63-4.94,1.2a0.8,0.8,0,0,1-.24-0.47l-0.35.08,0.35-.13a1.82,1.82,0,0,1,.07-1c1.06-2.09,2.93-2.18,4.94-1.78,0.16-5.1,4.16-8,6.88-11.51s5.47-3.78,8.73.1c8,9.49,17.78,16.92,28.17,23.6,3.09,2,6.18,3.94,10.08,3.79C145,1352.07,147,1351.76,146.42,1347.62Zm-61.94-50,4,7.92c-3.75,3.13-8.25,2.72-12.3,4.27C78.74,1305.66,80.16,1301,84.49,1297.61Zm-33.54,6.18c-2.07-7.32,2.85-13.86,1.09-20.71-0.14-.54,1.68-1.76,2.76-2.39A59.36,59.36,0,0,1,63.5,1276c2.59-1,4.8-5.69,8.34-1.29,4.06,5,5.28,10.84,2.27,14.12C67.83,1295.71,60.82,1301.56,50.95,1303.79Zm38.38,15.33c-3.72,7.74-7.55,15.45-16.24,22.61,0.85-9.37,3.16-16.55,1.7-24.29-0.82-4.36,6.25-3.4,8.72-6.57,1.08-1.38,3.74-.87,5.33.83C91,1314,90.5,1316.69,89.33,1319.12Z"/><path class="cls-2" d="M58.94,79.9c3.15,1.77,4.73-1.72,6.16-3.63,4.64-6.22,5.17-14.11,8.16-20.06-5.7-4.52-6.59,8.89-12.9,1.48-2,5.22-8.66,7.5-8.85,13.71C51.36,76.23,55.64,78,58.94,79.9Z"/><path class="cls-2" d="M56.41,50.72a5.47,5.47,0,0,0,6.23,1.78c2-.6,2.81-2.69,2.86-4.75,0.09-3.55,0-7.11,0-11.75-5.4,3.18-6.93,3.8-8,3.43-4-1.36-6.43.13-5.38,3.59A28.24,28.24,0,0,0,56.41,50.72Z"/><path class="cls-2" d="M105.13,120.06c-1.78-5.32-6.79-3.57-10.15-4.49,0.15-3.27,2.27-4,3.57-5.45,4.34-4.76,4.16-5.73-1.53-9-3.12-1.81-3.27-3.91-.24-5.67a16.85,16.85,0,0,1,9.77-1.89c-1.62-4.21-2.57-8.18-7.24-8.1-2.31,0-4-.28-4.19-2.81s2.19-1.81,3.54-2.32c4.28-1.61,7-3.8,3.67-8.68a6.15,6.15,0,0,1-1-2.58c-1.33-9.7-1.31-9.7-12-9.18,2.26-2.41,4-4.3,5.76-6.14,3.47-3.58,7.85-6.09,11.07-10,2.36-2.87,1.56-4.06-1.16-6.19-6.06-4.75-10.16-.7-16,4.48,2.55-8.79,5.86-14.94,6.68-21.76h0c5-.12,6.5,5,10.09,7,1.57,0.87,3,1.28,4.41-.2s1.08-2.91.13-4.44c-1.85-3-4.26-5.42-8-4.61-5.78,1.26-4.45-2.74-4.67-5.73C98.26,7.3,98.49,2.56,90.55,0c3.11,4.53,2.51,7.79,1.31,11.29C89.53,18.1,87.66,25.07,85.6,32h0c-2.69-.73-1.76-3-2.23-4.82-1.66-6.37-4.94-11.5-12.22-14.3a46.07,46.07,0,0,1,.52,17.88c-0.61,4,1.18,5.49,4.74,5.88,1.61,0.18,3.34,0,4.64,1.32-1.49,4.36-6.35,3.15-9.76,5.26,3.32,2.9,3.74,6.92,5.91,9.6,3.5,4.34,2.26,7.88-.25,11.67C69.84,75.22,64.2,87.11,52.38,94.1c-3.87,2.29-5.73,6.3-4.57,11.23,0.59,2.53,2.94,3.94,4.09,2.68,2.26-2.46,6.38,2.52,6.75-1.57,0.64-7.11,7.72-8.53,10.55-13.78a162.67,162.67,0,0,1-3.11,39.27c-1.26,6-2.36,12,4.48,15.71,4.92-4.3,5.31-4.33,4.93-9.33-0.32-4.22,1.3-5.82,5.13-6.91,7.24-2.06,13.65-6.75,21.86-5.85C106.06,125.95,106.23,123.32,105.13,120.06ZM77.77,125.5c-1.5.38-.67-1.92-0.52-3.06-5-.32-3.05-4.14-3.12-6.66-0.06-2.1,2-2.48,3.6-2.13,1.84,0.4,3.73-1.32,5.5.25,0.28,3-3.74,3.65-3.66,6.54,2.83,0.21,4.8-3.71,8.52-1.66C85.6,122.87,81.69,124.5,77.77,125.5Zm-0.52-14.67c-2.85-3.65-1.62-6.5-1.71-10.26,5,1.37,9.28-.27,14.47-2.92C88.52,106.45,80.67,105.82,77.24,110.82ZM78,96.23c-1.66-.26-2.1-1.45-1.9-2.85,0.42-2.88,10-9.62,13-9.07a2,2,0,0,1,1.71,2.12C90.68,88.78,80.65,96.4,78,96.23Z"/><path class="cls-2" d="M176.18,122.53c-1.91-6-4.35-11.68-7.31-19.85-4.28,19.39-10.14,23.39-25.55,19.26-8.71-2.34-11.24-10.73-7.56-24.9,1.58,0,1.89,1.63,2.91,2.37,1.81,1.31,3.49,3.51,6,1.37,2-1.67,4.24-3,4.06-6.33-0.94-17.13.09-34.21,1.38-51.31,0.64-8.52-9-15-16.87-11.62-5.53,2.38-11.35,3.73-17.57,5.31,8,11.4,2.28,22.82,1.66,34.05-0.1,1.75-1.78,2.59-3.37,3.31-5.07,2.28.19,2.05,0.75,2.37,2,1.14,1.53,2.93,1.16,4.38-1.08,4.2.77,9.81-5.3,11.77,3.46,5.09-1.4,11.86,2.67,16.36,5.3,5.85,1.94,10.13-1.39,14.6-3,4-6.35,7.67-9.44,11.57a2.91,2.91,0,0,0-.08,3.69c1.1,1.45,2.4.63,3.49,0,3.88-2.2,6.47-5.54,8.65-9.4,4.51-8,9.29-15.84,14.86-25.26-0.07,9.42,1,17.24,7.56,21.37,10.81,6.77,23.05,7.67,35.35,4.35C175.58,129.12,177.66,127.15,176.18,122.53ZM136.62,39.78c0.74,1.68,1.19,2.27,1.23,2.88,0.23,3.54.35,7.09,0.55,11.41A22.49,22.49,0,0,0,124.93,54C123.81,44,132.44,44.37,136.62,39.78Zm-9.1,56.49c-1.43,2.37-1.62,5.68-5.37,7.25-0.2-3.07-.78-5.85-0.43-8.5s2.6-3.76,5.1-2.86C128.88,92.91,128.3,95,127.52,96.27ZM129,82.6c-2,.81-3.19,3.5-6.3,2.53,1-3.95,5.06-4.87,7.09-7.62s6.07-5.27,3.56-9.34c-2.14-3.47-5.86-1.18-8.91-.73-1.32-2.78-.52-5.32,0-8.55,4.3,1.16,8.6,2.67,12.8.25,1.44,3.77.79,7.11,0.8,10.38C138.11,78.88,138.06,78.92,129,82.6Z"/><path class="cls-2" d="M72.13,343.25c-4-2.81-7.67-7.42-15-6,6.47,4.17,5.76,9.44,3.66,15a9.33,9.33,0,0,0-.66,3.88c0.3,3.8,5.16,8.26,7.81,7.36C73,361.7,76.53,346.32,72.13,343.25Z"/><path class="cls-2" d="M138.65,332.09c-0.72-3.22-6.07-5.39-9.34-4.24-4.25,1.5-8.52,2.94-12.76,4.4-4.64-14.11-9.52-15.73-31.39-11,0.64,3.4,3.93,4.25,6,6.26,1.5,1.48,5.05,1.22,4.31,4.56-0.65,2.9-3,4-5.74,4.84-4.82,1.45-9.72,2.8-13.6,6.31a1.86,1.86,0,0,0,.63.74c3.37,0.33,6.44-1.05,9.64-1.66,6.42-1.22,12.68,3.33,12,8.21-0.61,4.62-4.66,7.1-11.52,5.45-3.05-.73-4.41-0.51-4.88,2.1a56.81,56.81,0,0,0-.38,19.84c0.65,3.73,2.31,5.5,7.7,4,7.49-2.05,15.26-6.73,23.86-1.58,3.52,2.1,9.58-.56,10-3.89,1-7.19,5.19-12.81,7.17-19.4,0.91-3-.25-4.15-2.15-5.69-5.85-4.76-12-5-18.58-1.68-1.47.74-3.44,1.27-4.41-.56s-2.14-4.44-1.42-5.46c1.84-2.62,4.59-4.66,7.14-6.72s2.84-1.91,8-1.22c-1.86,3.17-7.13,1.94-8.36,7,8.39-1.56,16.45-3,24.47-4.58C138.24,337.48,139.27,334.86,138.65,332.09Zm-49.29,31C89.3,360.38,90.8,359.82,93,360c1.92,0.12,4.09,0,4.22,2.74,0.15,3.12-2,3.67-4.9,3.86C90.21,366.78,89.4,365.45,89.36,363.08Zm4.42,13.19c-2.93.3-2.58-2.39-3.18-4-0.83-2.22.94-2.93,2.58-3a4.23,4.23,0,0,1,4.76,3.63C97.72,375.73,95.69,376.07,93.77,376.27Zm20.78-6.52c-3.44,3.62-5.35.43-8.66-2.35l9-2.84C116.69,366.37,115.9,368.33,114.55,369.75Zm1-14.82a1.43,1.43,0,0,1,2.05,1.26c0.13,0.83-.17,2.43-0.61,2.55-4.13,1.2-8.34,2.16-13.56,3.44C106.43,355.9,111.72,356.78,115.54,354.93Z"/><path class="cls-2" d="M64.15,798q5.28-1.36,10.49-3a215.71,215.71,0,0,1,32.86-7.43c2.19-.32,3.91-0.27,5.59,2L97.64,800.59c10.12-.31,17.65-4.42,25.87-5,2.14-.14,2.41-2.67,1.28-4.83-3.2-6.12-8.07-8.52-16-6.84-5.76,1.22-11.45,2.66-17.37,3.25,1-14.94.12-16.54-9.28-17.11,1,3,4.5,5.55,2.07,8.87-1.89,2.58-5.81,1.28-8.1,3.1,0.88,3.58,5.86,3.67,5.84,8-7.89.17-14.9,5.15-23.08,3.14C59.65,796.35,60.53,798.9,64.15,798Z"/><path class="cls-2" d="M72.06,865.1c5.75,2.73,11.55.94,17.27-.39,1.07,10.4.88,10.31-2.83,18.81-1.36,3.1,2.13,4.45,3.93,6.06,1.38,1.23,3.2,2.52,5.42,1.54s2-3,1.88-5c-0.26-3.31-.15-6.66-0.44-10-0.34-4-2.07-8.2-1.15-11.78,1.25-4.84,7.26-3.48,10.89-5.49,1.53-.84,3.16-1.45,2.91-3.41a4.18,4.18,0,0,0-3.18-3.5c-4.9-1.24-9.43-1.84-13.88,2.23-6.32,5.78-14.19,8.18-22.83,7.73C69,863.88,70.62,864.42,72.06,865.1Z"/><path class="cls-2" d="M129.95,875.18c-6.17-2.79-12.72-2.92-19.41-1.61,4.83,3.32,9.57,6.78,14.51,9.92,3.16,2,8.46,1,9.47-2C135.76,877.81,132.71,876.43,129.95,875.18Z"/><path class="cls-2" d="M50.3,817.85c3-8,9.3-15.34,4.88-25.67-3.25,5.41-6.35,10-8.85,14.92-1.7,3.34-1.87,7,.76,10.31C48.07,818.63,49.83,819.1,50.3,817.85Z"/><path class="cls-2" d="M61.38,891.59c7.92-3.27,8.17-11.51,14-17C58.65,880.29,57.85,881.27,61.38,891.59Z"/><path class="cls-2" d="M70.17,861.68l-0.2.21h0.1l0.15-.27h0l-0.22.12,0,0.16Z"/><path class="cls-2" d="M141.19,838.38a60.59,60.59,0,0,0-10.7-2.12c-7.69-.92-15.38-2.19-22-7.22,2.92-4.69,5.62-8.86,8.15-13.14,2.82-4.77,1.63-7.12-4-7.94a11,11,0,0,0-9.24,2.59,87.68,87.68,0,0,1-7.24,5.22c-4.14,2.87-8,4.4-11-1.57-0.82-1.62-3.59-1.32-4.47-3.27,1.17-2.09,2.27-4.14,3.47-6.13,0.73-1.21,1.26-2.38,0-3.46-1.72-1.44-3.76-1.21-5.65-.59A2.29,2.29,0,0,0,77,803.88c2.42,6.49-1.4,9.73-6.31,12.55-3.45,2-7.07,4-7.52,8.54-0.26,2.59-.47,5.87,4,4.55,1.61-.48,3.3-1.35,4.22.68a4.71,4.71,0,0,1-1.27,5.48c-1.91,1.78-4.55,2.88-6.16,4.85-1.88,2.31-3.24,5.56-1,8.23,2.34,2.83,4.73.28,7-1,1-.56,1.63-2.35,3.55-0.72-5.3,8-10.23,16.15-21.59,16.06-0.8,0-1.72,1-2.38,1.68-1.38,1.48-1.51,3.19.73,3.68a13.22,13.22,0,0,0,9.66-1.21c3.34-1.9,6.75-3.68,10.13-5.52,2.63-9.76,4.36-11.14,13.1-9.9,2.19,0.31,3.83-.82,5.75-1.11,7-1.07,12.14-6.19,18.45-8.77-1.22-2.41-6.77-.46-5.46-5,0.55-1.92,2.53-4.37,5.16-3.27,3.46,1.45,7.61,3,5,8.34a39.56,39.56,0,0,1,9.7,1.37c5.62,1.77,11.64,2.36,17.53,3.16,1.83,0.25,4.26.14,4.7-2.46C144.36,841.65,143.89,839.21,141.19,838.38ZM71.81,825.23c2.51-3.35,4.41-6,6.47-8.58,0.8-1,1.94-1.84,3.39-1.17a3.63,3.63,0,0,1,2.21,3c0.28,2.69.21,5.16-2.12,7.21C78.58,828.51,75.71,826.84,71.81,825.23Zm29.88,0.65c-3.54,2.52-7.1-3-11.41-1.07l9.47,5.28c-5.4,9.11-11.07,16.33-23.08,18.84,3.87-8.22,7.06-15,9.25-22.12a9.22,9.22,0,0,1,7.22-6.18c4.58-1,8.37-3.67,13.25-6.3C106,819.17,105.12,823.43,101.69,825.88Z"/><path class="cls-2" d="M147.94,186.65c-1.27-4.8-5.33-7-8.92-9.92-3.83-3.15-4.26,1.12-6.25,1.66a89.16,89.16,0,0,0-12.22,4.27c-3.93,1.71-5.41.9-7.19-3.3-4.3-10.23-12.5-13.88-23.8-11.81,9.71,10.16,9.65,10.46-3.59,17.3a0.61,0.61,0,0,0-.35.41c3.63,3.14,8.42,2.53,13.28,3.45C94,192.23,88.35,192,83.68,194.48c-2.08-.5-4.42.58-6.32-1.23-3.07-2.93-2.93,1.3-4.34,2.06l2.29,1h0c0.26,4.65,2.13,7.05,7,4.71,3-1.44,5.87-3.12,8.75-4.76,12.17-6.91,25.29-10.53,40.94-12.3-5.21,7.08-11.87,9.58-18.24,14.71,12.28-.3,22-4.45,31.88-8.21C147.45,189.8,148.41,188.41,147.94,186.65Z"/><path class="cls-2" d="M72.79,195.29L60.5,191.08c6.28,6.91,6.62,12.74,2.42,18.53a8.18,8.18,0,0,0-1.65,6.49c0.59,3.76,5.94,8.57,9,7.76,4.25-1.13,4-4.74,3.77-8.11C73.67,208.92,73.22,202.11,72.79,195.29Z"/><path class="cls-2" d="M122.25,216.68c-5.3,1.66-8.74-.43-12.43-3.69,3.29-1.7,6.57-3.26,9.72-5,2.27-1.29,3.44-3.3,2-5.82s-3.6-2.51-5.94-1c-4.22,2.64-8.46,5.24-12.71,7.85-3.48,2.14-7.08,3.12-11.08.28,1.53,8.22,7.84,7,13.09,7.21-0.26,1.28-.67,2-0.48,2.56,3.47,10.18-3.39,13.27-10.87,16-1.24.45-2.46,1-3.69,1.45H77.21c7,5.71,12.83,4.34,18.7,2a29.57,29.57,0,0,1,10.5-2.88c7.59,18.32-4,28.24-16,38.56a45.34,45.34,0,0,0,15-1.84c12.57-3.43,15.53-6.77,14.28-19.34a109,109,0,0,0-3.37-16.52c-1.21-4.64,0-6.92,4.57-9.17s10.45-2.05,14.58-5.66C132.3,216.24,127.26,215.11,122.25,216.68Zm-7.63,6.84c-0.88.06-1.12-.89-1-1.84a1.87,1.87,0,0,1,1-1.36,1.59,1.59,0,0,1,2.15,1.13C116.89,222.44,116.15,223.22,114.61,223.52Z"/><path class="cls-2" d="M146.71,670.65c-7.57-1.39-12.31-5.59-14.49-12.92-0.21-.7-1.5-1.09-2.29-1.62s-2.27-1.32-2.19-1.79c0.64-4-.33-7.46-4-9.17-4.44-2.06-7.42,1.63-10.54,3.83-7.63,5.37-15.91,9.56-24.22,13.68-2.35,1.17-4.9,2.48-7.42,2.61-3.48.19-2-5.13-5.57-6-0.74,4.46-2.09,8.85,1.48,12.4,4.77,4.73,9.68-.51,15.36-0.91-6.2,12.05-8,24.74-14.28,35.83-3.19,5.66-1.43,8.93,6,13.79,0.62-6,4.13-10.46,6.77-15.34a91.77,91.77,0,0,0,3.88-9h0a11.55,11.55,0,0,1,1.34-2.32h0c1-1,2.58-2.81,2.49-4.6-0.81.8-1.95,1.4-2.67,2.26h0c-0.91,1-3,4-3,4h0c-1.15,1.46-1.89,3.71-4.41,2.5,2.15-21.6,12.17-36.61,34.24-41.82,1.64,2-.14,5,2.45,6.21,6.79,12.68,6.54,13.24-7.7,17.29a14,14,0,0,1-6.91.66c-1.84-1.81-.05-4.56-1.62-6.49a3.92,3.92,0,0,0-4.46-1.23c-2.24.7-.07,2-0.15,3.06-0.39,5.26-.66,10.53-1.17,15.77-0.66,6.75.51,14-6.51,18.85-2.47,1.72-1.65,5.52-.24,8.31a4.05,4.05,0,0,0,4.94,2.32c3.27-.81,5.27-2.74,5.46-6.21,0.12-2.32-.11-4.69.21-7,1.19-8.42-.92-17.23,2.65-25.9a30.93,30.93,0,0,0,20.62,4.62,113.18,113.18,0,0,1-.83,26.26c-0.53,3.93-2.68,5.19-6.06,4.78-3.76-.46-7-2-8.65-5.81-0.65-1.55-1.51-3.15.3-4.39,1.3-.89,2.18.06,3.33,0.86,4,2.78,6.54,1.88,7.17-2.33s-1.39-7.18-4.84-9c-3-1.59-4.85,1-6.77,2.8a10.58,10.58,0,0,0-3.24,7.07c-0.72,7,6,17.43,12.78,19.59,4.76,1.53,8.58,0,10.52-4.79a22.83,22.83,0,0,0,1.61-7.73c0.22-6.94.06-13.88,0.09-20.83,0.05-10,.07-10,10-12.52,2.08-.53,4.91.28,5.29-3.17C151.94,673.4,149.9,671.23,146.71,670.65Z"/><path class="cls-2" d="M62.83,632.81c3.52,7,1.37,12.91-1.36,18.5-5.4,11-10.34,22.35-18.2,32-2.09,2.57-3.76,5.49-6.31,9.27,11.66-2.76,15-12.94,23-19.33,0,2.6,0,3.92,0,5.23a211.62,211.62,0,0,1-2.65,34.76c-1.07,6.64.44,12.63,6.15,16.85,1.2,0.88,2.58,2.31,4.43,1,1.53-1.06,2.38-2.69,1.69-4.3-3.55-8.36-1.67-17.07-1.84-25.57-1.79-.6-1.79,1.5-4,2.12,0.6-9.58,3.72-19.66,1.09-27.91-2.91-9.11,1.07-15,3.6-22,0.67-1.86,1.39-3.66,1.91-5.6C72.92,638.3,73,638.32,62.83,632.81Z"/><path class="cls-2" d="M111.83,639.58a3.54,3.54,0,0,0-.44-3.71,8.82,8.82,0,0,0-6.56-4c-5.85-.71-11.6-0.74-17.15,4.26a73.24,73.24,0,0,1,20.68,4.35C109.63,641,111.09,640.88,111.83,639.58Z"/></g></svg>