<svg id="图层_1" data-name="图层 1" xmlns="http://www.w3.org/2000/svg" viewBox="0 0 200 1355.14"><defs><style>.cls-1{opacity:0.05;}.cls-2{fill:#fff;}</style></defs><title>主站</title><g class="cls-1"><path class="cls-2" d="M141.11,219.4c-2.83-6-3.26-13.9-11.53-15.87-2.52,5.43,3.27,13.07-4.17,17-5.92,3.13-12.54,4.33-19.26,4.57l-1,0c-9.46-.05-12.4-3.22-10.09-12.33,1.92-7.55,5-14.82,7.48-22.17,4.73,0.93,7.94,3.45,11.58,5,2.94,1.23,8.87-.85,9.18-3.09,0.49-3.57-2.9-3.86-4.91-5.24-3.18-2.18-6.95-1.94-10.56-2.33-2.16-.23-4.73,1-6.5-1.83,2.06-4.24,6.07-6.64,9.51-9.64a170.92,170.92,0,0,0,13-12.33c2.17-2.34,2.77-6.05-1.08-7.2-2.42-.72-6.64-5.16-8.19.11-3.21,10.9-12.3,12.51-23.12,16.43,4.51-8.85,1.35-19.07,12.79-22.21,2.91-.8,5.66-9.6,4.15-11.17-2.7-2.79-5.45-1-8.11.37-0.84.43-1.32,0.15-1.38-.48-1.1-6.21,4.17-14.32-5.34-17.33-6.06-1.92-7.76,3.27-10.05,7.29,2.06,0.46,4.7.24,5.7,1.42,3.75,4.4.37,15.6-5.2,17.52-4.77,1.64-9.73,2.72-14.86,4.12,4.74,6.11,11.55,4.81,17.48,6.11-0.75,3.24-1.65,5.8-1.89,8.42-1,11.4-9.63,15-18.55,18.29-0.82.3-2.29,0.56-2.44-.52-0.64-4.51-3.06-1.23-3.81-.61-2.19,1.81-2.35,9.67-.49,12.06,2.95,3.8,6.25,1.43,8.91-.09,7.47-4.27,14.69-9,22.43-13.78-0.9,5.64-6,7.68-7.83,11.93-13.38,13.64-21.8,30.65-31.5,46.76-1.84,3.05-4.35,7.19.37,10.71,5.34-6.82,9.3-14.45,13.32-22,6.1-11.45,14.91-20.94,22.15-31.55,1.46-.15,2.22-2.81,3.08-2.1,0,8.55-.2,16.16,0,23.76,0.34,10.19,4.66,14.27,14.92,14.56,7.7,0.22,15.23-1.31,22.74-2.69,3.92-.72,7.41-2.82,10.82-4.95C140.9,223.08,142.1,221.49,141.11,219.4Z"/><path class="cls-2" d="M88.53,295c5.95-1.62,11.31-5.3,18.88-5.65-6.91,8.58-14.91,14.55-22,21.48a109,109,0,0,0,15.08-5.31C106.66,303,113,300.9,118.91,298c3.39-1.68,7.1-4.14,5.56-9.22A10.18,10.18,0,0,0,114,281.48a33.9,33.9,0,0,0-4.88.9c-6.15,1.35-12.23,3.34-18.45,3.94-8.27.8-16.65,4.28-25.1-.56,3,13.77,5.55,15.4,17.39,11.44C84.87,296.58,86.62,295.5,88.53,295Z"/><path class="cls-2" d="M128.58,323.23c-1.34-3.66-5.1-3.83-8.39-4.2-1.64-.19-3.33,0-5-0.1-13-.89-25.73,1.14-38.58,2.59a4.26,4.26,0,0,0,3.16,3.39c13.65,5.41,28.51,5.95,42.4,10.42,1.25,0.4,3.25.4,3.54-.89C126.6,330.66,130.1,327.35,128.58,323.23Z"/><path class="cls-2" d="M97.59,277.63c2.32-2.55,2.81-5.38.42-7.86-3.09-3.22-5.8-7-10.9-9.12-2.45,7.91,1.67,12.71,5.68,17.5C94.53,280.22,96.08,279.29,97.59,277.63Z"/><path class="cls-2" d="M113.92,1031c-8.49-1.24-16.72-3.84-25.39-4.17a147.47,147.47,0,0,1-17.7-2c-5.85-.94-1.56-5.08,4.88-8.23-3.23.38-13.25,4.61-12.1,8.39s3.29,7.18,8.09,7.68c12,1.26,23.12,5.27,34.11,10,4.18,1.8,9.05,1.94,13.38,3.48,5.14,1.83,7.59-.81,10.55-4.33C124.68,1036.93,120.67,1032,113.92,1031Z"/><path class="cls-2" d="M71.51,1003c3.78-.91,7.46-1.85,11-4,6.89-4.13,13.9-8.52,22.9-9.69-4.06,8.19-25,21.29-28.75,26.92,6.58-1.84,19.87-9,22.51-10.42,5.87-3.06,11.82-6,17.51-9.37,5.5-3.26,5.38-6.6.45-10.85a9.23,9.23,0,0,0-8.4-1.88,59.68,59.68,0,0,0-9.47,2.92c-7.42,2.87-14.77,5.92-22.15,8.88-8,3.21-8.49,2.93-9.91-5.6a6.55,6.55,0,0,0-.94-1.76c-2.11,1.86-2.81,4.44-3.21,6.95C62,1001.69,65.11,1004.59,71.51,1003Z"/><path class="cls-2" d="M95.14,974.54a4,4,0,0,0-3.91-4.77c-4.38-.32-8.8-0.09-15.53-0.09,5.69,3.4,9.37,6,13.4,7.86C91.7,978.74,94.59,977.88,95.14,974.54Z"/><path class="cls-2" d="M85.64,41.11c-1,3.14-2,8.71-5.46,5.69C76,43.21,76.86,44.92,76,48.2s-4.23,4.06-6.85,5.29c-7.82,3.65-15.81,6.93-23.61,10.61-1.47.69-4.72,0.1-4.06,3,0.43,1.86,2.7,2.75,4.79,3.1,2.94,0.49,5.08-1.11,7.29-2.62,6.31-4.3,13.24-7.28,20.83-10.13,1.15,7.16-3.23,11.66-6,16.74-3.11,5.67-8.94,7.76-15,10.45,13.28,5.91,14.84,5,27.11-16,0.16,7.15-.45,13.56,4.09,18.55,1.35,1.48,2.76,3.41,4.94,2.55,1.9-.75,2.47-3,3.13-4.89,0.78-2.23-.66-3.73-2-5.23-3.66-4-5.57-9.05-8.17-13.66-4.29-7.6-2.79-11.05,5.35-13.89,3.34-1.16,7.35-1.33,8.44-5.95C93.45,42.85,88.85,43.59,85.64,41.11Z"/><path class="cls-2" d="M134.58,27.94c-2-.52-3.89.08-5.87,0.44-6.56,1.2-12.73,3.58-19.25,5.76,3.93,3.2,7.81,3.94,12.23,1.92a44.48,44.48,0,0,1,6.63-2.21c1.92-.53,4.15-1.15,5.68.45,1.89,2,1.17,4.44-.18,6.4-5.4,7.85-11,15.54-19.68,20.51-3.88-6.67-6-13.71-10.76-19.73-1,9.13-.65,11.9,2.09,18.65,3.55,8.73,5.32,9.85,14.68,9.2,1.42,1.86-3,3.68-.18,5.78,2.62-2.45,5.16-4.61,7.45-7,4.47-4.7,4.09-5.44-4-7.53,2.79-2.67,5.43-5.15,8-7.69,2.84-2.79,5.86-5.43,8.4-8.48C146.54,36.33,144.61,30.5,134.58,27.94Z"/><path class="cls-2" d="M67.81,32.81c2.67,1.42,4.81-1.5,6.48-3.46,1.32-1.55,1-4.91,4.59-3.46-0.14-.8.6-1.54,0.77-1.27a15.08,15.08,0,0,1,1.22,3.14c3.74-1.33,7.52-2.57,11.21-4,1.91-.75,3.56-2.07,3-4.47s-2.88-2.65-4.74-2.83c-4.13-.4-6.91,3.46-10.88,3.89C80.74,5,80.74,5,72,0c4.47,6.48,2.62,11.65-.09,16.78q-2.32,4.39-4.33,9C66.59,28.11,64.89,31.25,67.81,32.81Z"/><path class="cls-2" d="M143.24,687.82c-6.68-2.83-13.65-4.94-19.77-9-2.75-1.84-3.81-3.57-3-7.29,1.39-6.44,1.64-13.14,2.31-19.73,0.48-4.78-1-9.38-5.67-10.51-7.41-1.8-6.88-6.71-6.13-12,0.42-2.94,1.52-5.78,2.09-8.71,0.66-3.35,4.87-6.91,1.1-10s-7.4.91-11.11,1.79a6.39,6.39,0,0,0-1.71,1c-13.84,8.75-26.68,19.07-41.46,26.42,19-2.62,33.61-13.59,49-25.89-2.43,5.9-2.22,10.94-3.22,15.77-1.54,7.48.46,13,7.82,16a7.1,7.1,0,0,1,4.52,8.07c-1,6-1.46,12.33-5.36,18.64-7.72-6-16.6-6.44-24.65-7.39,0.42-10.32,15.65-16.33,5.31-29.13-6.16,10.63-5.57,23.31-15,31,1.47,7-3.83,12.44-7.66,15-5.51,3.65-5.15,9.33-8.45,13.35-1.6,1.94-.95,3.85,1,5,2.26,1.38,3.79-.41,4.94-1.92S70,694.85,71,693.12q5.47-9.48,11-18.92c0.79-1.34,1.49-3.39,3.61-2.41,7.22,3.33,16.66,1.17,22.33,9.15a103.11,103.11,0,0,1-24.78,20.39c6,0.31,11.08-1.91,15.65-5.24,4.72-3.44,9.18-7.23,14.16-11.19,6.29,10.81,16.77,12.08,26.84,14,5.18,1,12.58-1.08,12.5-3.39C152.18,689.92,147,689.42,143.24,687.82Z"/><path class="cls-2" d="M131.16,821.39c-4.1-5.43-9.73-6.23-16.87-5.52,7.54,5.52,7.52,5.51,2.5,11.86-0.69.87-2,1.64-.89,3.65,4.19-1.37,8.38-3.12,13-3.46S134.17,825.37,131.16,821.39Z"/><path class="cls-2" d="M85.34,820.38c0.3-1.53,3.17-2.9.22-5-3,3.55-6,6.92-6.84,11.72-0.73,4,1.21,5.95,4.7,7.41,3.73,1.56,4.44-1,5.72-3.31a61.82,61.82,0,0,1,4-5.66C84.89,827.07,84.17,826.43,85.34,820.38Z"/><path class="cls-2" d="M117.72,801.35c2.66,0,5.32,0,8,.19,2.33,0.14,5.22.85,5.84-2.11,0.55-2.62-2.34-3.79-4.19-4.92-5.28-3.22-10.74-1.1-16,.56-3-15.36-2.26-23.33,3.5-39.35a2.18,2.18,0,0,0-.41-2.6c-3-3.07-1.75-6.91-1.59-10.45,0.39-8.45.13-9-8.64-12,1.15,17.2,1.15,17.2-12.73,20.1-4-10.43-4-10.43-10.82-10.92-0.68.39-.48,0.84-0.18,1.63,4.53,12,4.51,12-7.29,17.11a29.55,29.55,0,0,0-3.41,2.26c2.33,0.32,3.67.41,5,.71,9.18,2.13,8.4,2.21,9.19,11.41,0.73,8.51-1,17,.83,25.48,1,4.42-.23,7.57-5.18,8.89-4.19,1.12-8.66,1.93-12.87,4.85a7.76,7.76,0,0,0,6.36,1.8,84.44,84.44,0,0,0,24.68-6.83c4.41-1.91,7.62-2,9.2,3.29a8.8,8.8,0,0,0,.9,2.81,3.24,3.24,0,0,0,2.41,1.36,3.12,3.12,0,0,0,2-2.08,16.46,16.46,0,0,0-.08-4.91C111.56,803.27,113.66,801.4,117.72,801.35Zm-27.3-38.69A24.25,24.25,0,0,1,96.79,760c2.15-.66,4.66-2.21,6.58-0.25,2.22,2.26,1.37,4.91-.69,7-1,1-1.18,1.51-.65,3.13,3.26,9.87,3,10.33-6,13.22-1.52.49-3.15,1.23-4.73,0-0.26-1.95,1.35-2.87,2.36-4,5.84-6.69,5.87-6.67-2.34-10C89,768.22,88.3,764.07,90.42,762.65Zm12.57,34c-3.39,2.69-6.29,5.79-11.6,6.45-0.75-2.78-1.72-5-1.87-7.18-0.26-3.9.43-7.35,5.78-6.83a8.54,8.54,0,0,0,3.73-1c2-.81,4.65-1.29,5,0.83C104.44,791.22,106.3,794,103,796.65Z"/><circle class="cls-2" cx="100.77" cy="519.46" transform="translate(-408.91 377.28) rotate(-63.43)"/><path class="cls-2" d="M96.78,503.22a1,1,0,0,1-.77-0.51c-0.15-1.87,2.21-3.35,2.52-3.56a3.85,3.85,0,0,1,.32-1.95h0L67.39,511.67c6.7,3.89,12.92,4,20.13,2.44-4.3,9.32-8,17.4-15.55,22.93-3.17,2.33-2.47,5.3-1,8,1.68,3,4.29,1.8,7,1.15,3.16-.75,5-3.16,7.54-4.63,5.08-2.93,8-1.69,9.18,4.08,0.73,3.49.44,6.31-3.52,8.17a13.79,13.79,0,0,0-6.59,7.2c-4.38,8.58-3.85,9.71,6.3,13.48-0.19,2.18-2.26,3.08-3.19,4.71a7.75,7.75,0,0,0,.69,9.2c2.08,2.62,4.71,3,7.9,1.85,6.51-2.26,13.12-4.22,19.69-6.31,2.28-.73,4.33-1.8,4.76-4.44,0.48-3-1.88-4.31-3.93-5-4.06-1.28-6.16-4.7-9.07-7.23h0a7.89,7.89,0,0,1,.24-6.65c2.43-5.3,1.76-9.72-4.44-11.82-2.35-.79-2.62-2.47-2.87-4.55-1-8.22,3.59-13.56,11.9-12.07,4.32,0.77,7.72,2.8,11.13-1.71,0.69-.92,4.49,2.69,5.26-1.27,0.49-2.54-2-3.93-3.6-5.48a15,15,0,0,0-10.75-4.15c-4.52,0-9-.09-13.56-0.15l6.45,7.23a22.16,22.16,0,0,1-16.4,4.21l2.06-5.52c-1.46-.31-3.46.53-4.29-1-1.17-2.16,1.59-3,2.14-4.72,0.59-3,7.84-2.28,4.21-7.72-0.38-.57,1-1.35,2.12-1.23,5.84,0.63,4.78-4,5.57-7.29q0-1.93,0-3.86h0c-1.38-2-2.42,0-3.61.32m-10.75,69c-2.81-.3-3.83-1.93-3.43-4.62h0l-0.07-.4a3,3,0,0,0,.52.12c2.83-1.88,4.6-5.35,8.76-5.75C96.51,564,92.21,566.29,88.59,568.91Zm14.23,0.38c3.74,2,5,5.32,2.07,8.16-1.92,1.87-5.73,4.75-8.47-.07Z"/><path class="cls-2" d="M154.57,1121.14c-1.16-1.62-2.75-2.75-5.68-3.6,0,1.55,0,2.54,0,3.53-0.44,9.34-1.08,10.16-9.65,12.31-1.61.4-3.22,0.83-4.84,1.14-8.6,1.66-11.53-.83-11.67-9.47-0.17-10.94,2.3-21.88-.11-32.83-0.46-2.07.76-3.68,2.46-5.06,3.81-3.1,1.55-4.94-1.58-6.47-4.41-2.16-7,.42-8.83,3.8-2.63,4.79-6.49,8.3-10.71,11.58-2.82,2.19-5.54,2.1-8.28-1-0.55,3.69.2,6.18,1.92,7.48,3.58,2.72,7.23-1.35,10.72-1.39,1.19,3.28-.23,5.24-1.11,7.35q-4.82,11.44-9.56,22.92c-1.61,3.91-2,7.79.51,11.73,2.71-8.41,7.28-15.66,10.71-23.44s6.52-15.44,9.76-23.17c1.5,3.23,1.24,5.8,1,8.37-0.53,6.93-3.12,13.6-2.62,20.64,0.78,11.07,4.7,14.81,15.64,14.63,5.3-.09,10.63.07,15.85-1.41C159.57,1135.68,161.37,1130.61,154.57,1121.14Z"/><path class="cls-2" d="M116.13,1073.76c2.41-.39,3.49-1.64,3.36-3.93-0.16-2.83-1.86-4.36-4.57-3.65-3.42.91-6.92,1.88-10.36,4.77C108.3,1074,112,1074.42,116.13,1073.76Z"/><path class="cls-2" d="M85.39,1074.51a7.85,7.85,0,0,0-10.19-.44c-5.3,4.23-11.75,5.56-18.51,8.5,7.16,2,13.62,1,19.77,1.22,1.59,6.7-1.28,10.45-6.75,13-2.12,1-4.7,1.71-5.86,4.18-6.28-2.52-4-10.36-8.55-14.44-0.81,9.72-1.42,19-.92,28.29s2.77,18.24.85,27.62c-0.79,3.85,2.33,4.52,5.93,3.31,12-4,16.82-13.54,19.76-24.66,8.7-2,8.85-2,7.32-10.15a48.81,48.81,0,0,1,2-25.44C92.06,1080.3,88.39,1077.33,85.39,1074.51Zm-21.61,26.76-0.06,0,0.29-.14-0.23.16c3.1,1.48,6.43.78,9.66,0.93,2.24,0.1,2.75,1.46,2.82,3.23,0.18,4.06-3.83,7-9.93,7.59-4.82.49-4.05-3.41-4.74-5.94A4.9,4.9,0,0,1,63.78,1101.26Zm17,19.92s0-.08,0-0.12c-7.27,5.35-10.84,14.47-19.76,19.94-0.56-9.07,2.69-16.76,1.84-24.36,3.63-3,7.9,2.7,10.95-1.6,2.34,2,7.53.76,7,6l0.23-.18Z"/><path class="cls-2" d="M70.47,1281.82c-2.24.46-4.71,1.91-3.29,4.81a18.27,18.27,0,0,1,1.6,9.67c-1.35,18.21,1.42,36.52-1.28,54.69-0.28,1.91,0,3.22,1.88,3.89,2.37,0.85,4-.56,4.88-2.3,1.25-2.42.71-5.21,0.57-7.86-0.95-18.19-2.57-36.36-.64-55,0.45,1.12.84,2.28,1.38,3.35,1.16,2.3,2.87,3.93,5.53,2.42,2.37-1.35,1.08-3.46.48-5.27C80.7,1287.54,72.88,1281.33,70.47,1281.82Z"/><path class="cls-2" d="M51.76,1299.88c-3.08-5-4.66-.76-4.65.92,0,6-1.13,11.67-2.2,17.46-0.69,3.73,1.49,4.46,4.81,3.69,2.74-.64,3.84-2.52,4.18-4.9a45.19,45.19,0,0,1,7-17.95C56.85,1297.91,54.61,1304.47,51.76,1299.88Z"/><path class="cls-2" d="M130.77,1323c-0.43-3.68-.6-7.22-3.5-10-3.27-3.13-6.83.65-9.9-.17-3.6-9.89,6.48-13.11,9.74-19.7-3.92-1.27-6.2,1.6-9.69,1.48,1.61-2.51,3-4.6,4.32-6.73,1.67-2.69.82-4.42-2.2-5-2-.35-4.18-0.21-4.14-3.06s2.17-3.86,4.54-4.4c1.28-.29,2.7-0.16,3.9-0.62,1.42-.55,3.38-1.16,2.53-3.38-0.65-1.69-2.15-2.27-4-2.45-2.93-.3-5,3.64-8.48,1.58-0.22-1.18-.43-2.47-0.69-3.75-0.47-2.27-.74-4.82-3.79-5a4.68,4.68,0,0,0-4.16,2.33c-1.71,2.68,1.47,2.92,2.38,4.34,2.86,4.47,2.36,6.69-2.27,9.78-3.62,2.41-7.42,4.54-11.54,7,8.54,2.84,8.54,2.84,16.13-2.78,1.39,1.38.89,3.06,0.75,4.68-7,4.52-6.4,11.37-5.52,18.29h0l-1,1.78c-4.24.75-6.15,5.94-10.94,5.72a2,2,0,0,0-2.35,2.29,4.49,4.49,0,0,0,2.26,4.07c1.48,0.75,2-1,3-1.6,4.14-2.72,6.35-8.55,12.57-7.94-0.54,3.4,9.57,6.8,0,10.31-1,.37-0.49,1.64.75,1.77,1.85,0.19,3.24.54,2.58,3-1.74,6.47-.75,13.36-2.31,19.69-1.15,4.66.2,6.43,3.72,8.51,3-3.65-.22-7.73.63-11.05,4.34-.65,7.9-1.32,11.5-1.67,2.58-.25,5,0.36,3.77,3.81-0.85,2.43-.28,4.19,2.12,4.3,2.14,0.1,2-2.18,2.08-3.79C134.09,1337.27,131.62,1330.26,130.77,1323ZM109,1301.91c-3.63-5-2.91-7,3.45-10A14,14,0,0,1,109,1301.91Zm18.62,32.72a1.75,1.75,0,0,1-1.64-.35c-1.46-1.64.4-2.77,0.75-4.16a14.85,14.85,0,0,0,.26-2.61l-0.15-.08s0-.09,0-0.13c-2.14.14-4-1.41-6.49-.43s-4.13,1.21-2,4.32c1.29,1.86-.92,3.25-2.36,3.39-1.92.19-3-1.37-2-3.25,1.39-2.6.08-5.23,0.48-7.81,0.59-3.8,4.74-8.37,7.66-7.82,3.55,0.66,4.28,3.78,4.65,6.81a38.26,38.26,0,0,1,0,4.79H127l-0.12.1,0.11-.09c0,0.07,0,.14,0,0.21,1.27,0.58,1.25,1.84,1.54,3C129,1332.07,129.26,1333.61,127.65,1334.63Z"/><path class="cls-2" d="M126.87,1327.44l0.05,0Z"/><path class="cls-2" d="M68.87,1224.73q-2.35-21.7-4.54-43.41c-0.33-3.3-.6-6.61-3.08-9.07a2.92,2.92,0,0,0-3.67-.21c-1.35.91-1.23,2.24-.22,3.37,5.9,6.62,5.59,14.23,3.62,22.12,2.3,1.69,2.84,4.45,3,6.83,0.88,15.23,2.05,30.52.15,45.72-0.5,4,0,6.09,3.79,7.86a23.57,23.57,0,0,0,3.22-15.48C70.36,1236.54,69.51,1230.65,68.87,1224.73Z"/><path class="cls-2" d="M129.11,1196.78c2.56,4.92,7.93,3.78,10.54,6.39-0.68,2.79-4.13,1.33-3.92,4.66,6.87-1.92,13.9.75,22.39-1.46C149.55,1196.59,139.17,1198.45,129.11,1196.78Z"/><path class="cls-2" d="M54.39,1196.5a5,5,0,0,0-5.33-3.68,72.29,72.29,0,0,0-.29,15.72c0.13,1.37.58,2.61,2,3.06s2.54-.38,3.27-1.52c2.55-4,6.82-7.13,6.7-12.54C58.62,1197.62,56,1202,54.39,1196.5Z"/><path class="cls-2" d="M60.76,1197.53H61v0c-0.07-.05-0.14-0.12-0.21-0.17S60.76,1197.47,60.76,1197.53Z"/><path class="cls-2" d="M79.75,1185.09c1-.95.12-1.78-0.15-2.61-0.74-2.35-1.61-4.12-4.87-3.1-2.05.64-4.47,0.12-8.58,0.12,3.88,2.67,5.92,4.3,8.17,5.55C76,1186,77.92,1186.81,79.75,1185.09Z"/><path class="cls-2" d="M121.21,1237.66c-3,1.28-5.91,3.07-9.29,2.92a4.14,4.14,0,0,1-4.24-4.52c0-1.3.89-3.35,2-2.89,8.6,3.66,9.66-6.44,15.25-8.17,0.66-.2,1-1.55,1.43-2.38-2.54-1.88-6,.51-8.19-2.32,1.22-2.74,3.25-4.83,5.26-7,3-3.27,1.37-7.13-3-7.57a8.62,8.62,0,0,0-4.75.84c-4.37,2.41-12.53,7.28-13.23,7.7,0.93-2.05-1.61-3.14-1.31-5.23,1.86-13.26,8.59-20.36,22.15-23,2.57-.51,5.18-0.9,7.68-1.64,0.65-.19,1.23-1.46,1.37-2.31,0.19-1.13-.85-1.72-1.79-2.07-3.46-1.26-6.95.66-10.86,0.3,1.85-4.31,7.26-4.1,8.63-7.81-0.62-2.9-3.93-2.72-4.94-5.33a14.73,14.73,0,0,0,2.14-2.92c0.94-2.22,4.7-3.71,2.35-6.78-2-2.62-5.25-2.72-8.24-2.36-4.57.55,0.19,3.35-1.09,5.16-2.88,4.07-4.75,8.89-9.49,11.93,3.13-7.39-.52-14.69,1.52-21.71-3.72-1.2-6.44-1.15-9.69.79,3.56,5,6.1,10.22,3,15.75-1.91,3.39-9.69,4.18-14.46,2.19,6.11,11.06,7.5,11.43,14.62,3.75,2,6.55-4.9,6.57-7.67,9.8,7.26,1.31,7.06,1.25,5.47,6.82-1.07,3.77-2.94,6.42-6.58,8-4.71,2.09-9.27,4.49-14.07,6.83,6.66,5,10.57-3.76,16.74-3.64-4.92,12.46-10.42,23.67-21.36,31.18a2.2,2.2,0,0,0-1.24,2.43c0.42,1.67,1.85,1.76,3.11,1.63,3.1-.34,5.56-2.12,7.87-4A39.61,39.61,0,0,0,97.61,1217c0.74-1.7,1.23-5.24,4.73-2.7h0c0.27,0.36,4.34,5.88,2.91,10.37-1.26,3.93-1,8.57-.51,12.78,0.62,5.23,4.57,8.62,8.62,7.45,6.48-1.88,12.91-3.86,21.59-3.9C129.76,1235,125.43,1235.88,121.21,1237.66Zm-11.94-20.8c0.05-2.57,1.94-2.1,3.43-1.84,1.95,0.34,2.81,1.44,1.55,3.35s-2.5,3.65-5,7.27C109.27,1221.32,109.23,1219.09,109.27,1216.86Z"/><path class="cls-2" d="M130.58,892.88c-4.31-1.24-6.53-3.2-7.39-7.45-1-4.88-3.4-7.83-8.57-7.85a3.93,3.93,0,0,0-2.49,1.34c-0.81.89-.17,1.52,0.77,2.09,4.49,2.73,3.35,6.42,1.82,10.33-4.64,11.86-3.68,17.72,6.23,25.83,4.62,3.78,3.81,6.67,2,11-1.46,3.59-5.28,6.12-5.38,11.66,4.34-4.85,8.85-7.83,11.65-12.42,3.67-6,3.13-8.22-2.76-12-2.47-1.6-5.36-2.68-7.33-6.21,1.84-2.27,3.43-4.33,5.13-6.3,1.83-2.13,4.49-2.68,7-3.51,2-.64,2.16-2.27,1.91-4C133,893.86,132,893.28,130.58,892.88Z"/><path class="cls-2" d="M131.07,867.72c-4.63-3.37-9.83-3.6-15.19-2.48a98.26,98.26,0,0,0-25.26,8.64c-6.91,3.57-14,6.73-21.7,8.4,7.87,5,7.87,5,16,1.17,8,1.46,4.48,8.23,5.65,12.71A8.5,8.5,0,0,1,84.08,907c-6.81,1.55-6.49,4-2.6,8.08,1.86,1.95.91,4.48,2,6.49,1.87,3.42,4.05,3.25,7.59,1.12,5.8-3.5,10-6.85,4.55-13.93-0.83-1.08-.25-3.24-0.35-4.89-0.44-6.88.43-14-3.94-20.16C90,881.88,92.53,881,93,879.52h0A7.06,7.06,0,0,0,95,879.2c9.71-4.66,19.52-8.3,30.44-4a8.68,8.68,0,0,0,3.94.12c1.7-.19,3.41-0.94,4-2.57C134.05,870.6,132.74,868.94,131.07,867.72ZM85.16,916.11c0.54-3.7,1.37-6,4.57-8.86C89.62,911.34,89.91,914.12,85.16,916.11Z"/><path class="cls-2" d="M58.47,905.81c3.64,9.93,7,18.77,10.09,27.71,1.51,4.4,3.82,3.16,6.76,1.82,4-1.81,2.43-5.12,2.1-7.72C74.82,907.22,74.64,908.54,58.47,905.81Z"/><path class="cls-2" d="M82.38,389.26c3.07-12.07.42-17.09-10.67-21.37-0.44-.17-1.1.24-1.95,0.45,2.41,8.88.19,17.65,0.57,27.45-3.44-4.75-4-9.8-9.12-12.6,0.11,6.73-2,13,1.89,18.67,4.89,7.14,5,7.16.25,13.21A37.75,37.75,0,0,1,58,420.91c-2,1.71-1.78,3.42-.61,5.19,1.66,2.51,3.67,5.16,7,4.77,3.14-.37,1.87-3.8,2.86-5.73s1.78-3.81,3-6.54c3.27,9.17,1.29,17.94,2.7,26.34,0.36,2.18-1.39,2.5-3.21,2.68s-3.08-2.74-5.25-.83a28.51,28.51,0,0,0,7.15,9.46c1.68,1.45,4,2.35,4.84-.25,2.43-7.2,9.39-13,6.36-22-0.91-2.69-.16-5.93-0.17-8.92h0l0.21,0.24v-0.05h0A68.89,68.89,0,0,1,82.38,389.26Z"/><path class="cls-2" d="M108.26,431.78c-2.89-1.51-6-2.68-9.8-4.39,2.32,6.35,6.4,10.42,10.65,14.56C113.85,435.71,113.78,434.67,108.26,431.78Z"/><path class="cls-2" d="M146.88,401.08a16.31,16.31,0,0,0-14.38-1.21,18.67,18.67,0,0,1-9.57,1.3c3-7.4,9.22-12.06,11.27-19.3,2.73-9.63.51-12.9-10.38-13.84,1.58,2,4.55,3.32,4.13,6.13-0.87,5.74-4.43,10.21-7.63,14.86-2.91,4.23-6-.21-8.9.57-1.9.5-3.88,0.7-5.82,1,6.1-5.75,9-13.74,14.19-20.15,1.15-1.43,1.9-2.86.76-4.42-2.33-3.18-5.71-4.84-9.46-3.81-3.1.85-7.39,2.34-2.25,6.61,0.37,0.31-.06,1.93-0.47,2.77-5.74,11.57-12.37,22.44-23.9,29.3,6,0,6-.07,12.61-3.64,1-.56,2.22-3.07,3.33,0-1,5.51-.92,11.35-4.92,15.93h0c6.49-3,12-8.73,21.44-7.11-6.76,5.35-14.34,7-20,11.86-6.55,5.82-8.43,6.61-10.92,2.77a3.1,3.1,0,0,1-1.09-1.87h0c-3.63,1.22-2.46,3.95-2.05,6.44,1.56,1.5,3.11,3.49,5.54,1.81,3.67-2.54,8.39-3.48,11.16-7.36,7.11-1.48,13-6.57,20.59-6.9,3.12,8.44,3.57,17.35,2.67,26.31-0.66,6.58-2,7.52-8.79,8.54-1.32.2-3.17-.93-4.06,1.1,11.49,9,19.72,6.22,22.43-7.7a20.15,20.15,0,0,0-.61-10.82c-1.35-3.74-2.13-7.68-3.21-11.51-2.63-9.28-2.64-9.54,6.61-9.4,4.55,0.06,8.48-.79,11.95-3.68C149.15,404,149.19,402.4,146.88,401.08Z"/></g></svg>