<svg id="图层_1" data-name="图层 1" xmlns="http://www.w3.org/2000/svg" viewBox="0 0 200 1305.14"><defs><style>.cls-1{opacity:0.05;}.cls-2{fill:#fff;}</style></defs><title>主站</title><g class="cls-1"><path class="cls-2" d="M155.25,842.68a30.63,30.63,0,0,0-5.91-.59,80.55,80.55,0,0,1-36.6-11.39c-7-4.21-14.69-6.09-23.17-2,4.59,2.51,9.87,2.72,14.52,4.95,10,4.78,18.32,11.85,27.14,18.28,2.94,2.14,5.84,5.28,9.66,4.39,4.43-1,8.57.36,12.82,0.13s9,0.52,11.46-3.85C166.35,850.4,159.71,843.91,155.25,842.68Z"/><path class="cls-2" d="M106.27,804.1a5,5,0,0,0-.37-2.79c-1-1.9-11.36-4.71-14-3.32-4.71,2.52,2.4,2.66,1.18,4.66-0.67,1.11-1.29,2.26-2.06,3.3-9.73,13-18.85,26.5-29.87,38.5,18.54-8.23,30.68-23.64,44-37.61A5,5,0,0,0,106.27,804.1Z"/><path class="cls-2" d="M142,364.26c-1.45-10.42-3.14-20.8-4.69-30.92-2.45,8.09-3.7,16.92-7.55,25.06-3.63-1.87-5.6-4.74-7.2-7.5-7.7-13.23-13.63-27.31-19.18-41.56-1.08-2.77-.53-4.39,1.67-5.87,1.92-1.29,3.93-2.47,5.76-3.88,1.53-1.19,3.3-2.47,2.16-4.89-0.86-1.82-1.75-3.53-4.19-3.69s-4.64-1-6.82.28c-3.52,2-4.63,0-5.44-2.95a59.12,59.12,0,0,1-2-16.74c0.1-11.15-3-14.09-14.53-14.48,4.18,5.75,4.54,6.59,5.64,13.11,1.3,7.7,1.3,7.7-7.07,10.39-1.43-15.53-1.5-15.81-5-17.8,0,5.36-.27,10.3.08,15.2s-2.08,7.09-5.86,9.34c-4.7,2.8-9.95,2.76-15.89,3.81,5.78,5,11.56,6.34,18.39,4.79,0.75,7.51-4,11.71-8.91,17.18,8-1.6,13.47-3.69,13.59-11.76,0.09-5.58,2.86-9.26,8-11.3,2.28-.9,3.77-3.37,6.43-3.53,0.43,1.51.77,2.8,1.16,4.07,2.65,8.51,2.64,8.49-4.46,13.83C74,313.57,60,319,46,324.07c-2.06.74-4.61,1.7-6.06-1.27a8.38,8.38,0,0,1-.43-1.93c-0.32.79-.66,1.57-0.93,2.38a2.14,2.14,0,0,0-.07,1c1,6.55,6.54,10.59,13,8.73,6.11-1.77,12-4.44,18.55-6.95-2.14,5.4-5.76,8.44-8.43,12.17-2.78,3.9-1.2,6.2,3.88,10.42,4.35,3.62,6.14.27,7.83-2.25,3.85-5.74,7.21-11.81,10.78-17.74,1.42-.4,1.63-3,4.28-1.95-2.45,6.72-3.4,13.94-9.58,18.94a7.48,7.48,0,0,0-2.06,8.14c0.56,1.82.84,4.17,3,4.84,2.46,0.76,3.7-1.47,4.54-3,5.11-9.42,7.74-19.71,9.61-30.17,0.59-3.33-1.74-4.79-5-4.42a5.09,5.09,0,0,0-5,5.17h0a37.27,37.27,0,0,1-3.22,2.11c-0.79.42-1.39,2.54-2.71,0.59,4.66-8.23,10.88-14.51,19.69-18.16,8.38,15.54,13.46,31.77,21.17,46.86,3.71,7.26,8.65,11.39,16.32,13C141.58,372,142.93,371,142,364.26Z"/><path class="cls-2" d="M114.71,276.84c-3.28,3.49-1.4,4,1.74,4.56a28,28,0,0,1,5.71,1.32c4.83,2,6.73-1.3,7.84-4.66s-2.3-4.27-4.62-5c-4-1.24-8.16-2-13-3.19C112,273.65,116.59,274.84,114.71,276.84Z"/><path class="cls-2" d="M90.93,1153.28c4.78,0,8.72.17,12.63-.05,3.13-.17,6.23-1.41,6.12-5a6.1,6.1,0,0,0-5.32-6.21c-1.29-.21-2.54-1-3.81-1-4.53,0-8.91-.48-12.89-4.69C88.17,1143.08,97.27,1146,90.93,1153.28Z"/><path class="cls-2" d="M80.06,1186.9c0.3,0.15.59,0.29,0.89,0.4A5.47,5.47,0,0,0,80.06,1186.9Z"/><path class="cls-2" d="M138.18,1166.55c-0.09-4.48-4.43-5.32-7.79-6.6-3.51-1.34-7.23-1.88-10.53.32-9.07,6-19.58,8-29.83,10.54-3.65.91-7.35,3.39-11.87,1.32-0.87-2.75,1.6-6.07-.52-9-8.66,9.56-8,15.55,2.43,23.76,3.36,0.4,5.27-1.91,7.69-3.67,7.07-5.13,13.91-10.79,23.65-14.1-5.84,7.88-12.94,12.15-19.83,16.38-4.66,2.86-6.38,6.25-5.78,11.32a9.72,9.72,0,0,0,7.12,4.61c14.41,2.78,28.22.11,42.06-3.34-2.4-9.46-2.6-9.64-11-9.84a72.29,72.29,0,0,0-14.85,1.37c-3.81.7-7.76,0.63-11.65,0.9,10.48-7.83,21.13-13.85,32.84-17.77C133.71,1171.64,138.27,1171.32,138.18,1166.55Z"/><path class="cls-2" d="M77.6,536.54l0.4-3.62-0.27.28,4.55-2.43c-1.46,8.64.86,16.65-2,24.51-0.12-4.23-.26-8.47-0.35-12.7C79.89,540.27,79.88,538,77.6,536.54Z"/><path class="cls-2" d="M94,113.68c3.53,0.21,4.7-1.8,3.21-4.88a8.73,8.73,0,0,0-5-4.54c-6-2.24-12.14-4-19.59-2.93,4.25,3.52,7.81,6.3,11.18,9.31C86.77,113.27,90.4,113.47,94,113.68Z"/><path class="cls-2" d="M143.75,187.73c-0.07-6.32-.42-12.63-0.68-18.94-0.22-5.23-2.64-9.09-7.86-10.18-3.08-.64-4.95-1.51-4.73-5a3.63,3.63,0,0,0-2.65-3.76c-2.91-1.13-4.24-2.36-2.32-5.86,2.25-4.1,1.67-8.4-2-11.8-3.44-3.16-7.55-2.25-11.34-1.31-3.18.79-6.13,2.52-9.14,3.92-2,.93-3.08,0-3.88-1.68-1.05-2.23.7-3.13,2.13-3.66,7.41-2.76,14.89-5.34,22.28-8,0.22-3.43-1.24-5.64-4.11-6.27-3.76-.83-7-4.14-11.37-2.23-16.55,7.32-33.26,14.25-51.73,20.89,3.71,0.57,5.71.75,7.65,1.2,11.53,2.69,9.65,6.7,6,13.76-0.41.78-1.27,1.33-.5,2,5.35,4.82.77,10.36,2,14.9-3.3,2.76-2-3.81-5.71-1.36-1.84,1.23-.7-3-2.11-4.48-2.12-2.24-4.12-4.22-7.66-4.56a50.09,50.09,0,0,1-5.11,28.71c-4.35,8.58-2.13,14.25,7.26,18.6,4.82-5.45,5.14-13.47,10.58-18.88,1.12,13.36-1.4,14.66-10.29,21.35-1.85,1.89-3.58,3.92-5.56,5.65-5.62,4.9-6,5.79-3.1,12.43a41,41,0,0,0,5.12,8.48c3.82,4.93,8.38,5,12.42,0,3.56-4.41,6.21-9.33,6.72-15.25,0.63-7.27,1.71-14.49,2.48-21.74,0.35-3.3,1.59-5.75,4.92-7.14,0.66,2.63-.64,4.4-0.85,6.32-0.63,5.92-2.92,12.75.67,17.54,3.46,4.61,4.42,9.2,5.16,14.35a10.55,10.55,0,0,0,1.36,3.71c1.16,2,2.32,4.46,5.12,3.93a5.48,5.48,0,0,0,4.64-4.7c0.29-4.28,2.92-8.25,1.7-12.64-0.94-3.36.41-4,3.49-3.82,4.6,0.28,5.46,1.59,4.82,6.13s-5.92,5.92-6.81,9.66c2.14,3.15,4.68,2.19,6.89,2.44,7.49,0.84,15.23.3,21.26,6.63,2.8,2.94,6.84,7.3,11,5s4.09-8,4.1-12.58Q144,208.68,143.75,187.73Zm-83-5.81c-1.45-4.16.09-7.65,2.16-11.15C66.85,176.72,66.85,176.72,60.75,181.93Zm2.08,33.81C59.24,224,58,224.14,50.36,217c4.34-3.87,10-5.76,15-9.45A73,73,0,0,1,62.83,215.73Zm27.83-87.52c2.2-.51,4.21-2,7.17-0.75-2.63,3.56-6.3,2.77-9.36,3.7-1.79.54-4.13,1-4,3.5,0.11,2,2.22,2,3.71,2.59a20.16,20.16,0,0,1,3,2c-3.8,3.84-8.33,4.86-12.45,6.33-0.88-1.08-1.58-1.54-1.58-2C77.14,131.28,77.16,131.33,90.66,128.21ZM79.29,184.84l-2-.94,0.73-10.37,8,1.26C84.87,179.38,80.93,181.27,79.29,184.84Zm0.5-13.92c3-6.44,9.49-9.91,10.31-16.58-3.52,3.47-6.91,7.11-11.6,9.18-1.49-9.06-1.49-9.06,9.22-11,4.35-3.72,10.31-3.15,15.16-6.36C102,156.67,92.21,167.3,79.79,170.92Zm14.15,6.19c-2.92,3.77-3.66,8.27-3.77,12.79-0.08,3.42-1.31,6.28-2.64,10-1.45-6.86,0-19.41,2.18-23.83,1-1.9,2.65-1.48,4.14-1.84,4.07-3.67,9.76-4.88,13.34-9.23,2,2.46.49,3.66-1.05,5.06-2.9,2.63-5.6,5.47-8.49,8.1C96,179.67,94.76,178.89,93.94,177.11Zm6.19,28c-2.6.23-3.68-1.63-3.74-7.22,0.09-1.53.36-3.73,3.07-4.54,1.11,4.74,7.62.34,8.53,4.89C108.69,201.74,105.06,204.66,100.13,205.09Zm-0.21-16.51c0.89-5.39,4.38-6,8.52-8.27C107.55,186.72,103.8,186.65,99.92,188.58ZM125.24,170c3.63-2.32,6-1.16,6.47,3.25A85.37,85.37,0,0,1,132,191.9l-9.75-1.15c0,0.07,0,.14,0,0.21h0l-0.23,0a2.42,2.42,0,0,1,.06.77c-0.32,1.81,3.82,3.9-.17,5.36-1.38.5-3.47,0.29-3.84-1.82-0.53-3.09.48-5,4-4.31,0-.07,0-0.13,0-0.2l0.26,0c0-1-.25-2.09.2-2.73,3.43-4.86,1.33-7.14-3.86-7.77C120.25,176.07,121.68,172.31,125.24,170Zm-4.51-19.42c2.9-.09,3.77,2,3.52,4.51-0.46,1.57-.2,3.95-2.42,3.62a5.21,5.21,0,0,1-4.15-4.85A3.22,3.22,0,0,1,120.73,150.61Zm11.63,60.84c-0.28,13,2.77,13.92-14.57,13.67,0-3.64.12-6.58,0-9.51-0.19-3.61.43-6.57,4.52-7.58,3.9-1,5-3.83,4.21-7.67,4.2,1.23,6.39,3.14,5.9,7.15C132.24,208.8,132.4,210.13,132.37,211.45Z"/><path class="cls-2" d="M159.43,590c-2.73-2-5.81-3.6-8.84-5.44-1.12,2.92.77,4.4,1.17,6.25,1.35,6.16-1.48,9.34-10.34,11.73-9.23,2.49-17.09.89-18.54-4-0.35-1.19-1.83-4.22,2.12-3.64,5.77,0.85,5.52-3.39,5.55-7.05,0.1-12,.15-23.94.08-35.91-0.06-10.66-1.13-11.54-12.4-11l-8.65,7.53c1.62-5.44,2.66-8.48,6.3-9.9,2.71-3.9,7.76-5,10.52-8.94,2-2.8,2-4.69-1.19-6.38-1.27-.68-3.14-0.2-4-2,2.57-3.48,6.74-4.18,10.16-6.07,5.94-3.29,7.4-5.71,5.37-9.73s-4.19-3.75-10.94-.23c-3.16,1.65-5.2,6-10.28,5,2.38-3.91,4.54-7.25,6.48-10.72,5.11-9.12,4-10.91-6.82-11.09a14.79,14.79,0,0,0-3.69.9,18.08,18.08,0,0,1-2,16.13c-3.19,5.06-4.92,10-1.28,15.69,1,1.57,0,3.14-1.55,4.17-2.93,5.8-5.91,11.56-12.54,15.44,0.54-4.62,3.36-7.56,5.44-10.61a12.33,12.33,0,0,0,2.37-9.23c-5.88-4.44-5.89-4.45-2.49-10.33a36.41,36.41,0,0,1,2.6-4.24c2-2.62,1.41-5.16-.6-7.13s-4.51-1.36-6.39.25c-5.16,4.4-11.64,5.08-17.72,6.32-0.26,2.59,3,4.4.88,6.6-0.72.75-2.56,0.71-3.84,0.58-3.73-.38-1.86-3.61-2.43-5.49-1.24-4.1-3.89-5.25-7.58-4.08C61,504.4,61,507,62.16,509.82c0.6,1.46-.25,3.49,1.55,4.43,3.58,1.88,1.89,3.67-.18,5.11a96,96,0,0,1-18.22,10c7,7.44,13.73,2.16,20.21-.33,3.17,9.59-1,15.64-7.7,21.1-5.2,4.22-10.78,8.19-15,13.38,10.18,3.82,16.65-2.1,23.74-8.83-0.39,5-.73,8.66-0.93,12.29-0.14,2.63.38,5.46-1.75,7.54s-4.83-1.46-7.34.79c3.53,5.71,6.79,11.5,5.8,18.55a2.67,2.67,0,0,0,.42,1.91c1,1.2,2,3,3.95,2.16a5,5,0,0,0,2.68-2.66c0.62-2.16-.41-4.35,0-6.79C71.57,576.22,74.19,564,73,551.28c-0.46-4.86.23-10.73,4.61-14.74A1.92,1.92,0,0,0,79,534.25c4.29,6.58,1.85,13.91,1.33,21,1.92,4.16,1.85,10.38,9.88,8.91-2-7.38,2.47-11.56,7.84-15.26a16.18,16.18,0,0,0,2.12-2.11c1-4.55,4.57-7.33,7.27-10.8,0.11,5.16-2.14,9.23-5,13-0.57,2.24-1.48,4.45-1.66,6.73-0.63,8.16-3.89,16.21-1.13,24.54,2.52,7.61,2.45,7.58-4.69,10.26-1.17.44-3.25-.6-3.51,1.69,6.66,2.66,12-1.72,19.29-4.33-7.71,14-19.72,23-24.5,36.87,13.92-7.84,19.94-22.91,30.91-33.49,2.13,2.1.93,4.53,1.39,6.63,2.1,9.55,6.89,12.88,16.34,12.84a37.51,37.51,0,0,0,24.69-9.29C163.62,597.9,163.73,593.25,159.43,590Zm-67.22-58.4L91.1,533.7c-1.18-.73-1.32-1.87-1.32-3.13s0.68-1.81,1.58-1.64C92.47,529.14,92.4,530.27,92.22,531.64ZM90.53,516.7l0.1,0.3-0.27.09c-0.37,3-5.19,4.1-3.45,8.23,0.75,1.79-1.25,1.88-2.45,1.61-5.23-1.16-5.52,2.86-6.64,6l0.19-.06-0.27.28,0.08-.22c-3.25,1-5.72,1.38-5.48-3.76,0.29-6,4-11.64,8.74-10,3.93,1.32,6-.75,8.57-1.83q0.22-.27.43-0.56c-0.12.18-.22,0.36-0.35,0.53h0l0.63-.23c0-.08,0-0.16,0-0.24h0l0.15-.13c-1.07-3.26-1.94-6.56.76-9.48,0.35-.37,2.47,0,2.61.48C95.17,511.54,93.21,514.29,90.53,516.7Zm26.91,31.24c1.51-.89,3.19-1.52,4.16.45s1.92,5.56-.82,5.79c-4.57.38-7.3,4.17-13.84,5.4C111.32,554.55,113.32,550.35,117.44,547.93ZM106.57,567.1c-0.83-3.22.52-3.8,4.33-3.74s7.48-4.9,14.1-2.44c-4.95,3.29-8.27,5.94-12,7.79C110.94,569.74,107.48,570.63,106.57,567.1ZM109,583.58c-0.6-3.37-1-4.92-1.14-6.49a6.84,6.84,0,0,1,1-5.29c4.32,2,8.81.72,13.46-.86C120,577,114.58,579,109,583.58Z"/><path class="cls-2" d="M71.7,963a13.69,13.69,0,0,0-7.47,4.42c-4.51,5.33-1.56,14.33,5.21,15.65,3.25,0.63,6.54,1.19,6.25-4.4-0.19-3.62,1.33-7.33,2.15-11.38C71.29,969.59,71.29,969.59,71.7,963Z"/><path class="cls-2" d="M132.15,967.22c-6.17-5.13-13.58-6.12-21.86-6.16,9.62,5.57,9.62,5.57,6.34,15.67,5.49-4,9.74-.58,14-2.6S135.72,970.18,132.15,967.22Z"/><path class="cls-2" d="M143,936.38c-2.59-.33-5.27-0.35-7.77,1.09-2,1.13-4.24,1.34-7.2.59,0.77-14.06.61-28.21,7.74-41.13a5.35,5.35,0,0,0-1.44-7.17c-3.88-3.25-8.09-4.16-12.57-1,7.16,3.37,7.47,4.4,5,12.55-0.68,2.28-1.08,3.67-3.79,2.33-2.18-1.08-4.3,1.84-6.84.2-1.84-3.34,1.4-7.86-2-11a19.22,19.22,0,0,0-2.66-1.32c-5.07-1.63-10.05-.16-14.45,1.8-3.28,1.46.31,5.45-.83,8.23-1.23,3-2.18,6.11-3.45,9.72L92,897c-2.51-3.88-6.38-2.49-9.88-2.54-3.6,4.65-4.27,10.59-7.26,17-1.63-7.1-5.58-11.26-10.78-15,1.82,18.11,5,36-1.34,54.28-3.46.45-7.56,0.55-11.76-2.26a54,54,0,0,0-1.54,5.47c-1,6.08,1.36,8.49,7,6.32,5.45-2.11,11.13-2.88,16.59-4.45,6-1.73,12-3.47,18.13-4.72,8.2-1.67,16.77-.77,24.79-3.94,3.08-1.22,6-.67,6.29,3.76,0.12,1.7,1.18,3.54,3,3.51a3.48,3.48,0,0,0,3.2-3.36c-0.17-5.94,4-6,8.06-6.33,2-.14,3.95.32,5.93,0.35,3.64,0.07,8.56.56,8.92-4C151.64,936.24,146.39,936.81,143,936.38Zm-61.32-5.68c-4,5.45-7.37,10.16-.52,17.12-6.28,1.23-8.9.12-8.21-5.08a335.51,335.51,0,0,1,9.17-44.64c1.73-1.32,2.73-.25,2.86.37C87.35,909.57,88.9,920.84,81.65,930.71Zm9.48,14.79c-3.56-3.57-1.3-8.44,1.73-13.55,0.88,5.87,8.23,5.95,8.21,12.38C98.07,945.69,93.7,948.07,91.13,945.5Zm15.29-39.85c-3.59,5.9-7,11.92-10.44,17.9l-1.41,0c1.06-6.15,2.2-12.28,3.15-18.44,0.38-2.46.9-4.45,3.79-5,2.2-.43,4.65-2,6.35.3C109.21,902.22,107.47,903.93,106.42,905.65Zm9.05,35.19a1.74,1.74,0,0,1-1.87,1.52c-1.68-.13-1.9-1.51-1.72-2.63a1.52,1.52,0,0,1,2.18-.92C114.87,939.2,115.72,939.67,115.47,940.84Zm5.91-3a12.79,12.79,0,0,1-7.47-4.14c2.39-3.88,6.52-2.62,9.58-5.22C124,932.66,123.36,935.39,121.39,937.87Zm2-17c-6.19-3.84-1.83-5.71.45-7.91A8.71,8.71,0,0,1,123.4,920.91Z"/><path class="cls-2" d="M114,454.85c-1.79-.62-5.07-0.06-5-2.18a41.63,41.63,0,0,1,2.34-11.5c0.72-2.31,3.25-1.83,5.21-1.86,4-.06,8,0,12-0.16,1.59-.07,3.43-0.27,3.73-2.43a5,5,0,0,0-1.3-4.61,11.28,11.28,0,0,0-7.17-3.09c-3-.1-5.93,0-9,0,1.37-9.61-3.52-14.34-11.83-11.89a9.69,9.69,0,0,0-3.61,1.63c-4.52,3.94-8.7,3-12.9-.49-0.76-.63-1.77-0.94-1.59-2.33,1.09-1.55,2.56-2.9,4.66-2.84,6.23,0.19,11.15-3.79,16.9-5.14,2.18-.51,4.48-1.35,4.17-4.6-0.24-2.45-.8-4.1-3.2-5.59-3.66-2.27-6.67-1.94-9.81.48-5,3.82-10.2,7.14-16.83,8.75a56.53,56.53,0,0,1,4.88-6.24c1.81-1.78,1.78-4.27,3.06-6.13,2.6-3.81-1.12-5.31-2.66-7.48-1.21-1.7-3.29-2.67-5.22-1.23-2.43,1.82-7,2.83-5.5,7,1.83,5.13-.94,8.26-3.51,11.65-1.8,2.37-4.09,4.38-5.89,6.76-2.27,3-2.11,6.08.14,9.19s4.62,1.15,7,.28c1.54-.57,3.06-1.46,4.65-1.6a4.33,4.33,0,0,1,4.57,3.09c2.06,5.92-2.89,14.82-9.12,16.47-3.21.85-6.48,1.47-9.7,2.26-9,2.2-17.91,4.43-28.74,7.12,10.44,4.76,18.63,8.81,28,2.84,1.79-1.14,4.37-3,7.07-1.41-0.85,4.36-4.95,6.35-6.57,10-0.87,2-1.1,3.71.13,5.62,1.57,2.44,3.2,1.37,5.08.49,2.77-1.3,5.31-1.81,8.33.33,4.66,3.31,9.36,1.56,12-2.77,3-5,6.66-4.07,10.95-3.34,0.08,4.36-1.67,7.44-4,10.32-3,3.61-6.17-.34-9-0.53-0.72,3,.26,4.78.87,6.67,1.8,5.59,3.44,6.09,8.19,2.33,4.31-3.41,6.58-8.1,8.53-13.15,2.42-6.29,4.13-6.65,10.16-2.89a25.84,25.84,0,0,1,5.61,4.13c4.37,4.81,8.71,4.47,13.44,1C129.71,458.75,121.48,457.41,114,454.85Zm-26.38-24.2c0.94-1.72,1.64-3.76,4.21-3.44,1.7,0.21,1.9,1.61,2,2.93,0.25,2.66-.66,4.52-3.57,5-1.33.2-2.62,0.33-3.64-.76C86.3,432.92,87,431.8,87.65,430.65Zm15.93,18.24c-0.27,2.09-1.27,3.7-3.7,3.85-2.14.14-2.86-.57-3.93-2.83-2.28-4.78-5.26-4.46-7.28.55-0.84,2.09-1.74,3.64-3.8,3.86-3.52.38-6.63,2.87-10.6,2.19,4.92-14.42,16.42-16.2,30-16.08C104,443.76,103.91,446.34,103.58,448.89Zm-0.42-16.37c-3,.32-3.22-2.2-3.52-3.81-0.64-3.44,2.8-2.89,4.51-3.37,2.31-.65,2.22,1.67,2.47,3.47C106.65,431,105.63,432.26,103.15,432.52Z"/><path class="cls-2" d="M133.91,1260.41c2.12-8.6-4.68-14.45-13.29-12.14-4.69,1.26-8.95,4.13-14.08,4.24-0.85-6.61-1.48-12.85-2.47-19-1.38-8.62-5.48-10.19-13.79-5.27,4.17,0.27,5.92,2.8,6.67,6.38,1.32,6.27.45,12.59,0.51,18.88a3.12,3.12,0,0,1-3,3.35c-6.69.72-13.32,4.7-19.62,0.22-2,1.62-.63,3.78-1.69,5.37-3.21-1.67-4-6.24-8.9-6.87,2.59,12.8,5.12,25.29,7.63,37.78a27.42,27.42,0,0,0,3.75,9.18c0.93,1.49,2.14,3.1,3.86,2.52,6-2,12.08.74,18.23-1.36,3.75-1.29,8.13-3.09,12.52-1.57,6.13,2.11,10.54-2.94,16-3.94,2.24-.41,2.48-3.54,1.1-5-4.17-4.54-1.52-8.85.39-12.78C130.79,1273.95,132.26,1267.14,133.91,1260.41Zm-50.58,39.93a23.25,23.25,0,0,1,11.72-8.27C95.09,1299.8,93.79,1300.7,83.34,1300.34Zm-0.64-2.44L82,1285.48l13.47-3.21C92.63,1288.64,88.05,1292,82.7,1297.9Zm12.66-26.71c-4.08,2.09-8.16,4.82-12.53,5.51-4.66.73-3.33-4.52-5.85-8.72,7,2,11.79.57,16.5-1.08a2,2,0,0,1,2.58.73C96.66,1268.83,96.55,1270.58,95.36,1271.19Zm19.52,16.39c-1.73,6.69-8,4.2-12,6.53,0.68-6.11,1.43-11.57,6.09-15.61,1.57-1.36,3.22-3.46,3.24-5.92,0-3.13-3-2.85-4.74-4.09-2.85-2-2.21-5.48,1.35-6.83s7.52-2,12-3.08C120.24,1268.94,117.31,1278.19,114.88,1287.58Z"/><path class="cls-2" d="M128.23,675.7c-4.37-2.6-8.4-.37-12.48.73-7.09,1.92-13.42,6.34-23,7.34,5.14-4.77,7.57-9.41,8.49-14,1.31-6.57,5.45-9.28,10.71-11.61,1.42-.63,3.32-0.71,3.9-2.64-1.52-2.92-4.36-3.14-6.89-2.58-4.21.93-5.06-1-5.42-4.57-0.18-1.79-2-3.34-1.65-5.45q-0.78-1.57-1.45.05a22.75,22.75,0,0,0-.08,4c1,6.82-2.14,10.65-8.49,12.41a39.4,39.4,0,0,0-5.6,1.92c-3.9,1.75-7.12,1.94-8-3.3s-4.2-5.72-9-5c3.2,3.6,6.66,6.36,6.51,11.6l-15.32,5a32.13,32.13,0,0,0,12,1.23c3.91-.3,6.93.61,5.52,5.33-1.47,4.89,2,10.4-.86,14.43s-9.19,3-13.14,6.08h0c-9.13,1.56-17.45,5.25-25.64,9.39,10.64-.08,20.54-3,30.22-6.88h0c4.74,1.32,9.63-2,14.33.37-6.91,14.19-7.57,29.19-6.67,44.66,0.3,5.21,4.44,5.36,6.67,7.19,2.58,2.11,2.62-2.33,3.56-4.06,0.72-1.33,2-2.31,3.14-1.65,4.62,2.67,9-1.51,13.82-.48a23.43,23.43,0,0,0-.4,4.11c0.13,1.59.27,3.75,2.28,3.82,1.79,0.06,4.16,0,5-2.35,4.7-13.85,5.43-27.9,1.36-42-1.21-4.18-4.26-6-9.12-5.91-6,.16-10.16,4-15.62,6.49,0.16-5.7,1.83-9.68,6.13-13.16,10-8.09,21.81-10.71,33.91-12.85,2.13-.38,5.15.64,5.52-2.64C132.74,677.95,130.26,676.91,128.23,675.7ZM102.63,735c-5.83.49-10.3,3.95-15.44,5.82-4-9.3-3.25-11.46,5.53-10.78,4.58,0.36,8-2.92,12.3-2C106,731,106.71,734.65,102.63,735Zm-13-19.82c0.54-.38,1.1-0.73,1.63-1.13,11.08-8.25,11.95-7.88,13.92,6.53-6.48.65-12.73,2.36-18.17,6.68C84.5,721.74,85.62,718.08,89.66,715.18ZM86.21,685c-4.89-13.61-4.05-15.43,9.45-19.46C94.15,673.51,90.66,679.41,86.21,685Z"/><path class="cls-2" d="M133.37,44.84C124.22,41.66,114.55,41,105.16,39c-8.16-1.74-9.08-3.71-4.3-10.41,2.12-3,4.6-5.67,5.61-9.3,1.17-4.15-4.27-5.52-4.38-9.67a30.25,30.25,0,0,1,5.13-.87c5.65,0.07,11.29.44,16.94,0.46,2.27,0,5.11-.14,5.47-3.12,0.41-3.37-2.26-4.45-5-5a43.66,43.66,0,0,0-19.83.26C84.33,6.39,64,12,43.37,17.56c9.52,4.76,18.8,7.21,28.8,2.14,4-2,7-.69,8.14,4a6.16,6.16,0,0,0,1.85,3.47c4.9,3.48,2.36,6.48-.14,9.88C73.51,48.68,64.92,60.16,51.47,68.76c7.92,2.08,13.36.9,18.39-3.85,6.79-6.41,12.23-14,19.45-20.56,0,6.2,2.09,12.65-1.74,18.08-1.54,2.19-2.59,3.64-.94,6a6.45,6.45,0,0,0,5.87,2.92c4.7,0,6.7-2.5,6.95-6.63,0.46-7.4.61-14.82,0.94-23.37,13.14,9.91,27.25,13.87,41.8,17.77C143.57,50.81,139.65,47,133.37,44.84ZM81,17c7.19-4,7.19-4,14.1-3.65C91.8,23.58,88.92,24.33,81,17Z"/><path class="cls-2" d="M73.8,1047.9c-1.12-4.65-3.85-8-9.38-8.89,8.19,19.9,7.87,38.6-4.21,56.37,10.11-.2,14.82-3.78,15.93-13.1A97,97,0,0,0,73.8,1047.9Z"/><path class="cls-2" d="M110.55,1082.53c-3.62.08-7.26,0-10.87,0.33-1.81.16-1.12-3.4-3-1.91-1.31,1-1.13,3.06-.57,4.65,1,2.95,3.42,3.74,6.3,3.72,1.66,0,3.67.14,3.67,2.29,0,2.39-2,3.28-4.09,3.29-3.29,0-6.58-.29-9.87-0.47h0c-1.49-2.78-4.16-.81-6.16-1.54-5.65-2-8.62-.6-9.45,4.83a18,18,0,0,0,0,5.85c0.38,2,.38,5.45,3.47,4.75,2.6-.59,5.63-2.32,4.62-6.23a25.42,25.42,0,0,0-1.18-2.7c-1.63-4.17.17-5.5,4.12-4.74a36.78,36.78,0,0,1,4.66,1.53h0c12.36,8.37,19.67,6.07,23.65-7.44C117.26,1083.9,116,1082.41,110.55,1082.53Z"/><path class="cls-2" d="M136.66,1071.9c-10.53-6.07-10.31-6.47-6.46-17.56,3.55-10.25,1.68-16.27-7.35-23.07,1.12,8.15-1.18,15.62-3.23,23.34-5.24-4.89-15.07-20.35-16.53-25.82-0.51-1.92.65-3.06,1.86-4.18,4.74,1.14,5.38,8.8,12,7.31,0.18-3.46-1.1-6.37-2.7-9.23-1-1.7-2.17-3.19-2.3-5.39-0.46-7.63-5.7-12.61-14.92-13.78,4.41,2.5,5.41,5.93,5.15,9.92a4.19,4.19,0,0,1-2.7,3.85c-1.21.44-2.38-.61-3.31-1.65-5.06-5.6-11.47-8-20.73-8.49,7.5,5,12.88,9.6,15,16.12-4.31,4.87-10.36,4.17-15.45,6.89,6.43,2,12.31.71,18.36,0.36-0.84,5-4.86,7.39-7.3,10.81-2.07,2.91-3.78,6.37-.61,8.89,3.53,2.8,2.13,4.92.53,7.57-1.72,2.85-3.62,5.61-5,8.6-2.78,5.87-1.5,8.79,4.93,12.27a27.6,27.6,0,0,0,1.55-4.51c1.15-7,3.89-3.77,6.59-1.11,6.84-4.28,10.19-11.47,14.36-18.44,1.92,2.46,3.38,4.22,4.71,6.08,1.5,2.09,4.13,4.09,2.45,7-1.85,3.21-4.33,5.75-8.73,5.4-2.48-.2-5.16-0.72-7.58.6,1.2,7.11,2.15,7.79,7.64,5.71a16.77,16.77,0,0,0,5.61-3.86c4.71-4.45,8.48-4,13.06.63,5.67,5.79,11.69,11,20.23,13.9C145.44,1081.92,143.73,1076,136.66,1071.9ZM90,1065.21c-0.33-10.22,1.3-12.27,11.57-14.31C99.26,1057.57,94.57,1061.05,90,1065.21Z"/></g></svg>