<svg id="图层_1" data-name="图层 1" xmlns="http://www.w3.org/2000/svg" viewBox="0 0 200 1333.61"><defs><style>.cls-1{opacity:0.05;}.cls-2{fill:#fff;}</style></defs><title>主站</title><g class="cls-1"><path class="cls-2" d="M74.44,1303.89c19.72,3.55,36.26,10.94,47.17,29.29-7.08,1.57-12.31-1.55-17.66-3.42a92.45,92.45,0,0,1-13.64-6.08,119.41,119.41,0,0,0-32.52-12c-2.79-.6-7.6,0-6.83-5.09s4.78-3.13,7.93-2.8c3.77,0.4,7.33-.18,10.3-2.78,8.49-7.43,16.16-15.64,24.25-24.28-8.15-.83-23.55,5-28.26,10.18-4,4.45-7,4.52-10.52.07-1.9-2.39-3.28-5-2-8.94,4.37,3.11,9,2.29,13.52.77,9.11-3.06,18.52-5.44,26.87-10.44a11.08,11.08,0,0,1,8.68-1c3.87,1,7.8,2.42,8.7,7,0.8,4.11-2.43,5.84-5.19,7.67C94.81,1289,86,1298.09,74.44,1303.89Z"/><path class="cls-2" d="M131.27,763.82c-2-1.29-4.58.56-6.27-1.6,1.47-3.75,3-7.41,4.31-11.13,0.73-2,2.6-4.28-.56-6-2.88-1.56-5.75-2.07-8,.86-1.43,1.84-2.51,3.94-5,4.62,3.22-14.3,0-18.2-12.62-15.16,6.51,8.59,6.44,11.35-.57,20.26-0.2.26-.5,0.44-0.73,0.68-2.16,2.24-4.35,4.74-1.94,7.8,3.17,4,6,0,8.67-1.15,2-.88,3.56-2.93,5.23-4.55s3.34-3.07,6.62-2.62C115,764.36,110,772.7,101.06,777.76a16.75,16.75,0,0,0-.63,3.88c0.35,5,2.17,6.12,6.1,3.4,4.81-3.33,9.19-7.26,14.16-10.81-9.08,10.49-.78,22.91-4.46,34.32-4.58,1.36-5.91-1.92-6.75-5.54-1.3-5.57-3-10.82-8.76-13.41,1.31,5.16,1,10.43,1,15.68,0,4.08,5.14,10.74,7.44,9.22,2.9-1.92,3.87-2.85,5.27.75,1.07,2.75,3.28,3.05,5.73,2.52,3.09-.68,2.89-3.32,2.89-5.57,0-5.65.94-11.6-.51-16.88-2.83-10.26.69-16.48,9.37-21.67C136.89,770.65,136.11,766.95,131.27,763.82Z"/><path class="cls-2" d="M133.12,790.64c9.58,1.69,15.59,6,21,11.27,1.78,1.73.92,3.75-1.76,4.13-3.35.47-6.57-.57-9.84-1.14-4.33-.76-2.95-4.3-3.87-6.88C137.85,795.84,135.8,794.11,133.12,790.64Z"/><path class="cls-2" d="M66.07,1245c3.88,1.7,6.69,2.5,9.55,2,6.6-1.1,9.11,2.68,10.24,8.61C77.21,1257.4,70.58,1255.1,66.07,1245Z"/><path class="cls-2" d="M110.5,884.78c-5.07-4-4.89-5.42-.44-10.11,5.41-5.7,12.65-6.26,20.23-7.55-6.08-6.62-12.69-3-19.45-2,1.47-6.09,4.4-12.16-3.64-15.36-0.49,2.95-.64,5.62-1.44,8.09a58.05,58.05,0,0,1-3.45,7.17c-1.45,3-2.84,6-4.33,8.94-1.19,2.36,0,3.6,1.88,4.8,7.13,4.56,9.07,9.94,6.87,17.63-1.13,4-3.89,6.92-6.42,11.94,5.54-1.21,8.78-3,11.55-6.07C119,894.39,118.8,891.33,110.5,884.78Z"/><path class="cls-2" d="M85.18,871.15c-2.88.34-5.75,0.83-8.66,1.26,2.64-8,1.78-9.31-6.15-9.28-2,0-3.94.39-5.91,0.56-2.37.2-3.82,1.05-2.7,3.73a3.8,3.8,0,0,1-.81,4.51c-0.27,5.64-5,8.09-8.22,11.68-2,3.64-3.5,7.8.18,10.74s7.54,0.43,11.29-3c-2,12.14-.07,14.89,10,16.39,0.9-1.21.52-2.52,0.25-3.79-2.71-12.48-1.23-15.65,9.86-21a26.76,26.76,0,0,0,3.57-1.7c2.32-1.6,4-3.7,2.75-6.69A5,5,0,0,0,85.18,871.15Z"/><path class="cls-2" d="M152.12,130.83c-2.27-4.31-7.88-5.4-10-8.41-2.43-3.38-2.36-8.65-7.44-10.57-0.79-.3-1.29-0.36-1.93.81,4.38,7.32-.43,12.67-4.67,18.21-1.55,2-4.4,3.4-4,6.51,0.53,3.64,2.81,6.13,6.62,7.3-4,4.44-7.73,7.58-13.93,7-0.76-9.6-1.49-19.14-2.28-28.69-0.16-1.89.38-3.81-1.26-5.56-6.09-6.51-13.53-6.82-21.22,0,9.18,0.39,10.78,6.41,11.21,13.51,0.12,1.93,1.49,3.91-1.05,5.13-2,1-4,2.64-6.16,0s-4.62-3.45-7.16-.5l-0.17-.06h0c0,0.06,0,.13,0,0.19-2,0-5.31,4.82-5.53-1.83-0.14-4.28-.46-8.85-4.33-13.62,0.6,12.47-.8,23.07-8.41,32-2.28,2.68-1.9,5.29,1.67,7.24,6.13,3.35,8.59,2.53,10.85-4.18,0.63-1.88,1.24-3.77,1.86-5.65h0l1-.22,1,0.2h0c10.26,8.45,12.25-2.83,17.2-8.38,0.83,6,1.51,10.89,2.17,15.75,0.09,0.66,0,1.33.06,2,0.23,6-6.15,12.38-11.87,10.47-2.91-1-3.83-.75-5.47,1.09-2,2.25-2.79,5.14-1.11,7.29s2.89,5.29,5.81,6.43c2.57-.45,2.81-2.5,3.37-4.41a1.76,1.76,0,0,1,2.22-1.39,3.11,3.11,0,0,1,2.14,3c0.07,1.93-1.72,2.7-2.6,4-3.23,2-6.88,3.53-9.26,7.92a26.38,26.38,0,0,0,13.57-5.63c1.71,0.27,3.28.8,3.65,2.76,0.31,1.68-.87,2.25-2.22,2.66-10.26,3.12-20.51,6.26-30.9,9.44,6.46,6.22,13.62,9.28,22.37,4.86,10.48-5.3,21-10.2,33.2-6.2a4.52,4.52,0,0,0,2,0c4.07-.6,6.89-6.24,4-9-4.17-3.91-7.74-9.44-14.72-8.83-1.21.11-2.61,1.15-3.4-.48s-0.18-3.18,1.1-4.49c3-3.1,6.18-6.09,8.94-9.42,3.61-4.35,1.79-9.34-3.73-10.46-1.55-.32-3.27.18-4.92,0.3a1.08,1.08,0,0,1-1.33-1.15c-0.06-1,0-2,1.21-2.21a9.27,9.27,0,0,1,3-.19c14.66,2.36,22.35-7.31,29.95-17.22C152.86,135.92,153.55,133.53,152.12,130.83Z"/><path class="cls-2" d="M126.17,324.16L121,326.29c2.94,2.32,6.56,3.24,8.4,6.65a6.72,6.72,0,0,0,5.64,3.54c2.16,0.13,4.37,1.85,6.46-.39s1.63-4.9.73-7.4c-2.9-8.08-11.15-12.21-21.35-10.82C121.51,320.84,126.14,320.31,126.17,324.16Z"/><path class="cls-2" d="M120.92,317.87c0-.06,0-0.12,0-0.19h0l-0.14,0c0,0.06,0,.11,0,0.17Z"/><path class="cls-2" d="M85.84,329c-2.22.82-2.31-1.34-2.51-3-0.22-1.93,1.43-3.83-.05-5.89-4.61,3.07-7.55,7.46-9.59,12.38-2.18,5.26.2,9.25,6.25,11.29,6.91,2.33,5.24-2.16,5.27-6.09,0-2.11,1.81-4.2,2.78-6.3C89.13,328.89,89.28,327.76,85.84,329Z"/><path class="cls-2" d="M147.69,297.77c-8.82,0-17.57-3.35-26.48,0-2.61,1-4.31-.64-4.14-3.73,0.63-11.59-.62-23.21,1.23-34.8,0.8-5,.83-9,7.72-8.37,1.77,0.18,5.43-.23,6-3.57-0.87-2.21-2.91-2.91-4.44-4.1-3-2.29-7-2.88-6.53-8.69,0.31-3.8-6.14-6.76-10.07-5.46-1.44.48-6.42,1.18-1,4.62,3,1.91,2.1,7-.33,8.72-2.26,1.61-7.57,4.62-8.72,2.46-3.48-6.54-11.86-3.74-15.07-10.31-1.8,6.61,5,9.06,4.91,14.52-3.69,1.93-7.76,3.53-11.21,6-5.72,4.1-5.35,8.18.6,12.44-0.07-7.91.71-8.35,7.85-7.33,4.39,0.63,4.3,3.24,4.24,6.35-0.1,6-1.65,12-1.92,17.65C90,291,87.72,297.77,88.87,304.71A3.83,3.83,0,0,1,88,307.4c-2.69,3.23-17.19,6-21.69,3.84-0.9-.44-1.54-0.76-2.12-0.32-2.23,1.72-3.51,4.26-2.91,6.88,0.7,3,3.65,2,5.86,2.09a9.81,9.81,0,0,0,3.72-1c7.28-2.64,14.07-8.19,22.63-3.54,2,1.06,2.4-1.22,3-2.81,2-5.3,7.24-3.28,11-4.59s4,2.59,5.36,4.5c2,2.76,2.92,7.09,7.89,5.3a17,17,0,0,0-1.56-11.55c9.29-1.71,18.26-.69,27.11.36,4.47,0.53,7.68.08,10.55-3.68C154.41,299.65,151.86,297.78,147.69,297.77Zm-49.55,5.84c-2.35-11.37-2.05-11.81,9.23-13.58C109.58,301.65,109.58,301.65,98.14,303.61ZM97.75,280.4c2.1-7.71,2.1-7.71,10.17-9.58C108.68,280,108.06,280.63,97.75,280.4Zm11.06-19.26a14.43,14.43,0,0,1-8.44,1.8c-2.14-.32-2-3.58-0.38-4.78,2.58-1.85,5.73-2.92,9.23-4.6C110.51,257.17,110.95,260,108.81,261.14Z"/><path class="cls-2" d="M124.33,681.46a24.88,24.88,0,0,0-19.4.1c-4.6,1.92-9.42,4.91-14.28,3.18-4.57-1.63-9,2.24-13.43-.88-1.27-.9-3.84.92-4.59,2.88-0.83,2.17-1.16,4.73.62,6.56a4,4,0,0,0,5.48.11c5.23-4.79,11.06-5.71,17.06-3.63,3.95,0.14,7.1-.24,9.71-2.89,2.14-2.18,4.81-3.68,8-3.33,1.49,0.16,4.07.35,3.08,2.6-3,6.8,3.78,2.62,5.28,4.64,1.2,1.61,4.42.91,6-1.42C129.64,686.71,128.17,683,124.33,681.46Z"/><path class="cls-2" d="M147.75,658.2c-5.07-3.07-10.76-3.37-16.43-3-6.2.45-12.36,1.35-19.18,2.13,1.74-6.46,3.44-11.92,9.46-14.83,1.7-.82,3.87-2,3.28-4.4-0.76-3.13-3.32-4.23-6.17-3.41-5,1.45-4.4-2.83-5.39-5.11-1.19-2.75-.41-5.12,2.74-6.42a41.19,41.19,0,0,0,8-4.05c3.52-2.48,5-8.67,2.81-11.62-2.75-3.69-6-1.28-8.77.09-7.54,3.68-15.88,4.82-23.65,7.77-3.24,1.23-5.6.42-6.26-3.82a15.35,15.35,0,0,0-6.7-10.63c-1.75,2.69,1,5.09.53,7.68-0.54,2.94-1.18,5.85-1.72,8.79-1.64,8.91-1.46,9.26,6.81,13.63,2.73,2.35,2.73,4.51-.44,6.46-3.72,5.17-6.35-.23-11.63-3,3.39,6.05,3.52,9.29-.72,12.25-3.46,2.42-3.16,5.92,1.7,7.07,3.84,0.9,4.65,4.12,6.64,7.08-11,5.95-20.07,14.71-32.89,16.49-3.2.44-4.09,3.35-3.26,6.22,1,3.39,3.44,2.34,5.58,1.2s4-2.41,6-3.52a164.61,164.61,0,0,1,40.55-15.72c0.32,2.93-3.41,3.15-2.94,5.71a3.42,3.42,0,0,0,3.74-.83c10.34-9.51,22.21-10.75,35.18-6.8,3.87,1.18,7.94.71,11.92,0.3,1.21-.12,2.77-0.1,3.27-1.67C150.45,660.28,149.17,659.06,147.75,658.2ZM83.24,644.39a3.24,3.24,0,0,1,3.68-2.63,1.67,1.67,0,0,1,1.57,2c-0.21,1.8-1.06,3.26-3,3.28A2.34,2.34,0,0,1,83.24,644.39Zm4.6,12.28c-1.06-1.37-1.78-2.77-.85-4.44,0.48-.85,1-0.82,1.52,0C89.52,653.91,89,655.31,87.84,656.67Zm7.59-13.23a1.74,1.74,0,0,1-1.65-.39c-1.45-2.84-1.7-5.42,1.91-6.88,0.49,0.53,1.2.92,1.23,1.37C97.09,639.65,98,642.07,95.43,643.44ZM93,633.11c-0.85,1.14-2.17-.63-2.83-1.77-0.85-1.46-1.64-2.81.23-4.22,4.9-3.67,9.59-7.76,17.1-8.13C104.75,626.83,96.88,627.92,93,633.11Zm11.47,25.34c-0.72.34-1.15,0.08-1.38-.77-1-3.59.59-5.41,5.15-6.17C107.61,654.83,107,657.19,104.45,658.45Zm-1.73-11.69c1-2.29,3-2.76,5.24-3.36,0.84,2.52-1,2.91-2,3.67A2.12,2.12,0,0,1,102.73,646.76Zm0.54-6.16c-1.47-10-1.47-10,6.87-12.51C111.52,636.89,111.52,636.89,103.26,640.6Z"/><path class="cls-2" d="M148.37,68.55c-0.86-10.57-1.63-21.18-1.06-31.81,0.48-9-.76-17.84-1-26.76-0.12-5.52-2.24-8.68-8.1-9C136,0.85,133.92-.76,130.32.45c5.48,3.69,6.62,9.08,7.19,14.6,1.55,15.17,3.68,30.31,3.36,45.61-0.24,11.61-1.83,12.9-13.51,11.94,0.11,1.83,1.77,2.54,2.69,3.78,3.52,4.73,8.09,7.55,13.78,5C149.19,78.91,148.79,73.72,148.37,68.55Z"/><path class="cls-2" d="M128,42c-3.13-5.78-3.5-12-3.38-20.32-4.21,7.22-9-.62-13.44,3.16,6,2.48,8.81,6.74,7.74,13.23-0.39,2.33.49,4.55,1.27,6.78,1.14,3.22,2.9,5.62,6.52,4C129.85,47.47,129.27,44.41,128,42Z"/><path class="cls-2" d="M107.68,15.8c3.12-5.38,1.7-9.46-3.1-11.32A12.9,12.9,0,0,0,93.12,5.91c-10.68,7.2-21.61,13.85-34.5,19.3,6.58,2.16,11.9,3.79,17.7,2.3,5.46-1.41,8.83-7.59,16-7.33-6.41,16.71-14.77,31.35-23.7,45.7C67.75,67.28,66.76,68.61,66,70a6.76,6.76,0,0,0,1.65,9c3.19,2.59,6.22.9,8.66-1.87A101.62,101.62,0,0,1,92.92,62c-0.39,6.14-.65,10.68-3.8,14.48-7.07-2.3-4.7,4.36-6,6.92-1.51,3,.69,5.66,3.7,7.15s5.65,1.15,7.82-1.8c2-2.73,3.83-5.58,4.07-8.95,0.44-6.27,3.41-12.17,2.53-18.62-0.21-1.58-.56-4,0.89-4.64,9.91-4.43,4.49-7.81-.27-12-2-1.82-2.41-5.41-4.08-7.82-1.85-2.67-1.54-4.38.46-6.9A114.65,114.65,0,0,0,107.68,15.8ZM83.14,57.23c3.72-4.2,5-9.35,7.84-13.86C96.81,51,95.72,52.93,83.14,57.23Z"/><path class="cls-2" d="M82.68,426c0.19-1.93-.4-3.92-0.36-5.88,0.07-3.1.37-6.2,0.64-10.36-3.56,2.73-4.14,6.47-7.42,8L71,410.57c-0.87,5.6-1.47,9.47-2.07,13.34-0.05.33-.07,0.66-0.09,1-0.2,3.5.66,6.58,3.78,8.56,2,1.24,12.08.82,13.31-.77C89.14,428.57,82.37,429.08,82.68,426Z"/><path class="cls-2" d="M81,379.67c-3.12-1.59-6.43-2.81-10.55-4.57,0.63,6.38,4.53,10,5.56,14.87,0.46,2.16,6.84,4,8.94,2.89,2.9-1.6,2.56-4.35,1.94-6.94C86.19,382.79,83.69,381,81,379.67Z"/><path class="cls-2" d="M143.28,414.78c-6.13-2.51-12.39-4.71-18.66-6.86-1.56-.54-3.33-0.38-3.47-2.65-0.16-2.62,1.3-3.3,3.66-3.47,10.52-.78,16-7.82,20.86-16.22,2.65-4.61,0-7.76-2-10.89-2.15-3.43-5.59-4.11-9.65-2.44-3.21,1.32-6.41,3.62-10.31,2.39,1.93-12.38,1.39-15.26-18.65-22.15,8.38,10,7.08,19.66.8,29.42-2.71,4.21-4.73,8.82-7.3,13.42l11.5-4.21c4.22,9.56-.62,17.65-3.69,25.75-2.37,6.25-6.28,11.48-14.24,11.59,6.56,8.63,10.93,9.17,18.05,2.57,5.23-4.84,7.48-11.65,11-17.5,3.32,0.5,6.4,1.16,8.19,3.62,6.53,9,16.73,11.39,28,16C155.09,423.58,150.77,417.84,143.28,414.78Zm-27.1-33.62c5.67-7.18,9.76.26,15.18,0.55-2.75,5.62-6.29,9.38-11.48,13.35C119.37,389.8,110.64,388.17,116.18,381.16Z"/><path class="cls-2" d="M150.86,532.74c-0.49-4.67-4.2-3.84-7.47-3.16a10,10,0,0,1-3,.18,3.25,3.25,0,0,1-2.8-2.46c-0.66-2.06.45-3,2.29-3.52,3.17-.89,7.52-1.48,7.17-5.52-0.48-5.49-5.77-4.06-9.43-4.74a1.89,1.89,0,0,1-.65-0.64c-0.48-2.83,2.17-2.82,3.55-4,3.49-3.06,3.06-5.56-1.33-6.67-1.48-.38-3.38.61-3.78-1.75s1.07-3.7,3.08-4.47c3.28-1.25,6.8-2.09,8.82-5.35-4.58-5-8.82-5.26-14.31-1.68-4.68,3.05-10.82,3.55-15.26,7.44a12.53,12.53,0,0,1-1.32-1.17c-0.34-2.43,1.67-3.33,3-4.71,4-4,8.06-8,10.42-13.24,1.43-3.18,4.13-6.39.4-9.92-3.26-3.09-6.17-.79-9.16.37-2.32.9-4.16,3-6.91,3,0.5-3.72.8-7.32,1.49-10.84,1.13-5.75-1.88-6.72-7.31-6.48,3.69,9.59-1,17-4.72,24.63-1,2.07-2.63,3.89-3.31,6a4.79,4.79,0,0,0,2.21,6c2.65,1.62,4.17.56,5.86-1.49,5-6.11,10.2-12.11,15.31-18.15,0.09,7.44-3.94,11.89-7.85,16.34-3.45,3.92-5.82,8.22-4.91,13.5,2,11.46-.58,22.83-0.42,34.25,0.08,5.69,1.35,10.51,6.23,13.76,2.45,1.63,5.69.39,4.39-2.06-3.23-6.08,1.59-5.08,4.19-5.55,6.19-1.13,12.58-.74,18.73-2.5C147.27,537.28,151.34,537.31,150.86,532.74Zm-33.17-33a13.77,13.77,0,0,1,8.57.76c2.1,1,2.81,4,0,5.59-2.52,1.44-5.41,2.23-9.07,3.68-0.47-2-.92-3-0.86-3.92C116.46,503.67,114.83,500.46,117.69,499.71Zm-2.47,16.37c0.43-3,1.75-4.93,5.38-3.56a33.87,33.87,0,0,0,5.79,1.17,3,3,0,0,1,.71,5.71c-3.71,1.21-7.22,3.14-11.42,3.34C114.23,520,115,518,115.23,516.09Zm12.56,18.32c-2.65,2-6,3.35-9.27,2.74s-4.06-3.88-4.11-7c0-1.28.14-2.56,0.27-4.6l9.8,0.43c1.85,0.08,4.45-.87,4.73,2C129.42,530.09,129.79,532.9,127.79,534.4Z"/><path class="cls-2" d="M78.84,545c-1-7.32-.24-13.81,5.56-19.09a9.57,9.57,0,0,0,2.68-9C93,514,91.69,508,93,503.11c0.51-2,.43-4.19-1.58-5.29a5.34,5.34,0,0,0-6.45.8c-2.42,2.14-4.86,4.25-7.52,6.57l-2.19-6.84c3-1.56,5.89-3.15,8.86-4.58,1.63-.78,3.44-2.22,2.92-3.59-2.2-5.78,2.29-9.19,4.17-13.53,1-2.31,3.38-4.69.66-7.15-2.49-2.24-5.35-1.9-8.35-.56-3.83,1.71-7,4.63-11.2,5,0.35,5.49,5.13,6.2,7.8,8.83-3.19,6-3.19,6-10.31,9.87l-4.43-8.52c-4.35,11.26-4.55,11.34-1,20.2,1.07,2.68.29,4.48-.86,6.42-3.36,5.68-6,11.81-10.86,16.58a5.83,5.83,0,0,0-.72,8.15,5.73,5.73,0,0,0,6,2.48c3.08-.5,3.25-4,5.64-5.24,1.06,2.25,1.25,5.3,5,4.91,1.39-.14,3.13-1.65,4.42,1.06-0.18,3.57-.32,7.54-0.58,11.5-0.19,2.82.18,5.59,2.88,6.9,3.31,1.61,4.61-1.57,6.27-3.44,3.58-4,5.24-9.08,7.33-13.9,3-3.86,6.08-7.73,6.24-14.24a47.71,47.71,0,0,0-8.52,12C83.72,539.61,83.65,544.71,78.84,545ZM63,521.76c-0.43-5.61,3.68-9.11,4.35-14.14C72.11,514.06,72.11,514.06,63,521.76Zm15.68-12.91c3-2.83,5.54-8.74,9.72-6.92,5,2.19-.38,6.81-0.55,10.43-0.07,1.47-1.37,2.89-1,4.59l0.25-.27-0.24.36s0-.06,0-0.09c-1.71,1.87-3.27,3.56-6.33,1.44s-2.47-5-2.73-7.84A2.61,2.61,0,0,1,78.69,508.85Z"/><path class="cls-2" d="M72.87,1104.71c-2.91-2.55-5.62-1.27-8.11.56-3.48,2.55-6.75,5.4-10.22,8s-6.65,5.48-12,4.86c5.74,5.6,12,3.68,18.88,2.69-3.89,7.46-5.81,14.32-10.58,19.52-2.94,3.21-1.67,6.08-.48,9.17s3.18,3.1,5.36,1.1c2.34-2.15,3-5.94,8-8.68-2.6,7-4.93,11.63-8.07,15.91a63.44,63.44,0,0,0-3.79,5.82c-1.39,2.42-.14,4.67,1.21,6.46,1.7,2.26,3.48.07,5.25-.46s3.11-2.83,5.59-1.32c1.69,3.29,1.44,7,.51,10.45a30.23,30.23,0,0,1-4.57,8.75c-2.33,3.4-1.94,6.59.92,8.85,3.55,2.8,6-.17,8.29-2.69,4.62-5.07,5.27-11.4,4.7-17.64-0.4-4.37.37-10.06-4.73-12.38-4.78-2.18-4.66-4.54-2.21-8.33a26.19,26.19,0,0,0,2.55-6.45c3-9.62,2.71-10.19-6.56-13.16,2.19-8.36,5.95-16.07,9.64-23.84C73.5,1109.79,75.77,1107.25,72.87,1104.71Z"/><path class="cls-2" d="M118,1174.72c-1.3-11.06-1-22.29-2.78-33.34-0.35-2.25.4-4.66-.76-6.81-1.4-2.6-5.23.76-6.77-2.93,2.1-4.22,4.44-8.53,6.39-13,1.23-2.82,3.88-5.78.59-9,0.56-2-2-2.33-1.83-4.88,0.59-8.54-.93-9.74-9.56-9.7-4.49,0-9,.52-14.14.84a11.63,11.63,0,0,0,6.19,3.86c3.82,1.2,1.54,3.61,1.14,5.65-2.42,2.76-5.32,5.24-5.92,10.53,3.75-2.35,5.64-4.5,6.21-7.75,6.93-4.32,6.93-4.32,12,1.46-3.91,1.93-6.6,5.23-9.6,8.24-2.76,2.76-5.26,6-9,7.47-1.57.62-4.18-.71-3.81,2.57,0.35,3.06,2.29,4.85,5.24,4.82a9.4,9.4,0,0,0,7-3.23c1.47-3.55,3.7-6.47,8.24-9.3-1.79,4.9-2.33,8.94-5.62,11.86a48.25,48.25,0,0,1-8.55,12.1c-2.42,2.46-3.52,5.84-1.23,8,4.09,3.83,1.34,6.22-.66,9.12-2.49,3.6-4.76,7.34-3.5,12,0.81,3,2.62,4.7,5.74,2.54a42.54,42.54,0,0,0,4.42-3.93c1.95-1.8,3.67-3.94,5.85-5.36,4.15-2.7,6.75-1.27,6.91,3.66a77.71,77.71,0,0,1-3.54,27.4l-7,13.08c3.93-1.66,7.74-3,9-7.11C116.83,1195.58,119.35,1186,118,1174.72ZM105.17,1157c0.41-3,2.22-5.2,4.06-7.46C111,1156.26,111,1156.26,105.17,1157Z"/><path class="cls-2" d="M121.85,978.69c-3.4-1.49-6.47-.93-9.64.28-4.34,1.66-8.85,3-12.93,5.16-3.91,2.06-6.18,2.19-8.46-2.29-1.75-3.45-5.76-3.86-9.58-4.07-5.85-.32-7.77-3.81-5.07-8.9,1.26-2.37,4.28-3.8,4.43-6.73-5.08-3-7,3.6-11.11,2.61,4-14.14,4-14.14-1.76-18.92-1.4,8.58-3.65,14.44-8,20.82a43.25,43.25,0,0,0-3.43,4.83c-1.75,3.51.2,8.77,3.66,9.88,3.81,1.23,4.11-2.15,5.34-4.34,0.67-1.19.88-3.05,3.91-2.93-2,3.58-3.1,7.06-.06,10.11,1.08,1.09,2.36,3,3.85.71s2.36-3.53,5.05-1.14,1.94,4.51.35,6.88c-2.24,3.33-5.93,4.06-9.39,5.15-2.18.69-4.35,2.37-6.66,1.39-2.5-1.05.17-4.87-2.51-6.36a41.14,41.14,0,0,0-6.26,11.64,21.54,21.54,0,0,0-1,11.77c0.54,2.73,2.61,3.88,5.14,3.71s2.78-2.37,2.86-4.44c0.07-1.65.6-3.4,0.23-4.94-1-4.13,1.65-4.73,4.59-6,7.55-3.26,15.48-5.42,23.06-8.76,8-3.52,16.53-6.81,26.54-8.44-3.09,4.52-6.95,6-9.9,8.55,0,3.31,1.89,2.74,3.91,1.93,4.41-1.43,8.83-2.83,13.23-4.29,2.85-.94,6.62-1.88,6.58-5.17C128.66,982.61,125.46,980.28,121.85,978.69Z"/><path class="cls-2" d="M88.55,977.42a64.52,64.52,0,0,0,7.69.58c8-.42,10.91-3.92,10.57-12.17-0.06-1.32.35-2.85-.17-3.94-1.85-3.88.32-5.41,3.4-6.65,0.92-.37,1.71-1,2.63-1.42,2.91-1.22,6.2-2.77,3.81-6.39-2.09-3.18-5.16-1.39-7.86.24-2.32,1.41-4.22,4-7.6,3.91-0.88-4.36,4.07-9-2.09-12.36,0.2,5.58-4.14,8.75-6.16,13.12-2.46,5.32-1.58,7.57,3.19,9.22,5.67,2,6.66,6,2.56,10.29C96,974.47,92.17,974.89,88.55,977.42Z"/><path class="cls-2" d="M111.84,1027.74c-3-2.16-6-3.13-9-.29-4,3.85-9.27,5.1-13.95,7.56-2,1.05-4.72,2.35-5.45-1.23-0.56-2.73-1.33-6.18,3.06-7.05,1.29-.26,2.92-1.15,3.82-0.67,3.64,1.94,5.94-.68,8.91-1.74,6.54-2.35,6-8.44,8.36-13.15,2.68-5.31,2.13-8.7-2.73-11.69a3.45,3.45,0,0,0-4.37-.07c-3.91,2.79-6.74,7.08-11.73,8.37-2.83,0-1.31-3.41-3.26-4.08-7.17,6.94-7.17,6.94-6.58,20-1.86,4.32.61,9.27-2,13.49-0.12.2-.2,11.19-0.17,12,0.13,3.58,1.49,6.6,4.66,8.3,1.63,0.87,4.42,1.41,3.8-2-0.7-3.8,1.09-4.11,3.65-3.1,6.48,2.56,13.07-.25,19.64.72,4,0.59,6.44-3,4.21-5.39-4.29-4.59-1.68-8.45.18-12.3C114.46,1032.31,115.08,1030.05,111.84,1027.74Zm-22.32-16.38c1.17,0,2.34-1,3.51-1.49l4.73-1.63c-0.32,9.48-7.06,12.6-14.56,15a22,22,0,0,0-.22-2.9C81.86,1014.92,83.12,1011.39,89.51,1011.36ZM98.58,1045a72.06,72.06,0,0,1-13.07,4.17c-1.36.34-2.21-1.2-2.37-2.6-0.23-2.07,0-4,2.32-4.85,2.76-1.06,5.48-2.24,8.3-3.12,2.43-.76,5-1.18,7.77-1.83C101.7,1040.43,101.31,1043.69,98.58,1045Z"/><path class="cls-2" d="M93,805.65c-4.77-4-3.53-9.58-5.45-16.33-3.27,12.21-8.38,20.8-21.28,21.61,1.47-8.56,8.5-12.89,12.11-19.36,2.09-2.58,4-5.29,6.31-7.72,2.56-2.74,1.79-4.57-1.06-6.33-1.37-.84-3.39-0.12-4.49-2.28A41.33,41.33,0,0,0,80.86,770a32.12,32.12,0,0,0,.45-6c0-1.61.23-4-1.58-4.27-5.34-.74-4.21-3.32-2.53-6.6a61.66,61.66,0,0,0,3.49-8.24c2.76-8.12,2.7-8.14-6.33-13.61,1.47,4.12,3.07,7.62,2.11,11.2-2.57,9.61-4.49,19.67-14.59,24.9-1.83.95-3.55,2.1-2.88,4.55a5.76,5.76,0,0,0,3.24,3.59c1.9,0.91,3-.55,4.19-1.72,3.35-3.37,4-9.24,9.65-10.74,1.58,3.69.6,6.91-1.08,9.79-3,5.13-5.36,10.79-10.51,14.33a12.3,12.3,0,0,0-5.16,7.12c-1.23,4.73,1.89,6.85,7.37,5.18-0.93,5.5-3.69,9.23-9.39,12.58a74,74,0,0,0-6.83,4,2.38,2.38,0,0,0-.51,3.49c0.88,1.08,1.9,2.07,3.31,1.73,1.23-.3,2.76-0.83,3.41-1.77,2.92-4.21,6.55-4.62,11.25-3.45,3.54,0.88,7.25.63,9-3.9,1.3-3.38,4.25-3.72,7.46-3.05a25.6,25.6,0,0,0,5.85.89C93.13,809.93,95.31,807.65,93,805.65Zm-19.64-15.6c0.82-.83,2-2.37,2.56-2.2,1.84,0.54.75,2.5,1.14,3.81-1.55-.88-3.25,4.69-4.71-0.11A9.38,9.38,0,0,1,73.31,790.05Z"/></g></svg>