<svg id="图层_1" data-name="图层 1" xmlns="http://www.w3.org/2000/svg" xmlns:xlink="http://www.w3.org/1999/xlink" viewBox="0 0 300 300"><defs><style>.cls-1{fill:url(#新建渐变色板_1);}</style><linearGradient id="新建渐变色板_1" x1="150" y1="287" x2="150" y2="-5.03" gradientUnits="userSpaceOnUse"><stop offset="0" stop-color="#fff"/><stop offset="1" stop-color="#818181"/></linearGradient></defs><title>主站</title><path class="cls-1" d="M72.17,78.3h29.1l8.1-12q2.09-3.3,4.5-3.3t15.3,8.1q12.9,8.1,12.9,12.15t-11.4,8.55V224.7q0,13.2.3,18.6l0.3,10.2a4.3,4.3,0,0,1-.75,2.55q-0.75,1-5.4,3.3a97.14,97.14,0,0,1-11.4,4.5q-6.75,2.25-8.4,2.25t-1.65-3.3V243.9H54.77v17.7a5.78,5.78,0,0,1-2.7,5.1q-2.7,1.8-11.85,5.25t-11.7,3.45q-2.55,0-2.25-3.6a275.83,275.83,0,0,0,1.5-29.7V89.1q0-12.6-.9-25.5a168.41,168.41,0,0,1,30.3,13.8q9-40.8,9.3-66.3a156.86,156.86,0,0,1,24.9,7.2q11.7,4.5,13.5,6a4.3,4.3,0,0,1,1.8,3.3q0,3-4.8,4.2-3.6.9-8,7.65T72.17,78.3Zm31.5,77.1V87.9H54.77v67.5h48.9Zm0,78.9v-69H54.77v69h48.9ZM185,84q-12.9,26.1-45.6,69.3l-5.1-3.3q18.6-40.5,27.75-68.85T179.87,7.8q13.79,4.8,24.3,9.3t12.75,6.15A4.67,4.67,0,0,1,219.17,27q0,2.1-5,3.3t-6.6,3.6q-1.65,2.4-7,15.45T189.77,73.8h40.8l8.1-12.3q2.7-3.9,5.55-3.9T260.42,67q13.34,9.45,13.35,13.35t-12.6,9.3q-2.1,93.9-3.3,123.3t-3.15,40a46.92,46.92,0,0,1-8,19.05q-6,8.4-18.3,14.25t-17.4,5.85q-2.41,0-3.6-4.5-2.4-8.4-6-13.2t-12.3-9q-8.7-4.2-26.4-9l1.5-6.3q35.7,5.1,45,5.1T222,253.35a10,10,0,0,0,4.65-6.45q1.2-4.5,2.4-20.85t2.4-53.1q1.2-36.75,1.5-89H185Zm-20.7,54.3q21.6,15.6,30,23.4t11.1,11.4q2.7,3.6,2.7,9.6a29.4,29.4,0,0,1-6.9,19.2q-6.91,8.4-11.25,8.4t-6.15-12.45a125.21,125.21,0,0,0-7.95-27.9A126,126,0,0,0,161,142.5Z"/></svg>