<svg id="图层_1" data-name="图层 1" xmlns="http://www.w3.org/2000/svg" xmlns:xlink="http://www.w3.org/1999/xlink" viewBox="0 0 300 300"><defs><style>.cls-1{fill:url(#新建渐变色板_1);}</style><linearGradient id="新建渐变色板_1" x1="150" y1="287" x2="150" y2="-5.03" gradientUnits="userSpaceOnUse"><stop offset="0" stop-color="#fff"/><stop offset="1" stop-color="#818181"/></linearGradient></defs><title>主站</title><path class="cls-1" d="M60.6,153.6A344.4,344.4,0,0,1,14.1,195l-4.8-5.1q25.8-29.09,42.15-53.55T84.6,75.6Q105.9,86.7,110.4,90t4.5,5.4q0,2.7-4.5,3.45a14.69,14.69,0,0,0-6.9,2.7q-2.41,2-7.35,9.3a178.19,178.19,0,0,1-11,14.55q3.6,2.4,3.6,4.35t-3.9,4.65V276.6a5.69,5.69,0,0,1-1.5,4.2q-1.5,1.5-10.2,5T60.9,289.2c-1,0-1.5-1.1-1.5-3.3L60.3,258q0.29-13.21.3-25.2V153.6ZM80.4,10.8a157.7,157.7,0,0,1,21.3,14.1q9,7.2,9,10.2t-5.4,3q-5.4,0-8,1.35T81.9,54.15Q69,67.5,55.95,78.75T16.8,109.2l-4.8-6A379.4,379.4,0,0,0,80.4,10.8Zm93,135.9H149.1v97.8L190.2,228l3.3,6.3q-22.21,15-37.2,27t-22.2,23.1a2.71,2.71,0,0,1-2.4,1.8q-2.7,0-9.3-8.7a96.47,96.47,0,0,1-10.2-16.2q11.4-14.1,11.4-28.8V49.8q0-15-.6-26.7a120.46,120.46,0,0,1,29.1,14.7h65.4l9-11.4A4.25,4.25,0,0,1,230,24.3q1.95,0,11.25,5.55t14.4,9q5.1,3.45,5.1,6.15T248.1,55.2v64.2q0,12.3.3,18t0.3,6.75c0,0.7-.85,1.6-2.55,2.7s-5.4,2.5-11.1,4.2-10,2.55-12.75,2.55c-1,0-1.5-.8-1.5-2.4v-4.5H183.9q10.2,32.4,21.6,50.1a315.56,315.56,0,0,0,44.7-41.4q12.9,9.6,20.25,16.05t7.35,8.7a2.43,2.43,0,0,1-2,2.7,46.47,46.47,0,0,1-8.25.45,30.35,30.35,0,0,0-13.5,3.6,421.37,421.37,0,0,1-42.3,19.2q23.1,30.6,78.9,50.1v6.9q-16.2-.6-22.2,2.1t-12,11.1a5.53,5.53,0,0,1-4.8,2.7q-9,0-39.3-32.25T173.4,146.7ZM149.1,86.1h71.7V47.7H149.1V86.1Zm71.7,10.2H149.1v40.5h71.7V96.3Z"/></svg>