<svg id="图层_1" data-name="图层 1" xmlns="http://www.w3.org/2000/svg" xmlns:xlink="http://www.w3.org/1999/xlink" viewBox="0 0 300 300"><defs><style>.cls-1{fill:url(#新建渐变色板_1);}</style><linearGradient id="新建渐变色板_1" x1="150" y1="287" x2="150" y2="-5.03" gradientUnits="userSpaceOnUse"><stop offset="0" stop-color="#fff"/><stop offset="1" stop-color="#818181"/></linearGradient></defs><title>主站</title><path class="cls-1" d="M109.2,91.8l12.3-16.5q2.4-3,4.5-3,4.2,0,16.65,11.4t12.45,15q0,2.41-5.7,2.4H26.1q-8.1,0-12.6,2.1L8.1,90.3a65.28,65.28,0,0,0,15,1.5h86.1Zm-37.5,129q17.4-64.5,26.7-110.7,33.9,13.8,33.9,18.9c0,1.2-1.3,2-3.9,2.4a15.65,15.65,0,0,0-6,2,11.38,11.38,0,0,0-3.45,3.45,43.37,43.37,0,0,0-2.85,5.4l-11.4,29.1q-10.5,25.81-19.5,46.2L129,207l1.8,6.3-59.1,27Q42.3,253.8,32.1,261q-3,2.1-4,2.1a2,2,0,0,1-1.65-.75q-0.6-.75-5.4-10.5T11.7,232.2Q43.8,227.1,71.7,220.8Zm-35.4-108q18.6,24,27.6,39.15t9,26a37.49,37.49,0,0,1-6.6,20.85Q59.7,208.8,52.8,208.8q-3,0-4.35-3.45T46.5,188.1q-0.6-13.8-5.4-36.6T30.6,116.4Zm15.6-96Q96,40.5,96,59.4q0,7.5-5.85,15T76.8,81.9q-3.6,0-5-2.1t-4-15.15A114.28,114.28,0,0,0,61.5,43.2q-3.6-8.4-13.8-22.5ZM185.1,162.3V40.2q0-23.1-.6-28.2a251.12,251.12,0,0,1,25.8,5.7Q222,21,224.4,22.2t2.4,2.4q0,3-15,9.9V89.1h33.6l12-14.4q3.3-3.9,6.75-3.9t15.6,11.55Q291.9,93.9,291.9,96.45T287.1,99H211.8v63.3h25.8l8.1-11.1q2.1-2.7,4.35-2.7t15.75,9.15q13.5,9.15,13.5,12.3t-12,10.35v76.8q0,6.3.3,10.8l0.6,7.5q0,2.09-3.45,4.2a78.18,78.18,0,0,1-11.85,5.25Q244.5,288,241.2,288c-1.2,0-1.8-1-1.8-3V258.3H172.2v15.9q0,3-.9,3.9t-6.75,3.9a55.49,55.49,0,0,1-11,4.35,37.36,37.36,0,0,1-6.3,1.35q-1.2,0-1.2-2.4l0.3-10.5q0.3-4.8.3-10.2V173.1q0-12.6-.9-25.5,12.3,3.9,29.4,14.7h9.9ZM239.4,249V171.6H172.2V249h67.2Z"/></svg>