<svg id="图层_1" data-name="图层 1" xmlns="http://www.w3.org/2000/svg" viewBox="0 0 200 1387.53"><defs><style>.cls-1{opacity:0.05;}.cls-2{fill:#fff;}</style></defs><title>主站</title><g class="cls-1"><path class="cls-2" d="M89.61,568a1.73,1.73,0,0,1-.17-0.3l-0.06.1Z"/><path class="cls-2" d="M85.37,241.84c8.93,0.47,15.44,2.42,20.73,7.15,2.79,2.49,4.88,2.64,7.7.19,1.43-1.24,3.73-1.43,5.34-2.53,4.41-3,8-1.92,11.47,1.6,4.65,4.7,4.74,8.31-1.26,11.89-6.66,4-9.41,9.84-11.18,16.76-2.69,10.51,2,16.52,13,16.45a51.94,51.94,0,0,0,12.79-1.48c8.4-2.16,8.47-1.85,6.49-9.93l-0.87-3.55c5.95,2.79,9.14,7.89,13.49,11.53,4.61,3.87,2.85,10.35-2.95,12.41a61.94,61.94,0,0,1-36.32,1.46c-10.26-2.56-17.87-17.24-15.92-29.2,0.27-1.63.88-3.2,1.22-4.82,0.26-1.23,1.08-2.49-.54-4.43C99.24,285.94,90.22,306.66,64.06,315c10.85-14.18,22-25.71,27.81-42.17-7.43,2.72-13.42,6.38-20.23,7.29-7.2,1-11.71-4.09-9.67-10.81,0.46-1.51,1.51-4.17,3.71-.9,0.8,1.19,2.3,1.06,3.61.58,8.11-3,16.35-5.7,24.28-9.12,4.31-1.86,2.49-5.4.46-8.06C91.62,248.63,88.84,245.78,85.37,241.84Z"/><path class="cls-2" d="M81.16,717.4c-11.85-7.23-2.43-17.23-4.46-25.79-2.7,2.17-4.69,5-6.77,7.8-7.51,10.14-17,18.32-26.56,26.41-1.83,1.54-3.75,3.37-6.11,1.91C34.55,726,35,723.29,36,720.6a19.18,19.18,0,0,1,7.68-10c13.81-9.34,22.15-23.63,32.15-36.41,1.58-2,1.94-3.8.28-6.24-1.79-2.64-2.79-5.81-4.18-8.85,1.11-.19,1.72-0.33,2.33-0.39,3.72-.37,7,4.39,9.72,2.72,3.41-2.11,5.44-6.48,9.15-11.28-10.36,2.84-14.42-3.9-20.09-9.6,7.15-2.41,14-2.54,20.63-2.92,6.14-.34,9.63-2.63,11.65-8.65,2.44-7.28,3.73-7.34,10-1.77,2.08,1.86,4.69,2.46,7,3.8,4.08,2.41,4.17,5.81.16,8.29a8.3,8.3,0,0,1-3.71,1.29c-9,.5-14,6.46-18.66,13.1-0.94,1.36-1.7,2.87-2.76,4.13C86.84,670.24,83.42,684.57,85,700.52,85.6,706,86,711.88,81.16,717.4Z"/><path class="cls-2" d="M114.16,703.69c6.28,0.46,10.11-1.93,14.19-2.89,3-.71,5.92-1.22,8.78,0,2.65,1.08,4.48,3.11,3.82,6.22-0.5,2.39-1.9,4.59-4.64,4.43-10-.59-19.81,1.44-29.71,2.1A8.74,8.74,0,0,1,98,709.13c2.32-3.55,6-1.09,8.78-2.12-0.18-2-4.38-2.86-.8-6.17,4.55-4.21,6.17-10.06,4.52-16.46-0.66-2.57-1.63-3.87-4.65-3.49-5.25.66-10.52,0.53-15.68-1.89l15.54-6.14c4.39-1.73,6.68-4.3,3.81-9.09-1.06-1.77-1.76-3.6.28-5.27a5.43,5.43,0,0,1,6.54-.43c4.53,2.8,7.68,7.92,14,7.67,1.38-.05,1.48,2.09,1.3,3.36-0.33,2.43-1.72,5.13-3.8,5.49-7.1,1.22-7.46,6.75-7.86,11.83A34.86,34.86,0,0,1,114.16,703.69Z"/><path class="cls-2" d="M60.29,747.54c7,0.57,10.89,3.16,13.88,7.43,3.31-2.83,5.26-6.26,7-9.82-1.27-2.64-5.61-.43-6.13-4.44,4.26-.3,7.88-4.47,12.82-1.2,4.7,3.11,5.06,5.11,1.92,10.17-2.62,4.22-6.72,7.1-9.94,11.1,2.92,2.1,5.39,1.43,7.84.62,1.89-.63,3.7-1.68,5.63-2s4.66-2.26,6.13.85-1.06,4.42-3.21,5a4.9,4.9,0,0,0-4,3.84c-0.23.94-.62,2.31-0.17,2.85,1.61,1.92,1.71-.68,2.47-1.14,2.13-1.31,3.88.25,5.68,0.61,3.22,0.65,3.83,4,1.32,4.83-9.2,3.24-16.45,9.52-24.58,14.39a6.43,6.43,0,0,1-1.48-1c4.66-4.5,3.62-9.11-1.92-13.92,5.55-.37,9.86.73,13.59-2.09,1.48-1.12,2.69-1.8,2-3.75-1.4-3.76-11-7-14.16-4.49-6,4.85-12.41,8.59-21.27,10.07,4.07-3.6,7.07-6.86,10.64-9.27,4.93-3.33,4.2-6.7,1.23-10.71C64,753.39,62.63,751.11,60.29,747.54Z"/><path class="cls-2" d="M97.33,748.43c6.36,1.38,10.69,6,16.58,9.69,3.8-4.74,10.91-7.13,8.73-15.54,6.55,3.81,6.55,3.81-2.64,18.35,3.86,4.16,9.06,5.32,14.31,6.23a34.2,34.2,0,0,1,10.29,3.51c1.12,0.59,1.36,2.17,1.13,3.59-0.28,1.7-1.54,2.14-2.89,2-6.25-.63-12.79-0.52-18.28-4C114.28,765.77,106.23,756.64,97.33,748.43Z"/><path class="cls-2" d="M75.22,876c5.09-1.19,7.57.67,9.07,4,1.23,2.73,1.76,5.47,6.17,4.67,1.53-.28,3.52,2.88,1.57,5.5a4.11,4.11,0,0,1-1.27,1.49c-4.3,1.7-1.31,6.15-3.28,8.56-2.77,3.39-4.89-2.44-7.9-.76s-6.12,2.73-9.54,2c-2.9-.6-5.74-1.49-9.37-2.46,4.46-2.61,8.46-4.94,12.45-7.29,7.66-4.51,7.92-5.31,4-13A27,27,0,0,0,75.22,876Z"/><path class="cls-2" d="M108.11,729.46c3.61-1.14,5.73.69,7.82,2.23s2.08,3.8.18,5c-4.51,2.89-7.62,8.26-15.2,8.48C105.11,740,108.6,735.33,108.11,729.46Z"/><path class="cls-2" d="M102.35,579.25c-1.31,2.62,1.64,8-3.19,7.88-4.6-.12-4.12-5.2-3.89-8.76,0.17-2.61.45-5.47,1.66-7.68s-2.73-7.26,2.37-6.85c4.11,0.33,1.24,4.92,1.93,7.5A63,63,0,0,1,102.35,579.25Z"/><path class="cls-2" d="M102.41,561.23c5.76-2.52,9.07-2.46,10.33,3.57,0.6,2.88,2.11,5.56,3,8.4a3,3,0,0,1-1.59,3.35c-1.37.86-2.55,0.14-3.43-.9-1.07-1.25-2.68-2.57-2.82-4A15,15,0,0,0,102.41,561.23Z"/><path class="cls-2" d="M95.79,784.47c13.46,1.09,15.37,1.85,19.26,6.78-6,2.9-11.54-1.54-17.45-1.07C94.6,790.42,99.45,785.94,95.79,784.47Z"/><path class="cls-2" d="M143.45,535.3c6.63,1.63,11.11,2.6,15.51,3.86,2.56,0.73,4,2.81,3,5.34-1.22,3.18-3.72,2-5.72.78C152.08,542.72,147.48,540.71,143.45,535.3Z"/><path class="cls-2" d="M146.09,1176a17.56,17.56,0,0,0-13-3.42,251.5,251.5,0,0,1-53.06.3c13.21-9.27,24-17.9,38.16-20.73,3.48-.7,6.78-2.48,10.05-4a4.85,4.85,0,0,0,2.78-4.89c-0.18-2.15-1.61-3.32-3.79-4-3.69-1.12-7.38-1.14-10.48.93-5.08,3.4-10.16,6.66-16,8.5l0-.06c-6.27,1.71-20.5,6.46-26.85,7.79-2.4.5-6.91,3.56-6.67-3,0-.71-1.18-1.13-2.23-0.34-2.48,1.89-3.63,7.37-1.56,9.86s5.59,4.28,7.76,2c4.63-4.74,14.82-8.67,23-11.61-6.91,9.52-15.34,16.75-28.26,16.6a8.42,8.42,0,0,0-5.44,2.15c-1.89,1.51-3.42,3.34-2.43,6,0.88,2.35,3.15,2.16,5.06,2.15,3,0,5.95-.34,8.92-0.52,5-.29,10-0.75,14.74,1.33,19.06,8.41,38.31,5.23,57.6,1.12,1.28-.27,2.74-0.31,3.17-1.81A3.81,3.81,0,0,0,146.09,1176Z"/><path class="cls-2" d="M101.22,1136.86c-5.48-3.25-12-4.55-15.48-3.43-3.06,1-2,3.95-4.15,6A38.15,38.15,0,0,0,101.22,1136.86Z"/><path class="cls-2" d="M89.38,567.82c1.44,5.57-.74,11.12-0.14,16.71a3.43,3.43,0,0,1-3,3.42c-1.7.1-2.89-1.58-3.16-3.29C82,577.86,83.4,572,89.61,568Z"/><path class="cls-2" d="M110.54,56.09c10.11-3.65,18.47-8,27.74-10.7,3.27-.94,9.29-1,8.79-6.23-0.41-4.28-6.07-4.48-9.26-6.68-1.23-.85-2.68-0.31-3.65,1.78-4.06,8.75-12.47,12.5-20.62,18.29a27.42,27.42,0,0,1,4.25-16.38c2.84-4.82.34-9.31-5.14-10.08-3-.41-6-0.46-8.77,1.07-3.81,2.11-7.94,3.29-14.45,3,5.79,3.73,9.22,6.3,13.6,7.17a2.61,2.61,0,0,1,2.28,2.78c0,1.8-1.14,2.29-2.59,2-4.67-1-7.38,2-10.35,4.73-5,4.48-10.64,8-16.31,11.43-3.43,2.1-3.47,2-8.45.75,4,9,10.77,10.94,20.35,5.2L81.37,75.78h0c-2.66,3.8-6.9,6.51-8.69,13.45,4.87-3.45,7.29-4.81,10.85-9.32C90.78,73,95.16,63.65,103.05,56.34c1.17,6.34,1.89,12.11,1.11,16.85-1.18,7.18,4.44,17.34-7.67,20.73,3.14,3.66,5.71,6.65,8.25,9.65,1.17,1.38,2.61,2.22,4.33,1.49a4.08,4.08,0,0,0,2.34-4.07c0-3-.13-6-0.1-9,0.09-7.78-1.6-15.63.64-23.7,3.12,1.67,4.18,4.64,5.84,7a40.23,40.23,0,0,0,23.27,16c8.62,2.31,15.83,0,23.2-4.83C146.44,77.16,125.95,72.88,110.54,56.09Z"/><path class="cls-2" d="M107.36,15.84c3.06,2.38,6,2.13,9.16.35,3.61-2.05,1.1-4.88.45-6.94C114.45,1.12,111.29-.55,99.8.14A24.52,24.52,0,0,1,104,10,9.6,9.6,0,0,0,107.36,15.84Z"/><path class="cls-2" d="M143.7,403.27a6.67,6.67,0,0,0-4.63-5.92c-3.45-1.19-6.87-2.46-10.33-3.64-9.17-3.11-16.32-7.64-13.36-19.76,3.12-.17,6.49-1.78,10.15-0.63s3.94,0.11,5.28-3.71c1.69-4.84-.51-4.54-3.17-5.82-3.7-1.8-7.46-1.52-11.64-.53-0.26-4.15.33-7.72-2.37-11.1,4.83-.7,8.56-2.14,11.91-1.52,4.87,0.9,4.71-2.77,5.62-5.06,1.27-3.16-1.66-3.68-3.83-4.5-4.72-1.77-8.85-1-13.24,1.61-3.47,2.07-8.67,5.6-11.68,2.19-4.81-5.42-9.78-3.4-16.11-3.56,4.46,7.36.05,10.84-4.58,14.57-2.77,2.23-6.69,3.59-8,7.77,5.5,0.84,9.43-1.22,13.18-4.32A35.31,35.31,0,0,1,95.25,354c2.59-1.12,5-.8,5.71,3.12,1.85,10.81,1.21,12-9.5,15.38-3.8,1.18-7.57,2.44-11.36,3.64-1.87.59-3.65,1.51-5.77,0.76-1-.36-1.5-4-3.14-0.76a3.2,3.2,0,0,0,.8,3.66c2.06,2,4.68,3,7.31,2.18,5.5-1.74,6.81,3.17,9.19,5.75,3.09,3.34-2.33,4.67-2.66,7.7,4.45,0,8.5,1.63,14.11,3.88A118.47,118.47,0,0,1,67,410.29c-3.88.64-4.41,1.8-4,4.62,0.94,7.22,8.34,10.77,14.32,6.83A73.94,73.94,0,0,1,95.08,413c1.21-.4,2.89-1.84,3.58-0.65,4.46,7.66,2.12-5.39,6.44,0,0.25,15.73,1.57,33.11,6.08,50.81,1.24-3.78,5.52-5.4,5.93-9.76,0.62-6.59,2.37-13,2.21-19.74-0.18-8-.7-15.86-1.58-23.77-0.7-6.35,1.81-8.67,7.86-7.47,2.21,0.44,4.21,1.88,6.35,2.75a44.43,44.43,0,0,0,7.44,2.72C142.95,408.63,144.18,406.66,143.7,403.27ZM103.34,385c-3.54.56-4.3-1.78-5.84-2.83-1.37-.93-2.66-2.19-1.24-4,1.1-1.37,2.8-1.57,4.47-1.59,2.25,0,2.59,1.5,2.61,3.25S103.34,383,103.34,385Z"/><path class="cls-2" d="M155.43,163.07c2.87-4,1.28-7.65-1.37-10.81s-5.4-5.61-10.27-3.88c-5.09,1.81-9.53,4.73-14.11,7.35-3,1.7-5.16,2.51-7.74-.25-3.65-3.92-7.55-2.92-11.39-.27-2.21,1.52-3.15,1.27-6-.32-5.55-3.08-5.89-8.37-8.58-12.51,1.85-2.45,7.67-.68,6.69-5.73-0.79-4.07-5.14-3.58-8.19-4.37a10.77,10.77,0,0,0-7.74,1.11c-5.75,3-11.25,6.3-15.31,11.88,5.59,1.67,9.16-4.87,14.33-2.7a27.14,27.14,0,0,0,0,3.27c1.36,10.27,1.36,10.26-7,14.86-12.15,6.67-24.52,12.88-37.83,17.65,8.2,6.64,12.91,7.25,21,2.41,6.27-3.74,12.31-7.86,19.56-12.52C79.74,175,77,179.44,74.3,184s-2.46,9.28,1.73,12.5a24.33,24.33,0,0,1,7.66,9.85c0.86,1.93,2.17,4.25,5.27,3.5,5.37-6.41,4.36-14.3,4.9-21.83,0.25-3.55-.51-7.09,2.15-10.41,4.93-6.16,9.28-12.79,16.55-17.89,2.87,4,2.28,8.05,2.28,12,0,4.64-.06,9.31.4,13.92a7.46,7.46,0,0,0,4.84,6c2.67,1.07,4.44-.83,5.25-3.18,1-3,3.37-2.82,5.67-2.79,4,0,8-.56,11.83,1.07,2.57,1.1,5,2.21,6.75-1.17,1.22-2.4,2.79-5.19-.1-7.14-4.07-2.74-1.73-4.82.09-7.22C151.57,168.47,153.5,165.77,155.43,163.07ZM132.8,173.8c-1.13,1.92-2,4.36-5.08,3.48-1.49-.43-1.87-1.84-1.94-3.12-0.14-2.51-1-5.33,2.34-6.74,2.4-1,4.78-2,8.1-1.53C135.86,169.5,134.12,171.56,132.8,173.8Z"/><path class="cls-2" d="M144.34,1071.27c-16.23-3.81-26.34-16-37.37-25.79,2.42-4.86,9.36-1.07,9.24-5.58-0.13-5.18-6-3.43-9.65-4.13-0.89-.17-1.28-0.36-1.11-0.91,1.29-1.91,6.23-.69,4.68-4.71-1.09-2.82-4.09-3.13-6.89-2.07-1.86.7-3.61,1.75-5.5,2.35-2.06.66-3,3.59-5.74,2.92-0.83-2.3.74-3.08,2.15-3.82,2.93-1.54,6.14-2.63,8.82-4.51,3.73-2.61,1.47-4.25-1.44-5.43a9.66,9.66,0,0,0-7.49,2.94c-1.27-4.34-1.49-7.74,1.1-10.87,0.84-10.6.79-10.66-9-11.09,1.69,5.46,0,10.81-.26,16.23-0.34,7.27-2.64,11.93-11,12,2.94,2.57,8.12-.46,8.45,4.69,0.3,4.6-3,6.84-6.67,8.95-2.64,1.5-5.81.85-8.27,2.7,3.87,2.76,8.17-.68,13,0.71-5.59,8.07-15.2,7.59-21.54,12.91,6.82,1.32,12.23-4.49,19.12-3.77-5.32,19.9-13.78,37.36-27,52.33-0.88,1-2.17,1.53-1.14,3.06s2.35,1.11,3.36.15c3.08-2.95,6.63-5.27,9.59-8.48,7.47-8.1,11.62-18.07,17.49-29.33a138.23,138.23,0,0,1-.23,23.27c-0.28,3.23-.1,7.53,4,7.68,3.14,0.11,2.34-4.08,2.94-6.5,0.23-.93,0-2,2-3,4.51,1.75,9.84-2,15.55,1,5.17,2.75,7,.88,6.55-5.19a26.24,26.24,0,0,0-1.11-5.87c-2.17-6.71-1.63-13.34-.18-20.68,3,2.81,5.34,5.11,7.8,7.28a47.11,47.11,0,0,0,23.08,11c4.31,0.79,8.73-2,9-5.65C150.78,1071.87,147.16,1071.93,144.34,1071.27Zm-53.13-31.71a2.82,2.82,0,0,1,3.29,1.31c-0.35,1.3-.86,2.45-2.33,2.89s-2.76.32-3-1.29A2.44,2.44,0,0,1,91.21,1039.56Zm-5.13,23.85c-0.74-11.84.46-14.1,7.36-16.54,3.1-1.1,5.07-.18,7,1.95,1.32,1.45,1.76,3.16-.09,4.12C95.14,1055.66,92.1,1061.45,86.08,1063.41ZM101.61,1084c0.2,3.64-9,9.14-12,7.5s-1.63-4.7-1.83-7.19c-0.18-2.24.75-3.91,3.22-4.12,1.65-.14,3.33,0,5-0.13s3.55-.35,3.41-2.58c-0.13-2-2.09-2.29-3.59-2.88a2,2,0,0,0-1-.26c-3.1.54-6.67,2.57-7.7-2.77-1-5,4.15-3.13,5.69-5.2,1.93-2.6,4.87-2.89,7.73-5C102.75,1069.62,101.22,1076.89,101.61,1084Z"/><path class="cls-2" d="M99.47,490.78c-0.23,2.28-.28,4.58-0.42,6.88h0l1.06,11.23c2.47-6.87-1-13.61,4.1-19.18,1.06,7.16-3.51,14,1.19,20.12h0l2.05-2.23h0l-0.2.17h0c-1.57-2.47-.86-4.77-0.07-7.41,1.22-4,2.55-8.09,2.61-12.44,0.09-6.09-1.26-7.78-7.13-8-3.78-.15-7.18.51-9.05,5.06C97.44,485.14,99.88,486.65,99.47,490.78Z"/><path class="cls-2" d="M165,599c-2-6.8-3.32-13.94-7.05-20.83-2.21,4.78.7,9.68-3.28,13.44-5.48-1.79-9.2-6-13.2-9.93-5.49-5.34-9-10.81-6.62-19.35,1.58-5.75.76-12.28-4.86-18.66,0.56,7.16,1.07,12.84-2.19,18.8-5.35-7.27-7.3-15.68-14.77-21.81,5.8-1.56,9.76-.85,13.65-0.94,1.4,0,2.72-.25,3.22-1.73,0.65-1.92-.53-3.17-2-4a22.09,22.09,0,0,0-3.73-1.39c-4-1.37-7.91.76-11.58,0.51-4.71-.32-1.53-8.4-6.93-9.66-0.86-.2-1.58-1.19-0.64-2.82,5.83,0.06,12.6-4.54,17.39,3.41,0.92,1.52,1.7,3.61,4.53,2.4s3.06-3.4,2.78-5.72c-0.49-4-1.41-7.85-2-11.79-1.68-10.47-3.18-11.62-15.27-10.88,4.8,3.41,6.12,7.64,4.63,12.9l-9.64-3.16c-0.8,2.37,3.33,3.33,1.83,5.9-2.52,3.11-4.65,2.74-6.44-.71-2.56,4.62-3.68.78-5.17-.88,0,3.35-.77,6-5.11,5.6-1.68-2.68.33-5.84-1-8.5a4.67,4.67,0,0,0-5.71-2.73c-1.18.3-3,1.22-2.3,2.42,4.07,6.65-1.36,9.59-5,13.09-2.07,2-4,3.85-1.93,6.68s4.71,1.12,7.11,0c3.56-1.63,3.57-1.58,9.05.75a2.8,2.8,0,0,0,1.93.14c7.15-2.93,8.27,2,10,7.44l-15.54,5c-7-7.24-8,4.34-12.73,4a3.2,3.2,0,0,1-.92-0.38c-1.45-1.9-3.33-4.59-5.56-2.53-1.22,1.13,1,3.8,2.88,5,2.05,7.2.73,14.42,0,21.62-0.34,3.37-1.64,8.1-4,8.55-6.32,1.2-3.75,4.86-3,7.77,0.62,2.41,1.54,5.61,4.72,5.65a7.6,7.6,0,0,0,7.6-5.31c1.22-3.34,3.88-6,3.82-10-0.05-3.24,1.08-6.48,1.27-9.74s3.18-3.9,4.86-3.69c2.28,0.28.67,3.07,1.39,4.72,3.92-7.58,10.67-10.89,18.61-12.94,5-1.29,7.22-.06,10.33,4.33,6.35,9,5.62,16.29-1.94,23.62-0.56.54-1.59,1.1-1,2.36,2.5,0.64,4.3-1.17,6.24-2.13,8.86-4.37,8.82-4.45,14.94,3.31,0.62,0.78,1.08,1.69,1.73,2.45a44.39,44.39,0,0,0,21.33,14.07C164,604.13,166.12,602.81,165,599Zm-56.95-50.45q-10.13,5.32-20.32,10.51c-1.88,1-4,1.65-4.46-1.36-0.28-2-2.53-4.84.9-6,7.58-2.5,14.51-6.38,21.76-9.59,3.18-1.41,3.69,1.68,4.48,3.8C110.69,547.77,109.1,548,108.05,548.56Z"/><path class="cls-2" d="M143.72,813.88c-0.36-2-2-2.41-3.74-2.55-3.29-.26-7.34,1.19-9.75-1-9.24-8.26-20.34-6.9-31.24-7.06-14.26-.21-26.86,6-40.21,9.64a113.24,113.24,0,0,1,17.7,6.19c-2.28,8.49-9.21,10.21-16.83,11.36,8.14,4.53,16,4.6,23.94,3,1.3,6.66-1.35,9.43-7.24,11C67.56,846.77,59,850,49.87,853c7.78,5,14.72,7.47,24.17,3.52,14.7-6.15,30.49-8.57,46.57-8.3,2.2,0,5.09.83,6.1-1.93,0.91-2.47,1.06-5.32-1.39-7.35-2.23-1.85-5.73-3.27-3.25-7,1.58-2.37,3.47-3.8,5.71-6.5,2.64-3.19,7.36-7.31,13.44-6.82C142.86,818.8,144.12,816.1,143.72,813.88Zm-49,24.27c1.76-10.28,2-10.41,16-10.39C110,836.48,110,836.48,94.73,838.16Zm17.75-19.22a22.33,22.33,0,0,1-11.66,3.35c-1.26.11-3.17-.78-3.8-3.56-0.82-3.62,2.41-3.47,4.26-4.16a79.66,79.66,0,0,1,8.6-2.17c1.78-.45,3.31-0.14,4.25,1.52C115.39,816.13,114.21,817.91,112.48,818.94Z"/><path class="cls-2" d="M84.6,1259.67a3.32,3.32,0,0,0,1.12-4.39,5.35,5.35,0,0,0-4.89-2.89c-1.7,0-1.54,1.57-1.88,2.83-1.58,5.75-4.49,10-11.14,9.54-1.74-2.77.08-4.44,1.3-5.64,3.34-3.31,4.56-7.92,7.68-11.45,1.88-2.13,4.13-6.28,1.58-9-3.06-3.25-6.85-1.24-9.7,1.37-4.17,3.82-8.19,7.81-12.17,11.82s-7.85,7.76-13.87,8.57c4.16,4.83,9.28,4.69,16,3.35-6.22,13.34-15.47,23-22.9,33.83,14.14-5,17.85-20.27,30.21-30.46-3.75,12.19-.34,23-5.64,32.93-2.24,4.18.18,8.46,2.92,11.92,1.56,2,3.81,1.85,4.24-.88,0.57-3.58.26-7.3,0.51-10.94,0.63-8.94,1.37-17.87,2.18-28.24,3.84,3.57,6.29,5.8,8.68,8.08,1.62,1.55,3.6,2.16,5.39.9s1.59-3.54,1.1-5.52c-1.22-4.94-5.91-6.43-9.74-8.8C78.11,1263,81.67,1261.77,84.6,1259.67Z"/><path class="cls-2" d="M62.71,1230.71c6.2,1.52,11-1.15,16.82-1.84-3.34-8.84-9.66-9.63-18.09-9.8C65.29,1223.32,64,1227.05,62.71,1230.71Z"/><path class="cls-2" d="M121.94,1232.17c-8.37,2.4-16.58,5.39-25.73,8.4,6.74,6.32,5.78,13,3.78,20.52a102.29,102.29,0,0,1-11.38,26.26c7.11,0.42,11.4-3.2,15.6-7.22,6.39,6.26,3.79,15.64,10.3,21,2.5-3.06,6.71-4.5,8.35-8.32,6.69-15.59,10.92-32,14-48.55C138.66,1234.7,131.53,1229.43,121.94,1232.17ZM117.1,1280c-0.8,2.59-3.2,2.37-4.87,1.13-2.32-1.72-7.36-1.65-5.59-6.58,3.12-8.71,6.67-17.28,6.86-26.74,0-1.55,1.3-2.07,2.66-2.41,2.83-.71,5.44-2.46,9.29-1.69C125.25,1256.36,120.77,1268.11,117.1,1280Z"/><path class="cls-2" d="M135,1333.35c-1.18-6-5.77-5.73-9.5-6-5.69-.4-11.26-1.08-16.47-3.47-8.63-4-17.22-8-25.83-12.06,1.37-3.58.61-5.83-3.67-6s-2,2.75-2.41,4.66a42.64,42.64,0,0,1-3.33,9.15c-5.92,12.39-14,23.35-22.88,33.74-2.81,3.28-5.47,6.69-8.29,10s-5.55,6.23-8.32,9.35l1.55,1.35c9.44-8.67,19.48-16.65,27.93-26.25,6.26,4.26,10,9.31,9.43,16.8a3.75,3.75,0,0,0,1.68,3.42c2.49,2.54,4.9,5,3.9,9.17a14.89,14.89,0,0,0,0,5.91c0.53,3,.82,5.33,5.66,4,5.71-1.55,12.08-3.67,17.91.45,3.81-7.19,5.38-14.47,3.7-22.54-0.91-4.37-1.71-6.08-4.84-6.2,3.32-10.73,6.54-19.56,8.13-28.86-3.8.08-7.38-.44-10.71,3.11-2.82,3-7.61,3.71-11.85,4.42a41.93,41.93,0,0,0-14.46,5.46c1.71,3.94,3.78,2.81,6.24.92,1.69-1.29,3.84-1.82,4.69,1,0.68,2.25-.4,3.89-2.76,4.4-2.56.55-5,1.57-7.81,0.82-6-1.62-7.29-4.55-3.82-9.75,2.4-3.59,3.82-8,10.32-6.44,4.52,1.11,5.88-.8,10.47-7.28-5.38-2.63-8.72,4.33-14.26,2.9,0.55-4.65,4.47-8.11,4.41-12.79a7.89,7.89,0,0,1,6.82,0c7.78,4.15,16.45,6.8,22.88,13.28h0l-0.11-.32h0C117.85,1331,125.75,1336.55,135,1333.35Zm-38.79,46.94a39.84,39.84,0,0,1-8.3,3.28c-2.06.61-5.09,1.78-5.6-1.58-0.38-2.5.5-5.39,4-5.73,2.65-.25,5.31-0.38,7.39-2.39,0.86-.83,2.27-1.35,1.53-3.35-3.31,1.21-6.56,2.5-9.9,3.53a3.06,3.06,0,0,1-2.63-.83c-1-1.25.07-2.35,0.84-3.38,1.83-2.47,6-1.34,7.25-4.67H90.77l0.07,0v0c2.89-.4,6.34-3.65,8.17,1.5C100.74,1371.56,99.47,1378.45,96.22,1380.28ZM101,1335.9c0.34,12.74.28,12.83-11.19,15.31,0-3.35,3.69-3.6,3.53-6.52-1.3-2.78-6.47.9-6.61-4ZM89,1356.6c3.9-3,7.35-2.92,10.56,2.24l-0.87.09c-3.84.48-7,2-8,6.19-3.47.74-6.23,0.58-5.91-4.22,0.05-.83-0.79-1.72-1.22-2.58C85.89,1359.15,87.46,1357.8,89,1356.6Zm-5.9-1.29c-1.46.15-2.32,0.75-1.78,2.39-3.67.05-4.87-2.52-6-6C78.76,1351.7,82.07,1350.72,83.14,1355.31Z"/><path class="cls-2" d="M145.25,947.46c-10.51-1.58-19.56-7.45-29.7-10.11a26.26,26.26,0,0,0-8-6h0c1.13-5.21,4.06-8.5,9.44-9.83,2.74-.68,5.86-1.7,5.82-5.53-3-2.54-6.44,1.94-9.55-.88a25.69,25.69,0,0,1,4.81-11.75c1.61-2,2.53-4.18.9-6.31-2-2.62-4.67-4.66-8.32-3.92-2.7.55-5.33,1.4-8.75,2.33,1.92-4.15,1.78-8.07,5.46-10.6,3.64,1.8,7.48,3.88,12,2.46,3.35-1,5.08-3,4.38-6.58s-3.56-3.28-6.24-3c-3.14.3-5.59,3.42-9.13,2.41,0.33-2.79.48-5.4,1-7.95s-0.9-3.27-3-4.14c-2.37-1-3.7-.23-5,1.48-1.53,1.95-1.46,4.26-1.89,6.54-1.36,7.18-4,14-6.69,20.78-2.26,5.69-6.64,8.32-12.08,9-4.21.52-8.2,1.57-12.27,2.3a30.64,30.64,0,0,0,1.85,7c2.37,6.93,6.19,13.37,7.12,20.79-8.14,4.34-16.09,9.11-26.23,10.36,5,3.86,8.81,4.13,13.43,1.08,4.89-3.24,18.78-12.12,17.77-8.31-0.73,2.76-2.87,5.17-4.52,7.65-5.26,7.89-10.59,15.74-16.81,25,10.53-4.61,15.08-12.29,18.63-20.85,3.7,5,1.57,10.76,1.84,16.17,0.2,4,.06,8,2.27,11.47,0.85,1.34,2,1.88,3.94.57,8.68-5.74,14.76-5.17,22.16,1.53a1.94,1.94,0,0,0,.92-0.16c3.16-3,2.93-7,3.14-10.94,0.51-9.66-1.51-19.43,1.19-29,8.18,7.69,17.43,13.06,29,13.29,1.44,0,3.64,1.09,3.67-1.64C147.85,950.22,148,947.88,145.25,947.46ZM82.71,914.74c-1.28-2.12.83-2.53,2.08-3.51,5.73-4.53,13.43-4.26,18.88-8.46,1.46,1,1.22,2,1.22,2.92,0,11.26-9.1,14.25-16.82,18.53-2,1.09-3.11.55-3.88-1.22-0.87-2,.33-3,2.05-3.72,2.47-1,5-1.83,7.4-2.94,2.88-1.34,6.37-2,7.89-6.24-6.53-1.14-9.8,3.73-14.4,5.2C85.49,915.82,83.77,916.5,82.71,914.74ZM83.5,947.8c5-13,6.06-14.39,14.4-18.47,2.43,1.36,1.7,5.16,4.31,6.4l0.14,0.07a3.79,3.79,0,0,0,.55.18c0,1,.29,2.42-0.2,2.78-5,3.66-10,7.22-15.12,10.61C85.88,950.5,84.58,949.09,83.5,947.8ZM86.62,958c-1-2,.19-3.18,1.73-3.94,4.65-2.31,8.76-5.77,13.92-7.11a12.83,12.83,0,0,1,2.18,7.93c-4.73.18-8.78,2.3-12.86,4.35C89.6,960.25,87.78,960.4,86.62,958Zm13.64,9.57c-1.19.1-2.31,1.15-3.44,1.78-8.56,4.76-8.81,4.59-9.09-6.83,6.11,1.83,11-2,16.89-3.54C105,963,106.65,967.08,100.27,967.6Z"/></g></svg>