<svg id="图层_1" data-name="图层 1" xmlns="http://www.w3.org/2000/svg" viewBox="0 0 200 1327.5"><defs><style>.cls-1{opacity:0.05;}.cls-2{fill:#fff;}</style></defs><title>主站</title><g class="cls-1"><path class="cls-2" d="M163.49,122.79c0-3.61-3.21-5-6.07-5.54-5.56-1-7.68-3.15-4.4-8.55,2.5-4.11,1.19-7.25-2.43-10.21-4.32-3.54-8.22-7.61-12.75-11.86-3.1,12,1.37,23.46,1.59,35.13,0.07,3.71,2.71,6,6.74,5.53s7.86,0.64,11.73,1.49c2,0.44,4.06,3,6.25.48C166.09,127,163.48,125,163.49,122.79Z"/><path class="cls-2" d="M78.45,112.37c-3.28-2.13.45-5-2.86-6.45-2.4,3.3-4.77,6.42-7,9.63C66,119.35,66,123.68,66.74,128c0.49,2.7,2,4.91,5.29,4.9a4.81,4.81,0,0,0,5-3.88c0.8-2.8,1.17-5.82,4-7.52,4.56,6.79,9,8,11.14,2.6,2.71-6.71,8-11.94,9.56-19.37C94.29,110.57,86.81,115.26,78.45,112.37Z"/><path class="cls-2" d="M82.34,1316.14c-5.54-1.38-11.91-1.4-16.4-6.2,2.48-4.84,7.09-7.26,10.45-10.87,3.89-4.18,8.85-7,13.82-9.61,2.57-1.34,3.09-2.95,3.09-5.47,0-3.09-2.14-4-4.38-4.6-5.28-1.5-10.47-.63-15.72.63-6.34,1.52-12.13,5-18.94,4.57,0.57,2.76,1.55,4.6,3.45,5.44,6.48,2.86,11.68-3.82,18-2.78-0.28,2.76-2.33,4-3.94,5.65-3.28,3.3-6.73,6.49-9.66,10.08-2.53,3.1-4.5,6.47-1.3,10.72,6.79,9,24.09,15.72,35.92,13.31C93.64,1320.95,88.95,1317.78,82.34,1316.14Z"/><path class="cls-2" d="M74.12,1272.61c1.69,1.28,4.18,2.74,6.13.32,2.27-2.83-.1-4.67-1.86-6.63-2.79-3.11-7.59-1.43-10.59-5.55C65.86,1268.16,70.73,1270,74.12,1272.61Z"/><path class="cls-2" d="M141.57,807.66a4.25,4.25,0,0,0-2.81-.79c-3.93.16-4.24-2.3-3.9-5.21,0.65-5.58,1.53-11.14,2-16.73,0.33-4-.57-7.68-6.27-11.78,1.29,10.5-.35,18.65-1.6,26.84-0.74,4.91-2.7,11.24.94,14.27s-3.8,6.17,1.24,6.88a22.37,22.37,0,0,0,8.85-.9c2.76-.77,6.48-1.5,7-4.81C147.5,811.79,144,809.85,141.57,807.66Z"/><path class="cls-2" d="M86.66,800.24c-2.81,4-6,4.78-9.67,2.24-2-1.38-4.33-1.6-6.38.26-5,.47-2.08-5.85-5.37-6.91-2,2.08-2.28,4.32-2.25,6.66,0,3.09.42,6.28,3.82,7.2,3.75,1,5-2,6-4.88,1.64,0,2.25,1.18,2.57,2.45,0.64,2.54.82,5.24,1.77,7.64,0.83,2.1,2.26,4.13,5.24,3.42S87.89,816.15,87,813C85.89,809.06,88.29,805.27,86.66,800.24Z"/><path class="cls-2" d="M172.43,428.48a18.41,18.41,0,0,0-8.61-2.18c-2.72-.15-5.45,0-8.63,0,2.74-4.4,5.57-8.07,6.88-12.6,2.66-9.15-2.32-14.86-11.72-13.51-2.08.3-4.45,1.86-6.48-.34-1.09-4.08.83-7.93,0.67-11.86-0.44-11-5.31-13.88-15.6-9.56-1.49.63-3.1,1-4.51,1.43,2.4,4.12,9,1,10.44,5.95,1.14,4.08.74,8.57,1.48,12.79,1.43,8.18-6.12,8-10.25,11.12,2.78,2.27,5.93-.3,8.69,1.11,0.74,3.34-1.15,5-3.74,6.19,0.56,1.82,2.7,3,2.08,5.28a3.72,3.72,0,0,1-2.49,2.82,2.17,2.17,0,0,1-2.78-2c-0.53-3.52-2.65-5.88-5.09-8.11-1.59.16-4.43,0.32-3.47,2.18,3.22,6.23,2.29,14.35,9.25,19-5.38,3.31-11.09,6.78-16.15,6-6.51-1-9.62,4.62-14.94,4.75a4.66,4.66,0,0,1-1.72-.89c-0.51-4.35,1.47-6.65,5.75-7.65,2.19-.51,2.92-3.1,2.35-4.77s-2.88-.91-4.51-0.87c-0.83,0-2.12.15-1.54-2.14,1.91-2.49,8.23-.94,8.1-6.11-0.09-3.42-2.78-5.61-6.45-5.74,1.08-4.47,4.81-4.81,7.59-6.42,2.36-1.37,2.69-3.66,2-6.11-1-3.27-3-2.55-5.46-1.62-1.88.71-3.77-.44-6.16,1-8.24,5.09-16.74,10.3-27.67,7.76C74,417,78.6,421,76.18,426.08c-2.33,4.88,1.74,8.59.19,12.78a7.38,7.38,0,0,1-.63,1.52c-2-.46-3,0.34-3.2,2.35s0.67,3.36,1.88,5.12c3.53,5.15,1.12,9.95-4.65,9.44-3-.26-4.44-0.21-4.68,2.91s1.25,5.69,4.53,4.71c4.18-1.25,5.11,3.19,7.94,4,0.51-.87,1.12-1.43,1.1-2-0.1-3.31.63-6.94,4.47-6.08,4.12,0.92-.41,3.37-0.14,5.13,0.14,0.91,1.29.82,2.22,1,2.94,0.61,2.34,2.76,1.08,4.38a9.54,9.54,0,0,1-5.68,3.78c-7.83,1.46-14.84,5.45-22.5,7.32-6.13,1.49-6.31,5.4-5.69,10.76a14.49,14.49,0,0,0,7.79-4.88c4.82-5.26,10.56-8,17.78-6.88,4.91,0.75,9.09-1,12.89-4.15,2.65,3.58,4.92,6.79,7.34,9.9,5.42,6.95,11,6.37,15-1.5a17.35,17.35,0,0,0,1.59-7.74q0.18-10.48.58-20.95c0.08-2.26-.94-5.1,1.21-6.6,5.42-3.8,10.81-7.85,18.51-9.41-2.26,7.91-4.3,14.62-10.39,18.78-2.82,1.93-6.74,4.07-4.38,7.09s5.92-.28,8.53-2.29a2.45,2.45,0,0,0,.73-0.67c4-7.7,11.31-7.49,18.15-8.48,1.79,4.82,1.39,9.18,1.34,13.5C149,479.55,145.5,484,135.32,486.51c-2.5.61-5.17,0.52-8.9,0.85,2.63,1.7,4.61,2.75,6.33,4.13,6.47,5.18,12.14,2.93,17.49-2.6a22.32,22.32,0,0,0,4.95-8.56c2.86-8.48,2.05-17.11,1-25.64-0.74-6-3.33-7.86-9.69-7.13-3.11.36-5.18,0.82-5.44-3-0.16-2.37-3.66-2.75-3.27-5.69,9.69-4.19,19.53-6.14,29.91-2.9a8,8,0,0,0,1.91.57c1.93,0.08,4.13.59,4.87-2.06C175.18,432,174.94,430,172.43,428.48Zm-88.56-9.73c2.33,1.07,7-.42,7.1,4.23,0.07,2.79-4.62,6.27-7.79,5.83-3.34-.47-2.22-3.38-2.63-5.35C80.92,421.16,81.19,417.52,83.88,418.75ZM87,431.87c1.93-.9,3,0.11,3.5,1.58,0.33,3.06-3.91,6.78-7.42,6.89-2.32.07-2.35-1.67-2.58-3.31C79.69,431.56,84.43,433.06,87,431.87Zm-1.51,21.76c-1.44.62-2.92,2.06-4.41,0.78a4.85,4.85,0,0,1-1.44-5.3c1.39-4.47,5.1-5.1,9.49-5.51C89,447.48,90.35,451.53,85.47,453.62Zm4.13,13.67a2.66,2.66,0,0,1-.47-3.59c3.56-5.65,7.67-10.6,15.52-10.09-2.86,5.4-7.06,9.52-11.55,13.38C92,467.95,90.85,468.37,89.6,467.29Zm16.89,11.51c-0.46,2.64-2.25,3-4.4,1.85-3.32-1.75-5.44-4.66-8.47-8.53,9.06-1.88,9.08-11.11,15-16.66C110,464.15,107.76,471.45,106.48,478.81Zm27.21-43.55c-1,.35-2.35-0.33-2.22-1.14a4.59,4.59,0,0,1,2-3.11c1.51-.72,2,0.94,2.63,2.24C136.53,435.11,134.71,434.9,133.7,435.26Zm3-6.45c2.92-4,4.12-9.38,10.92-4.64C144.47,427.87,141.55,429.56,136.65,428.8ZM155,407.59c-0.68,3.87-1.35,7.86-4.82,10.49-1.17-4.23-6.81-2.18-8.22-5.7-1.07-2.68,5.16-7.3,8.53-7.56C154,404.59,155.29,405.69,155,407.59Z"/><path class="cls-2" d="M121.14,943.5c-1.59-1.43-4.16-1.9-6.37-2.5-5.86-1.6-11.71-.91-17.57.3-15.45,3.19-30.69,7.56-46.66,8.92,6.38,4.44,12.45,7.16,20.81,5.66,15.24-2.73,30.73-5.1,46.34-2.38,3.45,0.6,8.17,3.36,9.67-.94C128.63,949,123.94,946,121.14,943.5Z"/><path class="cls-2" d="M132.74,895.32c0.82-8.75-4-12.67-12.16-9.8A83.65,83.65,0,0,0,105.42,893c-3.7,2.22-7.08,2.93-12.34.25a21.41,21.41,0,0,0,9.25-12.8c0.63-2.25,1.6-4.56-.56-6.47-2.34-2.07-4.84-1.73-7.34-.19-0.84.52-2,.69-2.63,1.37-4.46,4.63-4.53-.64-6-2.69-2.47,1.44-3.46,4-5.07,6.1a3.91,3.91,0,0,1-4.37,1.55c-2.21-.6-1.91-2.46-1.67-4,0.8-5.25,1.8-10.46,2.59-15.71,0.56-3.73-1.92-4.68-4.88-4.52s-3.45,1.46-2.44,4.58c1.43,4.44-.72,9.33-0.37,13.71,0.72,9-4.63,12.44-11.09,15.6-5.74,2.82-11.56,5.48-17.62,8.35,8,6.41,15.27,2,23.45-1.3-4.58,8.69-7.61,16.43-14.39,21.93-3.65,3-5,7.37-2.16,11.6,4,5.85,6.2,6.38,10.5.88,2.7-3.45,4.1-7.91,8-10.57,0.42,3.54.6,7.21-1.89,9.64-3.36,3.26-1.91,6.56-1,9.84a4.82,4.82,0,0,0,4.46,3.51c2.34,0,3-2.33,3.17-4.3,0.63-7.6,2.59-15.49,1.28-22.77-1.61-9,1.33-15.43,6.35-21.88,2.24-3.93,4-8.3,10.35-9.26l-7.57,13.08a3.43,3.43,0,0,1-.35.6c2,5.58,2.58,10.66-2.78,15.15-4.15,3.48-3.78,8.69-1.43,12.75,1.92,3.31,3.75,6.74,5.86,9.93,3.52,5.31,6.13,5.78,11.46,2,2.67-1.9,5.32-1.56,8-2.22,6.45-1.58,13.08-1.4,19.5-3,7.64-1.91,9-3.84,5.05-10.55-1.65-2.79-1.69-4.37-.13-7C130.38,909.73,132.06,902.58,132.74,895.32Zm-40.82,1.62a2.17,2.17,0,0,1,2.7,2.12,3.77,3.77,0,0,1-3.46,4A1.75,1.75,0,0,1,89,901.66,4.61,4.61,0,0,1,91.92,896.93ZM87,929.3c-0.21-9.1,2.41-15.55,8.75-20.28C94.81,916.24,95.45,924.09,87,929.3Zm13.55-.22c2-10.12,2-10.12,13.34-10.32C109.15,923.62,106.75,928.5,100.59,929.08ZM125.26,898c-0.72,1.83-1.22,3.75-1.93,5.58-3.45,8.88-8,16.23-19.16,13-5.55-13.46.92-20.75,12.19-25.22,2.52-1,4.8-4.63,7.86-2.37S126.53,894.78,125.26,898Z"/><path class="cls-2" d="M80.77,552.71c3.93-1.08,2.64-4.69,2-7.6-1.88.17-2.4,1.92-3.53,3-1.91,1.8-4.07,1.21-4-1.22,0.14-4-1.73-8.45,1.44-12.16-0.07-4.29,1.57-8.55.22-12.86a3,3,0,0,0-2.78-2.44c-1.66,0-1.59,1.58-1.87,2.87-1.74,7.89-1.34,15.88-1,23.82a21,21,0,0,1-4.5,14.74c-0.58.72-.85,1-1.3,0.46-1-2.32.63-5.17-1.06-7.52-6.32,5.16-8.17,11.69-6,19.46a5.12,5.12,0,0,0,5.17,3.87c2.41,0,2.85-2.15,3.18-4.26,0.69-4.37,1.09-8.95,5.74-12.65-0.66,11.61.22,22.14-1.38,32.7a33,33,0,0,0,1.48,15.69c1,2.82,2.06,5.61,5.17,6.91,1.63,0.68,3.17,1,4.54-.44,1.11-1.15.86-2.41,0.1-3.59-3-4.69-3.25-10.06-3.59-15.32-0.79-12.24-1.28-24.5-2-36.74C76.71,556.24,76.69,553.83,80.77,552.71Z"/><path class="cls-2" d="M138.75,588.7c-3,3.71-4.2,8.93-9.92,11.27,0.94-6.26,1.86-11.9,3.88-17.34-0.12-3.08.39-6.2-1.26-9.13-1.43-2.53-1-4.84,1.61-6.5,7.17-8.71,11.38-19.39,18.81-28,2.33-2.69.47-4.75-2.63-5.87-6-2.2-11.65,5.5-17.75.68,0,0.32,0,.64,0,1-0.35,5.68-4.88,3.53-7.87,5.08-0.33-8.14-.32-8.12,4.94-10.63,7-3.33,14.59-5.6,20.52-11.69-9.92-6-15.44,6.74-24.52,4.46-0.69-5.16.6-10.34,1-15.58,0.35-4.5-2.36-6-6.27-4-2.87,1.4-1.05,2.88-.7,4.74,2.9,15.38,1.26,18.1-11.4,19.8-0.91.12-1.29,0.33-1,1.06,2,3,5.59,3,8.57,4.27,4.94,2.11,5.33,3.34.13,6.2-3.12,1.71.25,6.15-4.19,6.9-0.76.13,2.82,0.61,3.8,2,2,2.81,3.77,6.43,1.92,9.07-2.35,3.35-4.25-1.57-6.51-1.77-2.8-.25-3.23-3.08-5.45-3.95s-4.3-2.85-6.9-.74c6.16,11,12.3,14.25,23.67,11.46-8.6,5.78-13.05,14.17-22.89,16.79,6.92,5.3,11.32,0,16.24-1.84,2.73-2.94,5.35-6,11-8-2.71,5.08-4.68,8.5-8.17,10.86-3.53,3.49-6.88,9.63-10.63,9.89-6.93.48-8.72,5.65-12.38,9.06-2.28,2.13-3.07,5.53-.24,8,3.29,2.84,5.53-.16,7.39-2.34,6.79-8,15.87-13.52,22.65-23.39,0.1,7.58-3.54,12.45-3.71,18.18-0.23,7.65,1.63,13.5,5.44,13.58,5.55,0.13,7.57-4.69,9.66-8.76s3.68-8.29,5.5-12.45C140.48,590,140.08,588.91,138.75,588.7Zm-3.42-46.35c1.25-1.64,3.63-2.43,6.66-4.3a14.19,14.19,0,0,1-2.39,8.06c-1.37,2.17-3,5.4-5.9,2.91C131.11,546.81,134,544.15,135.33,542.35Zm-13.23,11c0.14-4.46.31-8.18,6.54-7.65C127.9,549.63,126.74,552.55,122.1,553.34Z"/><path class="cls-2" d="M159.16,585.31c-4.47-1.74-9.4-3.2-12.46-7.34,1.77-2.73,4.88-3.55,7.1-5.51,3.23-2.85,6.46-5.69,8.07-9.93,0.86-2.25.49-4-1.61-4.94s-5,.05-5,1.71c-0.19,8.51-7.74,10.87-12.3,15.7-0.53,3.18-5.33.74-5.7,4.73,2.9,2,7.44,1.67,9.59,5.26l23.94,16.1C169.89,592.43,166,588,159.16,585.31Z"/><path class="cls-2" d="M137.64,291.38c-4.1-4.57-8-.71-11.67.81a39.14,39.14,0,0,0-9.47,5.41c-4.26,3.41-7.6,3-11-1.66-0.16,4.3-2.41,8.5-1.71,10.95,2.34,8.12-.14,15.64-0.76,23.38-0.45,5.59-1.48,11.14-1.81,16.73-0.29,5,2.41,8.48,6.18,11.77,4.16,3.63,5.76-1.17,8.57-1.74,1.28-.26,2.44-1.05,3.7-1.44,6.62-2,8.4-1.27,11.78,4.9,1.66,3,3.35,6,5.36,9.64,5-4.58,5.75-9.46,5-14.9a135.79,135.79,0,0,1,2.28-48.39C145.79,299.39,141.54,295.73,137.64,291.38ZM125.8,346.13c-2.27.26-4.46,1.26-6.69,1.92-1.55.46-3.5,1.34-4.21-.75s-1.17-4.84,1.43-6.19,5.57-2.17,8.29-3.39c1.71-.77,4.26-1.24,3.74-3.83a5.79,5.79,0,0,0-4-4.18,12,12,0,0,0-6.89.1c-1.06.28-2,.33-2.2-0.8-0.13-.86.12-2.35,0.68-2.65a85.37,85.37,0,0,1,8.14-3.64c2.11-.85,3.45-2.27,2.71-4.53a3.64,3.64,0,0,0-4.71-2.49c-2.08.49-4.84,2.73-6-.51a6.68,6.68,0,0,1,3.26-8.45,24.47,24.47,0,0,1,11.27-3.33c0,12.57-.12,24.2.07,35.83C130.81,343,130.21,345.61,125.8,346.13Z"/><path class="cls-2" d="M177,254.37c-2-2.48-4.46-3.94-7.75-3.52a85.87,85.87,0,0,0-8.83,1.31c-15.1,3.58-30.22,5.24-45.85.82a87,87,0,0,0,.7-21.72,52.16,52.16,0,0,1,6.33-30.44c2.15-2,3.63-4.19,2.73-7.62-3.12,2.07-4.33,4.84-5.06,7.92-1.43,1.37-3.77,3.08-4-.1-0.47-6-.9-12.27,4.3-17.29,2.38-2.29,5.2-5.36,2.65-9.35-3.6-.83-2.29,4.82-6.3,4l1.3-13.22c1.62,0.8,2.14,4.29,4.45,2.74,1.74-1.17.93-3.63-.41-5.27a12,12,0,0,0-2.31-1.75c-2.25-2.7-4.33-1.5-5.47.8-1.93,3.89-2.45,8.2-2.79,12.54-0.82,10.46-1,10.1-11.15,13.13-4.44,1.33-6.63.47-7.42-4.64-3.41,5.1-1.54,8.73,1,11.72,4.89,5.66,10.31-.85,15.64-0.08,0,4.89,0,9.52,0,14.14,0,5.27-11.25,17.27-16.57,17.59-1.21.07-1.73-4.72-3.75-.64a3.6,3.6,0,0,0,.91,4.54c2.8,2.26,5.58,5,8.85,6.09s4.39-3.38,6.73-5c0.34-.24,1.08.09,1.72,0.17-0.85,7.52.64,15,1.24,22.88-6.33-.61-12.17-1.39-18-1.66-3-.14-4.89-1.62-6.62-3.71-0.48-2,0-4.49-2.41-5.71-0.39-2-2.18-2.44-3.7-3.14h0a7.35,7.35,0,0,1-.63-5.47c1.76-8.21-.7-10.26-9.84-8.63,6.37,6.92,7,16.64,12.22,24.11,0.35,0.5-.47,1.82-0.75,2.76-5.29,1-7.7,4-7.16,11.49,10.38-9,21.19-7,32-5.31,2,0.3,4,.37,5.93.54,12.18,1,24.36,2.08,36.54,3,10,0.78,19.87-.21,29.69-1.81C179.28,259.94,179.73,257.69,177,254.37Z"/><path class="cls-2" d="M72,203.7a5.24,5.24,0,0,0-1.35-3.55c-2.3-2.31-5.51-2.25-8.35-1.81a27.28,27.28,0,0,1-11.77-.69c4.87,6,11.32,7.87,18.48,7.82C70.22,205.47,71.91,205.25,72,203.7Z"/><path class="cls-2" d="M130.77,203c2.88,2.34,5.38,1.75,7.83-.82,2.28-2.38,4.48-4.91,7.87-6.51,1,6.25-3.22,10.12-6.41,14-5.36,6.49-3.45,15.62-8.71,22.08-0.57.69,0.6,3.14,1.39,4.53,1.95,3.45,4.17,6.75,6.22,10.15,1.48,2.45,2.94,1.54,4.85.41,5.28-3.12,5-8.16,4.87-13.16-0.11-3.9-.18-7.5,5.51-6.52a2.33,2.33,0,0,0,2.7-2.26c0.21-1.47-.74-2.42-1.72-3.35-2.82-2.69-6.89-1.82-10.43-3.54,1.49-5.34,5.34-9.16,7.74-13.75,4.66-8.93,4.36-11.25-3-17.88,4.49-3.9,8.85-7.91,13.45-11.61,3-2.39,1.9-4.31.07-6.61-2.41-3-5.38-3.77-8.82-2.3s-6.49,3.11-9.81,4.72c-1.87-4.37,0-10.75-7.77-11.34-0.1,4.93-1.82,9.1-4,13.19-3.21,6.14-4.8,12.31,2.07,17.06-1.9,2-3.38,3.35-4.62,4.89C127.7,197.4,127.53,200.37,130.77,203Zm8.76,32.26a2.87,2.87,0,0,1-2.55-2.63,2.76,2.76,0,0,1,2.88-3.21c1.39,0,1.36,1.84,1.4,3.18C141,233.66,141.49,235.44,139.53,235.28Z"/><path class="cls-2" d="M132,1204.31c-3.17-3.37-4.28-9-10.13-10.11,1.49,8.6.77,9.84-7.09,12a23.77,23.77,0,0,1-17.4-1.65,76.2,76.2,0,0,1-7.8-5.1,3.73,3.73,0,0,0-.42,1.36c8.07,14,29.72,13.88,41.79,7.64C132.47,1207.67,133.35,1205.79,132,1204.31Z"/><path class="cls-2" d="M74.15,1209.11c6.11-4.28,8-9,7.19-18.62C79.13,1197.83,70,1200.06,74.15,1209.11Z"/><path class="cls-2" d="M62.6,1186.69a65,65,0,0,1,.33-22.45c1.53-7.42-.4-14-4.79-20.55,4.08-1.52,8.18-.13,11-3.21,1.86-2,1.36-3.76-.7-4.86-6.76-3.61-12.26-2.44-18.32,3.24a38.31,38.31,0,0,1-6.54,4.47c-6.63,4-13.31,7.92-20.92,12.43,8.62,2.24,15.52.41,22.74-2.74-4.59,9.56.71,21.47-9,29.09,6.56,2,7.36,3.09,4.49,7.57-1.47,2.29-3.65,4-1.94,6.94,1.25,2.15-.5,2.86-1.63,3.92-2.24,2.1-5.22,2.81-8.63,3.54,3.82,3.53,7.24,3.51,10.84,1.78,1.53-.73,3.49-1.74,4.39.1,3.18,6.51,10,10.28,12.6,17.23,1.33,3.51,4.62,3.62,6.15.42A17.37,17.37,0,0,0,64.49,1213c-0.68-3.91-1.23-7.86-1.63-11.81-0.44-4.35-.22-8.4,3-12.1,2.5-2.84,5-6.18,4.57-10.69C67.26,1180.48,66.86,1184.74,62.6,1186.69ZM51.79,1149.8c7.66,7.05,7.65,7.08-3.56,12.42C48.52,1156.11,48.52,1156.11,51.79,1149.8Zm-3.19,38.59c-1-.34.17-2.15,0.48-3.35l-0.15.07,0.18-.18-0.19.18c0-.07,0-0.13,0-0.2-2.27-.21-4.86-0.53-3.33-3.74a6.12,6.12,0,0,1,6.07-3.84c0.52,3.14-3.22,4.65-2.75,7.57l0.21,0,0,0.11c3.21-1.32,4.61-5.62,8.79-5.35C57.57,1184.31,52.2,1189.59,48.6,1188.39Zm10.19,2.14a4.74,4.74,0,0,1-3.84,3.92,1.62,1.62,0,0,1-2.08-1.52c-0.2-2.64,2.22-2.9,3.86-3.76C57.85,1188.58,58.46,1189.38,58.79,1190.53Zm-0.1,24.29c-5.33.11-7.5-2.61-7.24-6,0.3-4,1.23-8.52,7.35-9.49A46.72,46.72,0,0,1,58.69,1214.82Zm-13.24-39.21c-1.09-10.39-2.82-10.37,14.31-10.38C54.51,1170.1,48.86,1170.31,45.45,1175.61Z"/><path class="cls-2" d="M76.81,1168.92c-0.48,2.59-.81,6.08,1.41,7.52,6.06,3.94-.69,5.24-1.49,7.66,6,4.08,10.84-2,16.27-1.14h0a6.1,6.1,0,0,1,1.32-.64c5-2.48,10-5.22,16.14-3.7,1.26,0.31,2.94-1.11,4.43-1.74h0c2.77-5.68,5.45-11.4,8.33-17a5.77,5.77,0,0,0-.48-6.51c-1.93-2.37-4.84-1.88-7.34-.75-1.45.66-2.52,2.15-3.94,2.92-4.83,2.63-9.45,6-15.39,5.65-1-12.26-1-12.32,8.12-18.25,4.1-2.66,7.92-5.48,10.74-10.09-4.08-2-7.09-4.05-11-3.43,2.66,7.55,2.66,7.55-6.3,11a73.24,73.24,0,0,0,1.28-20.9c-0.18-2.59-.56-5-4-3.73-2,.73-4.74,1.41-2.76,4.81,4.3,7.4.38,14.86-.15,22.28-0.14,2-2.44,2.69-4.26,3.32-1.57-3-2-7-7-7.65-1,4.24-1.81,8.47-4.58,11.93-1.31,1.63-1.95,4.68-.75,5.58C80.82,1160.05,77.64,1164.46,76.81,1168.92Zm28.59,2.39c2.34-2.8,1.69-6.22,2.82-9.18,0.28-.75,2.29-1.19,3.49-1.15,1.92,0.06,1.64,1.74,1.33,2.94a76.23,76.23,0,0,1-2.32,7.59,3,3,0,0,1-3.13,2C106.07,1173.52,104.56,1172.32,105.4,1171.31Zm-2.4-5.93c0.29,5-2.51,7.83-6.88,9.69C96.72,1170.85,95.69,1165.42,103,1165.38Zm-19.86-9.66c1.79-2.2,3.6-5,6.79-4.72,2.28,0.17,1.38,2.38,1.09,3.84-0.7,3.45-5.4,1.37-6.46,4.4l0.11,0.08c0,0.08-.06.16-0.09,0.24,4.39,1.12,4.45,1.17,4.12,5.44,0,0.27-1.07.6-.05,1.12,0.56,0.29,1.46.25,1.76,0.67a13.3,13.3,0,0,1,2,10c-0.3,1.92-2.19,2.18-3.88,2.24s-2-.8-2.38-2.29c-1.57-5.66-4.14-11.18-1.58-17.18l-0.12,0,0.22-.2-0.21.19a2.88,2.88,0,0,1,.1-0.27C83.33,1158.37,81.65,1157.54,83.14,1155.72Z"/><path class="cls-2" d="M117.29,1179.22c-6.24,4-13.23,5.19-20.45,5.59h0c-0.38,3.42-.49,7,3.24,8.57s6-1.62,8.47-3.56c0.73-.57.91-1.79,1.58-2.49,1.67-1.74,3.52-3,5.87-1-0.68,1.22-1.33,2.38-2,3.53-0.55,1-2.11,1.84-.5,3a6.1,6.1,0,0,0,2.1,0,59,59,0,0,0,8-3.8c2.31-1.45,6.33-1.91,5.53-5.93s-4.64-4.17-7.91-4.47A16.69,16.69,0,0,0,117.29,1179.22Z"/><path class="cls-2" d="M162.05,726.31c-5.3-6.59-12.4-9.77-20.26-11.84-12.41-3.27-24.78-6.69-37.86-7.8,1.3-2.63,3.53-3.41,5.48-4.47,9.62-5.24,19-10.93,29.3-14.9,7.46-2.87,7.7-8.28,1.24-13.09a23,23,0,0,1-2.37-1.83c-5.79-5.63-11.68-6-18.71-1.69-4.43,2.74-9.82,3.94-14.8,5.76a8.79,8.79,0,0,1-6.82-.19c-7.42-3.37-13-2.9-20.73,2.26,5.94,1,10.47,3.2,13.8,7.78,1.87,2.57,5.28,3.31,7.81.9,7.35-7,7.23-7.13,16.27-5a248.79,248.79,0,0,1-23.49,18.51c-5.48,3.84-10.62,7.61-18.09,6.69-4.6-.57-6.18,2.17-5.71,7,0.5,5.11,3.87,4.74,7.26,3.68a28.24,28.24,0,0,1,15.75-.79c16,4.14,32.49,6.87,47.81,13.65,12.21,5.4,25.54,6.89,38.31,10.35,0.94,0.26,2.76.6,2.89-1.5C174.47,733.92,166.67,732,162.05,726.31Z"/><path class="cls-2" d="M87.41,660.77c1.48,3.06,4.18,5.32,7,4.38,7.77-2.58,15.69-1.08,23.48-1.91,3.16-.34,8.49-7.15,6.94-8.75-4-4.16-2.08-7.68.08-11.5s1.68-6.9-2-9.43c-3.49-2.4-6.78-4-10.63-.31a45.67,45.67,0,0,1-8.06,5.78c-7.66,4.64-8.44,4.44-14.62-2.51-2.22,1.25,2.32,8-4.47,5.5-1.57-.58-1.77.68-1.51,1.38C85.68,649,84.75,655.27,87.41,660.77Zm21.92-14c2.25,3.4,1.47,6.32-1.32,8.49s-5.72,5.45-9.4,4.55c-3.13-.77-2.48-4.8-3.28-7.88Z"/><path class="cls-2" d="M138.73,27.63c-2.14.8-4.14,2-6.59,3.18-4.38-8.48-.06-19.58-9.85-25.32,1.88,8.7.75,17.24,0.13,25.76-0.35,4.86.77,8.82,6.37,9.23,3.3,0.24,3.77,1.92,3.58,4.51s-1.18,5.46-.45,7.78c1.37,4.4-1.11,6-4.09,7.77-1.25.73-3.46,0.25-3.5,2.65,2.28,3.22,4.85.41,7.15,0.23,10.57-.83,10.9-1.38,9.2-12-0.05-.33,0-0.66-0.1-1-1.54-8.7-1.6-8.8,6.36-12.86,3.69-1.88,3.81-3.89,1.38-6.91C145.73,27.49,142.66,26.15,138.73,27.63Z"/><path class="cls-2" d="M146.18,0.22C131.24-.35,116.37,0,101.7,3,85.8,6.3,70,10.06,52.2,10.7c10.19,7.51,17.35,8.49,28.5,4.58C88.52,12.54,96.12,9,104.07,6.79c14.74-4.19,29.64-7.51,44.2,1.08,2.26,1.33,4.9,1.63,7.18-.52C154.4,2.14,151.21.41,146.18,0.22Z"/><path class="cls-2" d="M69.92,27.28a39.17,39.17,0,0,1,4,17.92c0,2,5.94,10-4,8a2.16,2.16,0,0,0-.67,1.47c1.41,2.89,2.38,6.53,6.29,6.77,4.5,0.27,5.2-3.1,5.34-6.66,0.28-7.29-1.06-14.41-2.51-21.47C77.67,29.85,76.12,26.28,69.92,27.28Z"/><path class="cls-2" d="M92.82,15.56c5.28,3,4.35,7.8,4.32,12.1,0,3.59-3,4.45-6.11,2-1.16-.91-1.6-2.81-3.6-2.54C86.26,30.28,85,33.3,84,36.42c-1.83,6-.81,7.18,6.55,8.22a52.53,52.53,0,0,0,1.76,6.49c0.94,2.37,3,3.82,5.54,3.24,2.26-.53,4.54-2,4.69-4.62,0.62-10.57,1.59-21.23-2.59-31.39C98.93,15.78,97.23,13.78,92.82,15.56Zm2.7,31c-1.68,1.26-3-1.46-4.76-2.06l-0.12.14-0.1-.21,0.22,0.07c2.5-2.74,3-7.07,7.65-9.13C98.6,39.71,99.17,43.83,95.52,46.57Z"/><path class="cls-2" d="M66.45,1008.78c1.6,0.45,3.73,2.51,5-.34a5.08,5.08,0,0,0-.95-5.51,11.94,11.94,0,0,0-6.58-4.1c-4.12-.79-8.28-1.32-13-2C59.91,1006.23,61.08,1007.25,66.45,1008.78Z"/><path class="cls-2" d="M146.56,1078.84c-3.38-5.59-5-12.38-10.46-16.7-1,1.32-.07,2.42.06,3.59,1.31,12,.16,13.38-11.77,16a50.87,50.87,0,0,1-10.91.74c-13.6,0-18-5.4-15.71-19.1,2.3,1,3.6,4.95,6.61,3.1,2.17-1.33,1.07-4.29.71-6.49-2.28-13.93-2.36-27.73,1.66-41.42,1.52-5.18-2.34-8.15-5.73-10.59s-5.71.21-8.52,2.41c-4.91,3.85-9.18,9.78-16.88,7.85l-0.54,2.68c2.57,1.65,1.94,4.38,2.06,6.83,0.42,8.09.49,16.22,1.25,24.28,0.52,5.48-2.65,6.8-6.92,7.25,0.94,3.19,4.49,1.32,5.62,3.6,2.76,0.75.46,5.69,4.47,5.45,2-9.52,2-9.52,11.46-11.19a177.28,177.28,0,0,1-23.88,29.6c-2.64,2.71-5.45,5.09-9.88,4.7,1.85,3.55,4.08,2.41,5.7,1.89,13.07-4.23,19.1-16.62,28-25.16,1.95,0.59,1.47,1.67,1.56,2.53,1.24,12.13,7,17.65,19.2,18.28,3.64,0.19,7.31.08,10.93,0.45,6.1,0.63,11.91-.85,17.67-2.35C147,1085.84,148.81,1082.56,146.56,1078.84Zm-61.38-58.22c2.55-1.93,5.56-3.25,9.05-5.21,1.09,3,2,5.84-.08,7.11a16.29,16.29,0,0,1-8.29,2C84.38,1024.54,83.71,1021.73,85.18,1020.62Zm6.63,10c1.67,0.27,3.22.32,3.45,2.49,0.21,1.95.59,3.91-1.33,5.29a7.32,7.32,0,0,1-.89.4l-7.32,3.87a6.19,6.19,0,0,1-2.28-5.47C83.52,1030.89,85.34,1029.54,91.8,1030.57ZM83.73,1055c0.05-8,.91-8.7,14.52-11.26C93.69,1050.1,88.27,1051.67,83.73,1055Z"/><path class="cls-2" d="M67,1056.57c6,0.33,7-.42,5.83-4.75a8.13,8.13,0,0,0-1.56-3.44c-3.24-3.44-7.86-5.65-5.27-12.21,1.83-4.65,3.11-9.12,7.64-11.87,1.18-.72,1.13-2.15,1.13-3.43-6.75-4.61-13.39-6.77-20.08.46-1.28,1.38-3.5,1.86-5.21,2.87A151.83,151.83,0,0,0,20.86,1046c3.59,0.94,6.14,1.58,8.68,2.27,2.84,0.78,5.72.28,8.93-.33-5.78,11.09-5.47,14.38,2.46,22.86,1.21-1.62,2.36-3.24,3.6-4.8,1.11-1.4,1.52-3.59,3.91-3.7C46,1073.88,46,1073.88,54.07,1079c7.09-7.83,4.33-19.28,9.92-27.83C64.2,1053.67,66.37,1054.7,67,1056.57Z"/></g></svg>