<svg id="图层_1" data-name="图层 1" xmlns="http://www.w3.org/2000/svg" viewBox="0 0 200 1362.93"><defs><style>.cls-1{opacity:0.05;}.cls-2{fill:#fff;}</style></defs><title>主站</title><g class="cls-1"><path class="cls-2" d="M109.82,1331.42c-1.33-8.9-5.32-11.29-16.11-10.4,4.62,2.9,5.09,5.53,2,9.74-7.82,10.51-15,21.46-24.49,31.12,6.06,1.41,9.53-1.91,12.58-5.4a58.47,58.47,0,0,0,8.9-13.14,35.16,35.16,0,0,1,9-11.67c2.19,4.67,2.42,8.57,2.6,12.57a45.19,45.19,0,0,0,4.38,17.32c0.67,1.42,2,1.57,3.37,1.2,1.55-.41,1.92-1.27,1.42-2.87C110.53,1350.61,111.23,1340.87,109.82,1331.42Z"/><path class="cls-2" d="M84.94,1320.39c13.21-7.13,26.72-12.66,42.23-9.39,1.29,0.27,2.95.07,3.21-1.38a3,3,0,0,0-2.68-3.53,38.53,38.53,0,0,0-9.82.18c-7.1,1.33-14.11,3.14-21.16,4.77-9.75,2.26-19.4,5.13-29.87,4.54C75.24,1323.61,77.65,1324.32,84.94,1320.39Z"/><path class="cls-2" d="M116.1,1340.49c9,8.8,16.43,15.88,28.18,8.85C136.93,1342.68,127.12,1342.9,116.1,1340.49Z"/><path class="cls-2" d="M95.05,673.86c-3.7-1.18-1.13,2.38-2.21,3.28s-1.92,1.72-3.73,3.36c-0.74-5.19-.67-8.91,1.48-12.7s-0.41-6.7-3.76-7.75c-3.64-1.15-3.74,2.67-4.46,4.85a38.49,38.49,0,0,0-1.29,16.82c0.58,4.86-1.31,7.11-5.35,9.25-9,4.78-18.39,8.7-28.22,12.72,12.19,7.68,20.54-4.3,31.92-5.24-1.77,14.88-9.18,27.16-16.33,40.64,11.45-3.61,13.49-14.63,20.49-21.84,2,13.27,1,25.4-.86,39.64,2.31-2.75,3.32-3.41,3.49-4.24C89.77,735.29,90,717.61,90,700c0-6.48-1.37-12.32,4.41-17a10.24,10.24,0,0,0,2.55-4.22C97.75,676.74,97.34,674.59,95.05,673.86Z"/><path class="cls-2" d="M137.06,678.11c-1.54-4.25-5.22-5.42-9.55-5.59-3.72-.14-7.44,2.11-11.26.28,6-14.31,6.1-15.4.63-20.68-0.94,4.13-1.52,8-3.43,11.41a79.74,79.74,0,0,0-4.56,8.78c-1.13,2.77-1.72,5.94.64,8.39,2.66,2.76,5.48,1.16,8-.49a14.72,14.72,0,0,1,11.74-2.06c0.87,5.23-4.58,7.59-4,13.31,2.77-1.55,4.82-2.55,6.71-3.79C135.41,685.44,138.77,682.84,137.06,678.11Z"/><path class="cls-2" d="M112.91,726.29c2.39-2.16,4.41-3.79,6.2-5.63,8.19-8.43,8.16-8.44,0-17.12-1.1-1.17-2.05-2.48-3.07-3.73C119.11,708.82,111.62,716.82,112.91,726.29Z"/><path class="cls-2" d="M112.77,729.42c-0.47,6.14,8.4,8.52,2.53,15.21l14.28-2.5C126.26,733.23,118,734.2,112.77,729.42Z"/><path class="cls-2" d="M134.16,838.88c-0.57-2.86-1.32-5.68-2.11-9-2.74,2-3,4.07-3.72,5.86-2.93,6.88-6.83,12.4-15,14.1-3.77.79-7.17,2.73-11.34,2.84-5.88.15-11.68,2.18-17.65,0.29a2.65,2.65,0,0,0-3.1,1.85c-0.66,1.66.71,2.5,1.73,3a14.87,14.87,0,0,0,5.56,2c12.88,0.9,25.64,0,37.68-5C133.17,852.08,135.62,846.23,134.16,838.88Z"/><path class="cls-2" d="M104.06,796.74a9.12,9.12,0,0,0,1.4-4.66c0.4-4.73-2.19-7.08-6.65-5.58-4.29,1.45-8.47,3.4-11.82,6.79,4.36,3.2,8.72-2.31,12.95.09-1.61,7.15-6.81,12.13-9,18.59C96.93,808.3,99.94,802,104.06,796.74Z"/><path class="cls-2" d="M91,812l-0.36.23,0.21,0.18C90.87,812.26,90.93,812.12,91,812Z"/><path class="cls-2" d="M82.6,817.41c-3.49,7.25-6.54,12.63-8.7,18.35-2.72,7.21-.95,12,5.78,15.51C73.07,839.34,85.22,830.43,82.6,817.41Z"/><path class="cls-2" d="M86.71,818.79c1.37,3.23,4.45.72,6.75,0.25s4.44-1.21,6.65-1.81c1.57-.43,3.53-0.69,3-2.93-0.62-2.64-3-2.25-4.81-1.86s-3.53,1.72-5.4,2.19c-1.56.39-2-.94-2.24-2.19C87,813.1,85.49,815.91,86.71,818.79Z"/><path class="cls-2" d="M90.62,812.21l0,0.22,0.17,0Z"/><path class="cls-2" d="M71.45,1260.89a58.68,58.68,0,0,0,29.43-18.34c-7.43,1.75-13.15,8.42-21.79,7.7,1.4-5.26,7-7.19,8.23-11.46,1.33-4.48-.87-9.23-2.66-13.85l10.31-.81c-0.88,1.92-1,2.67-1.43,3.06-2.12,1.9-4,4.33-1.84,6.76s4.85,0.47,7.34-.39c5.36-1.86,7.94-6.89,11.88-10.33,4.78-4.18,3.67-7.6-2.21-10.37-2.75-1.3-4.9-.5-7.51.49-7.66,2.91-13.95,8.74-23.3,9.83,6.32,4.92-2.12,12.29,4.41,16.56-1.23,1.53-2.37,3.15-3.72,4.57C74.41,1248.67,72.05,1253.74,71.45,1260.89Z"/><path class="cls-2" d="M114.91,1274.8c-15-1.21-30.11.14-45.06,2.82,24.69,2.6,49.19,6.12,75.69,11.1C134.82,1281.46,125.62,1275.67,114.91,1274.8Z"/><path class="cls-2" d="M99,1256.65l-19.48,10.65c8.9-.21,16.28-4,23.23-9h0c5.7-3.26,11.69-6.11,17-9.92a28.9,28.9,0,0,0,9.51-11.16c1.09-2.37.43-4.77-2.59-5.22-2.37-.35-7.13-0.37-6.29,1.67,1.92,4.66-1.82,5.56-3.45,7.45C111.74,1247.19,105.5,1252.1,99,1256.65Z"/><path class="cls-2" d="M99.11,1144.43h0l-0.19.06-0.05.11,0.1,0,0.12-.11h0Z"/><path class="cls-2" d="M86.6,1127.11c3.79,4.25,2.25,8.72-.3,11.78-3.94,4.73-3.94,9.76-3.21,15,1.28,9.19,1.55,18.28-.57,27.39a19.79,19.79,0,0,0,1,12.68c1,2.28,2.93,4.07,5.45,3.4,3-.81,2.52-3.64,1.69-5.73-3.22-8-1.43-16.29-2-24.55,7.89-.44,14.51-2.71,20.53-7.75-1.3-1.1-2.16-2.41-3.26-2.66-6.6-1.46-10.47,5.17-16.42,5.79a2.22,2.22,0,0,1-.5-0.77c-0.18-1.63-.28-3.27-0.45-4.91-0.89-8.24-.9-8.25,6.73-11.2,1.16-.45,2.38-0.76,3.57-1.12C104.07,1133.83,99.71,1127.18,86.6,1127.11Z"/><path class="cls-2" d="M122.33,1189c-2.77-9.83-1.8-19.81-1.85-29.68C120.4,1143,114,1137.89,99,1144.56c-1.11,1-2.71,1.77-2.4,3.75,3.12,1.52,5.67-.92,8.53-1.29,5.58-.73,7.34.49,7.43,6.11,0.17,10.22,0,20.45,0,31.62-7.4-1.51-13.54,1.38-19.83,4.22,4,5,9.38,3.8,14.47,4,2.83,0.1,5.49-1.31,8.62.49C120.48,1196.09,123.71,1193.85,122.33,1189Z"/><path class="cls-2" d="M91.27,1177.37c6-.05,11.81-0.43,17.07-4.06C100.63,1166.79,96.47,1174.67,91.27,1177.37Z"/><path class="cls-2" d="M78,178.58C74.3,172,74.32,172,66.36,173.13c8.33,11.18,4.56,22.75.46,34.32,3.08,1.74,6.61.29,9.73,1.94a4.88,4.88,0,0,0,7.22-3.12c1.09-6.28,3.81-12.87-.78-19.1A77.75,77.75,0,0,1,78,178.58Z"/><path class="cls-2" d="M97.84,163c-2.18,0-4.36,1.19-8.66,2.52l3.57,0.8c5.84,1.36,7.79,4.25,6,9.45s-5.13,2.17-8.06,1.32c-1.15-.33-2.19-1.63-4.13-0.1a9.06,9.06,0,0,0,1.94,5.78c1,1.29,2.81,3.35,2.44,4-2.52,4.13-.38,4.22,2.76,3.54a34.77,34.77,0,0,0,3.65-1.48c3.45-1.18,7.33-2.13,7.68-6.58,0.44-5.53,1.56-11.24-1.12-16.52C102.74,163.39,100,163,97.84,163Z"/><path class="cls-2" d="M141.64,165.09c-3-1.32-5.68-.7-8.51.67-2.61,1.26-5,3.3-8.31,2.72-1.57-6.6,2.06-13.73-2.09-20-1.47.11-3.45-.8-3.7,1.82-0.16,1.63-.23,3.31-1.75,4.4h0c-0.56,7.27-4.95,13.74-4.35,21.27,0.5,6.21,2.29,8.2,8.07,5.88,5-2,5.94.34,6.92,3.72a49.81,49.81,0,0,1,1,6.84l-4,14.26c2.31,0,4.25,0,6.18,0,11.09-.31,13.79-4.11,9.58-14.13-1.35-3.2-1.87-7.14-5.57-9-1.24-3.12-6.15-2.34-7.1-6.11a23.64,23.64,0,0,1,12.67-3.16c2.68,0.06,6.7,1.87,7.27-2.55C148.47,167.7,144.7,166.45,141.64,165.09Z"/><path class="cls-2" d="M132.06,142.5c4.46,0,8.89.36,13.53-1-6.18-6.73-9.25-8.4-16-7.64-6.18.7-12.28,2-18.42,3-0.31,2.74.48,6.37-4.39,5.41-2.1-3.09-5.45-1.48-8.19-2.18l-40.4,12.66c6.95,5.93,13.57,6.83,21.09,3.49,6.93-3.08,14.1-5.63,21.17-8.41,0.26-1.36.17-2.87,1.52-3.8l0.83,2.43,3.78-.43h0q0.12-.73.29-1.46l6.16,0.1C119,141.08,125.66,142.54,132.06,142.5Z"/><path class="cls-2" d="M123.08,479.87c1.57-3.74,4.7-4.59,6.8-6.59-3.12-4.84-7.08-8.47-13.08-9.16,1.18-3.24,2.79-5,5.8-5.42,2-.26,3.14-2.32,2.34-3.56-3.22-5-.81-8.48,2.28-12.13,1.06-1.26,2.09-3.53.9-4.57-6.11-5.34-1.35-12.53-3.5-18.5-1.07-3,.21-4.83,3.42-5.91s6.24-2.31,8.23-5.27c0.88-1.3,2.61-2.3,1.57-4.19a5.32,5.32,0,0,0-4-2.57c-2.58-.43-4.35,1.11-6.31,2.36-4.74,3-9,6.78-14.42,8.72-6.18,2.22-6.14,2.35-8.41-4.7h0c-2.18-1.69-2.17-4-1.68-6.36a1.65,1.65,0,0,0,0-1.63,75.88,75.88,0,0,0,14.9-5.23c2.82-1.43,5-3.31,6.15-6.15,1.05-2.68,2.87-6.07.42-8.32-2.93-2.7-5.42.31-7.47,2.35-2.26,2.24-5.84,2.8-5.83,7.78,0,3.36-5,5.88-8.58,7.38-2.13.9-1.8-3.77-5.12-3.78a10.73,10.73,0,0,1,.84,7.69c-4-2.84-9.07-.87-13.7-2.61,0.49-3.84-1-8.28,4.51-9.69-3.56-4.49.92-7.48,2.4-10.73-2.36-2.82-5.09-3.76-8.73-4.06,0.19,7-1.69,12.93-11.19,14.43,4.42,0.93,7.63.27,7.46,5.11-0.34,9.35-.5,9.89-11.85,14h0c2.86,4.51,6.27-1.66,9.38.62,1.64,4.52,1.06,8.47-3.55,11.2h0a6.27,6.27,0,0,1,.89.39c3.34,2.11,5.61,4.62,2.33,8.44-1.07,1.25-3,2-4.24.37-2.66-3.34-2.66-6.57,1-9.2h0l0.06,0,0.16-.12-0.16.12h0l0.18-.13c-2.68,1-4.77.27-6.87-1.69-1-.92-2.27-2.55-3.64-2a21.06,21.06,0,0,0-1.51,1.63c3.05,2.61,2.9,6.48,3.88,9.9,0.72,2.51,1,5.17,2,7.56,1.11,2.73,3,4.74,5.76,1.5,1.3-1.55,2.47-3.82,4.51-2,1.87,1.69,1.22,4.39-.15,6.37a29.91,29.91,0,0,1-4.13,4.3c-7.22,6.92-13.72,14.67-22.94,19.35C62.58,466.54,69,455.83,78.41,451c0.66,4.16,1.47,7.73,1.74,11.35,0.3,4,.09,8,0.13,12a58.81,58.81,0,0,0,.25,7c0.31,2.33,7.63,7.41,9.54,6.63,4.2-1.72,3.64-5.24,2.46-8.42-2.77-7.52-3.41-15.48-5.23-23.19-1.9-8.06-2.31-15.79,5.75-21.31,1.57-1.07,2.55-3,3.8-4.53-0.23-2.9.95-6.1-.64-8.66C92.88,416.35,97,413,99.4,409c1.86,5.85,1.37,11.75,1,17.65,0.19,1.31,0,2.85.65,3.88,2.27,3.68,2,6.23-1.35,9.56-3.77,3.79-3.51,9-1.42,14,0.88,2.1.85,4.59,3.15,6,2.49,1.48,4.54-1,6.94-1.55,0,3.51.29,6,1.67,8.46s4.49,2.44,5.81,4.92c-0.88,1.15-1.66,2.21-2.5,3.22-1,1.25-2.23,2.38-3.18,3.7-3.21,4.44-1.95,9,3.14,9.64,8.57,1.06,17.12,3.8,26.33,1.18C136.52,482.32,129.56,481.37,123.08,479.87ZM83,421.48c-0.28-1.47.55-2.42,1.85-3s1.64,0.31,2,1.12a3.12,3.12,0,0,1-1.93,3.18C83.51,423.48,83.21,422.36,83,421.48Zm1.53,11.63c0.08-4.58,1.86-5.78,5.23-6.21C89,429.8,87.71,431.51,84.57,433.11ZM85.69,414c-3.07.26-2.72-2.09-2.88-4-0.3-3.45.88-5.94,4.73-5.92,1.85,0,2.8,1.46,2.75,3.7C89.63,410.3,89.76,413.68,85.69,414Zm20.65,42.36c-5.44-10.34-5.37-10.51,5-10.47ZM109.58,434c-3.51-5.2-1.79-11.17-2.94-17.84,2.61,0,3.89-.08,5.16,0,3.06,0.22,7.21-1.83,8.71,2.06s-0.36,7.83-2.8,11.07C115.9,431.68,113.13,432.91,109.58,434Z"/><path class="cls-2" d="M120.46,1090.93c-6.83,1.1-13.49,3.18-20.24,4.78-2.52.6-4.84,2.25-7.63,1.54-8.65-2.21-17.07-.5-25.47,1.53-3.12.94-6.23,1.93-9.38,2.8s-6.82.42-9.4,5.05a59.54,59.54,0,0,0,6.84-.83A77.5,77.5,0,0,0,69.65,1101c0.37-.16.77-0.36,1.16-0.57,7.3-.2,14.37-0.2,21.32,3.36,4.4,2.26,9.85,3.35,13.8-2.44,1.86-2.73,5.4-3.76,8.62-4.62,0.82-.22,3.23-1.2,2.34,1.21-1.55,4.18,1.55,4.58,3.87,4.88,5.18,0.68,10.44.82,15.76,1.18C135.11,1094.65,129,1089.55,120.46,1090.93Z"/><path class="cls-2" d="M58.91,1077.38c3.33,3.88,6.13,1.53,10.25-1.85-1.94,5.22-4.62,7.61-7.49,11.14,5.36-.94,7.85-4.08,10.69-6.67,2.17-2.88,3.16-6.95,7.24-7.73,3.88,2.4-2.07,5.32.88,7.61,4-6.4,8.63-12.37,10.57-19.94,1.16-4.5,4.78-7.12,9.39-8.73,0.36,10.82-4,19.67-8.32,28.7,2.52,0.42,4.6,2.25,6.31-.46,0.91-1.44,2.42-3.19,3.74-2.84,5.21,1.37,5.73-2.46,7-5.63,0.59-1.52,1.1-3.07,1.65-4.6,1.23,0.51,2.5.93,3.67,1.56,5,2.69,5,2.7-.22,6.75a11.71,11.71,0,0,0-1.4,1.72c7.41,4,14.43,3.59,21.73-.4-2.28-6.55-7.45-8.69-13-10a103.93,103.93,0,0,0-10.81-1.54h0c-0.36-5.39,1-8.18,7.56-8.31,8.09-.15,14.32-4.48,16.25-13,0.84-3.7,2.35-7.87-1.76-10.74-3.69-2.57-8.67-1.77-13.27,1.77-2.5-.6-7.53,2.26-5.52-4.39,1.79-5.92-.55-11.82-0.74-17.74-0.13-4-3.3-5.49-5.84-7.5a2.28,2.28,0,0,0-2.75-.25c-1.33.81-1.53,1.66-1.09,3.18,3.3,11.25-1.17,22.35-.84,33.56,0.1,3.4-3,3.49-4.74,4.83-1.64-1.94-.85-3-0.32-4.24,2.92-6.77,2.89-6.78-3.2-11.37-3.61-2.72-8.48-4.79-4.48-10.85,1.06-1.59-.92-2.77-2-4a13.3,13.3,0,0,0-9.12-4.74c0.7,8.75-3.61,15.31-6.56,22.26-2.73,6.42-2.34,6.82,4.29,8.37,2.5,0.59,3.65-2.2,6.18-1.21-1.2,7.36-2.52,14.4-9.46,19.43-4-6.36-9.23-9.23-16.74-6.06,3.53,4.13,5,8.2,1.1,13.2C55,1070.06,55.9,1073.87,58.91,1077.38Zm60.36-43h0l0.31-.22-0.29.22c6.73,0.89,7,1.14,3.7,5.36-2.72,3.5-4.71,7.94-9.58,9.39C110.73,1042.06,114.49,1038,119.27,1034.34Z"/><path class="cls-2" d="M58.74,928c-0.51-2.12.72-4.75-2.94-6.58-3.17,2.92-3.84,7.11-4.48,10.8-1.15,6.63-.16,13.24,4.49,18.7a3.41,3.41,0,0,0,3.44,1.4c1.68-.35,1.88-1.77,2-3,0.56-7.13,1-14.28,1.47-20.86C61,925.65,60,933.28,58.74,928Z"/><path class="cls-2" d="M149.87,970.42a4.92,4.92,0,0,0-3.81-5.25c-7.54-1.17-14.34-6.69-23-3.95,4.39,3.3,8.39,6.59,12.68,9.44,4.54,3,8.73,6.7,14.27,8.86C151.5,976.1,149.3,973.35,149.87,970.42Z"/><path class="cls-2" d="M133.32,944.42a20.12,20.12,0,0,1,8.75.17c3.65,0.76,7.42,1.75,11.73-.25-5.09-7-9.79-12.06-19.06-8.77-2.65.94-6.39,1.8-9.54,0.22-1.11-2.92.81-4.32,2.47-6,3.71-3.79,7.38-7.63,10.81-11.66,4.52-5.31,2.93-9.47-3.8-11.59-3.33-1-6.24.91-9.68,1.15-1.08-12-1.48-23.88-16.84-30,6.9,9.62,6.16,19.14,7.95,28.07,1,4.93-1.11,7.72-6.55,7,5.7,1.26,7.88,4.8,7.52,10.57-0.28,4.49.25,9-2.24,13.38-5.65-2.75-6.42-7.7-7.14-12.53-0.58-3.87-.74-7.8-1.08-11.7-2.21.41-3.79-3-6.51-.91,1.61,4,2.37,8.26.49,12.34-3,6.46,4.47,11.5,2.32,17.89-0.15.44,3.27-.16,4,2.06-7.92,2.37-15.14,6.66-23.76,7-5.22.2-7.83-2.3-8-6.59-0.37-7.49-2.37-14.91-1.68-22.51,2.73,0,5,.4,7.16-1,1.63-1.11,3.89-1.84,3.74-4.17-0.17-2.67-2-4.18-4.73-4-7,.54-7.82-4-8.37-9.35-0.68-6.68-2.54-7.41-7.9-3.89-2.21,1.45-3.83,2.91-1.14,5.34a7.37,7.37,0,0,1,2.75,6.17c-0.57,7,1.47,13.81,1.34,20.85-0.23,13,.3,25.94.75,38.9,0.23,6.69,4.59,10.82,11.49,11.29,0.24-2.83-1.37-5.11-2.47-7.35-2.36-4.82-1.83-9.84-1-14.65,0.63-3.53,1.51-7,7.67-5.43,5.85,1.54,12.39.41,18.44-2.18,3.74-1.6,7.59-4.06,12.4-3-0.55,10.38-4.68,19-11,27,6.3,0.33,11.92.25,14.58-5.44,2.22-4.74,4.74-9.46,5.44-14.87C123.82,946.24,124,946.45,133.32,944.42Zm0.73-35.49c-1.16,5.9-4.4,10.41-8.15,15.61C123.22,910.47,123.5,910,134.05,908.93Z"/><path class="cls-2" d="M144.9,335.46c-0.79-3.12-2.16-5.53-6-5.22-3.29.26-6.6,0.23-9.9,0.33l0.24-.15c-13.85,3.33-27.76,5.93-42.09,6.17-6,.1-11-0.16-12.44-7.4-0.23-1.19-1.34-2.28-2.2-3.28-5.61-6.48-5.63-6.47-1.47-13.26,2.22-3.63,1.56-5.56-2.58-5.77-5.86-.29-11.76,0-16.95,4.17,8.35,3.28,8.81,3.15,9.38,5.29,1,3.74,3.26,6.08,6,8.68,5.71,5.37,3.86,12-3.5,14.43-1.2.4-2.72-.09-3.88,0.37-0.63.25-1.13,1.65-1.1,2.51,0,1.41,1,2.82,2.51,1.87,5-3,11.12.43,16-3.24,1.51-1.13,4-.75,5.81.1,6.14,2.85,12.9,2.8,19.3,4.42,13.44,3.39,26.27,1,38.75-4.26C143.27,340.16,145.79,339,144.9,335.46Z"/><path class="cls-2" d="M68.1,277.13c1.76-1.26,4.89-1.59,4-4.5s-3.73-5.07-6.94-3.67c-6,2.59-12.6,2.87-18.9,6.82,3.81,0.85,7.58,2.14,11.43,2.41C61.07,278.43,64.73,279.54,68.1,277.13Z"/><path class="cls-2" d="M140.1,317.41c0.91-7.49,2-15.18.32-22.81-2.45-11.1-9.5-15-20.4-11.4-2.74.92-5,3.64-8.45,2.39,0.1-3.46-1.18-7.63,3.73-9,9-2.48,11.94-10.79,16.76-17.23,1.3-1.74,1.75-4.36,1.94-6.63,0.84-9.86-6.39-15.71-15.6-12.49-4.64,1.62-8.92,3.91-14.13,3.9-3.59,0-4.46,3.06-2.21,6,4.73,6.19,4.52,7.64-1.88,12.78,0.64,1.95,3.17,1.23,3.95,2.61,1.23,2.18,3.36,5.15.43,6.95s-3.48-1.85-4.57-3.62c-4.59-7.46-4.57-7.47-11.85-9.69,1.28,3.66,2,7.35,3.77,10.38,2.62,4.39.68,6.21-5.23,7.53,8,4,13.78,8,17.11,14.7l-15.84,9.6c-2-1.7-1.71-4.78-5.25-5.22-0.68,5.56-1,11.1.48,16.51,1.39,5.14,3.5,10,9.62,11.26h0c0.95,1.38,2.18,3,3.82,1.48,3.67-3.51,3.87-7.43.39-11.33h0c-0.76-3.43-5.83-3.12-6.21-7.19a44.43,44.43,0,0,1,15.13-10A30.57,30.57,0,0,1,103.67,310a6.62,6.62,0,0,0,1.86,8.09c2.5,1.84,4.6-1,6.76-2.46,8.43-5.73,8.37-13.44,5.71-23.6-1.33,2.44-1.89,3.54-2.52,4.6s-0.68,2.54-2.4,2.46c0-6.89,0-6.89,6.22-10.12,7.77-4,9-3.4,10.21,4.82,1,6.32-.09,12.47-1.13,18.66-0.78,4.63-3.2,6.94-8,6.67-1.39-.08-3.05-1.34-4.86,1.1,5.95,1.79,8.1,8.07,13.7,10.18l-0.24.15C134.21,327.46,139.36,323.52,140.1,317.41Zm-26.52-68.57c1.65-1.75,4.27-3.13,8.34-2a60.89,60.89,0,0,1-2.07,6.87c-1.29,3-4.32,3.83-6.48,2.2S111.89,250.64,113.58,248.83Zm0.19,15.47a1.58,1.58,0,0,1,1.16,2.14c-0.43,1.32.29,3.47-2.07,3.46-1.59,0-1.71-1.48-1.84-2.48C111,265.3,111.92,264.15,113.78,264.3Z"/><path class="cls-2" d="M140.44,22.11c-0.94-2.27-3.39-1.48-5.18-2-2.49-.74-4.42.74-6.53,1.63a46.12,46.12,0,0,1-7.42,2.58c-1.51.35-3.36,0.54-4.66-.84-1.49-1.58-.31-3.06.41-4.47a55.53,55.53,0,0,1,3.82-6.94c3.27-4.58,1.33-7.26-3.54-9.56a43.92,43.92,0,0,0-6.23,15c-1.64,7.08,2.19,11.22,9.39,11.68,2.37,0.15,5-2.25,7.21.51-0.67,1.32-2.17,2.2-1.64,4.13,4.32-1.55,7.81-4,11.35-6.31C139.4,26.17,141.63,25,140.44,22.11Z"/><path class="cls-2" d="M129.44,72.08c-4.32-.8-8.57-2-14.21-3.4,4.16,5.25,3.46,9.44-.74,13.7a50.88,50.88,0,0,0,14.65-1.83c2.19-.61,5.14-0.4,4.59-3.6C133.38,74.9,132.35,72.62,129.44,72.08Z"/><path class="cls-2" d="M126.57,55.23c4.05-3.26,3.7-5.5-.79-8.3-1.23-.76-2.59-1.83-4.63-1,0.72,6.35-3.62,11.63-4.9,19.94A54.14,54.14,0,0,1,126.57,55.23Z"/><path class="cls-2" d="M90.5,0.92C89.6,0.58,88.62.43,86.9,0c0,5.92-.26,11.22.08,16.47,0.3,4.75-.8,7.52-6.19,7.93-5.07.39-9.29,3.3-15.38,5.7,5.07,2,8.4,3.26,11.66,4.67s4.27,3.21,1.82,6.8C74.52,48,70.83,54.88,65.81,63.33,76.74,60,78.67,49.91,86.27,45.06c-0.5,3.69-1.05,6.59-1.25,9.51s0,6-.08,9c-0.26,10.77-.27,10.77-11.09,11-0.89,0-1.3.31-1.1,2.36a7.59,7.59,0,0,0,3.93,4c3.74,1.77,6.17,7.5,11,5.31s3.19-7.58,3.56-11.68c1.83-20.12,3-40.31,7-60.17C100.3,4.67,100.2,4.64,90.5.92Zm-9,31.75c-1.27.27-2.63,0.38-3.54-.83a1.6,1.6,0,0,1,.74-1.15c1.21-.19,2.57-0.72,3.6.62C82,31.81,81.82,32.59,81.48,32.67Z"/><path class="cls-2" d="M76.5,584c-1.59-2.14-.91-6.15-3.85-6.42-3.41-.32-3.63,3.08-3.79,5.77-0.06,1,0,2,0,3-0.18,12.54,1.23,25.22-4.21,37.22-1.43,3.16.69,5.72,3.21,7.66a2.62,2.62,0,0,0,2.71.73c1.43-.55,2.44-1.83,2-3-1.82-4.78-.63-9.1,1.34-13.45a3.21,3.21,0,0,0,0-2.74c-6.16-7.5-1.26-14.9.17-22.28C74.46,588.24,75.66,586.15,76.5,584Z"/><path class="cls-2" d="M71.52,538.61c1.2,4.47,4.1,7.75,2.1,11.91,3.79,0.19,6.72.49,9.65,0.44,3.7-.07,4.14-1.56,2.29-5C82.7,540.64,77.68,539.68,71.52,538.61Z"/><path class="cls-2" d="M99.91,611.15c4.78,2.88,7.69,4.77,9.28,8.13a3.31,3.31,0,0,0,5.07,1c2-1.44,1.34-3.81.32-5.3C111.69,610.78,107.42,609.83,99.91,611.15Z"/><path class="cls-2" d="M136,587.27c4-.85,7.41-4.67,11.3-7.3-3.66-3.92-9.08-1.17-12.06-4.79,4-7,3.41-8.36-4-8.58-3-.09-5.63,0-7.78-2.74,2.78-2.52,9.38-2.74,4.11-9.33-0.72-.9.73-3.73,1.46-5.56,1.24-3.08,2.63-6.1,4.09-9.08,1.37-2.81,2.59-5.58-.23-8.16-2.62-2.4-5.68-3.51-9.1-1.91-6.16,2.86-12.25,5.87-19.24,9.23,7.42,2.83,13.31-2,19.5-.34-0.47,3-.57,5.55-3.41,7.14-8.08,4.53-15.79,1.77-24.53-2,3.19,6,5.65,10.56,8.08,15.15,2.77,5.25-3.1,2.8-4.38,4.8,7.86,5,15.62,1.41,23.35.21-0.08,3.95-1.58,7-5.56,7.88s-6.91,3.65-10.62,4.91h0c-3.57,2.31-8.8.64-13.2,5.51,6.22-.43,11,2,15.37-1.43h0c4.62-1.25,8.89-3.88,13.53-4.11,3.34,8.59-.5,13.06-7.28,16.4-5.27,2.6-10.29,5.73-16.14,9,9.92,2.73,15.85-6,24.7-6.65,0.78,9.43,1.49,18.61,2.33,27.77,0.25,2.76-.61,4.41-3.41,5.11-1.74.44-4.13,0.36-4.13,3.4,1.91,0.33,3.81.77,5.74,1,10.35,1.16,11.86-.41,10.42-10.67-0.18-1.32-.23-2.66-0.51-4-1.51-7.13-1.66-14.46-3.6-21.56C129.67,592.38,129.75,588.61,136,587.27Zm-15.49-32.76a4.84,4.84,0,0,1-5.11,3.82c-2-.07-2.84-1.68-2.6-3.45,0.46-3.45,3.46-2.22,5.49-2.61C119.91,552,120.71,552.9,120.56,554.51Zm9.24,28.91c-2.17-1.73-1.35-4.13-1.14-6.35a18.22,18.22,0,0,1,.7-2.52,11.87,11.87,0,0,1,2.27,1.68c1.44,2.1,3.65,4.19.82,6.79A2,2,0,0,1,129.79,583.42Z"/></g></svg>