<svg id="图层_1" data-name="图层 1" xmlns="http://www.w3.org/2000/svg" viewBox="0 0 200 1354.93"><defs><style>.cls-1{opacity:0.05;}.cls-2{fill:#fff;}</style></defs><title>主站</title><g class="cls-1"><path class="cls-2" d="M86.16,1201.24l-0.29.18,0,0.18Z"/><path class="cls-2" d="M124.26,191.37c-7.21-1.51-14.49-1.53-21.79-1.68-2.29,0-5.43,2.48-6.85-1.25-1-2.63,1.18-4.09,3-5.67,3.64-3.25,2.7-7.64-.58-9.24-6.92-3.38-4.8-9.12-4.11-13.73,0.76-5.07,6.5-3.36,10.07-4.39a22.84,22.84,0,0,1,11.85-.08,15.47,15.47,0,0,0,8.82.12c-2.25-9.11-3.42-10-11.93-8.61-4.91.82-9.74,2.09-14.65,2.85-3.08.48-6.09,0.38-6.11-4.18,0-5.42-3.29-5.75-7.5-4.49-3.63,1.09-6.57,3-8.28,6.47,1.64,2,4.81-.85,6.69,3.16C74.31,152.8,66,154.6,57,154.42c3.69,8.58,5.32,9.9,12.61,7.74,4.53-1.34,8.84-1.36,14.17-1.37-3.77,6.27-5.53,12.07-.32,17.77A3.48,3.48,0,0,1,84,183.1c-3.7,5.59-2.46,10.22,1.86,15.2,3,3.42,1.4,6-2.72,8.47-3.23,1.9-7.68,1.44-10.29,4.72,2,4,5.1,4.51,8.57,4.87s5.88,2.5,6.31,6.36-1.07,6.28-4.82,7.54c-3.14,1-6.16,2.42-9.54,2.64,4.18,5.83,9.62,0,14.45,2.49,0,4.64-.25,9.3.06,13.92,0.39,5.81-2.3,8.56-7.81,9.31-4,.56-8,1.4-13.16,2.32,6.27,4.77,12.52,5.17,18.72,5.89,8.27,1,9,.65,9.8-7.62,0.86-8.93,1.42-17.89,1.8-26.85,0.14-3.43,1.31-5.32,4.5-6.79s7.29-2.15,7.64-6.83c-1.93-.39-4.07-0.38-5.76-1.25-4.6-2.38-3,3-5.62,4-1.21-3.94-1-7.55,1.5-10.78s3.13-5.85-1.39-7.72a2.63,2.63,0,0,1-1.92-3c0.29-1.77,1.7-1.88,3-1.89,4.84,0,9.78-.63,14.89,1.73-2.56,5.2-7.45,7.8-10.36,12.13l0.05,0.09c4.09,1.77,8,.28,11.81.7,7.63-1.11,13.54-3.62,14.35-12.89C130.36,194.74,129.1,192.38,124.26,191.37Z"/><path class="cls-2" d="M78.27,1316.65c9.7-4.2,19.31-8.6,29.14-12.46,8.32-3.27,16.83-6.06,26-3,1.76,0.59,3.91.09,5.88,0,1.35-.1,2.7-0.63,2.8-2.18a3.69,3.69,0,0,0-1.91-3.25,10.1,10.1,0,0,0-7.67-1.26,104.32,104.32,0,0,0-15.46,3.48c-17.52,5.83-34.5,13.32-53.89,17.26C69,1319.89,73.6,1318.67,78.27,1316.65Z"/><path class="cls-2" d="M142.55,1316.37c-4.67-1.85-8.65,2.82-13.28,1.6,2.53-10.37,2.53-10.37-5.32-13.21-10.53.34-14.52,9.12-20.25,15.67h0c-3.6,2.52-4-4.22-7.34-2.54-0.87.44-2.48,0.47-2.66,1-0.6,1.92,1.52,1,2.25,1.72,2.45,2.33,2.6,5.14-.22,6.56-4,2-7.37,7.21-13,3.46-1.44-1-2.55,0-3,1.31-1,3.21,9.43,15.29,12.7,14.92a5.61,5.61,0,0,0,4.74-3.13,20.71,20.71,0,0,0,2.3-6.5c0.66-6.46,3.6-11.86,7.08-17.09h0c3.42-1.55,5.17-4.85,7.51-7.46,2.59-2.88,5.25-4.93,9.31-4.3,1.12,5.22-1.6,10.48.2,15.69,0.63,1.82,1,4.1,3.51,4,5.2-.15,8.88-4,13.36-6C142.59,1321.21,143.56,1319,142.55,1316.37Z"/><path class="cls-2" d="M79.59,1354.93c-1.28-11.28-1-21.68-9.73-31.91C70.36,1339.23,73.6,1350.53,79.59,1354.93Z"/><path class="cls-2" d="M139.79,1339.43c-3.79-2.22-7.75-4.15-12.72-6.78,1.4,6,5.18,8.87,7.63,12.57,2,3,3.87,1.57,5.64-.11C142.47,1343.07,142.32,1340.91,139.79,1339.43Z"/><path class="cls-2" d="M67.71,727.65c-2.14-1.53-4.28-3.18-7.15-3.27C57.4,740.54,48.19,753.85,40.17,768c4.17-4.38,11-2.64,14.87-8.35,5.4-8,9.05-17,14.42-25C71.15,732.11,70.21,729.43,67.71,727.65Z"/><path class="cls-2" d="M56.7,772.37c3.4,9.62,2.86,18.3.3,27-0.86,2.92.05,5.84,1.64,8.53,1.34,2.28,2.49,5.55,5.62,4.21,2.52-1.08,5.15-1.91,6.24-6.26,2.66-10.58-2.6-19.38-4.42-28.89C65.39,773.33,61.41,773.11,56.7,772.37Z"/><path class="cls-2" d="M107.39,722.23c1.22-2,2.61-3.91,2.52-6.31,0-1.23-.38-3-1.21-3.54-1.56-1.09-2.9,0-4,1.44-6.74,8.92-11.42,18.87-14.93,29.5C97.06,737.36,102.54,730,107.39,722.23Z"/><path class="cls-2" d="M103.41,794.22c-8,1.76-11.94,11-21.57,8.76,4.7,8.22,8.64,8.63,14.07,2.56C98.95,802.14,99.77,797.36,103.41,794.22Z"/><path class="cls-2" d="M136.52,792.28a20.34,20.34,0,0,0-15-3.42c6.55,5.1,6.55,5.1,2.38,12.06,5-1.19,8.59-1.73,11.92-2.89S139.46,794.25,136.52,792.28Z"/><path class="cls-2" d="M124.1,770.65c1.87-.68,3.9-1,5.68-1.83,2.31-1.09,5.95-2,5.42-4.94-0.6-3.31-4.46-3.12-7.28-3.36-3.09-.26-5.72,1.48-8.54,2.43s-5.23,3.55-10.5,3.29c6.72-5.06,9.45-11.28,14-16.12,1.92-2,5.23-4.68,2.34-7.53s-5.87-3-8.85,1.46a13.63,13.63,0,0,1-10.51,6.05c2.93-6.61,7.59-11,10.11-16.71,1.93-4.38,1.13-6.89-3.05-8.61A81.4,81.4,0,0,1,92.68,757c-4,4-5.31,7.28-1.27,11.66,8-.52,11.19-8.43,19.27-12.79a45.79,45.79,0,0,1-16.76,16.72c-2.92,2.16-6.06,4.08-8.69,6.55-2.41,2.26-3,5.26-.43,7.95s4.75,1.16,6.75-.95c0.23-.24.47-0.47,0.71-0.7,3.6-3.42,7-7.32,12-1.57,1.5,1.72,2.9-2.47,5.35-.94,0.31,3.38.73,7,1,10.55,0.6,9.44.57,9.43-9.13,10.5a5.37,5.37,0,0,0-1.64,1.15c3.33,1.78,6.43,3.56,9.63,5.13,4.52,2.22,5.83,1.56,5.9-3.68,0.08-6.85-.16-13.73-0.7-20.57C113.82,776.2,115,773.92,124.1,770.65Z"/><path class="cls-2" d="M111,930.25a22.13,22.13,0,0,0-10-4.17A126,126,0,0,1,88.32,924c-5.31-1.37-6.1-4.15-2.92-8.74,1.5-2.16,3.11-4.25,4.66-6.37,4.74-3.72,7.69-8.8,10.47-14,1.28-2.39,2.13-4.87-.65-6.94a2,2,0,0,0-.54-1.53c0-2.56-1.43-3.73-3.82-4a0.74,0.74,0,0,1,.16.19l-0.16-.19c-10.27-4.69-19.22,3.89-29.87,1.8,2.74,5.14,5.84,8,10.07,9.39,4,1.29,7.37-4.3,12.22-1.52-3.37,6.83-6.6,13.31-9.77,19.81-1.61,3.32-2.58,6.54-.87,10.38,4.64,10.36,19.3,19.34,30.53,18.47,3.14-.24,4.66-2.05,5.7-4.67S113,931.67,111,930.25Z"/><path class="cls-2" d="M88.15,867.95c2.92-1.38,4.26-4,4-7.3-0.25-3.64-2.83-2.89-5.07-2.74-3.18.21-5.62-1.6-9.36-3.48,0.66,3.73,1,6.29,1.58,8.76C80.45,867.64,84.29,869.78,88.15,867.95Z"/><path class="cls-2" d="M177.66,1262.4c-12.79,1.36-24.63,3.18-36.51,3.69-7.93.34-23.69-3.64-23.33-4.08,3.08-7.27,11.34-8.64,16.09-14.09,3.07-3.52,21.1-14,24.2-16.32,3.39-2.58,3.51-5.51.25-8.19-4.82-4-9.8-7.77-15.74-10a14.85,14.85,0,0,0-12.51.72c-4.42,2.2-8.94,4.2-13.54,6.34-1-11.07-4.91-15.56-14.43-16.5-3-.29-6,0-9-0.32-2.5-.23-5.41.74-7.23-2-1.28,2-4.24,3.08-1.51,6.79,3.6,4.89,3,5.31-.91,10.31,3.07,2.78,7-.77,10.44,1.19a61.65,61.65,0,0,1-7,16.55,12.75,12.75,0,0,1-12.76,6.25c-5.21-.63-5.39-6-6.17-10.22-0.21-1.14.83-2.6-.9-3.32-5.67,4.68-6.84,8.13-4.36,14.29,1.61,4,3.47,8.33,7,10.75,4.46,3.08,9.56,5.11,16.82,9.08-9.41,6.08-10.88,10.91-5.55,17.9,2.21,2.9,3.91,4.28,8.15,2.07,4.83-2.52,10.63-2.75,16.37-3,9.8-.4,18.94,2.68,28.46,3.62,10.39,1,20.47-1,30.67-1.76,1.82-.14,5.86-0.27,5.28-3.11C168.48,1271.71,173.44,1267.5,177.66,1262.4Zm-65.85-38.76-15.93,9.66C98.63,1220.63,99.58,1220,111.81,1223.64Zm-8.44,28.6c-2.65,2.43-5.08,5.15-9.16,7,0.79-4.83,4.83-12.58,8.18-15.29a17,17,0,0,1,4.81-3.88c4.09-3.57,7.43-7,12.14-9.27a70.18,70.18,0,0,1-3.32,7.73,8.27,8.27,0,0,1-.82,1.39,11.42,11.42,0,0,1-1.09,1.43A136.4,136.4,0,0,1,103.36,1252.24Z"/><path class="cls-2" d="M85.91,1201.57l0,0a3.8,3.8,0,0,0,.23-0.41Z"/><path class="cls-2" d="M151.73,1117.79c-7.93-3.23-15.61-7.18-24.79-5.6-7.88,1.36-15.64,2.69-23,6.12s-14.6,6.41-22,9.42c-1.74.71-3.41,2.29-5.6,1.36-2.83-1.2-3.69-2.75-.87-4.94,9.68-.61,19.78-10.46,20-19.28a7.61,7.61,0,0,0-4.05-7.32c-10.13-6.31-13.5-6.1-23.74,1.77,2.34,3,6.5,3.23,9.45,6.14-3.17,6.42-4.27,15-17.48,13.14,10.47,3.7,2.54,7.6,2.11,11.54l5.55-1.51,2,3.32c-1,.3-6.65,4.21-8.84,5.6-3.41,2.15-4.78-.35-6.23-2.67-2.7,3.3,1.1,5.75.49,8.68C50,1141,44.5,1140.78,40,1137.7c-1.17,3,.07,5.14,1.07,7.12,4.1,8.15,5,16.89,4.54,25.76-0.23,4.39,1.48,7.64,3.89,10.9,4.8,6.47,5.43,6.54,12.21.86h0c4.6-7.87-.15-15.84-0.22-24.3l9.82,3.17c-3.35,6.8-3.89,14.53-7.77,21.07h0c0.29,3.39-1.91,7.4,2.78,10,6.37-5.62,5.71-14.71,9.89-21.95,2.64,6.33,1.62,12.43,2.86,18.16,1.19,5.51-2.52,6.12-7,6.44,4.24,4.65,6.81,10.72,13.73,6.46-1-6.7.33-13.61-2.35-22.18,4.79,3.64,8.33,3.91,10.36-.9h0c0.47-6.43-5-9.55-8.57-14.5,3.62-3.39,7-6.48,12.89-7.73-2.24,6.91-5,13.61-.61,20.16h0c2,1.27,4,2.29,6.54,1.52,5-1.51,6.09,3.17,8.17,5.59,2.44,2.84-.95,4.65-2.67,6.46-1.08,1.13-2.59,1.86-2.89,3.7,4.17-.94,8.3-1.86,12.43-2.82,3.51-.81,6.57-2.83,6.46-6.48s-3-5.77-6.65-6.34c-2.41-.38-5-0.09-6.65-3.17,1.78-1,3.18-1.86,4.63-2.6,5-2.57,7.64-7.69,4.52-11.65-2.52-3.21-2.41-4.55-.27-7.68,3.87-5.67,2.36-9.81-3.9-12.58a24.62,24.62,0,0,0-7.61-2.2c-3.45-.3-5.25-2.42-7.19-5a74.73,74.73,0,0,1,23.19-8.23c8.29-1.37,10.54.45,11.2,8.38,0.82,10-.36,19.91-1.56,29.83-0.45,3.69-3.41,4.26-5.66,6.22,2.08,1.89,3.94,3.75,6,5.38,3,2.43,6,1.53,7.5-1.56,2.9-5.9,7.09-11.34,8.06-18a311.22,311.22,0,0,0,3.37-31.65C154.7,1120.56,154.09,1118.75,151.73,1117.79Zm-78.87,32.06c-2,2.88-5.34,3.78-8.22,5.34s-4.28.15-4.9-2.62c-0.42-1.89-.83-3.77-1.21-5.51,4-.56,7.91-1.17,11.85-1.61a3.33,3.33,0,0,1,2.62.7A3.09,3.09,0,0,1,72.86,1149.85Zm26.32-9.69c-6.52,4-12.77,9.68-21.36,2.89,5.9-4,12.82-5.31,19-8.19,1.38-.64,2.42.6,3,1.92S100.66,1139.25,99.18,1140.16Z"/><path class="cls-2" d="M41.07,354.67a3.2,3.2,0,0,0,2.18-1.54c0.62-1.37-.29-2.47-1.36-3.37-2.29-1.92-5-1.52-7.62-1.3-3.87.33-7.69,1.69-11.93,0.36C27.16,355.76,34,355.56,41.07,354.67Z"/><path class="cls-2" d="M43.66,398.24l-0.17-.09,0,0.26Z"/><path class="cls-2" d="M42.13,397.35a3.16,3.16,0,0,0,1.36.8c0.09-.57.19-1.14,0.27-1.72,0.5-3.65,6.66-6.29,2.71-10.47-3.67-3.87-8.08-.26-12.14.48-0.4.07-.69,0.79-1.56,1.85C40,387.53,42.64,391,42.13,397.35Z"/><path class="cls-2" d="M43.45,398.41l0.22,0.08c0-.08,0-0.16,0-0.25Z"/><path class="cls-2" d="M88.29,423.76c4.49-3.06.65-7.24,2.25-10.48,10,2,17.77-1.88,26-6.32-4.46-6.07-9-3.9-13.33-1.52s-7.9,6-13.81,4.46c0-5.44.23-10.76-.06-16.06-0.31-5.66,2.85-5.47,6.91-4.7-0.8,3.44-5.5,6-1.77,10,11.19-2.84,11.19-2.84,14.41-9l-4.55-1c1.22-3.46,3.62-6.46,3.22-10.56-8.4-3.65-10.85,6.07-17.11,7.6a20.77,20.77,0,0,0-2.3-3.09c-5-4.71-.38-8.38,1.31-12.3,2-4.58,5.9-1.12,8.78-1.95,2.66-.76,1.32,3.85,3.84,2.79,3.95-1.66,7.86-3.44,11.67-5.39a3.32,3.32,0,0,0,1.61-4.28,4.5,4.5,0,0,0-4.73-3c-2.23.29-4.34,1.56-6.49,2.45-3.52,1.46-6.46,4.43-11.18,4.68a41.58,41.58,0,0,1,7-10.22c1.87-2,4.1-4.41,3.57-6.9-1.41-6.5,3.29-9.42,6.47-13.5,2-2.62,6.91-4.89,4.57-8.83s-7.09-2.57-11-1.76c-1.14.24-2.17,1.76-3.43,0.23-0.37-2,.48-3.85.85-5.76,1.21-6.36-.36-9.52-5.92-12-4.35-1.95-8.45.5-12.55,1.27-4.91.92-5.49,1.92-8.55,8.11,8-3.36,15.24,1.54,23.37-.06-1,4.47-1.89,8.32-2.75,12.18-1.2,5.4-7.83,1.23-10.07,5.48-0.19.36-.45-3.8-1.84-5.52-0.91-1.12-.68-3.31-3.22-2.88-0.16,3.28-.51,6.6-0.42,9.9,0.12,4.91-3.34,6.74-6.77,8.93-3.59,2.3-2-3.61-4.46-2.6-6.93,2.82-8.65,8.79-4.6,15.48,0.91,1.5,1.8,2.86,3.63,3,2.22,0.14,2.3-1.68,2.91-3.24a20.33,20.33,0,0,1,6-8.6c1.63,0.15,1.66,1.17,1.81,2.06,0.22,1.33.44,2.68,2.15,2.78s2-1.52,2.37-2.67c0.54-1.89.72-3.89,1.13-5.82,0.72-3.33,1.94-6.23,6.9-6.62-3.74,13.55-10.62,23.83-24.4,29.25,10,6.54,14.36-3.65,21.64-5.92-7.1,16.44-16.47,30.66-25.05,45.38,11.77-2.28,12.14-15.17,20.49-21.72,1.38,13-.12,24.75.28,37.19l-27.82-5c2.17-9.85-2.19-16.17-11.58-19.2,0.07,4.8,5.15,7.24,5.58,12.08,0.48,5.41-.44,8-5.7,8-8.21-.06-4.15,4.06-3.77,9.92,5.23-6,10.57-6.35,15.8-5.47,7.18,1.2,14.44,2.51,21.3,4.86,14.6,5,29.61,6,44.85,6.72,9.08,0.42,14.46-2.81,17.63-12.12C122.56,423.25,106.15,425.8,88.29,423.76Zm17.23-94.87c-3,4.77-4.77,9.83-9.56,13.41C96.51,331,97.84,329.09,105.52,328.89Z"/><path class="cls-2" d="M97.94,453.65c-2.38-10.58-5-12.81-16.1-13.25C85.17,447.84,88.67,454.2,97.94,453.65Z"/><path class="cls-2" d="M141.65,548c-2.81-3.41-3-7.91-5-11.49-3.19.71-.51,4-3,4.94-3.66-.55-5.07-3.91-7-6.42-5-6.64-9.48-13.63-14.38-20.33-3.83-5.25-4.78-9.93-1.24-16.24,4-7.13,5.15-15.12-3.09-21.64-1.09,7.43-1.1,14.89-4.69,21.79-3.58-3.05-4.84-7-7.1-10.2-2.63-3.76-8-6.91-7.42-11.27s6.7-5.75,10.48-8.32,3.4-4.76-.6-7.34c-4.52-2.91-7.9-1-11.74,1.59-5.48,3.64-5.68,3.39-8.86-2.17a53.52,53.52,0,0,1-2.7-5.33c-3.65-8.44-10.61-9.63-19.76-9,8.18,5.62,11.89,13.45,16.69,20.43,1.16,1.69,2.24,3.73-.25,5-4.83,2.56-8.35,6.93-12.73,9.88-2.57-2.77,1.74-5.56-1-7.68A27.34,27.34,0,0,0,55.13,496c2.65,10.75,2.46,21.71-1.95,32.23a1.83,1.83,0,0,1-2.2,1.25c-1.8-2.08.22-5.58-2.48-7.62-1,3.23-2,6-2.82,8.89-0.72,2.57-1.46,5.54,1.52,7,2.44,1.22,4.41-1,6.11-2.41a14.12,14.12,0,0,0,2.75-4c2.76-5,2.75-4.93,9.71-6.21,1.09-.2,1.86-1.74,3.31-1.55,1,4.11-2.39,7.53-1.85,11.58,6-1.47,11.83-1.58,17.36,1.56,1.91,1.08,4.71,1.7,3.74,4.93a5.75,5.75,0,0,1-5,4.25c-5.41.86-10.42-1.94-15.75-1.66-0.93-2.25-2.4-4.35-1.94-7-2.94,1.42-4.55,4.66-8.13,5.38-2.64.54-3.5,2.83-2.47,5.45,0.83,2.1,1.44,4.76,4.48,4.38,2.49-.32,2.81-2.48,2.69-4.55-0.28-4.63,3.36-2.76,5.49-3.38l-0.08-.19c3.73,5.64,10.18,4.82,15.46,5.67,9.95,1.6,15.71-7,12.11-17l-10.41-1.32c0.1-4.43,4.84-1.73,5.72-4.5-1.43-5.67-7.12-2.92-10.75-5.43,4.53-3.29,9.79-4.26,14.49-6.41,1.87-.86,3.63-1.83,3.48-4.28-0.13-2.2-1.79-2.46-3.51-2.53-4.2-.16-2.09-3.23-2.3-5.12-0.63-5.63-2.36-6.81-7.67-5.22-4.48,1.34-6.85,5.85-12.6,8.5,4.2-7.9,8.5-13.42,14.93-17.9,6.83,5,10.3,12.57,14.57,19.45,1.75,2.82-.45,5.71-1.09,8.57-0.85,3.77-4.86,6.84-2.61,11.31l8.5-12.73c4.05,6.2,7.84,11.5,10.79,17.41a97.06,97.06,0,0,0,16.52,23.6c3.61,3.81,5.57,3.13,7.86-1.73C142.16,552.34,143.23,549.91,141.65,548ZM84.53,503.21c-1.07,7.18-4.73,11.86-13,14.23C74.45,510.24,78.72,506,84.53,503.21Zm-6.12-21.5c-3.2,2.84-5.86,6.27-9.82,8.27s-3.17,6-.33,6.8c4.89,1.31,3.44,2.81,2,5.85a55.66,55.66,0,0,1-10.7,15.88c3.3-9.69.69-17.82,0-26-0.28-3.51-.17-5.84,4.22-5.82,2.94,0,4.58-2.38,6.27-4.42,1.26-1.53,2.4-3.16,3.7-4.65s3.09-2.62,5.09-.83S80.11,480.2,78.41,481.71Z"/><path class="cls-2" d="M55.44,58.11c0.59-7.55.1-15.18,0.26-22.78,0.1-4.63-2.22-6.58-7.11-6.81,1.85,20.73,3,40.57-.54,60.25-1.25,6.9,1.06,10.6,7,13,3.24-6.86,3.54-9,2.45-16.19C56.13,76.46,54.7,67.42,55.44,58.11Z"/><path class="cls-2" d="M135.86,96.93a94.1,94.1,0,0,1-44.31,1.16c-2.6-1.39-8.15-.39-7.87-2.57,0.73-5.55-3.64-9-3.89-13.92-0.32-6.21-2.36-7.35-10.34-6.15a30.76,30.76,0,0,1,9.27,13c1.84,5,.42,7.64-4.54,9a21.36,21.36,0,0,1-4.89.36c-1.73.07-3.69,0.28-3.13,2.54,0.49,2,2.52,1.91,4.08,1.21,7-3.1,14.08-3,21.34-1.48,5.14,1.33,9.9,3.67,15.13,4.9,13.36,3.16,26.41-1,39.6-1,3,0,4.82-1.84,5.14-5.37C146.22,98,140.55,95.67,135.86,96.93Z"/><path class="cls-2" d="M72.13,59.71c-2.42-.61-5.41-2.43-9-0.14,5.81,3.81,10.68,8.24,18.67,8-1.39-6.82,5.49-8.42,8.28-12.92,3-.94,2.93-5.2,6.78-6,0.81,8.34-.62,16.43-2.22,24.31a16.94,16.94,0,0,0,.78,9.55c0.85,2.46,2.37,4.34,5,3.59,2.46-.69,1.32-3.34,1.65-5.13a25.31,25.31,0,0,0,.09-4c0.2-9.3.2-9.3,10.33-10,0.32,1.6,1.25,3.39.85,4.8-1.08,3.79,4.86,10.76-4.73,10.94-0.75,0-.89,1.34-0.17,2.28,3.54,4.6,7,9.25,10.93,14.44,3.5-5.06,4.87-9.4,3.31-14.62-4.19-14-5.89-28.5-7-43.05-0.25-3.29,0-7-2.89-9.26-2.52-2-5.65.9-8.5-.17,0.53-2.06,1.08-4,1.53-5.89,1.93-8.29,2.54-8.91,11-10,2.63-.33,5.37,0,7.94-0.6a5,5,0,0,0,3.92-5.07c0-2-2-2.3-3.64-2.77-2.87-.82-5.71-1.87-8.77-1.53-4.29.49-7.69,0.27-10.72-4.09-2.48-3.57-6.9-2.71-10.51.21,0.78,0.71,1.23,1.15,1.72,1.56,5.93,4.91,5.94,6.68-.69,9.17C89.92,15.6,84,18.76,77.25,19.55c-0.89-1.52-1.72-2.94-2.57-4.36-4.39-7.32-7.22-8.12-14.22-3.82C54.5,15,48.63,18.83,41.53,21.7a27.14,27.14,0,0,0,14.65,4.74c1.67,0.08,3.79-.17,4.29,1.64A67.45,67.45,0,0,1,62.4,38.84c0.25,2.31-3.41,2-3.5,4.47,1.8,1.29,3.76,2.52,5.53,4,2.17,1.8,4.14,3.23,6.91.89s2.35-5.2,1-8c-0.86-1.78-2.23-3.31-3.19-5.06-2-3.6-1.32-7,1-10.27,2.52-3.58,5.61-2.75,8.82-1.24,4.56,2.14,9.15.83,13.68-.05,2.11-.41,4.13-2.47,6.2,0-2,11-7.16,20.67-11.52,30.68C83.47,59.43,78.76,61.39,72.13,59.71ZM112,55.31c0.45,3.27-1.52,4.13-3.92,4.67-1,.23-2.23,0-2.2-1,0.1-2.94,2.32-4.46,4.74-5.39C111.45,53.28,111.93,54.58,112,55.31Zm-9.3-15.54c0.78-2.34,3.07-1.81,4.91-1.5,0.86,0.15,1.94.6,1.31,2.83-0.38,1.26-2.24,1-3.74.91C103.86,42,102.12,41.36,102.66,39.77Z"/><path class="cls-2" d="M150.42,653.6c-4-2.9-8.52-4.65-13.35-6.77,4.91,10.8,4.57,11.36-6.82,12.54-5.37.56-6.48-.24-6.72-5.61-0.25-5.65,0-11.31-.3-17-0.41-8.3-1.93-16.77,5.36-23.27a4,4,0,0,0,.61-0.79c1.24-1.86,1.57-4.06-.19-5.42-2.65-2-4.19.3-5.42,2.26-6,9.46-14.18,16.4-23.92,21.6,2,5.89,6.28,2.59,10.47,2.66-6,6.9-6.48,18.13-18.18,19.36,1.4,3.48.51,8.11,5.91,10.29l18-30.55c1.94,7.11,1.79,14,3.09,20.78,1.49,7.8,4,10.56,11.77,10.37,5.94-.15,11.87-1,17.8-1.61,2.06-.21,4.06-0.89,4.74-3C154,656.81,152.41,655,150.42,653.6Z"/><path class="cls-2" d="M106.18,600c2.93,1.66,4.08-3.24,6.91-2.81,0.26,2.48-2.34,4-.45,6.32,3.86-3.62,5.75-8.4,8.21-12.79,0.83-1.49,1.19-3.1-.5-4.32s-3.15-.67-4.55.3c-4.38,3-7.1,7.59-10.29,11.7C105,599.13,105.15,599.64,106.18,600Z"/><path class="cls-2" d="M59.23,652l0.16,0.14L59.23,652c-2.78.56-.59,4.33-3.17,5-1-5.1.58-10.49-2.15-15.3h0c0.08-3,.18-6,0.23-9,0.1-6.5-1.38-13.29,4.49-18.51,2.84-2.53.21-4.81-1.17-6.91-1.71-2.63-4.83-4.55-2.42-8.64,1.15-2-.65-3.82-2.89-4.21-2.56-.44-5.38-1.15-7.12,1.77-1.07,1.78-1.58,3.48.37,5.27,5.74,5.27,3.65,12.18,3.05,18.45-0.23,2.42-2.72,5.09-5.8,5.89-2.25-1.63-2.95-4.82-6.41-5,0.45,4.84.78,9.66,1.39,14.43a3.46,3.46,0,0,0,3.32,3.15c2,0.13,2.7-1.15,3.21-3,0.86-3.06,1.35-6.42,4-8.43,1.67,0.63,1.55,1.63,1.73,2.52,2.1,10.84.41,21.87,1.67,32.75a12.26,12.26,0,0,0,1.64-2,5.43,5.43,0,0,1-1.64,2c-0.57,3.52-1.2,7-1.7,10.55-0.56,4,2.77,5.17,5.32,5.78,3.38,0.8,3.08-2.29,3.23-4.56,0.48-7.18,1-14.35,1.52-21.52h0c2.23-1.76,2.24-3.77.38-7.6Zm-5.32-10.27c0,0.46,0,.93,0,1.39C53.89,642.66,53.89,642.2,53.92,641.74Zm5.83,10.7,0.07,0.06Zm-0.25-.21,0.13,0.11Z"/><path class="cls-2" d="M75.76,657.17c0.41-9.16-2.29-17.06,1.91-24.7,6.18-.45,9.51-4.85,13.21-9.11,3.51-4-.28-6.32-1.24-9.4-0.45-1.45.15-3.27,0.4-4.9,0.8-5.21,1.07-10.49,2.7-15.58,1.29-4-.86-6.34-4.73-7.06-4.9-.9-13.79,4.55-16.35,9.85,5.25,3.77,5.25,3.77,12.47.64,0.55,9.68.55,9.68-9.81,13.91-2.4-3.18,1.17-7.12-1.4-10.36-3.56.76-.95,4.72-3.1,6.19-1.45,9.18,1.39,18.19.84,27.56-0.46,7.84.93,16.27,0.44,24.48A9.34,9.34,0,0,0,73,665.21c2.67,3.52,5.75,3.89,7.91.13,4.72-8.22,9.8-16.4,10.9-28.43C86.9,645.09,83.64,651.94,75.76,657.17Zm-0.6-25.9a108.86,108.86,0,0,1-1.32-11.32c-0.25-4.28,1.8-5.42,6.06-4.82,3.8,0.54,3.51,1.89,3.06,5-0.69,4.67-1.63,8.95-5.27,12.19l0,0-0.22.14,0.17-.16C76.78,632,75.23,631.75,75.15,631.27Z"/><path class="cls-2" d="M72.59,1015.47c2.13,1.57,4.28.55,6.29-1s4.39-2.84,6.61-4.23c0.77-1.34,1.88-3,3.33-2.35,1,0.46.93,2.28-1.08,2.42,0.34,2.27,2.16,1.61,3.56,1.79,1.56-2.53,4.47-.56,6.38-1.92l-0.3.07h0a84.83,84.83,0,0,0,8.75-15.56c1.38-3,1.79-5.65-1.17-8-2.81-2.2-8-1.67-11.73,1.61-2.17,1.89-5,3.91-.88,6.9,1.67,1.22,1,2.92-.33,4.23-4.19,4.06-8,8.68-14.79,11,1-8.42,4.51-15.19,7.59-21.92C87.14,983.46,87,980,81.92,977c-0.46,7.91-3.83,14.78-7,21.69-1.51,3.34-3.06,6.61-3.63,10.27C71,1011.33,70.47,1013.9,72.59,1015.47Z"/><path class="cls-2" d="M126.52,1057.92c-3.4-4.59-8.42-6-13.56-7.35-4-1-8.59-.42-11.53-4.27-0.54-7.06,2.95-10.85,9.71-12a8.85,8.85,0,0,0,2.87-.68c1.08-.62,2.31-1.56,1.72-3a3.34,3.34,0,0,0-2.13-1.76c-3.23-.57-6.59-0.54-9.74-1.36-4.11-1.07-4.68-3.07-2.3-6.43,1.85-2.61,5.28-4,5.94-7.77a23.88,23.88,0,0,0-9.87-3c-0.89,1.79-1.47,3.93-4.19,3.66h0c-2.85,1.1-3.88,5.33-7.82,4.57-1.37,3.52-3.75,2.36-6.11,1.32-1.87,1.34-3.66,2.76-6.19,2.73-3.23,0-5.18,1.37-4.18,4.88,1.19,4.19,4.54,3.41,7.14,2.19,4-1.89,7.51-4.85,13-6-3.09,5.92-8,8.77-11.76,12.64,3.48,0.42,3.52.49,7.61-2.5,1.76-1.29,3.67-3.83,5.71-1,1.55,2.17.38,4.78-1.84,5.93-5.85,3-11.81,5.9-17.88,8.45-1.72.72-1.8-2.52-3.54-2.83a9.5,9.5,0,0,1-1.63,1.1c-3.24,1.34-4.87,3.58-2.87,6.81,1.72,2.78,4,.76,6.07,0,5.37-2,10.39-5.18,17-5.6a61.56,61.56,0,0,1-6.54,13.58,2.28,2.28,0,0,0-.33.79c-2.51,4.41-6.57,9.57-8.21,13a49,49,0,0,0,19.16-11.28l0.06-.06,0.18-.17,0.08-.09a43.13,43.13,0,0,0,3.3-3.87,30.42,30.42,0,0,0,5.75-8.22c4,0.83,5.81,4.17,7.38,7.29,1.83,3.63,4.65,6.3,7.28,9.18,1.75,1.92,3.63,3.81,6.5,4.18,4,0.51,2.88-4.06,5.09-5C131.48,1063.62,128.71,1060.88,126.52,1057.92Z"/></g></svg>