<svg id="图层_1" data-name="图层 1" xmlns="http://www.w3.org/2000/svg" viewBox="0 0 200 1331.71"><defs><style>.cls-1{opacity:0.05;}.cls-2{fill:#fff;}</style></defs><title>主站</title><g class="cls-1"><path class="cls-2" d="M43.59,921.59c3.87,4.39,8,2.62,12,.89,5.8-2.55-.74-8,2.51-11.3,4.17,0.78,2.06,6.19,5.51,7.55C78.74,912,78.74,912,76.49,896.44c5.64,2.68,5.64,2.68,6.9,13.21,3.61-3.46,6.86-6.65,10.2-9.74,2.67-2.48,5.31-2.56,7.61.55,3.22,4.35,6.81,8,2.5,14.42-3.64,5.39-5.33,12.13-7.75,18.32A33.36,33.36,0,0,1,89,944.09c-1.45,1.52-2.83,4.22-5.7,2.65-2.41-1.32-2.26-3.92-2.36-6.22a11.3,11.3,0,0,1,2.81-7.34c3.6-4.59,5.11-10,6.93-15.61-7.11.87-9.69,5.55-11.3,11.48-2,7.51-4.44,14.93-6.78,22.69-10.84-7.39-1.33-14.42-.81-22.11-4.53,1.1-6.79,2.9-7.06,7.89C63.85,954.11,68,957.61,84.67,954c11.83-2.55,22.59-7.73,33.46-12.71,8-3.66,12-9.31,10.49-18.34-0.15-.9.4-1.91,0.63-2.91,5.93,3.36,8.09,7.19,6.82,13.3-1.49,7.14-5,13-12.14,15.91a143.76,143.76,0,0,1-38.43,10c-2.64.3-5.28,0.61-7.93,0.9-11.45,1.26-19.58-4.92-20.21-16.45-0.29-5.38-1.64-8.44-6.83-10.46C46,931.49,43.58,927.39,43.59,921.59Z"/><path class="cls-2" d="M108.49,390.24c26.43-2.51,31.08,1.7,33.9,21.5C126.64,411.13,119.89,396.91,108.49,390.24Z"/><path class="cls-2" d="M124.53,1058.76c-2.78-3.11-2.81-5.5-1.55-8.67a28.82,28.82,0,0,0,1.89-13.71c-0.64-6.33-2.26-7.82-9.19-8.91,0.18-4.18,3.65-7,4.59-10.72,1.52-6.06-5.65-4.09-7.53-7.2,0.6-3.48,2.83-6.09,4.08-9.13C120.7,991,118.19,987.23,108,987c0.66-9.3.59-9.37-10.43-10.4,2.11,3.67.83,7.08-.86,10.29-1.85,3.52-4.09,6.82-6.08,10.27-2.26,3.92-3.3,7.94-.87,12.26s4,4.7,7.32,1.24c1.51-1.57,2.44-3.74,6.67-4.8-4.3,6.5-6.72,12.55-11.67,17a19.2,19.2,0,0,0-5.24,7.19,7.56,7.56,0,0,0,1.85,8.32c2.86,2.94,4.6-.5,6.73-1.58a1.88,1.88,0,0,1,2.73.54c-3.82,6.08-7.53,12.34-13.54,16.85-3.69,2.76-6,6.06-4.36,11.11,1.36,4.06,4.63,5.55,7.1,2.37,3-3.87,6.44-7.34,9.09-11.63,4.91-8,9.81-16.4,20-20.57,0,2.76,0,4.72,0,6.68a17.2,17.2,0,0,1-3.53,10.21c-1.84,2.42-5,1-7.55,1.29a10.33,10.33,0,0,0-5.27,2.58c2.25,2.39,6.77-1,8.61,3.91-5.9,5.51-11.66,11.45-18.08,16.56-1.82,1.45-4.34,1.7-3.27,4.6,1.26,3.41,3.83,1.48,5.87.9a38.48,38.48,0,0,0,6.31-2.8c6.08-3,10.27-8.34,16.06-12.41,4,3.18,6.91,8.2,12.81,8.41C131.36,1068.7,128.44,1063.13,124.53,1058.76Z"/><path class="cls-2" d="M57.85,1053.93c-1.07-9.35-1.14-18.45,2.61-25.27s0.13-7.45-3.25-10.36a11.25,11.25,0,0,0-.78,1.52c-3.32,13-1.33,26.48-3.06,39.67-0.54,4.13,1.19,8.56,3.77,12.2,0.9,1.27,1.79,3,3.8,2.44a3.4,3.4,0,0,0,2.41-2.89c1.83-9.57,3.65-19.15,5.63-29.56C64.94,1045.9,64.13,1051.48,57.85,1053.93Z"/><path class="cls-2" d="M114.92,144.4c1.54-.05,4,1.07,3.71-1.34-0.51-4.39,4.66-3.33,5.44-7.1-7.15-3-12.3-4-18.54-2.68-19.85,4.2-38.79,11-57.66,20,9.11,5,11.16,5.73,21.07,1.18C83.64,147.66,99,144.93,114.92,144.4Z"/><path class="cls-2" d="M129.28,167.47c-0.38-2.79-2.54-2.46-4.49-2.61-4.65-.37-8.7,2.28-13.63,3.14-0.9-6.91,1.14-15.21-10.16-16.6,2.9,6.05,3.08,8.5,1.3,17.74-0.49,2.57-1.61,5-.78,7.76,1.51,5,4.2,6.14,8.39,2.87a27,27,0,0,1,12.32-5.88,27.9,27.9,0,0,0,4.55-1.69C129.09,171.39,129.58,169.65,129.28,167.47Z"/><path class="cls-2" d="M79.9,169.92c-2.18-9.89-2.18-9.89-6-14.19,2.89,20.48,5,20.68-6.52,27.5-1.68-1.83,1-4.87-1.82-6.46-4.21,4.77-5.28,10.23-1.71,15.44,3.13,4.56,6.58.25,10.09-1.28-1.46,3.53-4.8,5.86-3.69,9.89,0.35,1.26.31,2.66,2,2.92a3.16,3.16,0,0,0,3.29-1.7c3-4.67,3.79-10.12,3.68-15.29-0.14-6.62,1.39-12.27,5.25-17.47,0.21-.28-0.24-1-0.38-1.58C82.45,168,81.95,170.41,79.9,169.92Z"/><path class="cls-2" d="M111,182.93c0,6,.16,10.59-0.06,15.22-0.12,2.56,0,5.51-2.81,7-5.55,3-.49,5.42.8,7.15,2.42,3.23,4.7.68,6.28-1.48,2.93-4,1.9-9,2.9-13.48C119.39,191.62,117.3,187.12,111,182.93Z"/><path class="cls-2" d="M51.1,217.46c10.8-11.52,10.57-26.35-.11-40.33C55.67,190.18,49.19,203.4,51.1,217.46Z"/><path class="cls-2" d="M111.71,270.51c5-5.06,9.13-8.9,11.84-13.83,5.28-9.58,2.36-17.07-7.93-20.36a6.19,6.19,0,0,0-2.18.32c0.56,7.15-1.46,13.65-5.28,19.75a40.16,40.16,0,0,0-3.92,9.1c-2.72,8.53-1,12.48,7.44,15.26,3.7,1.22,6.9,2.73,9,6.32C129.26,274.57,128.28,272.69,111.71,270.51Z"/><path class="cls-2" d="M54.39,283c-2.9-6.31,2.33-14.58-5.36-20.36-0.12,7,.34,13.28-1.86,19.33C44,290.78,45.49,293.81,55,298.65L63,276C58.94,277.72,58.52,282.3,54.39,283Z"/><path class="cls-2" d="M62.7,264.49c1.88,5.49,1.76,11.12,7.58,14.35,2.5-7.1,8-12.58,9.66-20.52C75.6,263.86,69,263.22,62.7,264.49Z"/><path class="cls-2" d="M121.68,1156.89c-6.44-3.79-13.25-6.06-20.84-5.27-6.26.66-12.51,1.28-18.77,1.92,5.53-6.54,10.8-12.38,17.57-16.59a138.19,138.19,0,0,0,14.49-10.39c4.5-3.68,3.5-7.43-2.09-9.14-3-.92-6.56-1.12-8.57.93-2.81,2.86-6.75,2-9.59,4.1,1.2,2.59,4.32,0,5.83,2.73-4.68,5.33-9.51,10.74-15.35,15.14-4.76,3.58-8.5,8.44-13.92,11.18a4.9,4.9,0,0,0-2.71,5.79c0.57,2.62,3,2,4.95,1.91,3.37-.12,6.54.81,9.81,1.46,11.76,2.32,23,6.41,34.39,9.94,2.15,0.66,4.25,2.14,6.48.1C128,1166.4,127.29,1160.19,121.68,1156.89Z"/><path class="cls-2" d="M79.45,1130.21c2.91-1.44,5.93-2.68,10.65-4.79-9.33.35-15.71,4-22.4,6.46-8.52,3.1-8.46,3.27-11.89-5.19-3.4,6.68-3,9.54,2.33,15.77,4.84,5.68,8,5.58,10.5-1.36C70.67,1135.41,74.64,1132.59,79.45,1130.21Z"/><path class="cls-2" d="M71.33,1113.26c2.71,1.15,5.77.18,8.41,1.87s5.24,0.4,6.83-2c1.72-2.59.49-5-1.26-7.19-3.75-4.7-7.33-5.46-15.37-3.25C75.11,1107.64,75.11,1107.64,71.33,1113.26Z"/><path class="cls-2" d="M133.3,512.47c4.52-14.56,3.86-17.75-5.29-22.87,1.88,7.67-3.5,11.94-6.64,17.2-3,5-7.07,6-12.34,2.77a35.11,35.11,0,0,0,4.63-15.08c0.88-11.63,1.41-11.59,9-21.54,1.4-1.85,2.75-3.75,4-5.72,2.54-4.08,0-6.86-2.65-9.53s-5.61-1.7-7.87.56c-5.11,5.1-11.75,7.32-18.16,10.42-1.13-5.22-.52-8.65,5.21-11,5.32-2.15,10.78-5.22,13-11.44-6.22-3.65-6.22-3.65-18.84,2.65-0.23-2.09-.37-4.05-0.67-6-0.35-2.29-.84-4.56-1.27-6.83-1.25-6.56-4.16-7.61-9.3-3.35-1.41,1.17-1.47,1.36,1.09,3.49,0.66,0.55,1.79.53,1.89,1.74,0.45,5.3,1.33,10.72-.26,15.85-1.1,3.57-5.69,2.87-8.22,4.91a7,7,0,0,0-1.1,1.48c2.36,2.6,5.82,2.47,9.27,3.38-0.58,6.52-1.55,12.36-10.41,15.71,8.72,0.87,10.49,7.2,15,10.79-7.29,5.74-9.39,6.13-13.51-.82-3.79-6.4-10.87-10.56-12.23-18.6-0.28-1.67-2.4-4.33-3.66-4.32-5.34,0-5.15-3.06-5.46-6.94-0.27-3.34-2.72-6.16-5.77-7.67-2.4-1.19-5-.36-7.3,1.29,8.88,8.62,5.55,23.85-.15,29.75-1.15,1.19-2.26,1.33-3.41.55-1.94-1.34-3.73-2.89-6.38-5,1.61,4.89,1,8.61,0,12.59-1.55,6.14-.86,13.31,5.55,15.53,9,3.12,8.6,9.27,8.25,16.27-0.2,4,.29,8.05-0.29,12-0.82,5.59,2,9.53,4.92,13.58,1.49,2,3.31,3.64,5.85,2.57,2.3-1,3.26-3.25,3.22-5.74a39.19,39.19,0,0,0-.46-5.95c-1.4-8.17-3.22-16.29-4.31-24.5-1.55-11.68-.94-23.42-0.72-35.79,4.6,2.08,6.27,11,12.26,3.68a4.25,4.25,0,0,1,1.24,1.21c2.08,5.81,7.51,8.71,11.74,12.46-1.41,1.82-3.42,2.4-2.8,4.53,3.95,2,8.34,1.38,13.28,1.44a121.56,121.56,0,0,1-19,15.7c5,7.37,11.15,2.34,18.36,1.63-4.17,4.52-4.84,9.76-11.39,8.92-2.71-.35-6.46,6.56-5.42,9.12,1.59,3.91,5.32,3.92,8.47,3.22,2.44-.54,4.54-2.61,6.8-4,2.71-1.63,3.95-5.06,7.78-6.5-1.66,9.81-5.71,20,8,24.55a61,61,0,0,1,11.37-13.75c2.74-2.43,3.2-5.51,3.41-9,0.39-6.66,1.44-7.43,7.74-6.83a21.74,21.74,0,0,1,8.49,2.66c2.81,1.54,5.89,3.12,9.24.76C146.12,520,141.22,514.82,133.3,512.47ZM99.4,485.76c-0.31-5.87-1.86-11.15,5.88-14.87C104.65,477.12,104.18,481.75,99.4,485.76Zm14.14-19.22c-0.14,5-2.19,7.68-5.91,9.25C107.95,471.91,108.65,468.49,113.53,466.53Zm-3.59,65.31c-1.12-3.9-2.07-6.9,2-8.2,0.73-.23,2.37.28,2.58,0.83C115.91,528.15,113.07,529.52,109.94,531.85Z"/><path class="cls-2" d="M136.88,370.54c-5.34-7-12.36-5.85-20-3.59a95.35,95.35,0,0,1-.58-39.29c0.86-4.28,1.66-8.55.93-12.84-0.67-4-4.65-6.73-7-4.73-4.69,4-11.16,7.13-10.92,14.84-5.39-.68-1.8-4.7-2.32-7.14-0.46-2.18.15-4.91-2.63-5.8-3.11-1-7-1.94-8.88,1.27-1.7,2.87-5.46,3.67-6.23,7,2.5,2.8,7.32,2.21,9.43,6.57l-5.58.78c6.77,5.09,1.16,9.88-.51,14.91-2.66-5.32-.91-11.69-4.24-16.73-1.8.37-6.05-1.68-3.22,3.26,3,9.76,3.05,17.07-1.39,24.15l-1.13-19.62c-1.64-.92-1-2.85-1.83-4.13-2-.36-3,0.15-2.35,2.38l0.71,3.5c1.22,2.05.36,4.49,1.23,6.61,0.61,13.24-1.55,26.59,1.6,39.74,0.79,3.28-2.07,3.47-4.17,4.4-3.1,1.37-3.48-1.23-3.89-2.81-1.33-5.09-3-10.08-2.73-15.57,0.36-7.3.21-14.65-.05-22-0.3-8.45-2.45-15.12-6.56-20.55,3,12.53,2.44,24.09,2,35.66-0.27,6.65.22,13.34-.36,20-0.31,3.53,4.45,7.13.58,10-2.79,2-7,2-10.25,3.58-2.52,1.21-3.43-1.31-5.15-1.32-3.11,0-5.09,1.49-4.76,4.9,0.65,6.64,8.3,11.38,14.34,8.84,3.76-1.58,7.41-3.42,11.44-5.3,0.6,4.87-2.32,7.67-3.22,11.12-1.08,4.12-1,8,2.33,11.07,2.22,2,4.85,2.8,6.35-.84,2.6-6.29,5-12.68,7.64-19.57-4.29.85-6.09,4.48-9.61,4.7-2.25-5.72-.2-9.19,5.28-11.73,15.65-7.22,31.2-14.54,48.93-15.13,4.91-.17,9.61-2.31,14.65-2.36a5.41,5.41,0,0,0,5.29-3.93C140.74,372.45,137.95,371.94,136.88,370.54ZM89.06,355.69c1.12,1,1.75,1.24,1.81,1.61,0.46,2.69-.46,4.67-3.11,6C86,360,89.2,358.6,89.06,355.69Zm-13.49,5.18c2.09,4.42,3,8.09,1.06,12A12.42,12.42,0,0,1,75.57,360.87Zm5.29,20.51c-2.33.63-3.84-.47-4.19-2.86-0.37-2.54.87-3.81,3.38-3.33,1.28,0.25,2.9,1.29,3.67.1,5.16-7.93,5.24-.63,8.09,2.63C87.11,379.42,84,380.52,80.86,381.38Zm18.7-56.13H99.4l0.28-.27-0.12.28c2.6,0.18,5.56.2,5.54,3.81,0,7.14-.89,14.1-7.25,20.74C95.56,340.45,96.31,332.77,99.56,325.25Zm7,47.2c-2,1-4.93,2.44-6.12-.07-2.11-4.46-4.83-9.27-1.38-15.1,4.27,3.07,6.14,7.22,8.39,11C108.43,369.91,108.43,371.53,106.59,372.45Zm5.09-10.62c-4.72-1-5.93-3.19-7.71-4.59-2.23-1.75-2.08-3.44-.53-5.82a39.21,39.21,0,0,0,4.69-9.71c2.74-9,1.24-14.15-5.38-20.94,0.68-2.46,3.15-3.26,4.61-5,0.86-1,1.81-1.89,4.71-1.83C113.54,329.58,109.75,345.22,111.69,361.83Z"/><path class="cls-2" d="M120.66,97.54c-6.95-2.55-13.46-6.31-21.69-8,5.89,6.12,11.12,11.51,17.78,15.24,2.38,1.33,4.25,1.54,5.1-1.83C122.37,100.85,124.31,98.88,120.66,97.54Z"/><path class="cls-2" d="M120.7,79.16c-1.28-8.47-2.83-10-9.85-11.63-5-1.17-10.4.33-15.88-1.81,3.34-3.93,6.39-7,8.83-10.52,3.87-5.57,3.49-6.39-3.31-11.34-2.08,7.09-2.08,7.19-10,7.22-2.28,0-4.35,2-7.09.37,1.27-9,12.13-8.36,15.52-15.1-0.49-3-4.51-2.83-5.29-6C98,25,100.39,18.55,103,12.11c1.45-3.52.32-5.31-2.15-7.63C94.53-1.45,87.67-.75,80.55,2.32c-6.71,2.9-13.23,6.26-20,9-2.34.95-4.47,2.84-8,.15-3.36-2.54.33,4.23-3.18,4.32-1.93.05-2,1.26,0,1.7,3.43,0.73,3.62,3.31,3.88,6.08,0.54,6,1.43,11.87,1.84,17.83,0.34,5,.89,9.95,2.78,14.62,2.83,7,3,7.52-3.68,9.36-3.82,1-3.89,2.81-3.39,5.63,0.63,3.58,3.4,3.19,5.29,2,3.95-2.53,5.18-.4,6.1,2.83,0.6,2.09,3.67,2.91,2.91,6.32-8.75.18-15.71,9.52-26,4.22,2.05,8,8.11,7.64,14.17,7a36.14,36.14,0,0,1-1,4.69,21.85,21.85,0,0,0-1.5,11.73,8.07,8.07,0,0,0,7.37,7C61,117,62,113.37,62.59,110.85c0.63-2.88,2.5-5.53,1.88-8.45-2.07-1.43-3.52,2.55-5.14.6s-0.18-12.53,2-13.1c6.34-1.69,11.62-6.65,18.62-6,1.13,0.1,1.95,1.29,3.24-.19,5.72-6.52,13.14-6.51,20.84-5C109.54,79.81,115.08,80.46,120.7,79.16ZM64.2,19.43c3.25-1.35,6.67-2.29,10-3.38,2,2.72,2.17,5.45-.88,6.63-2.9,1.13-5.7,3.51-9.13,2.47C62.42,24.63,62.4,20.18,64.2,19.43Zm0.24,22.24c-2-5.31-1.17-9.51-1.12-14.05,4.8-.05,5.93,4.88,10,5.9C71.27,37.39,68.58,39.45,64.43,41.67ZM69.26,59c0-3,3.9-3.05,4.16-5.69l-0.21,0,0.24-.19-0.24.2L73,53.1A3.13,3.13,0,0,1,72.45,53c-2.17-.49-3.32,4.07-5.93,1.23-0.63-.69-1.33-1.82-0.3-2.45,2.6-1.59,4.89-.89,6.79,1.29l0.43,0c0,0.08,0,.15,0,0.23,1.91,0.31,5.5-.41,2.77,3.25A6.72,6.72,0,0,1,69.26,59ZM72.95,78.3c-0.56-5.78.92-10.05,2.67-14.41C80.45,72.86,80.16,74.74,72.95,78.3Zm6.65-63.53c-1-2.55,1.45-3.1,3.32-3.56,1.46-.36,2.87-1.45,4.42-0.73,1,1.74.53,3.31,0.1,4.82-0.58,2.05-.51,4.75-3.88,4.4C80.59,19.4,80.3,16.66,79.59,14.78ZM90.11,64.49c-2.91.86-2.68,4.47-6.64,6.28-0.42-4.63-2.07-9,4.21-10.13,1.23-.23,2.79-0.17,3.2,1.34C91.08,62.73,90.6,64.34,90.11,64.49Z"/><path class="cls-2" d="M69.8,667C69,662,76.37,660,74,654.73h0c-2.48,4.55-7.13,6.66-10.83,9.86s-3.34,6.93-.61,10.48c3.17,4.12,5.93,2.54,9.22.16,5.38-3.89,5.48-3.76,10.21-11.86C77.63,663.7,74.34,667.55,69.8,667Z"/><path class="cls-2" d="M122.64,624.57c-2.53-1.27-5.2-.83-7.82-1.06-5.17-.46-8.74,3.8-13.54,5-0.81-5.55-1.67-10.46-2.22-15.4-0.58-5.29.83-10.58,0-15.92-0.4-2.55-.24-5.19,2.75-6.8,3.25-1.76,4.29-4.45.85-7-2.77-2.05-1.7-4.74-2-7.26-0.46-3.76-1.41-7.63-5.78-8.24s-9.53-1.54-11.46,4.76c6.38,0.86,9.08,4.11,7.69,9.45-1.16,4.42-5.7,3.8-8.78,5.28s-3.74-.51-4.82-3c-3.08-7.09-9.12-7.68-15.73-6.62a3.93,3.93,0,0,0,1.61,3.67,26,26,0,0,1,3.13,2.45c4,4.66,2.68,8.05-3.07,10.23-2.29.86-5.32-.62-7.25,2.46,2.27,2.44,4.27,5.67,7.94,5.22,5.25-.65,5.44,2.89,5.64,6.08,0.43,6.94.34,13.92,0.6,20.88,0.71,19.31.74,19.31-17.83,24.29a3.19,3.19,0,0,1-1.14-.38c-1.27-1.24,1.05-3.83-1.42-5-0.54.78-1.16,1.54-1.64,2.37-1.44,2.47-1.84,5,0,7.44,2.27,3,5,.9,7.3.23,5.39-1.58,10.58-3.86,15.94-5.58,1.73-.56,3.16,0,2.21,2.45,2.57,0.15,4-1.36,5.63-3.17a39.05,39.05,0,0,1,14.52-10.08c1.56,1.89.53,3,.39,4.22-1.22,10.59,1.77,14.36,10.83,13.91h0c3.45,3.82,1.41,7-3,10.5,5.15,0,8.43.19,11.68-.05,3.49-.25,4.94-3.63,2.51-6.14-3-3.12-6.55-5.29-11.19-4.3h0c-3.65-4.86-2.75-10.5-3.52-16-0.74-5.23,1.68-8.2,6.77-9.17,4.55-.87,9.12-1.71,13.65-2.67a3.72,3.72,0,0,0,3.18-3.36C125.44,626.38,124.28,625.39,122.64,624.57ZM87,595.81c2-.4,4.05-0.79,5.15,1.31,1,1.83.42,3.81-.66,5.59-1.75,2.9-5.52,5.25-12.79,7.91C75.92,599.53,76.92,597.79,87,595.81ZM79,615.9c5.75,2.36,8.25-4.52,15.2-4-3.61,7.42-10.31,8.53-14.89,11.84-3.43-1.39-.27-3.72-1.63-5.36C76.9,617.39,77.28,615.17,79,615.9Zm13.38,18.45c-4.07,2.07-8,4.35-13.11,7.14a56.64,56.64,0,0,0-1.18-6.84c-1.54-4.85-.55-7.55,5.19-7.41,1.88,0,3.77-1,5.69-1.42,2.09-.41,4.77-1.79,5.48,1.71C95,630,95.61,632.72,92.42,634.34Z"/><path class="cls-2" d="M63.38,1264.17c-0.15-6-1.62-11.83,1.9-17.27,1.25-1.93,1.56-3.63-.22-5.28-2.31-2.14-1.46-4.93-1.6-7.5a37.07,37.07,0,0,1,1.32-12.81c0.52-1.71.09-3.44-1.86-4-2.59-.72-5.31-1-7.51,1-1,1-1.39,2.9-.4,3.57,5.39,3.59,3,9,3.32,13.64,0.16,2.46,1.26,5.52-1.6,7.31-3,1.89-6.25,2-10.08-1.84,1.94,6.59,3.9,10.56,9.34,11.49a3.65,3.65,0,0,1,2.31,1.57c1.95,3.51-.6,17.48-3.49,20.57-3.94,4.21-9.07,6.84-15.17,10.11,7.59,1.73,13.35,2.13,19.36-4.71-0.43,14.23.92,26.12-2.11,37.87a14.3,14.3,0,0,0,1.43,9.63c1,2,1.91,4.61,4.81,4.07,3.32-.61,3.8-3.24,3.45-6.16-1-7.87-2.52-15.74-2.68-23.63-0.29-14.2-4.3-29.31,8-41.17,0.26-.25-0.09-1.14-0.15-1.74C68.42,1259.52,67.68,1263.93,63.38,1264.17Z"/><path class="cls-2" d="M162.82,1295.4c-3.83,14.77-14.71,19.17-28,19.74-6.38.27-8.73-2.47-6.91-8.38a18.18,18.18,0,0,0,.49-9.78c-2.21-8.57-1.2-17.24-1.7-25.85-0.29-5-.39-9.9-1-14.88-0.54-4.31-2.64-5.67-6.07-6.51-1.51-.37-3.32.64-4.65-1.08,2.8-7.79,5.78-15.49,13.39-20.27,1.31-.83,2.13-2.5,3.05-3.86,1.4-2.07,2.23-4.35-.09-6.22-1.68-1.36-3.61-1.22-5.44.24-2.34,1.87-4.77,3.61-7.25,5.3-2.05,1.4-3.76,3.71-7.53,2.91,2.21-4,4.2-7.62,6.3-11.22a13.61,13.61,0,0,0,2.12-8.57,3.54,3.54,0,0,0-4.14-3.33c-1.89.14-4.71-.22-4.55,2.52,0.36,6.12-3.51,10.56-5.47,15.76-2.36,6.26-1.75,9.82,3.86,13.5,2.8,1.84,2.59,3.15,1.82,5.48-3.64,11-6.48,22.38-11.08,33-3.81,8.76-4.39,16.75,0,24.76-1.89,2.33-5.57-1.12-6,2.49-0.35,2.66,1.49,4.23,3.68,6.2,4.48,4.05,6.17-3.47,10-1.62-3.05,7.57-9.35,12.33-14.42,19.8,14.26-1.85,16.52-15.38,25.13-22,0.17,2.44.23,4.66,0.48,6.86,0.91,7.78,3.16,11,10.68,12.31,10.83,1.92,21.29.49,30-6.94C166,1310.23,167,1303.6,162.82,1295.4Zm-51.61-22.13c0.68,4-1.9,5.1-3.48,7.67C105.26,1275.75,108.2,1274.91,111.2,1273.26Zm-3.74,20.25c1.11-3.36,3.4-5.13,7.77-6.48C113.42,1291.45,110.81,1293,107.46,1293.52Zm13.39-23.26c-3.1-6.65-7.92-3.52-11.2-5.4,1-5.1,4.12-10.38,8.55-9.11C123.52,1257.25,120.26,1263.55,120.85,1270.25Z"/><path class="cls-2" d="M95,1268.6c5.63-9.68,7.58-20.37,8.39-32.69a32.1,32.1,0,0,0-2.52,2.43c-1.17,1.59-1,5.17-4.66,2.89-2.67-1.68-3.67-3.65-1.79-6.6a57.29,57.29,0,0,0,3.88-6.91c1.51-3.3,1.44-6.49-1.73-9s-6.24-.91-8.07,1.17c-3.32,3.75-6.77,4.45-12.11,1.47,3,13.42,1.66,25.6.83,37.79-0.25,3.64-.86,7.29-0.74,10.91,0.16,4.62,3.52,7.25,7.51,8.17s2.1-3,2.79-4.77c0.41-1.06,1-1.67,2.07-1.26C92.47,1273.65,94.07,1270.25,95,1268.6Zm-9.39-33.67c-1-1.83-1.35-3.68.09-5.37a1.83,1.83,0,0,1,1.75.15C89.11,1232.17,87.69,1233.68,85.64,1234.94Zm2.1,22.89c-1.14-2.92-2.31-5.78-.25-8.44a1.85,1.85,0,0,1,1.79,0C92.27,1252.79,88.12,1255,87.74,1257.83Z"/><path class="cls-2" d="M141.47,800.53a46.18,46.18,0,0,0-4.71-1.47c-5-1.7-10.09-3.31-15-5.19-13-4.92-13.16-5.82-11.3-19.12,0.92-6.58,3.3-14-5.34-19.47,2.51,6.85,1.86,12.91.08,19-1.6,5.48-3.32,11.05-5.39,16.21-3.79,9.45-12.21,13.37-24,12.71,9.95,8.13,14.14,8,21.77,1.42a19.17,19.17,0,0,0,6.74-10.72c1.08-5.6,3.73-4.38,6.94-2.65,1.12,0.6,1.88,1.84,3,2.49,8.13,4.8,14.8,12,24.32,14.56,2.85,0.76,6.38,2.5,7.68-1.08C147.23,804.23,144.31,801.85,141.47,800.53Z"/><path class="cls-2" d="M90.53,756.27a2.1,2.1,0,0,0-.06,1c-0.06,2.15.54,4.19,2.68,4.86,2.56,0.81,3.34-1.36,3.87-3.25a50.21,50.21,0,0,0,1.79-7.72c0.59-5,2.31-8.57,7.7-10.34,4.06-1.33,7.12-4.79,10-8.07,1-1.18,2.58-2.06,1.47-4.16-1.2-2.28-3.06-1.59-5-1.95-4-.76-5.64,4-9.47,4,0-8.51,5.19-17.28-4.55-25.64,0,7.19.24,12.53,0,17.84-0.75,13.8-2.23,15.63-15.53,19.95C90.24,745.2,96.27,748,90.53,756.27Z"/><path class="cls-2" d="M124.32,724c3.24,4.69,7.31,4.87,12,2.54-2.85-11.6-9-14.38-20.59-9.08C118.44,719.88,122.21,720.92,124.32,724Z"/><path class="cls-2" d="M72.21,783.76c-0.74-1.13.23-1.89,0.55-2.78,3.12-8.9,2.83-16.71-6.39-22.12-1.28-.75.14-2.35,0.33-3.55h0c4-2.35,8.08-4.52,11.9-7.1,2.46-1.67,3.2-4.35,1.31-6.91-1.71-2.32-3.93-1.42-6.26-.53-2.58,1-3.9,4.75-7.65,3.55,3-5.25,6-10.33,8.93-15.38,1.76-3,1.93-6.22,1.81-9.6-0.13-3.81-2.24-4-5.29-3.85-3.35.2-5.4,2.54-7.67,4.27-4.39,3.37-8.74,6.67-15.2,8.4,3.21,1.51,5.25,2.59,7.37,3.44s4.79,0.05,5.6,2.82a60.79,60.79,0,0,1-10.75,18c-1.94,2.25-4,4.44-6,6.66-3,3.34-2.36,7,.26,9.78s5.54,0.69,7.92-1.21c3.35-2.68,6.6-5.48,9.9-8.24h0c4.62,7.17,4.74,7.31-.93,12-6.11,5.1-11,11.42-9.9,19.29,0.67,4.86,2,8-2.8,11.51-3.76,2.76-3,7.33.37,10.14,3.58,3,5.4-.22,7.34-2.21,4.15-4.26,7.72-9.17,12.25-13,6.49-5.42,9.06-12.49,11.26-20.38C76.44,778.21,75.83,782.76,72.21,783.76Zm-9.3,1.78c-0.52,1.4-1.73,3-3.58,1.94-1.26-.71-1.05-2.39-0.56-3.52,1-2.32,2-4.76,5.07-6.12C65.8,780.73,63.79,783.17,62.91,785.54Z"/></g><path class="cls-2" d="M114.2,848.78c-14.13,5.87-29.24,8.65-43.58,14-6.88,2.55-15.19,4.06-21.92-3.52,13.84-3.84,25.73-10.38,38.24-15.39,5.25-2.1,10.42-4.24,16.23-4.22C111.11,839.64,111.47,839.87,114.2,848.78Z"/></svg>