<svg id="图层_1" data-name="图层 1" xmlns="http://www.w3.org/2000/svg" viewBox="0 0 200 1026.03"><defs><style>.cls-1{opacity:0.05;}.cls-2{fill:#fff;}</style></defs><title>主站</title><g class="cls-1"><path class="cls-2" d="M70.25,629.6c1.51,5.09,2.91,8.41,3.39,11.86s0.15,7.3.14,11c0,12.55-1,13.48-12.37,17.74-5.08,1.9-8.59-.79-14.22-4.19,3.83,7.87,6.52,13.65,12.68,16.23,3.63,1.52,3.09,3.29,2.14,6.1-1.42,4.2-4.33,7.41-6.55,11.09-3.4,5.65-4.84,11.66-.84,17.67,2.2,3.3,4.71,3.26,6.83,0a9.76,9.76,0,0,0,1.75-4.55c0.35-6.69,5.21-11,8.16-16.54,0.76,7.24,2.59,15,.26,21.17-2.49,6.62.48,10.73,2.54,15.52,1.39,3.23,4.07,2.81,5.68-.64a25.09,25.09,0,0,0,2.49-12.55c-1.36-19.56.06-39.14-.25-58.72-0.07-4.3-.45-8.7,1.15-12.84s-0.07-7.22-2.78-9.86S74.55,633.15,70.25,629.6Z"/><path class="cls-2" d="M121.24,652c-2.88-.28-5.8,1.57-9.27-0.57,1.83-8,1.05-15.49-7.72-20.88-0.91,7.29-2.13,13.46-2.35,19.67-0.42,12.37,8.19,20.32,19.87,18.92,4.68-.56,9-5,8.86-9.1C130.53,655.4,126.85,652.5,121.24,652Z"/><path class="cls-2" d="M122.38,714.77c-1.39-.88-2.93-1.53-4.34-2.39-6.55-4-6.55-4.12-2.37-10.26,1.48-2.18,3-4.35,4.28-6.65,3.11-5.6,1.66-11.82-3.73-15.33-2.17-1.41-4.75-2.19-7.15-3.25,4.79,5.71,4.68,11.31,1.52,17.55a28.8,28.8,0,0,0-2.36,7.57c-1.83,9.53,1.33,17.45,8,21.81,3.41,2.23,5.65.79,7.55-1.64C125.89,719.44,125.47,716.72,122.38,714.77Z"/><path class="cls-2" d="M77.18,598.2c-2.25,2.27-4.35,3.91-5.82,6-2.08,2.95-1,5.85,1.92,7.35,2.49,1.29,4.19-.74,5.21-2.93,0.7-1.52-.3-3.81,1.82-4.68C78,603,78.8,599.82,77.18,598.2Z"/><path class="cls-2" d="M80.72,603.79a3.51,3.51,0,0,0-.41.14l0.29,0.12Z"/><path class="cls-2" d="M80.62,604l0.56,0.16-0.46-.39Z"/><path class="cls-2" d="M145,578.76c-3.31-2.32-5.47-5.75-10.76-5.77-5,0-9.07-4.36-12.66-8.15-2.76-2.91-.2-5.54.17-8.34,0.78-5.86,1.1-11.72-5.1-16-0.41,5,.06,9.74-4.08,13.76-5.14-4.48-8.43-10.25-12.44-15.44-2.44-3.16-2-5.29,1.35-7.16,5.55-3.09,5.38-7.85,4.72-13.44-1.17-10-6.27-13-16.13-8.78,2.14,4.92,8.45,6.47,9.95,12-4.55,2.85-7.81,3.1-12.09-1.29-6.64-6.81-15.19-6.54-24.59-3.28,4,2.7,7.62,3,11.12,3.93a13.26,13.26,0,0,1,9.27,8.41c1.05,3.18-3,4.66-4.79,6.89-3.26,4.12-6.69,8.12-9.81,11.89-3.77,0-4.89-4.8-9.3-3.59,2.31,7.67-.44,14.89-1.49,22.27,1.09,1.18,3.84-.73,3.95,2.76,0.19,6.29-.83,12.25-2.72,19.78-3.56-6.79-.48-12.92-3-18.14,0.06,4-1.24,7.87-1.6,11.79-0.89,9.73-2.38,19.8,6.1,28.07,3.87-3.67,4.64-8.08,5-12.69,0.92-12.57,2.63-25.1,2-37.76-0.1-2.23-.58-4.72,1.82-6.34,7.4-5,12.59-12.4,19.13-18.48,1.29,2,1.4,3.51.37,5.07,2.33,0.05,4.94-.19,5.36,3,0.36,2.78-2.09,2.85-3.88,3.53a22.05,22.05,0,0,0-2.62,1.41c-1.53,3.93-5.05,6-8.05,8.54-2.28,4.33-3.87-.82-5.87-0.43-1.57,5.07,1.76,6.1,5.7,6.59-3.34,7.4-7.26,14.34-8.48,22.33-0.45,3,.1,5.68,3.19,6.26,2.29,0.43,2.82-2.08,3.41-4a16.45,16.45,0,0,1,2-3.37l0.63-2.85c6.66,2,11.39-2.92,17-4.66,2-.62,4.4-1.88,7.08,1-5.23,2.35-8.51,7.74-15.09,7-4.78-.5-3.16,3-3.23,5.36,2.94,2.75,5.72,1.69,9,.29,5.3-2.25,6.67,3.31,8.65,6,2.12,2.84-1.66,4.18-3.74,5.36a24.23,24.23,0,0,1-19.31,2.11c10.58,9.09,28.61,6.65,35.77-5,1.2-2,1.31-3.65-1.35-4.66-5.12-1.95-10.31-3.77-14.9-6.76,2.13-4.37,6.64-1.38,9.19-4-4.21-7.37,3.16-9.82,6-15.14,4,3.56,7.26,6.75,10.79,9.66,4.1,3.37,8.23,6.86,13.38,8.49,2.05,0.65,4.81,1.34,6-1.65C147,582.85,147.39,580.42,145,578.76ZM105.2,571a2.2,2.2,0,0,1-1.74.59,1.72,1.72,0,0,1-1.41-2.16c0.42-1.57,1.45-3,1.7-4.59,0.41-2.63.61-5.44-2.19-7.12s-5.13-.26-7.19,1.52A17.66,17.66,0,0,0,92,562.47c3.6,6.66,3.36,7.28-5.48,13.87-3.42-2.47,4.88-5.14-.13-7.58-1.93,1.67-2.56,4.67-5.47,5.5,0.22-9.27.9-10.22,18.27-25.37,2.1,2.46,4.33,4.83,6.28,7.41C109.27,561.32,109.13,566.56,105.2,571Z"/><path class="cls-2" d="M105.29,407.88a24.64,24.64,0,0,0-4.73-1.38c-6.73-1.89-12.26.9-17.34,4.92a5.27,5.27,0,0,1-.74-1.3c-0.11-1-.16-2-0.17-2.93-0.07-5.28-3.56-9.17-9.23-10.61-4.86-1.23-6.26,2.68-8.46,5.42-0.62.77-1.61,1.07,0.2,2.5,5.35,4.23,4.73,13.6-1.1,16.39-7.58,3.63-14.93,8.24-24,8.06,6.31,9.76,9.1,10.27,24,3.81-2.8,13.95-9.13,24.87-15.06,35.9-1.24,2.32-3.22,5.32-7,3.25-0.94-.51-1.86-2.27-3-0.22a3.45,3.45,0,0,0-.11,3.79c2.23,2.92,4.91,6.49,8.58,6a11,11,0,0,0,8.26-6.19c2.91-6.11,6.2-12,9.34-18,1.79,8.87,2.31,17.31.28,25.68-0.91,3.78-.78,7.26,2.14,10.18,1.62,1.62,3.13,3.86,5.85,2.72,2.31-1,1.51-3.36,1.73-5.23,0.72-6.24-1.71-12.53.11-19.27,5.29,3.38,11.12.68,16.83,2.09-0.43,4.95,1.51,9.35.16,14.21l-12.61-3.2c5.18,6,9.15,10.87,13.47,15.42,1.43,1.51,3.38,3.59,6,2,2.29-1.4,4.6-2.9,4.19-6.17-0.21-1.65-.47-3.29-0.79-4.92-3.32-17-6.81-33.86-5.6-51.35,0.27-3.83.11-8.57-4.05-10.58s-8.4-.53-12.07,2.34c-1,.77-1.7,2.53-3.61,2,2.35-9.54,7.09-13.67,17.33-14.64,3.65-.35,7.33-0.34,10.79-1.66,1.91-.73,3.52-2,3.6-4.29S107.06,408.8,105.29,407.88ZM90.75,458.29c-0.12,1.32.6,3.66-2.11,3.15a2.85,2.85,0,0,1-2.55-2.54c0.62-1.51,1.54-3.19,3.16-3.4S90.85,457.17,90.75,458.29Zm-3.29-25.16c2,5.35,3.33,9.71,1.85,15.07A39.9,39.9,0,0,0,76,450.55a2.47,2.47,0,0,1-3.27-1.38c-0.56-1.38-.23-3.15.84-3.59C79.34,443.19,81.67,437,87.46,433.12Z"/><path class="cls-2" d="M120.6,313.82c-2.79-.6-5.52,2.38-8.91.08a64,64,0,0,0,5.07-22c0.17-4.68.7-10.07-4.12-12.51-4.25-2.16-8.25.77-11.76,3.45a5.1,5.1,0,0,1-1.59.51c2.31-17.67,1.46-17.66-8-19.89,1.67,13.79-1.76,25.39-14.15,33.19-3.39,2.13-5.2,5.44-4.38,9.33,0.9,4.22,2.48,8.06,7.67,9.33,5.73,1.4,6.66,4.68,2.83,8.68-2.16,2.25-4.75,4.08-8.17,7l8.8,0.47c-2.27,4.28-6.79,4.59-9.66,7.37h0c-2.79-.48-6.21,1.57-8-2.7-0.92-2.16-2.51.38-3.83,0.52-1.35-12.2,0-24,7.11-36.3-4.79,2.23-5,6.12-9.16,7.2a94.34,94.34,0,0,1,1.55-23.56c1.29-7.46,0-8.3-7.43-6.41,4.18,7.51,1,15.27,1.42,23.84-4.27-3.68-3.61-8.59-7-11.49-0.76,3.66-.72,7.48-3.87,10-2.51,0-4-3-6.79-2.64,1.59,17.42,1.73,17.64,14,22.12-1.62,2.51-3.06,5.09-4.84,7.4a30.4,30.4,0,0,1-5.48,5.7c-2.88,2.18-4.51-1.86-7.4-3.12,2.28,8,2.28,8,6.68,11.61,7.43,6.07,7.43,6.07,13.09-2.29,4.55,5.11,2.53,11.21,1.6,16.63-0.48,2.8-2.74-2.44-4.74-1.1-0.37,6.41,4.07,11.06,5.89,16.65,0.57,1.74,1,4.15,3.76,3.68,2.62-.43,3.81-2.06,4.18-4.76a31.91,31.91,0,0,0,0-6.85c-0.49-6.61-1.18-13.28-.76-19.87,0.26-4.14,2.5.39,3.83-.08h0c5.75,4.53,11.18,1.82,16.56-.79,6.13-3,11.7-7.29,18.78-8.26a93.28,93.28,0,0,1,3.21,24c-0.05,4.17-1.71,5-5.33,5-3.24,0-5.69-.34-7.1-3.91-1.81-4.61-6.06-5.84-10.58-6.08-2.79-.15-5.59,0-8.41,0,0.11,2.47,1.56,3.47,2.57,4.7,6.86,8.36,16.76,11.58,26.42,14.75,4,1.33,9.2,4.57,13.1.69,3.36-3.34,1.33-8.3.32-12.38-2-8-4.69-15.91-6.7-24-1.69-6.75-2.25-8.75,5-10.15,4.33-.83,5.59-4.38,7.57-7.34C125.88,315.71,123.64,314.48,120.6,313.82Zm-28.17,1.78c-1.09-5.11-.69-9.14,5.35-11.91C97.71,308.92,98.15,313.3,92.43,315.61Zm11-16.81c-0.36.32-2.27-.25-2.57-0.85-1.32-2.62.6-4.11,2.94-6C104.91,294.78,105.43,297,103.44,298.79Z"/><path class="cls-2" d="M98.49,801.09c-1.17-2.89-1-4.55,1.91-6.49a157.85,157.85,0,0,0,14-11c3.1-2.62,2.46-4.87-1-6.83-4.65-2.64-9.63-1.67-15.07-2,1.41,8-1.95,12.61-7.53,16.31a6.23,6.23,0,0,0-.4,9.77c1.57,1.34,1.51,2.8,1.69,4.24a144.16,144.16,0,0,1,1.61,16.79c0,7.38,2.13,15.08-4.39,21.58-1.89,1.89.54,6.48,2.9,8.62,2,1.85,4.45-.54,6.11-1.79,6.14-4.61,6.13-11.88,5.47-18.16C102.63,821.73,102.51,811,98.49,801.09Z"/><path class="cls-2" d="M115.22,872.27c5.18-13.65,4.12-31.65-2.73-46.36C109,843.8,109.61,854.13,115.22,872.27Z"/><path class="cls-2" d="M132.25,807.58c-1-2.19-3.53-1.93-5.28-1.33-6.16,2.11-12.21,4.56-20.55,7.75,9.39,0.91,16.38,2.35,23-1.93C131,811,133.33,810,132.25,807.58Z"/><path class="cls-2" d="M82.88,818.18c-4.32,0-8.18,2.09-11.76,3,0-17.5-.24-34.77.12-52,0.14-6.92.74-6.91-7.54-10,3.88,7.08,1.82,14.3,1.85,21.37,0,2.65-1.88,4-4.53,4.45-3.44.64-2.56-2.13-3.09-3.68-1.28-3.68-4.42-4.89-7.66-5.68s-5.49.73-8.27,4.22c1.7,1.14,3.36,1.81,4.41,3,5,5.75,4.67,7.91-2,11.33-2.91,1.5-6.09,2.47-9.72,3.91a53.67,53.67,0,0,1,6.4,2.09c2.9,1.4,7.4-1.2,8.9,2.57,1.17,2.93.57,6.56,0.82,9.88a6.28,6.28,0,0,1-2,5.43c-3.41,3-3.42,6.12-.53,9.5,3.54,4.14,2.16,6.92-2.3,9.4-5.64,3.14-11.43,5.78-17.8,6.56,0.66,5.86,3.33,8,7.88,5.09,3.7-2.39,8.11-2.85,11.7-5.32a2.64,2.64,0,0,1,4.17,1,3.16,3.16,0,0,1-1,4.37,69.6,69.6,0,0,0-5.61,4.16c-1.88,1.77-2.35,4.17-.57,6.25s3.75,3.66,6.87,2c2.22-1.16,4.48-2.76,4.52-4.94,0.08-4.3,3.69-6,5.43-9l-0.13,0c0-.08.06-0.14,0.09-0.22-0.83-4.3-2.05-9,5.35-7.3,2.29,0.52,2.9-.53,3.39-2.31s-0.38-4,1.22-5.69a3.76,3.76,0,0,1,3.57-1.29c1.7,0.36,1.63,1.86,1.15,3.13-1.73,4.58-2.7,9.72-9.37,10a5.56,5.56,0,0,0-5.3,3.48l0,0.19h0c3.94-1.53,7.75-3.85,9.11,3.36,0.63,3.34,3.84,5,7.9,3.1,4.59-2.15,2.35-4.69.73-7.07-3.42-5,.09-10.3-0.72-15.52-0.53-3.43,4.51-2.79,6.77-4.4,1.56-1.12,3.87-2.59,2.83-4.66A6.16,6.16,0,0,0,82.88,818.18Zm-23.81,11c-1.9-3.07-1.66-5.51,1.7-7.08a1.67,1.67,0,0,1,1.52.56C63.34,825.83,62.37,828.08,59.08,829.16Zm3.52-16.71a1.83,1.83,0,0,1-1.7-.47c-1.17-2.76.79-3.87,2.82-4.92C64.76,809.17,65.55,811.24,62.6,812.45Zm-1.93-14.37c-0.92-.09-2.16-0.38-1.76-1.76a4.55,4.55,0,0,1,4.28-3.43c1-.07,1.59.93,1.53,2.05C64.57,797.52,62.93,798.3,60.67,798.08Z"/><path class="cls-2" d="M104.77,52.25c4.9-4.68,4.56-6.69-1.08-10.28-3-1.9-5-.59-7.23.76q-9.81,5.93-19.54,12A246.1,246.1,0,0,1,40.84,73.91C37.35,75.36,33.13,79.67,30,73c-0.61-1.32-1.19-.62-1.63.34-0.68,1.49-1.74,2.86-2.13,4.42a8.57,8.57,0,0,0,3.52,9.64c3.69,2.73,6.08.44,8.57-2C41.73,82.09,46,80.15,50,77.79c11.89-7,23.73-14.07,35.65-21.16,1.16,2.21-.27,3-1,3.79C68.93,79.24,53.07,98,35.5,115.2c-4.11,4-5.93,9.29-3.15,10.83,4.44,2.45,6.77-1.32,9-4,12-14.54,23.92-29.06,37.28-42.46C87.49,70.67,95.64,61,104.77,52.25Z"/><path class="cls-2" d="M60.57,40c3.16,1.94,7,2,7.45,7.74,0.33,3.83,8.79,4,10.26-.21,1.65-4.73,4.87-5.63,8.54-6.87,2.25-.76,4.37-1.67,4.79-4.38C88.15,30.64,78.13,33.46,77,25.42a82.8,82.8,0,0,1-.66-19.8C77.07-1.51,73.32,0,68.68.5,72.2,8.3,72.23,16.07,71.88,24c-0.56,12.86-.35,12.86-13.15,11a5,5,0,0,0-1.82.5C57.2,37.78,59,39,60.57,40Z"/><path class="cls-2" d="M104.36,87c0.69-5.22-2.16-8.49-5.93-10.36s-7.52-.37-10.4,3.29c-2,2.54-4.55,6.34-7.55,5.94-6.62-.87-5.72,3.07-6.06,7-0.28,3.28-1.33,6.48-1.68,9.76C71.83,111,72.27,119,79,125.17c3.09-1.64.31-6.87,4.91-6.66s9.12-1.07,13.68.86c6.09,2.58,10,0,8-6.06C102.66,104.43,103.19,95.78,104.36,87ZM78.26,93.82c-0.79-3.05.86-4.42,3.58-4.53a20.38,20.38,0,0,0,10.92-3.45c2.41,5.27,2.26,8.47-3,10.11-3.1,1-6,2.68-8.83,4C78,98.64,78.82,95.94,78.26,93.82ZM94.49,109c-1.07,2.63-9.27,6.58-11.8,5.71-1.51-.52-1.79-1.78-1.92-3.09-0.2-2,0-3.73,2.1-5,2.38-1.45,4.93-1.68,7.55-1.94C93.75,104.37,95.57,106.33,94.49,109Z"/><path class="cls-2" d="M123.19,214.5c-6.46-3.38-12.36-1-18.11,1.43-5.2,2.22-10.23,5.33-16,4.81-10.5-1-19.48,3-28.42,7.49-2.65,1.33-5.33,2.59-8.3,4-3.33-2.47-1.9-6.56-5-8.15-5.11,5.87-5.2,6.35-2.08,10.4,6.18,8,9.71,9.75,15.47,6.45,5.17-3,9.85-6.75,14.81-10.09,4-2.71,8.17-4.3,12.84-1.27a9.89,9.89,0,0,0,10.5.22c7.23-4.79,13.61-3,20.59.17,4.67,2.11,7.4.1,8.58-4.9S127.76,216.89,123.19,214.5Z"/><path class="cls-2" d="M80.07,200.06c8.26-4.38,17.17-6.86,25.76-10.25,5.38-2.12,5.75-5.76,1-9.06-4.46-3.07-9.33-2.5-14.26-1-4.6,1.39-8.62,4.68-14,4.74-0.94-5.47,1.74-10.07,1.64-15-0.18-8.35-.25-8.74-9.2-12.37-0.6,9.73.88,19.84-4.18,28.85-2.55,4.54-1.88,8.12,1.51,11.61S76.07,202.17,80.07,200.06Z"/><path class="cls-2" d="M114,982.73c-5.75-3.28-12-7.36-18.49-11.07,12.3-17.88,14.23-24.73,12.81-36.45,12-1.76,14.38-.07,14.38-0.07s6.17-.32,7.24-3-2.13-4.58-2-6.92a1.53,1.53,0,0,1,2.24-1.49s0.74-10.86-14.27-8.41c0,0-4.79-3.41-9.15-1.6s-13.3,4.47-12.88,6.92c0,0-.85-21.93-32.78-22.56,0,0,8.94,19.48,0,28.1s-15.33,9.9-15.33,9.9-7-.64-9.26,5.75,7.34,15.33,7.34,15.33L48,958.86s-9.34,13.25-10,14.93c0,0,24.88-28,52.55-34.91l0.55-.14a126.49,126.49,0,0,1-10.39,25.82c-10.34-3.78-20.92-4.61-31,1.72,0,0,8.73-.94,25,8.32a117.86,117.86,0,0,1-9.07,12.11c-20.12,23.47-32.57,31.13-43.9,27.3,0,0,13.57,16.44,23.63,10.86,9.68-5.38,24.69-18.48,42-41.95,3.67,2.72,7.59,5.87,11.77,9.54,31.93,28.1,62.1,32.89,62.1,32.89l16.92-12.13S132.72,993.42,114,982.73Z"/></g></svg>