<svg id="图层_1" data-name="图层 1" xmlns="http://www.w3.org/2000/svg" viewBox="0 0 200 1337.89"><defs><style>.cls-1{opacity:0.05;}.cls-2{fill:#fff;}</style></defs><title>主站</title><g class="cls-1"><path class="cls-2" d="M63.6,1154.38c11.31,3.32,11,3.36,12.4,13.94,1,7.87.63,15.94,3,23.64,0.49,1.58.5,3.43,2.68,3.53,2.58,0.12,3.34-1.67,3.53-3.83,0.73-8.27.11-16.55-.45-25.89,3.68,2.52,4.12,5.42,4.44,8.45,0.48,4.62,1,9.23,1.61,13.84,0.23,1.86-.14,4.42,3,3.83,2.41-.45,5.91,0,5.65-4-0.69-10.81,2.08-21.86-2.08-32.37,9.61,2.9,10.72,4.58,9.15,13.66a51.9,51.9,0,0,0-.52,5.92c-0.54,9.67-.55,9.74,8.42,12.38,4.42,1.3,9,2.15,11.48,7.83-5,1.28-9.39,3.36-14.4,1.37a3.28,3.28,0,0,0-3.75.46c-1.39,1.5-.46,3.13.12,4.61,1,2.68,3.15,3.78,5.92,4.67,3.7,1.19,8.06.63,11.69,4.14-3.34,3.93-8.53,4.27-12.31,6.9-1.35.94-2.94-.36-4.26-1.62-4.22-4-7.27-8.63-8.09-14.46-0.41-2.95-1.79-6.3-4.7-4.67-6,3.39-13,2.22-19.06,5.15-8.93,4.3-18.67,6.85-27,12.45-1.73,1.15-3.91,3.34-6.05.56-1.63-2.11-3.14-4.51-2.16-7.33,0.53-1.52,1.9-2.74,2.59-4.22,3.26-6.95,6.51-13.92,1.19-21.39a5.66,5.66,0,0,1-.66-2.82,8.14,8.14,0,0,1,.63-2.25c2.79-1,3.63,2.06,5.17,3.14,5.88,4.12,6.13,5.6,3,12.31-2.09,4.42-5.08,8.42-6.57,14.81,7.72-2.64,14.72-5,21.71-7.43a2.78,2.78,0,0,0,2.17-2.93C69.77,1182.68,71.06,1168.18,63.6,1154.38Z"/><path class="cls-2" d="M91.86,597.35l-0.15,0-0.13.25Z"/><path class="cls-2" d="M116.27,537.76a26.42,26.42,0,0,0-9-6.16c-1.21.92-5.6-2-3.48,2.89,0.39,0.89,1.21,1.58,1.67,2.45,2.92,5.59,2.51,7.27-3.6,9.5-7.33,2.68-14.15,6.72-21.87,8.08,2.65-8.47,11.27-18.63,25-29.38,1.86-2.32,3.85-4.55,5.55-7,2.29-3.27,1-5.49-2.37-7a8.25,8.25,0,0,0-6.74-.33A53.92,53.92,0,0,1,82,514.15c2.66,6.39,9.29,5.06,13.66,8.28a27.48,27.48,0,0,1-1.81,3.32,261.35,261.35,0,0,1-25.11,29.66c-2.6,2.62-4.78,5.52-2.45,8.6,2.57,3.39,6.16,2.81,9.63.1,5-3.94,11.34-5.44,17-8.1,0.44-.21,1.18.23,1.78,0.36,0.24,2.32-3,2.81-3.15,5.5,3.67-.83,7-1.82,6.37,3.71-0.42,3.65-2.55,5.24-5.64,6-4.65,1.12-9.35,2-14.45,3.14,5.48,3.31,11.1,2.9,16.62,3-0.5,3.87-2.33,6.66-3.63,9.68-1.63,3.77-5.34,2.09-8.76,3.1,3.15,3.64,4.52,7.83,9.61,6.92,4.13-8.27,9.27-15.74,16.9-21.24a10.19,10.19,0,0,0,3.83-4.49c0.62-1.62.94-4.17-.79-4.3-6.78-.5-6.49-7.05-10-10.77,4-1.88,7.88-3.69,11.76-5.54C120,547.93,121,543.11,116.27,537.76Z"/><path class="cls-2" d="M91.59,597.63h0l0.22-.26Z"/><path class="cls-2" d="M115.25,594.44c-4.23-3.11-6.18-7.86-9.57-12-3,13.77-3,13.79-14,15.15-3.67,4.5-9,2.9-14.73,3.06,2.59,3.83,5.35,5,8.85,4.51,9.11-1.14,17.81-4.69,27.31-3.87C116.89,601.65,118.43,596.78,115.25,594.44Z"/><path class="cls-2" d="M117.44,669.85c-3.53-4.24-6.23-4.15-10.1.27-2.68,3.06-5.83,3.74-9.54,2.77,0.15-12.36-.21-13-12.31-14.67-2.75-.37-4.87-2.64-8-2.72C78,662,81.44,666,85.37,669.67c1.78,1.67,3.5,4.46.69,5.67-5.42,2.32-11.24,4.58-17.2,4-1.77-.18-2.88-2.95-6-1.26-6.46,3.48-12.06,12.58-11.48,20,0.21,2.74,1.34,4.09,4.24,4.33,5.43,0.45,8.63-3,11.53-6.56,4.83-5.92,11-9.7,19.42-14.11-2.92,7.33-5.71,13.15.45,17.9h0c6-2.68,5.78-8.51,6.3-13.55,0.5-4.83,2.66-7.21,7.21-7.88,0.27,5.87-4.58,16.46-11,24-4.62,10.67-13.08,18.26-21.27,25.95C56.68,739,45.94,750.65,32.49,761.46c5.35,0.08,8.18-2.55,11.27-4.09,8.23-4.1,16.74-7.88,24.3-13,15.6-10.62,24.33-26.69,31.52-43.53,4.6-10.78,8.28-22,21.53-25.25A58,58,0,0,0,117.44,669.85Z"/><path class="cls-2" d="M159.82,250.7c-5.18-.09-10.56-0.34-16-3.23,4.08-5,7.88-9.55,11.56-14.21,1.2-1.52,2.58-3.23.66-5.24-1.77-1.86-3.79-2.84-6.19-1.26-8.33,5.49-17.54,7.31-27.93,5.93,7,9,15.75,2.33,23.27,3.5-2.38,10.13-8,14.5-18,13.75-4.65-.35-9.21,1.08-11.28-4.93-0.92-2.67-4-3-6.43-4.19,0.72-3.52,6.11-6.28,1.59-10.57-3.59-3.41-7.39-4.08-11.77-1.76-1.15.61-2.45,1-3.65,1.48-1.49.66-4.1-2.8-4.54,0.93-0.32,2.73-1.74,7.35,1.93,7.72,4.92,0.49,3.51,2.23,2.36,4.78-4.33,9.55-8.33,11-17.67,6.45-1.15-.56-2.35-1-5.64-2.42,6.57,8.5,5.06,16.34,4.14,24.21-0.74,6.27-1.22,12.58-1.47,18.89-0.13,3.16-1.05,8.15,2.89,8.52,4.9,0.45,2.84-4.75,3.5-7.63,0.15-.64.29-1.29,0.53-2.36,11.16,2,15.38-10.28,24.7-13-0.39,11.39-5.32,21.9-1.13,32.79,1,2.52-1,3.89-2.68,4.64-2.74,1.22-5.66,2.25-9.33,1,2,5,5,5.56,8.56,5.26,0.9-.08,1.2.55,0.56,1.93-1.07,1.49-2.53,3.52-3.95,5.58,0,0,.47.4,1.23,1,8.43-5.6,14.21-14.2,22.59-22.69,1.11,12.56,9.8,16.56,18.09,21,2.47,1.33,5.28,2.94,6.92-.15,1.74-3.28-.6-5.57-3.69-6.9a9.45,9.45,0,0,0-2.75-1.14c-4.93-.34-5.77-3.49-5.71-7.62,0.15-9.31-1.32-19,2.06-27.72,3-7.75.29-11.73-5.84-15.17-7-2-12,2.19-17.17,5.73-1.3.89-2.92,2.13-4.34,0.3-1.2-1.54-.68-3,0.83-4.25,2.81-2.34,5.52-4.79,6.64-8.6-0.25-.23-0.46-0.45-0.65-0.67-2.89.3-3.76,4.49-7.44,2.67,2.71-3.31,5.25-6.58,8-9.69,1.31-1.49,14.51-2.16,16.34-1,1.48,0.92-.26,2.94,0,4.26,0.61,0.37,1.21.76,1.81,1.17,5.13-6.08,9.58-6.33,21.25-.93L148,260.21c7.84,0.22,15.39,3.83,23.28,1.41C170.51,254.28,167.09,250.83,159.82,250.7Zm-72,18.68c0.66,4.32,5,1.8,7.45,4.07-3.81,3.67-7.4,7.28-12.91,8.07a5.76,5.76,0,0,1-.44-1.22c-0.3-6.66-1-14.53,3.25-19,3.79-4,11.26-4.54,17.16-6.63C99.8,262,99.8,262,87.78,269.38Zm29.4,28.39c-0.69-3.14-4.24-.73-6-2.39-0.34-3,2.54-3.39,4.11-4.77,2.14-1.89,3.66-4,2.39-6.81-1.12-2.48-3.68-1.5-6-2,5.61-2,9.06-7.43,15.39-7.83,1.11,10.56-2.54,20.44-2.28,30.44-3.12,2.11-4.06-3.82-7-1.51-2,1.56-3.88,3.59-6.82,2.63-0.21-1.93.77-2.65,1.87-3.33C114.62,301.07,117.86,300.9,117.17,297.77Z"/><path class="cls-2" d="M114.73,1105c-1.63,1.12-4.28,3.3-2.87,5.41s1.58,6.25,5.77,5.49a3.26,3.26,0,0,0,2.9-3.35C120.66,1108.67,116.78,1103.55,114.73,1105Z"/><path class="cls-2" d="M107.64,1098c-4.3-1.58-8.74-2.92-15.47-1.78,5.51,2.24,9.3,4,12.51,6.81a3.55,3.55,0,0,0,5.87-1C111.86,1099.52,109.17,1098.6,107.64,1098Z"/><path class="cls-2" d="M120.25,1082.45a11.11,11.11,0,0,0-6.65-1.06c-6.86,1.5-14-.08-20.77,2.18-1.61.54-3.26,0.33-3.76-1.83,5.75-8.87,15.32-5,24.64-6.63-6.4-4.9-13-2.59-18.52-3.72-0.59-5,3-5.14,5.53-6.38,1.45-.71,3.12-1.56,2.68-3.64-0.33-1.57-1.83-1.62-3.09-1.91-1.74-.39-4.34,1-4.86-1.93-0.44-2.46,1.86-3,3.42-4.23,3.25-2.54,2.29-4.61-1.53-4.84-2.11-.13-4,0.3-4.57-2.36-0.62-3.17,2.47-2.32,3.82-3.35a29.62,29.62,0,0,1,2.7-1.27c2-1.22,4.35-2.86,4-5.21-0.55-3.65-3-.36-4.56-0.62-2.39-.4-1.13-1.75-0.73-2.79,2.05-5.44-1.81-5.79-5.17-5.31-4,.57-7.88,2.14-12.33,3.43,1.62-4.65,7-8.5,3.51-12.16-3-3.19-8.12-.41-12.12,1.22-0.5.2-1,.48-1.46,0.73,4.95,4.4,5.11,4.49,2.32,9.42-6.78,12-14.32,23.41-24.56,33,6.72-2.58,11.39-8.5,18.27-10.84,1.54,13.33-4.25,26.14.94,39.2a169.66,169.66,0,0,1-21.29,8.14c-6.68,2.22-8.42,5-8,12,8.11-3.37,13.91-10.83,22.75-12.63a5.1,5.1,0,0,1,.26,1.22c-0.2,1.91-2,2.47-3.1,3.58-4.53,4.42-4.48,10,.28,13.51,1.79,1.3,4.9.87,4.22-1.52-1.41-5,3.69-9.1.93-14.21-1.45-2.68.75-5.08,3.52-6.16,3.09-1.21,6.25-2.27,9.42-3.24,3.91-1.18,6.43-.45,6.42,4.46a128.88,128.88,0,0,0,.74,15.94c0.83,6.8-3.5,6.14-8.83,5.07,3.78,3.62,4.37,8.43,9.7,9.14,1.78-2.86,4.39-5.7,4.47-9.36,0.2-9.93,3.47-19.6,2.42-29.61,7-1.75,14-3.11,21.16-.44a8.41,8.41,0,0,0,7.62-.48C122.12,1085.72,122.65,1083.6,120.25,1082.45Zm-32.92-21.4c0.48,3.38-3.54,6.41-8.85,6.9-2.62.24-3.41-1-3.3-3.4,0.19-4.17,2.88-6.05,9.21-6.2C86.52,1057.85,87.1,1059.38,87.33,1061.06ZM73,1046c-0.75-3.07.87-7.21,3.61-10,3.05-3.15,5.16.12,7.7,0.64-0.66,4.32-4.66,6.52-5.59,10.41,5-1.88,5.94,1.77,5.92,5.07s-3.44,3.67-5.87,4.44c-1.45.46-2.18-1-2.66-2.24L73,1046h0Zm3.78,43.22c-2.09.3-2.53-1.46-3-2.94a2.26,2.26,0,0,1,1.49-3.06c2.7-.68,2.46,2.25,3.71,3.41A2.4,2.4,0,0,1,76.77,1089.21Zm10.5-13.39c-3.36,1.35-7.09,1.73-10.11,3.94-3.41-2.69-3-5.91-.87-9,0.84-1.24,11.27-1.29,12-.19C89.47,1072.46,88.6,1074.25,87.27,1075.82Z"/><path class="cls-2" d="M119.35,380.9c1.33,0.7,2.8.86,3.38-.61,2.62-6.58,7.45-12.2,11-18.36,1.8-3.14.73-4.89-2.63-6.29-1.32-.55-2.63-1.12-3.95-1.68-3.58,8.31-4.25,17.32-6.13,26Z"/><path class="cls-2" d="M124.32,386.11c1.49,6.73-3.52,11.9-4.61,18.11-0.24,1.39-.52,2.77.81,3.41s2.56-.1,3.31-1.38c2.5-4.29,4.89-8.59,10.65-9.3,1.05-.13,2.14-2.94,1.38-3.17C131.18,392.39,131.76,383.44,124.32,386.11Z"/><path class="cls-2" d="M141.1,419.91c-3.22-.76-6.47-1.8-9.73-1.88-4.27-.1-8.27-2.6-12.55-1.38-1.54.44-2.38,4.12-4.51,1.54-1.78-2.14,1.11-3.27,2.16-4.72,2.78-3.79-2.45-4.86-2.43-5.48,0.23-8.77-2.09-18,3.43-26.08-1-9.74,3.17-18.43,5.65-27.45h0c-10.55-1.2-19.61,4.88-29.94,5.78,3.58,2.75,8.19,3.62,9.78,8.2,1.07,3.09-.3,3.57-3.1,4.34s-3.38-1.25-5-2c-3.11-1.52-5.2-5.08-10.1-4.81a105.61,105.61,0,0,0,8.39,22.23h0c1.43,0.65,2.5,2.68,4.3,1.81,2.17-1,4.07-4.23,6.49-.78,1.59,2.28-.7,5.07.47,7.73,1.87,4.23-2,3.06-3.92,4s-2.65,3.79-5.26,4.14c-2.91-2.52,2.87-6.88-1.9-9,0.27,11.7-8.62,14.58-18,16.83,1.32,1.38,1.94,2.29,2.15,2.21,6.8-2.83,16.78,4.89,21.23-6.34,0.25-.64,3-2.78,5.25-1.17,1.36,2.21-.43,4.45-0.1,6.71,0.85,5.89-2.36,8-7.66,9.17-9.31,2.11-18.47,4.91-29,7.78,13.69,5.74,23.87-5.64,36.11-3.76,0.68,18.68-.36,37.59-1.73,56.58,7.61-4.34,8-11.13,8.33-18.29,0.5-10.24,1.47-20.48,2.72-30.66s1.52-9.9,11.14-11.64c1.81-.33,2.43-0.32,3.85,1,3.39,3.07,8.25,1.09,12.28,2.79,1.61,0.68,3.43-1.52,3.76-3.76C144,421.46,142.87,420.32,141.1,419.91ZM101.57,382a1.92,1.92,0,0,1-2.18-1.51c-0.35-1.41.31-2.5,2-2.73,1.24-.38,1.84.67,2,1.5C103.69,380.59,103.3,381.81,101.57,382Zm11.35-21.56c0.54-.45,2.84.18,3.43,1,2.06,2.75.41,4.7-2.15,6.39C114.39,365.11,109.32,363.51,112.92,360.46Z"/><path class="cls-2" d="M53.76,934.89c-3.28,4.62-3.94,8.27-.85,11.81,4.62,5.28,4.57,11.45,3.85,17.8a55.39,55.39,0,0,1-4,15.33,0.84,0.84,0,0,1-1.48.36c-1.15-1.6,1-3.94-1.75-5.74-2,4.89-4.87,9.25-4.75,14.68,0.11,4.85,2,5.89,6.1,3.39s7.57-5.76,8.59-10.56c2.67-12.55,6.06-25.13,1.29-37.94C57.31,942.36,55.13,939.4,53.76,934.89Z"/><path class="cls-2" d="M60.75,943.84h0L60.81,944,61,944.15h0l0.45-.22c-0.25,0-.5,0-0.76-0.09h0Z"/><path class="cls-2" d="M102.51,908.78c2,1.51,3.76.34,4.86-1.47s0.27-3.21-1.31-4.11a35,35,0,0,0-13-4.78C95.29,903.34,98.92,906.08,102.51,908.78Z"/><path class="cls-2" d="M141.53,990.29c-4-6.14-4.22-13.59-7.27-20.77-2.4,3.92-.16,8.76-4.58,11.41-7.07-4.39-11.62-11.28-16.8-17.74s-4.63-12.63-1.94-19.36c1.59-4,3.53-7.83,5.34-11.73,1.12-2.42,2.49-4.86.88-7.49a2.94,2.94,0,0,0-2.52-1.11c-3.74,1-3.37,4.35-3.83,7.25-1,6.35-3.19,12.32-6,19.48-2.71-5.81-4.7-10.34-6.93-14.75C96.06,932,94.91,928.8,99,926c1.54-1,3.46-2.52,2-4.88-1.3-2.08-3.18-3.77-5.79-2.51-3.74,1.81-4.59-.57-5.5-3.25-0.64-1.89-1.71-3.68-2-5.61-1-5.61-4.66-7.7-9.79-8.16-2.62-.23-5.24-0.39-8-0.6,0.58,3.82,3.08,5.84,6,7.47,4.87,2.71,5.65,7.93,7.71,12.37,0.63,1.36.61,2.57-.63,3.51-7.73,5.9-12.33,15.26-21.48,19.59,7.12,0.79,13.3-3.52,21.73-5.43-4.32,4.93-6.68,8.79-10.54,11.51-2.92,2.06-1.82,4.57.28,6.69,1.4,1.42,4,.18,5.19,2.16-2.38,4.32-4.64,8.73-7.19,13-2,3.27-.15,5.69,1.46,8.1,1.47,2.19,3.32,1.56,5,.05-0.3-6.21.85-11.75,6.9-15.12,2.37,2.24,1.7,4.17-.5,5.66a9.15,9.15,0,0,0-4.36,9.19c9.93-1.83,11.45-3.25,14.93-13.85a5.06,5.06,0,0,1,1-1.7c1.85-2.08,3.2-4.73,6.1-6.09,0.81,6.37-3.19,11.75-1.92,18,3-1.75,3.37-4.47,4-7,0.44-1.92.29-4.24,2.93-4.46,2.33-.2,3.55,1.47,4.29,3.47,3.91,10.51,13.34,16.28,20.59,23.92,2,2.11,4.83,2.18,7.46,2.24S142.77,992.2,141.53,990.29ZM82.79,965.78l0,0C81.44,965.89,83.22,964.52,82.79,965.78Zm10.45-13.62c-3.47.63-4.06,6.13-9.91,5.36,3.6-5,6.62-9.2,11.09-12.78C96.59,948,100.56,950.83,93.24,952.16Z"/><path class="cls-2" d="M176.53,55.76c-0.82-3.45-2.9-5.33-6.15-5.43A65.62,65.62,0,0,1,158,48.43c1.84,3.2,6.12,6.4-1.08,6.93-2.65.2-5.3,0.43-8,.51-10.76.34-21.48,2.73-34.48,0.87,6.63-5.38,9.86-11.93,10-18,0.17-6.85,0-13.59,1.51-21,4.64,2.75,3.08,6.64,2.29,9.67-1.39,5.33-1.15,10.06,2.74,15.85,7.54-10.73,9.29-22,9.82-33.46,0.16-3.44-4.62-5.21-7.5-3.09-2.33,1.71-3.72,4.79-7.23,4.7C125,0.91,125,.91,114.83,0c5,4.12,3.8,9.08,4,13.8,0.11,2.92-1.8,3.82-4,5-2.49,1.3-3.5.06-4.79-1.67-2.5-3.33-5.55-5.23-10.09-3.3,5.28,7.63,4.78,9.62-2.85,12.43-2.94,1.08-6,2-8.88,2.92,1.87,8,9.17,5.31,14.54,7.64-2.44,6.57-3.15,13.39,1.69,18.69,5.72,6.27,12.91,10.38,22,9.6a68.27,68.27,0,0,1,9.93-.64c12,0.74,23.87-1.52,35.8-2.16C177,62,177.66,60.53,176.53,55.76ZM109.09,33.53c0.45-4,4.61-3.81,7.41-4.74,2.66,9.67,0,17.82-7.08,24.9C104.45,47.33,108.33,40.27,109.09,33.53Z"/><path class="cls-2" d="M132,1302.87c-2.89,3.22-5.31,5.83-7.63,8.53-6.3,7.33-15,9.55-23.93,10.56a84,84,0,0,1-14.95-.15c-10.9-.74-12.39-2.75-11.16-14.19,6.26,3.48,6.26,3.48,11.19-3.1,4.88,5.59,8.6,6.45,11.37,1.65,4.44-7.68,7.32-16.19,12.52-23.57,1.64-2.33.32-4.81-3.44-5.38-4.87-.73-8.19,2.54-11.81,4.68-1.14-2.27-.28-3.41,0-4.65,1.16-5.14.44-6-4.21-5.94-4,0-5,1.77-4.53,5.62,1.22,10.18-4,16.41-13,20.52-1.53-6,1-12.2-3.38-18.09-2.45,9.2-.22,17.41,0,25.62h0c-5.29,8.24-13.88,12.38-21.7,17.46-1-.1-2.33-1-1.68-1.6,6.89-6,1.14-16.53,8.08-22.47a1.87,1.87,0,0,0,0-1.82c-5.6-5.19-.77-10.33.14-15.4,0.46-2.55,2.2-4.83-1.17-6.78-4.23-2.44-6,0-7.57,3.3h0c3.57,7.89,3.35,9.48-2,14.33,0.66,2.45,3.78,4.82-1.26,6.86a97.29,97.29,0,0,1-18.72,5c7.09,11.46,13.83.61,21.43,0.11,0.92,9.19-2.5,16.67-7.14,23.83a34,34,0,0,0-3.08,3.81c-1.1,1.83-1.16,3.92.47,5.42,2.16,2,3.5-.26,4.87-1.44q14.87-12.74,29.67-25.55c0.46,2.61.75,5.26,1.41,7.82,2.41,9.37,3.5,10.31,12.84,10.41,5.64,0.06,11.3-.58,16.92-0.33,6.69,0.29,13.28,0,19.66-2C130.49,1322.73,134.92,1314.76,132,1302.87Zm-39.48-12.62c0.9,4.73.21,8.61-4.46,11.17C85.69,1295.77,88.46,1292.68,92.49,1290.25Zm-16.12,9c1.35-.89,2.64-1.87,4.29-3,1.27,3.28.32,4.95-1.15,6.35s-3.12,1.48-4.25,0C74.43,1301.49,75.11,1300.14,76.37,1299.3Z"/><path class="cls-2" d="M145.6,176.49c-3.38-.44-6.76-0.85-9.61-1.21-0.67-2.92.73-3.2,2.05-3.37,2.09-.26,3.84-0.94,4.27-3.22a2.46,2.46,0,0,0-1-1.62c-2.31-2-4.33-.19-6.36.66-1.83.77-1.81,2.6-1.93,4.21-0.28,3.94-.86,7.9.38,12.69,4.06-3,8-2.15,11.91-1.95,2.2,0.11,4.18-.29,4.31-2.76S147.69,176.76,145.6,176.49Z"/><path class="cls-2" d="M131.65,191.64c0.43,2.55-1.63,4.55.6,8.39a25,25,0,0,0,1.14-4.46C133.46,194.3,133.82,192.73,131.65,191.64Z"/><path class="cls-2" d="M102.23,167.8l-1,0A1.35,1.35,0,0,0,102.23,167.8Z"/><path class="cls-2" d="M125.19,159.27c-2.26.35-4.43,1.48-6.68,1.6-2,.11-0.58-2.07-1.25-3,3.34-7.67,7.86-13.52,17.44-11.74,2.06,4.23-2.19,7.3-1.57,11.13,9.26-3,9.86-4.06,7.9-14a4.58,4.58,0,0,1,1.6-4.34c1.39-1.42,3.63-2.65,4-4.29,0.87-4,7.84-6.22,4.35-10.86S141.75,121,137.09,122c-4.12.88-7.94,3.16-11.88,4.85-1.65.71-3.28,0.86-4.54-.54-1.53-1.7,0-2.95.94-4.22a22.41,22.41,0,0,1,8.12-7.13c3.82-1.79,6.19-4.92,7.87-8.61,2.54-5.58-.07-10.17-6.2-10.11a64.78,64.78,0,0,0-19.48,3.33c-3,1-.24,2.51-0.26,3.78,3.2,3.94,7.31,1.89,11,1.46s7.64-1.95,12.46,2.59c-9,1.85-16.3,5.91-24,0-2,3.09-4.32,5.53-8.34,6.24-5.54,1-11,2.57-16.45,3.85s-5.36,1.21-11-.88c-0.33,3.71.84,5.93,4.49,7.65,10,4.7,18.42,1.16,26.8-4.64,0,7.75.17,8.14-4.17,10.44-11.4,6-22,14.25-36.06,13.87,4.39,9,12.46,11.29,19.46,6,5.42-4.12,10.12-9.29,17.47-12-2.6,15.55-13.26,24.56-24.27,33.45,8.88,4.32,15.58.87,22.12-3.45,3.67-2.35,4.27-7.79,8.88-9.25,4.12,4.69,0,6.67-2.56,9.14,3,0.88,5.49-.19,7.68-2.21a22.47,22.47,0,0,1,2.89-.69c2.5-.27,4.83.07,5.1,3.19,0.22,2.64-1.94,3.07-3.89,3.62-2.87.81-5.75,1.61-8.57,2.58-3,1-5.9,6.54-5,9.73,1.45,4.92,5.41,4.31,9,3.39,2.72-.71,5.19-2.39,8.46-1.54l2,25.78c2.06-.82,2.58-2,2.64-3.32,0.7-14.83,1.32-29.67,2-44.5C130.11,160.23,128.51,158.76,125.19,159.27Zm8.08-25.22a18.07,18.07,0,0,1-12,10.32C116.78,135.29,120,132.36,133.28,134.05Zm-21.8-14.66c0.46-2.14,1.16-4.45,3.93-4.6,0.92-.05,1.61.84,1.58,2.13-0.81,1.76-.95,4.31-3.53,4.87C111.69,122.19,111.22,120.58,111.48,119.39Zm10.64,60.41c-4.18.52-7.74,3.56-13.83,3.37,3.58-6.93,10-4,13.75-6.9a2.61,2.61,0,0,1,1.2,1.14A1.83,1.83,0,0,1,122.12,179.8Z"/><path class="cls-2" d="M116.76,858.18c-4.27-2.48-8.91-4.32-13.38-6.45h0c-4.41-2.9-10.3-.93-14.22-4.57,10.68-4.45,11.33-4.42,16.21.95,1.1-.73,2.26-1.39,3.3-2.21,1.93-1.52,5.5-2.3,4-5.79s-4.84-3.28-7.77-2.46c-4.44,1.23-8.76,2.9-13.12,4.42s-8.66,3.26-13.41,3.16c-2.1,0-4.05-.41-4.76-2.68-1-3.06,1.42-4,3.51-5.05,4.23-.25,8.15-4.33,12-2.82,4.74,1.86,7.23-.89,10.48-2.61a38.64,38.64,0,0,1,9.57-1.72c2.72-.25,7.74,2.69,7.78-2.37,0-3.69-5.09-3.09-8.09-3.74a11.6,11.6,0,0,0-5.75.5c-5.23,1.69-10.36,3.67-15.53,5.54-4.38,1.28-8.77,2.53-12.48,5.37-3-7.47-3-7.44,3.44-9,3.86-.91,7.74-1.77,11.52-2.93s7.47-2.37,9.25-7.06c-10.59-5.14-15.58,7.76-24.38,6.82-0.78-7.66-.75-7.53,5.56-9.26,4.13-1.13,8.14-2.67,12.19-4.08,2-.71,3.78-1.94,2.82-4.34-1.16-2.9-3.41-1.13-5-.47-4.78,2-8.67,6.15-14.63,6.1-0.84-4.3,2-8.44,1.29-12.71a4.83,4.83,0,0,0,5.39,1.17c5.55-2.21,12.06-.88,17-4.71a3.61,3.61,0,0,0,.83-4.56A3.21,3.21,0,0,0,96,789.59c-6.25,3.85-13.17,5.75-20.12,7.63-1.48-.39-2.21-2.73-4.33-1.92,1.12,3.46.87,7,.24,10.59-1.24,7.15-2.75,14.39-2.72,21.59,0,7.89-2.7,13.2-9.83,16.33-1.72,0-3.3.24-4.21,2-5.91,1.47-10.73,5.48-18.51,6.56,9.69,4.4,15.31.3,20.74-4.49,2.38,0.39,3.39,1.93,3.3,4.2-0.19,4.63.32,9.25-.63,13.91a72.87,72.87,0,0,0-1.06,12.87c-0.05,2.5,1.47,4.35,3.88,5.29,2.81,1.1,4.38-.7,5.79-2.61,3.33-4.53,6.58-9.11,9.86-13.67-3.41.92-5.49,3.46-7.59,6.06-1.73,2.14-3.94,3.86-6.85,2.43s-2.92-4.38-2.51-6.94c1.24-7.77,1.87-15.51.3-23.3,1.77-.47,4.76-3.15,4.91-1.64,0.75,7.46,5.36,4.08,9.37,5,6.35,1.51,13.93.34,19.07,6,1.06-1.78,2.76-1.72,4.34-1.2,7.3,2.43,13.72,6.13,18.36,12.86l-6,1.93c5.22,1,8.31,4.78,13.38,5.2C127.18,866.16,122.69,861.63,116.76,858.18Z"/></g></svg>