<svg id="图层_1" data-name="图层 1" xmlns="http://www.w3.org/2000/svg" viewBox="0 0 200 1358.76"><defs><style>.cls-1{opacity:0.05;}.cls-2{fill:#fff;}</style></defs><title>主站</title><g class="cls-1"><path class="cls-2" d="M75.32,699.43c8.7,3.36,10,5.2,9,13.72-0.57,4.92-1.42,9.82-2.41,14.68-0.87,4.28-2.29,8.37-6.64,10.52-6.06-6.73-6.23-8.91-1.54-17.39,2.33-4.2,6.54-7.87,4.08-13.75-4.81-1.2-6.56,3.5-9.84,5.14-2.13,1.07-3.91,4.61-6.67,1.91a6.44,6.44,0,0,1-.66-9c2.44-3.08,5.39-5.77,8.16-8.68-1.89-1.32-2.78,1.19-4.23,1.69-2.09.72-4.24,3-6.16,0.52-1.59-2-.54-4.74.91-6.44,4.52-5.29,9.44-10.25,14.06-15.47,2.8-3.16,5.83-6.26,7.08-11.38H65.64L65.12,664c5.24-3.09,10.39-6.32,15.74-9.2a7.08,7.08,0,0,1,8.4.92c2.36,2.09,1.48,4.89,1.07,7.47a23.08,23.08,0,0,1-6.27,12.26c-2.77,2.95-7.47,5-2.35,9.93,1.06,1-.43,3.09-0.9,4.67C79.75,693.65,77.42,696.45,75.32,699.43Z"/><path class="cls-2" d="M117.43,660.46c4.89-8.53,8.8-10,15.17-6,2.25,1.42,4,3.14,3.68,6.44-1.44,14,1.8,27.73,3.54,41.52,0.64,5-1.42,9.66-2.07,14.49-0.29,2.15-2.38,3.2-4.47,3.31-1.83.1-2.72-1.49-3.82-2.77-2.28-2.66-1.41-5.56-1.21-8.53,1-14.36-1.88-28.4-3.63-42.54C124.06,661.92,121.3,660.74,117.43,660.46Z"/><path class="cls-2" d="M130.11,763c2.25-.55,2.9-0.66,3.52-0.87,4.09-1.42,9-3.41,11.93.4,3.14,4.09.85,8.59-2.46,12.5-4,4.73-7.41,9.94-11,14.8,1.33,2.56,3.53,1.89,5.3,2.4,4.79,1.39,6.29,4.11,5.19,8.86a6.25,6.25,0,0,1-3.38,4.64c-2.14.9-3.81-.58-5.06-2.22-2-2.62-3.85-5.33-6.17-8.58-5.38,1.88-9.06,9.53-17.12,5.49,7.71-8.79,15-17.38,21.07-26.93C134.29,769.86,136.47,766.4,130.11,763Z"/><path class="cls-2" d="M50.37,776.6c7,4.24,14.09,7.31,13.76,16.53,0,0.81.09,2.3,1.25,1.93,4.5-1.44,3.9.65,2,3a55.41,55.41,0,0,0-7.28,12.82c-0.88,2.08-1.25,5.07-4.28,3.85-2.7-1.08-5.12-3.28-4.3-6.88a19.38,19.38,0,0,1,1.73-3.52c3.12-6.72,5.74-13.24-.82-19.81C50.93,783,51.13,779.69,50.37,776.6Z"/><path class="cls-2" d="M74,322c-1.59,7.8-4.53,15.55-.23,23.49,0.9,1.67-.62,3-2.16,3.82s-2.71.82-4.18-.64c-5.2-5.18-6.62-9.71-3.54-15.81,2.26-4.48,5.1-8.84,10.32-10.65Z"/><path class="cls-2" d="M76.71,779.43c4.12-.21,7,0.92,7.36,5.74,0.28,3.59-1.41,5.61-4.43,6.69-1.4.5-9.21-6.23-9.15-7.81C70.64,780,73.59,779.56,76.71,779.43Z"/><path class="cls-2" d="M112.8,130.1c5.51-1.71,8.29.14,9.4,4.92,0.42,1.8.09,3.27-1.65,4.16-1.9,1-3.18,0-4-1.56C115.27,135.34,114.2,133,112.8,130.1Z"/><path class="cls-2" d="M54.1,519.85c0.2,2.83,1.66,4.38,4.55,4.47-0.82,6-6.93,4.37-11.14,8.92A30.59,30.59,0,0,1,54.1,519.85Z"/><path class="cls-2" d="M124.34,1092.32a13,13,0,0,0,2.77-.92c-1.94-9.75-6.86-12.48-14.91-8.21-2.8,1.49-5.13,4-8.56,3.86-4.78-9.38-4.78-9.38-15-7.62-0.77,3.2,3.32,4,3.37,6.82,0.06,3.21-3.78,3.9-4.28,6.13-1.11,5-4.87,7.78-7.72,11.31-2.2,2.73-2.4,5.82-.56,8.14,1.54,1.93,4.3.62,6.42-.51,1-.54,1.82-2.1,3.34-0.91-0.65,5.88-1.07,11.78-2,17.6-1.47,9.36-3,10.18-12.93,7.64-0.23-4,.71-7.85,1.47-11.77,0.83-4.26,1.23-9.42-2.92-11.9-5.09-3-2.88-6.55-2-10.14a36.85,36.85,0,0,1,2.16-5.56c1.21-2.9,2.17-6.06-1.16-7.93s-6.36-1-8.28,2.71a17.58,17.58,0,0,1-8.87,8.52c0.42-8,6.29-15.93-2.18-23.68,0.14,8.54-.87,15.7-3.63,22.62-2.86,7.18-9.33,11.7-13.61,18,8.45,3.28,9.71,4.94,9.07,13.1-0.83,10.57-2.79,21-2.65,31.71,0.07,5.66,1.75,10,6.91,12.48,4-5-2-9.19-.11-13.72h0c-2.84-7-2.84-7,5.12-7.58,1.45,3.37-.08,6.34-1.26,9.36h0c6.22,2.46,12.16,5.24,15.37,11.72,0.95,1.92,2.59,3.07,4.84,1.72,1.93-1.16,2.11-2.81,2-5.06-0.43-7.29-.44-14.6-0.52-21.9,0-1.88.44-3.05,2.51-4.51,5.85-4.11,14.48-2.47,18.86-9.47,0.54-.86,2.35.33,2.61,1.9,0.31,1.93-1.16,2.93-2.13,4.24-5.37,7.23-10.48,14.65-16.8,21.26,8.5-2.94,13-11.19,21.37-15.69-2.72,11.9-10.69,19.43-19.82,28,11-.74,14-9.91,21.31-14.83l-3.89,8.3-6.44,8.14-5.74,6.09c3.42,1.12,5.44-2.28,8.11-.79,3.44,8.43,4.94,9.09,11.77,4.55a20,20,0,0,0,5.64-5.44c4.33-6.65,8.23-13.56,10.72-21.18,3-9.16.6-12.21-9.47-12,4.71,7,2.58,19.48-4.68,27.59-4.91,5.48-6.18,5.79-12.26,2.85l5.18-7.07a75.64,75.64,0,0,0,5.35-7.06c6.21-10.45,6-11.62-2.69-20-0.38-.37-0.3-1.21-0.46-1.94,3.18-3.75,6.47-7.49,9.6-11.36a38.52,38.52,0,0,0,5.18-7.28c2.21-4.63.33-6.7-5.55-6.29-1.12.08-1.73,0.06-2.19-1.05,0.19-2.87.36-5.85,0.6-8.82C111.68,1093.57,111.69,1093.58,124.34,1092.32ZM55.09,1140c-0.08.63-.25,2.62-0.64,4.56-0.59,3-2.93,5-5.55,4.58-3.53-.54-1.49-3.5-1.28-5.59s0-4,.26-6c0.35-3,2.5-3.54,5.07-3.25C55.78,1134.64,55.87,1136.49,55.09,1140ZM43.82,1115.4c4.69-8.4,12.06-13.37,21.24-17.9-0.78,6.14-3.24,10.28-6.15,14.2C53.22,1119.35,52.94,1119.41,43.82,1115.4ZM62,1135.77c1,0.45,2.2.39,2,1.88-0.24,2-1.63,2.75-3.29,3.11a5.92,5.92,0,0,1-.87-2.59C59.89,1136.8,60.47,1135.62,62,1135.77Zm5.71,20.45c0.08,1.71-.56,3.69-2.41,3.73a4.87,4.87,0,0,1-4.59-3.15c-2.63-6-.94-10.05,6.55-15C69.78,1146.61,67.53,1151.47,67.76,1156.22Zm0.49-26.31c-8.32-4-8.33-4.61-.54-11.54C69,1122,68.45,1125.43,68.25,1129.91Zm25.85-.29c1.72-5.27,4.37-8.41,9.41-11.12C102.9,1125.18,99.05,1127.12,94.11,1129.63Zm9.59-18.76c-4.4-.6-6.11-2.55-5.82-6.18s2.11-5.94,6.06-6.46a13.31,13.31,0,0,1,.62,3.11C104.39,1104.31,104,1107.27,103.7,1110.87Z"/><path class="cls-2" d="M74.21,322.17l0-.08L74,322Z"/><path class="cls-2" d="M139.08,315.85c-0.85-3.84-3.17-4.66-9.85-2.45a133.45,133.45,0,0,1-20.08,4.75c-1.61-7.79-1.63-7.86,4.45-9.71,2.23-.68,4.67-0.94,6.41-2.58,2.06-1.95,3.57-4.11.15-6.4-1.87-1.26-5.49-1.36-3.12-5.55,1.9-3.36,4.15-3.71,7.4-2.91a35.86,35.86,0,0,0,6.88,1c2.45,0.12,3.55-1.79,3.68-3.81s-1-3.87-3.47-3.91c-3.54-.05-7.07,0-10.2,0-1.77-6.16.58-10.92,0.69-15.85,0.19-8-.16-8.51-8.86-7.93,4.24,5.12,3.44,11,2.65,16.89-1.12,8.42-1.16,8.51-10.87,8.3,0.56-6.57,1.16-13.13,1.66-19.69,0.33-4.3-.8-7.53-6.16-8.06,1.92,9.13.56,22.68-2.76,29.81-3-18.4-3-18.4-11.7-21.12,6.37,5.51,3.86,12.12,4.5,18.14,1.06,10-8,7.58-12.71,10.44A1.71,1.71,0,0,1,76.9,295c-1.95-12.29-1.95-12.29-12.51-14.67-1.09,3.21,1.56,4.64,3,6.66,5.07,6.92,4.06,10.73-3.75,14-5.2,2.14-10.47,4.1-16.68,6.52A46.66,46.66,0,0,0,70.58,304c1.12,3.43,1.33,7.24,3.32,9.43,3,3.27.82,5.79,0.32,8.65a3.06,3.06,0,0,1,1.3,1c3.64,8.7,5.1,9.29,13.76,5.24,2.53-1.18,4.7-3.79,7.87-2.09,0,4.83-.12,9.46,0,14.08,0.12,3.68-1.79,5.42-5,6.27-0.88.23-1.33,0.14-1.47-.72-1.5-2.67,2.65-5.07.86-8.12-5.43,4.68-6.92,11-8.86,16.93-1.08,3.33-.71,6.55,2.2,9.13,1.31,1.16,2.6,2.25,4.37,1.71,2.27-.7,3-2.64,2.64-4.77-0.42-2.58-1.42-5.07-1.74-7.65s1.64-3.27,3.84-3.29c2,0,3.1.92,2.75,3-0.65,3.94.57,7.78,0.35,11.8-0.64,12.13-.23,24.31-0.23,36.62,12.92-7.34,7.58-20.72,9.66-31.68,10.44,4.52,12.91,3.28,16.29-7,1.63-5,1.38-9.76.28-14.72-2.3-10.44-3.15-11.09-14-10.08-0.83.08-1.92,0.66-2.44-.64,0-16.5,0-16.5,16-17.38,1.17-.06,2.65-1,3.32,1.14-1.85,6-7.89,7.19-13.15,10.27,5.59,1.55,9.94-1.37,14.57-.83a15.71,15.71,0,0,0,4.93-.66C138.64,328.32,140.83,323.76,139.08,315.85Zm-61.84-9.24c-1.42-2.28-.95-4.9,1.23-6,2.74-1.41,5.76-2.9,9.53-2.41-0.5,4.18-2.28,7-5.64,8.75C80.61,307.85,78.68,308.93,77.24,306.61Zm21.11-2.55c-2,1.11-.69,5.62-4.95,6.82-2.55.72-7.07,4.72,0.85,5.46,2.11,0.2,2.31,2,2.39,3.69s-1.19,2.24-2.42,2.65c-3.43,1.15-6.89,2.19-9.5,3-5.42.15-7.51-2.86-5.83-7.17a11.14,11.14,0,0,1,5.93-6.42c5.05-2,7.31-5.57,8-10.76a16.93,16.93,0,0,1,2.77-6.24c1-1.63,3.55-1.89,3.94-.2C100.21,297.81,103.43,301.2,98.35,304.06Zm16.73,37.36c2.25,5.71,1.66,11.11.59,16.48-0.6,3-2.91,4.29-5.87,3.95-2.71-.31-3.61-2.13-4-4.76C104.88,349.8,107.17,344.57,115.08,341.42Zm-8.45-40.83c0-3.87-2.53-6.94,1.53-8.63,0.76-.32,2.5-0.17,2.65.21C112.13,295.44,109.57,297.17,106.63,300.59Z"/><path class="cls-2" d="M134.75,888.56a25.63,25.63,0,0,0-19.34.4c-6.37,2.64-12.79,5.29-20.4,6.89,4.85-6.71,10.74-10.91,16.46-15.32,3.67-2.83,3.58-5,.37-7.87-1.82-1.64-4.25-.66-6.16-1.76,6.94-10.89,6.78-11.28-5.67-15-1.43-.43-3.46.09-3.92-2.13,5.16-7.69,5.14-7.78,13.39-10a11.35,11.35,0,0,0,6.61-4.12,3.47,3.47,0,0,0-1-5.21c-6.38-4.49-16.29-2.82-21.23,3.54a18.85,18.85,0,0,0-2.79,4.13c-2.6,6.34-8,9.37-13.65,12.35-2.12-4.55,1.78-11.05-5.38-13.37a53.46,53.46,0,0,1-4,16.64c-1.54,3.76-3.31,8.1-2.46,11.51,1.48,5.89-1.91,7.72-5.52,10-6.43,4-12.93,7.9-21.18,12.93,7.34,0.27,12.12-1.3,16.69-2.89C60,887.73,64,885,69.4,882.17c-2.3,5.94-3.91,10.58-5.89,15.07-2.31,5.22-5.26,10.19-5.33,16.1l0,0,0,0c0,0.08,0,.15,0,0.23-4,8.25-11.85,9.75-19.89,10.86,5.6,11.92,9.54,12.81,16.17,3.43,2.72-3.85,6.15-5.66,10.07-4.48,7,2.11,12.58.38,17.8-4.09l1.09,0.13c4.9-2,10-.77,15.06-0.37,3.29,0.26,6.94,1.26,6.87-4.12,0-2.75,2.12-2.87,4.1-3.29a3.58,3.58,0,0,0,3-3.45c0.12-2.34-2-2-3.37-2.74-4.64-2.52-8.18,0-11.91,2.18-10.38,6.07-21.88,8.86-33.45,11.53-5,1.17-5.46-1.71-5.65-5.27,5.71-5,8.19-12.25,12.12-18.46,2.37-3.75,4.41-6.18,9.12-5.69,4.56,0.48,9-.42,14.39-4.42-6.52,12.4-14.23,20-25.9,23.58,8,1.78,8.86,1.77,15.59-1.23,8.72-3.89,16.91-9,26.3-11.39,5.82-1.49,11.62-2.56,17.64-1.65-0.75,17.45-15.7,30.65-32.62,28.92a28.43,28.43,0,0,0-3.94.13c-2.79-1.33-4.88-4.34-8.5-3.65,0.11,3.78,3.74,4.2,5.88,6h0c2.41,4.18,7.13,5.77,10.89,6.06,6,0.46,13.05,2.7,18.16-2.27a88.81,88.81,0,0,0,21.73-33C140.72,892.06,138.62,890,134.75,888.56ZM75.88,885.5c2.73-7.45,6.06-13.58,12.6-17.42C85.47,877.59,81.49,882.72,75.88,885.5Z"/><path class="cls-2" d="M133.21,562.17c-5.19-1-10.29-3-15.66-1.17-2.4.82-3.47,0.75-5.26-2-4.83-7.43-10-8-18.53-3.91-1.74.85-3.76,1.14-6.41,1.91l4,5.37c3.63,4.89,3.39,6.3-2.24,8.67-6.42,2.7-13,5.06-19.51,7.51a4.92,4.92,0,0,1-2.49.3c-2.53-6.59-4-.93-5.49.58-0.82.84-.94,2.37-1.5,3.92,4.76,1.25,9.26,2.24,13.63,3.61,4.93,1.55,8.6-4.87,13.76-2.25C82.34,598.29,76.43,611,65,621.12c11.73,2.48,17.48-5.41,24.81-11.21,1.14,6.25.75,12.14,4.63,16.66,2.68,3.13,5.38,7,8.91.7,1.26-2.24,3.4-1.69,5.3-1.11,4,1.24,7.91-.36,11.86-0.5a7.82,7.82,0,0,0,7.69-8.54c-0.81-6.78,2.92-11.39,5.23-16.71,3.15-7.24,1.85-11-5.47-13.8-4.92-1.88-9.64-1.77-14.22,1.35-3.73,2.54-7.4,5.48-13.93,5.59,6.12-4.58,4.67-13.16,11.88-15,6.06-1.53,12.24-3.17,18.65-2.14a5.59,5.59,0,0,0,1,0c3.41-.07,6.24.35,5.85-5.23C136.89,567.26,139.2,563.38,133.21,562.17ZM101,602c5,1.56,9.84,2.38,14.78,1.53-0.26,7.8-.26,7.8-14.36,12.06C100,611.2,100.53,606.83,101,602Z"/><path class="cls-2" d="M112.95,1224.66c-5.75-3.12-11.49-6-17.9-3.49-2.43-7.82,4.75-18.09-8.69-21.75,1.68,6,1.38,11.59,1.3,17.12-0.12,8.23-.16,8.23-9.84,9.25,0-2,0-4,0-6,0.19-15.55-.47-16-16.48-10.81,8.5,3.78,10.21,6.58,10.37,15.76,0.09,5.29-2.72,7.5-10.33,9.82-5.51,1.68-4.5-3.38-6.46-5.35-3.08,3.3-4.19,8.34-1.86,10.87,5,5.37,5,12.09,7.47,18.11,1.32,3.27,2.54,6.87,6.44,7.76,2.7-1.54,1.82-5.64,5-6.13,7.75-1.2,15.52-3.65,22.86,2.08,5,3.88,7.56,2.86,10.61-3,4.12-7.94,6.61-16.6,11-24.43C118.88,1230.31,117.15,1226.95,112.95,1224.66ZM66.21,1242c0.19-3.28,3-3.6,5.33-4.3,2.07,0.45,2.51,1.86,2.33,3.63-0.3,3-2.84,3.48-4.91,3.85C67.1,1245.56,66.11,1243.74,66.21,1242Zm4.7,15.08c-2.21.15-2.36-1.7-2.46-3.35-0.14-2.19.49-4,3-4.05s2.79,2.18,3.32,3.48C74.76,1256.32,72.85,1257,70.9,1257.12Zm9.7-3.89c-0.45.17-1.85-.86-2-1.53-1-4.35,3.54-3.45,5.28-7.61C85.34,1250.28,83.48,1252.17,80.61,1253.23Zm5.54-17.79c-1.23,3.13-4.43,3.52-7.55,4.7-2.32-7.23,3.38-7.14,6.39-8.3C86.91,1231.11,86.64,1234.18,86.15,1235.44Zm16.74-5.55c-0.59,6.73-3.72,12.63-6.42,18.64-0.56,1.25-2.21,1.48-3.53.89-2.23-1-1.46-2.43-.54-4s1.37-3.64,3.2-4.83c2.49-1.62,1.71-3.42-.43-4.46-2.64-1.29-3.35-3.15-2.27-5.64,1.38-3.17,4.54-3.51,7.24-4.21C102.43,1226.63,103,1228.14,102.88,1229.89Z"/><path class="cls-2" d="M126.43,491.82c-2-2.72-4.27-3.23-6.34-.24-2.79,4-7,5.84-11.17,7.92-1.81-7.71,9.92-15.77-1.55-22.95a53.59,53.59,0,0,1,12-5.28c1.51-.49,3.19-1.28,3.47-3.19,0.34-2.37-1.41-3.62-3-4.72-2.78-1.89-5.53-1.62-8.25.39-3.48,2.56-6.84,5.44-10.68,7.31-5.75,2.79-11.47,6.75-19.13,4.24,2.32-6.65,4.6-12.87,6.65-19.16a17.29,17.29,0,0,1,9.38-10.95c5.21-2.49,8.85-6.88,11.93-11.67,1-1.57,1.06-3.12-1.19-3.81a5.12,5.12,0,0,0-1-.37c-2.35-.88-4.81-1.49-6.61-3.59-2.59-3-5-2.41-6.81.93-0.9,1.67-2.23,3.22-2,5.34-2.49,8.68-8.32,13.57-16.89,16.18-4.66,1.42-9.31,3.23-14.54,4.58,7,6.25,13.75,6.8,22.83.58-7.83,18.16-14.34,34-21.55,49.55-2.63,5.66-6.07,11-8,17-1.73,4.8.52,5.54,4.55,4.47,1.31-1.9,2.74-3.73,3.92-5.7,6.68-11.18,10.6-23.59,15.7-35.48,1.64-3.81,3.35-6.39,8-5a18.32,18.32,0,0,0,5,.33c13.68,0,13.79,0,10.73,13.36-0.76,3.32-.42,7.58-4.93,9,0.08,6.65-3.85,6.23-8.33,4.65-1-.34-1.91-2.36-2.62.7,5.31,4.91,11.1,7,18.66,4.44,7.19-2.47,14.6-4.45,22.4-4.32a8.18,8.18,0,0,0,7.32-3.52ZM98,428.77c-0.35-1.41,2,.74,3.21,1.21h0.08l-0.05.05c1.62,3.25-1,4.61-2.87,6.3C92.72,434.39,98.65,431.42,98,428.77Z"/><path class="cls-2" d="M72.64,35.39c3.62-.46,6.56-0.71,9.45-1.26,2-.37,3.88-1.35,4.27-3.56s-0.79-3.76-2.53-5c-4.19-2.9-8.71-4.36-17.22-2.73C76.32,25.31,75.43,30.11,72.64,35.39Z"/><path class="cls-2" d="M143.12,17.61a2.23,2.23,0,0,0,1.82.35c2.38-2.28,4.67-4.77,5.71-7.9,0.75-2.25.14-4.58-2.89-5.73-1.91,3.28-3.89,6.52-5.69,9.86A2.53,2.53,0,0,0,143.12,17.61Z"/><path class="cls-2" d="M80.44,77.23c3.4-18.44,2.83-20.13-10.18-30.35,1.14,5.55,3.09,10.42,3.32,15.8A75.49,75.49,0,0,1,68.75,93.8c-1.94,5,1.6,6.58,4.82,8.2,3.77,1.89,4.48-1.52,5.42-3.8,3.26-7.94,6.36-16,9.51-23.94,3.19-6.17,5.66-12.54,5.81-19.6-3.84,4.66-5.74,10.16-7.73,15.63C84.86,72.6,84.09,75.84,80.44,77.23Z"/><path class="cls-2" d="M159.71,56.4c-5.69-2.3-11-1-16.4.81-4.17,1.39-8,4.18-13.16,4.06V50c7.6-.23,13.85-2.85,17.52-10a5.08,5.08,0,0,0-.28-5.6c-1.41-2-3.18-1.8-5.22-1.12-2.47.82-5.07,0.95-6.9,3.4s-4.61,3.7-7.52,4.57c0.08-4,3.62-5.29,5.8-7.65,2.89-3.14,6.73-5.6,7.57-10.2,0.15-.81-0.47-1.76-1-3.55-2.21,2.47-4.56,3.05-7.54,1.4,1.05-3.56,2.08-7.29,3.27-11,1.83-5.69-.76-8.52-6.12-10.21,0.89,9.06-4.11,15.73-6.61,24.42-3.81-9.85-4-9.92-18.18-7.29,0.11,3.32,5.19,1.35,5.16,4.79-1.33,3.51-4.05,6-6.46,8.68s-1.86,5.5.51,8c2.77,2.94,4.68.55,6.69-1.14,5.62-4.72,11.85-7.69,19.44-7.48-0.05,4.92-6.5,5.3-5.66,10.06,0.56,3.49-3.32,3.65-4.43,5.89-5.27.24-9.29,6.57-14.64,4.12-4.54-2.08-4.6,1-4.94,3.13-0.52,3.38,2.33,3.27,4.67,3.37,6,0.24,10.69-2.59,15-6.4,1.26,0.43,3-.36,3.76,1.39-1.59,1.82-2,4-2.09,6.33-3.25,5.4-6.71,10.37-12.66,13.51a11.54,11.54,0,0,0-5.15,13.81c2,5.2,6.63,5.41,11.55,5.78-3.55-11.07-3.55-11.07,2.12-13.86a28.55,28.55,0,0,0-.22,5.07c0.47,3.53,2.48,5,6.21,4.63,4.59-.51,2.86-3.19,2.43-5.73-0.33-1.95-.07-4-0.22-6-0.41-5.44,2.57-7.36,7.34-7.94a13.52,13.52,0,0,1,.41,10.27c-2.52,6.72-2.57,6.61,1.5,10.73,2.79,2.83,5.29,5.95,7.95,8.9,5.34,5.94,9.65,5.67,12.71-1.64,4.23-10.1,6.62-20.82,8.73-31.56C165.38,59.92,163.28,57.85,159.71,56.4Zm-33-7.17c-0.49-.85-0.86-2.07.21-2.58,3.4-1.61,6.47-4.13,10.83-4.6-1.67,4.09-5,5.64-7.7,7.8l0.1,0-0.26.15,0.16-.12C128.83,50.24,127.56,50.71,126.71,49.23Zm20.71,38.91c-0.54,1.87-2.17,2.47-3.9,1.34-1.49-1-3.91-1.61-2.21-4.35,4.65-7.51,3.46-14.9-1.37-22.44l10.86-2.26C153.89,70.35,150,79.2,147.42,88.14Z"/><path class="cls-2" d="M131.16,1017.94c-11.45.54-16.3-4.12-17.06-15.75-0.15-2.32,0-4.65,0-7s-1.17-3.7-3.88-4.28c0,6-.38,11.92.08,17.79,0.92,11.55,11.77,18.48,25.77,17.22,4.87-.44,7.19-2.55,7.11-7.61A76.49,76.49,0,0,0,131.16,1017.94Z"/><path class="cls-2" d="M61.54,972.54c2.22-.05,5.38.49,5.65-2.47,0.3-3.27-2.45-5.35-5.48-5.77-6.22-.86-12,0.25-17.31,5.3A39.54,39.54,0,0,0,61.54,972.54Z"/><path class="cls-2" d="M116.22,985.46c3.12,0.09,2.39-2.94.45-5-3.72-4-9.17-4.7-13.58-7.36,1.18-1.67,2.32-3.3,3.47-4.92s2.37-3.17,3.44-4.83c3.11-4.85,2.59-7.5-2.08-10.45-3.9-2.47-7.63-1.49-11.13.88C89,959,82,965,78.1,973.89c-3.9,3.88-19,34.75-26.41,41.24,0.49-6.06-1-10.87,1.19-15.53,0.89-1.92,1.42-3.47-.07-5.44-1.94-2.57-5.46-5.24-10.45-7.15,1.19,12.75,2.87,25.46,2.16,38.32-0.51,9.17-.22,9.55,8.6,12.87,5.49,2.06,7.33,1,7.52-4.79a99.3,99.3,0,0,1,1.74-15.68c2.45-12.87,15-37.27,18.25-41.18L88.17,974c-3.1,10-8.49,17.44-13.73,25-1.58,2.28-4.3,4.7-2.45,8,2.06,3.7,5.39,5.1,9.61,3.64,0.24,3.82-1.81,6.26-2.57,9.1-0.81,3-.95,5.92.7,8.63,1.29,2.13,3.48,3.31,5.81,2.59a3.81,3.81,0,0,0,2.24-5c-1.76-4.81-.66-9,1.66-13.22,0.23-.42.14-1-0.94-1.66-4.29-2.71-4.12-3-1-5.64,1.52-1.28,3.15-2.41,4.73-3.61,5.32,2.79,3.16,7.17,2.43,11.27-0.68,3.8-2.28,7.78,1.46,11,1.28,1.1,2.74,2,4.53,1.43a3.21,3.21,0,0,0,2.12-4c-1.42-7.12,1-15.52-6.68-20.68-0.36-.25.2-1.88,0.34-2.87C103.31,994.45,106.44,985.19,116.22,985.46Zm-22.65,3.9c0.62-3.94,2.07-7.29,6-9.27C102,986.3,96.73,987.21,93.57,989.36Z"/><path class="cls-2" d="M90.75,181.87c1.94-8.82,1.11-17.86,2-26.77,0.89-8.53-1.89-10.69-9.81-7.58-3.95,1.55-7.29,4.51-12.17,5.06,2.42,5.34,6.81,9.19,5.36,15.24-2.86,11.94-2.59,24.39-5.81,36.29a35.69,35.69,0,0,0-.85,7.91c-0.1,2.69,1.58,4.14,4,5.07s3.68-.36,5.26-1.67c1.81-1.5,1.73-4.42,4.6-5.54,1.24,1.5,2.16,4.4,4.87,3.45,3-1.06,1.53-4,1.68-6.06,0.3-4.31-.11-8.7.58-12.93,0.4-2.47,2.33-4.69,3.58-7C96.07,183.64,90.1,184.82,90.75,181.87ZM76.56,204.56c0.14-5.92-2-11.53,5.28-15.42C83.46,196,83,200.85,76.56,204.56Zm7.27-26.84a1.85,1.85,0,0,1-1.68,2c-1.45.19-3.16-.45-3.14-1.58,0.12-5.5-.67-11.31,4.25-17.79C85.52,167.39,83.46,172.57,83.83,177.72Z"/><path class="cls-2" d="M150.17,207.71c-4.27-1.94-8.87-2.59-13.39-3.56-3.8-.82-7.89-1.16-10.27-4.95h0a4.45,4.45,0,0,0,1.55-3.52c-0.28-5.64,3.55-6.14,7.75-6.35a8.8,8.8,0,0,1,6.37,2.31,12.84,12.84,0,0,0,8.31,2.86c2.48,0.07,4.77-.28,5.43-3.15,0.59-2.55-.34-4.87-2.7-5.84-4.15-1.7-8.27-4.16-13.11-2.15-2.27.94-4.43,0.91-6-1.66a21.22,21.22,0,0,1,6.73-7.08c3.37-2.39,5.14-6.06,7.12-9.46a5.21,5.21,0,0,0-1.38-7.14c-2.12-1.71-4.46-3.27-7.26-2a24.34,24.34,0,0,0-5.81,3.79c-3.57,3.16-4.89-.62-7-2-0.23-1.29-2.67-2.66.12-3.84,4.26-1.8,8.37-4.06,13.16-4.22,4.37-.15,5.55-3.76,6-6.82,0.52-3.89-4.14-2.13-6-4.21,2.2-2.06,2.74-5.05,4-7.71a12.56,12.56,0,0,0,1-6.83c-0.37-3.41-3-4.31-5.75-4.17-3.92.2-.7,2.91-1.23,4.39-3,8.32-4.47,18.16-12.8,22.61-7.56,4-15.21,9.42-24.85,8.16,4.29,6.2,4.29,6.2,13.93,4.51h0c3.68-3.46,6.89-2.24,9.91,1,1.63,4.37-1.57,6.39-4.22,8.68,3.43,1,5.53,3.06,4.48,6.8-1.35,4.83,1.17,11.44-5.94,13.73,0,0.09,0,.17,0,0.26L118,190l0.18-.06c0.1-8.14-8.18-14.92-3.85-23.74h0c-2.81,4.92-4.85,10.12-3.89,15.86,0.69,4.09,1.78,8.28,7.16,8.15-6.29,3.34-12.07,8.19-20.07,6.37-2.1-.48-1.81,1.66-1.65,2.58,0.75,4.46,3.63,5.75,7.75,3.55,5.26-2.81,10.13-6.46,16.91-8.12-2.3,8.23-4.67,15.25-11.43,20.16,8.69,1,12.44-4.16,15.05-10.85a3.84,3.84,0,0,1,4.47.54c7.73,6.2,15.58,12.26,22.78,19.44a29.05,29.05,0,0,1,1.73-2.77C158.41,214.58,157.63,211.1,150.17,207.71ZM137,166.37c0,4.6-3.88,6-5.8,10.86C128,168.95,132.3,168,137,166.37Z"/><path class="cls-2" d="M58.26,1332.24c1.49-2.63,4.73-10.52,4.73-10.52-0.69-8.52-2.19-9.81-8.54-7-4.92,2.16-9.58,4.92-14.78,7.62,5.95,4.3,11.17,1.21,16.48.54-0.61,4.17-1.65,7.53-3.77,9.92-4.34,4.9-4.44,13.39-13.85,14.43-2.95.33-3.77,7-2,11.54,5.85-1,9.5-3.87,12.67-8.82,3.44-5.37,5.38-11.34,8.54-16.76l0.54-.93h0Z"/><path class="cls-2" d="M93.11,1321.89a83.07,83.07,0,0,0,22.34-18c3.24-3.78,2.4-6.57-2.25-8.08-3.41-1.11-6.19-.27-9.11,2.15-5.7,4.69-10.56,10.49-17.76,14.82-0.33-4.64-1.08-8.26-.71-11.77,0.35-3.25-.34-5.4-3.45-6-3.6-.72-7,0.62-7.86,4.27-0.61,2.6,1.7,1.81,3.18,1,1.37,6.25.92,12.49,0.32,19,0,2.37.14,9.34,0.14,9.34-0.09,3.32-.65,6.72-0.16,10,1,6.38-1.83,9.35-9,10a28.84,28.84,0,0,1,9.67,6.5c2.42,2.56,4.38.53,5.17-1.82,0.6-1.81.16-4,.25-5.94,0.29-6.55-.57-13.18,1.13-20.79,9.8,5,19.14,9.64,28.32,14.56,5,2.67,10,5.4,15.53,6.42,8,1.45,12.45-1,16.06-8.3C123.4,1336,102.31,1328,93.11,1321.89Z"/></g></svg>