<svg id="图层_1" data-name="图层 1" xmlns="http://www.w3.org/2000/svg" viewBox="0 0 200 1401.77"><defs><style>.cls-1{opacity:0.05;}.cls-2{fill:#fff;}</style></defs><title>主站</title><g class="cls-1"><path class="cls-2" d="M146.23,678.78c-4.87-5.17-10.43-7.4-17.82-5.71-12.84,2.93-25.67,6.34-39.16,4.44-6.67-.94-13.12.56-19.22,3.79-2.12,1.12-4.39,3.25-7.27,1.92-4.23-2-4.42,1.63-4.51,3.78-0.16,4,3.71,6.88,8.16,6.68,4.16-.19,7.48-2.41,10.94-4.39,7.35-4.2,14.71-7,23.54-3.58a20.72,20.72,0,0,0,14.68-.36c8.36-3.18,16.41-6.84,25-.06,2.68,2.11,5.34-.84,7.27-2.73C148.13,680.7,147.11,679.71,146.23,678.78Z"/><path class="cls-2" d="M98.42,646.58c2.37,2.34-1.33,3.33-.42,5.21,6.77,0.09,12.6-3.24,18.81-5.3,9-3,9.47-3.58,7.42-12.38-1.24-5.32-3.22-6.53-8.39-5.05-4.1,1.17-7.7,3.8-12.4,4.21-3.12-5.09-4.35-10.94-6.09-16.56-1.58-5.1-4.19-8.61-11.86-9.17,6.34,6.15,5.64,12.77,6.36,18.83C92.73,633.59,92.84,641.05,98.42,646.58Z"/><path class="cls-2" d="M140.67,813.51c-5.51-4.91-11.31-9.28-19.21-9.4-3.66-.06-7.32-0.49-11-0.4-9.55.23-19.18-.57-28.66,0.87a10.53,10.53,0,0,0-1.16.19c-1.56.27-3.12,0.59-4.67,1-1.93-1.35-1.8-2.74.33-3.44,9.53-3.13,17.92-8.64,27-12.7,10.34-4.62,17.78-12.65,23.43-22.29,2.83-4.83,1.8-6.89-3.47-8.94-4.61-1.79-9.14-1.14-13.68.22-3.27,1-6.31,2.93-10.25,2.87a34.15,34.15,0,0,1,11.22-11.89c2.75-1.83,5.34-3.9,8.19-5.55,4.43-2.57-.86-5.86.82-8.56a12,12,0,0,0,1-1.72c1.29-3.12,2.61-6.21-.51-9.15s-6.56-3.12-10.2-1.77c-8.68,3.21-17.3,6.6-27,10.3,5.79,4.1,10.88,6,16.86,5.27-1.32,6.68.87,14.66-8.27,18.41-0.83-7.42-4.43-12.88-8.28-18.81-5.57,9.54-3.86,17.27,4.28,23.46-3.25,4.36-7.4,7.1-8.58,11.86-0.66,2.66-.68,5.19,2,7.09,2.37,1.66,4.35,1.09,6.37-.39,2.41-1.77,4.75-3.64,7.19-5.36,5.64-4,11.65-6.9,20.12-7a101.92,101.92,0,0,1-43.54,32.47c-4.91,2-6.28,5.24-2.58,8.47a20.49,20.49,0,0,0,17.68,4.81c2.91-.54,1.75-2.89.57-4.64,4.28-2,4.44,5.92,9.67,3.67,3.32-1.43,8-.54,11.83.23,6.17,1.22,12.4,2.38,18.26,4.87,3.05,1.3,6.3,2.13,9.37,3.4,2.15,0.89,4,.74,5.28-1.13C142.73,817.64,142.72,815.34,140.67,813.51Z"/><path class="cls-2" d="M137.34,869.74c-2-.68-4.64.38-6.3-2.28A51.44,51.44,0,0,0,139.5,852c3.81-11.32,2.26-14.33-10.51-17.42,2.12,3.79,5.67,5.88,3.8,10.36-3.47,8.29-6.74,16.6-13.78,22.69a18.78,18.78,0,0,0-3.46,3.48,4.29,4.29,0,0,0,.18,5.52,4.17,4.17,0,0,0,4.5,1.31c2.7-.75,5.08-3.59,8.2-1.31,0.31,2.08-2.66,2.88-1.58,5.9,3.31-.77,6.61-2.26,10.21-2.31,2.84,0,3.24-3,3.64-5.24C141.17,872.3,140,870.65,137.34,869.74Z"/><path class="cls-2" d="M73.95,862.38c-2-.92-3.31,1.4-2.9,3.78h0c-4,.05-4.39,5.78-9.33,5.4-1.71-4.06.49-9.72-4.75-14.45,0.36,6.08-1,10.56-2.39,15.07C53.41,876,53.22,880,56,883.5c1.44,1.78,2.81,4.28,5.35,3.89s3.24-2.62,3.88-5.1c1.22-4.7,1.64-9.87,5.68-13.43-1,2.74-.09,5.25,1.23,7.52,1.54,2.66,5.44,2.73,6.14-.06,1.5-6,5.57-11.07,5.63-18.24C81.5,862.45,78.82,864.62,73.95,862.38Z"/><path class="cls-2" d="M136.2,10.27c2.7-.88,3.23-3.35,3.19-5.46a4.6,4.6,0,0,0-4.31-4.6c-2.56-.24-5.16-0.05-7.77-0.05,0.2,3.15,2.26,5,3.5,7.2S133.35,11.2,136.2,10.27Z"/><path class="cls-2" d="M160.74,107.6c-2.17-8.55-8.93-14.54-12.67-22.23-0.14-.28-1.08-0.08-1.58-0.28-3-1.21-7.5-7.69-7.79-11.36-0.32-4,3.36-3.2,5.39-4.45a22.66,22.66,0,0,0,4.53-3.79c8.14-8.67,6.09-18,1.73-27.51-2.17-5.56-3.45-11.93-11.15-12.65,6,4.9,6.53,11.89,7.54,18.67-1.43,5.46-2.76,10.9-6.68,15.35-2.65,3-5,3.37-7-.18-2.27-4-4.83-8-6-12.39-4.3-15.76-7.79-11.12,7.48-18.24A4.29,4.29,0,0,0,135.67,27c-3-4-5.81-8.62-12.05-5.74-5.15,2.37-7.89-.84-9.1-4.74C112.36,9.63,108,4.86,102.06,0c-0.23,7.31,2,13.29,3.38,19.38,1.86,8.44,1.91,8.07-5.77,12.27-4.41,2.42-10.15,1.3-14.15,5.24,5.1,4.25,10.81,4.92,18.48,5L87.4,53.51c5.3,3.84,10.53,4.8,16.46,3.22-1.69,10.75-6.67,18.34-16.49,22.06C82.25,61.76,76.93,58,62.66,61.62c1.19,2.79,3.76,3.52,6.29,4,1.72,0.35,3.06.83,4,2.43,7.86,13.28,6.36,26.5-5.42,36.73-4.73,4.1-5.35-.47-5.84-4.85-4,9.88-3,11.2,5.66,10.08,5.1-.66,9.34-3.17,13.49-5.94h0C85.65,99.68,87.32,94,86.56,86.2c4.33,4.91,4.54,10,6.88,14.28-2.13,3.3-6.39,1-8.66,3.47,0.51,2.35-3.33,3.9-1.52,6.21,2.21,2.82,4.89,1,7.12-.29a18,18,0,0,1,10.54-2.2c2.74,0.19,5.79-.14,7.6-1.84,5.39-5.08,12.43-4.05,18.7-5.6,5.16-1.27,10.3-2,13.74,5a23.25,23.25,0,0,0,10.71,10c2.89,1.35,5.37,1.19,8.3-.76C163.46,112.15,161.31,109.84,160.74,107.6Zm-43.3-54.5c4.46,10,4.46,10-4.2,9.89ZM98,93.9c-0.24-2.27-.56-4.8-1.73-6.64-2.86-4.49.12-5.77,3.35-6.91,3.84-1.35,5.51.35,4.61,4.48-1.62,7.41-1.62,7.41,1.47,12.19C102.09,98.34,98.67,100,98,93.9Zm15.29-15c-0.25,2.9-.83,5.78-1.53,10.3-2-3.63-1-7.14-4-8.92-1.57-.91-2.4-2.46-0.76-3.86a5.65,5.65,0,0,1,3.65-.89A2.83,2.83,0,0,1,113.32,78.95Zm8.45,4c-2.81-2.93-3.22-7.22-8.61-9.13,4.39-2.49,7.43-3.78,11.58-3.87C126.11,74.77,121.9,78.32,121.77,82.94Zm11.33,10.69c-1.85-.22-3.86-0.68-5-2.94,0.89-.8,1.72-2.11,2.81-2.37,2.18-.52,2.19,1.77,2.9,3C134.32,92.22,133.93,93.72,133.11,93.63Z"/><path class="cls-2" d="M148.54,288l-0.27-.26,0.27,0.26h0Z"/><path class="cls-2" d="M148.53,288h-0.06l0,0Z"/><path class="cls-2" d="M148.65,287.71H148.5l0.05,0.24C148.58,287.88,148.62,287.8,148.65,287.71Z"/><path class="cls-2" d="M154.45,287.76l-5.69,0c-0.08.12-.15,0.25-0.22,0.37,7.86,10.54,8.32,21.46,1.28,32.66-2.16,3.45-4.77,6.4-10,4.58,2.93-6.47,6-12.64,7.55-19.43,0.8-3.42.09-7.43-2.42-7.49-6.14-.14-6.11-5.87-9.93-7.87,4.16-5.16,9.16-1.55,13.41-2.54l-0.2-.28h0.22l-0.35-1.65h0a1.62,1.62,0,0,1-1.69-.32c-2.27.33-5.06,1.32-4-2.88,0.45-1.86-.08-4.06,1.79-5.45a30.19,30.19,0,0,1,7-11.88c1.55-1.59,3.69-3.46,2.22-6-1.78-3.1-4.85.64-6.17-.24-4.08-7.69,5.76-19-8.25-22.36,1.61-4.29,4.77-6.34,8.92-7.31a3.09,3.09,0,0,0,2.68-3.57,4.07,4.07,0,0,0-2.93-3.67c-2.9-.81-5.62-1.57-8.12,1.45-2.36,2.85-4.71,6-8.75,7.73,3.41-14.52,3.11-14.88-9.64-11.73,3.78,3.16,3.4,6.78,1.95,10.81a19.92,19.92,0,0,1-6.88,9.61c-5.11,3.73-3.86,6.6.48,9.71,4.78-3.6,9-7.63,15.47-10.93-3.74,10-7.42,19-8.85,28.43a20.58,20.58,0,0,1-6.7,12.81c-1.46,1.34-2.62,3-4.11,4.33-2.24,2-1.9,4-.57,6.22,1.72,2.88,4,1.53,6.1.77s2.62-5.16,6.26-3.13c6.06-.54,1.95-7.92,7.17-9.88,2.18,6.13.12,10.18-5.16,13.12-2.63,3.51-6.51,5.59-9.67,8.48-4.84,4.41-5,7-1.12,13.15,7.49-4.27,8-15.72,18.11-18.28-0.71,7.83-2.68,14.27-5.16,17.45-4.91,6.31-5.45,6.87-1,11.77,3.32,3.62,2.57,5.86-1.08,9.11,3.54,0.36,5.8-1.31,8.6,0,6.05,2.73,11.67.11,16.68-3.4C165.73,320.09,166.91,301.15,154.45,287.76Zm-17.54-9.58c-1.54.24-2.43-.55-2.45-1.44,0-2.62,1.48-4.25,4-4.79a1.73,1.73,0,0,1,1.37,1C139.86,275.32,139.21,277.43,136.9,278.18Zm-6.23-22.88c1.39-4.18,2.42-7.62,3.68-11,0.64-1.69,2.26-2.25,4-2.39,2.35-.18,2.51,1.75,2.84,3.21,1.69,7.39,1.5,14.52-3.62,22.53C140.57,253.42,138.75,255.91,130.67,255.29Zm2.61,71.07c-3.07-5.84,0-8.63,1-11.78,1.23-4.07,2.49-8.13,3.65-12.22,0.53-1.84,1.58-3,3.49-2.37,1.43,0.47,1.39,2,1.29,3.31C142.1,311.46,137.49,317.89,133.28,326.36Z"/><path class="cls-2" d="M90.18,260c5.6-6.83,10.14-12.5,14.82-18,2.88-3.41,2.22-5.82-1.51-8s-7.45-2.36-11.26,0c-2.37,1.47-4.3,3.85-7.51,4.28,2.06-12.72,1.27-14.57-7.86-19C76.47,229,70.73,236.6,66.8,244.93c-3.1,6.56-3.19,6.51,3.49,12.09,4.41-6.69,12.38-6.85,19.66-11,0.55,6.79-3.63,9.7-6.21,13.31-11,15.46-15.23,33.8-22,51.07-1.16,3,.36,5.16,1.08,7.57,0.65,2.17,1.75,4.55,4.68,4.3s6.14-1.63,5.95-4.33c-0.6-8.29,7.2-8.52,10.9-13.74a25.68,25.68,0,0,1-.78,12.83,19.84,19.84,0,0,0-.94,9.76c0.26,1.39.75,3.21,2.09,2.54,4.06-2,5.05,1,6.67,3.37,2.38,3.45,4.43,9.34,9.17,7.39,4.3-1.77,3.5-7.87,3.61-12.43a3.43,3.43,0,0,0,0-1c-2.29-8-1.47-16.41-3.17-26.12l-1.23,25.35c-0.83-18.14-2.66-36.35,3.88-53.24,1.59,1.81-.94,5.62,2.15,8.47,0.54-5.81,2.19-11-1-16.07S96.37,260,90.18,260ZM75,302.24c0.63-4.88,1-8.44,1.55-12,0.73-4.87,3.58-5.76,8.53-4C82.86,292.78,79.19,296.89,75,302.24Zm5.25-20.95c0.18-4,3-5.49,6.57-7.73C87,280.18,82.66,279.58,80.24,281.29Zm14.83,40.35c-0.34,1.79-.36,4.35-3.39,3.62-2.1-.51-1.87-2.27-1.79-4,0.35-7.95.54-15.9,0.94-23.84,0.16-3.23.33-3.22,5.89-7.72C96.77,300.77,97.07,311.25,95.07,321.64Zm0.72-36.06c1.27-4.79-1.92-7.5-4-10.64-2.27-3.41-1.92-6,1.86-8.15,3.25-1.84,5.59-.9,5.51,2.5C99,274.7,98.57,280.23,95.78,285.58Z"/><path class="cls-2" d="M71.38,1331.73c2.53-3.55,1.33-6.89-1.34-9.86-0.66-.73-1.45-1.78-2.26-1.87-6.17-.64-5-5.22-4.62-8.94s1.14-7.14,3.67-10.1c1.15-1.35,3-3.18.87-5.12-1.74-1.61-3.94-2.76-6.38-1.85-3.32,1.23-5.55,3.3-5.4,7.37,0.2,5.31-.49,10.7.1,15.95s-3.22,7.5-5.51,11c-2.16,3.3-2.18-5.31-4.28-.4-1,2.31-3.36,4-5,6.06-5.75,7-5.67,13.65.28,20.62,1.27,1.49,2.55,3.33,4.88,2.7,2.14-.59,3.08-2.83,3.43-4.52,1.22-5.81,1.91-11.74,2.92-18.37,3.1,2,3.16,4,3.12,5.94-0.36,17.22,1.06,34.47-1.06,51.65-0.28,2.24-1,4.55.9,6.62,1.27,1.38,1.88,3.8,4.38,3.06,1.8-.54,2.2-2.42,2.32-4.08,0.8-10.69,5.44-20.49,7.15-31,0.69-4.19,3.58-8.08,2.08-12.93-4.07,7.23-5.13,15.46-10.83,24,1-16.92-1.41-31.71,2.38-47.05C66.15,1332.47,68.83,1335.3,71.38,1331.73Z"/><path class="cls-2" d="M124.13,1358.95c-1.72-10-4.56-12.63-14.7-13.86a23,23,0,0,1,12.71-10.65,3.55,3.55,0,0,0,2.51-3.82c-0.25-2.86-2.74-2-4.55-2.53-3-.85-5.37,2.92-8.51,1,2.51-4.48,8.71-8.51,1.2-14-1.26-.92-0.82-3.89,1.29-5.07s4.51-1.18,6-3.07c0.18-1.91-.58-4-1.9-4.39-6.4-1.87-6.36-6.64-6-11.81a10.7,10.7,0,0,0-.59-4.85c-1.33-3-3.63-3.79-6.36-1.55a6.56,6.56,0,0,0-2.27,7.16c0.74,2.83,1.64,5.62,2.69,9.18-11.53.09-16,7.59-20,18,5.62-3.31,9.62-6,14-8,1.77-.82,4.83-2.16,6.27.56,1.21,2.3,1.53,5.12-1,7.28a59.68,59.68,0,0,0-4.36,4.1c-2,2.17-4.09,4.34-4.6,7.51-1.5,9.28-7.07,15.67-15.19,19.68-4.14,2-4.71,5.23-4.69,8.95,0,1.54-.05,3.49,1.66,4.35s3.12-.33,4.35-1.5c4.1-3.89,8.13-7.87,12.37-11.6,1.59-1.4,3.32-3.73,5.95-2,2.4,1.62,1.54,3.71,1,6.16-1.91,8-3.32,16.19-4.9,24.31a19.73,19.73,0,0,0,1.75,13.54c0.64,1.18,1.36,2.28,3,1.9s1.87-2,1.65-3.09c-2.19-10.75,1.22-21.11,2.38-31.9,4.3,4.75,8.61,9.48,12.88,14.24,2.24,2.49,2.62,9,.53,11-2.71,2.58-4.84-.24-7.15-1-1-.36-1.92-2-3,0,0.93,4.23,4.34,6.62,7.46,8.95,4.52,3.37,8.71,1.51,8.84-4.22C125,1378.22,125.77,1368.52,124.13,1358.95Zm-6.54-7.4,2.87,12.07C114.59,1361.23,114.59,1361.23,117.59,1351.55Z"/><path class="cls-2" d="M137.06,968c-5.34-.9-10.61-2.58-16.49-0.65,5.39-4.68,3.58-12,8.93-16.42,4.43-3.7,6.17-10.56,10.47-15.66-4.76-3.66-9.32-4-14.24-2-2.56,1.08-2.5-1-3-2.49,2.88-9.48,1.4-19.51,3.92-29.14,1.15-4.36-4.06-6.93-8-4-3.14,2.3-6.57,3.78-10.39,5.55,1.93,3,4.25,4.16,7.55,3.47,2.38-.49,3.63.45,4.14,2.93,1.6,7.66.65,10.83-5.3,16.36-4.68-1.82-.86-6.79-3.48-9.44-0.9-.91-1.4-2.37-3-1.62-1.38.65-3.8,1.14-2.83,3.21,2.43,5.17.66,10.5,1.18,15.7,1.42,14.2-7.08,22.19-18.06,28-4,2.12-3.86,3.75-2.15,6.72,2.33,4,4.85,4.32,8.68.52,5.35-5.31,9.52-11.81,15.86-16.2,4.87,6.69,4.95,6.74.46,12.53a84.47,84.47,0,0,1-15.48,15.47c-2.24,1.71-4.74,4.49-8,2.59-2.59-1.52-4.3-.12-4.61,1.54-0.61,3.27,1.46,4.8,4.8,4.39,6.48-2.54,12.69-5.53,18-11.37-2.53,10.71-6,13.68-15.5,14-2.14,6.27-1.56,7.35,3.83,6.41,2.2-.38,4.27-1.53,6.39-2.32,4.81-5,7.62-11.19,9.68-17.72,0.69-2.17,1-5.51,3.56-5,3.51,0.65,2.28,4.29,2,6.74a26,26,0,0,1-9,17.06c-1.66,1.41-2.24,4-4.62,4.51-1.06,2.48-4.74,2.9-5.55,6.7,5-1,8.91-2.53,13.46.83,2.94,2.17,8.4,1.47,12.4-.73,7.05-3.87,13.27-8.85,17.76-15.57a43.8,43.8,0,0,0,5.26-10.69C148.16,974.42,144.88,969.32,137.06,968ZM127,938.77c1.67,1.91.66,3,0,4.05-0.95,1.59-1.64,3.5-4.14,3.78C121.61,942.32,123.46,940.15,127,938.77Zm-15.35-1.89a2.28,2.28,0,0,1-.95-1.42,4.45,4.45,0,0,1,2.65-4.65c1-.43,1.43.75,1.44,1.75A4.23,4.23,0,0,1,111.65,936.87Zm4.69,15.29c-2.1-.24-2.54-1.4-2.29-2.74A2.82,2.82,0,0,1,116.7,947c1.81,0,1.49,1.65,1.51,2.77A2.08,2.08,0,0,1,116.34,952.17Zm-6.15,49.62c6.95-9.8,11.66-19.26,7.43-31.39,4.76,1.44,9.62,1.45,14.51,1.41,3.56,0,6.46,1.12,6.6,5.67C139.07,988.65,122.64,1003.33,110.19,1001.79Z"/><path class="cls-2" d="M80.65,930.55c-2.74.77-5.28,2.25-8,3.45-3-4.56-.18-8.8-0.55-12.91-0.59-6.51.56-11.74,8-12.82-0.67-4-3-5.77-5.8-7.26-7.1,5.23-9.33,11.6-7.8,19.62,0.67,3.53.09,7.3,0.09,11,0,7.36-2.47,10.12-9.72,10.52-3.67.2-7.2-.47-11-4.59,1.91,13.13,3.7,24.26,1,35.48a5.17,5.17,0,0,0,.72,3.78c3.55,4.93,2.8,8.26-3.79,9.56,4.9,4.16,8.86,3.82,12.44-.69,2-2.51,4-5,7.43-6.17,1.07,9.73-4.83,19.12.71,29.56,10.93-12.32,4.21-26.61,6.62-39.73,3.58,4.21,3.95,4.41,5.73,2.4,8.47-9.57,10.8-21.81,13.89-33.56C92,933.15,86,929,80.65,930.55ZM54.32,979.47c2.24-4.8,1.85-8.8,1.86-12.75,0-8.82,0-8.82,9.44-7.23C66.15,968,64.2,975.15,54.32,979.47ZM60,954.58c-1.82.8-4,1.8-4.93-.93-0.77-2.34-2.18-5.36,1.66-6.61,3-1,5.64-3.42,9.13-3C68.57,950.41,64.45,952.61,60,954.58ZM78.41,956c-0.44,1.47-.82,3.69-3.12,2.68-1.69-.74-4.11-2.2-2.34-4.45,2.92-3.72,2.88-5.58-1.84-7.82-1.71-.81-1-5.06,2.12-6.39s5.49-3.76,9.79-4.08C82.75,943.47,80.29,949.65,78.41,956Z"/><path class="cls-2" d="M140.66,531.55a66.79,66.79,0,0,0,13.95-15.26c4.74-7.3,3-11-6.26-14.27,1.92,13.18-6.34,20.39-15.52,27.8-2.07-18.57-5.05-21.6-19.79-20.83,0.34,2.39,2,3,4.13,3.44,9.24,2.13,11.95,10.3,6.09,17.64-1.74,2.18-4.34,4.86.57,6.75a3.82,3.82,0,0,1,2.6,2.75c0.86,3.81-4.12,15.18-7.92,17.54-4.65,2.89-8.09.24-11.47-2.7a2.21,2.21,0,0,0-1.48,0,15.31,15.31,0,0,1,1.77,3.24c1.35,4.7,4.85,7.66,9.2,7.63a11.52,11.52,0,0,0,10.21-6.95,43.7,43.7,0,0,0,4.08-12.22c0.43-2.79-.92-6,1.64-8.63,9.18,2.69,13.84,13,24.56,14.76C156.74,540.76,147.93,537.25,140.66,531.55Z"/><path class="cls-2" d="M105.45,554.29l0,0-0.22,0-0.08.2,0,0,0.41,0-0.08-.13Z"/><path class="cls-2" d="M102,502.25a18.71,18.71,0,0,0,3-.32,3.32,3.32,0,0,0,2.91-2.39c0.54-1.83-.6-3.07-2.06-4.08-3.22-2.22-6.24-.82-9.49.13-17.19,5-34.43,9.91-52.67,15.13,4.69,6.14,9.75,4.35,15.24,2.16C72.72,507.36,86.53,501.45,102,502.25Z"/><path class="cls-2" d="M108.32,521.54c-2-.42-4.09-0.12-5.35,1.77s0,2.55,1.38,3.82c4.34,3.84,2.53,8.37.39,12.53-1,2-2.93,3.6-4.26,5.5-3.74,5.33-2.37,7.91,4.77,9.08,2.91-7.56,5.83-15.09,8.64-22.66C114.83,529.05,110.94,522.08,108.32,521.54Z"/><path class="cls-2" d="M80.22,478.72c0.84,1.39,3.12,3.4,2.88,3.72-3.6,4.79,1.25,5.67,3.45,7.39a4.31,4.31,0,0,0,6.75-1.49c1.26-2.52,4.32-5.48.78-8.67-5.76-5.2-12.26-8.09-20.4-7.2C74.53,476.53,78.67,476.15,80.22,478.72Z"/><path class="cls-2" d="M79.87,516.68c-3.42,1.58-7.07,1.15-11.52,1.73,1.94,3,3.4,5.14,4.64,7.36,0.73,1.3,1.63,2.11,3.05,1.72a109.86,109.86,0,0,0,12.19-3.74c2.84-1.16,2.75-4.37.07-6.06S82.78,515.34,79.87,516.68Z"/><path class="cls-2" d="M121.33,489.6l-3.07,6c3.78-1.67,6.16-2.75,8.56-3.78s5.85-2,4.89-5.1a6.92,6.92,0,0,0-8-4.6c-3.56.57-7,1.75-10.63,2.68C115.47,488,118.9,487.68,121.33,489.6Z"/><path class="cls-2" d="M71.35,549.68c0.58-5.14,3.2-8,7.89-9a38.11,38.11,0,0,0,6.62-2,3.36,3.36,0,0,0,2.14-4,3.86,3.86,0,0,0-3.71-2.82A12.9,12.9,0,0,0,77.49,533c-2.5,1.22-5.86,2.18-7.64.64-4.34-3.77-4.95.81-3.61,1.89,7,5.69,1.18,10.8,0,16.08a18.26,18.26,0,0,0,.2,6.92c0.66,4.17,1.79,7.27,6.88,8.35,4.93,1,8.1.54,10.83-4,4-6.75,8.61-13.17,13-19.8C87.25,541.54,78.58,542.49,71.35,549.68Zm2.09,11.18c-2.71-7.31-2.71-7.31,4.88-7.91C77.79,556.32,75.45,558.4,73.44,560.87Z"/><path class="cls-2" d="M56.39,1240.06c-2.4-3.64-4.39-7.43-3.79-12a3.34,3.34,0,0,0-2.25-2.24c-3.88,8.28-3.57,16.64.06,24.81,1.55,3.49,8.81,5.43,11.16,3.15,3-2.92-.61-5.37-1.41-7.9C59.49,1243.73,57.66,1242,56.39,1240.06Z"/><path class="cls-2" d="M135.69,1225.06c-1.09-6.84-2.9-13.54-2.11-20.64,0.44-3.93-5.41-8.15-9.34-7.14-0.64.16-3,.32-1.62,2.29,7.78,10.86,3.78,21.8.22,32.71-0.62,1.88-2.24,4.63-4,3.33-4.35-3.27-10.46-2.15-14.52-6.4,3.76-5,8.8-9,11.95-14.74a14.67,14.67,0,0,0-7.67-3h0q3.25-5.57,6.51-11.13c1-1.73,2.52-4,.06-5.09-4-1.74-2.71-4.81-2.76-7.59-0.07-3.62-2.19-4.75-5.24-4.18-6.54,1.22.46,2.52,0.14,4.08-1.58,7.69-6.54,12.74-12.12,18.41l-1-4c0.78-3.83,1.42-7.7,2.37-11.49s-0.15-6.89-3.13-8.63c-5.09-3-10.44-6.27-18.12-2.31,7,1,12.44,2.67,10.95,10.4h0l-0.2,6.11h0a17.41,17.41,0,0,1,.12,7.82c0.14,5.9.56,11.82-.58,17.66-0.23,1.2-1.12,2.68-2.67,2.29a2.2,2.2,0,0,1-1.46-3.06c2.81-7.71-2.38-3-5.39-2.93,1.77-6.27,7.87-10.89,6.51-17.88l-2.31-2.3v0l-0.12.1c0.64,4.87-2.25,7.69-5.54,10.27a13.71,13.71,0,0,1,5.54-10.27c0-.07,0-0.14,0-0.22l0.15,0.1h0c-1.23-4.56-3.86-7.39-9.74-7.66,1.78,3.3.82,6,0,8.66-1.34,4.19-3.76,7.64-6.37,11.16-3.52,4.74-2.23,7.6,3.35,9.25-1.06,4.75-5.9,7.22-7.18,11.78-0.64,2.29-.89,4.79,1.59,6.24s4.2-.08,6-1.85c2.15-2.11,2.4-5.54,5.48-7.29,5,2.6,8,7.48,12.16,11.13-8.66,5.84-14,8-21.81,9.13,3.48,6.16,4.24,6.64,9.47,4,7.71-3.84,15.06-8.5,23-11.88,10.35-4.43,14.14-3.26,21.34,5.35,2.84,3.4,5.24,3.17,8.44.73C133,1240.93,137.16,1234.28,135.69,1225.06ZM96.54,1210h0c5.77-3.23,8.63-9.35,13.82-15,2,7.11-1.68,11-5,14.35-2.18,2.23-5.61,4.78-8.84.63l0,0Zm1.78,5.36c2.74,1.21.32,2.43,0,3.65-1.31.45-2.5,3.47-3.77,1.33C92.43,1216.72,95.64,1216,98.32,1215.34Zm5.34,17.16c-2.64,3.45-6.23,3.54-10.41,3.85,1.81-6.28,6.05-5.34,9.72-5.5A2.28,2.28,0,0,1,103.66,1232.5Z"/><path class="cls-2" d="M91,1124.62l0-.06a29.45,29.45,0,0,1-1.83-18l-5.39,8.15c-2.77-11.13-.9-11.59,10.33-18.66-5.08-.32-8.16-2.32-6.51-8,0.88-3,.68-5.47-3.14-5.39-1.61,0-2.69-.38-3.1-1.62-0.69-2.06,1-2.75,2.49-3.59,2.9-1.6,5.57-3.49,9-4a4.12,4.12,0,0,0,3.81-4c0.06-2.68-1.75-4.42-3.84-5.37-3.42-1.57-6.4.46-9.34,2-0.6.31-.22,0.8-0.17,1.55,0.54,8.21.42,8.3-7.46,7.32,0.18-2.42,1.45-4.39,2.73-6.34,5.44-8.22,3.89-12.81-5.38-15.89-2.59-.86-5.22-0.62-9.43-0.05,6.28,3.66,3.54,7.73,1.83,11.66a369.61,369.61,0,0,1-19.77,39.09c-3.7,4-7.06,8.21-8.81,13.78,2.23-4.32,7,0,9.36-3.24,6.64-3.64,10.48-9.86,14.52-15.86,1.63-2.41,3.3-2.75,5.77-1.08,1.81,1.22,6,.48,3.36,4.75,2.15,4.18,4.19-3.32,5.84-.19,1.84,3.48-1.37,5.38-3.43,7.34-2.85,2.73-6,5.15-8.84,7.87-2.15,2.05-3.51.28-5.11-.68h0c-0.93,2.44.65,4,2,5.59h0c2.9,0.71,4.92-.6,7.08-2.46,2.42-2.08,3.86-5.63,7.84-5.76,1.55,3.54,1.33,6.48-2.8,7.91-4.44,1.53-8.36,4-12.36,6.37-5.13,4.6-1.09,7.42,2,10.43,5,0.15.61-5.07,3.65-6.32,2.71-1.11,5.15-2.88,7.76-4.26a5.07,5.07,0,0,1,1.91-.18c0.32,9.19.32,9.19-7.8,12.67,3.62,1.28,7.22,2.64,10.88,3.79,1.81,0.57,3.06-.64,4.09-2,0-2.31,0-4.62,0-6.92C82.86,1127.11,82.86,1127.1,91,1124.62Zm-26.51-31.78,8.78-14.56C78.78,1085.74,77.51,1087.89,64.53,1092.84Z"/><path class="cls-2" d="M152.18,1125c-1.62-.89-3.86-0.59-5.81-0.93-7.87-1.38-15.53-3.11-22.1-8.28-3.74-2.94-5.75-5.44-4.31-10.68,1.29-4.71,1-9.9,1.08-14.87,0.06-5.34,1.29-9.84,6.44-12.49,1.76-.9,4.1-2.18,2.57-4.4-1.38-2-3.52-4.5-6.58-3.09-3.6,1.66-6.91,3.93-10.46,5.73-3.22,1.64-6.22,3.82-10,4.17-1.47.13-2.74-2.8-4-.53a4.72,4.72,0,0,0,.93,5.54,13.26,13.26,0,0,0,12.84,4.34c-0.34,5.32-.7,9.6-2.91,13.63-3.05-1.9-6.75-2.63-9.36-5.32-2.06-.08-3.29.19-4,0.66-0.32.62,0.35,1.32,1.06,1.93s1.58,1.19,2.29,1.87c8.8,8.4,8.94,9.08,1.91,19.43-2.19,3.23-4.26,6.59-7.42,9.14-2.77,2.23-5.39,4.65-9,6.15,2.59,1.93,4.89,1,7.09,1,9.19-4.53,17.51-10.22,24.13-19.49,8.64,11.57,19.9,16.31,33,17,2.75,0.15,6.94,1.68,8-1.95C158.59,1129.79,155.44,1126.8,152.18,1125Z"/></g><path class="cls-2" d="M56.87,407.57c24.41-.18,47.44-6.93,70.94-10.67,6.85-1.09,13.86-2.14,20.72-.32,2.23,0.59,5.66.95,5.57,4.6-0.1,4.17-3.28,5.48-6.63,6.24a11.08,11.08,0,0,1-3.92-.26c-12.35-1.86-24.35-.08-36.39,2.86C95.29,412.9,83.4,416.12,71,415.79,64,415.61,63,415,56.87,407.57Z"/><path class="cls-2" d="M132.61,168.43l1.76-3.81c-6.44-.56-12.49.95-18.43,2.4-11.92,2.91-24,5.39-35.48,9.84a14.59,14.59,0,0,1-8.83.33c-5.9-1.38-7.79-7.41-3.73-12.19,1-1.2,3.31-2.43,3.8-.24,1.06,4.7,4.3,3.27,6.94,3a244.2,244.2,0,0,0,49.69-10.14c6.75-2.11,13-2.86,19.09,1.13,1.83,1.2,4.43,2.28,3.73,5.19a5.53,5.53,0,0,1-5.1,4.17C141.81,168.61,137.42,167.65,132.61,168.43Z"/></svg>