<svg id="图层_1" data-name="图层 1" xmlns="http://www.w3.org/2000/svg" viewBox="0 0 200 1375.01"><defs><style>.cls-1{opacity:0.05;}.cls-2{fill:#fff;}</style></defs><title>主站</title><g class="cls-1"><path class="cls-2" d="M154.6,418.09c-2.16-1.51-4.46-3.19-6.94-3.81-19.08-4.74-32.17-18-45.31-31.27-3.1-3.13-2-5.21,1.33-6.83a66.13,66.13,0,0,1,6.45-2.53c3.74-1.36,7.55-2.54,11.23-4a6,6,0,0,0,3.43-6.63c-0.35-2.57-3.12-2.91-5.61-2.88-4.56,0-9.34-1.06-12,4.48-0.54,1.13-2.77,1.78-4.78.66-0.35-3.07-.65-6.33-1.1-9.56-0.87-6.3-2.07-7.17-10.59-7C96.91,351,96,356.09,95.81,361c-0.31,8.7-.6,8-8.31,11.75-5.21,2.57-11.11,2.21-17.66,5.1,7.8,3.45,13.88,6.53,22,3.72-8.1,17.79-19.6,30.19-37.83,37.59,7,3.44,12.62.33,17.08-1.38C85.53,412.31,92.3,399,99.31,385.11c5.69,6.81,10.57,12.62,15.4,18.46,9.57,11.57,20.66,20.71,36.17,22.86,2.67,0.37,6.09,3.93,7.81,0C160.05,423.37,157.47,420.09,154.6,418.09Z"/><path class="cls-2" d="M93.33,344.4c5.93,0.17,11.86.3,17.79,0.19,3.74-.07,6.93-1.82,9.92-4.06,1.7-1.27,3.26-2.4,2.37-4.72-0.74-1.94-2.67-1.63-4.25-1.73-12.5-.8-24.55,3.44-38,2.36C84.92,341.21,88.27,344.26,93.33,344.4Z"/><path class="cls-2" d="M141.48,1319.75c-0.8-4-.21-8.72-3.75-12-5.29-4.79-6.77-5.21-12.66-1.57-9.64,6-18,13.51-25.92,21.64-2,2-3.54,4.58-6.47,5.56-2.94-6.95,1.74-15.05-4.59-20.74-0.9,8.41-.79,16.7-1,25-0.07,3.19,1.42,5.14,4.11,5.93,2.9,0.86,4-1.69,5.09-3.71,0.49-.86.79-1.85,1.35-2.65,7.64-11,16.46-20.71,27.93-27.89,3.76-2.35,6.71-2.24,9.47,1.24,0.33,3.63.85,7.25,0.91,10.89,0,1.88-.28,4.12-2.92,4.48A3.58,3.58,0,0,1,129,1324c-1-1.91-2-4.13-5.39-3.57,1.84,8.28,1.18,16.56,1.43,24.81s-2.45,16.43-1.32,24.79c0.31,2.26.38,4.38,4.14,4.95l2-43.5C140.56,1332.6,143.48,1329.83,141.48,1319.75Z"/><path class="cls-2" d="M44.1,1347.33c7.23-5.9,11.44-13.93,15.74-21.84,3.16-5.81,6.44-11.56,10.78-16.51,6.21-7.07,6.41-6.9,1.28-15.56C63.15,1311.59,53.69,1329.46,44.1,1347.33Z"/><path class="cls-2" d="M65.32,1325.63c-0.65,9.22-1.28,17.48-1.79,25.75a55.76,55.76,0,0,0,.13,7c0.12,1.83,1.11,3.26,3,3.31,2.1,0.06,2.8-1.62,2.72-3.37q-0.71-15.23-1.65-30.46C67.72,1327.4,66.9,1327,65.32,1325.63Z"/><path class="cls-2" d="M105.07,1302.32c2.21-1.13,5.59-2.18,5-5.08-0.68-3.39-4.3-2.12-6.64-2-4.82.22-8.88,3.68-15.5,3.58C94.48,1303.35,99.45,1305.2,105.07,1302.32Z"/><path class="cls-2" d="M147.41,1040.38c-5.82-7.93-9.85-16.95-15.67-26.26l-1.11,19.34c-5.31-2.42-9.08-4.69-11.43-9.06-10.36-19.29-14-38.62-.53-58.07,2.78-4,2-7.28-1.15-10.56-3.9-4-8.16-4.65-14.24-.53-8.58,5.82-17.88,10.21-27.06,14.87-4.77,2.42-8.56,6.09-12.56,9.62-3.37,3-3.95,5-3.19,9.31,2.42,13.71,2.55,27.42-3.19,40.51-2.67-.36-1.1-3.29-3.21-3.55-1.08,4.83-2.86,9.57-2.24,14.68,0.32,2.63.62,5.86,3.27,6.72,3.18,1,4.66-2.3,5.7-4.48,2.27-4.76,4.67-9.47,5.57-14.86,1.78-10.65,3.53-21.28,2.8-33.83,3.7,3.49,9.63,1,9,7.57,1-1.06,2.44-1.48,3,0,1.45,3.62,1.16,6.9-3.05,8.72-1.79-2.49-.39-5.07-0.48-7.55h0c-5.31,3.26-6,9.38-8,14.34-1.51,3.73-.77,10.19,3.29,11.61,6.86,2.4,4.16,5.85,2.6,9.46-1.17,2.71-3.3,5-4.31,7.78-0.67,1.83-2.79,4.22.16,6.18,2.24,1.5,4.43.79,6.65,0,2.46-.92,3.57-3.1,4.25-5.25,1.91-6.05,6-6.25,11-4.51,2.49,0.87,4.88,2.21,7.68,1.67a6,6,0,0,0,4.56-3.44c0.76-1.79-1.22-2.75-2.29-4-3.31-3.77-7.68-3.24-12-3.42-3.61-.15-5.83-5.4-3-6.73,7.26-3.38,8.95-11.12,14.47-16.75a73.92,73.92,0,0,0,8.86,20.11c6.92,11.12,17,17.43,29.85,19.45,2.89,0.45,5.27,0,7-2.58S148.65,1042.07,147.41,1040.38Zm-69.59-16.24a2.47,2.47,0,0,1-1.58-.7c0.76-3,.4-6.5,3.84-8.1a2.59,2.59,0,0,1,.77.72C80.08,1018.86,81.6,1022.55,77.82,1024.14Zm14-9.34c-1.63,2-3.61,1.3-4.29-1.26-1.88-7.06.19-10.51,9.75-15.48C99.17,1005.42,95.61,1010.24,91.86,1014.8Zm7.47-23h0c0.14,3.2-.17,3.36-3.89,2h0c-2,1.64-4,3.36-6.16,4.9-0.94.68-2.21,1.82-3.24,0.11-0.72-1.2-.9-2.69.64-3.37,4.31-1.91,7.22-4.68,6.85-10.37-4.58-1.87-8.64-1-12.3,2.48-0.24.23-.45,0.49-0.7,0.71C70.32,997,70.3,997,63.59,984.33c11.9-8.08,26.55-9.56,39.61-17.46C103,976.38,100.45,984,99.33,991.76Z"/><path class="cls-2" d="M159.61,106.23c-3.9-.74-7.84-2-11.73-2-11,.25-21-3.42-30.73-7.46-5.81-2.4-11.61-4.74-17.56-6.73-2.06-.69-4.7-0.39-5.55-4,5.3-4,7.9-10.67,13.81-15.74-1.6,8.77-4.68,17.45,6.46,21.72a14.17,14.17,0,0,0,1.48-2.41c4.78-13.22,13.9-18.77,27.46-16.67,1.63,0.25,3.27.56,4.91,0.67,1.85,0.13,4.17,1.08,5.1-1.44,0.75-2.05-.48-3.86-1.63-5.51a5.87,5.87,0,0,0-5.1-2.59,49.61,49.61,0,0,0-10.79,1.23c-6.2,1.37-12.72,4.33-19-.19a12.35,12.35,0,0,1,7.69-8.68,38.5,38.5,0,0,0,6.14-3.22c2.92-1.84,3.39-5.36.49-6.24-6.56-2-5.54-6.82-4.85-11,1.52-9.18.63-18.57,2.83-27.67,0.61-2.53,1.24-5.7-1.21-7.44-2.77-2-5.64-.41-8.33,1.17s-5.42,3.74-9,3.83c-2,.05-2,0.38-1.08,4.17,4.65,2,8.8-1.21,13.84-1.3,1.38,8,.3,16-0.66,24-0.29,2.41-1.09,4.56-4.44,3.37s-1.38-3.19-.8-4.69c1.36-3.57,3-6.54-2.75-8.15-2.64-.74-0.73-4.73-1.57-7.13s-2.56-3.16-4.55-2.55-0.82,2.77-1,4.24c3.23,5.62,1.08,11.73,1.47,17.59,0.32,4.79-1.65,8.54-5.53,12C96.92,53.3,89.72,58.08,83.13,63.66c-2.62,2.21-7.47,4.37-4.78,8.51,2.29,3.52,6.65,1.39,10,0,5.31-2.24,10.33-5.26,17.47-6.72-4,4.63-6.91,8.24-10.08,11.59-4,4.19-6.69,10.39-14.15,9.28-1-.15-1.55.67-0.83,1.05,2.09,1.1,3.24,2.11,1,4.09a58.82,58.82,0,0,1-5.33,4.48c-2.68,1.81-4.77,4.75-8.64,4.43-1.55-.13-2.3,1-2.06,2.62,0.27,1.81,1.58,1.73,3,1.6A17.9,17.9,0,0,0,77,101.76c3.64-2.36,7.35-4.65,10.25-7.87,2.49-2.76,4.73-2.72,7.81-.92,8.31,4.86,16.9,9.25,25.18,14.17,12.15,7.24,25.25,9.19,39.06,7.91,2.26-.21,5.35.1,5.62-2.72C165.26,109.07,163,106.87,159.61,106.23ZM118.74,47c-0.84,3.62-3.35,5.27-6.66,6.62C110.89,47.6,115.52,47.9,118.74,47ZM101.93,61.87c-3.72,1-7.27,2.64-10.9,4a40.19,40.19,0,0,1,14.91-13.74C108.19,57.32,107.3,60.42,101.93,61.87Z"/><path class="cls-2" d="M80.71,606.47c7-2.65,16.32-3,24.49-7.42,1.84-1,3.21-2.4,2.56-4.73s-2.77-2.4-4.77-2.43c-3.94,0-6.62,2.66-9.69,4.48-5.34,3.15-10.59,6.57-17.2,6-0.86-.07-1.26-2.94-2.47-0.67-0.46.87,0.06,2.77,0.79,3.65C75.49,606.63,77.36,606.58,80.71,606.47Z"/><path class="cls-2" d="M87.62,584.17H98.14c-0.68,3.39-4.07,3.91-4.26,6.91,6.34-2,10.78-6.15,16-9a3.37,3.37,0,0,0,1.77-4.15c-0.52-1.88-2.16-2.34-3.84-2.59-4.79-.73-8.27,2-11.58,4.74-4,3.38-6.62,1.92-8.64-2.19-3.37-3.4-6.78-.89-10.14,0a2.65,2.65,0,0,0-1.12,1.32c4.55,5.06-2,8.55-2.6,13.43C80.85,592.76,84.83,589.44,87.62,584.17Z"/><path class="cls-2" d="M98.58,651c0.83,1.6,2.49,2.26,3.6,3.44,1.35,1.42,2.08,3.4,3.35,4.92,3.69,4.45,6.47,4.32,10.51-.41C111.84,653.11,106.65,649.71,98.58,651Z"/><path class="cls-2" d="M150.64,660a97,97,0,0,1-12-15.9c-1.78-2.84-4.56-4.28-8.85-7.41,3.63,8.61,6.42,15.24,5.79,22.65A22.11,22.11,0,0,1,114.73,637c0-8.55.53-17.3,4.48-25.29a31.77,31.77,0,0,0,2.48-5.43c0.57-2.08.08-3.62-2.65-4.21-4.88-1-9.08.6-13.45,2.27-10.58,4-19.54,12.35-31.8,12.05a9.39,9.39,0,0,0-4.65,1.46c-2.35,1.38-2.57,4-1.86,6.15,0.93,2.77,3.09,1.22,4.92.66s3.33-2.28,6.45-1.69c-0.07,3.09,4.51,6,1.16,9.54-2.84,3-6.6,5.7-11.42,3.42a4,4,0,0,0-.94-0.33c-1.3-.25-2.66-0.52-3.71.59-1.37,1.44-.93,3.22-0.24,4.66,1.37,2.87,3.82,4.87,7,4.67,3.78-.23,6.73,4.14,11.08,1.49a80,80,0,0,1-14.14,9.33c-4.89,2.5-10.07,4.41-15.18,6.61,1.86,4.22,5.2,3,8,3.09s5.14,0.42,4.82,4.39c-0.27,3.32,1.82,5.55,5.07,6.77,3.81-2.69,4.65-7,5.63-11.14-1.08-.47,1.23-5.28-2.73-2.1-1,.77-2.25,1.78-3.25.06a2.5,2.5,0,0,1,.65-3.52c3.32-2.11,6.77-4,10.32-6.13,4.17,5.16,3.44,9.53-1.23,13.54,1.77,2.79,3.44,5.65,5.37,8.33,0.93,1.29,2.12,3.1,3.9,2.64,2.16-.55,2.77-2.71,2.72-4.77a33.66,33.66,0,0,0-.7-7.89c-1-3.61-.62-7.28-1.15-10.87-0.61-4.12,1.39-5.65,4.9-7.26,5.09-2.34,10.43-.91,15.6-2.67l5.8,13.42,0.06,0.13c4.4,2.74,8.69,5.68,13.23,8.16,5.73,3.13,11.87,4.28,18.28,2.23C153.55,667.44,154.84,664.42,150.64,660ZM90.8,643.9c-1.36-.2-2-1.6-2.1-2.79,0-.44,1.24-1,2.15-1.72L93,642.67C92.27,643.11,91.46,644,90.8,643.9Zm17.89-1.35c-5.55-6.91-13.08-.77-19.08-5.25,1.29-3,3.68-5.17,5.78-7.55,1.27-1.45,3.32-2.94,1.88-5s-3.41-3-6-1.28c-1.07.73-2.65,4-3.62-.33-0.46-2.06-2.83-3.93.89-5.41,7.34-2.92,14.58-6.1,22.39-9.39C110.2,619.67,107,630.21,108.69,642.55Z"/><path class="cls-2" d="M62.46,788.44c-6.6-5.83-4.44-13.49-4-20.52,0.29-4.92,4.12-6.92,8.85-8,3.36-.74,2.5-3.67.69-5.41-5.18-5-11.06-5.17-18-1.31,5.89,3,6.14,3,5.56,7-1.11,7.64.07,15.28-.28,22.9-0.28,6.14,3.16,9.83,7.51,13.11,2.55,1.92,5,2,6.51-1.3,2.49-5.24,5.65-10.35,3.76-16.81C68.65,780.86,67.87,787,62.46,788.44Z"/><path class="cls-2" d="M57.08,723.09c6.78,1.3,2.42,5.26,2.17,9.14a25.24,25.24,0,0,1,13.3-.87c2.72,0.47,4-1.89,3.12-4.73-2-6.31-12.75-10.29-18.09-6.56C56.82,720.6,55.15,722.72,57.08,723.09Z"/><path class="cls-2" d="M138.56,726.2a11,11,0,0,0-2.87-.73c-4.52-.64-10.51.73-9.06-7.5,0.16-.91-2.69-2.73-4.42-3.51-3.5-1.58-6.35.31-8.72,3.74L112.3,711a6.32,6.32,0,0,1,1.77-.75c3.32-.28,7.78-0.18,7.21-4.66-0.52-4.06-5.15.14-7.26-1.72,0-3.73-.07-7.36,0-11a11.59,11.59,0,0,0-2.3-7.5c-2.61-3.35-6-2.56-8.69-.21-1.79,1.55-4.35,5.8-2.52,6.22,7.85,1.79,3.82,7.91,5,11.86,1.07,3.44-.23,6.15-4.74,7-4.68.87-9.15,2.91-13.7,4.44,4.54,1,8.81.85,13.06,1,2.07,0.08,4.92-1.07,5.54,2.46,0.53,3-1.56,4.12-3.72,5.09-5.57,2.51-11.17,5-16.7,7.4,6.81,6.87,13.55,1.76,20-.09,0.78,3.49-1,4.12-2.86,5.18-6,3.47-12.68,5.84-18.13,10.31-1,.82-2,1.79-3.47,1.09-4.31-2-5.55,2.27-8,4a3.27,3.27,0,0,0-.64,4.53,3,3,0,0,0,4.38.83c4-2.35,8.32-4.32,11.86-7.23a102,102,0,0,1,15.1-9.74c-0.2,10.71-.2,10.71-6.76,15.93,1.83,1.87,4.41-.26,6.56,1.35a51.21,51.21,0,0,1-4.08,23.06c-2.13,5.15-1,9.68,1.44,14.18,0.63,1.14,1.47,2.25,3.05,2,1.75-.29,2-1.83,1.76-3-1.16-5.38.75-7.85,6.37-8,2-.06,5.43.48,5.51-2.72,0.09-3.41-3.48-2-5.38-2.89-0.7-.31-1.91.54-2.3-2a14.31,14.31,0,0,0,3.45-2.56c4.35-5.52,4.09-6.93-1.5-11.22-8.31-6.38-8.29-6.8,1.1-12.24,1.65-1,3.06-2.7,6.11-2,4.59,15.15,2.34,30.8,2.83,45.87-5.13,1.84-8.3-2.42-12.94-1,3.9,4,7.19,7.24,10.29,10.63,1.67,1.83,3.51,3.3,6,2.83,3.4-.64,2.87-4.07,3.86-6.36a5.41,5.41,0,0,0,.2-3c-2.68-14.76-1.39-29.82-3.55-44.64-1.84-12.63-2.31-13.14-13.93-8.57-0.85.33-1.3,0.32-1.55-.55-0.55-7.46,3.73-10.83,10.37-11.93,5.58-.92,11.19-1.42,16.8.16,2.14,0.6,4.16-.27,4.66-2.5C142.54,727.94,140.39,727,138.56,726.2Zm-17.58.44c-2.9.64-4.84,4.55-8.46,2.54a1.82,1.82,0,0,1-.29-1.73c2.35-2.5,5.31-3.11,9.06-2.88A9.39,9.39,0,0,1,121,726.64Z"/><path class="cls-2" d="M159.46,273c-2.11-1.67-4.76-3.21-7.88-2.76,0.43,11.36.44,11.37-9.84,13.54-2.27.48-4.55,1-6.85,1.27-11.23,1.32-22.45,3.07-33.79,2.23-7.16-.53-10.35-3.52-11.76-10-1.7-7.9-1.24-8.87,6.43-13.31,1.09-.63,2.05-1.66,3.5-1.28,2.63,4.89-3.71,10.29.76,15.2,3.6-.83,4.82-4.48,7.65-6.11l-0.27-.27,0.29,0c0.44-4.48.8-9,1.35-13.42,0.79-6.43,6.94-7.88,11.06-12.88,0.61,8.45-1.57,14.83-4.31,21-1.52,3.44-3.94,5.84-8.1,5.26l0,0.24h0c6,6,7.53,6,13,.66,4.75-4.64,5.76-11.11,8.75-16.58,5.13-9.38,4.38-17.17-5.64-23.14-5.68,1.07-8.88,6.67-13.67,10.38-1.25-2.89-.2-5.14-0.07-7.37,0.23-4.26-3-5.67-5.84-7.17-1.55-.81-3.36,0-4.63,1.09-2.4,2.13,1,2.26,1.33,3.47,3.21,11.26.7,16-10.55,19.23-0.21-7.07-5.07-7.69-11-8.15a33.53,33.53,0,0,1,1.92,3.3c3.08,7.46,2.92,7.86-4.39,10.86-4.89,2-9.79,4-15.07,6.13A25.49,25.49,0,0,0,78,271.53c4,0.31,5.29,1.94,5.08,5.57-0.64,10.82,8,16.46,19.29,16.58a38,38,0,0,0,6.91-.65,95.66,95.66,0,0,1,24.83-1,56.61,56.61,0,0,0,22.64-2.21c3.24-1.06,6.39-2.41,7-6.29A11,11,0,0,0,159.46,273Z"/><path class="cls-2" d="M123.78,135.83c-5.15,1.13-11,2.05-14.92,5.11-7,5.44-12.14,4-17.61-1.47-0.2-.2-1.07.28-1.65,0.45a8.25,8.25,0,0,0,1.34,8.45c4.46,5.58,5,12,5,18.73,0,7.25.76,14.5,1.12,21.75a6.4,6.4,0,0,0,4.18,6.17,3.17,3.17,0,0,0,4.21-1.6c2.44-7.56,8.63-5.31,13.86-5.67,3.34-.23,5.73.4,6.19,4.5,0.52,4.72,4.39,6.06,8.82,7.68,2.16-5.36,4.22-9.63,3.54-14.45-1.54-11,0-21.76,2.57-32.49C142.4,144.64,132.09,134,123.78,135.83ZM109.59,180c-1.11-8.56-1.14-8.83,6.34-9.64,2.89-.32,4.81-1.67,7.37-3.74C124.14,178.75,124.14,178.75,109.59,180Zm15.32-27.92c-0.33,3.55-1.09,7.05-1.76,11.14-3.37-1.81-6-3.65-9-3.2-6.16.91-6.92-2.84-7.09-7.39,4.44-1.42,8.79-2.73,13.09-4.2C123.68,147.22,125.23,148.67,124.91,152.1Z"/><path class="cls-2" d="M131.26,916.25c-6.24-5.4-12.82-10.42-19.3-15.54-1.34-1.06-4.47-1-4.47-1,2.42,4.25,5.19,8.34,7.17,12.79,2.72,6.12,1.22,8.38-5.7,8.8a43.78,43.78,0,0,1-18.51-2.47c-7.22-2.71-12.7-7.5-18.61-13.18a11.23,11.23,0,0,0,3.49,8.74c14.31,13.81,37.78,17.38,54.53,9.52C134,922,134.6,919.14,131.26,916.25Z"/><path class="cls-2" d="M60.77,904.72c-5.14,7.19-5.87,13.19-3.23,19.63,0.88,2.14,3,2.59,5,1.87a2.57,2.57,0,0,0,1.25-4.05C60.51,917.45,61.82,912,60.77,904.72Z"/><path class="cls-2" d="M85.49,893.88a2.74,2.74,0,0,1,1.41-.72A26.91,26.91,0,0,1,99.34,890c4,0.06,7.67-1.36,11.46-2.27-0.36-2.44-2-4.75.58-7.26,2.08-2.05,3.41-4.88,5-7.4,2.65-4.18,2-9.3-1.78-13.21-3.4-3.52-6.9-2.92-10.67-.32-4,2.77-8,5.79-13.83,6.28,0.78-4.56-2.81-9.91,3.9-12,2-.62,4.28-1,4.41-3.17,0.15-2.64-1.94-4.27-4.5-4.39-3.82-.18-4-2.55-3.92-5.42,0.09-2.32-.14-4.66.05-7,0.47-5.55-2.34-9.05-7.32-10.2-3.44-.8-6.47-2.8-10.35-3.76,0.68,5.91,4.09,9.48,6.71,13.54,6.16,9.53,3.25,17.21-7.4,20-3.67,1-7.58,1.15-12.5,3.75a45.28,45.28,0,0,0,17.82.63c1.63-.23,3.47-0.45,4.51,1.16,2.48,3.86-.45,12.38-4.81,12.76-4.65.41-8.33,3.35-11.91,4.08-4.2-2.81-1.39-6.78-2.75-10.33-5.45,4.39-5,9-3,14a73.17,73.17,0,0,0,7.75,13.88c3.81,5.51,3.79,5.4,11,2.49A57.14,57.14,0,0,1,85.49,893.88Zm3.66-10.49c1.17-2.23-.86-6,3.91-6.65,2.61-.34,5.85-0.68,8.57-3.61-3.58-2.11-6.71-.5-10.46-2L104.42,866c-2.72,6.18.42,15.94-10.41,16a1.74,1.74,0,0,0-.84.32c0.56,2.58.39,4.76-3.06,4.18C88.36,886.25,88.5,884.61,89.14,883.39Zm-18.34,5.28c-0.41-.51-0.72-1.11-1.12-1.65-1.76-2.37-2-5.48-4.13-8.22,6.1-.73,11.27-2.41,17.74-5.06-2.76,6.3-9.56,4.41-11.1,9.26a9.1,9.1,0,0,0,5.91.18c1.94-.55,3.13-0.11,3.31,2.11,0.13,1.63.55,3.3-1,4.52C77.78,891.82,72.89,891.25,70.81,888.66Z"/><path class="cls-2" d="M99.29,898.47c-2.8,2.77-5,3.23-4.16-2.31,0.11-.68-2.07-0.44-4-0.23a3.53,3.53,0,0,1-1.53.15,5.78,5.78,0,0,0-.45.89c-2.27,7.42-1.5,10.53,3.21,12.56,6.21,2.67,7.36-2.74,9.18-6.25,1.38-2.67,2.69-4.33,5.82-3.59,0.61-1.29-2.19-2.62,0-4,4.35-2.68,8.87-4.55,14.05-3,2.53,0.75,4.9,2,7.65,1.86,1.32-.08,2.82-0.22,3.17-1.67s-0.54-2.47-1.87-3.1c-4.66-2.21-9.54-2.41-14.53-1.61C110.41,891.7,104.08,893.73,99.29,898.47Z"/><path class="cls-2" d="M133,1227.47c-0.86,0-1.31-.23-1.41-1.69,2.77-3.73,6.21-7.75,8.93-12.22,3-5,1.66-6.87-3.85-7.89-2.1-.39-4.49,1.94-6.23-0.55-0.26-1.94.67-3.37,1.48-4.8,2.55-4.49,7.9-8.79.32-13.69-0.79-.51-0.09-3.18-0.27-4.82-0.38-3.44,1-6.53,1.73-9.74,0.49-2,.5-4.12-1.53-5.28a4.86,4.86,0,0,0-5.6.74c-3.32,2.69-6.51,5.56-9.75,8.35,1.8,7,6.66,1.2,10,1.93a96.28,96.28,0,0,1-3.79,13.89l0,0.23h0.51c4.05,2.75,5,6.14,2.06,10.28-2.05,2.87-3.31,6.42-7,8.44-3.36-7.07,2.64-12.55,2.51-18.79l1.46,0c0.06-.5.13-1,0.23-1.49-0.21-5.8-3.54-9.3-8.86-10.49-3-.66-4.53.87-2,3.82,4.26,2.69,3.11,6.92,2.89,10.75s-1,7.86-1.26,11.8c-0.45,8.25-2.52,15.5-10.4,19.88-1.69.94-3,2.55-4.54,3.79s-2.15,2.66-.94,4.22,3.06,3,5.1,1.64c2.67-1.76,5-4,7.49-5.93,3.78,3.39,5,6.4.59,10-3.82,3.11-6.79,7.16-11.36,9.53-3.14,1.63-7.57,4.39-5.07,8.21,2.63,4,6.3.12,9.29-1.58,2.2-6.28,8-9.18,12.47-14,2.31,4.31-1,5.86-2.86,7.57-2.68,2.42-6,4.22-6.17,8.42l2.1,2c-0.14,5.58-.13,11.09,6.55,13.31,4.9,4.71,9.62,3.21,14.25-.45,10.35-8.17,14.95-19.28,15.85-32C146.71,1229.89,144.46,1227.74,133,1227.47Zm-15.46-.79c0.11-1.26.44-2.5,1-5.5,1.76,2.82,2.64,3.79,3,4.92,0.5,1.54.56,3.51-1.5,3.78S117.4,1228.47,117.55,1226.68Zm-3.44,41.4c-1.75-2.31-3-4.79-2.13-7.83,5.8-3,7.27-8.89,9.67-14.18,1.56-.39,2.55-2.35,4.36-1.83,2.88,0.83,1.64,3.21,1.35,4.88a38.91,38.91,0,0,1-2.09,6.52c-1.54,4.24-4.79,7.68-5.77,12.18C117.79,1269.34,116,1270.61,114.11,1268.08ZM142,1238.68a42.47,42.47,0,0,1-10.81,25.78c-1.75,1.92-3.85,3.52-5.79,5.27-2.08-.19-5.16,2.56-5.81-1.82,6.21-3.65,9.07-10.16,12.92-15.72a8.5,8.5,0,0,0-.57-10.26c-2.58-3.28-5.3-1-8.08-.34-1.2.29-2.6-.19-3.9-0.32,2.1-8.28,9.51-9.17,15.92-10.69C139.81,1229.67,142.46,1233.26,142,1238.68Z"/><path class="cls-2" d="M94,1206c2.69-2.84,3-6.55,4.1-10,1.41-4.38-.61-7.65-4.09-9-3-1.14-4.42-3-6.32-5.14-5.48-6.21-8.17-6.2-14.65-.77-1.33,1.11-4,1-3.75,3.84a20.68,20.68,0,0,1,4.62.29c1.76,0.5,4.33-.11,5,2.44,0.67,2.73-1.06,4.44-3.24,5.55-6.35,3.24-11.37,9.18-19.65,9.24,9.21,13.15,15.21-.09,22.51-2.66,1.2,5.5.95,9.26-5,11.38-3.91,1.4-6.5,5.55-11,7.18-3.15-6.05-9.13-8.15-15.22-11.53,2,5.47,4,9.35,8.47,12.59a18.51,18.51,0,0,1,7.48,17.48c-0.74,5.3-6.43,4.58-10.48,5.48a2.65,2.65,0,0,0-.82,1c9.82,3.13,17.19-2.55,24.84-7.52,1.76,5.43,2.22,12.36-.23,14-5.78,3.9-2.16,7.74-2,11.55,0.13,2.59,1.07,5.13,1.82,8.42,5-1.59,7.09-4.15,7.09-8.89,0-6.95.41-13.91,1.07-20.83,0.51-5.41-.28-11.34,4.85-15.43,1.65-1.32,2.58-3.64,1.55-5.41C87.76,1213.78,90.42,1209.81,94,1206Zm-16.22,21c1.3,4.19-4.39,6.27-7.8,8.3-0.94-.7-1.69-1-1.92-1.47-4.1-9.14-4.09-9.15,4-15.42,1.56-1.21,3.16-2.37,6.23-4.68C75.56,1219.43,76.48,1222.77,77.79,1227Zm8-21.46c-1.45-5.6-.86-10.11,4.34-14.44C89.89,1199.16,89.89,1199.16,85.78,1205.54Z"/><path class="cls-2" d="M93.07,1105.11c-7.09,3.12-9.88,11.13-16.36,15.07-3.16-7.63,4.19-9.33,6.48-13.6-6.43-4.64-7.8-9.65-3.1-15,2.08-2.37,3-4,1.75-6.65a7.71,7.71,0,0,0-8.22-4.34c-2.42.31-5.91,0.13-6.28,4.72-0.38,4.79-4.57,7.84-7.38,11.45-2.28,2.92-4.59,5.81-6.89,8.72,5.69-1.17,9.76-4.65,14.94-5.48,4,8.36,4.06,8.42-2.2,12.94a80.72,80.72,0,0,1-17.24,9.85c-2.52,1-4.77,3.68-8.17,1.77-1.75-1-3.91-1.05-4.7,1.68-0.85,3-1.22,6.14.95,8.54,1.56,1.72,3.92.36,5.54-.52,4.9-2.68,10.17-4.59,14.77-7.94,4-2.92,7.77-6.61,13.35-7.72-1,7.65-4.93,12.9-9.21,18-2.16,2.55-4.24,5-4.13,8.72,0.21,6.75,2.08,7.91,8.71,5,0.3,2.29,2.23,3.69,3.2,5.62,0.9,1.77,1.79,3.81,4.38,3.06,2.27-.66,2.81-2.47,2.75-4.67-0.17-5.64-.08-11.29-0.39-16.93a16.29,16.29,0,0,1,3.26-11C83.77,1119.43,87.86,1112,93.07,1105.11ZM65.86,1149.9c0,0.08,0,.17.05,0.25l-0.28-.23,0.22,0c-0.2-.86-0.63-1.82-0.36-2.5,0.79-2,1.45-4.18,3.82-5.89C69.64,1145.27,72.19,1149.38,65.86,1149.9Z"/><path class="cls-2" d="M100.45,472.49c3.38-6.65,3-9.71-2.44-13.27-3.44-2.24-5.34-4.6-5.66-8.49-0.42-5.27-4.43-6.59-8.45-6.41-6.43.3-12.81,1.53-20.6,2.55,4.83,4.57,9.77,6.1,14.41,8.22,4.24,1.94,4.56,4.32.85,7.23s-7.49,5.44-13.41,6.58c2-6.8-2-9-7.89-10.14,4,15.55,5.24,31.3,6.58,47a258.33,258.33,0,0,0,.25,27.06C74.62,525.58,80.78,516.33,89.5,510c1.75,2,3.92,3.31,5.54.36,1.11-2,3.51-4.72.35-7C93.1,501.6,91,499.69,92,496.8,94.92,488.72,96.52,480.23,100.45,472.49Zm-13,33.34L68.72,523.88c-3.37-6-1.87-12-2.68-17.64,4-.22,7.35-2.09,10.8-4s6.67-4,11-3.7C89.77,501.1,86.94,503.43,87.48,505.83Zm-4.37-25.57c-4.4.57-7.6,6.44-13.18,7.09,6.63,4.78,11-1.83,17.07-2.62,1.25,2.7,1.33,6.78-1.5,6.92-6.69.35-8.49,6.08-12.63,9.13A55.82,55.82,0,0,1,67,504c-2.18-8.67-.71-16.86-1-24.93-0.06-1.44.63-2.77,2.21-2.67C77.27,477,83,469.64,92,466.28,91,473.21,92.15,479.1,83.11,480.26Z"/><path class="cls-2" d="M142,516.47a22.06,22.06,0,0,0-.53-2.93c-2.61-10-3-20.27-3.84-30.44s-1.66-20.59,2.79-30.35c1.09-2.4.21-3.47-1.81-4.66-3.83-2.26-7.22-2.61-10.88.52a59.39,59.39,0,0,1-18.78,10.65c7.85,1.95,13.84,1.43,19.82-1.23,1.55,4.32,1.92,7.45-3.31,8.63a25.83,25.83,0,0,0-6.36,2.74c-3.73,2-4.54-.88-5.74-3.21-2,.6-1.45,2.55-2.12,3.86,0.22,14.6,1.31,29.37-9.84,41.33-0.88.95-.54,3.18-0.51,4.81,0,2,.18,4.16,2.5,4.87,3.11,0.95,3.88-1.46,4.74-3.66,3.69-9.5,7-19.08,7.78-29.35,5.29-4.07,9.88,1.88,15.14,1.31,1.42-.16,2.42,4.94,2.27,8-0.09,2,0,3.94,0,6.18-5.89-1.41-6.86-9.16-13.05-9.78,5.12,8,12.14,14.94,14.18,24.82,0.45,2.17.59,6.35,4.32,5.38C141.92,523.14,142.35,519.64,142,516.47Zm-13.84-34.66c-2.23.57-4.37,1.51-6.6,2.13-2,.56-4.21.66-5-1.68-0.68-2.06-1.56-4.47,1-6.25,2.76-1.94,5.41-4.24,8.13-.78,2.69-1.15,5.05-2.84,5.56,1.25C131.52,479,131.09,481.07,128.13,481.82Z"/><path class="cls-2" d="M143.46,1107.36c2.31-9.28-2.85-14.94-12.39-13.25-4.47.79-8.79,2.85-13,4.76-2.69,1.22-5,3.2-8.17,3.29-6.5,4.56-3.21-2.71-4.85-4-2.52-.46-5.11-1.63-7.81,1.22,5,1.77,4.08,5.73,3.83,9.6-0.61,9.65.58,19,5.54,27.52,2.17,3.74,3.47.9,5-.5,0.47-5-4.16-8.58-4.18-14.78,4.31,2.29,10.59,1.46,5.82,8.67-1.14,1.72.31,3.8,0.63,5.7,1.6,0.24,3.34,1.07,4.76-.17,5.37-4.71,10.84-8.23,18.63-5.64,2.49,0.83,3.54-2.41,1.8-3.76-3.78-2.92-2.72-5,0-7.71C142.05,1115.31,142.52,1111.14,143.46,1107.36Zm-7.46,1.19c-0.75,2.7-2.13,4.2-4.94,3.32-5.93-1.86-11,.29-16.14,2.87-8,4-9.19,3.32-9.71-5.73a18.17,18.17,0,0,1,.66-3.58c12.06,5.8,12,5.78,21.37-2.67a48,48,0,0,1,4.75-3.59c1.14-.8,2.36-1.14,3.5.07C138.3,1102.21,136.89,1105.33,136,1108.55Z"/></g></svg>