<svg id="图层_1" data-name="图层 1" xmlns="http://www.w3.org/2000/svg" xmlns:xlink="http://www.w3.org/1999/xlink" viewBox="0 0 300 300"><defs><style>.cls-1{fill:url(#新建渐变色板_1);}</style><linearGradient id="新建渐变色板_1" x1="150" y1="306.35" x2="150" y2="6.11" gradientUnits="userSpaceOnUse"><stop offset="0" stop-color="#fff"/><stop offset="1" stop-color="#818181"/></linearGradient></defs><title>主站</title><path class="cls-1" d="M64.35,44.4q30.9-12.6,64.5-36.3a178.92,178.92,0,0,1,13.8,15.75q7.2,9.15,7.2,11.7T147.6,38.1a29.13,29.13,0,0,1-6.15-.9,34,34,0,0,0-7.65-.9,23.17,23.17,0,0,0-7.35,1.2,431.82,431.82,0,0,1-62.1,13.8l-0.9,42h44.4l7.5-10.5q1.5-1.8,2.7-1.8t14.4,7.8q13.2,7.8,13.2,10.05t-10.8,8.55v46.8l0.6,17.4a5.44,5.44,0,0,1-.75,3.15q-0.75,1.05-5.55,3.6a103.26,103.26,0,0,1-10.5,4.8q-5.7,2.25-7.05,2.25t-1.35-3.6v-8.7H60.75q-1.8,36.9-13,60.45T12.15,285.3l-3.6-3q17.1-31.5,24-62.7t6.9-87.75q0-56.55-3-101.25A239.84,239.84,0,0,1,64.35,44.4Zm45.9,120.3v-63H63.15q-0.6,28.2-2.1,63h49.2Zm71.1-110.1q25.2-6.9,72.9-40.5,21.6,25.5,21.6,28.2t-4.95,2a55.76,55.76,0,0,0-7.8-.75,31.59,31.59,0,0,0-8.55,1.8Q223,55.5,183.15,60.9q-0.3,27.9-1.8,56.4h66l12.3-16.8q2.7-3.9,5.1-3.9t14.55,12.9q12.15,12.9,12.15,15.6,0,1.5-5.4,1.5H242V244.5q0,14.7.3,20.4l0.3,10.8a5.06,5.06,0,0,1-2.4,4.35q-2.41,1.65-10.8,4.8T218.25,288q-2.7,0-2.7-3.3V126.6h-34.8q-4.2,80.7-19.2,109.65T103,291.9l-3.9-4.8q27.29-27,38.7-49.8t15.3-59.85a679.33,679.33,0,0,0,3.9-71q0-33.9-1.8-64.8Q170.84,48.6,181.35,54.6Z"/></svg>