<svg id="图层_1" data-name="图层 1" xmlns="http://www.w3.org/2000/svg" xmlns:xlink="http://www.w3.org/1999/xlink" viewBox="0 0 300 300"><defs><style>.cls-1{fill:url(#新建渐变色板_1);}</style><linearGradient id="新建渐变色板_1" x1="150" y1="306.35" x2="150" y2="6.11" gradientUnits="userSpaceOnUse"><stop offset="0" stop-color="#fff"/><stop offset="1" stop-color="#818181"/></linearGradient></defs><title>主站</title><path class="cls-1" d="M70.2,79.65a359.48,359.48,0,0,1-40.8,59.7l-5.7-4.8q30-50.4,44.4-125.1,12.3,4.8,22.65,9.6T102.6,25.2a4.61,4.61,0,0,1,1.5,3.6q0,2.25-6,3.45t-9.6,9.9q-3.6,8.7-13.2,27.9h46.5l12-15a6.14,6.14,0,0,1,4.95-2.7q2.85,0,15.3,11T166.5,76.95q0,2.7-6,2.7H115.8q-0.3,40.2-3.3,64.2h15.6l10.8-14.1q2.7-3.6,5.4-3.6t13.5,11.1q10.8,11.1,10.8,14.25t-5.1,3.15H111.6q-2.1,25.2-4.2,33.9,33,23.4,44.1,35.55t11.1,24q0,11.85-5.25,18.45t-9.15,6.6q-6.9,0-9.6-10.2a161.29,161.29,0,0,0-33.3-66.3,117.48,117.48,0,0,1-24.9,47.4q-17.7,20.4-59.1,46.5l-4.8-6.3q39.3-31.5,53.4-57.15t18.3-72.45H39.9a48.71,48.71,0,0,0-12.9,1.5l-5.1-13.8a65.31,65.31,0,0,0,15,1.5H89.4q2.4-23.7,2.4-64.2H70.2Zm131.4-20.1h40.2l9.3-11.1q2.09-2.4,3.75-2.4t6.6,3.15q4.95,3.15,11.55,8.1t8.55,6.75c1.3,1.2,1.95,2.2,1.95,3q0,3.3-11.4,9v159q0,13.2.3,18.6l0.3,9.9q0,2.7-2.85,4.8T258.6,274.2q-8.4,3.75-10,3.75c-1.1,0-1.65-1-1.65-3v-38.7H196.5v30.9q0,3.9-2.4,5.7t-11,5.1q-8.55,3.3-11,3.3-1.5,0-1.2-2.4,1.5-15,1.5-30.3V67.65q0-12.6-.9-25.5A194,194,0,0,1,201.6,59.55Zm45.3,165.9V70.35H196.5v155.1h50.4Z"/></svg>