<svg id="图层_1" data-name="图层 1" xmlns="http://www.w3.org/2000/svg" xmlns:xlink="http://www.w3.org/1999/xlink" viewBox="0 0 300 300"><defs><style>.cls-1{fill:url(#新建渐变色板_1);}</style><linearGradient id="新建渐变色板_1" x1="150" y1="306.35" x2="150" y2="6.11" gradientUnits="userSpaceOnUse"><stop offset="0" stop-color="#fff"/><stop offset="1" stop-color="#818181"/></linearGradient></defs><title>主站</title><path class="cls-1" d="M59.42,30h167.7l7.8-13.8q1.8-3,4.2-3t16.65,10Q270,33.3,270,36.6t-12,6.6V246.3q0,15.6-3.15,22.5T239,282q-12.75,6.3-16.65,6.3-2.1,0-3.3-4.5-3.6-13.2-10.8-18.3t-31.5-11.7l0.9-6.6q31.5,5.4,40.5,5.4t11.1-3.3q2.1-3.3,2.1-12.3V38.7h-174V273a5.64,5.64,0,0,1-.6,3q-0.6.9-5.85,3.9a70.47,70.47,0,0,1-11.7,5.25q-6.45,2.25-8,2.25T30,284.7a333.75,333.75,0,0,0,1.8-38.4V38.4q0-15-.6-26.7Q43.22,16.5,59.42,30Zm46.5,89.7q7.8-26.7,14.4-58.2a166.36,166.36,0,0,1,20.1,10.2q7.2,4.5,8.55,5.85a4,4,0,0,1,1.35,2.85q0,2.7-3.9,3.9a10.7,10.7,0,0,0-6.15,5Q138,93,132,108.75T119.72,138q22.5,32.1,22.5,54a26.29,26.29,0,0,1-5.55,15.9q-5.55,7.5-8.85,7.5-5.4,0-6.9-10.8-3.3-25.2-11.4-45-21.3,42.3-42.9,66.6l-4.2-6q22.8-34.5,37.8-81Q90.33,119.7,66,84.3l4.2-3.3A514.32,514.32,0,0,1,105.92,119.7Zm72,0.6a515.13,515.13,0,0,0,13.2-55.8q31.5,16.8,31.5,22.2,0,2.1-4,3.45a15.08,15.08,0,0,0-7,5.1q-3,3.75-8.1,17.25T192,139.8q27,40.8,27,61.2a23.46,23.46,0,0,1-4.5,13.65Q210,221.1,206,221.1t-6.75-9.6a506.39,506.39,0,0,0-17.1-50.7,314.38,314.38,0,0,1-50.7,72.9l-3.6-4.2q26.1-38.09,44.4-91.8A430.62,430.62,0,0,0,147,91.5l5.4-2.1Q166.22,105.6,177.92,120.3Z"/></svg>