<svg id="图层_1" data-name="图层 1" xmlns="http://www.w3.org/2000/svg" viewBox="0 0 348.26 228.17"><defs><style>.cls-1{fill:none;stroke:#fff;stroke-miterlimit:10;stroke-width:3px;}.cls-2{fill:#fff;}</style></defs><title>主站</title><rect class="cls-1" x="91.12" y="1.5" width="126" height="126"/><polygon class="cls-1" points="3 150.83 132.45 76.1 132.45 225.57 3 150.83"/><circle class="cls-1" cx="244.88" cy="119.75" r="76.24"/><path class="cls-2" d="M52.36,44.64c20,1.06,39.41-4.66,58.07-7.9,15.5-3.12,20.75-3.45,30.75-3.43,2.23,0,7,1.25,8.2,2.86,1,1.35,1.83,4.65.11,5.94-1.23.92-5.4,2.48-7,2.23-15.64-3.67-40.12,2.91-55.62,6.26-8.78,2.19-11.3,2.45-18.59,1.81C60.15,51.7,57.66,50.55,52.36,44.64Z"/><path class="cls-2" d="M258.41,124.37c8.46,2.89,15.7-.91,23.38-3.42,14.94-4.88,30.22-8.69,45.49-12.4,4.23-1,9.19-.32,13.54.72,6.26,1.5,6.56,2.89,7.46,11.16-4.94,1.38-9.65,2-14.31-.69-4.47-2.55-11.2-1.3-16.38-.47a129.49,129.49,0,0,0-21.12,5.56c-7.07,2.43-11.69,5.1-18.68,7.76-1.92.73-3,1.76-5.16,0.38C268.25,130.13,263,126.84,258.41,124.37Z"/><path class="cls-2" d="M11.38,180.37s15.87,2.25,38.75-3.62c22.6-5.8,28.12-6.85,42.95-14.83a1.22,1.22,0,0,1,1.11,0l17.74,8.72a1.21,1.21,0,0,1,.49,1.72l-2,3.27a1.21,1.21,0,0,1-1.11.57c-3.91-.28-23.53-1.1-52.85,7.63a35,35,0,0,1-9.88,1.45C40.06,185.28,28.52,184.48,11.38,180.37Z"/></svg>