<?xml version="1.0" encoding="utf-8"?>
<!-- Generator: Adobe Illustrator 19.2.0, SVG Export Plug-In . SVG Version: 6.00 Build 0)  -->
<svg version="1.1" id="图层_1" xmlns="http://www.w3.org/2000/svg" xmlns:xlink="http://www.w3.org/1999/xlink" x="0px" y="0px"
	 viewBox="0 0 350.3 230.9" style="enable-background:new 0 0 350.3 230.9;" xml:space="preserve">
<style type="text/css">
	.st0{fill:none;stroke:#FFFFFF;stroke-width:5;stroke-miterlimit:10;}
	.st1{fill:#FFFFFF;}
</style>
<title>主站</title>
<g>
	<rect x="93.1" y="2.5" class="st0" width="126" height="126"/>
	<polygon class="st0" points="5,151.8 134.5,77.1 134.5,226.6 	"/>
	<circle class="st0" cx="246.9" cy="120.8" r="76.2"/>
	<path class="st1" d="M54.4,45.6c20,1.1,39.4-4.7,58.1-7.9c15.5-3.1,20.7-3.5,30.7-3.4c2.2,0,7,1.2,8.2,2.9c1,1.3,1.8,4.7,0.1,5.9
		c-1.2,0.9-5.4,2.5-7,2.2c-15.6-3.7-40.1,2.9-55.6,6.3c-8.8,2.2-11.3,2.5-18.6,1.8C62.2,52.7,59.7,51.5,54.4,45.6z"/>
	<path class="st1" d="M260.4,125.4c8.5,2.9,15.7-0.9,23.4-3.4c14.9-4.9,30.2-8.7,45.5-12.4c4.2-1,9.2-0.3,13.5,0.7
		c6.3,1.5,6.6,2.9,7.5,11.2c-4.9,1.4-9.6,2-14.3-0.7c-4.5-2.6-11.2-1.3-16.4-0.5c-7.2,1.3-14.2,3.1-21.1,5.6
		c-7.1,2.4-11.7,5.1-18.7,7.8c-1.9,0.7-3,1.8-5.2,0.4C270.3,131.1,265,127.8,260.4,125.4z"/>
	<path class="st1" d="M13.4,181.4c0,0,15.9,2.2,38.8-3.6c22.6-5.8,28.1-6.9,43-14.8c0.3-0.2,0.8-0.2,1.1,0l17.7,8.7
		c0.6,0.3,0.8,1,0.5,1.6c0,0,0,0.1-0.1,0.1l-2,3.3c-0.2,0.4-0.7,0.6-1.1,0.6c-3.9-0.3-23.5-1.1-52.9,7.6c-3.2,1-6.5,1.4-9.9,1.4
		C42.1,186.3,30.5,185.5,13.4,181.4z"/>
</g>
</svg>
