<?xml version="1.0" encoding="utf-8"?>
<!-- Generator: Adobe Illustrator 19.2.0, SVG Export Plug-In . SVG Version: 6.00 Build 0)  -->
<svg version="1.1" id="图层_1" xmlns="http://www.w3.org/2000/svg" xmlns:xlink="http://www.w3.org/1999/xlink" x="0px" y="0px"
	 viewBox="0 0 470 401.7" style="enable-background:new 0 0 470 401.7;" xml:space="preserve">
<style type="text/css">
	.st0{fill:#333333;}
</style>
<g>
	<path class="st0" d="M308,36.6l2.3-3c17.9,3.9,39.4,10.8,33.7,31.4l-12.1,4.8C324.3,55.9,317.4,46,308,36.6z"/>
	<path class="st0" d="M95.4,379c9.2-7.1,26.5-19.3,36.2-21.2c35.8-27.6,78.1-67,98.5-89.9h-78.4l-1.5-5.6h81.1l13.3-11.6
		c4.7,3.9,13.7,11.8,17.1,16.7l-14.3,9.4c-24.6,22.9-69.1,58-107.7,83.1c3.9,1.9,8.1,4.9,13.3,8.1c10.5,7.1,24.6,14.3,43.7,15.2
		c24.6,1.1,55.7,0.6,85.2-1.7l0.6,3.4c-5.6,2.8-13.1,10.7-14.6,15.8c-23.3,0.4-48,0.6-73-2.1c-22.3-2.4-36.6-13.3-46.5-22.3
		c-5.8-5.1-10.3-9.2-14.1-9.8c-5.8,2.1-20.8,21.8-24.8,28.3h-2.8L95.4,379z"/>
	<path class="st0" d="M313.8,281l-2.2,1.8l0.6,3.8c-4.9,8.6-17.9,25.3-31.7,36.7l1,1.4c19.2-9.5,34.3-24.4,44.1-36.7L313.8,281z"/>
	<path class="st0" d="M427.9,311.5c-13.3-17.3-35.4-38.6-55.3-51.7l1.7-3.5c31.1,8.8,65.7,24.6,61.7,51.5L427.9,311.5z"/>
	<g>
		<path class="st0" d="M75.7,148.2l-1.6-6.1h359.2l12.8-15.8c6.5,4,18.6,13.5,24,18.9l-2.6,3H75.7z"/>
	</g>
	<path class="st0" d="M200.9,53.6l-13.1,12.8h-2.5h-42.6h-23H75.1l2.2,7.5h41.4h22.7h18.8h32.6l0.1,51.1H215L214.9,81l7.8-7.8
		C218,67.3,207.1,57.9,200.9,53.6z"/>
	<g>
		<path class="st0" d="M117.7,215.8H96.6v-45.1l-5.4-5.4v-5.4h26.6V215.8z"/>
	</g>
	<g>
		<path class="st0" d="M301.8,235.1l-1.3-5h76.9L388,217c5.4,3.3,15.4,11.2,19.8,15.6l-2.1,2.5H301.8z"/>
	</g>
</g>
</svg>
