<?xml version="1.0" encoding="utf-8"?>
<!-- Generator: Adobe Illustrator 19.0.0, SVG Export Plug-In . SVG Version: 6.00 Build 0)  -->
<svg version="1.1" id="图层_1" xmlns="http://www.w3.org/2000/svg" xmlns:xlink="http://www.w3.org/1999/xlink" x="0px" y="0px"
	 viewBox="0 0 100 85" style="enable-background:new 0 0 100 85;" xml:space="preserve">
<style type="text/css">
	.st0{fill:#006EC3;}
	.st1{clip-path:url(#XMLID_2_);}
	.st2{fill:#FFFFFF;}
</style>
<g id="XMLID_34_">
	<path id="XMLID_53_" class="st0" d="M7.1,21.8c-7,8.9-8.8,19.5-5.5,31.8C5.1,67,12.3,76.1,23,81c10.7,4.9,23.6,5.3,38.6,1.3
		c15-4,25.7-10.6,32.1-19.8c6.4-9.2,7.9-20.4,4.4-33.5C94.9,17,87.8,8.7,76.7,4C65.7-0.7,53.5-1.3,40.3,2.3
		C25.1,6.4,14.1,12.9,7.1,21.8z"/>
	<g id="XMLID_56_">
		<defs>
			<path id="XMLID_33_" d="M7.1,21.8c-7,8.9-8.8,19.5-5.5,31.8C5.1,67,12.3,76.1,23,81c10.7,4.9,23.6,5.3,38.6,1.3
				c15-4,25.7-10.6,32.1-19.8c6.4-9.2,7.9-20.4,4.4-33.5C94.9,17,87.8,8.7,76.7,4C65.7-0.7,53.5-1.3,40.3,2.3
				C25.1,6.4,14.1,12.9,7.1,21.8z"/>
		</defs>
		<clipPath id="XMLID_2_">
			<use xlink:href="#XMLID_33_"  style="overflow:visible;"/>
		</clipPath>
		<g id="XMLID_44_" class="st1">
			<path id="XMLID_50_" class="st2" d="M33,77c0,0,0-0.1,0-0.2l-7.1-27.3c-1-4.1-4.2-4.4-6.1-4.4c-1.9,0-5,0.4-6.1,4.4L6.6,76.7
				c0,0.1,0,0.2,0,0.2c0,0.4,0.3,0.7,0.8,0.7h4.6c0.4,0,0.7-0.3,0.8-0.7l2-8.3h10l2,8.3c0.1,0.4,0.4,0.7,0.8,0.7h4.6
				C32.6,77.7,33,77.4,33,77z M23.6,63.7h-7.7l3.1-12.9c0.1-0.5,0.3-0.7,0.7-0.7c0.4,0,0.6,0.2,0.7,0.7L23.6,63.7z"/>
			<path id="XMLID_47_" class="st2" d="M56.7,55.4V55c0-7.7-5.8-10.1-12.5-10.1c-3.2,0-6.2,0.2-8.5,0.6c-0.9,0.1-1.4,0.4-1.4,1.3v30
				c0,0.5,0.4,0.9,0.9,0.9h4.3c0.5,0,0.8-0.4,0.8-0.9V65.4c1,0,2.7,0.2,3.8,0.2C50.9,65.6,56.7,63.1,56.7,55.4z M50.7,55.4
				c0,3.5-1.8,5.2-6.5,5.2c-0.7,0-3.2-0.1-3.8-0.1V50.1c0.8-0.1,2.9-0.2,3.8-0.2c4.3,0,6.5,1.4,6.5,5.1V55.4z"/>
			<path id="XMLID_45_" class="st2" d="M86,77V46.7c0-1-0.8-1.8-1.7-1.8h-3.6c-0.7,0-1.3,0.4-1.6,1.1l-6.6,13.5
				c-0.2,0.4-0.3,0.6-0.5,0.6s-0.3-0.2-0.5-0.6L65,46c-0.3-0.6-0.9-1.1-1.6-1.1h-3.6c-1,0-1.7,0.8-1.7,1.8V77c0,0.4,0.3,0.7,0.7,0.7
				h4.4c0.4,0,0.7-0.4,0.7-0.9V56.3c0-0.3,0-0.4,0.1-0.4c0,0,0.1,0.1,0.2,0.3l4.2,8.4c0.3,0.5,0.8,0.7,1.4,0.7h4.4
				c0.6,0,1.1-0.3,1.4-0.7l4.2-8.4c0.1-0.1,0.2-0.3,0.2-0.3c0.1,0,0.1,0.1,0.1,0.4v20.5c0,0.4,0.3,0.9,0.7,0.9h4.4
				C85.6,77.7,86,77.5,86,77z"/>
		</g>
		<g id="XMLID_35_" class="st1">
			<path id="XMLID_40_" class="st2" d="M39.1,26.4v-5.2c0-9.7-5.3-13.7-12.5-13.7S14,11.4,14,21.1v5.2c0,9.7,5.3,13.7,12.5,13.7
				S39.1,36.1,39.1,26.4z M33,26.4c0,5.8-2.1,8.4-6.4,8.4s-6.4-2.6-6.4-8.4v-5.2c0-5.8,2.1-8.4,6.4-8.4s6.4,2.6,6.4,8.4V26.4z"/>
			<path id="XMLID_38_" class="st2" d="M66.3,38.3V8.2c0-0.5-0.3-0.8-0.8-0.8h-3.7c-0.5,0-0.8,0.4-0.8,0.8v23.2
				c0,0.3-0.1,0.4-0.2,0.4c-0.1,0-0.3-0.1-0.3-0.4L50.2,8.8c-0.5-1.1-1-1.4-1.9-1.4h-4.7c-1,0-1.7,0.8-1.7,1.8v30.1
				c0,0.5,0.4,0.9,0.9,0.9h3.7c0.5,0,0.8-0.4,0.8-0.9V17.1c0-0.3,0.1-0.4,0.2-0.4c0.1,0,0.3,0.1,0.4,0.4l9.6,21.4
				c0.7,1.6,1.6,1.6,2.6,1.6h4.4C65.5,40.1,66.3,39.3,66.3,38.3z"/>
			<path id="XMLID_36_" class="st2" d="M89.3,38.6v-2.8c0-0.5-0.4-0.9-0.9-0.9h-9c-2.6,0-3.5-0.9-3.5-3.8v-5.3h12
				c0.5,0,0.9-0.4,0.9-0.9v-3.2c0-0.5-0.4-0.9-0.9-0.9h-12v-4.4c0-2.9,0.9-3.8,3.5-3.8h9c0.5,0,0.9-0.4,0.9-0.9V8.9
				c0-0.6-0.2-0.8-0.9-0.9C87,7.8,85.3,7.4,80,7.4c-5.8,0-10.2,1.5-10.2,9v14.7c0,7.5,4.5,9,10.2,9c5.3,0,7-0.4,8.4-0.6
				C89.1,39.4,89.3,39.2,89.3,38.6z"/>
		</g>
	</g>
</g>
</svg>
