<svg id="图层_1" data-name="图层 1" xmlns="http://www.w3.org/2000/svg" xmlns:xlink="http://www.w3.org/1999/xlink" viewBox="0 0 300 300"><defs><style>.cls-1{fill:url(#新建渐变色板_1);}</style><linearGradient id="新建渐变色板_1" x1="150" y1="287" x2="150" y2="-5.03" gradientUnits="userSpaceOnUse"><stop offset="0" stop-color="#fff"/><stop offset="1" stop-color="#818181"/></linearGradient></defs><title>主站</title><path class="cls-1" d="M56.4,132.45a290.28,290.28,0,0,1-43.5,47.4l-3.3-3.3q27.9-39.6,45.15-78T84,10.95q29.4,12.9,34.5,15.75t5.1,6q0,3.15-7.5,3.15-4.2,0-6.15,2T96.45,63.75a411.93,411.93,0,0,1-21.75,40.2,41.37,41.37,0,0,1,9.9,3.75q4.8,2.55,4.8,4.35t-7.8,5.1v156.9a7.28,7.28,0,0,1-3.15,6q-3.15,2.4-11,5.4t-10,3c-1.5,0-2.25-1-2.25-3l0.6-18.3q0.6-20.41.6-34.8v-99.9Zm78.6,10.8q32.7,13.5,32.7,18.6,0,2.41-5.55,3t-10.35,9Q124.2,224,88.8,254l-3-3.6A405.63,405.63,0,0,0,135,143.25Zm20.7-57.3a279.68,279.68,0,0,1-22,33.75Q123,133.35,101.4,155.25l-4.5-3.6q24.9-38.1,37.2-67.05t21.3-71.25q39.3,14.4,39.3,20.1,0,2.7-6.6,3.9-9,1.51-11,6.75T161.7,75.15H243l7.5-11.4q2.1-3,3.9-3,2.4,0,19.2,11.1t16.8,17.4a4.14,4.14,0,0,1-1.8,3.45,7.82,7.82,0,0,1-4.8,1.35l-5.4-.3q-8.4,0-17.25,7.2t-26,28.8l-4.8-3q9.29-23.7,14.7-40.8H155.7Zm23.1,13.5q19.2,4.8,28.05,8.7t8.85,6q0,2.4-9.3,6.6V260q0,13.5-13.5,21.3t-19.5,7.8q-3.6,0-4.5-4.8-1.8-9.9-10.8-15.75T132,256.35l0.9-6.3q27.6,5.1,35.25,5.1t9.45-2.1q1.8-2.1,1.8-7.5V126.15Q179.4,111.15,178.8,99.45Zm43.5,46.5q24.6,27,38.85,46.05t14.25,30a35.08,35.08,0,0,1-5.7,19.65q-5.7,8.7-13.8,8.7a5.62,5.62,0,0,1-5.25-2.85q-1.65-2.85-4.5-20.1a188.26,188.26,0,0,0-10-36.15,382.4,382.4,0,0,0-18.3-40.2Z"/></svg>