<svg id="图层_1" data-name="图层 1" xmlns="http://www.w3.org/2000/svg" xmlns:xlink="http://www.w3.org/1999/xlink" viewBox="0 0 300 300"><defs><style>.cls-1{fill:url(#新建渐变色板_1);}</style><linearGradient id="新建渐变色板_1" x1="150" y1="287" x2="150" y2="-5.03" gradientUnits="userSpaceOnUse"><stop offset="0" stop-color="#fff"/><stop offset="1" stop-color="#818181"/></linearGradient></defs><title>主站</title><path class="cls-1" d="M76.2,27.75H233.4l5.4-9q1.8-3,3.3-3t12,4.95A148.73,148.73,0,0,1,268.35,28q3.75,2.4,3.75,4.65t-10.8,8.55v36.6l0.9,14.7a3.38,3.38,0,0,1-1.95,3.15,84.13,84.13,0,0,1-10.65,3.75q-8.7,2.7-11.4,2.7t-2.7-3.3v-8.4H68.4q-2.7,67.5-6.75,96.15t-14.7,50.85q-10.65,22.2-33.15,46.5l-4.2-3.9a228.6,228.6,0,0,0,19.35-41.7q7-20.7,10.5-61.65T42.9,85.8q0-49.95-.3-72.15A301.33,301.33,0,0,1,76.2,27.75Zm106.2,133.8q21.9-34.2,33-59.1a94,94,0,0,1,19,10.35q7,5.25,8.4,6.6a3.79,3.79,0,0,1,1.35,2.55q0,2.41-5.1,2.7-4.8.3-12.3,6t-34.2,30.9h43.2l12.3-15.6q3.6-4.5,6.3-4.5t15.15,11.7Q282,164.85,282,167.7t-5.4,2.85H185.4q24.6,57,105,72.9v6.9q-16.5,0-26.1,2.4t-14.7,12a2.71,2.71,0,0,1-2.4,1.8q-3.6,0-21.3-14.55a146.3,146.3,0,0,1-49.5-81.45h-3.3v70.8q0,12.6.3,19.5l0.3,15a5.18,5.18,0,0,1-1.5,4q-1.5,1.35-9.75,3.9t-12.75,2.55q-2.4,0-2.4-3.3l0.6-14.1q0.6-14.4.6-26.4v-60q-35.7,57.3-100.2,88.8l-2.4-5.1q47.7-37.2,83.4-95.7H85.2a36.26,36.26,0,0,0-12.6,2.1L67.2,160a65.25,65.25,0,0,0,15,1.5h66.3v-35.4q0-18.9-.9-34.2,37.2,8.1,37.2,12.6,0,2.4-11.7,7.5v49.5h9.3Zm53.1-80.1V37H69.9l-1.2,44.4H235.5ZM85.8,104.55q22.5,7.5,33.9,15.3t11.4,15.6a27.81,27.81,0,0,1-4.2,14.7q-4.2,6.9-9.9,6.9-3.9,0-6.9-8.1-6.91-19.8-27-38.7Z"/></svg>